<?xml version="1.0" encoding="UTF-8"?>
<svg xmlns="http://www.w3.org/2000/svg" id="Bold" viewBox="0 0 24 24" width="512" height="512"><path d="M12,7.637A4.363,4.363,0,1,0,16.363,12,4.368,4.368,0,0,0,12,7.637Zm0,5.726A1.363,1.363,0,1,1,13.363,12,1.364,1.364,0,0,1,12,13.363Z"/><path d="M22,12a9.924,9.924,0,0,0-1.041-4.415l.514-.357a1.5,1.5,0,0,0,.373-2.088h0a1.5,1.5,0,0,0-2.088-.373l-.515.358a9.969,9.969,0,0,0-5.743-3V1.5A1.5,1.5,0,0,0,12,0h0a1.5,1.5,0,0,0-1.5,1.5v.625a9.969,9.969,0,0,0-5.743,3l-.515-.358a1.5,1.5,0,0,0-2.088.373h0a1.5,1.5,0,0,0,.373,2.088l.514.357a9.883,9.883,0,0,0,0,8.83l-.514.357a1.5,1.5,0,0,0-.373,2.088h0a1.5,1.5,0,0,0,2.088.373l.515-.358a9.969,9.969,0,0,0,5.743,3V22.5A1.5,1.5,0,0,0,12,24h0a1.5,1.5,0,0,0,1.5-1.5v-.625a9.969,9.969,0,0,0,5.743-3l.515.358a1.5,1.5,0,0,0,2.088-.373h0a1.5,1.5,0,0,0-.373-2.088l-.514-.357A9.924,9.924,0,0,0,22,12ZM12,19a7,7,0,1,1,7-7A7.009,7.009,0,0,1,12,19Z"/></svg>
