<svg id="Layer_1" height="512" viewBox="0 0 24 24" width="512" xmlns="http://www.w3.org/2000/svg" data-name="Layer 1"><path d="m21.521 17.111-1.061-1.061a7 7 0 0 0 -9.9 0l-1.06 1.061-2.121-2.121 1.06-1.061a10 10 0 0 1 14.142 0l1.061 1.061zm-1.415 1.413-1.06-1.06a5.008 5.008 0 0 0 -7.071 0l-1.061 1.06 2.121 2.122 1.061-1.06a2 2 0 0 1 2.829 0l1.06 1.06zm-6.096 3.976a1.5 1.5 0 1 0 1.5-1.5 1.5 1.5 0 0 0 -1.5 1.5zm-4.51-1.172-2.328-2.328h-1.372a2.789 2.789 0 0 1 -2.8-2.775 3.025 3.025 0 0 1 2.218-2.792l2.163-.556-1.333-1.792a5.093 5.093 0 0 1 -1.019-3.055 4.935 4.935 0 0 1 5.062-5.03 5.18 5.18 0 0 1 5.13 4.465l.07.529c.074 0 .145-.015.219-.015a12.892 12.892 0 0 1 7.8 2.614 8.207 8.207 0 0 0 -5.334-4.593 8.2 8.2 0 0 0 -7.885-6 7.96 7.96 0 0 0 -8.062 8.03 8.036 8.036 0 0 0 .691 3.27 5.953 5.953 0 0 0 -2.72 4.925 5.792 5.792 0 0 0 5.8 5.775h4.376z"/></svg>