<?xml version="1.0" encoding="UTF-8"?>
<svg xmlns="http://www.w3.org/2000/svg" id="Layer_1" data-name="Layer 1" viewBox="0 0 24 24" width="512" height="512"><path d="M16,2.75c0,2.163-2.82,4.851-4.225,5.978a1.239,1.239,0,0,1-1.55,0C8.82,7.6,6,4.913,6,2.75A2.634,2.634,0,0,1,8.5,0,2.634,2.634,0,0,1,11,2.75,2.634,2.634,0,0,1,13.5,0,2.634,2.634,0,0,1,16,2.75Zm1.818,17.661,5.2-5.943a3.883,3.883,0,0,0-5.77-5.2l-2.438,2.679A3.629,3.629,0,0,0,12.357,11H4.5A4.505,4.505,0,0,0,0,15.5v4A4.505,4.505,0,0,0,4.5,24H9.914A10.5,10.5,0,0,0,17.818,20.411ZM12.357,14a.642.642,0,0,1,.092,1.278l-5.161.737a1.5,1.5,0,1,0,.424,2.97l5.162-.737a3.665,3.665,0,0,0,3.093-3.116l3.5-3.843a.883.883,0,0,1,1.248-.059.89.89,0,0,1,.055,1.252l-5.206,5.955A7.505,7.505,0,0,1,9.914,21H4.5A1.5,1.5,0,0,1,3,19.5v-4A1.5,1.5,0,0,1,4.5,14Z"/></svg>
