<?xml version="1.0" encoding="UTF-8"?>
<!-- Generator: Adobe Illustrator 26.0.1, SVG Export Plug-In . SVG Version: 6.00 Build 0)  -->
<svg xmlns="http://www.w3.org/2000/svg" xmlns:xlink="http://www.w3.org/1999/xlink" version="1.1" id="Capa_1" x="0px" y="0px" viewBox="0 0 24 24" style="enable-background:new 0 0 24 24;" xml:space="preserve" width="512" height="512">
<g>
	<path d="M18.751,12.006l2.182-2.168c2.261-2.245,2.261-5.903,0-8.148c-2.261-2.245-5.942-2.245-8.203,0l-0.795,0.789   C10.884,0.978,9.149,0,7.168,0C3.968,0,1.371,2.579,1.371,5.758v12.484C1.371,21.421,3.968,24,7.168,24   c1.981,0,3.715-0.978,4.767-2.479l0.795,0.789c2.261,2.245,5.942,2.245,8.203,0c2.261-2.245,2.261-5.903,0-8.148L18.751,12.006   L18.751,12.006z"/>
</g>















</svg>
