<svg id="Layer_1" height="512" viewBox="0 0 24 24" width="512" xmlns="http://www.w3.org/2000/svg" data-name="Layer 1"><path d="m12 0a12 12 0 1 0 12 12 12.013 12.013 0 0 0 -12-12zm-1.332 15.453 1.332-1.332 5.207 5.207a8.946 8.946 0 0 1 -4.169 1.607 11.9 11.9 0 0 0 -2.37-5.482zm2.664-6.906-1.332 1.332-5.206-5.207a8.939 8.939 0 0 1 4.167-1.607 11.916 11.916 0 0 0 2.371 5.482zm-3.453 3.453-1.332 1.332a11.916 11.916 0 0 0 -5.482-2.371 8.934 8.934 0 0 1 1.607-4.167zm4.242 0 1.332-1.332a11.916 11.916 0 0 0 5.482 2.371 8.942 8.942 0 0 1 -1.607 4.168zm6.636-2.042a8.985 8.985 0 0 1 -6.715-6.716 9.021 9.021 0 0 1 6.715 6.716zm-17.514 4.084a8.986 8.986 0 0 1 6.715 6.715 9.018 9.018 0 0 1 -6.715-6.715z"/></svg>