<?xml version="1.0" encoding="UTF-8"?>
<!-- Generator: Adobe Illustrator 26.0.1, SVG Export Plug-In . SVG Version: 6.00 Build 0)  -->
<svg xmlns="http://www.w3.org/2000/svg" xmlns:xlink="http://www.w3.org/1999/xlink" version="1.1" id="Capa_1" x="0px" y="0px" viewBox="0 0 24 24" style="enable-background:new 0 0 24 24;" xml:space="preserve" width="512" height="512">
<g>
	<path d="M11.979,0c3.371,0,6.214,1.157,8.528,3.471C22.835,5.786,24,8.629,24,12c0,3.372-1.143,6.179-3.429,8.421   C18.143,22.807,15.278,24,11.979,24c-3.257,0-6.072-1.186-8.443-3.557C1.179,18.086,0,15.271,0,12c0-3.286,1.179-6.129,3.536-8.528   C5.85,1.157,8.664,0,11.979,0z M2.7,8.764C2.343,9.75,2.164,10.829,2.164,12c0,2.657,0.971,4.957,2.914,6.9   c1.957,1.928,4.271,2.893,6.943,2.893c2.7,0,5.028-0.978,6.986-2.936c0.7-0.671,1.25-1.371,1.65-2.1l-4.521-2.014   c-0.157,0.757-0.539,1.375-1.146,1.854c-0.607,0.479-1.325,0.754-2.154,0.825v1.843h-1.393v-1.843   C10.114,17.407,8.9,16.928,7.8,15.986l1.65-1.671c0.785,0.729,1.678,1.093,2.678,1.093c0.414,0,0.768-0.093,1.061-0.279   c0.293-0.186,0.439-0.493,0.439-0.921c0-0.3-0.107-0.543-0.321-0.728L2.7,8.764z M21.536,14.571c0.2-0.843,0.3-1.7,0.3-2.571   c0-2.757-0.957-5.078-2.871-6.964c-1.9-1.928-4.214-2.893-6.943-2.893c-2.729,0-5.036,0.964-6.921,2.893   C4.629,5.507,4.186,6.043,3.771,6.643L8.357,8.7c0.2-0.628,0.579-1.132,1.136-1.511C10.05,6.811,10.7,6.6,11.443,6.557V4.714h1.393   v1.843c1.1,0.057,2.1,0.428,3,1.114l-1.564,1.607c-0.672-0.472-1.357-0.707-2.057-0.707c-0.372,0-0.704,0.072-0.996,0.214   c-0.293,0.143-0.439,0.386-0.439,0.728c0,0.1,0.035,0.2,0.107,0.3L21.536,14.571z"/>
</g>















</svg>
