<?xml version="1.0" encoding="UTF-8"?>
<!-- Generator: Adobe Illustrator 26.0.1, SVG Export Plug-In . SVG Version: 6.00 Build 0)  -->
<svg xmlns="http://www.w3.org/2000/svg" xmlns:xlink="http://www.w3.org/1999/xlink" version="1.1" id="Capa_1" x="0px" y="0px" viewBox="0 0 24 24" style="enable-background:new 0 0 24 24;" xml:space="preserve" width="512" height="512">
<g>
	<path style="fill-rule:evenodd;clip-rule:evenodd;" d="M18.078,16.345c-0.209-0.261-8.709-11.13-9.005-11.496   c-0.279-0.366-0.209-0.47-0.157-0.523c0.105-0.122,0.261-0.105,0.871-0.105c0.366,0,3.989-0.017,4.372-0.017   c0.784,0,0.906,0.07,0.993,0.087c0.087,0.035,0.296,0.209,0.453,0.383c0.087,0.105,7.699,9.214,7.768,9.301   c0.087,0.105,0.209,0.279,0.314,0.435c0.087,0.157,0.105,0.366-0.035,0.453c-0.087,0.052-4.302,1.794-4.424,1.829   c-0.122,0.052-0.348,0.139-0.523,0.105C18.618,16.798,18.357,16.676,18.078,16.345"/>
	<path style="fill-rule:evenodd;clip-rule:evenodd;" d="M22.38,16.136l0.314,0.052c0,0,1.01,0.192,1.115,0.226   C23.913,16.432,24,16.519,24,16.554c0,0.087-0.052,0.122-0.139,0.174c-0.07,0.052-4.633,2.856-4.72,2.909   c-0.087,0.052-0.192,0.105-0.435,0.139c-0.453,0.087-1.306-0.157-1.585-0.209c-0.261-0.052-11.461-2.543-11.548-2.578   c-0.105-0.035-0.174-0.035-0.174-0.139c-0.017-0.157,0.226-0.209,0.418-0.279c0.192-0.07,5.452-1.968,5.643-2.055   c0.192-0.087,0.418-0.105,0.54-0.105s0.853,0.105,1.184,0.157s1.271,0.192,1.271,0.192l2.142,2.769   c0.366,0.435,0.61,0.61,0.923,0.627c0.157,0.017,0.331-0.035,0.453-0.087C18.061,18.035,22.38,16.136,22.38,16.136"/>
	<path style="fill-rule:evenodd;clip-rule:evenodd;" d="M10.153,9.343c0,0,1.899,2.456,1.933,2.473v0.035   c-0.07,0.052-3.362,3.1-3.379,3.118l-3.466,1.271c0,0-0.105,0.035-0.157,0.07c-0.052,0.035-0.122,0.105-0.105,0.261   c0,0.052,0.017,0.853,0.035,1.045c-0.017,0.017-4.004,1.28-4.32,1.376c-0.209,0.07-0.61,0.209-0.662,0.174   c-0.087-0.07,0.017-0.174,0.07-0.244c0.052-0.07,8.796-8.674,9.127-9.022C9.7,9.395,10.153,9.343,10.153,9.343"/>
</g>















</svg>
