<?xml version="1.0" encoding="UTF-8"?>
<svg xmlns="http://www.w3.org/2000/svg" id="Bold" viewBox="0 0 24 24" width="512" height="512"><path d="M24,10.091,22.751,4.307A5.466,5.466,0,0,0,17.382,0H6.618A5.466,5.466,0,0,0,1.249,4.307L.036,9.766,0,11.046a4.321,4.321,0,0,0,1,2.745V18.5A5.506,5.506,0,0,0,6.5,24h11A5.506,5.506,0,0,0,23,18.5V13.791a4.321,4.321,0,0,0,1-2.745ZM3,10.256l1.177-5.3A2.5,2.5,0,0,1,6.618,3H7V4.5A1.5,1.5,0,0,0,8.5,6h0A1.5,1.5,0,0,0,10,4.5V3h4V4.5A1.5,1.5,0,0,0,15.5,6h0A1.5,1.5,0,0,0,17,4.5V3h.382a2.5,2.5,0,0,1,2.441,1.958L21,10.256v.79a1.364,1.364,0,0,1-2.727,0,2.455,2.455,0,1,0-4.909,0,1.364,1.364,0,0,1-2.728,0,2.455,2.455,0,1,0-4.909,0,1.364,1.364,0,0,1-2.727,0ZM17.5,21H6.5A2.5,2.5,0,0,1,4,18.5V15.372c.122.011.239.037.364.037a4.367,4.367,0,0,0,3.818-2.253,4.362,4.362,0,0,0,7.636,0,4.367,4.367,0,0,0,3.818,2.253c.125,0,.242-.026.364-.037V18.5A2.5,2.5,0,0,1,17.5,21Z"/></svg>
