<?xml version="1.0" encoding="UTF-8"?>
<svg xmlns="http://www.w3.org/2000/svg" id="Layer_1" data-name="Layer 1" viewBox="0 0 24 24" width="512" height="512"><path d="M12,14.5A1.5,1.5,0,1,1,10.5,13,1.5,1.5,0,0,1,12,14.5ZM6.8,23.271,9.709,24l1.5-6L8.3,17.271ZM13.5,21A1.5,1.5,0,1,0,15,22.5,1.5,1.5,0,0,0,13.5,21ZM24,12.478V12.5a8.048,8.048,0,0,1-6.382,7.822l.879-3.514A5.013,5.013,0,0,0,21,12.5v-.022h0A4.517,4.517,0,0,0,16.452,8L15.37,7.965l-.308-1.038A5.4,5.4,0,0,0,10.091,3,4.935,4.935,0,0,0,5,8a5.918,5.918,0,0,0,.247,2.024l.479,1.258-1.2.613A2.787,2.787,0,0,0,3,14.387a3.159,3.159,0,0,0,1.652,2.776l.313.159,1.18.316-.719,2.874-.693-.15A6.156,6.156,0,0,1,0,14.387v-.011A5.767,5.767,0,0,1,2.133,9.893,11.943,11.943,0,0,1,2,8a7.96,7.96,0,0,1,8.091-8,8.292,8.292,0,0,1,7.492,5.1A7.411,7.411,0,0,1,24,12.478ZM.005,14.387H0C0,14.4,0,14.405.005,14.387Zm2.994,0H3C3,14.405,3,14.4,3,14.387ZM12.8,19l2.91.728,1.5-6L14.3,13Z"/></svg>
