<?xml version="1.0" encoding="UTF-8"?>
<svg xmlns="http://www.w3.org/2000/svg" id="Layer_1" data-name="Layer 1" viewBox="0 0 24 24" width="512" height="512"><path d="M10.268,19.732a2.5,2.5,0,1,1-3.536,0L8.5,18Zm4-7L12.5,11l-1.768,1.729a2.5,2.5,0,1,0,3.536,0ZM16.5,18.058l-1.768,1.729a2.5,2.5,0,1,0,3.536,0ZM24,12.477V12.5a8.032,8.032,0,0,1-3.678,6.707,4.62,4.62,0,0,0-.656-.85l-1.432-1.4A5.018,5.018,0,0,0,21,12.5v-.023h0A4.516,4.516,0,0,0,16.452,8L15.37,7.965l-.308-1.038A5.4,5.4,0,0,0,10.091,3,4.935,4.935,0,0,0,5,8a5.935,5.935,0,0,0,.247,2.025l.479,1.258-1.2.612A2.784,2.784,0,0,0,3,14.386a3.16,3.16,0,0,0,1.652,2.777l.313.159,1.116.25-.763.746A4.454,4.454,0,0,0,4.212,20.2,6.161,6.161,0,0,1,0,14.386v-.01A5.769,5.769,0,0,1,2.133,9.892,11.93,11.93,0,0,1,2,8a7.96,7.96,0,0,1,8.091-8,8.294,8.294,0,0,1,7.493,5.1A7.411,7.411,0,0,1,24,12.477ZM.005,14.386H0C0,14.4,0,14.405.005,14.386Zm2.994,0H3C3,14.405,3,14.4,3,14.386Z"/></svg>
