<?xml version="1.0" encoding="UTF-8"?>
<svg xmlns="http://www.w3.org/2000/svg" id="Layer_1" data-name="Layer 1" viewBox="0 0 24 24" width="512" height="512"><path d="M10,8a2,2,0,1,1,2,2A2,2,0,0,1,10,8Zm14,5.374v5.149a4.51,4.51,0,0,1-1.738,3.594,4.249,4.249,0,0,1-3.674.774c-.044-.011-2.328-.818-2.328-.818a2.114,2.114,0,0,0-1.148.011l-5.5,1.706A5.275,5.275,0,0,1,8.14,24a5.1,5.1,0,0,1-1.6-.256l-2.739-.9A5.494,5.494,0,0,1,0,17.576V13.5A5.52,5.52,0,0,1,1.707,9.462,5.294,5.294,0,0,1,4.013,8.2,8.084,8.084,0,0,1,6.337,2.374a7.941,7.941,0,0,1,11.326,0,8.088,8.088,0,0,1,2.329,5.652l.466.163A5.517,5.517,0,0,1,24,13.373ZM8.471,11.68,11.764,14.9a.34.34,0,0,0,.484,0l3.3-3.235a5.134,5.134,0,0,0-.016-7.182h0a4.945,4.945,0,0,0-7.058,0A5.14,5.14,0,0,0,8.471,11.68ZM21,13.373a2.5,2.5,0,0,0-1.552-2.358,8.026,8.026,0,0,1-1.785,2.774l-3.314,3.252a3.324,3.324,0,0,1-4.682,0L6.355,13.807A8.118,8.118,0,0,1,4.6,11.126a2.371,2.371,0,0,0-.818.508A2.545,2.545,0,0,0,3,13.5v4.075a2.487,2.487,0,0,0,1.7,2.409l2.776.908a2.155,2.155,0,0,0,1.272.023l5.511-1.708a5.158,5.158,0,0,1,2.937.015L19.383,20a1.256,1.256,0,0,0,1.038-.249A1.532,1.532,0,0,0,21,18.522Z"/></svg>
