<?xml version="1.0" encoding="UTF-8"?>
<!-- Generator: Adobe Illustrator 26.0.1, SVG Export Plug-In . SVG Version: 6.00 Build 0)  -->
<svg xmlns="http://www.w3.org/2000/svg" xmlns:xlink="http://www.w3.org/1999/xlink" version="1.1" id="Capa_1" x="0px" y="0px" viewBox="0 0 24 24" style="enable-background:new 0 0 24 24;" xml:space="preserve" width="512" height="512">
<g>
	<path d="M14.433,17.159c-0.686,0.659-1.515,1.168-2.437,1.477c-0.921-0.309-1.751-0.818-2.436-1.477H14.433z"/>
	<path d="M7.428,7.498c-0.964-0.814-2.11-1.427-3.365-1.762l-0.001,7.827c0,4.388,3.541,7.886,7.939,7.886   c4.398,0,7.933-3.513,7.933-7.901l0.001-7.804c-1.258,0.337-2.402,0.935-3.368,1.753c-1.292-0.911-2.867-1.446-4.568-1.446   C10.296,6.05,8.72,6.586,7.428,7.498z M7.448,5.213c1.361-0.708,2.908-1.107,4.548-1.107c1.638,0,3.183,0.398,4.543,1.104   c0.32-0.203,0.653-0.388,0.995-0.556c-1.451-1.349-3.396-2.173-5.534-2.173c-2.142,0-4.09,0.828-5.542,2.181   C6.773,4.817,7.144,5.024,7.448,5.213z M4.568,3.946c1.829-2.043,4.486-3.325,7.444-3.325c2.955,0,5.608,1.28,7.437,3.319   c0.777-0.209,1.587-0.331,2.423-0.356l0,3.349C23.15,7.728,24,9.145,24,10.76c0,1.618-0.854,3.037-2.136,3.831l-0.014,0.084   c-0.534,4.928-4.776,8.704-9.882,8.704c-5.107,0-9.31-3.844-9.841-8.776C0.849,13.79,0,12.374,0,10.76   c0-1.613,0.847-3.027,2.121-3.823V3.583C2.969,3.608,3.782,3.734,4.568,3.946z"/>
	<g>
		<path d="M14.465,13.569c1.323-0.15,3.543-0.133,3.543-0.133c-0.037,0.396,0.006,1.564-1.268,2.295    c-0.211,0.121-0.737,0.292-1.233,0.315c-1.223,0.055-2.966,0.071-2.966,0.071C12.849,14.729,13.36,13.695,14.465,13.569z"/>
		<path d="M9.528,13.569c1.105,0.126,1.616,1.16,1.923,2.547c0,0-1.743-0.015-2.966-0.071c-0.496-0.023-1.022-0.194-1.233-0.315    C5.978,15,6.021,13.832,5.984,13.436C5.984,13.436,8.205,13.419,9.528,13.569z"/>
	</g>
	<path d="M14.325,19.839c-0.667,0.403-1.467,0.638-2.328,0.638c-0.861,0-1.661-0.235-2.328-0.638c0,0,0.044-0.262,0.181-0.463   c0.167-0.246,0.31-0.317,0.31-0.317c0.569,0.166,1.188,0.258,1.837,0.258c0.648,0,1.268-0.092,1.837-0.258   c0,0,0.175,0.095,0.332,0.352C14.312,19.648,14.325,19.839,14.325,19.839z"/>
</g>















</svg>
