<svg id="Layer_1" height="512" viewBox="0 0 24 24" width="512" xmlns="http://www.w3.org/2000/svg" data-name="Layer 1"><path d="m19.227 0h-1.917a4.739 4.739 0 0 0 -3.374 1.4l-3.536 3.535a4.809 4.809 0 0 0 -1.4 3.376v3.671c-2.635 1.953-5.642 4.206-6.077 4.641a3.063 3.063 0 0 0 -.781 3.114l-1.7 1.7a1.5 1.5 0 0 0 2.122 2.122l1.7-1.7a3.063 3.063 0 0 0 3.113-.78c.435-.435 2.689-3.442 4.642-6.078h3.671a4.739 4.739 0 0 0 3.374-1.4l3.536-3.536a4.809 4.809 0 0 0 1.4-3.376v-1.917a4.778 4.778 0 0 0 -4.773-4.772zm1.773 6.689a1.785 1.785 0 0 1 -.519 1.254l-3.538 3.537a1.761 1.761 0 0 1 -1.253.52h-1.458l.309-.42 4.02-4.019a1.5 1.5 0 0 0 -2.122-2.122l-4.021 4.022-.418.307v-1.457a1.785 1.785 0 0 1 .519-1.254l3.538-3.537a1.761 1.761 0 0 1 1.253-.52h1.917a1.774 1.774 0 0 1 1.773 1.772z"/></svg>