<?xml version="1.0" encoding="UTF-8"?>
<svg xmlns="http://www.w3.org/2000/svg" id="Layer_1" data-name="Layer 1" viewBox="0 0 24 24" width="512" height="512"><path d="M21,13a2.991,2.991,0,0,0-2.078.837l-1.556-.631A5.45,5.45,0,0,0,17.5,12a5.5,5.5,0,0,0-6.54-5.4L9.928,4.761A3,3,0,1,0,7.173,5.982L8.28,7.953a5.49,5.49,0,0,0-1.168,6.566L4.036,17.184A3,3,0,1,0,6,20a3.061,3.061,0,0,0-.044-.51l3.207-2.78a5.489,5.489,0,0,0,6.754-.854l2.175.881A3,3,0,1,0,21,13Zm-9,1.5A2.5,2.5,0,1,1,14.5,12,2.5,2.5,0,0,1,12,14.5Z"/></svg>
