<?xml version="1.0" encoding="UTF-8"?>
<!-- Generator: Adobe Illustrator 26.0.1, SVG Export Plug-In . SVG Version: 6.00 Build 0)  -->
<svg xmlns="http://www.w3.org/2000/svg" xmlns:xlink="http://www.w3.org/1999/xlink" version="1.1" id="Capa_1" x="0px" y="0px" viewBox="0 0 24 24" style="enable-background:new 0 0 24 24;" xml:space="preserve" width="512" height="512">
<g id="Layer_2_00000149339832501901268170000009620470943051350411_">
	<g id="Surfaces_00000158735292941042994350000006045669776503211648_">
		<g id="Photo_Surface_00000130606926174470119730000013937334687277070509_">
			<g id="Outline_no_shadow_00000034074399127683104720000000701717019911829381_">
				<path d="M19.75,0.3H4.25C1.9,0.3,0,2.2,0,4.55v14.9c0,2.35,1.9,4.25,4.25,4.25h15.5c2.35,0,4.25-1.9,4.25-4.25V4.55      C24,2.2,22.1,0.3,19.75,0.3z M13.06,8.26c-0.03,0.03-0.07,0.04-0.1,0.04H8.47v2.45h4.02c0.1,0,0.14,0.04,0.14,0.11v1.77      c0.01,0.06-0.03,0.12-0.1,0.13H12.5l-4.03,0.01v3.94c0.01,0.06-0.03,0.12-0.1,0.13H6.36c-0.03,0-0.07-0.01-0.09-0.03      c-0.02-0.03-0.03-0.07-0.02-0.11V6.41c0-0.15,0.04-0.23,0.11-0.23h6.38c0.04,0,0.08,0,0.11,0.02c0.02,0.02,0.04,0.09,0.05,0.22      l0.18,1.75C13.09,8.2,13.08,8.24,13.06,8.26z M18.86,10.78c0,0.08-0.05,0.11-0.16,0.11c-0.65-0.04-1.3,0.08-1.89,0.34      c-0.2,0.09-0.39,0.21-0.54,0.37v5.1c0,0.1-0.04,0.14-0.13,0.14H14.2c-0.08,0.01-0.15-0.04-0.16-0.12v-5.58      c0-0.24,0-0.49-0.01-0.75c-0.01-0.26-0.01-0.52-0.02-0.78C14,9.39,13.98,9.17,13.95,8.95c-0.01-0.05,0.02-0.1,0.07-0.11      c0-0.01,0.02-0.01,0.03,0h1.75c0.1,0,0.18,0.07,0.21,0.16c0.04,0.07,0.07,0.15,0.08,0.23c0.02,0.1,0.04,0.21,0.05,0.31      c0.01,0.11,0.02,0.23,0.02,0.36c0.3-0.35,0.66-0.64,1.07-0.86c0.46-0.25,0.97-0.37,1.49-0.36c0.07-0.01,0.13,0.04,0.14,0.11      V10.78z"/>
			</g>
		</g>
	</g>
</g>















</svg>
