<?xml version="1.0" encoding="UTF-8"?>
<!-- Generator: Adobe Illustrator 26.0.1, SVG Export Plug-In . SVG Version: 6.00 Build 0)  -->
<svg xmlns="http://www.w3.org/2000/svg" xmlns:xlink="http://www.w3.org/1999/xlink" version="1.1" id="Capa_1" x="0px" y="0px" viewBox="0 0 24 24" style="enable-background:new 0 0 24 24;" xml:space="preserve" width="512" height="512">
<path d="M20.515,3.48C18.192,1.16,15.348,0,11.984,0C8.66,0,5.847,1.16,3.544,3.48C1.181,5.88,0,8.719,0,12  c0,3.279,1.181,6.1,3.544,8.459C5.907,22.82,8.72,24,11.984,24c3.304,0,6.168-1.19,8.59-3.57C22.858,18.17,24,15.36,24,12  C24,8.64,22.838,5.799,20.515,3.48z M19.013,18.87c-1.982,1.96-4.315,2.939-6.998,2.939c-2.684,0-4.997-0.97-6.939-2.91  c-1.942-1.94-2.913-4.24-2.913-6.899c0-1.125,0.178-2.189,0.529-3.191l3.18,1.408H5.642v1.426h1.125c0,0.202-0.02,0.402-0.02,0.603  v0.342H5.642v1.426h1.306c0.181,1.065,0.583,1.928,1.125,2.612c1.125,1.487,2.933,2.29,4.902,2.29c1.286,0,2.451-0.381,3.134-0.764  l-0.483-2.23c-0.422,0.221-1.365,0.522-2.29,0.522c-1.005,0-1.948-0.301-2.592-1.024c-0.301-0.341-0.522-0.804-0.662-1.406h4.367  l6.206,2.747C20.225,17.521,19.679,18.225,19.013,18.87z M11.208,12.587l-0.026-0.02 M14.944,11.642h0.179v-1.426h-3.401  L10.34,9.605c0.119-0.268,0.26-0.507,0.424-0.694c0.623-0.764,1.506-1.085,2.471-1.085c0.884,0,1.707,0.261,2.23,0.482l0.563-2.29  c-0.724-0.321-1.788-0.602-3.013-0.602c-1.888,0-3.496,0.763-4.641,2.049C8.119,7.757,7.899,8.087,7.699,8.435L3.753,6.689  c0.382-0.574,0.832-1.124,1.353-1.65c1.883-1.92,4.185-2.88,6.909-2.88c2.723,0,5.036,0.96,6.939,2.88  c1.922,1.9,2.883,4.22,2.883,6.96c0,0.903-0.103,1.755-0.305,2.558L14.944,11.642z"/>















</svg>
