<?xml version="1.0" encoding="UTF-8"?>
<!-- Generator: Adobe Illustrator 26.0.1, SVG Export Plug-In . SVG Version: 6.00 Build 0)  -->
<svg xmlns="http://www.w3.org/2000/svg" xmlns:xlink="http://www.w3.org/1999/xlink" version="1.1" id="Capa_1" x="0px" y="0px" viewBox="0 0 24 24" style="enable-background:new 0 0 24 24;" xml:space="preserve" width="512" height="512">
<g>
	<path d="M1.899,8.507h3.559C6.503,8.516,7.26,8.817,7.73,9.41c0.469,0.593,0.624,1.403,0.465,2.43   c-0.062,0.469-0.199,0.93-0.412,1.381c-0.204,0.452-0.487,0.859-0.85,1.222c-0.443,0.46-0.916,0.753-1.421,0.877   c-0.505,0.124-1.027,0.186-1.567,0.186H2.351L1.846,18.03H0L1.899,8.507L1.899,8.507 M3.453,10.021l-0.797,3.984   c0.053,0.009,0.106,0.013,0.159,0.013c0.062,0,0.124,0,0.186,0c0.85,0.009,1.558-0.075,2.125-0.252   c0.567-0.186,0.947-0.832,1.142-1.939c0.159-0.93,0-1.465-0.478-1.607c-0.469-0.142-1.058-0.208-1.766-0.199   c-0.106,0.009-0.208,0.013-0.305,0.013c-0.088,0-0.181,0-0.279,0L3.453,10.021"/>
	<path d="M10.297,5.97h1.833l-0.518,2.537h1.647c0.903,0.018,1.576,0.204,2.019,0.558c0.452,0.354,0.584,1.027,0.398,2.019   l-0.89,4.423h-1.859l0.85-4.223c0.088-0.443,0.062-0.757-0.08-0.943c-0.142-0.186-0.447-0.279-0.916-0.279l-1.474-0.013   l-1.089,5.458H8.385L10.297,5.97L10.297,5.97"/>
	<path d="M17.644,8.507h3.559c1.045,0.009,1.802,0.31,2.271,0.903c0.469,0.593,0.624,1.403,0.465,2.43   c-0.062,0.469-0.199,0.93-0.412,1.381c-0.204,0.452-0.487,0.859-0.85,1.222c-0.443,0.46-0.916,0.753-1.421,0.877   c-0.505,0.124-1.027,0.186-1.567,0.186h-1.594l-0.505,2.523h-1.846L17.644,8.507L17.644,8.507 M19.198,10.021l-0.797,3.984   c0.053,0.009,0.106,0.013,0.159,0.013c0.062,0,0.124,0,0.186,0c0.85,0.009,1.558-0.075,2.125-0.252   c0.567-0.186,0.947-0.832,1.142-1.939c0.159-0.93,0-1.465-0.478-1.607c-0.469-0.142-1.058-0.208-1.766-0.199   c-0.106,0.009-0.208,0.013-0.305,0.013c-0.088,0-0.181,0-0.279,0L19.198,10.021"/>
</g>















</svg>
