<?xml version="1.0" encoding="UTF-8"?>
<!-- Generator: Adobe Illustrator 26.0.1, SVG Export Plug-In . SVG Version: 6.00 Build 0)  -->
<svg xmlns="http://www.w3.org/2000/svg" xmlns:xlink="http://www.w3.org/1999/xlink" version="1.1" id="Capa_1" x="0px" y="0px" viewBox="0 0 24 24" style="enable-background:new 0 0 24 24;" xml:space="preserve" width="512" height="512">
<g>
	<path d="M22.436,1.575c-1.174-1.174-2.734-1.564-4.351-1.564H5.915c-1.589,0-3.201,0.391-4.351,1.541   C0.378,2.738,0.067,4.29,0,5.904v12.17c0,1.544,0.389,3.246,1.564,4.351c1.174,1.174,2.734,1.564,4.351,1.564h12.17   c2.19,0,4.192-0.854,5.28-2.833C23.871,20.236,24,19.107,24,18.074V5.926C24,4.365,23.625,2.693,22.436,1.575z M20.193,19.615   c-1.088-2.085-3.083-1.564-4.102-1.042c-0.091,0.045-0.181,0.113-0.272,0.158l0,0c-2.107,1.133-4.986,1.224-7.842,0   c-2.402-1.042-4.374-2.81-5.643-4.85c0.657,0.476,1.36,0.907,2.107,1.246c3.014,1.428,6.051,1.314,8.204,0   c-3.06-2.357-5.62-5.416-7.569-7.909C4.714,6.788,4.374,6.312,4.08,5.835c2.357,2.13,6.051,4.828,7.388,5.575   c-2.81-2.969-5.303-6.64-5.19-6.527c4.442,4.464,8.544,7.003,8.544,7.003c0.159,0.068,0.272,0.136,0.363,0.204   c0.09-0.226,0.158-0.453,0.226-0.68c0.703-2.584-0.09-5.552-1.904-8c4.125,2.47,6.55,7.184,5.552,11.15   c-0.022,0.091-0.045,0.181-0.068,0.272C21.076,17.371,20.51,20.091,20.193,19.615z"/>
</g>















</svg>
