<?xml version="1.0" encoding="UTF-8"?>
<!-- Generator: Adobe Illustrator 26.0.1, SVG Export Plug-In . SVG Version: 6.00 Build 0)  -->
<svg xmlns="http://www.w3.org/2000/svg" xmlns:xlink="http://www.w3.org/1999/xlink" version="1.1" id="Capa_1" x="0px" y="0px" viewBox="0 0 24 24" style="enable-background:new 0 0 24 24;" xml:space="preserve" width="512" height="512">
<g>
	<path d="M11.979,0c3.357,0,6.2,1.164,8.528,3.493C22.835,5.807,24,8.643,24,12c0,3.357-1.143,6.171-3.429,8.443   C18.157,22.814,15.293,24,11.979,24c-3.243,0-6.057-1.178-8.443-3.536C1.179,18.107,0,15.286,0,12c0-3.271,1.179-6.107,3.536-8.507   C5.864,1.164,8.678,0,11.979,0z M12.021,2.164c-2.729,0-5.036,0.964-6.921,2.893C3.143,7.043,2.164,9.357,2.164,12   c0,2.672,0.971,4.971,2.914,6.9c1.943,1.943,4.257,2.914,6.943,2.914c2.671,0,5-0.978,6.986-2.936   c1.886-1.828,2.829-4.121,2.829-6.879c0-2.743-0.957-5.057-2.871-6.943C17.064,3.129,14.75,2.164,12.021,2.164z M6.664,10.307   c0.228-1.471,0.821-2.611,1.779-3.418c0.957-0.807,2.121-1.211,3.493-1.211c1.886,0,3.386,0.607,4.5,1.821   c1.114,1.214,1.671,2.772,1.671,4.671c0,1.843-0.579,3.375-1.736,4.597c-1.157,1.221-2.657,1.832-4.5,1.832   c-1.357,0-2.529-0.407-3.514-1.222c-0.986-0.814-1.579-1.971-1.779-3.471H9.6c0.071,1.457,0.95,2.186,2.636,2.186   c0.843,0,1.521-0.364,2.036-1.093c0.514-0.729,0.772-1.7,0.772-2.914c0-1.271-0.236-2.239-0.707-2.903   c-0.472-0.664-1.15-0.997-2.036-0.997c-1.6,0-2.5,0.707-2.7,2.121h0.879L8.1,12.686l-2.378-2.379H6.664z"/>
</g>















</svg>
