<?xml version="1.0" encoding="UTF-8"?>
<svg xmlns="http://www.w3.org/2000/svg" id="Isolation_Mode" data-name="Isolation Mode" viewBox="0 0 24 24" width="512" height="512"><path d="M10.414,10.414a2,2,0,0,0-2.828,0L5,13v6H19Z"/><circle cx="16" cy="8" r="2.5"/><path d="M21,21H16v3h5.546A2.457,2.457,0,0,0,24,21.545V16H21Z"/><path d="M3,3H8V0H2.454A2.457,2.457,0,0,0,0,2.455V8H3Z"/><path d="M3,16H0v5.545A2.457,2.457,0,0,0,2.454,24H8V21H3Z"/><path d="M21.546,0H16V3h5V8h3V2.455A2.457,2.457,0,0,0,21.546,0Z"/></svg>
