<?xml version="1.0" encoding="UTF-8"?>
<svg xmlns="http://www.w3.org/2000/svg" id="Layer_1" data-name="Layer 1" viewBox="0 0 24 24" width="512" height="512"><path d="M16,5.669V0H8V5.669C5.86,7.087,0,11.573,0,18.2A4.823,4.823,0,0,0,4.841,23a5.152,5.152,0,0,0,3.195-1.17A4.9,4.9,0,0,0,16,22.072,5.829,5.829,0,0,0,19.159,23,4.823,4.823,0,0,0,24,18.2C24,11.573,18.14,7.087,16,5.669ZM13,3V5.853a7.779,7.779,0,0,0-1,1.492,7.779,7.779,0,0,0-1-1.492V3ZM4.841,20A1.8,1.8,0,0,1,3,18.2C3,13.463,7.207,9.91,9.206,8.489a8.715,8.715,0,0,1,.563,1.155A13.671,13.671,0,0,0,7.016,18H7A2.291,2.291,0,0,1,4.841,20ZM12,21a2.339,2.339,0,0,1-2-2.522,11,11,0,0,1,1.988-6.823A12.035,12.035,0,0,1,14,18.978,1.885,1.885,0,0,1,12,21Zm7.159-1C18.121,20,17,19.427,17,18.5h-.015a14.619,14.619,0,0,0-2.761-8.838A8.567,8.567,0,0,1,14.8,8.486C16.8,9.9,21,13.44,21,18.2A1.8,1.8,0,0,1,19.159,20Z"/></svg>
