<?xml version="1.0" encoding="UTF-8"?>
<svg xmlns="http://www.w3.org/2000/svg" id="Layer_1" data-name="Layer 1" viewBox="0 0 24 24" width="512" height="512"><path d="M16.277,11H7.815L0,22.019V24H24V21.935ZM4.354,21l3.658-5.117c0,.04-.012.077-.012.117v2h3V16a1,1,0,0,1,2,0v4h3V16c0-.077-.018-.148-.023-.224L19.667,21ZM2,6A3.005,3.005,0,0,1,4.518,3.039a3.993,3.993,0,0,1,4.5-1.906,4.48,4.48,0,0,1,5.956,0,3.993,3.993,0,0,1,4.5,1.906A3,3,0,0,1,19,9H13V6h4.164l-.185-1.159a.987.987,0,0,0-1.551-.656l-1.318.931-.832-1.382a1.48,1.48,0,0,0-2.556,0L9.89,5.116,8.572,4.185a.987.987,0,0,0-1.551.656L6.836,6,11,6V9H5A3,3,0,0,1,2,6Z"/></svg>
