<?xml version="1.0" encoding="UTF-8"?>
<svg xmlns="http://www.w3.org/2000/svg" id="Layer_1" data-name="Layer 1" viewBox="0 0 24 24" width="512" height="512"><path d="M20.389,3.3A3.512,3.512,0,0,0,17.1,1H6.9A3.493,3.493,0,0,0,3.628,3.263L1.469,8.7A24.288,24.288,0,0,0,0,17.032V20H3v3H7V20H17v3h4V20h3V17.032a24.349,24.349,0,0,0-1.484-8.375ZM17,15.5h0A1.5,1.5,0,0,1,18.5,14h0A1.5,1.5,0,0,1,20,15.5h0A1.5,1.5,0,0,1,18.5,17h0A1.5,1.5,0,0,1,17,15.5ZM4.271,9.765,6.432,4.329A.5.5,0,0,1,6.9,4H17.1a.52.52,0,0,1,.485.37l2.128,5.354c.153.421.285.847.406,1.276H3.878C4,10.584,4.124,10.171,4.271,9.765ZM5.5,17h0A1.5,1.5,0,0,1,4,15.5H4A1.5,1.5,0,0,1,5.5,14h0A1.5,1.5,0,0,1,7,15.5H7A1.5,1.5,0,0,1,5.5,17Z"/></svg>
