<?xml version="1.0" encoding="UTF-8"?>
<svg xmlns="http://www.w3.org/2000/svg" id="Layer_1" data-name="Layer 1" viewBox="0 0 24 24" width="512" height="512"><path d="M12,0C5.383,0,0,5.1,0,11.361A4.884,4.884,0,0,0,2.784,15.71l.809.372.713-.532a14.788,14.788,0,0,1,3.318-1.714A37.439,37.439,0,0,0,7,19a5,5,0,0,0,10,0,37.276,37.276,0,0,0-.623-5.157,15.047,15.047,0,0,1,3.317,1.707l.713.532.809-.372A4.884,4.884,0,0,0,24,11.361C24,5.1,18.617,0,12,0Zm2,19a2,2,0,0,1-4,0,37.316,37.316,0,0,1,.845-5.932A10.94,10.94,0,0,1,12,13a10.94,10.94,0,0,1,1.155.068A37.3,37.3,0,0,1,14,19Zm6.546-6.473A17.178,17.178,0,0,0,12,10a17.188,17.188,0,0,0-8.545,2.526A1.712,1.712,0,0,1,3,11.361C3,6.75,7.038,3,12,3s9,3.75,9,8.361A1.722,1.722,0,0,1,20.546,12.527Z"/></svg>
