<?xml version="1.0" encoding="UTF-8"?>
<svg xmlns="http://www.w3.org/2000/svg" id="Layer_1" data-name="Layer 1" viewBox="0 0 24 24" width="512" height="512"><path d="M23.11,12.179c-.175-.2-1.721-1.982-2.172-2.434A3.674,3.674,0,0,0,19.863,9a4.075,4.075,0,0,0-3.938-5,3.98,3.98,0,0,0-.948.113,3.658,3.658,0,0,0-.747-1.075C13.779,2.586,12,1.041,11.8.866L10.741-.048,9.754.939C5.44,5.253,3.78,11.2,2.582,16.468L1.025,18.025a3.515,3.515,0,0,0-.013,4.938,3.517,3.517,0,0,0,4.939-.012l1.557-1.557c5.27-1.2,11.215-2.858,15.528-7.172l.988-.987ZM10.931,4.094c.526.464,1.015.9,1.178,1.065a.748.748,0,0,1,.206.525.713.713,0,0,1-.2.511l.01.01C10.65,7.865,8.954,10.07,8.2,11.074l-.748-.748A21.426,21.426,0,0,1,10.931,4.094ZM7.45,18.328l-1.8-1.8c.23-.985.478-1.99.761-3l4.039,4.039C9.44,17.851,8.435,18.1,7.45,18.328Zm2.887-5.112a71.878,71.878,0,0,1,4.882-5.924,1.036,1.036,0,0,1,1.464,1.465,71.724,71.724,0,0,1-5.923,4.882Zm3.312,3.312-.747-.747c1-.759,3.209-2.455,4.869-3.934l.01.01a.713.713,0,0,1,.511-.2.751.751,0,0,1,.525.205c.163.164.6.653,1.065,1.179A21.392,21.392,0,0,1,13.649,16.528Z"/></svg>
