<?xml version="1.0" encoding="UTF-8"?>
<!-- Generator: Adobe Illustrator 26.0.1, SVG Export Plug-In . SVG Version: 6.00 Build 0)  -->
<svg xmlns="http://www.w3.org/2000/svg" xmlns:xlink="http://www.w3.org/1999/xlink" version="1.1" id="Capa_1" x="0px" y="0px" viewBox="0 0 24 24" style="enable-background:new 0 0 24 24;" xml:space="preserve" width="512" height="512">
<g id="Layer_2_00000012444315760253497670000016708113870020974252_">
	<g id="Surfaces_00000083785640516064199570000010109223220607276941_">
		<g id="Photo_Surface_3_">
			<g id="Outline_no_shadow_00000088104439256256445230000015830809593780030595_">
				<path d="M19.75,0.3H4.25C1.9,0.3,0,2.2,0,4.55v14.9c0,2.35,1.9,4.25,4.25,4.25h15.5c2.35,0,4.25-1.9,4.25-4.25V4.55      C24,2.2,22.1,0.3,19.75,0.3z M13.05,14.95l-0.29,1.74c0,0.05-0.03,0.09-0.06,0.12c-0.03,0.02-0.06,0.03-0.1,0.03H6.26      c-0.11,0-0.16-0.06-0.16-0.18V6.44C6.09,6.37,6.14,6.31,6.21,6.3h2c0.05-0.01,0.11,0.03,0.11,0.08v8.43h4.62      C13.04,14.81,13.07,14.86,13.05,14.95z M19.01,10.78c0,0.08-0.05,0.11-0.16,0.11c-0.65-0.04-1.3,0.08-1.89,0.34      c-0.2,0.09-0.39,0.21-0.54,0.37v5.1c0,0.1-0.04,0.14-0.13,0.14h-1.95c-0.08,0.01-0.15-0.04-0.16-0.12v-5.58      c0-0.24,0-0.49-0.01-0.75c-0.01-0.26-0.01-0.52-0.02-0.78c-0.01-0.22-0.03-0.44-0.06-0.66c-0.01-0.05,0.02-0.1,0.07-0.11      c0.01-0.01,0.02-0.01,0.04,0h1.75c0.1,0,0.18,0.07,0.21,0.16c0.04,0.07,0.07,0.15,0.08,0.23c0.02,0.1,0.04,0.21,0.05,0.31      c0.01,0.11,0.02,0.23,0.02,0.36c0.3-0.35,0.66-0.64,1.07-0.86c0.46-0.25,0.97-0.37,1.49-0.36c0.07-0.01,0.13,0.04,0.14,0.11      V10.78z"/>
			</g>
		</g>
	</g>
</g>















</svg>
