<?xml version="1.0" encoding="UTF-8"?>
<!-- Generator: Adobe Illustrator 26.0.1, SVG Export Plug-In . SVG Version: 6.00 Build 0)  -->
<svg xmlns="http://www.w3.org/2000/svg" xmlns:xlink="http://www.w3.org/1999/xlink" version="1.1" id="Capa_1" x="0px" y="0px" viewBox="0 0 24 24" style="enable-background:new 0 0 24 24;" xml:space="preserve" width="512" height="512">
<g>
	<path style="fill-rule:evenodd;clip-rule:evenodd;" d="M15.771,2.4c-1.939,0-3.668,2.584-4.8,6.623C9.84,4.984,8.11,2.4,6.172,2.4   C2.764,2.4,0,10.996,0,21.6h2.743c0-9.846,1.535-17.828,3.428-17.828c1.893,0,3.429,7.368,3.429,16.456h2.743   c0-9.088,1.535-16.456,3.428-16.456S19.2,11.754,19.2,21.599h2.742C21.943,10.996,19.18,2.4,15.771,2.4L15.771,2.4z"/>
	<path style="fill-rule:evenodd;clip-rule:evenodd;" d="M23.323,20.228c-0.002,0-0.004,0-0.006,0c-0.374,0-0.688,0.295-0.688,0.683   c-0.003,0.378,0.301,0.686,0.679,0.689c0.003,0,0.006,0,0.009,0c0.372,0,0.684-0.295,0.684-0.689   C24.002,20.535,23.698,20.23,23.323,20.228z M23.316,21.499c-0.319,0-0.563-0.253-0.563-0.589c0-0.328,0.244-0.581,0.563-0.581   c0.315,0,0.559,0.253,0.559,0.582C23.876,21.246,23.631,21.499,23.316,21.499z"/>
	<path style="fill-rule:evenodd;clip-rule:evenodd;" d="M23.304,20.869h-0.13v-0.255h0.164c0.084,0,0.175,0.016,0.175,0.122   C23.513,20.863,23.413,20.869,23.304,20.869L23.304,20.869z M23.637,20.742c0-0.153-0.089-0.229-0.278-0.229H23.05v0.801h0.124   V20.97h0.132l0.216,0.345h0.134l-0.227-0.354C23.546,20.947,23.637,20.887,23.637,20.742L23.637,20.742z"/>
</g>















</svg>
