<svg id="Layer_1" height="512" viewBox="0 0 24 24" width="512" xmlns="http://www.w3.org/2000/svg" data-name="Layer 1"><path d="m17.937 2.27a8.839 8.839 0 0 0 -6.983-2.21 9.173 9.173 0 0 0 -5.1 15.75c.955.901 1.146 2.19 1.146 3.969v.153a4.049 4.049 0 0 0 4.021 4.068h1.958a4.049 4.049 0 0 0 4.021-4.068v-.523c0-1.67.15-2.709.942-3.415a9.223 9.223 0 0 0 0-13.724zm-3.937 17.662a1.046 1.046 0 0 1 -1.021 1.068h-1.958a1.046 1.046 0 0 1 -1.021-1.068v-.153c0-.259 0-.519-.014-.779h4.02c0 .137-.006.274-.006.409zm1.945-6.177a5.292 5.292 0 0 0 -1.488 2.245h-.957v-4.917a2.993 2.993 0 0 0 1.5-2.583 1.5 1.5 0 0 0 -3 0 1.5 1.5 0 0 0 -3 0 2.993 2.993 0 0 0 1.5 2.583v4.917h-1.038a6.061 6.061 0 0 0 -1.54-2.368 6.18 6.18 0 0 1 -1.871-5.313 6.087 6.087 0 0 1 5.249-5.278 5.989 5.989 0 0 1 .7-.041 5.861 5.861 0 0 1 3.94 1.509 6.222 6.222 0 0 1 .005 9.246z"/></svg>