<?xml version="1.0" encoding="UTF-8"?>
<svg xmlns="http://www.w3.org/2000/svg" id="Layer_1" data-name="Layer 1" viewBox="0 0 24 24" width="512" height="512"><path d="M19.885,10.672c.079-.668.106-1.194.114-1.434l.022-.651-.244-.243.875-.875A2,2,0,1,0,22,4a2,2,0,1,0-3.469,1.348l-.875.875-.244-.244L16.762,6a15.744,15.744,0,0,0-5.447,1.147A18.012,18.012,0,0,0,9.137,7,9.063,9.063,0,0,0,0,15.967v6.874l1.258.206A77.633,77.633,0,0,0,9.137,24C14.688,24,24,23.2,24,17.833,24,15.394,22.461,12.743,19.885,10.672Zm-2.923-.9c-.135,1.583-.578,3.69-1.32,4.433a2.786,2.786,0,0,1-3.846,0,2.722,2.722,0,0,1,0-3.845c.738-.739,2.849-1.183,4.434-1.32ZM9.137,21A61.128,61.128,0,0,1,3,20.285V15.967a6.038,6.038,0,0,1,5.469-5.93,5.714,5.714,0,0,0,9.294,6.288,6.347,6.347,0,0,0,1.365-2.3A5.966,5.966,0,0,1,21,17.833C21,19.668,16.011,21,9.137,21ZM9,4H6V0H9Zm5,0H11V0h3ZM4,4H1V0H4Z"/></svg>
