<svg id="Layer_1" height="512" viewBox="0 0 24 24" width="512" xmlns="http://www.w3.org/2000/svg" data-name="Layer 1"><path d="m19.5 21h-.5v-.655a4.515 4.515 0 0 0 -1.376-3.229 8.361 8.361 0 0 1 -2.557-6.116h.933a1.5 1.5 0 0 0 0-3h-.722a3.97 3.97 0 0 0 .747-2.312 10.541 10.541 0 0 0 -1.681-4.416 2.734 2.734 0 0 0 -2.318-1.272 2.731 2.731 0 0 0 -2.318 1.272 10.523 10.523 0 0 0 -1.682 4.416 3.964 3.964 0 0 0 .748 2.312h-.274a1.5 1.5 0 0 0 0 3h.457a8.378 8.378 0 0 1 -2.582 6.116 4.518 4.518 0 0 0 -1.375 3.229v.655h-.5a1.5 1.5 0 0 0 0 3h15a1.5 1.5 0 0 0 0-3zm-7.442-10a11.586 11.586 0 0 0 3.216 8h-6.548a11.583 11.583 0 0 0 3.24-8z"/></svg>