<?xml version="1.0" encoding="UTF-8"?>
<!-- Generator: Adobe Illustrator 25.0.0, SVG Export Plug-In . SVG Version: 6.00 Build 0)  -->
<svg xmlns="http://www.w3.org/2000/svg" xmlns:xlink="http://www.w3.org/1999/xlink" version="1.1" id="Layer_1" x="0px" y="0px" viewBox="0 0 512 512" style="enable-background:new 0 0 512 512;" xml:space="preserve" width="512" height="512">
<path d="M272,149.333c-27.809,1.381-49.268,24.986-48,52.8c1.268-27.814-20.191-51.419-48-52.8c-27.809,1.381-49.268,24.986-48,52.8  c0,41.536,54.144,90.987,81.067,112.64c8.718,7.021,21.149,7.021,29.867,0C265.899,293.12,320,243.669,320,202.133  C321.268,174.319,299.809,150.714,272,149.333z"/>
<path d="M502.661,457.373l-99.046-99.067c74.109-99.025,53.911-239.377-45.113-313.487S119.125-9.092,45.016,89.933  S-8.896,329.31,90.129,403.419c79.552,59.536,188.821,59.536,268.373,0l99.067,99.088c12.452,12.452,32.64,12.452,45.092,0  c12.452-12.452,12.452-32.64,0-45.092V457.373z M65.743,224.921c0-88.02,71.354-159.374,159.374-159.374  s159.374,71.354,159.374,159.374s-71.354,159.374-159.374,159.374C137.136,384.201,65.837,312.901,65.743,224.921z"/>
</svg>
