<?xml version="1.0" encoding="UTF-8"?>
<!-- Generator: Adobe Illustrator 25.0.0, SVG Export Plug-In . SVG Version: 6.00 Build 0)  -->
<svg xmlns="http://www.w3.org/2000/svg" xmlns:xlink="http://www.w3.org/1999/xlink" version="1.1" id="Capa_1" x="0px" y="0px" viewBox="0 0 512.147 512.147" style="enable-background:new 0 0 512.147 512.147;" xml:space="preserve" width="512" height="512">
<g>
	<path d="M502.767,23.911c-12.496-12.492-32.752-12.492-45.248,0L355.887,125.543c-40.918-36.768-101.866-40.234-146.688-8.341   c-26.383,19.637-55.603,35.139-86.656,45.973l-38.165,11.179l0,0C22.19,192.571-13.455,257.753,4.763,319.941   c1.385,4.728,3.066,9.363,5.034,13.879c23.216,57.559,65.782,105.217,120.363,134.763c43.034,20.203,90.181,30.107,137.707,28.928   h1.344c16.018,0.005,31.604-5.191,44.416-14.805C380.831,434.44,426.772,362.058,441.839,280.7   c6.679-38.339-5.906-77.513-33.664-104.789l-6.144-5.973l100.8-100.821C515.277,56.608,515.249,36.384,502.767,23.911z    M274.927,431.698c-1.756,1.256-3.88,1.894-6.037,1.813c-22.416-0.007-44.774-2.287-66.731-6.805   c28.563-17.868,53.161-41.399,72.277-69.141l10.539-15.509c10.232-14.41,6.844-34.386-7.566-44.618s-34.386-6.844-44.618,7.566   c-0.248,0.349-0.489,0.703-0.723,1.062l-10.539,15.467c-17.469,25.524-41.125,46.2-68.757,60.096l-22.144,11.115   c-12.434-10.092-23.569-21.686-33.152-34.517c29.594-12.071,56.577-29.746,79.467-52.053c12.442-12.551,12.353-32.812-0.198-45.254   c-12.299-12.191-32.064-12.387-44.602-0.442c-18.767,18.214-41.204,32.215-65.813,41.067c-8.257-28.016,7.762-57.422,35.778-65.678   c0.106-0.031,0.212-0.062,0.318-0.093l38.123-11.2c32.756-10.917,63.804-26.409,92.224-46.016L367.77,310.119   C349.315,358.818,317.048,401.071,274.927,431.698z"/>
</g>















</svg>
