<?xml version="1.0" encoding="UTF-8"?>
<svg xmlns="http://www.w3.org/2000/svg" id="Layer_1" data-name="Layer 1" viewBox="0 0 24 24" width="512" height="512"><path d="M4,19.48a10.988,10.988,0,0,1,12.31-18.1l2.328,1.294L16.326,4a9.121,9.121,0,0,0-3.87,4.287A7.48,7.48,0,0,0,9.01,10.39a10.218,10.218,0,0,1,3.462-7.253A7.912,7.912,0,0,0,11,3,7.99,7.99,0,0,0,4.919,16.185,6.485,6.485,0,0,0,4,19.48Zm20-.73a5.26,5.26,0,0,0-4.371-5.177A5.487,5.487,0,0,0,9.005,15.255,4.5,4.5,0,0,0,10.5,24h8.25A5.256,5.256,0,0,0,24,18.75ZM12,18V15.5a2.488,2.488,0,0,1,4.958-.312l.166,1.312H18.75a2.25,2.25,0,0,1,0,4.5H10.5a1.5,1.5,0,0,1,0-3Z"/></svg>
