<?xml version="1.0" encoding="UTF-8"?>
<!-- Generator: Adobe Illustrator 26.0.1, SVG Export Plug-In . SVG Version: 6.00 Build 0)  -->
<svg xmlns="http://www.w3.org/2000/svg" xmlns:xlink="http://www.w3.org/1999/xlink" version="1.1" id="Capa_1" x="0px" y="0px" viewBox="0 0 24 24" style="enable-background:new 0 0 24 24;" xml:space="preserve" width="512" height="512">
<g>
	<path d="M11.979,0c3.371,0,6.214,1.157,8.528,3.472C22.835,5.8,24,8.643,24,12c0,3.372-1.143,6.179-3.429,8.421   C18.143,22.807,15.278,24,11.979,24c-3.243,0-6.057-1.179-8.443-3.536C1.179,18.107,0,15.286,0,12c0-3.286,1.179-6.129,3.536-8.528   C5.85,1.157,8.664,0,11.979,0z M12.021,2.164c-2.729,0-5.036,0.957-6.921,2.871c-1.957,2-2.936,4.321-2.936,6.964   c0,2.657,0.971,4.957,2.914,6.9c1.943,1.943,4.257,2.914,6.943,2.914c2.671,0,5-0.978,6.986-2.936   c1.886-1.814,2.829-4.107,2.829-6.879c0-2.729-0.957-5.05-2.871-6.964C17.05,3.122,14.736,2.164,12.021,2.164z M15.236,9.022v4.907   h-1.371v5.828h-3.729v-5.828H8.764V9.022c0-0.214,0.075-0.396,0.225-0.547c0.15-0.15,0.332-0.225,0.547-0.225h4.929   c0.2,0,0.378,0.075,0.536,0.225C15.157,8.625,15.236,8.807,15.236,9.022z M10.329,5.936c0-1.128,0.557-1.693,1.671-1.693   s1.672,0.564,1.672,1.693c0,1.114-0.557,1.671-1.672,1.671S10.329,7.05,10.329,5.936z"/>
</g>















</svg>
