<?xml version="1.0" encoding="UTF-8"?>
<!-- Generator: Adobe Illustrator 26.0.1, SVG Export Plug-In . SVG Version: 6.00 Build 0)  -->
<svg xmlns="http://www.w3.org/2000/svg" xmlns:xlink="http://www.w3.org/1999/xlink" version="1.1" id="Capa_1" x="0px" y="0px" viewBox="0 0 24 24" style="enable-background:new 0 0 24 24;" xml:space="preserve" width="512" height="512">
<g>
	<path d="M20.724,0.011c-0.429,0-17.491-0.014-17.881,0.073c-1.356,0.301-2.407,1.31-2.747,2.637C0,3.097-0.002,3.288,0,12.019   c0.001,8.774,0.003,8.92,0.101,9.286c0.345,1.287,1.363,2.254,2.643,2.591c0.33,0.087,0.764,0.091,9.225,0.093   c8.75,0.003,8.884,0.001,9.27-0.097c1.507-0.385,2.554-1.562,2.739-3.08L24,3.447C24,3.447,23.792,0.01,20.724,0.011z    M19.419,13.363c-0.018,2.055-0.026,2.225-0.123,2.575c-0.235,0.842-0.594,1.476-1.168,2.063c-0.793,0.811-1.639,1.243-2.718,1.39   c-0.621,0.085-6.679,0.062-7.17-0.026c-1.032-0.186-2.064-0.846-2.753-1.76c-0.362-0.48-0.537-0.818-0.711-1.37   c-0.211-0.668-0.234-1.162-0.213-4.531c0.017-2.689,0.03-3.158,0.102-3.449C5.044,6.699,6.082,5.486,7.527,4.91   c0.784-0.312,1.295-0.359,3.597-0.332c1.468,0.017,1.906,0.038,2.101,0.097c0.817,0.248,1.533,0.691,2.175,1.345   c0.901,0.918,1.357,1.935,1.359,3.031c0.001,0.574,0.093,0.785,0.427,0.981c0.21,0.123,0.285,0.136,0.951,0.166   c0.398,0.018,0.771,0.058,0.829,0.09c0.189,0.103,0.355,0.35,0.414,0.615C19.422,11.086,19.433,11.812,19.419,13.363z"/>
	<path d="M12.806,9.356c0,0.316-0.126,0.538-0.408,0.716c-0.151,0.096-0.241,0.102-1.668,0.11c-0.881,0.005-1.583-0.012-1.688-0.04   C8.491,9.991,8.285,9.199,8.69,8.789c0.259-0.262,0.331-0.272,1.953-0.272c1.456,0,1.506,0.003,1.72,0.111   C12.671,8.785,12.806,9.005,12.806,9.356z"/>
	<path d="M15.469,14.705c0,0.316-0.117,0.573-0.493,0.716c-0.244,0.096-0.555,0.102-2.86,0.11c-1.423,0.005-2.785-0.012-2.954-0.04   c-0.74-0.129-1.032-1.024-0.377-1.433c0.419-0.262,0.571-0.192,3.191-0.192c2.352,0,2.563-0.021,2.908,0.087   C15.32,14.117,15.469,14.354,15.469,14.705z"/>
</g>















</svg>
