<?xml version="1.0" encoding="UTF-8"?>
<!-- Generator: Adobe Illustrator 26.0.1, SVG Export Plug-In . SVG Version: 6.00 Build 0)  -->
<svg xmlns="http://www.w3.org/2000/svg" xmlns:xlink="http://www.w3.org/1999/xlink" version="1.1" id="Capa_1" x="0px" y="0px" viewBox="0 0 24 24" style="enable-background:new 0 0 24 24;" xml:space="preserve" width="512" height="512">
<g>
	<path d="M12.277,8.073c-2.639,0-4.783,2.14-4.783,4.775c0,2.635,2.144,4.776,4.783,4.776c2.647,0,4.783-2.141,4.783-4.776   C17.06,10.213,14.917,8.073,12.277,8.073z M15.646,11.094l-3.165,1.638c-0.094,0.051-0.204-0.022-0.204-0.124v-3.56   c0-0.08,0.073-0.138,0.146-0.138c1.407,0.051,2.625,0.837,3.281,1.988C15.74,10.97,15.718,11.058,15.646,11.094z M12.277,8.073   c-2.639,0-4.783,2.14-4.783,4.775c0,2.635,2.144,4.776,4.783,4.776c2.647,0,4.783-2.141,4.783-4.776   C17.06,10.213,14.917,8.073,12.277,8.073z M15.646,11.094l-3.165,1.638c-0.094,0.051-0.204-0.022-0.204-0.124v-3.56   c0-0.08,0.073-0.138,0.146-0.138c1.407,0.051,2.625,0.837,3.281,1.988C15.74,10.97,15.718,11.058,15.646,11.094z M20.84,0H3.16   C1.412,0,0,1.413,0,3.152v17.689C0,22.588,1.42,24,3.16,24h17.68c1.747,0,3.16-1.419,3.16-3.159V3.16C24,1.413,22.58,0,20.84,0z    M9.988,4.535c0-0.575,0.467-1.041,1.042-1.041h2.429c0.575,0,1.042,0.466,1.042,1.041v0.823c0,0.095-0.087,0.16-0.175,0.138   c-0.663-0.182-1.349-0.276-2.042-0.276c-0.715-0.001-1.427,0.099-2.114,0.298C10.075,5.54,9.988,5.474,9.988,5.38V4.535z    M5.455,7.981C5.052,7.575,5.054,6.919,5.46,6.515L5.956,6.02c0,0,0,0,0,0c0.407-0.406,1.066-0.406,1.473,0l0.415,0.415   c0.058,0.066,0.051,0.168-0.022,0.212c-0.335,0.24-0.649,0.508-0.94,0.8c-0.289,0.29-0.555,0.601-0.795,0.932   c-0.058,0.065-0.153,0.08-0.219,0.015L5.46,7.986C5.459,7.984,5.457,7.983,5.455,7.981z M12.277,19.626   c-3.748,0-6.788-3.029-6.788-6.778c0-3.748,3.04-6.784,6.788-6.784c3.755,0,6.788,3.028,6.788,6.777   C19.065,16.59,16.025,19.626,12.277,19.626z M12.277,8.073c-2.639,0-4.783,2.14-4.783,4.775c0,2.635,2.144,4.776,4.783,4.776   c2.647,0,4.783-2.141,4.783-4.776C17.06,10.213,14.917,8.073,12.277,8.073z M15.646,11.094l-3.165,1.638   c-0.094,0.051-0.204-0.022-0.204-0.124v-3.56c0-0.08,0.073-0.138,0.146-0.138c1.407,0.051,2.625,0.837,3.281,1.988   C15.74,10.97,15.718,11.058,15.646,11.094z"/>
</g>















</svg>
