<?xml version="1.0" encoding="UTF-8"?>
<svg xmlns="http://www.w3.org/2000/svg" id="Layer_1" data-name="Layer 1" viewBox="0 0 24 24" width="512" height="512"><path d="M9.5,5A4.5,4.5,0,1,0,14,9.5,4.505,4.505,0,0,0,9.5,5Zm0,6A1.5,1.5,0,1,1,11,9.5,1.5,1.5,0,0,1,9.5,11Zm8.972-5.864A9.666,9.666,0,0,0,10.091,0,10.1,10.1,0,0,0,0,10.091v.954A12.97,12.97,0,0,0,12.954,24a7.869,7.869,0,0,0,7.99-6.722A7.158,7.158,0,0,0,24,11.523,6.7,6.7,0,0,0,18.472,5.136Zm.34,9.93L18,15.582V16.5c0,2.439-2.311,4.5-5.046,4.5A9.966,9.966,0,0,1,3,11.045v-.954A7.1,7.1,0,0,1,10.091,3a6.864,6.864,0,0,1,6.063,4.164l.367.744.826.084C19.143,8.176,21,9.547,21,11.523A4.189,4.189,0,0,1,18.812,15.066ZM19,11.5A1.5,1.5,0,1,1,17.5,10,1.5,1.5,0,0,1,19,11.5Zm-3,5A1.5,1.5,0,1,1,14.5,15,1.5,1.5,0,0,1,16,16.5Z"/></svg>
