<?xml version="1.0" encoding="UTF-8"?>
<svg xmlns="http://www.w3.org/2000/svg" id="Layer_1" data-name="Layer 1" viewBox="0 0 24 24" width="512" height="512"><g><path d="M15.313,20.36A14.751,14.751,0,0,0,16.4,23.152C8.8,26.351-.174,20.29,0,12a12,12,0,1,1,23.374,3.8,3.792,3.792,0,0,0-1.422-.193,3.821,3.821,0,0,0-1.305-1.133,9,9,0,1,0-5.334,5.889ZM18,9.667a2.5,2.5,0,1,0-5,0V11h5ZM11,8H6v3h5Zm11.943,9.776a1.8,1.8,0,0,0-2.424.922,1.93,1.93,0,0,0-.886-2.521,1.8,1.8,0,0,0-2.424.921C16.312,19.106,18.6,23,18.6,23s4.336-.7,5.234-2.7A1.931,1.931,0,0,0,22.943,17.776Z"/><path d="M15,14.5A2.5,2.5,0,0,0,12.5,12H11v2h1.5a.5.5,0,0,1,0,1H12v2h.5a.5.5,0,0,1,0,1H11v2h1.5a2.507,2.507,0,0,0,1.987-4A2.471,2.471,0,0,0,15,14.5Z"/></g></svg>
