<?xml version="1.0" encoding="UTF-8"?>
<!-- Generator: Adobe Illustrator 26.0.1, SVG Export Plug-In . SVG Version: 6.00 Build 0)  -->
<svg xmlns="http://www.w3.org/2000/svg" xmlns:xlink="http://www.w3.org/1999/xlink" version="1.1" id="Capa_1" x="0px" y="0px" viewBox="0 0 24 24" style="enable-background:new 0 0 24 24;" xml:space="preserve" width="512" height="512">
<path style="fill-rule:evenodd;clip-rule:evenodd;" d="M16.066,1.043v7.523c-1.141-1.48-2.711-2.184-4.756-2.184  c-2.164,0-4.09,0.801-5.659,2.378c-1.76,1.723-2.711,3.956-2.711,6.431c0,2.718,0.999,5.023,2.949,6.795  C7.363,23.321,9.147,24,11.192,24c2.021,0,3.543-0.534,5.017-2.014v1.941h4.851V0L16.066,1.043z M12.309,19.438  c-2.544,0-4.375-1.844-4.375-4.271c0-2.305,1.831-4.271,4.185-4.271c2.33,0,4.138,1.869,4.138,4.344  C16.256,17.618,14.473,19.438,12.309,19.438z"/>















</svg>
