<?xml version="1.0" encoding="UTF-8"?>
<svg xmlns="http://www.w3.org/2000/svg" id="Layer_1" data-name="Layer 1" viewBox="0 0 24 24" width="512" height="512"><path d="M17.9,17a6.093,6.093,0,0,0-3.387,1.025L11.18,20.244a4.491,4.491,0,0,1-2.5.756H3.626a.622.622,0,0,1-.439-1.062L4.28,18.844,18.3,15.1A3.635,3.635,0,0,0,21,11.6V3.634A3.638,3.638,0,0,0,17.366,0H9.4A3.635,3.635,0,0,0,5.9,2.7L2.153,16.728,1.065,17.817A3.621,3.621,0,0,0,3.626,24H8.684a7.475,7.475,0,0,0,4.16-1.26l3.327-2.218A3.106,3.106,0,0,1,21,23.105V24h3v-.895A6.112,6.112,0,0,0,17.9,17ZM8.794,3.47a.628.628,0,0,1,.125-.232l4.626,4.355L17.87,3.268a.619.619,0,0,1,.13.366V11.6a.634.634,0,0,1-.029.174L13.545,7.593l-7.9,7.783-.027.007Z"/></svg>
