<?xml version="1.0" encoding="UTF-8"?>
<!-- Generator: Adobe Illustrator 26.0.1, SVG Export Plug-In . SVG Version: 6.00 Build 0)  -->
<svg xmlns="http://www.w3.org/2000/svg" xmlns:xlink="http://www.w3.org/1999/xlink" version="1.1" id="Capa_1" x="0px" y="0px" viewBox="0 0 24 24" style="enable-background:new 0 0 24 24;" xml:space="preserve" width="512" height="512">
<g id="Group">
	<g id="Rectangle_55_x5F_2">
		<path d="M18.312,8.245c1.222-0.803,2.031-2.187,2.031-3.755c0-2.476-2.015-4.49-4.491-4.49H8.148C5.672,0,3.657,2.014,3.657,4.49    c0,1.568,0.809,2.952,2.031,3.755C4.466,9.048,3.657,10.432,3.657,12s0.809,2.952,2.031,3.755    c-1.222,0.802-2.031,2.186-2.031,3.755c0,2.476,2.025,4.49,4.515,4.49c2.516,0,4.564-2.036,4.564-4.539V15.32    c0.798,0.727,1.858,1.17,3.019,1.17h0.097c2.476,0,4.491-2.014,4.491-4.49C20.343,10.432,19.534,9.048,18.312,8.245z     M12.735,1.471h3.117c1.665,0,3.02,1.354,3.02,3.019s-1.355,3.02-3.02,3.02h-3.117V1.471z M5.128,4.49    c0-1.665,1.355-3.019,3.02-3.019h3.117V7.51H8.148C6.483,7.51,5.128,6.155,5.128,4.49z M5.128,12c0-1.665,1.355-3.019,3.02-3.019    h3.117v6.039H8.129C6.473,15.009,5.128,13.658,5.128,12z M11.265,19.461c0,1.692-1.388,3.068-3.093,3.068    c-1.678,0-3.044-1.354-3.044-3.019s1.355-3.02,3.02-3.02h3.117V19.461z M15.852,15.02h-0.097c-1.665,0-3.019-1.355-3.019-3.02    s1.354-3.019,3.019-3.019h0.097c1.665,0,3.02,1.354,3.02,3.019S17.517,15.02,15.852,15.02z"/>
	</g>
	<g id="Rectangle_55_x5F_4">
		<path d="M8.148,15.019c-0.007,0-0.013,0-0.019,0h3.136v0H8.148z"/>
	</g>
</g>















</svg>
