<?xml version="1.0" encoding="UTF-8"?>
<!-- Generator: Adobe Illustrator 25.0.0, SVG Export Plug-In . SVG Version: 6.00 Build 0)  -->
<svg xmlns="http://www.w3.org/2000/svg" xmlns:xlink="http://www.w3.org/1999/xlink" version="1.1" id="Capa_1" x="0px" y="0px" viewBox="0 0 512 512" style="enable-background:new 0 0 512 512;" xml:space="preserve" width="512" height="512">
<g>
	<path d="M74.667,117.333h362.667c17.673,0,32,14.327,32,32l0,0c0,17.673-14.327,32-32,32H74.667c-17.673,0-32-14.327-32-32l0,0   C42.667,131.66,56.994,117.333,74.667,117.333z"/>
	<path d="M74.667,10.667h362.667c17.673,0,32,14.327,32,32l0,0c0,17.673-14.327,32-32,32H74.667c-17.673,0-32-14.327-32-32l0,0   C42.667,24.994,56.994,10.667,74.667,10.667z"/>
	<path d="M394.667,501.333H117.333C52.561,501.263,0.071,448.772,0,384v-85.333C0,257.429,33.429,224,74.667,224h74.667   c17.673,0,32,14.327,32,32c0,29.455,23.878,53.333,53.333,53.333h42.667c29.455,0,53.333-23.878,53.333-53.333   c0-17.673,14.327-32,32-32h74.667C478.571,224,512,257.429,512,298.667l0,0V384C511.929,448.772,459.439,501.263,394.667,501.333z    M74.667,288C68.776,288,64,292.776,64,298.667V384c0,29.455,23.878,53.333,53.333,53.333h277.333   C424.122,437.333,448,413.455,448,384v-85.333c0-5.891-4.776-10.667-10.667-10.667h-47.104   c-14.369,50.453-60.437,85.273-112.896,85.333h-42.667c-52.459-0.06-98.527-34.88-112.896-85.333H74.667z"/>
</g>















</svg>
