<svg id="Layer_1" height="512" viewBox="0 0 24 24" width="512" xmlns="http://www.w3.org/2000/svg" data-name="Layer 1"><path d="m22.448 19h-7.348a3.507 3.507 0 0 0 -1.65-1.649v-3.351c1.045 0 1.935-.01 2.4-.019a5.47 5.47 0 0 0 1.106-.133 5.141 5.141 0 0 0 .155-10.009l-.185-.043c-.056-.013-.141-.033-.129-.009a.456.456 0 0 1 -.025-.049 6.222 6.222 0 0 0 -6.624-3.673 6.029 6.029 0 0 0 -5.008 4.543 5.933 5.933 0 0 0 -.124 2.3 3.74 3.74 0 0 0 .822 6.943 4.094 4.094 0 0 0 .9.127c.562.013 2.062.022 3.71.022v3.351a3.507 3.507 0 0 0 -1.648 1.649h-7.352a1.5 1.5 0 0 0 0 3h7.352a3.479 3.479 0 0 0 6.3 0h7.35a1.5 1.5 0 0 0 0-3zm-15.865-8.057a.789.789 0 0 1 -.549-.522.837.837 0 0 1 .546-.943 2.444 2.444 0 0 0 1.444-2.778 2.979 2.979 0 0 1 .026-1.366 3.084 3.084 0 0 1 2.52-2.3 3.544 3.544 0 0 1 .48-.034 3.2 3.2 0 0 1 2.963 1.91 3.049 3.049 0 0 0 2.334 1.823 2.141 2.141 0 0 1 -.046 4.179 2.546 2.546 0 0 1 -.508.062c-1.548.028-7.719.034-8.977 0a1.093 1.093 0 0 1 -.233-.031z"/></svg>