<?xml version="1.0" encoding="UTF-8"?>
<svg xmlns="http://www.w3.org/2000/svg" id="Layer_1" data-name="Layer 1" viewBox="0 0 24 24" width="512" height="512"><path d="M16,15.5A1.5,1.5,0,1,1,14.5,14,1.5,1.5,0,0,1,16,15.5Zm1,0A1.5,1.5,0,1,0,18.5,14,1.5,1.5,0,0,0,17,15.5Zm1-3A1.5,1.5,0,1,0,16.5,14,1.5,1.5,0,0,0,18,12.5Zm6,3a8.488,8.488,0,0,1-13.484,6.874A4.146,4.146,0,0,1,7.251,24h-2.5A4.19,4.19,0,0,1,.93,21.457,11.6,11.6,0,0,1,0,16.773,10.433,10.433,0,0,1,1.825,11.42,6.542,6.542,0,0,0,3,8.5a19.136,19.136,0,0,0-.548-2.381A9.61,9.61,0,0,1,2,4,3.827,3.827,0,0,1,6,0a3.827,3.827,0,0,1,4,4,9.61,9.61,0,0,1-.452,2.119A19.105,19.105,0,0,0,9,8.5a3.258,3.258,0,0,0,.285,1.2A8.5,8.5,0,0,1,24,15.5ZM5,4c.02.117.21.824.349,1.339.172.642.312,1.183.422,1.661h.458c.11-.478.25-1.019.422-1.661C6.79,4.824,6.98,4.117,7,3.922,7,3.29,6.71,3,6,3S5,3.29,5,4ZM8.322,20.255A8.631,8.631,0,0,0,9,16.773a7.864,7.864,0,0,0-1.423-3.854A12.691,12.691,0,0,1,6.216,10H5.784a12.691,12.691,0,0,1-1.361,2.919A7.864,7.864,0,0,0,3,16.773a8.623,8.623,0,0,0,.678,3.481A1.179,1.179,0,0,0,4.749,21h2.5A1.18,1.18,0,0,0,8.322,20.255ZM21,15.5a5.491,5.491,0,0,0-10.163-2.895A8.775,8.775,0,0,1,12,16.773a12.443,12.443,0,0,1-.3,2.7A5.494,5.494,0,0,0,21,15.5Z"/></svg>
