<?xml version="1.0" encoding="UTF-8"?>
<!-- Generator: Adobe Illustrator 25.0.0, SVG Export Plug-In . SVG Version: 6.00 Build 0)  -->
<svg xmlns="http://www.w3.org/2000/svg" xmlns:xlink="http://www.w3.org/1999/xlink" version="1.1" id="Capa_1" x="0px" y="0px" viewBox="0 0 512 512" style="enable-background:new 0 0 512 512;" xml:space="preserve" width="512" height="512">
<g>
	<path d="M394.667,512H117.333C52.561,511.929,0.071,459.439,0,394.667V117.333C0.071,52.561,52.561,0.071,117.333,0h277.333   C459.439,0.071,511.929,52.561,512,117.333v277.333C511.929,459.439,459.439,511.929,394.667,512z M117.333,64   C87.878,64,64,87.878,64,117.333v277.333C64,424.122,87.878,448,117.333,448h277.333C424.122,448,448,424.122,448,394.667V117.333   C448,87.878,424.122,64,394.667,64H117.333z"/>
	<path d="M206.229,379.456c-13.462,0.009-26.368-5.368-35.84-14.933l-63.723-63.616c-12.501-12.493-12.507-32.754-0.014-45.255   c0.005-0.005,0.01-0.01,0.014-0.015l0,0c12.496-12.492,32.752-12.492,45.248,0l54.315,54.293l153.856-153.856   c12.496-12.492,32.752-12.492,45.248,0l0,0c12.501,12.493,12.507,32.754,0.014,45.255c-0.005,0.005-0.01,0.01-0.014,0.014   L242.048,364.629C232.566,374.154,219.669,379.493,206.229,379.456z"/>
</g>















</svg>
