<?xml version="1.0" encoding="UTF-8"?>
<svg xmlns="http://www.w3.org/2000/svg" id="Layer_1" data-name="Layer 1" viewBox="0 0 24 24" width="512" height="512"><path d="M21.656,5.419,14.975.91a5.292,5.292,0,0,0-5.95,0L2.344,5.418A5.31,5.31,0,0,0,0,9.827v8.855A5.324,5.324,0,0,0,5.318,24H18.682A5.324,5.324,0,0,0,24,18.682V9.827A5.307,5.307,0,0,0,21.656,5.419ZM21,18.682A2.321,2.321,0,0,1,18.682,21H5.318A2.321,2.321,0,0,1,3,18.682V9.827A2.317,2.317,0,0,1,4.021,7.905L10.7,3.4a2.311,2.311,0,0,1,2.593,0l6.682,4.51A2.314,2.314,0,0,1,21,9.827ZM12,8a5,5,0,0,0-3.536,8.535l2.649,2.591a1.269,1.269,0,0,0,1.774,0l2.648-2.591A5,5,0,0,0,12,8Zm0,6.554a1.5,1.5,0,1,1,1.5-1.5A1.5,1.5,0,0,1,12,14.554Z"/></svg>
