<?xml version="1.0" encoding="UTF-8"?>
<svg xmlns="http://www.w3.org/2000/svg" id="Layer_1" data-name="Layer 1" viewBox="0 0 24 24" width="512" height="512"><path d="M10,10H7a3.786,3.786,0,0,1,4-4V9C10.243,9,10,9.243,10,10Zm4,1h3a3.786,3.786,0,0,0-4-4v3C13.757,10,14,10.243,14,11Zm7.994,3.113L19.9,24H4.1L2.037,14.258a4.479,4.479,0,0,1-.008-7.5A4.257,4.257,0,0,1,5.684,3.038,3.742,3.742,0,0,1,8.7,1.5h.375A5.2,5.2,0,0,1,12.75,0a5.26,5.26,0,0,1,4.736,3.006,4.716,4.716,0,0,1,4.247,3.2,4.733,4.733,0,0,1,.261,7.908ZM4.5,12H6.273a4.325,4.325,0,0,1,2.864,1.1,4.283,4.283,0,0,1,5.725,0A4.329,4.329,0,0,1,17.727,12H19.25a1.747,1.747,0,0,0,.644-3.372L19.1,8.313l-.135-.841A1.736,1.736,0,0,0,17.25,6H15.189l-.244-1.2a2.242,2.242,0,0,0-3.994-.9l-.45.6H8.7A.749.749,0,0,0,8,5L7.649,6H6.25A1.252,1.252,0,0,0,5,7.25V8.745L4,9.1A1.492,1.492,0,0,0,4.5,12Zm3.445,9-.309-4.636A1.365,1.365,0,0,0,6.273,15H5.261l1.273,6ZM12.9,21l.458-4.671a1.361,1.361,0,0,0-2.722.015L10.951,21Zm5.837-6H17.727a1.365,1.365,0,0,0-1.363,1.364L15.917,21h1.549Z"/></svg>
