<?xml version="1.0" encoding="UTF-8"?>
<svg xmlns="http://www.w3.org/2000/svg" id="Layer_1" data-name="Layer 1" viewBox="0 0 24 24" width="512" height="512"><path d="M17,24c-1.844-.023-3.1-1.013-5-1-1.9-.013-3.157.977-5,1a3.675,3.675,0,0,1-4-4,9.356,9.356,0,0,1,9-9,9.356,9.356,0,0,1,9,9A3.675,3.675,0,0,1,17,24Zm-5-4a11.023,11.023,0,0,1,3.529.656c1.046.313,2.606.873,2.471-.656a6.407,6.407,0,0,0-6-6,6.407,6.407,0,0,0-6,6c-.138,1.53,1.428.968,2.471.656A11.023,11.023,0,0,1,12,20ZM21.844,5.014c-1.364-.163-2.6,1.128-2.814,3.46-.433,5.508,4.307,6.225,4.941.589C24.184,6.732,23.208,5.177,21.844,5.014ZM.029,9.063C.664,14.7,5.4,13.978,4.97,8.474c-.214-2.332-1.45-3.623-2.814-3.46S-.184,6.732.029,9.063Zm5.948-5c.635,5.639,5.374,4.915,4.94-.589C10.7,1.142,9.468-.149,8.1.014S5.763,1.732,5.977,4.063Zm9.9-4.049c-1.364-.163-2.6,1.128-2.813,3.46-.433,5.508,4.307,6.225,4.94.589C18.222,1.732,17.247.177,15.882.014Z"/></svg>
