<?xml version="1.0" encoding="UTF-8"?>
<svg xmlns="http://www.w3.org/2000/svg" id="Layer_1" data-name="Layer 1" viewBox="0 0 24 24" width="512" height="512"><path d="M19.954,9.082C19.5,1.45,15.529,0,14.984,0A5.328,5.328,0,0,0,12,1,5.186,5.186,0,0,0,9.067,0C8.471,0,4.5,1.45,4.046,9.082,1.57,9.7,0,10.605,0,11.613,0,13.484,5.373,15,12,15s12-1.516,12-3.387C24,10.605,22.43,9.7,19.954,9.082ZM12,10a21.435,21.435,0,0,1-4.975-.486c.224-4.728,1.893-6.143,2.42-6.477a1.8,1.8,0,0,1,1.222.95L12,6.571l1.333-2.584a1.807,1.807,0,0,1,1.207-.949c.575.363,2.213,1.8,2.435,6.475A21.425,21.425,0,0,1,12,10Zm9,10a3.989,3.989,0,0,1-7.8,1.193A5.751,5.751,0,0,0,12,21a5.751,5.751,0,0,0-1.2.193,4,4,0,1,1-.259-3.018A7.526,7.526,0,0,1,12,18a7.526,7.526,0,0,1,1.461.175A3.987,3.987,0,0,1,21,20Z"/></svg>
