<svg id="Layer_1" height="512" viewBox="0 0 24 24" width="512" xmlns="http://www.w3.org/2000/svg" data-name="Layer 1"><path d="m1.783 5.407-1.566-2.558 4.5-2.749 1.566 2.553zm19.6 12.305-2.777 4.5 2.553 1.576 2.777-4.5zm-.476-2.926-4.691 7.607a3.273 3.273 0 0 1 -2.42 1.58 3.456 3.456 0 0 1 -.429.027 3.291 3.291 0 0 1 -2.337-.972l-1.085-1.083a4.172 4.172 0 0 1 -5.889-5.891l-3.084-3.086a3.318 3.318 0 0 1 .513-5.11l7.392-4.522a8.487 8.487 0 0 1 9.461.205l1.976-1.977 2.122 2.122-1.976 1.975a8.592 8.592 0 0 1 .445 9.125zm-3.52-8.145a5.532 5.532 0 0 0 -6.92-.76l-7.367 4.508a.3.3 0 0 0 -.1.2.31.31 0 0 0 .091.255l10.056 10.06a.3.3 0 0 0 .264.09.3.3 0 0 0 .231-.152l4.679-7.584a5.563 5.563 0 0 0 -.936-6.617z"/></svg>