<?xml version="1.0" encoding="UTF-8"?>
<svg xmlns="http://www.w3.org/2000/svg" id="Bold" viewBox="0 0 24 24" width="512" height="512"><circle cx="7" cy="22" r="2"/><circle cx="17" cy="22" r="2"/><path d="M19.75,13.163A2.5,2.5,0,0,1,17.34,15H7.217a.329.329,0,0,1-.325-.3L6.036,8H9.5A1.5,1.5,0,0,0,11,6.5h0A1.5,1.5,0,0,0,9.5,5H5.653L5.391,2.939A3.327,3.327,0,0,0,2.087,0H1.5a1.5,1.5,0,0,0,0,3h.587a.329.329,0,0,1,.325.3l1.5,11.76A3.327,3.327,0,0,0,7.217,18H17.339a5.5,5.5,0,0,0,5.3-4.042l.016-.06A1.5,1.5,0,0,0,21.213,12h0a1.5,1.5,0,0,0-1.446,1.1Z"/><path d="M21.413,2.487,17.119,6.781,16.268,5.9a1.5,1.5,0,0,0-2.163,2.079l1.263,1.314a2.4,2.4,0,0,0,1.7.754h.04a2.407,2.407,0,0,0,1.691-.7l4.734-4.735a1.5,1.5,0,1,0-2.121-2.121Z"/></svg>
