<svg id="Layer_1" height="512" viewBox="0 0 24 24" width="512" xmlns="http://www.w3.org/2000/svg" data-name="Layer 1"><path d="m15.5 6a1.5 1.5 0 0 1 0 3h-7a1.5 1.5 0 0 1 0-3zm8.061 17.561a1.5 1.5 0 0 1 -2.122 0l-2.011-2.012a4.444 4.444 0 0 1 -1.928.451 4.5 4.5 0 1 1 4.5-4.5 4.444 4.444 0 0 1 -.451 1.928l2.012 2.011a1.5 1.5 0 0 1 0 2.122zm-6.061-4.561a1.5 1.5 0 1 0 -1.5-1.5 1.5 1.5 0 0 0 1.5 1.5zm-6 2h-4a2.5 2.5 0 0 1 -2.5-2.5v-13a2.5 2.5 0 0 1 2.5-2.5h11a.5.5 0 0 1 .5.5v7a1.5 1.5 0 0 0 3 0v-7a3.5 3.5 0 0 0 -3.5-3.5h-11a5.506 5.506 0 0 0 -5.5 5.5v13a5.506 5.506 0 0 0 5.5 5.5h4a1.5 1.5 0 0 0 0-3z"/></svg>