<?xml version="1.0" encoding="UTF-8"?>
<svg xmlns="http://www.w3.org/2000/svg" id="Layer_1" data-name="Layer 1" viewBox="0 0 24 24" width="512" height="512"><path d="M11.993,14A21.923,21.923,0,0,0,18,13c-.615,2.28-2.664,5-6,5s-5.392-2.72-6.007-5A21.841,21.841,0,0,0,11.993,14ZM24,12A12.013,12.013,0,0,1,12,24C-3.9,23.4-3.893.6,12,0A12.013,12.013,0,0,1,24,12Zm-3,0a9.011,9.011,0,0,0-9-9C.077,3.453.08,20.549,12,21A9.011,9.011,0,0,0,21,12ZM15.5,7A2.587,2.587,0,0,0,13,9.667V11h5V9.667A2.587,2.587,0,0,0,15.5,7ZM11,8H6v3h5Z"/></svg>
