<?xml version="1.0" encoding="UTF-8"?>
<!-- Generator: Adobe Illustrator 26.0.1, SVG Export Plug-In . SVG Version: 6.00 Build 0)  -->
<svg xmlns="http://www.w3.org/2000/svg" xmlns:xlink="http://www.w3.org/1999/xlink" version="1.1" id="Capa_1" x="0px" y="0px" viewBox="0 0 24 24" style="enable-background:new 0 0 24 24;" xml:space="preserve" width="512" height="512">
<g id="Colored_x5F_Equalizer">
	<path d="M24,4.161h-5.189v3.028H24V4.161z"/>
	<path d="M24,8.378h-5.189v3.028H24V8.378z"/>
	<path d="M24,12.594h-5.189v3.028H24V12.594z"/>
	<path d="M5.189,16.811H0v3.028h5.189V16.811z"/>
	<path d="M11.459,16.811H6.27v3.028h5.189V16.811z"/>
	<path d="M17.73,16.811h-5.189v3.028h5.189V16.811z"/>
	<path d="M24,16.811h-5.189v3.028H24V16.811z"/>
	<path d="M17.73,12.594h-5.189v3.028h5.189V12.594z"/>
	<path d="M11.459,12.594H6.27v3.028h5.189V12.594z"/>
	<path d="M11.459,8.378H6.27v3.028h5.189V8.378z"/>
</g>















</svg>
