<?xml version="1.0" encoding="UTF-8"?>
<svg xmlns="http://www.w3.org/2000/svg" id="Layer_1" data-name="Layer 1" viewBox="0 0 24 24" width="512" height="512"><path d="M14,24H0V21H14Zm6-3H16v3h4Zm4-5H10v3H24ZM8,16H4v3H8Zm6.456-3.231a5.428,5.428,0,0,0,4.8-.842A3.829,3.829,0,0,0,20,12a4,4,0,0,0,.226-7.994,5.359,5.359,0,0,0-4.8-1.971A6.987,6.987,0,0,0,5.6,2H5.5a5.5,5.5,0,0,0,0,11,5.342,5.342,0,0,0,1.185-.133,6.981,6.981,0,0,0,7.771-.1ZM6.416,9.818a2.506,2.506,0,1,1-.473-4.77L6.82,5.2l.556-.7a3.988,3.988,0,0,1,6.307.08l.625.823.992-.291a2.388,2.388,0,0,1,2.867,1.172l.541.964,1.081-.231A1.019,1.019,0,0,1,20,7a1,1,0,0,1,1,1,.982.982,0,0,1-1.436.89L18.571,8.4l-.759.8a2.432,2.432,0,0,1-2.929.51l-.925-.468-.765.7a4.083,4.083,0,0,1-5.261.115L7.248,9.49Z"/></svg>
