<?xml version="1.0" encoding="UTF-8"?>
<!-- Generator: Adobe Illustrator 26.0.1, SVG Export Plug-In . SVG Version: 6.00 Build 0)  -->
<svg xmlns="http://www.w3.org/2000/svg" xmlns:xlink="http://www.w3.org/1999/xlink" version="1.1" id="Capa_1" x="0px" y="0px" viewBox="0 0 24 24" style="enable-background:new 0 0 24 24;" xml:space="preserve" width="512" height="512">
<g id="layer1" transform="translate(-17.934854,-428.95389)">
	<g id="g4450" transform="translate(128.56702)">
		<path id="rect4329" d="M-107.284,437.667l-3.348,3.297l3.349,3.298v5.39h5.374l3.285,3.235l3.285-3.235h5.43v-5.375l3.277-3.298    l-3.232-3.252v-5.453h-5.457l-3.235-3.255l-3.193,3.212h-5.535V437.667z M-98.556,429.769l2.491,2.506h-1.69v0.265v6.176    l-0.801,0.805l-0.81-0.815v-6.473h-1.638L-98.556,429.769z M-106.757,432.76h4.484l-1.874,1.886l4.253,4.279v0.654h-0.796    l-4.267-4.203l-1.798,1.771V432.76z M-101.529,432.76h1.635v5.415l-3.509-3.53L-101.529,432.76z M-97.227,432.803h1.687    l1.83,1.842l-3.517,3.539L-97.227,432.803z M-94.796,432.803h4.404v4.394l-1.831-1.842l-4.241,4.267h-0.764v-0.69l4.261-4.288    L-94.796,432.803z M-92.223,436.104l1.831,1.842v1.677h-5.328L-92.223,436.104z M-104.957,436.117l3.515,3.462h-5.314v-1.69    L-104.957,436.117z M-107.283,443.521l-2.596-2.556l2.595-2.556v1.698h6.377l0.871,0.858l-0.782,0.77h-6.465V443.521z     M-89.864,438.476l2.488,2.504l-2.534,2.549v-1.796h-6.41l-0.749-0.754l0.825-0.83h6.38L-89.864,438.476z M-99.367,439.455    l0.81,0.815l0.187-0.188l0.614-0.618v0.686h0.768l-0.825,0.83l0.749,0.754h-0.718v0.265v0.543l-0.842-0.829l-0.741,0.73v-0.707    h-0.701l0.782-0.77l-0.188-0.185l-0.683-0.673h0.788V439.455z M-106.756,442.262h5.402l-3.604,3.549l-1.798-1.771V442.262z     M-100.602,442.262h0.708v0.7l-4.404,4.337l1.852,1.824h-4.31v-4.342l1.798,1.77L-100.602,442.262z M-97.254,443.061l0-0.799    h0.716l4.316,4.343l0.186-0.187l1.599-1.609v4.316h-4.366l1.853-1.825L-97.254,443.061z M-95.795,442.262h5.358v1.798    l-1.785,1.796L-95.795,442.262z M-98.624,442.453l0.842,0.829v6.371h1.691l-2.533,2.494l-2.533-2.494h1.791v-6.469    L-98.624,442.453z M-99.894,443.704v5.42h-1.799l-1.852-1.824L-99.894,443.704z M-97.254,443.801l3.552,3.498l-1.853,1.825h-1.699    V443.801z"/>
	</g>
</g>















</svg>
