<?xml version="1.0" encoding="UTF-8"?>
<svg xmlns="http://www.w3.org/2000/svg" id="Layer_1" data-name="Layer 1" viewBox="0 0 24 24" width="512" height="512"><path d="M22.293,17.714l-1.229,1.229-2.315-2.315C20.853,14.2,22,11.885,22,9.9A5.717,5.717,0,0,0,16.5,4a5.321,5.321,0,0,0-4,1.854A5.318,5.318,0,0,0,8.5,4a5.146,5.146,0,0,0-1.978.4L2.561.439A1.5,1.5,0,0,0,.439,2.561L4.163,6.284A6.141,6.141,0,0,0,3,9.9c0,2.885,2.371,6.462,6.676,10.072a4.39,4.39,0,0,0,5.648,0c.473-.4.913-.792,1.339-1.187l2.28,2.28-1.229,1.229A1,1,0,0,0,18.423,24L23,23.99a1,1,0,0,0,1-1V18.421A1,1,0,0,0,22.293,17.714Zm-8.9-.042a1.414,1.414,0,0,1-1.792,0C7.472,14.208,6,11.386,6,9.9A2.726,2.726,0,0,1,8.5,7,2.726,2.726,0,0,1,11,9.9a1.5,1.5,0,1,0,3,0A2.725,2.725,0,0,1,16.5,7,2.725,2.725,0,0,1,19,9.9C19,11.386,17.528,14.208,13.4,17.672Z"/></svg>
