<?xml version="1.0" encoding="UTF-8"?>
<svg xmlns="http://www.w3.org/2000/svg" id="Layer_1" data-name="Layer 1" viewBox="0 0 24 24" width="512" height="512"><path d="M20.5,9H18.134L14.309,1.823A3.5,3.5,0,0,0,11.236,0h-4.8L9.181,9H7.017L4.892,7.285a2.9,2.9,0,0,0-4.5.661A2.848,2.848,0,0,0,.355,10.79L3.575,17H9.187l-3,7h5.049a3.5,3.5,0,0,0,3.018-1.727L18.1,17H24V12.5A3.5,3.5,0,0,0,20.5,9ZM10.487,3h.749a.5.5,0,0,1,.432.247L14.734,9H12.317ZM21,14H16.569l-4.79,6.575-.1.164a.5.5,0,0,1-.439.261h-.5l3-7H5.391L3.13,9.719,5.957,12H20.5a.5.5,0,0,1,.5.5Z"/></svg>
