<svg id="Layer_1" height="512" viewBox="0 0 24 24" width="512" xmlns="http://www.w3.org/2000/svg" data-name="Layer 1"><path d="m4.863 2.855 1.55-.442.442-1.55a1.191 1.191 0 0 1 2.29 0l.442 1.55 1.55.442a1.191 1.191 0 0 1 0 2.29l-1.55.442-.442 1.55a1.191 1.191 0 0 1 -2.29 0l-.442-1.55-1.55-.442a1.191 1.191 0 0 1 0-2.29zm18.274 12-1.55-.442-.442-1.55a1.191 1.191 0 0 0 -2.29 0l-.442 1.55-1.55.442a1.191 1.191 0 0 0 0 2.29l1.55.442.442 1.55a1.191 1.191 0 0 0 2.29 0l.442-1.55 1.55-.442a1.191 1.191 0 0 0 0-2.29zm-5.382-10.355 1.356.387.389 1.357a1.042 1.042 0 0 0 2 0l.387-1.355 1.358-.389a1.042 1.042 0 0 0 0-2l-1.356-.387-.389-1.358a1.042 1.042 0 0 0 -2 0l-.387 1.356-1.358.389a1.042 1.042 0 0 0 0 2zm-.6 8.148-10.469 10.216a3.926 3.926 0 0 1 -5.537-.013 3.929 3.929 0 0 1 0-5.55l10.524-10.268a3.923 3.923 0 0 1 6.664 2.832 3.894 3.894 0 0 1 -1.184 2.785zm-6.18 1.839-1.309-1.305-6.409 6.253a.921.921 0 0 0 .014 1.294.943.943 0 0 0 1.306 0zm4.364-4.642a.924.924 0 0 0 -1.569-.667l-1.955 1.907 1.307 1.307 1.937-1.892a.92.92 0 0 0 .278-.653z"/></svg>