<?xml version="1.0" encoding="UTF-8"?>
<svg xmlns="http://www.w3.org/2000/svg" id="Layer_1" data-name="Layer 1" viewBox="0 0 24 24" width="512" height="512"><path d="M16.5,6a5.037,5.037,0,0,0-2.276.625,4.7,4.7,0,0,0-.673-.321C13.894,3.106,15.977,3,16,3a.879.879,0,0,1,1,1h3a3.869,3.869,0,0,0-4-4,5.4,5.4,0,0,0-3.953,2.071A6.216,6.216,0,0,0,9.807.158L8.465,2.842c.454.226,1.736.876,1.988,3.46a4.657,4.657,0,0,0-.688.329A5.08,5.08,0,0,0,7.5,6C4.538,6,0,10.032,0,15s4.547,9,7.515,9a3.254,3.254,0,0,0,2.072-.736,4.322,4.322,0,0,0,4.825,0A3.259,3.259,0,0,0,16.484,24C19.452,24,24,19.968,24,15S19.462,6,16.5,6ZM3,15c0-3.339,3.231-6,4.5-6h0A11.879,11.879,0,0,0,6,15a11.884,11.884,0,0,0,1.5,6C6.217,20.979,3,18.327,3,15Zm9,6c-1.416,0-3-2.566-3-6s1.584-6,3-6,3,2.566,3,6S13.416,21,12,21Zm4.5,0A11.884,11.884,0,0,0,18,15a11.879,11.879,0,0,0-1.5-6h0C17.77,9,21,11.661,21,15S17.783,20.978,16.5,21Z"/></svg>
