<?xml version="1.0" encoding="UTF-8"?>
<!-- Generator: Adobe Illustrator 26.0.1, SVG Export Plug-In . SVG Version: 6.00 Build 0)  -->
<svg xmlns="http://www.w3.org/2000/svg" xmlns:xlink="http://www.w3.org/1999/xlink" version="1.1" id="Capa_1" x="0px" y="0px" viewBox="0 0 24 24" style="enable-background:new 0 0 24 24;" xml:space="preserve" width="512" height="512">
<path d="M12,0C5.373,0,0,5.373,0,12c0,6.627,5.373,12,12,12s12-5.373,12-12C24,5.373,18.627,0,12,0z M12,21.75  c-5.376,0-9.75-4.374-9.75-9.75c0-1.125,0.194-2.206,0.547-3.212l3.813,1.698c-0.103,0.51-0.158,1.043-0.158,1.592  c0,4.791,3.576,6.14,5.826,6.14c1.327,0,2.475-0.428,3.374-1.057c0.171-0.122,0.326-0.246,0.468-0.371l-1.749-2.126  c-0.051,0.059-0.105,0.114-0.16,0.164c-0.68,0.645-1.428,0.645-1.595,0.645c-1.83,0-2.597-1.931-2.607-3.478  c0,0,10.533,4.681,10.543,4.684C18.891,19.7,15.681,21.75,12,21.75z M10.556,9.653c0.391-0.708,1.014-1.241,1.945-1.241  c0.54,0,0.968,0.179,1.305,0.405c0.14,0.101,0.262,0.202,0.364,0.304l1.954-2.011c-1.312-1.128-2.804-1.33-3.78-1.33  c-2.293,0-3.916,0.991-4.872,2.496L3.848,6.66C5.592,4.006,8.594,2.249,12,2.249c5.376,0,9.751,4.373,9.751,9.751  c0,0.87-0.117,1.713-0.331,2.516C21.41,14.507,10.556,9.653,10.556,9.653z"/>















</svg>
