<?xml version="1.0" encoding="UTF-8"?>
<svg xmlns="http://www.w3.org/2000/svg" id="Layer_1" data-name="Layer 1" viewBox="0 0 24 24" width="512" height="512"><path d="M18.5,24H13.034A13.5,13.5,0,0,1,3,19.789a11.467,11.467,0,0,1-2.947-8.9A12.024,12.024,0,0,1,9.908.188a11.641,11.641,0,0,1,9.654,2.569A12.448,12.448,0,0,1,24,12.324V18.5A5.507,5.507,0,0,1,18.5,24ZM12.03,3a9.021,9.021,0,0,0-8.988,8.164,8.509,8.509,0,0,0,2.18,6.605A10.5,10.5,0,0,0,13.034,21H18.5A2.5,2.5,0,0,0,21,18.5V12.324a9.466,9.466,0,0,0-3.366-7.27A8.637,8.637,0,0,0,12.03,3ZM12,6a1.5,1.5,0,0,0,0,3A1.5,1.5,0,0,0,12,6Zm.5,13A1.5,1.5,0,0,1,11,17.5V13h-.5a1.5,1.5,0,0,1,0-3h1A2.5,2.5,0,0,1,14,12.5v5A1.5,1.5,0,0,1,12.5,19Z"/></svg>
