<?xml version="1.0" encoding="UTF-8"?>
<svg xmlns="http://www.w3.org/2000/svg" id="Layer_1" data-name="Layer 1" viewBox="0 0 24 24" width="512" height="512"><path d="M23.069.534a2.446,2.446,0,0,0-2.083-.47,6.385,6.385,0,0,0-4.13,3.617,19.008,19.008,0,0,0-9.712,0A6.391,6.391,0,0,0,3.013.064,2.46,2.46,0,0,0,0,2.46v7.5a10.977,10.977,0,0,0,3.235,7.811L7.681,22.21a6.134,6.134,0,0,0,8.638,0l4.446-4.444A10.973,10.973,0,0,0,24,9.955V2.46A2.446,2.446,0,0,0,23.069.534ZM4.85,5.975a1.5,1.5,0,0,0,1.916.942A18.529,18.529,0,0,1,12,6a18.569,18.569,0,0,1,5.234.917,1.5,1.5,0,0,0,1.916-.943A5,5,0,0,1,21,3.269v3.9a12.536,12.536,0,0,0-9,6.287A12.536,12.536,0,0,0,3,7.17v-3.9A5,5,0,0,1,4.85,5.975Zm.507,9.67a7.984,7.984,0,0,1-2.343-5.393,11.57,11.57,0,0,1,2.02.686,3.363,3.363,0,0,0,.622,1.63A3.711,3.711,0,0,0,8.8,14a9.875,9.875,0,0,1,1.647,5.144,2.881,2.881,0,0,0-.81.784Zm13.287,0L14.36,19.927a2.881,2.881,0,0,0-.81-.784A9.875,9.875,0,0,1,15.2,14a3.713,3.713,0,0,0,3.147-1.431,3.363,3.363,0,0,0,.622-1.63,11.6,11.6,0,0,1,2.02-.686A7.988,7.988,0,0,1,18.644,15.645Z"/></svg>
