<?xml version="1.0" encoding="UTF-8"?>
<svg xmlns="http://www.w3.org/2000/svg" id="Bold" viewBox="0 0 24 24" width="512" height="512"><path d="M.912,10.6,10.2,16.169a3.492,3.492,0,0,0,3.6,0L23.088,10.6a1.861,1.861,0,0,0,0-3.192L13.8,1.831a3.489,3.489,0,0,0-3.6,0h0L.912,7.4a1.861,1.861,0,0,0,0,3.192ZM11.743,4.4a.5.5,0,0,1,.514,0L19.918,9l-7.661,4.6a.5.5,0,0,1-.514,0L4.082,9Z"/><path d="M13.286,18.831a2.5,2.5,0,0,1-2.572,0L2.272,13.766A1.5,1.5,0,0,0,0,15.052H0a1.5,1.5,0,0,0,.728,1.286L9.17,21.4a5.488,5.488,0,0,0,5.66,0l8.442-5.065A1.5,1.5,0,0,0,24,15.052h0a1.5,1.5,0,0,0-2.272-1.286Z"/></svg>
