<?xml version="1.0" encoding="UTF-8"?>
<svg xmlns="http://www.w3.org/2000/svg" id="Layer_1" data-name="Layer 1" viewBox="0 0 24 24" width="512" height="512"><path d="M22.692,7.447,14.1.725a3.4,3.4,0,0,0-4.2,0L1.308,7.447A3.39,3.39,0,0,0,0,10.132V24H24V10.132A3.39,3.39,0,0,0,22.692,7.447ZM21,21H3V10.132a.412.412,0,0,1,.157-.322l8.591-6.723a.408.408,0,0,1,.5,0L20.843,9.81a.412.412,0,0,1,.157.322ZM12,8a5,5,0,0,0-3.523,8.547L12,19.994l3.535-3.458A5,5,0,0,0,12,8Zm0,7a2,2,0,1,1,2-2A2,2,0,0,1,12,15Z"/></svg>
