<?xml version="1.0" encoding="UTF-8"?>
<!-- Generator: Adobe Illustrator 26.0.1, SVG Export Plug-In . SVG Version: 6.00 Build 0)  -->
<svg xmlns="http://www.w3.org/2000/svg" xmlns:xlink="http://www.w3.org/1999/xlink" version="1.1" id="Capa_1" x="0px" y="0px" viewBox="0 0 24 24" style="enable-background:new 0 0 24 24;" xml:space="preserve" width="512" height="512">
<path d="M21.818,2.182H2.182C0.982,2.182,0,3.164,0,4.364v3.273h2.182V4.364h19.636v15.273h-7.636v2.182h7.636  c1.2,0,2.182-0.982,2.182-2.182V4.364C24,3.164,23.018,2.182,21.818,2.182z M0,18.545v3.273h3.273  C3.273,20.007,1.811,18.545,0,18.545z M0,14.182v2.182c3.011,0,5.455,2.444,5.455,5.454h2.182C7.636,17.596,4.222,14.182,0,14.182z   M0,9.818V12c5.422,0,9.818,4.396,9.818,9.818H12C12,15.185,6.622,9.818,0,9.818z"/>















</svg>
