<?xml version="1.0" encoding="UTF-8"?>
<svg xmlns="http://www.w3.org/2000/svg" id="Layer_1" data-name="Layer 1" viewBox="0 0 24 24" width="512" height="512"><circle cx="11" cy="13" r="2"/><rect x="5.99" y="14.742" width="3" height="3.536" transform="translate(-9.48 10.132) rotate(-45)"/><path d="M23.379.621a2.122,2.122,0,0,0-3,0L18,3v.956L15.833,6.092a6.068,6.068,0,0,0-7.614.538,5.718,5.718,0,0,0-.995,1.364A6.952,6.952,0,0,0,2.106,9.93c-3,3-2.756,8.125.541,11.423a8.837,8.837,0,0,0,6.208,2.641,7.3,7.3,0,0,0,5.215-2.1,6.958,6.958,0,0,0,1.936-5.128,5.312,5.312,0,0,0,1.364-.985,6.06,6.06,0,0,0,.573-7.557L20.2,6H21l2.379-2.379a2.122,2.122,0,0,0,0-3ZM15.249,13.66a2.375,2.375,0,0,1-.619.44A2.684,2.684,0,0,0,13,16.5a4.229,4.229,0,0,1-1.052,3.273c-1.831,1.83-5.053,1.587-7.18-.541s-2.372-5.349-.541-7.18a4.091,4.091,0,0,1,3.011-1.057c.087,0,.174,0,.263.005A2.694,2.694,0,0,0,9.9,9.372a2.379,2.379,0,0,1,.441-.621,2.935,2.935,0,0,1,3.26-.458L12.575,9.3l2.106,2.136,1.034-1.02A2.927,2.927,0,0,1,15.249,13.66Z"/></svg>
