<?xml version="1.0" encoding="UTF-8"?>
<svg xmlns="http://www.w3.org/2000/svg" id="Isolation_Mode" data-name="Isolation Mode" viewBox="0 0 24 24" width="512" height="512"><path d="M23.657,17.164,20.03,13.537v2.939a9.1,9.1,0,0,1-6.173-3c-.2.229-.4.456-.608.7-.439.508-.9,1.034-1.375,1.559A12,12,0,0,0,20.03,19.48v2.869l3.627-3.627A1.1,1.1,0,0,0,23.657,17.164Z"/><path d="M20.012,7.515v2.9l3.642-3.642a1.106,1.106,0,0,0,0-1.564L20.012,1.566V4.511c-4.526.21-7.253,2.674-9.523,5.21C8.066,7.04,5.12,4.487-.021,4.487V7.492c4.089,0,6.29,1.994,8.52,4.509-2.23,2.515-4.431,4.507-8.52,4.507v3.005c6.047,0,9.061-3.533,11.754-6.651C14.1,10.126,16.161,7.748,20.012,7.515Z"/></svg>
