<?xml version="1.0" encoding="UTF-8"?>
<!-- Generator: Adobe Illustrator 26.0.1, SVG Export Plug-In . SVG Version: 6.00 Build 0)  -->
<svg xmlns="http://www.w3.org/2000/svg" xmlns:xlink="http://www.w3.org/1999/xlink" version="1.1" id="Capa_1" x="0px" y="0px" viewBox="0 0 24 24" style="enable-background:new 0 0 24 24;" xml:space="preserve" width="512" height="512">
<g id="Layer_2_00000173154179957220104190000011778722811341831614_">
	<g id="Layer_1-2_1_">
		<g id="Surfaces_1_">
			<g id="_3D_Substance_Surface_1_">
				<g id="Outline_no_shadow_1_">
					<path d="M9.938,10.02c0.169,0.45,0.251,0.928,0.241,1.409c0.008,0.51-0.076,1.018-0.25,1.498       c-0.152,0.418-0.394,0.797-0.708,1.11c-0.313,0.305-0.69,0.536-1.103,0.676c-0.461,0.156-0.946,0.232-1.432,0.225       c-0.129,0-0.245-0.003-0.346-0.008s-0.201-0.011-0.298-0.016c-0.097-0.005-0.204-0.008-0.322-0.008V8.241       C5.902,8.23,6.066,8.222,6.21,8.217c0.145-0.005,0.325-0.008,0.54-0.008c0.471-0.005,0.94,0.06,1.393,0.193       C8.548,8.52,8.921,8.726,9.238,9.006C9.547,9.285,9.787,9.632,9.938,10.02z"/>
					<path d="M19.75,0.3H4.25C1.903,0.3,0,2.203,0,4.55v14.9c0,2.347,1.903,4.25,4.25,4.25h15.5c2.347,0,4.25-1.903,4.25-4.25V4.55       C24,2.203,22.097,0.3,19.75,0.3z M12.168,13.433c-0.202,0.565-0.508,1.086-0.902,1.538c-0.373,0.423-0.81,0.784-1.296,1.071       c-0.481,0.284-1.002,0.495-1.545,0.628c-0.532,0.132-1.078,0.2-1.626,0.201h-1.2c-0.424,0-0.818-0.002-1.183-0.008       c-0.365-0.006-0.639-0.014-0.821-0.024c-0.064,0-0.097-0.054-0.097-0.161V6.438C3.491,6.373,3.539,6.316,3.603,6.309       c0.003,0,0.005,0,0.008,0c0.161-0.01,0.397-0.019,0.709-0.024C4.63,6.279,4.995,6.274,5.414,6.269       C5.832,6.263,6.277,6.261,6.75,6.261c1.288,0,2.356,0.22,3.204,0.66c0.803,0.398,1.469,1.029,1.908,1.811       c0.424,0.768,0.636,1.65,0.636,2.648C12.51,12.079,12.398,12.774,12.168,13.433z M20.55,16.694       c0,0.097-0.043,0.145-0.129,0.145h-1.948c-0.078,0.011-0.15-0.043-0.161-0.121c-0.002-0.013-0.002-0.027,0-0.04v-4.572       c0.009-0.281-0.04-0.561-0.145-0.821c-0.086-0.202-0.229-0.375-0.411-0.499c-0.205-0.126-0.444-0.187-0.684-0.177       c-0.259-0.004-0.516,0.043-0.757,0.137c-0.22,0.088-0.422,0.216-0.596,0.378v5.571c0,0.097-0.043,0.145-0.129,0.145h-1.964       c-0.07,0.01-0.135-0.039-0.145-0.109c-0.002-0.012-0.002-0.024,0-0.036v-5.989c0-0.182-0.003-0.386-0.008-0.612       c-0.006-0.225-0.014-0.44-0.024-0.644c-0.011-0.204-0.022-0.365-0.032-0.483c-0.013-0.033-0.007-0.07,0.016-0.097       c0.027-0.023,0.061-0.035,0.097-0.032h1.674c0.055-0.001,0.111,0.009,0.161,0.032c0.044,0.022,0.074,0.064,0.081,0.113       c0.022,0.064,0.045,0.137,0.073,0.217c0.03,0.097,0.049,0.197,0.056,0.298c0.311-0.273,0.672-0.483,1.063-0.62       c0.388-0.134,0.796-0.203,1.207-0.201c0.32,0.001,0.637,0.053,0.942,0.153c0.712,0.228,1.275,0.776,1.522,1.481       c0.161,0.413,0.241,0.947,0.241,1.602V16.694z"/>
				</g>
			</g>
		</g>
	</g>
</g>















</svg>
