<?xml version="1.0" encoding="UTF-8"?>
<svg xmlns="http://www.w3.org/2000/svg" id="Layer_1" data-name="Layer 1" viewBox="0 0 24 24" width="512" height="512"><path d="M8.164,8a2.5,2.5,0,0,1-1.579-.594A4.833,4.833,0,0,1,5.028,4.145C4.785,1.652,6.145.181,7.614.017A2.655,2.655,0,0,1,9.6.611a4.179,4.179,0,0,1,1.376,2.9C11.2,5.835,9.962,8,8.164,8ZM2.853,14a2.123,2.123,0,0,1-1.423-.594,5.041,5.041,0,0,1-1.4-3.262c-.22-2.493,1.006-3.964,2.331-4.128a2.241,2.241,0,0,1,1.786.594,4.366,4.366,0,0,1,1.241,2.9C5.589,11.835,4.359,14,2.853,14ZM15.836,8c-1.81,0-3.034-2.166-2.807-4.492h0a4.179,4.179,0,0,1,1.376-2.9A2.659,2.659,0,0,1,16.386.017c1.469.164,2.829,1.635,2.586,4.128a4.833,4.833,0,0,1-1.557,3.262A2.5,2.5,0,0,1,15.836,8Zm5.217,6c-1.886,0-2.827-2.166-2.615-4.492h0a4.3,4.3,0,0,1,1.281-2.9,2.358,2.358,0,0,1,1.846-.594c1.368.164,2.635,1.635,2.409,4.128a4.973,4.973,0,0,1-1.451,3.262A2.233,2.233,0,0,1,21.053,14ZM15.714,24a4.87,4.87,0,0,1-2.568-.679,2.2,2.2,0,0,0-2.292,0C7.756,25.175,3.9,23.188,4,18.833,4,14.284,8.507,10,12,10s8,4.284,8,8.833C20,21.875,18.238,24,15.714,24ZM12,20a4.87,4.87,0,0,1,2.568.679c1.978,1.133,2.449-.86,2.432-1.846C17,15.883,13.836,13,12,13s-5,2.883-5,5.833c-.023.971.462,2.986,2.432,1.846A4.87,4.87,0,0,1,12,20Z"/></svg>
