<?xml version="1.0" encoding="UTF-8"?>
<svg xmlns="http://www.w3.org/2000/svg" id="Layer_1" data-name="Layer 1" viewBox="0 0 24 24" width="512" height="512"><path d="M24,15v3a4.468,4.468,0,0,1-3-1.17,4.431,4.431,0,0,1-6,0,4.431,4.431,0,0,1-6,0,4.431,4.431,0,0,1-6,0A4.468,4.468,0,0,1,0,18V15a1.5,1.5,0,0,0,1.408-1H4.592a1.491,1.491,0,0,0,2.816,0h3.184a1.491,1.491,0,0,0,2.816,0h3.184a1.491,1.491,0,0,0,2.816,0h3.184A1.5,1.5,0,0,0,24,15Zm-1.408,5H19.408a1.491,1.491,0,0,1-2.816,0H13.408a1.491,1.491,0,0,1-2.816,0H7.408a1.491,1.491,0,0,1-2.816,0H1.408A1.5,1.5,0,0,1,0,21v3a4.468,4.468,0,0,0,3-1.17,4.431,4.431,0,0,0,6,0,4.431,4.431,0,0,0,6,0,4.431,4.431,0,0,0,6,0A4.468,4.468,0,0,0,24,24V21A1.5,1.5,0,0,1,22.592,20ZM10.5,0V8H7.538l3.673,3.673a1.115,1.115,0,0,0,1.578,0L16.462,8H13.5V0Z"/></svg>
