<?xml version="1.0" encoding="UTF-8"?>
<svg xmlns="http://www.w3.org/2000/svg" id="Layer_1" data-name="Layer 1" viewBox="0 0 24 24" width="512" height="512"><path d="M17.5,24C9.351,24.229-5.075,9.787,1.862,1.938,1.887,1.914,2.954.984,2.954.984a3.583,3.583,0,0,1,4.908.041l2.152,2.318a3.522,3.522,0,0,1-.039,4.91l-.388.394a11.6,11.6,0,0,0,5.754,5.778l.411-.4a3.585,3.585,0,0,1,4.945,0L22.934,16.1a3.515,3.515,0,0,1,.082,4.946s-.93,1.066-.954,1.091A6.39,6.39,0,0,1,17.5,24ZM3.95,4.1C-.909,10.118,14.644,24.773,19.905,20.05c0,0,.924-1.059.949-1.083a.5.5,0,0,0,0-.707l-2.238-2.074c-.3-.25-.469-.253-.747-.04l-1.136,1.118a1.5,1.5,0,0,1-1.587.332A14.852,14.852,0,0,1,6.414,8.877a1.5,1.5,0,0,1,.323-1.61L7.845,6.141a.485.485,0,0,0,.009-.717L5.7,3.106a.487.487,0,0,0-.667.04C5.009,3.171,3.95,4.1,3.95,4.1ZM16.808,15.086h0ZM24,9.5A9.511,9.511,0,0,0,14.5,0a1.5,1.5,0,0,0,0,3A6.508,6.508,0,0,1,21,9.5a1.5,1.5,0,0,0,3,0Zm-5,0A4.505,4.505,0,0,0,14.5,5a1.5,1.5,0,0,0,0,3A1.5,1.5,0,0,1,16,9.5a1.5,1.5,0,0,0,3,0Z"/></svg>
