<svg id="Layer_1" height="512" viewBox="0 0 24 24" width="512" xmlns="http://www.w3.org/2000/svg" data-name="Layer 1"><path d="m21.866 7.987 2.143-2.1-5.75-5.874-2.143 2.1 1.894 1.934-1.65 1.535-.56-.557a3.5 3.5 0 0 0 -4.949 0l-7.851 7.854v6l-3.061 3.06 2.122 2.122 3.06-3.061h6l7.854-7.854a3.5 3.5 0 0 0 0-4.949l-.492-.492 1.626-1.513zm-5.012 3.038-6.975 6.975h-3.879v-3.8l2.4 2.4 2.121-2.121-2.438-2.44 1.648-1.649 2.439 2.44 2.122-2.122-2.44-2.439 1.123-1.123a.5.5 0 0 1 .707 0l3.172 3.172a.5.5 0 0 1 0 .707z"/></svg>