<?xml version="1.0" encoding="UTF-8"?>
<svg xmlns="http://www.w3.org/2000/svg" id="Layer_1" data-name="Layer 1" viewBox="0 0 24 24" width="512" height="512"><path d="M22.5,21H22V14.318A5.324,5.324,0,0,0,16.682,9H13.5V6.333A2.993,2.993,0,0,0,15,3.75,5.718,5.718,0,0,0,13.555.69a2.168,2.168,0,0,0-3.109,0A5.726,5.726,0,0,0,9,3.75a2.993,2.993,0,0,0,1.5,2.583V9H7.318A5.324,5.324,0,0,0,2,14.318V21H1.5a1.5,1.5,0,0,0,0,3h21a1.5,1.5,0,0,0,0-3ZM5,16.74a2.336,2.336,0,0,0,1.75-1.876A2.5,2.5,0,0,0,9.375,17,2.491,2.491,0,0,0,12,14.864,2.5,2.5,0,0,0,14.625,17a2.491,2.491,0,0,0,2.625-2.136A2.354,2.354,0,0,0,19,16.738V21H5Z"/></svg>
