<?xml version="1.0" encoding="UTF-8"?>
<svg xmlns="http://www.w3.org/2000/svg" id="Layer_1" data-name="Layer 1" viewBox="0 0 24 24" width="512" height="512"><path d="M18.75,24H10.5a4.508,4.508,0,0,1-1.495-8.745A5.5,5.5,0,0,1,19.63,13.573,5.255,5.255,0,0,1,18.75,24ZM10.5,18a1.5,1.5,0,0,0,0,3h8.25a2.25,2.25,0,0,0,0-4.5H17.124l-.166-1.312a2.481,2.481,0,1,0-4.864.933L12.585,18ZM17.833,5.56l-.023.011A8.113,8.113,0,0,0,8.883.088,8.174,8.174,0,0,0,2.6,11.466,5.78,5.78,0,0,0,4.462,21.893a6.358,6.358,0,0,1-.373-3.411A2.6,2.6,0,0,1,3.1,17.048a2.8,2.8,0,0,1,2-3.446l2.155-.556L5.93,11.257a5.176,5.176,0,1,1,9.289-3.765l.075.563a7.529,7.529,0,0,1,5.746,3.813A7.217,7.217,0,0,1,24,13.749C24,9,19.93,6.268,17.833,5.56Z"/></svg>
