<?xml version="1.0" encoding="UTF-8"?>
<!-- Generator: Adobe Illustrator 26.0.1, SVG Export Plug-In . SVG Version: 6.00 Build 0)  -->
<svg xmlns="http://www.w3.org/2000/svg" xmlns:xlink="http://www.w3.org/1999/xlink" version="1.1" id="Capa_1" x="0px" y="0px" viewBox="0 0 24 24" style="enable-background:new 0 0 24 24;" xml:space="preserve" width="512" height="512">
<path style="fill-rule:evenodd;clip-rule:evenodd;" d="M21.151,0.008H2.853c-0.756,0-1.481,0.3-2.016,0.834  C0.302,1.376,0.001,2.101,0,2.857c0,0,0,18.25,0,18.271c0,0.753,0.3,1.491,0.831,2.025c0.528,0.53,1.275,0.84,2.022,0.84  c0,0,18.274,0,18.298,0c0.748,0,1.493-0.312,2.019-0.841c0.529-0.532,0.833-1.274,0.83-2.023V2.857  c-0.001-0.755-0.302-1.479-0.836-2.013C22.63,0.309,21.906,0.009,21.151,0.008z M10.351,17.283c0,0.253-0.104,0.497-0.283,0.675  c-0.181,0.179-0.424,0.275-0.678,0.275c0,0-3.999,0-3.999,0c-0.251-0.001-0.492-0.101-0.669-0.28  c-0.177-0.178-0.277-0.419-0.277-0.67v-11.9c0-0.251,0.1-0.492,0.277-0.67c0.177-0.178,0.418-0.278,0.669-0.28h3.999  c0.252,0.001,0.492,0.101,0.67,0.279c0.178,0.178,0.278,0.419,0.279,0.67C10.339,5.383,10.351,17.282,10.351,17.283z M19.578,11.819  c0.001,0.253-0.102,0.498-0.282,0.676c-0.176,0.174-0.432,0.277-0.679,0.274h-3.999c-0.252-0.001-0.493-0.101-0.67-0.279  c-0.178-0.178-0.278-0.419-0.279-0.67V5.383c0.001-0.252,0.101-0.493,0.279-0.67c0.178-0.178,0.419-0.278,0.67-0.279h3.999  c0.251,0.001,0.492,0.102,0.669,0.28c0.177,0.178,0.277,0.419,0.277,0.67C19.563,5.383,19.578,11.819,19.578,11.819z"/>















</svg>
