<?xml version="1.0" encoding="UTF-8"?>
<svg xmlns="http://www.w3.org/2000/svg" id="Layer_1" data-name="Layer 1" viewBox="0 0 24 24" width="512" height="512"><path d="M.4,10.513a2.987,2.987,0,0,0,.026,3C2.587,17.123,8.54,20.08,10.7,21.063A4.607,4.607,0,0,0,9,24h6a4.608,4.608,0,0,0-1.694-2.937L13.444,21H16a2,2,0,0,1,2,2h3a4.994,4.994,0,0,0-2.886-4.514,16.919,16.919,0,0,0,5.469-4.975,2.99,2.99,0,0,0-1.119-4.13,16.042,16.042,0,0,0,.454-6.011L22.773,1.7l-1.645.33c-1.031.208-4.221.94-5.765,2.28a23.393,23.393,0,0,0-2.221-3.077L12-.108l-1.142,1.34A23.393,23.393,0,0,0,8.637,4.309C7.094,2.969,3.9,2.237,2.872,2.029L1.227,1.7,1.082,3.37a16.042,16.042,0,0,0,.454,6.011A3,3,0,0,0,.4,10.513Zm15.131,6.021A7.135,7.135,0,0,0,16,14H13a4.82,4.82,0,0,1-1,2.789A4.818,4.818,0,0,1,11,14H8a7.144,7.144,0,0,0,.472,2.53C6.274,15.251,3.95,13.607,2.951,12h2.6l15.436,0C20.007,13.624,17.707,15.262,15.526,16.534Zm5.48-4.559h0l1.288.768ZM17.3,6.6A7.545,7.545,0,0,1,20,5.4a7.887,7.887,0,0,1-.377,3.007,1.437,1.437,0,0,1-2.034.3A1.524,1.524,0,0,1,17.3,6.6ZM12,4.651a8.046,8.046,0,0,1,1.5,2.836A1.441,1.441,0,0,1,12,9a1.441,1.441,0,0,1-1.5-1.513A8.079,8.079,0,0,1,12,4.651ZM6.7,6.594a1.526,1.526,0,0,1-.3,2.112,1.437,1.437,0,0,1-2.033-.3A7.88,7.88,0,0,1,4,5.4,7.577,7.577,0,0,1,6.7,6.594Z"/></svg>
