<?xml version="1.0" encoding="UTF-8"?>
<svg xmlns="http://www.w3.org/2000/svg" id="Layer_1" data-name="Layer 1" viewBox="0 0 24 24" width="512" height="512"><rect x="15.238" y="0.644" width="3.236" height="3" transform="translate(3.421 12.547) rotate(-45)"/><rect x="5.625" y="0.534" width="3" height="3.182" transform="translate(0.584 5.661) rotate(-45)"/><rect x="10.5" width="3" height="3.5"/><path d="M1.351,19.321.46,22.187l5.779,1.794.891-2.865-1.417-.44L6.281,19c.028,0,.056.005.084.005a5.242,5.242,0,0,0,2.585-.685,5.379,5.379,0,0,0,2.562-3.293L12,13.4l.477,1.584a5.4,5.4,0,0,0,2.573,3.333A5.242,5.242,0,0,0,17.635,19c.028,0,.056-.005.084-.005l.568,1.68-1.417.44.891,2.865,5.779-1.794-.891-2.866-1.5.465L20.582,18.1a5.565,5.565,0,0,0,2.212-6.071L21.431,7.489a3.44,3.44,0,0,0-4.218-2.358L13.5,6.2a3.393,3.393,0,0,0-1.5.915A3.4,3.4,0,0,0,10.5,6.2L6.786,5.131A3.434,3.434,0,0,0,2.572,7.48L1.194,12.067A5.547,5.547,0,0,0,3.418,18.1l-.571,1.687ZM14.065,9.3a.435.435,0,0,1,.261-.216L18.04,8.015a.368.368,0,0,1,.1-.015.446.446,0,0,1,.411.344l.8,2.656H14.412l-.39-1.295A.529.529,0,0,1,14.065,9.3ZM5.959,8.015,9.675,9.081a.436.436,0,0,1,.26.216.52.52,0,0,1,.045.4L9.589,11H4.647l.8-2.665A.428.428,0,0,1,5.959,8.015Z"/></svg>
