<svg id="Layer_1" height="512" viewBox="0 0 24 24" width="512" xmlns="http://www.w3.org/2000/svg" data-name="Layer 1"><path d="m12 0a12 12 0 1 0 12 12 12.013 12.013 0 0 0 -12-12zm-9 12a8.938 8.938 0 0 1 1.688-5.227 7.085 7.085 0 0 1 1.284 1.573l-1.03.307.858 2.875 1.15-.342a7.087 7.087 0 0 1 .05.814 7.087 7.087 0 0 1 -.05.814l-1.15-.342-.858 2.875 1.03.307a7.085 7.085 0 0 1 -1.284 1.573 8.938 8.938 0 0 1 -1.688-5.227zm3.81 7.34a10.066 10.066 0 0 0 2.1-2.809l1.517.452.857-2.875-1.445-.431a10.039 10.039 0 0 0 .161-1.677 10.039 10.039 0 0 0 -.157-1.677l1.445-.431-.857-2.875-1.517.452a10.066 10.066 0 0 0 -2.104-2.809 8.943 8.943 0 0 1 10.38 0 10.066 10.066 0 0 0 -2.1 2.809l-1.517-.452-.857 2.875 1.445.431a10.039 10.039 0 0 0 -.161 1.677 10.039 10.039 0 0 0 .157 1.677l-1.445.431.857 2.875 1.517-.452a10.066 10.066 0 0 0 2.1 2.809 8.943 8.943 0 0 1 -10.38 0zm12.5-2.113a7.085 7.085 0 0 1 -1.284-1.573l1.03-.307-.856-2.875-1.15.342a6.651 6.651 0 0 1 0-1.628l1.15.342.858-2.875-1.03-.307a7.085 7.085 0 0 1 1.284-1.573 8.937 8.937 0 0 1 0 10.454z"/></svg>