<svg id="Layer_1" height="512" viewBox="0 0 24 24" width="512" xmlns="http://www.w3.org/2000/svg" data-name="Layer 1"><path d="m24 9.876a9.518 9.518 0 0 0 -2.769-7.1 9.988 9.988 0 0 0 -12.491-1.06 4.989 4.989 0 1 0 -4.707 8.184 11.369 11.369 0 0 0 1.048 5.1.483.483 0 0 1 -.081.578l-3.814 2.664v.014a3.238 3.238 0 1 0 4.634 4.459l.01.006 2.57-3.721a.5.5 0 0 1 .6-.119 10.7 10.7 0 0 0 4.462 1.157 7.468 7.468 0 0 0 1.144-.08 9.908 9.908 0 0 0 6.251-2.919 10.565 10.565 0 0 0 3.143-7.163zm-21-4.876a2 2 0 1 1 2 2 2 2 0 0 1 -2-2zm12.378 11.8-7.632-7.629a5 5 0 0 0 2.254-4.171 4.816 4.816 0 0 0 -.049-.483 7.028 7.028 0 0 1 9.149.383 6.543 6.543 0 0 1 1.9 4.885 7.587 7.587 0 0 1 -2.261 5.133 6.93 6.93 0 0 1 -3.361 1.882z"/></svg>