<?xml version="1.0" encoding="UTF-8"?>
<!-- Generator: Adobe Illustrator 26.0.1, SVG Export Plug-In . SVG Version: 6.00 Build 0)  -->
<svg xmlns="http://www.w3.org/2000/svg" xmlns:xlink="http://www.w3.org/1999/xlink" version="1.1" id="Capa_1" x="0px" y="0px" viewBox="0 0 24 24" style="enable-background:new 0 0 24 24;" xml:space="preserve" width="512" height="512">
<g>
	<path d="M15.865,2.8c-0.002,0-0.268,0.083-0.719,0.222c-0.075-0.244-0.186-0.544-0.344-0.845c-0.509-0.972-1.255-1.486-2.156-1.487   c-0.001,0-0.002,0-0.003,0c-0.062,0-0.125,0.006-0.187,0.012c-0.026-0.032-0.053-0.064-0.081-0.094   c-0.392-0.42-0.896-0.625-1.499-0.607C9.712,0.034,8.553,0.875,7.613,2.368C6.951,3.418,6.449,4.738,6.306,5.76   C4.969,6.174,4.034,6.463,4.014,6.47C3.34,6.681,3.319,6.702,3.23,7.338c-0.067,0.481-1.832,14.13-1.832,14.13L16.042,24V2.77   C15.97,2.775,15.906,2.788,15.865,2.8z M12.484,3.847c-0.775,0.24-1.621,0.502-2.47,0.765c0.239-0.914,0.691-1.824,1.247-2.42   c0.207-0.222,0.496-0.469,0.838-0.611C12.422,2.252,12.491,3.204,12.484,3.847z M10.898,0.775c0.273-0.006,0.503,0.054,0.7,0.184   c-0.314,0.163-0.619,0.398-0.904,0.704C9.955,2.456,9.389,3.688,9.163,4.875C8.458,5.093,7.769,5.307,7.134,5.503   C7.534,3.633,9.102,0.827,10.898,0.775z M8.633,11.427c0.079,1.246,3.356,1.518,3.54,4.436c0.145,2.296-1.218,3.866-3.181,3.99   c-2.356,0.149-3.653-1.242-3.653-1.242l0.499-2.124c0,0,1.306,0.985,2.351,0.919c0.683-0.043,0.927-0.598,0.902-0.991   c-0.103-1.625-2.771-1.529-2.94-4.2c-0.142-2.247,1.334-4.524,4.59-4.73c1.255-0.079,1.897,0.241,1.897,0.241l-0.745,2.786   c0,0-0.831-0.378-1.815-0.316C8.634,10.288,8.619,11.198,8.633,11.427z M13.257,3.607c-0.009-0.589-0.079-1.409-0.354-2.118   c0.883,0.167,1.318,1.167,1.502,1.763C14.065,3.357,13.677,3.477,13.257,3.607z"/>
	<path d="M16.527,23.942l6.075-1.51c0,0-2.616-17.684-2.632-17.806c-0.017-0.121-0.123-0.188-0.21-0.196   c-0.088-0.007-1.798-0.033-1.798-0.033s-1.043-1.013-1.435-1.396V23.942z"/>
</g>















</svg>
