<?xml version="1.0" encoding="UTF-8"?>
<!-- Generator: Adobe Illustrator 26.0.1, SVG Export Plug-In . SVG Version: 6.00 Build 0)  -->
<svg xmlns="http://www.w3.org/2000/svg" xmlns:xlink="http://www.w3.org/1999/xlink" version="1.1" id="Capa_1" x="0px" y="0px" viewBox="0 0 24 24" style="enable-background:new 0 0 24 24;" xml:space="preserve" width="512" height="512">
<path d="M0.912,11.156c-0.017-0.069-0.013-0.142-0.003-0.18c0.023-0.109,0.098-0.231,0.314-0.231c0.201,0,0.319,0.125,0.319,0.312  c0,0.063,0,0.212,0,0.212h0.856v-0.241c0-0.746-0.673-0.865-1.158-0.865c-0.609,0-1.107,0.202-1.199,0.763  c-0.025,0.154-0.029,0.289,0.007,0.462c0.149,0.701,1.368,0.904,1.545,1.348c0.033,0.083,0.023,0.188,0.007,0.253  c-0.028,0.115-0.106,0.232-0.335,0.232c-0.214,0-0.343-0.125-0.343-0.312l-0.001-0.33H0v0.262c0,0.767,0.602,0.998,1.247,0.998  c0.62,0,1.129-0.211,1.212-0.785c0.041-0.296,0.01-0.489-0.004-0.562C2.311,11.771,1.01,11.557,0.912,11.156z M12.07,11.164  c-0.015-0.068-0.011-0.14-0.003-0.177c0.025-0.11,0.098-0.23,0.311-0.23c0.198,0,0.314,0.124,0.314,0.309c0,0.063,0,0.21,0,0.21  h0.846v-0.239c0-0.739-0.663-0.855-1.143-0.855c-0.604,0-1.098,0.199-1.188,0.755c-0.024,0.151-0.03,0.286,0.008,0.457  c0.147,0.694,1.354,0.895,1.53,1.333c0.031,0.083,0.022,0.189,0.006,0.251c-0.026,0.114-0.103,0.229-0.331,0.229  c-0.214,0-0.342-0.123-0.342-0.308l0-0.329h-0.91v0.262c0,0.758,0.594,0.987,1.234,0.987c0.613,0,1.119-0.209,1.2-0.777  c0.039-0.293,0.01-0.484-0.006-0.556C13.455,11.775,12.168,11.561,12.07,11.164z M19.861,13.034l-0.808-2.762H17.78v3.395h0.842  l-0.049-2.851l0.868,2.851h1.221v-3.395h-0.848L19.861,13.034z M3.673,10.271l-0.636,3.431h0.927l0.479-3.176l0.467,3.176h0.92  l-0.633-3.431H3.673z M8.856,10.271l-0.433,2.682L7.99,10.271h-1.4l-0.074,3.431h0.858l0.023-3.176l0.59,3.176h0.87l0.591-3.176  l0.023,3.176h0.86l-0.077-3.431H8.856z M16.828,10.271h-0.868v2.538c0.001,0.044,0,0.094-0.008,0.13  c-0.018,0.085-0.09,0.249-0.33,0.249c-0.236,0-0.31-0.164-0.327-0.249c-0.009-0.036-0.01-0.086-0.009-0.13v-2.538H14.42v2.459  c-0.001,0.063,0.004,0.193,0.008,0.227c0.06,0.641,0.565,0.849,1.196,0.849c0.632,0,1.137-0.208,1.198-0.849  c0.005-0.034,0.011-0.163,0.007-0.227V10.271z M22.786,11.777v0.5h0.352v0.496c0.001,0.044-0.001,0.092-0.009,0.13  c-0.014,0.093-0.102,0.25-0.352,0.25c-0.248,0-0.335-0.158-0.35-0.25c-0.006-0.038-0.009-0.086-0.009-0.13v-1.568  c0-0.055,0.004-0.116,0.016-0.162c0.017-0.084,0.091-0.248,0.341-0.248c0.262,0,0.328,0.174,0.343,0.248  c0.01,0.049,0.01,0.132,0.01,0.132v0.19h0.864v-0.113c0,0,0.004-0.117-0.007-0.227c-0.065-0.644-0.595-0.847-1.203-0.847  c-0.609,0-1.129,0.206-1.204,0.847c-0.007,0.059-0.017,0.164-0.017,0.227v1.442c0,0.063,0.002,0.111,0.014,0.226  c0.056,0.626,0.599,0.848,1.206,0.848c0.611,0,1.149-0.222,1.207-0.848c0.01-0.115,0.011-0.163,0.013-0.226v-0.919H22.786z"/>















</svg>
