<?xml version="1.0" encoding="UTF-8"?>
<svg xmlns="http://www.w3.org/2000/svg" id="Layer_1" data-name="Layer 1" viewBox="0 0 24 24" width="512" height="512"><path d="M19.5,24a4.441,4.441,0,0,1-2.364-.682,5.528,5.528,0,0,1-5.324-.033,6.045,6.045,0,0,1-6.3-.4A4.334,4.334,0,0,1,4.5,23a4.5,4.5,0,1,1,.039-9,5.95,5.95,0,0,1,8.172-.692A5.363,5.363,0,0,1,14.5,13a5.5,5.5,0,0,1,4.28,2.061A4.337,4.337,0,0,1,19.5,15a4.5,4.5,0,0,1,0,9Zm-2.153-4.748,1.015,1.2A1.483,1.483,0,0,0,19.5,21,1.5,1.5,0,0,0,21,19.5a1.485,1.485,0,0,0-2.179-1.323l-1.4.723-.654-1.432A2.514,2.514,0,0,0,13.2,16.379l-1.095.673-.833-.98a2.963,2.963,0,0,0-4.8.326l-.577.908-1.044-.255A1.554,1.554,0,0,0,4.5,17,1.5,1.5,0,0,0,3,18.5a1.485,1.485,0,0,0,2.157,1.336l.963-.473.758.758a2.959,2.959,0,0,0,4.009.185l.995-.816.958.86a2.451,2.451,0,0,0,3.353-.026ZM4.78,9.978A1.995,1.995,0,0,1,5,6a1.962,1.962,0,0,1,.724.147c.091.05,1.661.6,1.661.6L8.1,5.285a2.98,2.98,0,0,1,5.6-.556L14.5,6A6.524,6.524,0,0,1,17,5a2.067,2.067,0,0,1,1.808,1.165l.465,1a7.209,7.209,0,0,1,2.158.453A7.523,7.523,0,0,1,23.7,9.107,4.771,4.771,0,0,0,24,7.5a3.517,3.517,0,0,0-2.982-3.461,4.984,4.984,0,0,0-5.4-1.845,5.972,5.972,0,0,0-9.841.869v0a4.982,4.982,0,0,0-3.272,9.241,6.335,6.335,0,0,1,1.145-.26ZM9,10a7.962,7.962,0,0,1,4.084,1.138A7.494,7.494,0,0,1,19.589,13a6.472,6.472,0,0,1,4.381,1.793c.005-.1.03-.194.03-.294A5.506,5.506,0,0,0,18.5,9a5.284,5.284,0,0,0-1.2.138,6.461,6.461,0,0,0-10.277.893l-.14.258h0A7.973,7.973,0,0,1,9,10Z"/></svg>
