<?xml version="1.0" encoding="UTF-8"?>
<!-- Generator: Adobe Illustrator 25.0.0, SVG Export Plug-In . SVG Version: 6.00 Build 0)  -->
<svg xmlns="http://www.w3.org/2000/svg" xmlns:xlink="http://www.w3.org/1999/xlink" version="1.1" id="Layer_1" x="0px" y="0px" viewBox="0 0 512 512" style="enable-background:new 0 0 512 512;" xml:space="preserve" width="512" height="512">
<path d="M426.667,234.667c-47.128,0-85.333,38.205-85.333,85.333v106.667c0,47.128,38.205,85.333,85.333,85.333  S512,473.795,512,426.667V320C512,272.872,473.795,234.667,426.667,234.667z M448,426.667c0,11.782-9.551,21.333-21.333,21.333  c-11.782,0-21.333-9.551-21.333-21.333V320c0-11.782,9.551-21.333,21.333-21.333c11.782,0,21.333,9.551,21.333,21.333V426.667z"/>
<path d="M224,320c-10.926,0.104-21.752,2.096-32,5.888v-4.117c0.012-12.755,10.349-23.092,23.104-23.104h30.229  c17.673,0,32-14.327,32-32c0-17.673-14.327-32-32-32h-30.229c-48.082,0.059-87.045,39.022-87.104,87.104  c0,0,0.228,98.523,0.661,100.629c3.653,52.775,49.396,92.597,102.172,88.944s92.597-49.396,88.945-102.172  C316.296,358.874,274.419,319.885,224,320z M224,448c-17.673,0-32-14.327-32-32s14.327-32,32-32s32,14.327,32,32  S241.673,448,224,448z"/>
<path d="M475.584,57.749L447.36,85.973C353.451-19.718,191.642-29.27,85.95,64.639C-3.58,144.188-25.991,275.179,32,379.968  c8.45,15.522,27.883,21.256,43.405,12.806s21.256-27.883,12.806-43.405c-0.076-0.141-0.154-0.28-0.233-0.42  C36.583,256.306,70.021,139.54,162.664,88.145c79.875-44.312,179.917-26.157,239.128,43.397l-24.043,24.043  c-8.33,8.332-8.328,21.84,0.005,30.17c3.999,3.998,9.423,6.245,15.078,6.246h97.835c11.782,0,21.333-9.551,21.333-21.333V72.832  c-0.003-11.782-9.556-21.331-21.338-21.329C485.007,51.504,479.583,53.751,475.584,57.749z"/>
</svg>
