<?xml version="1.0" encoding="UTF-8"?>
<svg xmlns="http://www.w3.org/2000/svg" id="Layer_1" data-name="Layer 1" viewBox="0 0 24 24" width="512" height="512"><path d="M22.575,8.52A8.628,8.628,0,0,0,23,6a3,3,0,0,0-3-3c-.017,0-.033,0-.05,0A2.5,2.5,0,0,0,17.5,1a2.474,2.474,0,0,0-1.072.25,2.983,2.983,0,0,0-4.856,0A2.474,2.474,0,0,0,10.5,1,2.5,2.5,0,0,0,8.05,3.005c-.017,0-.033,0-.05,0A3,3,0,0,0,5,6a9.784,9.784,0,0,0,.831,3.633A9.429,9.429,0,0,0,5,13.5V20a1,1,0,0,1-2,0V13.5a6.42,6.42,0,0,1,.91-3.273,12.1,12.1,0,0,1-.889-3.645A9.456,9.456,0,0,0,0,13.5V20a4,4,0,0,0,4,4H20.5A3.5,3.5,0,0,0,24,20.5v-7A9.436,9.436,0,0,0,22.575,8.52ZM21,20.5a.5.5,0,0,1-.5.5H7.874A4.024,4.024,0,0,0,8,20V13.5a6.5,6.5,0,0,1,13,0Zm-2-7A1.5,1.5,0,1,1,17.5,12,1.5,1.5,0,0,1,19,13.5Zm-2,4A1.5,1.5,0,1,1,15.5,16,1.5,1.5,0,0,1,17,17.5Z"/></svg>
