<?xml version="1.0" encoding="UTF-8"?>
<!-- Generator: Adobe Illustrator 26.0.1, SVG Export Plug-In . SVG Version: 6.00 Build 0)  -->
<svg xmlns="http://www.w3.org/2000/svg" xmlns:xlink="http://www.w3.org/1999/xlink" version="1.1" id="Capa_1" x="0px" y="0px" viewBox="0 0 24 24" style="enable-background:new 0 0 24 24;" xml:space="preserve" width="512" height="512">
<g>
	<path d="M18.492,11.082c0,0.038-0.006,0.075-0.02,0.111l-0.498,1.302c-0.393,1.026-1.515,1.866-2.551,1.914l-8.735,0.111   c-0.088,0.004-0.172,0.068-0.201,0.154c-0.018,0.055-0.011,0.112,0.019,0.156c0.03,0.043,0.078,0.069,0.136,0.073l8.655,0.11   c0.457,0.022,0.833,0.208,1.059,0.524c0.246,0.343,0.3,0.81,0.154,1.315l-0.123,0.425c-0.026,0.088-0.106,0.149-0.197,0.151   c-0.002,0-0.003,0-0.005,0L0.205,17.424c-0.084,0-0.154-0.062-0.167-0.146C0.014,17.107,0,16.931,0,16.753   c0-1.974,1.572-3.58,3.532-3.638c-0.072-0.283-0.097-0.583-0.066-0.895c0.12-1.2,1.084-2.166,2.284-2.286   c0.676-0.068,1.305,0.128,1.797,0.497c0.762-2.244,2.886-3.858,5.387-3.858c2.715,0,4.985,1.902,5.551,4.447   C18.49,11.04,18.492,11.061,18.492,11.082z"/>
	<path d="M24,16.018c0,0.444-0.061,0.874-0.176,1.281c-0.021,0.076-0.091,0.127-0.17,0.127h-6.596c-0.002,0-0.004,0-0.005,0   c-0.069-0.003-0.116-0.073-0.091-0.139l0.139-0.362c0.393-1.026,1.515-1.866,2.556-1.914l1.917-0.111   c0.088-0.004,0.172-0.068,0.201-0.154c0.018-0.055,0.011-0.112-0.019-0.157c-0.03-0.042-0.077-0.068-0.132-0.071l-1.845-0.111   c-0.457-0.022-0.833-0.207-1.059-0.524c-0.246-0.343-0.3-0.81-0.154-1.315l0.34-1.176c0.013-0.044,0.046-0.077,0.087-0.092   c0.012-0.004,0.024-0.007,0.038-0.008c0.08-0.004,0.159-0.006,0.24-0.006C21.882,11.288,24,13.406,24,16.018z"/>
</g>















</svg>
