<?xml version="1.0" encoding="UTF-8"?>
<!-- Generator: Adobe Illustrator 26.0.1, SVG Export Plug-In . SVG Version: 6.00 Build 0)  -->
<svg xmlns="http://www.w3.org/2000/svg" xmlns:xlink="http://www.w3.org/1999/xlink" version="1.1" id="Capa_1" x="0px" y="0px" viewBox="0 0 24 24" style="enable-background:new 0 0 24 24;" xml:space="preserve" width="512" height="512">
<g>
	<rect y="16.121" width="4.667" height="0.667"/>
	<rect y="14.848" width="4.667" height="0.667"/>
	<rect x="1.333" y="13.576" width="2" height="0.667"/>
	<rect x="1.333" y="12.303" width="2" height="0.667"/>
	<rect x="1.333" y="11.03" width="2" height="0.667"/>
	<rect x="1.333" y="9.758" width="2" height="0.667"/>
	<rect y="8.485" width="4.667" height="0.667"/>
	<rect y="7.212" width="4.667" height="0.667"/>
	<path d="M5.333,15.515h7.113c0.121-0.208,0.211-0.433,0.268-0.667H5.333V15.515z"/>
	<path d="M11.89,12.303H6.667v0.667h5.779C12.3,12.717,12.112,12.492,11.89,12.303z"/>
	<path d="M6.667,11.03v0.667h5.223c0.222-0.189,0.41-0.414,0.556-0.667L6.667,11.03z"/>
	<path d="M12.446,8.485H5.333v0.667h7.381C12.657,8.918,12.567,8.693,12.446,8.485z"/>
	<path d="M10.242,7.212H5.333v0.667h6.626C11.491,7.449,10.878,7.211,10.242,7.212z"/>
	<rect x="6.667" y="9.758" width="2" height="0.667"/>
	<path d="M10.545,10.424h2.153c0.059-0.217,0.089-0.441,0.089-0.667h-2.242V10.424z"/>
	<rect x="6.667" y="13.576" width="2" height="0.667"/>
	<path d="M10.545,13.576v0.667h2.242c0-0.225-0.03-0.449-0.089-0.667H10.545z"/>
	<path d="M5.333,16.781l4.909,0.007c0.636,0.002,1.249-0.236,1.717-0.667H5.333L5.333,16.781z"/>
	<polygon points="18.666,16.788 18.898,16.121 18.435,16.121  "/>
	<polygon points="18.222,15.515 19.111,15.515 19.345,14.848 17.988,14.848  "/>
	<polygon points="17.775,14.242 19.558,14.242 19.792,13.576 17.541,13.576  "/>
	<polygon points="17.329,12.97 20.005,12.97 20.239,12.303 17.095,12.303  "/>
	<polygon points="14.667,10.424 18.268,10.424 18.037,9.758 14.667,9.758  "/>
	<polygon points="19.507,9.151 24,9.151 24,8.485 19.739,8.485  "/>
	<polygon points="20.182,7.212 19.95,7.879 24,7.879 24,7.212  "/>
	<rect x="13.333" y="16.121" width="3.333" height="0.667"/>
	<rect x="13.333" y="14.848" width="3.333" height="0.667"/>
	<rect x="14.667" y="13.576" width="2" height="0.667"/>
	<rect x="14.667" y="12.303" width="2" height="0.667"/>
	<polygon points="22.667,9.758 19.297,9.758 19.065,10.424 22.667,10.424  "/>
	<polygon points="20.667,11.697 22.667,11.697 22.667,11.03 20.667,11.03 20.667,11.03 18.854,11.03 18.667,11.569 18.479,11.03    16.667,11.03 14.667,11.03 14.667,11.697 16.667,11.697 16.667,11.084 16.882,11.697 20.452,11.697 20.667,11.084  "/>
	<rect x="20.667" y="12.303" width="2" height="0.667"/>
	<rect x="20.667" y="13.576" width="2" height="0.667"/>
	<rect x="20.667" y="14.848" width="3.333" height="0.667"/>
	<rect x="20.667" y="16.121" width="3.333" height="0.667"/>
	<polygon points="17.826,9.151 17.594,8.485 13.333,8.485 13.333,9.151  "/>
	<polygon points="17.383,7.879 17.152,7.212 13.333,7.212 13.333,7.879  "/>
</g>















</svg>
