<svg id="Layer_1" height="512" viewBox="0 0 24 24" width="512" xmlns="http://www.w3.org/2000/svg" data-name="Layer 1"><path d="m22.562 8.5a4.994 4.994 0 0 0 -3.562-8.5h-14a4.994 4.994 0 0 0 -3.562 8.5 4.978 4.978 0 0 0 0 7 4.994 4.994 0 0 0 3.562 8.5h14a4.994 4.994 0 0 0 3.562-8.5 4.978 4.978 0 0 0 0-7zm-17.562 5.5a2 2 0 0 1 0-4v.5a1.5 1.5 0 0 0 3 0v-.5h2v.5a1.5 1.5 0 0 0 3 0v-.5h6a2 2 0 0 1 0 4zm0-11v.5a1.5 1.5 0 0 0 3 0v-.5h2v.5a1.5 1.5 0 0 0 3 0v-.5h6a2 2 0 0 1 0 4h-14a2 2 0 0 1 0-4zm14 18h-14a2 2 0 0 1 0-4v.5a1.5 1.5 0 0 0 3 0v-.5h2v.5a1.5 1.5 0 0 0 3 0v-.5h6a2 2 0 0 1 0 4z"/></svg>