<?xml version="1.0" encoding="UTF-8"?>
<!-- Generator: Adobe Illustrator 26.0.1, SVG Export Plug-In . SVG Version: 6.00 Build 0)  -->
<svg xmlns="http://www.w3.org/2000/svg" xmlns:xlink="http://www.w3.org/1999/xlink" version="1.1" id="Capa_1" x="0px" y="0px" viewBox="0 0 24 24" style="enable-background:new 0 0 24 24;" xml:space="preserve" width="512" height="512">
<g>
	<path d="M19.68,19.337L18.412,24C9.428,23.452,0,19.063,0,15.463c0-0.267,0.058-0.577,0.174-1.035   c0.001-0.005,0.002-0.009,0.003-0.014l1.091-4.025c0.789-2.948,5.52-3.874,12-3.051L12,12c-4.483-0.54-8.001-0.263-10.027,0.691   C4.382,15.706,12.096,18.794,19.68,19.337z"/>
	<path d="M24,8.537c0,0.411-0.137,0.925-0.412,1.92l-0.857,3.154c-0.789,2.948-5.52,3.874-12,3.051L12,12   c4.485,0.54,8.003,0.265,10.028-0.689C19.622,8.295,11.906,5.206,4.32,4.663L5.588,0C14.572,0.548,24,4.937,24,8.537z"/>
</g>















</svg>
