<?xml version="1.0" encoding="UTF-8"?>
<svg xmlns="http://www.w3.org/2000/svg" id="Layer_1" data-name="Layer 1" viewBox="0 0 24 24" width="512" height="512"><path d="M24,13c0-5.725-4.581-8.615-8-9.659V0H8V3.336C4.7,4.347,0,7.243,0,13c0,4.706,3.324,7.661,9.226,8.343l-.586.645L10.86,24,12,22.751,13.14,24l2.22-2.016-.586-.645C20.676,20.661,24,17.706,24,13ZM11,4.947V3h2V4.967l.263.384A17.369,17.369,0,0,1,16,14c0,2.319-.822,3.738-2.428,4.261A11.556,11.556,0,0,0,14,15c0-6-2-8-2-8s-2,2-2,8a11.556,11.556,0,0,0,.428,3.261C8.822,17.737,8,16.318,8,14c0-4.354,2.732-8.639,2.759-8.68ZM3,13A6.478,6.478,0,0,1,6.424,7.31,18.418,18.418,0,0,0,5,14a9.415,9.415,0,0,0,.521,3.222A4.544,4.544,0,0,1,3,13Zm15.479,4.221A9.415,9.415,0,0,0,19,14a18.215,18.215,0,0,0-1.367-6.643A6.467,6.467,0,0,1,21,13,4.544,4.544,0,0,1,18.479,17.221Z"/></svg>
