<?xml version="1.0" encoding="UTF-8"?>
<!-- Generator: Adobe Illustrator 25.0.0, SVG Export Plug-In . SVG Version: 6.00 Build 0)  -->
<svg xmlns="http://www.w3.org/2000/svg" xmlns:xlink="http://www.w3.org/1999/xlink" version="1.1" id="Capa_1" x="0px" y="0px" viewBox="0 0 511.904 511.904" style="enable-background:new 0 0 511.904 511.904;" xml:space="preserve" width="512" height="512">
<g>
	<path d="M222.025,417.764c-33.872,35.124-89.034,38.364-126.784,7.445c-22.482-19.465-33.966-48.733-30.72-78.293   c2.811-21.794,12.997-41.97,28.864-57.173l61.355-61.397c12.492-12.496,12.492-32.752,0-45.248l0,0   c-12.496-12.492-32.752-12.492-45.248,0l-60.053,60.075C22.065,269.57,4.802,304.721,0.649,342.521   c-7.757,85.138,54.972,160.445,140.11,168.202c45.721,4.166,90.933-12.179,123.42-44.618l64.171-64.149   c12.492-12.496,12.492-32.752,0-45.248l0,0c-12.496-12.492-32.752-12.492-45.248,0L222.025,417.764z"/>
	<path d="M451.358,31.289C387.651-15.517,299.186-8.179,244.062,48.484L183.667,108.9c-12.492,12.496-12.492,32.752,0,45.248l0,0   c12.496,12.492,32.752,12.492,45.248,0l61.355-61.291c33.132-34.267,86.738-38.127,124.437-8.96   c38.803,31.818,44.466,89.067,12.648,127.87c-1.862,2.271-3.833,4.45-5.907,6.53l-64.171,64.171   c-12.492,12.496-12.492,32.752,0,45.248l0,0c12.496,12.492,32.752,12.492,45.248,0l64.171-64.171   c60.413-60.606,60.257-158.711-0.349-219.124C461.638,39.727,456.631,35.341,451.358,31.289z"/>
	<path d="M183.667,282.525l99.425-99.425c12.497-12.497,32.758-12.497,45.255,0l0,0c12.497,12.497,12.497,32.758,0,45.255   l-99.425,99.425c-12.497,12.497-32.758,12.497-45.255,0l0,0C171.17,315.283,171.17,295.022,183.667,282.525z"/>
</g>















</svg>
