<?xml version="1.0" encoding="UTF-8"?>
<svg xmlns="http://www.w3.org/2000/svg" id="Layer_1" data-name="Layer 1" viewBox="0 0 24 24" width="512" height="512"><path d="M16.974,5.166A5.705,5.705,0,0,0,18,2H15a2.889,2.889,0,0,1-1.5,2.382V0h-3V4.383A2.892,2.892,0,0,1,9,2H6A5.719,5.719,0,0,0,7.008,5.169,8.952,8.952,0,0,0,0,14.029C0,18.736,3.7,24,8.659,24h6.682C20.3,24,24,18.736,24,14.029A8.951,8.951,0,0,0,16.974,5.166ZM15.341,21H8.659C5.472,21,3,17.253,3,14.029A5.86,5.86,0,0,1,8.659,8c.164,0,.325.016.486.031A4.869,4.869,0,0,1,7.136,9.045l.728,2.91A7.643,7.643,0,0,0,12,9.425a7.634,7.634,0,0,0,4.135,2.53l.726-2.91a4.922,4.922,0,0,1-2.022-1.014c.166-.015.331-.031.5-.031A5.86,5.86,0,0,1,21,14.029C21,17.253,18.528,21,15.341,21Z"/></svg>
