<?xml version="1.0" encoding="UTF-8"?>
<svg xmlns="http://www.w3.org/2000/svg" id="Layer_1" data-name="Layer 1" viewBox="0 0 24 24" width="512" height="512"><path d="M16.728,18.806a1.731,1.731,0,0,1,.109,1.67l-1.616,3.465L12.5,22.674,13.282,21h-.541a1.739,1.739,0,0,1-1.555-2.521l1.824-3.65,2.683,1.342L14.779,18h.481A1.734,1.734,0,0,1,16.728,18.806Zm2.535-5.753a5.762,5.762,0,0,0-11.226,1.04A5,5,0,0,0,9,24V21a2,2,0,0,1,0-4h2V14.75A2.752,2.752,0,0,1,13.75,12,2.723,2.723,0,0,1,16.5,14.57L16.568,16H18.5a2.491,2.491,0,0,1,.5,4.934v3.041a5.5,5.5,0,0,0,.263-10.922Zm-13.05-.134c.037-.13.072-.251.109-.387a7.666,7.666,0,0,1,.89-1.911A2.475,2.475,0,0,1,6,8.5a2.488,2.488,0,0,1,4.813-.9A7.707,7.707,0,0,1,13.745,7c0-.06,0-.114-.01-.182a5.532,5.532,0,0,0-.435-1L15.571,3.55,13.45,1.429,11.18,3.7A5.472,5.472,0,0,0,10,3.208V0H7V3.208A5.472,5.472,0,0,0,5.82,3.7L3.551,1.429,1.429,3.55,3.7,5.82A5.493,5.493,0,0,0,3.208,7H0v3H3.216a5.508,5.508,0,0,0,.494,1.168L1.429,13.45l2.122,2.121Z"/></svg>
