<?xml version="1.0" encoding="UTF-8"?>
<!-- Generator: Adobe Illustrator 26.0.1, SVG Export Plug-In . SVG Version: 6.00 Build 0)  -->
<svg xmlns="http://www.w3.org/2000/svg" xmlns:xlink="http://www.w3.org/1999/xlink" version="1.1" id="Capa_1" x="0px" y="0px" viewBox="0 0 24 24" style="enable-background:new 0 0 24 24;" xml:space="preserve" width="512" height="512">
<g>
	<polygon points="7.757,8.144 9.046,12.314 6.502,12.314  "/>
	<path d="M19.75,0.3H4.25C1.903,0.3,0,2.203,0,4.55v14.9c0,2.347,1.903,4.25,4.25,4.25h15.5c2.347,0,4.25-1.903,4.25-4.25V4.55   C24,2.203,22.097,0.3,19.75,0.3z M12.717,16.8h-2.093c-0.075,0.008-0.143-0.04-0.161-0.113L9.641,14.3H5.922l-0.757,2.355   c-0.021,0.089-0.102,0.149-0.193,0.145H3.089c-0.108,0-0.145-0.059-0.113-0.177l3.22-9.235c0.032-0.097,0.065-0.191,0.097-0.314   C6.335,6.859,6.356,6.64,6.357,6.421c-0.008-0.055,0.03-0.105,0.084-0.113c0.009-0.001,0.019-0.001,0.028,0h2.56   c0.075,0,0.118,0.027,0.128,0.081l3.655,10.25C12.845,16.746,12.813,16.8,12.717,16.8z M20.565,12.814   c-0.016,0.193-0.03,0.333-0.04,0.419c-0.008,0.074-0.071,0.129-0.145,0.129c-0.064,0-0.174,0.008-0.33,0.024   c-0.156,0.016-0.349,0.027-0.58,0.032c-0.231,0.006-0.475-0.034-0.732-0.034h-3.172c0.039,0.314,0.143,0.616,0.306,0.887   c0.18,0.269,0.434,0.478,0.732,0.604c0.404,0.175,0.84,0.26,1.28,0.251c0.349-0.007,0.696-0.045,1.039-0.114   c0.306-0.041,0.605-0.12,0.893-0.232c0.053-0.043,0.081-0.016,0.081,0.08v1.53c0.003,0.042-0.006,0.083-0.024,0.121   c-0.018,0.029-0.043,0.054-0.072,0.072c-0.319,0.141-0.654,0.241-0.998,0.297c-0.467,0.088-0.941,0.128-1.417,0.121   c-1.203,0-2.382-0.349-3.172-1.304c-0.622-0.753-0.902-1.793-0.902-2.769c0-1.059,0.319-2.131,0.998-2.954   c0.736-0.891,1.749-1.263,2.882-1.263c0.973,0,1.981,0.327,2.608,1.103c0.527,0.651,0.789,1.528,0.789,2.359   C20.59,12.406,20.581,12.62,20.565,12.814z M17.112,10.447c-0.553-0.034-1.075,0.263-1.328,0.756   c-0.111,0.224-0.184,0.465-0.217,0.713h2.109c0.258,0,0.448-0.002,0.572-0.008c0.082-0.008,0.162-0.035,0.233-0.077v-0.097   c-0.003-0.126-0.025-0.251-0.064-0.37C18.238,10.8,17.704,10.424,17.112,10.447z"/>
</g>















</svg>
