<?xml version="1.0" encoding="UTF-8"?>
<!-- Generator: Adobe Illustrator 26.0.1, SVG Export Plug-In . SVG Version: 6.00 Build 0)  -->
<svg xmlns="http://www.w3.org/2000/svg" xmlns:xlink="http://www.w3.org/1999/xlink" version="1.1" id="Capa_1" x="0px" y="0px" viewBox="0 0 24 24" style="enable-background:new 0 0 24 24;" xml:space="preserve" width="512" height="512">
<g>
	<path style="fill-rule:evenodd;clip-rule:evenodd;" d="M9.507,16.061l-0.002-0.004c0.036-0.019,0.073-0.039,0.11-0.06   c0.174,0.645,0.155,1.248-0.025,1.793c-0.02,0.06-0.042,0.12-0.066,0.18c-0.024,0.059-0.05,0.118-0.077,0.175   c-0.139,0.288-0.326,0.559-0.555,0.808c-0.697,0.76-1.671,1.048-2.089,0.806c-0.451-0.262-0.225-1.334,0.583-2.189   C8.256,16.652,9.507,16.061,9.507,16.061z"/>
	<path style="fill-rule:evenodd;clip-rule:evenodd;" d="M12,0C5.373,0,0,5.373,0,12s5.373,12,12,12s12-5.373,12-12S18.627,0,12,0z    M15.913,10.64c-2.08,0.805-3.801,0.677-4.507,0.446c-0.803-0.264-1.275-0.794-1.389-1.093c-0.045-0.117-0.123-0.314,0-0.382   c0.075-0.042,0.105-0.032,0.308,0.191c0.192,0.211,0.963,0.78,2.429,0.615c3.845-0.431,6.161-3.419,5.43-5.026   c-0.512-1.125-3.477-1.633-7.179,0.212c-4.52,2.252-4.765,4.109-4.804,4.814c-0.106,1.94,2.394,2.961,3.746,4.403   c0.032,0.034,0.063,0.068,0.093,0.103c0.409-0.152,0.976-0.238,1.877-0.254c2.187-0.038,3.423,1.404,3.372,2.693   c-0.04,1.015-0.972,1.434-1.145,1.463c-0.126,0.022-0.195,0.025-0.212-0.074c-0.012-0.068,0.033-0.099,0.18-0.191   c0.148-0.091,0.589-0.394,0.668-0.944c0.079-0.55-0.334-1.864-2.439-2.11c-0.746-0.087-1.333-0.028-1.837,0.105   c0.365,0.804,0.435,2.423-0.405,3.675c-0.87,1.298-2.49,2.088-4.068,1.649c-0.51-0.142-1.279-1.194-0.615-2.662   c0.629-1.391,3.317-2.751,3.684-2.932v-0.006c-1.245-1.072-4.275-2.518-4.703-4.729C4.275,9.982,4.569,8.482,6.411,6.759   C7.96,5.31,10.115,4.2,12.105,3.493c3.345-1.188,6.878-0.487,7.422,1.643C20.062,7.232,18.242,9.739,15.913,10.64z"/>
</g>















</svg>
