<?xml version="1.0" encoding="UTF-8"?>
<!-- Generator: Adobe Illustrator 25.0.0, SVG Export Plug-In . SVG Version: 6.00 Build 0)  -->
<svg xmlns="http://www.w3.org/2000/svg" xmlns:xlink="http://www.w3.org/1999/xlink" version="1.1" id="Capa_1" x="0px" y="0px" viewBox="0 0 512 512" style="enable-background:new 0 0 512 512;" xml:space="preserve" width="512" height="512">
<g>
	<path d="M117.333,234.667C52.532,234.667,0,182.135,0,117.333S52.532,0,117.333,0s117.333,52.532,117.333,117.333   C234.596,182.106,182.106,234.596,117.333,234.667z M117.333,64C87.878,64,64,87.878,64,117.333s23.878,53.333,53.333,53.333   s53.333-23.878,53.333-53.333S146.789,64,117.333,64z"/>
	<path d="M394.667,234.667c-64.801,0-117.333-52.532-117.333-117.333S329.865,0,394.667,0S512,52.532,512,117.333   C511.929,182.106,459.439,234.596,394.667,234.667z M394.667,64c-29.455,0-53.333,23.878-53.333,53.333   s23.878,53.333,53.333,53.333S448,146.789,448,117.333S424.122,64,394.667,64z"/>
	<path d="M117.333,512C52.532,512,0,459.468,0,394.667s52.532-117.333,117.333-117.333s117.333,52.532,117.333,117.333   C234.596,459.439,182.106,511.929,117.333,512z M117.333,341.333C87.878,341.333,64,365.211,64,394.667S87.878,448,117.333,448   s53.333-23.878,53.333-53.333S146.789,341.333,117.333,341.333z"/>
	<path d="M394.667,512c-64.801,0-117.333-52.532-117.333-117.333s52.532-117.333,117.333-117.333S512,329.865,512,394.667   C511.929,459.439,459.439,511.929,394.667,512z M394.667,341.333c-29.455,0-53.333,23.878-53.333,53.333S365.211,448,394.667,448   S448,424.122,448,394.667S424.122,341.333,394.667,341.333z"/>
</g>















</svg>
