<?xml version="1.0" encoding="UTF-8"?>
<!-- Generator: Adobe Illustrator 26.0.1, SVG Export Plug-In . SVG Version: 6.00 Build 0)  -->
<svg xmlns="http://www.w3.org/2000/svg" xmlns:xlink="http://www.w3.org/1999/xlink" version="1.1" id="Capa_1" x="0px" y="0px" viewBox="0 0 24 24" style="enable-background:new 0 0 24 24;" xml:space="preserve" width="512" height="512">
<g>
	<path style="fill-rule:evenodd;clip-rule:evenodd;" d="M9.727,10.093c-0.526-0.526-1.216-0.789-1.905-0.79H7.819   c-0.69,0-1.379,0.264-1.905,0.79c-1.053,1.053-1.053,2.761,0,3.814c1.053,1.053,2.761,1.053,3.814,0   C10.78,12.854,10.78,11.146,9.727,10.093z M8.964,13.144c-0.632,0.632-1.656,0.632-2.288,0c-0.632-0.632-0.632-1.656,0-2.288   c0.632-0.632,1.656-0.632,2.288,0C9.596,11.488,9.596,12.512,8.964,13.144z"/>
	<path style="fill-rule:evenodd;clip-rule:evenodd;" d="M15.39,10.093c-0.526-0.526-1.216-0.789-1.909-0.79   c-0.69,0-1.379,0.264-1.905,0.79c-1.053,1.053-1.053,2.761,0,3.814c1.053,1.053,2.761,1.053,3.814,0   C16.443,12.854,16.443,11.146,15.39,10.093z M14.627,13.144c-0.632,0.632-1.656,0.632-2.288,0c-0.632-0.632-0.632-1.656,0-2.288   c0.632-0.632,1.656-0.632,2.288,0C15.259,11.488,15.259,12.512,14.627,13.144z"/>
	<path style="fill-rule:evenodd;clip-rule:evenodd;" d="M1.079,14.683l0.27,0.013h4.045L5.38,14.427   c-0.036-0.444-0.35-0.768-0.796-0.796l-0.27-0.013H1.888l3.236-3.236L5.11,10.113C5.089,9.665,4.761,9.34,4.315,9.317l-0.27-0.013   L0,9.303l0.013,0.269c0.035,0.439,0.354,0.77,0.795,0.796l0.27,0.013h2.427L0.27,13.618l0.013,0.269   C0.31,14.332,0.631,14.654,1.079,14.683z"/>
	<path style="fill-rule:evenodd;clip-rule:evenodd;" d="M19.54,10.92c0.092,0.159,0.121,0.338,0.132,0.541l0.013,0.27v1.888   l0.013,0.269c0.027,0.441,0.351,0.768,0.796,0.796l0.269,0.013V11.73l0.013-0.27c0.011-0.2,0.04-0.384,0.133-0.543   c0.187-0.32,0.534-0.536,0.932-0.536c0.399,0,0.748,0.217,0.934,0.539c0.092,0.159,0.12,0.342,0.131,0.54l0.013,0.269v1.888   l0.013,0.269c0.028,0.444,0.35,0.77,0.796,0.796L24,14.697v-2.964v-0.272c0-1.191-0.966-2.157-2.157-2.157   c-0.644,0-1.223,0.282-1.618,0.73c-0.395-0.448-0.974-0.73-1.618-0.73c-0.448,0-0.863,0.136-1.208,0.37   c-0.21-0.233-0.679-0.37-0.949-0.37v5.393l0.27-0.013c0.45-0.03,0.778-0.348,0.796-0.795l0.013-0.27V11.73l0.013-0.27   c0.011-0.203,0.04-0.383,0.132-0.542c0.187-0.321,0.535-0.537,0.933-0.537C19.005,10.382,19.353,10.598,19.54,10.92z"/>
</g>















</svg>
