<svg id="Layer_1" height="512" viewBox="0 0 24 24" width="512" xmlns="http://www.w3.org/2000/svg" data-name="Layer 1"><path d="m20.491 3.509a11.995 11.995 0 1 0 0 16.971 12.014 12.014 0 0 0 0-16.971zm.275 6.476a7.086 7.086 0 0 1 -6.752-6.752 8.92 8.92 0 0 1 6.752 6.752zm-17.521 4.015a7.088 7.088 0 0 1 6.755 6.755 8.917 8.917 0 0 1 -6.755-6.755zm15.125 4.359a8.958 8.958 0 0 1 -5.38 2.573 10.04 10.04 0 0 0 -9.922-9.922 8.959 8.959 0 0 1 7.953-7.953 10.058 10.058 0 0 0 9.921 9.931 8.956 8.956 0 0 1 -2.572 5.371z"/></svg>