<?xml version="1.0" encoding="UTF-8"?>
<svg xmlns="http://www.w3.org/2000/svg" id="Layer_1" data-name="Layer 1" viewBox="0 0 24 24" width="512" height="512"><path d="M15.942,23.942C8.791,23.942,0,15.152,0,8A6.055,6.055,0,0,1,1.766,3.677L5.41.033l6.642,6.641L9.089,9.637A10.69,10.69,0,0,0,14.3,14.864l2.974-2.973,6.641,6.641-3.645,3.646A6.061,6.061,0,0,1,15.942,23.942ZM5.41,4.275,3.886,5.8A3.076,3.076,0,0,0,3,8c0,5.875,7.949,12.942,12.942,12.942a3.079,3.079,0,0,0,2.2-.885l1.525-1.525-2.4-2.4-2.255,2.255-.909-.346A13.936,13.936,0,0,1,5.911,9.861l-.369-.919L7.81,6.674ZM23,0H20V8h3ZM18,0H15V8h3Z"/></svg>
