<svg id="Layer_1" height="512" viewBox="0 0 24 24" width="512" xmlns="http://www.w3.org/2000/svg" data-name="Layer 1"><path d="m6.5 16a1.5 1.5 0 1 1 -1.5 1.5 1.5 1.5 0 0 1 1.5-1.5zm3 7.861a7.939 7.939 0 0 0 6.065-5.261 7.8 7.8 0 0 0 .32-3.85l.681-.689a1.5 1.5 0 0 0 .434-1.061v-2h.5a2.5 2.5 0 0 0 2.5-2.5v-.5h1.251a2.512 2.512 0 0 0 2.307-1.52 5.323 5.323 0 0 0 .416-2.635 4.317 4.317 0 0 0 -4.345-3.845 5.467 5.467 0 0 0 -3.891 1.612l-6.5 6.5a7.776 7.776 0 0 0 -3.84.326 8 8 0 0 0 2.627 15.562 8.131 8.131 0 0 0 1.475-.139zm-.185-12.661a1.5 1.5 0 0 0 1.463-.385l7.081-7.08a2.487 2.487 0 0 1 1.77-.735 1.342 1.342 0 0 1 1.36 1.149 2.2 2.2 0 0 1 -.08.851h-1.409a2.5 2.5 0 0 0 -2.5 2.5v.5h-.5a2.5 2.5 0 0 0 -2.5 2.5v1.884l-.822.831a1.5 1.5 0 0 0 -.378 1.459 4.923 4.923 0 0 1 -.074 2.955 5 5 0 1 1 -6.36-6.352 4.9 4.9 0 0 1 1.592-.268 5.053 5.053 0 0 1 1.357.191z"/></svg>