<?xml version="1.0" encoding="UTF-8"?>
<!-- Generator: Adobe Illustrator 26.0.1, SVG Export Plug-In . SVG Version: 6.00 Build 0)  -->
<svg xmlns="http://www.w3.org/2000/svg" xmlns:xlink="http://www.w3.org/1999/xlink" version="1.1" id="Capa_1" x="0px" y="0px" viewBox="0 0 24 24" style="enable-background:new 0 0 24 24;" xml:space="preserve" width="512" height="512">
<g>
	<g>
		<path d="M10.739,8.947C10.191,9.2,9.685,9.52,9.214,9.897c-0.552,0.442-1.029,0.951-1.403,1.555    c-0.428,0.691-0.655,1.444-0.686,2.253c-0.018,0.484,0.049,0.962,0.168,1.431c0.172,0.675,0.455,1.303,0.799,1.907    c0.033,0.058,0.074,0.05,0.115,0.031c0.119-0.056,0.235-0.118,0.357-0.18c-0.018-0.032-0.029-0.051-0.039-0.07    c-0.164-0.287-0.344-0.565-0.489-0.861c-0.394-0.805-0.599-1.651-0.52-2.555c0.029-0.33,0.088-0.652,0.192-0.966    c0.371-1.126,1.09-2.003,1.987-2.749c0.35-0.291,0.723-0.549,1.119-0.779C10.789,8.925,10.764,8.935,10.739,8.947z M10.739,8.947    C10.191,9.2,9.685,9.52,9.214,9.897c-0.552,0.442-1.029,0.951-1.403,1.555c-0.428,0.691-0.655,1.444-0.686,2.253    c-0.018,0.484,0.049,0.962,0.168,1.431c0.172,0.675,0.455,1.303,0.799,1.907c0.033,0.058,0.074,0.05,0.115,0.031    c0.119-0.056,0.235-0.118,0.357-0.18c-0.018-0.032-0.029-0.051-0.039-0.07c-0.164-0.287-0.344-0.565-0.489-0.861    c-0.394-0.805-0.599-1.651-0.52-2.555c0.029-0.33,0.088-0.652,0.192-0.966c0.371-1.126,1.09-2.003,1.987-2.749    c0.35-0.291,0.723-0.549,1.119-0.779C10.789,8.925,10.764,8.935,10.739,8.947z M10.739,8.947C10.191,9.2,9.685,9.52,9.214,9.897    c-0.552,0.442-1.029,0.951-1.403,1.555c-0.428,0.691-0.655,1.444-0.686,2.253c-0.018,0.484,0.049,0.962,0.168,1.431    c0.172,0.675,0.455,1.303,0.799,1.907c0.033,0.058,0.074,0.05,0.115,0.031c0.119-0.056,0.235-0.118,0.357-0.18    c-0.018-0.032-0.029-0.051-0.039-0.07c-0.164-0.287-0.344-0.565-0.489-0.861c-0.394-0.805-0.599-1.651-0.52-2.555    c0.029-0.33,0.088-0.652,0.192-0.966c0.371-1.126,1.09-2.003,1.987-2.749c0.35-0.291,0.723-0.549,1.119-0.779    C10.789,8.925,10.764,8.935,10.739,8.947z M10.739,8.947C10.191,9.2,9.685,9.52,9.214,9.897c-0.552,0.442-1.029,0.951-1.403,1.555    c-0.428,0.691-0.655,1.444-0.686,2.253c-0.018,0.484,0.049,0.962,0.168,1.431c0.172,0.675,0.455,1.303,0.799,1.907    c0.033,0.058,0.074,0.05,0.115,0.031c0.119-0.056,0.235-0.118,0.357-0.18c-0.018-0.032-0.029-0.051-0.039-0.07    c-0.164-0.287-0.344-0.565-0.489-0.861c-0.394-0.805-0.599-1.651-0.52-2.555c0.029-0.33,0.088-0.652,0.192-0.966    c0.371-1.126,1.09-2.003,1.987-2.749c0.35-0.291,0.723-0.549,1.119-0.779C10.789,8.925,10.764,8.935,10.739,8.947z M12.833,0.029    C6.222-0.431,0.49,4.556,0.029,11.167c-0.46,6.611,4.526,12.344,11.137,12.804c6.611,0.46,12.344-4.526,12.804-11.137    C24.431,6.222,19.444,0.49,12.833,0.029z M13.876,3.14c0.426,0,0.846,0.027,1.257,0.079l-2.477,4.607    c-0.026,0.05-0.056,0.07-0.113,0.067c-1.187-0.079-2.017,0.235-2.157,0.266l1.283-4.775C12.38,3.225,13.119,3.14,13.876,3.14z     M10.199,14.171c0.079,0.345,0.147,0.693,0.22,1.04c0.003,0.014,0.009,0.027,0.017,0.048c0.206-0.041,0.408-0.081,0.621-0.123    c0.412,0.864,0.823,1.728,1.241,2.606c-0.148-0.02-0.282-0.041-0.417-0.057c-0.285-0.032-0.57-0.068-0.856-0.091    c-0.252-0.02-0.506-0.037-0.758-0.031c-0.454,0.01-0.907,0.038-1.34,0.192c-0.242,0.086-0.46,0.208-0.621,0.431    c-0.109-0.107-0.219-0.208-0.32-0.316c-0.418-0.446-0.755-0.947-1.013-1.502c-0.231-0.499-0.385-1.023-0.47-1.566    c-0.066-0.424-0.086-0.852-0.051-1.279c0.088-1.066,0.432-2.043,1.052-2.917c0.538-0.759,1.218-1.359,2.039-1.798    c0.556-0.297,1.145-0.496,1.766-0.602c0.413-0.071,0.83-0.093,1.246-0.066c0.807,0.053,1.561,0.297,2.274,0.676    c0.457,0.242,0.878,0.536,1.271,0.871c0.067,0.057,0.129,0.118,0.201,0.184l-1.383,0.949c-1.241,0.848-2.482,1.696-3.723,2.544    c-0.309,0.211-0.615,0.425-0.925,0.633C10.202,14.044,10.179,14.084,10.199,14.171z M7.64,5.313    c0.914-0.723,1.955-1.291,3.082-1.665L9.924,8.271c-0.01,0.066-0.051,0.076-0.092,0.093C8.945,8.732,8.226,9.373,7.994,9.6    L7.639,5.318C7.639,5.317,7.639,5.315,7.64,5.313z M5.287,7.951c0.25-0.354,0.492-0.713,0.756-1.056    c0.197-0.254,0.432-0.477,0.651-0.714c0.053-0.057,0.106-0.113,0.174-0.185l0.859,3.817c0.006,0.029-0.005,0.071-0.024,0.093    c-0.372,0.424-0.766,1.048-0.954,1.466L5.181,8.219C5.169,8.196,5.162,8.176,5.162,8.156C5.203,8.087,5.244,8.019,5.287,7.951z     M4.595,9.272C4.612,9.232,4.63,9.193,4.648,9.154c0.007-0.015,0.015-0.029,0.029-0.054L6.548,11.6    c0.037,0.049,0.064,0.091,0.037,0.161c-0.144,0.366-0.271,0.831-0.318,1.205l-2.209-1.953c-0.012-0.012-0.023-0.032-0.027-0.053    C4.171,10.377,4.36,9.812,4.595,9.272z M3.767,13.908c-0.01-0.185-0.015-0.371-0.015-0.558c0-0.502,0.037-0.996,0.106-1.479    l2.283,1.412c0.055,0.034,0.075,0.069,0.072,0.131c-0.009,0.152-0.045,0.857,0.036,1.354l-2.45-0.848    C3.785,13.918,3.775,13.913,3.767,13.908z M4.137,16.144c-0.132-0.467-0.231-0.948-0.296-1.439l2.424,0.503    c0.03,0.007,0.074,0.041,0.078,0.068c0.06,0.28,0.249,0.819,0.257,0.85l-2.455,0.018H4.137z M5.089,18.417    c-0.257-0.45-0.48-0.922-0.666-1.412l2.222-0.53c0.061-0.015,0.096-0.005,0.129,0.054c0.132,0.232,0.158,0.338,0.431,0.76    C6.499,17.665,5.793,18.041,5.089,18.417z M12.905,19.603c-0.199,0.363-0.4,0.724-0.596,1.077    c-0.417-0.071-0.825-0.148-1.234-0.208c-0.314-0.047-0.631-0.082-0.948-0.107c-0.324-0.026-0.648-0.05-0.973-0.049    c-0.544,0-1.083,0.051-1.604,0.225c-0.009,0.003-0.019,0.006-0.044,0.014c0.106-0.246,0.205-0.478,0.305-0.71    c0.191-0.446,0.387-0.891,0.571-1.34c0.063-0.155,0.167-0.257,0.306-0.334c0.237-0.13,0.496-0.193,0.761-0.23    c0.374-0.053,0.751-0.076,1.127-0.044c0.537,0.045,1.072,0.111,1.608,0.171c0.027,0.003,0.064,0.03,0.075,0.054    c0.218,0.469,0.433,0.939,0.647,1.41C12.915,19.552,12.916,19.584,12.905,19.603z M16.003,20.651    c-0.091,0.266-0.282,0.457-0.494,0.629c-0.297,0.24-0.629,0.42-0.982,0.565c-0.073,0.03-0.1,0.016-0.133-0.056l-2.93-6.351    c-0.007-0.015-0.012-0.031-0.019-0.052c0.214-0.041,0.423-0.083,0.633-0.12c0.021-0.004,0.053,0.018,0.071,0.036    c0.304,0.302,0.598,0.615,0.912,0.905c0.264,0.243,0.552,0.461,0.829,0.689c0.396,0.325,0.742,0.698,1.039,1.114    c0.52,0.726,0.896,1.522,1.105,2.392C16.053,20.479,16.03,20.573,16.003,20.651z M17.603,13.416    c0.01,0.057,0.003,0.086-0.067,0.099l-6.881,1.351c-0.008,0.002-0.017,0-0.031-0.001c-0.058-0.206-0.119-0.414-0.172-0.623    c-0.005-0.021,0.016-0.059,0.038-0.079L17,9.695L17.603,13.416z M15.327,8.68c-0.045,0.039-0.08,0.044-0.136,0.018    c-0.366-0.212-1.041-0.562-1.893-0.708l3.123-4.524c1.191,0.312,2.298,0.838,3.277,1.534L15.327,8.68z M9.972,18.164    c-0.358,0.031-0.709,0.094-1.052,0.198c-0.033,0.01-0.067,0.044-0.083,0.075c-0.169,0.345-0.335,0.692-0.501,1.039    c-0.05,0.105-0.099,0.211-0.148,0.316c0.008,0.007,0.015,0.013,0.022,0.019c0.005-0.013,0.007-0.028,0.015-0.038    c0.285-0.4,0.569-0.8,0.857-1.198c0.026-0.036,0.07-0.068,0.113-0.081c0.534-0.164,1.072-0.312,1.645-0.271    c-0.027-0.008-0.054-0.017-0.081-0.022C10.498,18.149,10.237,18.141,9.972,18.164z M10.739,8.947    C10.191,9.2,9.685,9.52,9.214,9.897c-0.552,0.442-1.029,0.951-1.403,1.555c-0.428,0.691-0.655,1.444-0.686,2.253    c-0.018,0.484,0.049,0.962,0.168,1.431c0.172,0.675,0.455,1.303,0.799,1.907c0.033,0.058,0.074,0.05,0.115,0.031    c0.119-0.056,0.235-0.118,0.357-0.18c-0.018-0.032-0.029-0.051-0.039-0.07c-0.164-0.287-0.344-0.565-0.489-0.861    c-0.394-0.805-0.599-1.651-0.52-2.555c0.029-0.33,0.088-0.652,0.192-0.966c0.371-1.126,1.09-2.003,1.987-2.749    c0.35-0.291,0.723-0.549,1.119-0.779C10.789,8.925,10.764,8.935,10.739,8.947z M10.739,8.947C10.191,9.2,9.685,9.52,9.214,9.897    c-0.552,0.442-1.029,0.951-1.403,1.555c-0.428,0.691-0.655,1.444-0.686,2.253c-0.018,0.484,0.049,0.962,0.168,1.431    c0.172,0.675,0.455,1.303,0.799,1.907c0.033,0.058,0.074,0.05,0.115,0.031c0.119-0.056,0.235-0.118,0.357-0.18    c-0.018-0.032-0.029-0.051-0.039-0.07c-0.164-0.287-0.344-0.565-0.489-0.861c-0.394-0.805-0.599-1.651-0.52-2.555    c0.029-0.33,0.088-0.652,0.192-0.966c0.371-1.126,1.09-2.003,1.987-2.749c0.35-0.291,0.723-0.549,1.119-0.779    C10.789,8.925,10.764,8.935,10.739,8.947z M10.739,8.947C10.191,9.2,9.685,9.52,9.214,9.897c-0.552,0.442-1.029,0.951-1.403,1.555    c-0.428,0.691-0.655,1.444-0.686,2.253c-0.018,0.484,0.049,0.962,0.168,1.431c0.172,0.675,0.455,1.303,0.799,1.907    c0.033,0.058,0.074,0.05,0.115,0.031c0.119-0.056,0.235-0.118,0.357-0.18c-0.018-0.032-0.029-0.051-0.039-0.07    c-0.164-0.287-0.344-0.565-0.489-0.861c-0.394-0.805-0.599-1.651-0.52-2.555c0.029-0.33,0.088-0.652,0.192-0.966    c0.371-1.126,1.09-2.003,1.987-2.749c0.35-0.291,0.723-0.549,1.119-0.779C10.789,8.925,10.764,8.935,10.739,8.947z"/>
	</g>
</g>















</svg>
