<?xml version="1.0" encoding="UTF-8"?>
<!-- Generator: Adobe Illustrator 26.0.1, SVG Export Plug-In . SVG Version: 6.00 Build 0)  -->
<svg xmlns="http://www.w3.org/2000/svg" xmlns:xlink="http://www.w3.org/1999/xlink" version="1.1" id="Capa_1" x="0px" y="0px" viewBox="0 0 24 24" style="enable-background:new 0 0 24 24;" xml:space="preserve" width="512" height="512">
<g>
	<path d="M15.197,12.288c-1.091,0.038-1.768,0.238-1.768,0.953c0,0.464,0.376,0.966,1.317,0.966c1.266,0,1.931-0.69,1.931-1.818   v-0.125C16.238,12.263,15.687,12.276,15.197,12.288z M17.881,13.781c0,0.351,0.013,0.69,0.038,1.003h-1.116   c-0.025-0.251-0.038-0.514-0.038-0.752c-0.602,0.74-1.329,0.953-2.32,0.953c-1.492,0-2.282-0.777-2.282-1.693   c0-1.317,1.078-1.768,2.947-1.818c0.514-0.013,1.091-0.013,1.567-0.013v-0.125c0-0.878-0.564-1.241-1.542-1.241   c-0.727,0-1.254,0.301-1.317,0.815h-1.266c0.138-1.292,1.492-1.618,2.683-1.618c1.429,0,2.633,0.514,2.633,2.019v2.47H17.881z"/>
	<path d="M4.79,11.649c-0.05-1.129-0.853-1.542-1.73-1.542c-0.928-0.013-1.68,0.464-1.806,1.542H4.79z M1.229,12.451   c0.063,1.091,0.815,1.743,1.856,1.743c0.715,0,1.354-0.288,1.567-0.928h1.241c-0.251,1.279-1.618,1.718-2.796,1.718   C0.953,14.984,0,13.806,0,12.213c0-1.755,0.978-2.909,3.11-2.909c1.693,0,2.947,0.89,2.947,2.821v0.326H1.229z"/>
	<path d="M9.141,14.157c1.116,0,1.881-0.803,1.881-2.019c0-1.216-0.765-2.019-1.881-2.019c-1.116,0-1.881,0.803-1.881,2.019   C7.26,13.354,8.025,14.157,9.141,14.157z M6.056,7.185H7.26v3.022C7.85,9.505,8.665,9.304,9.467,9.304   c1.342,0,2.834,0.903,2.834,2.859c0,1.63-1.179,2.821-2.846,2.821c-0.878,0-1.693-0.313-2.207-0.928   c0,0.251-0.013,0.502-0.038,0.74H6.019c0.025-0.376,0.038-0.853,0.038-1.241V7.185z"/>
	<path d="M24,9.505l-3.724,7.31h-1.342L20,14.784l-2.796-5.279h1.404l2.056,4.125l2.056-4.125H24z"/>
</g>















</svg>
