<?xml version="1.0" encoding="UTF-8"?>
<svg xmlns="http://www.w3.org/2000/svg" id="Layer_1" data-name="Layer 1" viewBox="0 0 24 24" width="512" height="512"><path d="M18.5,0h-5A5.5,5.5,0,0,0,8.015,5.21a5.5,5.5,0,0,0-4,5A5.506,5.506,0,0,0,0,15.5v3A5.507,5.507,0,0,0,5.5,24h5A5.507,5.507,0,0,0,16,18.5v-.213a5.512,5.512,0,0,0,3.919-4.38A5.162,5.162,0,0,0,24,8.5v-3A5.507,5.507,0,0,0,18.5,0ZM3,15.5A2.5,2.5,0,0,1,5.5,13h5A2.5,2.5,0,0,1,13,15.5v.2l-2.115,2.115a1,1,0,0,1-1.415,0L9,17.335a1,1,0,0,0-1.347-.061l-3.7,3.176A2.488,2.488,0,0,1,3,18.5ZM17,13a2.492,2.492,0,0,1-1.025,2.008A5.506,5.506,0,0,0,10.5,10H7.051A2.5,2.5,0,0,1,9.5,8h5A2.5,2.5,0,0,1,17,10.5Zm4-4.5a2.719,2.719,0,0,1-1,2.226V10.5A5.507,5.507,0,0,0,14.5,5H11.051A2.5,2.5,0,0,1,13.5,3h5A2.5,2.5,0,0,1,21,5.5Zm-17,7A1.5,1.5,0,1,1,5.5,17,1.5,1.5,0,0,1,4,15.5Z"/></svg>
