<?xml version="1.0" encoding="UTF-8"?>
<svg xmlns="http://www.w3.org/2000/svg" id="Layer_1" data-name="Layer 1" viewBox="0 0 24 24" width="512" height="512"><path d="M23.258,4.947a11.019,11.019,0,0,0-9.317-3.911A3.263,3.263,0,0,0,13.3.5,3.344,3.344,0,0,0,10.534.155,15.717,15.717,0,0,0,1.153,8.109,15.939,15.939,0,0,0,.147,10.6,3.318,3.318,0,0,0,.5,13.337a3.227,3.227,0,0,0,.551.651,11.009,11.009,0,0,0,3.907,9.269,3.2,3.2,0,0,0,2.7.677,3.31,3.31,0,0,0,2.3-1.742l3.21-6.275a4.444,4.444,0,0,0,2.762-2.76l6.257-3.209a3.31,3.31,0,0,0,1.741-2.3A3.2,3.2,0,0,0,23.258,4.947ZM3.015,11.484a12.828,12.828,0,0,1,8.42-8.467.347.347,0,0,1,.282.031.274.274,0,0,1,.132.2l1.316,8.2a1.509,1.509,0,0,1-1.713,1.72l-8.2-1.282a.283.283,0,0,1-.2-.136A.308.308,0,0,1,3.015,11.484Zm4.278,9.341a.325.325,0,0,1-.224.169.2.2,0,0,1-.182-.038,7.936,7.936,0,0,1-2.846-5.913l5.75.9ZM20.824,7.279,15.936,9.785l-.925-5.768A7.934,7.934,0,0,1,20.956,6.87a.2.2,0,0,1,.038.183A.327.327,0,0,1,20.824,7.279Z"/></svg>
