<?xml version="1.0" encoding="UTF-8"?>
<svg xmlns="http://www.w3.org/2000/svg" id="Layer_1" data-name="Layer 1" viewBox="0 0 24 24" width="512" height="512"><path d="M21.748,11.168C20.811,9.761,20,8.546,20,7V5h1V2H19.949A2.5,2.5,0,0,0,17.5,0h-3a2.5,2.5,0,0,0-2.449,2H11V5h1V7c0,1.546-.81,2.761-1.748,4.168A10.248,10.248,0,0,0,8,17a12.735,12.735,0,0,0,2.28,6.372l.449.628H21.271l.449-.628A12.735,12.735,0,0,0,24,17,10.248,10.248,0,0,0,21.748,11.168ZM17,5V7a7.614,7.614,0,0,0,.633,3H14.367A7.614,7.614,0,0,0,15,7V5Zm2.678,16H12.322A8.9,8.9,0,0,1,11,17a7.245,7.245,0,0,1,1.637-4h6.726A7.245,7.245,0,0,1,21,17,8.9,8.9,0,0,1,19.678,21ZM16,18.5A1.5,1.5,0,1,1,14.5,17,1.5,1.5,0,0,1,16,18.5Zm3-3A1.5,1.5,0,1,1,17.5,14,1.5,1.5,0,0,1,19,15.5ZM6.8,21a17.013,17.013,0,0,0,1.5,3H2.729l-.449-.628A12.735,12.735,0,0,1,0,17a10.248,10.248,0,0,1,2.252-5.832C3.19,9.761,4,8.546,4,7V5H3V2H4.051A2.5,2.5,0,0,1,6.5,0H9.8s-.035.049-.183.273A4.453,4.453,0,0,0,9,2.5V5H7V7a7.614,7.614,0,0,1-.633,3H8.626a27.9,27.9,0,0,0-1.75,3H4.637A7.245,7.245,0,0,0,3,17a8.9,8.9,0,0,0,1.322,4Z"/></svg>
