<?xml version="1.0" encoding="UTF-8"?>
<svg xmlns="http://www.w3.org/2000/svg" id="Layer_1" data-name="Layer 1" viewBox="0 0 24 24" width="512" height="512"><path d="M20.021,12a5.75,5.75,0,0,0-1.85.309c-.668-2.816-2.16-7.665-5.038-10.984L12.055.081l-1.138,1.19c-3.137,3.276-4.6,8.108-5.23,11A5.847,5.847,0,0,0,3.952,12C2.01,12,0,13.87,0,17a6.887,6.887,0,0,0,6.75,7A6.65,6.65,0,0,0,12,21.39,6.65,6.65,0,0,0,17.25,24,6.887,6.887,0,0,0,24,17C24,13.87,21.977,12,20.021,12ZM11.947,4.732A26.2,26.2,0,0,1,15,12.039c-.181-.017-.358-.039-.551-.039A3.556,3.556,0,0,0,12,13.092,3.592,3.592,0,0,0,9.521,12a5.923,5.923,0,0,0-.7.049A22.5,22.5,0,0,1,11.947,4.732ZM6.75,21A3.886,3.886,0,0,1,3,17c0-1.509.742-2,.952-2a2.906,2.906,0,0,1,1.778.6l1.018.9,1.018-.9A2.787,2.787,0,0,1,9.521,15c.215,0,.979.491.979,2A3.886,3.886,0,0,1,6.75,21Zm10.5,0a3.886,3.886,0,0,1-3.75-4c0-1.509.742-2,.952-2a2.906,2.906,0,0,1,1.778.6l1.018.9,1.018-.9a2.787,2.787,0,0,1,1.755-.6c.215,0,.979.491.979,2A3.886,3.886,0,0,1,17.25,21Z"/></svg>
