<?xml version="1.0" encoding="UTF-8"?>
<svg xmlns="http://www.w3.org/2000/svg" id="Layer_1" data-name="Layer 1" viewBox="0 0 24 24" width="512" height="512"><path d="M24,14a1.994,1.994,0,0,0-1-1.723V10.5A10.512,10.512,0,0,0,12.5,0h-1A10.512,10.512,0,0,0,1,10.5v1.777a2,2,0,0,0,0,3.446V16.5A7.508,7.508,0,0,0,8.5,24h7A7.508,7.508,0,0,0,23,16.5v-.777A1.994,1.994,0,0,0,24,14ZM11.5,3h1A7.508,7.508,0,0,1,20,10.5V12H4V10.5A7.508,7.508,0,0,1,11.5,3Zm4,18h-7A4.505,4.505,0,0,1,4,16.5v-.474c1.592.126,2.172.874,3.784,2.273a2.814,2.814,0,0,0,3.716,0C13.818,16.287,13.87,16,17,16h3v.5A4.505,4.505,0,0,1,15.5,21ZM6,8.5a1.5,1.5,0,0,1,3,0A1.5,1.5,0,0,1,6,8.5Zm4-2a1.5,1.5,0,0,1,3,0A1.5,1.5,0,0,1,10,6.5Z"/></svg>
