<?xml version="1.0" encoding="UTF-8"?>
<svg xmlns="http://www.w3.org/2000/svg" id="Layer_1" data-name="Layer 1" viewBox="0 0 24 24" width="512" height="512"><path d="M22.864,14.923A9.466,9.466,0,0,0,13.5,17.236V15.287a6.621,6.621,0,0,0,5.113-6.436c0-2.432-1.369-5.062-4.068-7.814a3.643,3.643,0,0,0-5.09,0C6.755,3.79,5.386,6.42,5.386,8.851A6.621,6.621,0,0,0,10.5,15.287v1.949a9.469,9.469,0,0,0-9.364-2.313L0,15.206v1.172a6.756,6.756,0,0,0,2.292,5.355c2.557,2.218,6.582,2.345,8.637,2.242h2.133c4.279.376,11.117-1.266,10.938-7.6V15.206ZM4.253,19.463A3.476,3.476,0,0,1,3.136,17.6,6.6,6.6,0,0,1,9.712,21C7.919,20.973,5.612,20.645,4.253,19.463ZM8.386,8.851A7.624,7.624,0,0,1,10.5,4.36V8h3V4.36C20.07,11.751,9.2,15.878,8.386,8.851ZM19.747,19.463c-1.359,1.182-3.667,1.51-5.459,1.538a6.723,6.723,0,0,1,6.576-3.4A3.476,3.476,0,0,1,19.747,19.463Z"/></svg>
