<?xml version="1.0" encoding="UTF-8"?>
<!-- Generator: Adobe Illustrator 26.0.1, SVG Export Plug-In . SVG Version: 6.00 Build 0)  -->
<svg xmlns="http://www.w3.org/2000/svg" xmlns:xlink="http://www.w3.org/1999/xlink" version="1.1" id="Capa_1" x="0px" y="0px" viewBox="0 0 24 24" style="enable-background:new 0 0 24 24;" xml:space="preserve" width="512" height="512">
<path d="M19.896,10.896l-0.173-0.303c0.007-2.175-1.002-3.061-2.179-3.735c0.356-0.094,0.724-0.171,0.824-0.618  c0.612-0.157,0.74-0.44,0.801-0.74c0.16-0.107,0.695-0.406,0.639-0.921c0.3-0.207,0.467-0.472,0.382-0.849  c0.322-0.351,0.407-0.642,0.27-0.91c0.387-0.48,0.215-0.73,0.05-0.982c0.29-0.525,0.034-1.089-0.776-0.994  c-0.322-0.473-1.024-0.366-1.133-0.364c-0.122-0.152-0.282-0.282-0.775-0.219c-0.32-0.285-0.677-0.236-1.046-0.096  c-0.438-0.34-0.728-0.068-1.058,0.036c-0.53-0.171-0.651,0.063-0.912,0.158c-0.578-0.12-0.754,0.142-1.031,0.418l-0.322-0.006  c-0.872,0.506-1.305,1.537-1.459,2.066c-0.154-0.53-0.586-1.56-1.457-2.066L10.22,0.778C9.942,0.501,9.766,0.239,9.188,0.36  c-0.26-0.095-0.381-0.329-0.912-0.158C8.059,0.134,7.86-0.007,7.624,0l0,0C7.502,0.004,7.369,0.049,7.219,0.166  C6.85,0.026,6.492-0.023,6.173,0.262C5.679,0.199,5.519,0.329,5.397,0.481c-0.108-0.002-0.811-0.11-1.133,0.364  c-0.81-0.094-1.066,0.469-0.776,0.994c-0.165,0.252-0.337,0.501,0.05,0.982c-0.137,0.268-0.052,0.558,0.27,0.91  C3.724,4.107,3.891,4.373,4.191,4.58C4.135,5.095,4.67,5.394,4.83,5.501c0.061,0.3,0.189,0.583,0.801,0.74  C5.732,6.688,6.1,6.765,6.456,6.859c-1.177,0.674-2.186,1.56-2.179,3.735l-0.172,0.303c-1.349,0.808-2.563,3.406-0.665,5.517  c0.124,0.661,0.332,1.136,0.517,1.661c0.277,2.117,2.084,3.108,2.561,3.225c0.698,0.524,1.442,1.021,2.449,1.37  C9.915,23.633,10.943,24,11.977,24c0.015,0,0.031,0,0.046,0c1.034,0.001,2.062-0.367,3.011-1.331  c1.007-0.348,1.751-0.846,2.449-1.37c0.477-0.117,2.284-1.109,2.561-3.225c0.185-0.525,0.393-1,0.517-1.661  C22.459,14.302,21.245,11.704,19.896,10.896z M18.857,10.525c-0.07,0.876-4.635-3.05-3.847-3.181  C17.149,6.988,18.929,8.24,18.857,10.525z M16.841,14.89c-1.148,0.741-2.802,0.263-3.695-1.068c-0.893-1.331-0.686-3.01,0.462-3.751  c1.148-0.741,2.803-0.263,3.695,1.068C18.196,12.469,17.989,14.149,16.841,14.89z M13.659,1.372c0.04,0.197,0.084,0.321,0.135,0.358  c0.254-0.272,0.461-0.551,0.788-0.812c0.001,0.154-0.078,0.321,0.117,0.443c0.175-0.236,0.412-0.446,0.726-0.624  c-0.151,0.261-0.026,0.34,0.055,0.449c0.24-0.206,0.468-0.414,0.911-0.576c-0.121,0.147-0.29,0.291-0.111,0.461  c0.247-0.154,0.496-0.309,1.083-0.418c-0.132,0.148-0.406,0.295-0.24,0.443c0.31-0.119,0.654-0.205,1.034-0.255  c-0.182,0.15-0.334,0.296-0.185,0.412c0.332-0.102,0.79-0.24,1.237-0.121l-0.283,0.285c-0.031,0.038,0.662,0.03,1.12,0.036  c-0.167,0.232-0.338,0.456-0.437,0.855c0.045,0.046,0.272,0.02,0.486,0c-0.219,0.462-0.6,0.578-0.689,0.776  c0.134,0.101,0.32,0.075,0.523,0.006C19.773,3.413,19.442,3.636,19.18,3.9c0.066,0.047,0.182,0.075,0.455,0.042  c-0.242,0.257-0.534,0.492-0.88,0.703c0.061,0.071,0.272,0.068,0.468,0.073c-0.314,0.307-0.717,0.466-1.096,0.667  c0.189,0.129,0.323,0.099,0.468,0.097c-0.268,0.22-0.722,0.334-1.145,0.467c0.08,0.125,0.161,0.159,0.332,0.194  c-0.447,0.247-1.087,0.134-1.268,0.261c0.044,0.124,0.166,0.205,0.314,0.273c-0.72,0.042-2.688-0.026-3.065-1.516  c0.737-0.809,2.081-1.759,4.394-2.934c-1.799,0.602-3.423,1.405-4.782,2.51C11.778,3.993,12.88,2.117,13.659,1.372z M12.046,6.744  L12.046,6.744c1.133-0.012,2.536,0.833,2.53,1.629c-0.005,0.703-0.985,1.271-2.521,1.261c-1.504-0.018-2.517-0.715-2.514-1.396  C9.544,7.677,10.77,6.711,12.046,6.744z M6.282,6.143c0.172-0.035,0.252-0.069,0.332-0.194C6.192,5.817,5.737,5.702,5.469,5.482  c0.144,0.002,0.279,0.032,0.468-0.097c-0.378-0.201-0.782-0.36-1.096-0.667c0.196-0.005,0.406-0.002,0.468-0.073  C4.963,4.435,4.671,4.2,4.429,3.943C4.703,3.975,4.818,3.947,4.885,3.9C4.623,3.636,4.292,3.413,4.134,3.088  c0.203,0.069,0.389,0.095,0.523-0.006c-0.089-0.198-0.47-0.314-0.689-0.776c0.214,0.02,0.441,0.046,0.486,0  c-0.099-0.398-0.27-0.623-0.437-0.855c0.458-0.007,1.152,0.002,1.12-0.036L4.854,1.13c0.447-0.119,0.905,0.019,1.237,0.121  C6.24,1.135,6.089,0.988,5.907,0.839c0.38,0.05,0.724,0.136,1.034,0.255c0.166-0.148-0.108-0.295-0.24-0.443  c0.587,0.11,0.836,0.264,1.083,0.418C7.963,0.9,7.794,0.756,7.673,0.608c0.443,0.162,0.671,0.37,0.911,0.576  c0.081-0.108,0.207-0.188,0.055-0.449C8.954,0.914,9.19,1.125,9.366,1.36C9.56,1.238,9.482,1.071,9.483,0.918  c0.327,0.262,0.534,0.54,0.788,0.812c0.051-0.037,0.096-0.161,0.135-0.358c0.779,0.745,1.881,2.621,0.283,3.365  C9.33,3.633,7.707,2.83,5.909,2.228c2.312,1.174,3.656,2.124,4.392,2.933C9.924,6.651,7.956,6.719,7.236,6.677  c0.147-0.068,0.27-0.149,0.314-0.273C7.369,6.278,6.729,6.391,6.282,6.143z M9.099,7.277c0.788,0.13-3.777,4.057-3.847,3.181  C5.18,8.173,6.96,6.921,9.099,7.277z M4.252,16.033c-1.109-0.879-1.467-3.453,0.59-4.61C6.082,11.096,5.261,16.475,4.252,16.033z   M8.518,20.632c-0.626,0.372-2.145,0.219-3.225-1.309c-0.728-1.282-0.634-2.587-0.123-2.97c0.765-0.459,1.946,0.161,2.856,1.2  C8.818,18.493,9.179,20.145,8.518,20.632z M7.277,15.024c-1.148-0.741-1.355-2.42-0.462-3.751c0.893-1.331,2.547-1.809,3.695-1.068  c1.148,0.741,1.355,2.42,0.462,3.751C10.079,15.286,8.425,15.765,7.277,15.024z M12.071,23.252c-1.376,0.058-2.726-1.11-2.708-1.516  c-0.021-0.594,1.676-1.058,2.782-1.031c1.113-0.048,2.607,0.353,2.61,0.885C14.773,22.107,13.4,23.274,12.071,23.252z M14.83,17.394  c0.008,1.39-1.226,2.523-2.756,2.53c-1.53,0.007-2.777-1.113-2.785-2.503c0-0.009,0-0.018,0-0.027  c-0.008-1.39,1.226-2.523,2.756-2.53c1.53-0.007,2.777,1.113,2.785,2.503C14.83,17.376,14.83,17.385,14.83,17.394z M18.685,19.397  c-1.186,1.621-2.792,1.684-3.39,1.233c-0.626-0.581-0.148-2.385,0.709-3.375v0c0.981-1.091,2.03-1.804,2.761-1.247  C19.257,16.49,19.546,18.308,18.685,19.397z M19.757,15.967c-1.009,0.441-1.83-4.937-0.59-4.61  C21.224,12.513,20.866,15.088,19.757,15.967z"/>















</svg>
