<?xml version="1.0" encoding="UTF-8"?>
<svg xmlns="http://www.w3.org/2000/svg" id="Layer_1" data-name="Layer 1" viewBox="0 0 24 24" width="512" height="512"><path d="M21.136,10.045a13.717,13.717,0,0,0-2.18.761C18.557,5.009,15.422,0,12,0S5.443,5.009,5.044,10.806a13.717,13.717,0,0,0-2.18-.761L1,9.579V11.5c0,10.064,6.339,12.074,9.7,12.43l1.284.07,1.306-.069C16.653,23.577,23,21.57,23,11.5V9.579ZM4.129,13.664a12.039,12.039,0,0,1,6,7.164C7.626,20.345,4.763,18.666,4.129,13.664ZM12,17.573a15.085,15.085,0,0,0-3.989-4.982c0-.183-.011-.364-.011-.549A15,15,0,0,1,8.543,8H11V5H9.816C10.6,3.715,11.466,3,12,3s1.4.715,2.184,2H13V8h2.457A15,15,0,0,1,16,12.042c0,.185-.006.366-.011.549A15.085,15.085,0,0,0,12,17.573Zm1.867,3.255a12.039,12.039,0,0,1,6-7.164C19.237,18.666,16.374,20.345,13.867,20.828ZM10,10h4v3H10Z"/></svg>
