<?xml version="1.0" encoding="UTF-8"?>
<!-- Generator: Adobe Illustrator 25.0.0, SVG Export Plug-In . SVG Version: 6.00 Build 0)  -->
<svg xmlns="http://www.w3.org/2000/svg" xmlns:xlink="http://www.w3.org/1999/xlink" version="1.1" id="Layer_1" x="0px" y="0px" viewBox="0 0 512 512" style="enable-background:new 0 0 512 512;" xml:space="preserve" width="512" height="512">
<path d="M512,247.467c0.264-26.03-12.818-50.382-34.667-64.533c12.133-34.505,16.61-71.238,13.12-107.648  c-0.336-17.17-8.628-33.211-22.443-43.413C454.78,22,437.709,18.846,421.824,23.339c-33.227,9.468-64.355,25.155-91.733,46.229  c-9.036-17.395-19.549-33.983-31.424-49.579c-18.281-22.975-51.727-26.78-74.702-8.498c-3.145,2.503-5.996,5.354-8.498,8.498  c-12.129,15.92-22.836,32.874-32,50.667c-27.787-21.657-59.503-37.732-93.397-47.339c-15.852-4.464-32.878-1.311-46.08,8.533  C30.167,42.056,21.873,58.107,21.547,75.285c-3.497,36.406,0.966,73.138,13.077,107.648C12.794,197.097-0.269,221.446,0,247.467  c0,105.237,156.587,172.075,213.333,192.832c-6.239,5.646-11.692,12.104-16.213,19.2c-6.699,10.563-6.782,24.022-0.213,34.667  c6.942,11.168,19.192,17.923,32.341,17.835h53.504c13.19,0.076,25.465-6.733,32.384-17.963c6.568-10.644,6.485-24.104-0.213-34.667  c-2.572-4.031-5.484-7.836-8.704-11.371H352c17.673,0,32,14.327,32,32s14.327,32,32,32s32-14.327,32-32  c-0.123-35.834-20.251-68.599-52.16-84.907C454.016,361.216,512,311.467,512,247.467z M366.563,123.739  c0.637-0.953,2.077-2.673,2.077-2.673c17.006-14.477,36.735-25.408,58.027-32.149c2.075,23.223-0.737,46.623-8.256,68.693  c-4.807,6.777-12.221,11.245-20.459,12.331c-8.349,1.228-16.835-1.032-23.467-6.251  C361.265,154.846,357.718,136.959,366.563,123.739z M257.088,71.531c14.6,20.29,25.439,43.037,32,67.157c0,17.673-14.327,32-32,32  c-17.673,0-32-14.327-32-32C231.662,114.572,242.5,91.828,257.088,71.531z M84.663,88.917c21.292,6.742,41.021,17.672,58.027,32.149  c0,0,1.44,1.72,2.077,2.673c8.844,13.22,5.297,31.107-7.923,39.951c-6.632,5.218-15.118,7.479-23.467,6.251  c-8.238-1.085-15.651-5.554-20.459-12.331C85.4,135.541,82.587,112.14,84.663,88.917z M448,247.467  c0,41.28-62.379,83.051-120.619,111.061c6.242-14.066,10.782-28.826,13.525-43.968c2.887-17.438-8.909-33.913-26.347-36.8  c-17.437-2.887-33.913,8.909-36.8,26.347c-4.115,18.771-11.286,36.738-21.227,53.184c-10.023-17.197-17.639-35.687-22.635-54.955  c-3.865-17.249-20.98-28.099-38.229-24.235c-17.249,3.865-28.099,20.98-24.235,38.229c3.473,14.713,8.352,29.058,14.571,42.837  C127.381,331.157,64,289.067,64,247.467c-0.259-6.805,5.047-12.532,11.852-12.791c0.188-0.007,0.376-0.01,0.564-0.009h359.168  c6.81-0.052,12.373,5.426,12.425,12.236C448.01,247.091,448.007,247.279,448,247.467z"/>
</svg>
