<?xml version="1.0" encoding="UTF-8"?>
<svg xmlns="http://www.w3.org/2000/svg" id="Layer_1" data-name="Layer 1" viewBox="0 0 24 24" width="512" height="512"><path d="M23.41,14.537l-1.568-2.349-2.5,1.665L20.913,16.2a.472.472,0,0,1,.03.508.557.557,0,0,1-.51.291H14.508V13.5L9.835,17.762a1,1,0,0,0,0,1.478l4.673,4.26V20h5.925a3.565,3.565,0,0,0,3.154-1.875A3.49,3.49,0,0,0,23.41,14.537Z"/><path d="M11.3,3.265A.558.558,0,0,1,11.778,3a.537.537,0,0,1,.49.25L15.4,7.946,12.5,9.764l6.092,1.7a1,1,0,0,0,1.252-.785L20.97,4.452l-3.028,1.9L14.764,1.588A3.482,3.482,0,0,0,11.736,0,3.555,3.555,0,0,0,8.761,1.664L7.582,3.522,10.115,5.13Z"/><path d="M6.263,11.21,9,13.156,8.236,6.879a1,1,0,0,0-1.205-.856L.852,7.366l2.962,2.1L.543,14.626a3.45,3.45,0,0,0-.1,3.548,3.573,3.573,0,0,0,3.133,1.832L7.006,20,7,17l-3.427.006a.554.554,0,0,1-.5-.284.466.466,0,0,1,.012-.5Z"/></svg>
