<?xml version="1.0" encoding="UTF-8"?>
<svg xmlns="http://www.w3.org/2000/svg" id="Layer_1" data-name="Layer 1" viewBox="0 0 24 24" width="512" height="512"><path d="M22.354,15.381C20.185,13.212,16.437,12,11.993,12c-4.382.02-8.25,1.283-10.347,3.381a5.547,5.547,0,0,0-1.644,4l.077,1.48A3.147,3.147,0,0,0,3.222,24c.065,0,2.452-.309,2.452-.309A3.146,3.146,0,0,0,8.7,20.731l.03-.143A9.037,9.037,0,0,1,11.992,20a9.971,9.971,0,0,1,3.281.6l.028.129a3.146,3.146,0,0,0,3.025,2.96S20.713,24,20.778,24a3.128,3.128,0,0,0,3.141-3.066L24,19.3A5.513,5.513,0,0,0,22.354,15.381Zm-1.433,5.476a.141.141,0,0,1-.1.136l-2.187-.287c-.435-.006-.307-.162-.371-.465l-.222-1.051a1.5,1.5,0,0,0-.879-1.07A13.3,13.3,0,0,0,12.008,17a12.786,12.786,0,0,0-5.195,1.131,1.5,1.5,0,0,0-.855,1.059l-.222,1.051c-.063.3.063.459-.371.465l-2.186.287c-.058-.02-.1-.087-.1-.212L3,19.3a2.534,2.534,0,0,1,.768-1.8c1.5-1.5,4.738-2.486,8.239-2.5s6.666.943,8.225,2.5A2.511,2.511,0,0,1,21,19.225ZM3,5.474V1A1,1,0,0,1,4,0H8.474a1,1,0,0,1,.707,1.707L8.091,2.8,12.5,6.9l5.98-5.5A1.5,1.5,0,0,1,20.516,3.6L14.382,9.246A2.664,2.664,0,0,1,12.5,10H12.5a2.706,2.706,0,0,1-1.921-.8L5.968,4.919,4.707,6.181A1,1,0,0,1,3,5.474Z"/></svg>
