<?xml version="1.0" encoding="UTF-8"?>
<svg xmlns="http://www.w3.org/2000/svg" id="Layer_1" data-name="Layer 1" viewBox="0 0 24 24" width="512" height="512"><path d="M15,15.625a4.25,4.25,0,0,0-8.5,0V16h3v-.375a1.25,1.25,0,0,1,2.5,0c0,.625-1.192,1.519-2.15,2.237C8.28,19.04,6.5,20.375,6.5,22.5A1.5,1.5,0,0,0,8,24h7V21H10.7c.31-.254.645-.5.955-.737C13.22,19.085,15,17.75,15,15.625Z"/><path d="M21,12v5h-.75A1.252,1.252,0,0,1,19,15.75V12H16v3.75A4.255,4.255,0,0,0,20.25,20H21v4h3V12Z"/><path d="M20.471,3.529A11.978,11.978,0,0,0,1.831,18.341l2.192-2.193A8.984,8.984,0,0,1,12,3a9.023,9.023,0,0,1,6.353,2.647L16,8h5.909A1.09,1.09,0,0,0,23,6.909V1Z"/></svg>
