<?xml version="1.0" encoding="UTF-8"?>
<svg xmlns="http://www.w3.org/2000/svg" id="Layer_1" data-name="Layer 1" viewBox="0 0 24 24" width="512" height="512"><path d="M19.9,12.188A32.684,32.684,0,0,0,18.4,5.337c.338-.124.7-.246,1.022-.333a.411.411,0,0,1,.318.019A1.321,1.321,0,0,1,20,6h3a4.083,4.083,0,0,0-1.435-3.355,3.335,3.335,0,0,0-2.918-.54,21.716,21.716,0,0,0-2.762,1.016l-1.309.59.53,1.334c.008.019.318.809.683,2.008l-3.9,3.214L8.621,7H10V4H3V7H4.379l5.182,5.183-.953.784a5.513,5.513,0,1,0,1.918,2.308l6.072-5c.124.639.228,1.3.3,1.966a5.508,5.508,0,1,0,3-.052ZM5.5,20A2.5,2.5,0,1,1,8,17.5,2.5,2.5,0,0,1,5.5,20Zm13,0A2.5,2.5,0,1,1,21,17.5,2.5,2.5,0,0,1,18.5,20Z"/></svg>
