<?xml version="1.0" encoding="UTF-8"?>
<svg xmlns="http://www.w3.org/2000/svg" id="Layer_1" data-name="Layer 1" viewBox="0 0 24 24" width="512" height="512"><path d="M8,22.36a5.706,5.706,0,0,0,7.976.03l3.807-3.537a11.09,11.09,0,0,0,0-15.615,10.967,10.967,0,0,0-15.561,0,11.1,11.1,0,0,0,.042,15.656ZM6.346,5.354a7.967,7.967,0,0,1,11.308,0h0A8.074,8.074,0,0,1,17.7,16.7l-3.8,3.525a2.755,2.755,0,0,1-3.833-.03L6.346,16.737A8.084,8.084,0,0,1,6.346,5.354ZM7,11A1.5,1.5,0,0,1,8.5,9.5h2v-2a1.5,1.5,0,0,1,3,0v2h2a1.5,1.5,0,0,1,0,3h-2v2a1.5,1.5,0,0,1-3,0v-2h-2A1.5,1.5,0,0,1,7,11Z"/></svg>
