<svg id="Layer_1" height="512" viewBox="0 0 24 24" width="512" xmlns="http://www.w3.org/2000/svg" data-name="Layer 1"><path d="m23.009 11.951-1.819-4.091a6.507 6.507 0 0 0 -5.94-3.86h-.458l-.549-2.642a1.793 1.793 0 0 0 -3.479 0l-.554 2.642h-4.71a5.506 5.506 0 0 0 -5.5 5.5v8a3.5 3.5 0 0 0 3 3.45v.05a3 3 0 0 0 6 0h5a3 3 0 0 0 6 0h.5a3.5 3.5 0 0 0 3.5-3.5v-.878a11.424 11.424 0 0 0 -.991-4.671zm-2.009 5.549a.5.5 0 0 1 -.5.5h-17a.5.5 0 0 1 -.5-.5v-8a2.5 2.5 0 0 1 2.5-2.5h9.75a3.459 3.459 0 0 1 .75.091v4.909a2 2 0 0 0 2 2h2.586a8.439 8.439 0 0 1 .414 2.622zm-8-5a1.5 1.5 0 0 1 -1.5 1.5h-.5v.5a1.5 1.5 0 0 1 -3 0v-.5h-.5a1.5 1.5 0 0 1 0-3h.5v-.5a1.5 1.5 0 0 1 3 0v.5h.5a1.5 1.5 0 0 1 1.5 1.5z"/></svg>