<?xml version="1.0" encoding="UTF-8"?>
<svg xmlns="http://www.w3.org/2000/svg" id="Layer_1" data-name="Layer 1" viewBox="0 0 24 24" width="512" height="512"><path d="M14.5,13A1.5,1.5,0,1,1,16,11.5,1.5,1.5,0,0,1,14.5,13Zm7.387-4.933A10.064,10.064,0,0,0,12,0C5.053,0,3,4.582,1.781,7.319A6.978,6.978,0,0,1,.745,9.2,1.5,1.5,0,0,0,1.385,12,17.691,17.691,0,0,0,8.1,10.963a1.5,1.5,0,1,0,1.95-.855,14.163,14.163,0,0,0,3.508-2.547,1.5,1.5,0,0,0-2.122-2.122A12.727,12.727,0,0,1,4.395,8.822l.125-.278C5.681,5.945,7,3,12,3a7.07,7.07,0,0,1,7.049,6.337,1.5,1.5,0,0,0,1.224,1.318.884.884,0,0,1,.727.867.98.98,0,0,1-.292.7.992.992,0,0,1-.7.287h-.011l-.162,0a1.511,1.511,0,0,0-1.538,1A7.178,7.178,0,0,1,12,18a7.629,7.629,0,0,1-6.107-4.057,1.5,1.5,0,1,0-2.786,1.114A9.708,9.708,0,0,0,7,19.416V22.5a1.5,1.5,0,0,0,3,0V20.732A8,8,0,0,0,12,21a8.413,8.413,0,0,0,2-.274V22.5a1.5,1.5,0,0,0,3,0V19.455a10.3,10.3,0,0,0,3.719-4.01A3.99,3.99,0,0,0,24,11.522,3.882,3.882,0,0,0,21.887,8.067Z"/></svg>
