<?xml version="1.0" encoding="UTF-8"?>
<!-- Generator: Adobe Illustrator 24.1.0, SVG Export Plug-In . SVG Version: 6.00 Build 0)  -->
<svg xmlns="http://www.w3.org/2000/svg" xmlns:xlink="http://www.w3.org/1999/xlink" version="1.1" id="Capa_1" x="0px" y="0px" viewBox="0 0 512 512" style="enable-background:new 0 0 512 512;" xml:space="preserve" width="512" height="512">
<g>
	<g id="XMLID_1_">
		<path d="M511.74,305.79c0.43,0.64,0.43,1.84-1,1.86h-19.99c-1.62,0-2.26-0.66-2.9-1.73l-21.29-38.27h-19.35    c-9.58,0-13.12,2.92-13.12,9.36v30.64h-19.24c-1.73,0-2.58-0.86-2.58-2.58V209.9c0-5.06,2.79-7.32,10.22-7.32h44.94    c26.14,0,41.95,6.89,41.95,32.36c0,19.67-9.48,27.42-21.19,30.43L511.74,305.79z M487.34,235.35c0-10.65-3.01-15.92-16.66-15.92    h-36.57v31.83h36.57C484.33,251.26,487.34,246.12,487.34,235.35z"/>
		<path d="M373.5,202.54c0.88,0,1.2,0.45,0.88,1.3l-5.7,14.08c-0.53,1.19-1.28,1.73-2.9,1.73h-59.92v26.34h50    c0.85,0,1.17,0.43,0.85,1.28l-5.48,13.55c-0.53,1.2-1.28,1.73-2.9,1.73h-29.35c-9.58,0-13.12,2.92-13.12,9.36v18.61h67.62    c0.88,0,1.2,0.42,0.88,1.28l-5.7,14.08c-0.53,1.19-1.28,1.73-2.9,1.73h-73.88c-5.69,0-7.85-1.95-7.85-6.26v-91.49    c0-5.06,2.8-7.32,10.22-7.32H373.5z"/>
		<path d="M226.28,252.25c11.82,3.11,17.2,13.76,17.2,26.32c0,20.97-14.83,29.04-35.59,29.04h-55.06c-5.69,0-7.85-1.92-7.85-6.23    v-91.5c0-5.06,2.8-7.32,10.22-7.32h44.76c19.56,0,38.48,3.43,38.48,26.67C238.44,239.23,234.88,247.72,226.28,252.25z     M221.44,276.54c0-9.66-3.43-14.4-15.81-14.4h-25.7c-9.56,0-13.12,2.91-13.12,9.35v19.24h38.82    C218.01,290.73,221.44,286.21,221.44,276.54z M216.41,232.87c0-9.06-3.25-13.44-14.85-13.44h-34.75v26.88h34.75    C213.18,246.31,216.41,241.94,216.41,232.87z"/>
		<path d="M102.78,202.56v62.46c0,32.92-20.97,44.42-51.39,44.42S0,297.92,0,265.02v-59.88c0-1.71,0.85-2.58,2.58-2.58h19.67v61.5    c0,19.67,8.7,27.84,29.14,27.84s29.14-8.17,29.14-27.84v-58.92c0-1.71,0.86-2.58,2.58-2.58H102.78z"/>
	</g>
</g>
</svg>
