<?xml version="1.0" encoding="UTF-8"?>
<!-- Generator: Adobe Illustrator 25.0.0, SVG Export Plug-In . SVG Version: 6.00 Build 0)  -->
<svg xmlns="http://www.w3.org/2000/svg" xmlns:xlink="http://www.w3.org/1999/xlink" version="1.1" id="Capa_1" x="0px" y="0px" viewBox="0 0 512 512" style="enable-background:new 0 0 512 512;" xml:space="preserve" width="512" height="512">
<g>
	<path d="M42.667,0h234.667C300.897,0,320,19.103,320,42.667V192c0,23.564-19.103,42.667-42.667,42.667H42.667   C19.103,234.667,0,215.564,0,192V42.667C0,19.103,19.103,0,42.667,0z"/>
	<path d="M405.333,0h64C492.898,0,512,19.103,512,42.667V192c0,23.564-19.102,42.667-42.667,42.667h-64   c-23.564,0-42.667-19.103-42.667-42.667V42.667C362.667,19.103,381.769,0,405.333,0z"/>
	<path d="M42.667,277.333h64c23.564,0,42.667,19.103,42.667,42.667v149.333c0,23.564-19.103,42.667-42.667,42.667h-64   C19.103,512,0,492.898,0,469.333V320C0,296.436,19.103,277.333,42.667,277.333z"/>
	<path d="M234.667,277.333h234.667C492.898,277.333,512,296.436,512,320v149.333C512,492.898,492.898,512,469.333,512H234.667   C211.103,512,192,492.898,192,469.333V320C192,296.436,211.103,277.333,234.667,277.333z"/>
</g>















</svg>
