<?xml version="1.0" encoding="UTF-8"?>
<!-- Generator: Adobe Illustrator 25.0.0, SVG Export Plug-In . SVG Version: 6.00 Build 0)  -->
<svg xmlns="http://www.w3.org/2000/svg" xmlns:xlink="http://www.w3.org/1999/xlink" version="1.1" id="Layer_1" x="0px" y="0px" viewBox="0 0 512 512" style="enable-background:new 0 0 512 512;" xml:space="preserve" width="512" height="512">
<path d="M454.677,172.907c-21.585-52.619-63.262-94.458-115.797-116.245C330.631,23.462,300.876,0.115,266.667,0h-21.333  c-34.209,0.115-63.964,23.462-72.213,56.661c-52.535,21.788-94.213,63.626-115.797,116.245C23.783,180.916,0.091,210.851,0,245.333  v96h58.859c22.211,51.208,63.55,91.712,115.2,112.875L154.389,512h62.059l14.72-43.264c8.24,1,16.531,1.527,24.832,1.579  c8.809-0.054,17.607-0.639,26.347-1.749L296.064,512h61.547l-19.669-57.771c51.659-21.16,93.001-61.675,115.2-112.896H512v-96  C511.909,210.851,488.217,180.916,454.677,172.907z M448,245.333v32h-42.667v-32c0-5.891,4.776-10.667,10.667-10.667h21.333  C443.224,234.667,448,239.442,448,245.333z M234.667,106.667v-32c0-5.891,4.776-10.667,10.667-10.667h21.333  c5.891,0,10.667,4.776,10.667,10.667v32H234.667z M64,245.333c0-5.891,4.776-10.667,10.667-10.667H96  c5.891,0,10.667,4.776,10.667,10.667v32H64V245.333z M317.141,393.067l-40.939-120.363c-3.785-11.158-15.898-17.134-27.056-13.35  c-6.284,2.132-11.218,7.066-13.35,13.35l-40.939,120.341c-25.372-11.089-47.177-28.987-62.997-51.712h38.805v-96  c-0.062-29.412-17.385-56.049-44.245-68.032c11.268-18.577,26.348-34.551,44.245-46.869v40.235h170.667v-40.235  c17.904,12.337,32.985,28.334,44.245,46.933c-26.84,11.974-44.159,38.579-44.245,67.968v96h38.848  C364.351,364.071,342.531,381.978,317.141,393.067z"/>
</svg>
