<?xml version="1.0" encoding="UTF-8"?>
<svg xmlns="http://www.w3.org/2000/svg" id="Layer_1" data-name="Layer 1" viewBox="0 0 24 24" width="512" height="512"><path d="M18.5,24H13.034A13.5,13.5,0,0,1,3,19.789a11.467,11.467,0,0,1-2.947-8.9A12.024,12.024,0,0,1,9.908.188a11.641,11.641,0,0,1,9.654,2.569A12.448,12.448,0,0,1,24,12.324V18.5A5.507,5.507,0,0,1,18.5,24ZM12.03,3a9.021,9.021,0,0,0-8.988,8.164,8.509,8.509,0,0,0,2.18,6.605A10.5,10.5,0,0,0,13.034,21H18.5A2.5,2.5,0,0,0,21,18.5V12.324a9.466,9.466,0,0,0-3.366-7.27A8.637,8.637,0,0,0,12.03,3ZM10.5,17a2.5,2.5,0,0,1-1.771-.732L5.956,13.577a1.5,1.5,0,0,1,2.088-2.154L10.5,13.8l5.45-5.369a1.5,1.5,0,1,1,2.106,2.136L12.26,16.275A2.476,2.476,0,0,1,10.5,17Z"/></svg>
