<svg id="Layer_1" height="512" viewBox="0 0 24 24" width="512" xmlns="http://www.w3.org/2000/svg" data-name="Layer 1"><path d="m13 0c-6.271 0-11 4.084-11 9.5a8.737 8.737 0 0 0 .168 1.668 3.985 3.985 0 0 0 -.853 4.368 6.6 6.6 0 0 0 -1.315 3.964 4.373 4.373 0 0 0 4.5 4.5l.018-3a1.378 1.378 0 0 1 -1.518-1.5 3.649 3.649 0 0 1 .565-1.95 14.443 14.443 0 0 0 4.033.463c.134 0 .259-.009.393-.011a12.765 12.765 0 0 0 5.009.998c6.271 0 11-4.084 11-9.5s-4.729-9.5-11-9.5zm0 16a10.253 10.253 0 0 1 -2.581-.324 18.874 18.874 0 0 0 -2.613-4.508 3.969 3.969 0 0 0 -2.777-1.126c-.017-.179-.029-.36-.029-.542 0-3.706 3.439-6.5 8-6.5s8 2.794 8 6.5-3.439 6.5-8 6.5z"/></svg>