<?xml version="1.0" encoding="UTF-8"?>
<svg xmlns="http://www.w3.org/2000/svg" id="Layer_1" data-name="Layer 1" viewBox="0 0 24 24" width="512" height="512"><path d="M23.868,5.312A2.5,2.5,0,0,0,21.5,2H18.949A1.512,1.512,0,1,0,16,1.5a.5.5,0,0,1-.5.5h-7A.5.5,0,0,1,8,1.5,1.512,1.512,0,1,0,5.051,2H2.5A2.5,2.5,0,0,0,.132,5.312a8.654,8.654,0,0,0,1.66,3.077L5.031,21.806A2.492,2.492,0,0,0,7.5,24h9a2.492,2.492,0,0,0,2.469-2.194L22.208,8.389A8.654,8.654,0,0,0,23.868,5.312ZM16.559,19.006,13.5,19V14.5a4.454,4.454,0,0,1,1.047-2.85,1.5,1.5,0,0,0,2.4-1.514A4.48,4.48,0,0,1,18,10s.656-.01.736-.013Zm-9.118,0L5.264,9.987C5.344,9.99,6,10,6,10a4.48,4.48,0,0,1,1.049.136,1.5,1.5,0,0,0,2.4,1.514A4.454,4.454,0,0,1,10.5,14.5V19ZM16.534,5a18.727,18.727,0,0,1,2.421,1.956C18.808,6.983,18,7,18,7a7.5,7.5,0,0,0-6,3.005A7.5,7.5,0,0,0,6,7s-.808-.017-.955-.044A18.769,18.769,0,0,1,7.466,5Z"/></svg>
