<svg id="Layer_1" height="512" viewBox="0 0 24 24" width="512" xmlns="http://www.w3.org/2000/svg" data-name="Layer 1"><path d="m23.561 4.439-4-4a1.5 1.5 0 0 0 -2.122 2.122l.94.939-1.339 1.339a5.457 5.457 0 0 0 -6.778.771l-5.082 5.073a7.452 7.452 0 0 0 -2.195 5.3v2.9l-2.548 2.559a1.5 1.5 0 1 0 2.126 2.116l2.546-2.558h2.891a7.438 7.438 0 0 0 5.3-2.2l5.082-5.073a5.5 5.5 0 0 0 .781-6.767l1.337-1.339.939.94a1.5 1.5 0 0 0 2.122-2.122zm-7.306 7.171-5.082 5.073a4.464 4.464 0 0 1 -3.173 1.317h-2.015v-2.015a4.515 4.515 0 0 1 .3-1.582l1.157 1.158a1.5 1.5 0 0 0 2.122-2.122l-1.45-1.447 1.88-1.877 1.445 1.446a1.5 1.5 0 0 0 2.122-2.122l-1.444-1.439.265-.265a2.555 2.555 0 0 1 3.529 0l.343.344a2.5 2.5 0 0 1 .001 3.531z"/></svg>