<?xml version="1.0" encoding="UTF-8"?>
<svg xmlns="http://www.w3.org/2000/svg" id="Layer_1" data-name="Layer 1" viewBox="0 0 24 24" width="512" height="512"><path d="M18.257,15.005a5.708,5.708,0,0,0-4.06,1.681l-3,3A4.473,4.473,0,0,1,8.016,21H3.607a.621.621,0,0,1-.439-1.06l1.3-1.3a4.108,4.108,0,0,0,4.588-.848L13.867,13l.153,0a6.094,6.094,0,0,0,4.3-1.776l.914-.913a6.069,6.069,0,0,0-.4-8.948,6.244,6.244,0,0,0-8.355.533L9.9,2.475A6.408,6.408,0,0,0,8.031,7.139l-4.819,4.8a4.115,4.115,0,0,0-.863,4.575l-1.3,1.3A3.62,3.62,0,0,0,3.607,24H8.016a7.453,7.453,0,0,0,5.3-2.194l3-3A2.744,2.744,0,0,1,21,20.744V24h3V20.744A5.746,5.746,0,0,0,18.257,15.005ZM12.019,4.6l.578-.578A3.45,3.45,0,0,1,15.021,3a2.9,2.9,0,0,1,1.881.665,3.067,3.067,0,0,1,.207,4.527L16.2,9.1A3.074,3.074,0,0,1,11.662,8.9,3.216,3.216,0,0,1,12.019,4.6Zm-6.688,9.47,3.718-3.706a5.511,5.511,0,0,0,.317.464,6.1,6.1,0,0,0,1.284,1.142l-3.712,3.7a1.138,1.138,0,0,1-1.606,0,1.131,1.131,0,0,1,0-1.6Z"/></svg>
