<?xml version="1.0" encoding="UTF-8"?>
<svg xmlns="http://www.w3.org/2000/svg" id="Layer_1" data-name="Layer 1" viewBox="0 0 24 24" width="512" height="512"><path d="M17,2.5A2.5,2.5,0,1,1,19.5,5,2.5,2.5,0,0,1,17,2.5Zm4.282,17.712a1.5,1.5,0,0,1-2.006.7l-6.441-3.061,1.875-3.505-2.245-1.624L15,9.319v3.616l4.785,2.2,1.252-2.726L18,11.011V6.986L16.484,5.833A3.4,3.4,0,0,0,14.367,5a3.524,3.524,0,0,0-2.7,1.14L10.659,7.284,6.638,5.337l.8-1.692L4.729,2.359l-.792,1.67L2.171,3.174.885,5.885l1.766.855L1.808,8.517,4.519,9.8l.832-1.755L8.624,9.634a3.211,3.211,0,0,0,.386,4.278l1.819,1.331-.707,1.32-8.837-4.2L0,15.073l17.986,8.548a4.5,4.5,0,0,0,6-2.111Z"/></svg>
