<svg id="Layer_1" height="512" viewBox="0 0 24 24" width="512" xmlns="http://www.w3.org/2000/svg" data-name="Layer 1"><path d="m16.632 24h-9.264a4.379 4.379 0 0 1 -3.319-1.523 4.307 4.307 0 0 1 -1-3.451 12.207 12.207 0 0 1 3.934-7.026 12.207 12.207 0 0 1 -3.935-7.025 4.307 4.307 0 0 1 1-3.451 4.379 4.379 0 0 1 3.32-1.524h9.264a4.378 4.378 0 0 1 3.318 1.523 4.3 4.3 0 0 1 1 3.448 12.235 12.235 0 0 1 -3.938 7.029 12.234 12.234 0 0 1 3.94 7.03 4.3 4.3 0 0 1 -1 3.447 4.378 4.378 0 0 1 -3.32 1.523zm0-21h-9.264a1.382 1.382 0 0 0 -1.046.48 1.3 1.3 0 0 0 -.307 1.048c.337 2.243 1.746 4.362 4.188 6.3a1.5 1.5 0 0 1 0 2.352c-2.442 1.933-3.851 4.052-4.188 6.3a1.3 1.3 0 0 0 .307 1.048 1.382 1.382 0 0 0 1.046.472h9.264a1.384 1.384 0 0 0 1.046-.481 1.294 1.294 0 0 0 .307-1.044c-.335-2.236-1.745-4.355-4.191-6.3a1.5 1.5 0 0 1 0-2.348c2.446-1.946 3.856-4.065 4.191-6.3a1.3 1.3 0 0 0 -.307-1.045 1.384 1.384 0 0 0 -1.046-.482z"/></svg>