<?xml version="1.0" encoding="UTF-8"?>
<svg xmlns="http://www.w3.org/2000/svg" id="Layer_1" data-name="Layer 1" viewBox="0 0 24 24" width="512" height="512"><path d="M19,8v4a3,3,0,0,1-3,3H13V13a3,3,0,0,1,3-3V8ZM8,10V8H5v4a3,3,0,0,0,3,3h3V13A3,3,0,0,0,8,10Zm16,2A12,12,0,0,0,11.776,0h0A12.241,12.241,0,0,0,0,12.348V24H8.933l1.56-3.106A1.719,1.719,0,0,1,12,20a1.7,1.7,0,0,1,1.483.85L15.067,24H24Zm-7.86,7.458a4.715,4.715,0,0,0-8.3.044L7.083,21H3V12.348A9.226,9.226,0,0,1,11.831,3h0a9.034,9.034,0,0,1,6.474,2.577A8.932,8.932,0,0,1,21,12v9H16.916Z"/></svg>
