<?xml version="1.0" encoding="UTF-8"?>
<!-- Generator: Adobe Illustrator 26.0.1, SVG Export Plug-In . SVG Version: 6.00 Build 0)  -->
<svg xmlns="http://www.w3.org/2000/svg" xmlns:xlink="http://www.w3.org/1999/xlink" version="1.1" id="Capa_1" x="0px" y="0px" viewBox="0 0 24 24" style="enable-background:new 0 0 24 24;" xml:space="preserve" width="512" height="512">
<g>
	<path d="M11.999,0C5.372,0,0,5.374,0,12C0.001,18.628,5.374,24,12.001,24C18.629,23.999,24,18.626,24,11.999   C24,5.372,18.627,0,11.999,0z M5.385,2.594c1.871-1.319,4.151-2.095,6.614-2.095c2.443,0,4.705,0.763,6.567,2.061   c0.056,0.105,0.095,0.214,0.095,0.327c0,1.172-2.861,2.245-6.599,2.342C8.325,5.325,5.229,4.406,5.145,3.237   C5.131,3.019,5.216,2.803,5.385,2.594z M2.215,5.957c0.553-0.892,1.222-1.703,1.991-2.411C3.738,4.191,3.75,4.751,3.75,4.837   c0,1.064,1.549,2.765,6.031,2.763c2.658,0,4.804-0.515,6.424-1.054c2.597-0.864,3.882-1.92,3.835-2.704   c0-0.021-0.006-0.046-0.009-0.071c0.618,0.602,1.167,1.274,1.637,2.003c0.022,0.101,0.037,0.2,0.037,0.285   c0,1.155-1.131,2.931-6.217,3.352C12.97,9.62,9.716,9.177,8.486,9.02C4.859,8.557,2.201,7.147,2.201,6.063   C2.201,6.024,2.211,5.992,2.215,5.957z M1.391,7.556C1.363,7.729,1.347,7.919,1.347,8.141c0,2.845,6.148,5.648,13.681,3.59   c2.935-0.803,7.325-2.342,7.325-4.701V6.988c0.415,0.854,0.727,1.768,0.92,2.725c-0.178,0.998-1.392,3.927-7.76,4.507   c-1.018,0.092-12.794,0.225-14.705-4.552C0.789,9.621,0.78,9.57,0.772,9.516C0.921,8.838,1.128,8.183,1.391,7.556z M12.001,23.501   c-2.828,0-5.416-1.022-7.419-2.717c2.423,1.535,5.464,1.747,6.981,1.747c4.644,0,7.442-1.508,9.047-2.911   C18.502,22,15.428,23.501,12.001,23.501z M21.585,18.355c-2.407,2.44-8.041,5.165-16.286,1.759c-1.403-0.58-2.489-1.44-3.185-2.238   c-0.383-0.644-0.704-1.328-0.957-2.043c2.337,4.819,9.338,4.496,10.658,4.35c7.618-0.846,10.303-3.395,11.273-5.133   C22.762,16.239,22.251,17.352,21.585,18.355z M13.479,18.565c-2.274,0.082-6.281-0.702-8.804-1.733   c-1.763-0.72-3.51-2.031-4.08-3.372C0.534,12.981,0.499,12.495,0.499,12c0-0.095,0.006-0.19,0.007-0.284   c0.345,1.696,1.908,3.5,4.538,4.33c3.373,1.063,5.445,1.097,10.353,0.003c6.501-1.45,7.79-4.008,8.046-5.201   c0.037,0.378,0.058,0.762,0.058,1.151c0,0.676-0.061,1.337-0.173,1.98C22.484,15.672,19.997,18.332,13.479,18.565z"/>
</g>















</svg>
