<?xml version="1.0" encoding="UTF-8"?>
<svg xmlns="http://www.w3.org/2000/svg" id="Layer_1" data-name="Layer 1" viewBox="0 0 24 24" width="512" height="512"><path d="M15.942,24C8.791,24,0,15.209,0,8.058A6.055,6.055,0,0,1,1.766,3.734L5.41.09l6.642,6.641L9.089,9.7A10.69,10.69,0,0,0,14.3,14.922l2.974-2.973L23.91,18.59l-3.645,3.645A6.055,6.055,0,0,1,15.942,24ZM5.41,4.333,3.886,5.856A3.077,3.077,0,0,0,3,8.058C3,13.933,10.949,21,15.942,21a3.079,3.079,0,0,0,2.2-.885l1.525-1.525-2.4-2.4-2.255,2.255-.909-.347A13.936,13.936,0,0,1,5.911,9.918L5.542,9,7.81,6.731Zm6.824-.248a5.49,5.49,0,0,1,7.681,7.681l2.139,2.14a8.5,8.5,0,0,0-11.96-11.96Zm4.205,7.354L14,9V5h3V7.758l1.561,1.56Z"/></svg>
