<?xml version="1.0" encoding="UTF-8"?>
<!-- Generator: Adobe Illustrator 26.0.1, SVG Export Plug-In . SVG Version: 6.00 Build 0)  -->
<svg xmlns="http://www.w3.org/2000/svg" xmlns:xlink="http://www.w3.org/1999/xlink" version="1.1" id="Capa_1" x="0px" y="0px" viewBox="0 0 24 24" style="enable-background:new 0 0 24 24;" xml:space="preserve" width="512" height="512">
<g id="Layer_2_9_">
	<g id="Surfaces_10_">
		<g id="_3D_Substance_Surface">
			<g id="Outline_no_shadow_10_">
				<path d="M19.734,0.429H4.266C1.91,0.429,0,2.338,0,4.695v14.611c0,2.356,1.91,4.266,4.266,4.266h15.468      c2.356,0,4.266-1.91,4.266-4.266V4.695C24,2.338,22.09,0.429,19.734,0.429z M10.999,15.304      c-0.361,0.498-0.855,0.885-1.425,1.116c-0.683,0.274-1.414,0.407-2.15,0.39c-0.555,0.005-1.109-0.047-1.653-0.155      c-0.43-0.082-0.849-0.216-1.246-0.399c-0.095-0.058-0.146-0.167-0.13-0.277v-1.938c-0.004-0.035,0.012-0.069,0.041-0.089      c0.034-0.016,0.075-0.013,0.106,0.008c0.45,0.28,0.938,0.494,1.449,0.635c0.487,0.138,0.992,0.209,1.498,0.212      c0.619,0,1.061-0.095,1.327-0.285c0.246-0.152,0.396-0.419,0.399-0.708c0.002-0.174-0.043-0.346-0.13-0.497      c-0.118-0.177-0.274-0.324-0.456-0.432c-0.284-0.174-0.584-0.321-0.896-0.44l-0.814-0.342c-0.56-0.222-1.085-0.527-1.555-0.904      c-0.341-0.274-0.607-0.63-0.774-1.034c-0.143-0.38-0.215-0.783-0.212-1.189C4.357,7.8,5.044,6.725,6.121,6.249      c0.676-0.297,1.411-0.439,2.15-0.415c0.487-0.002,0.975,0.03,1.458,0.098c0.375,0.043,0.741,0.148,1.083,0.309      c0.075,0.043,0.12,0.125,0.114,0.212v1.794c0,0.023,0.001,0.048-0.004,0.071c-0.007,0.029-0.029,0.052-0.058,0.059      c-0.039,0.009-0.069-0.012-0.103-0.029c-0.037-0.019-0.075-0.037-0.112-0.055c-0.075-0.036-0.151-0.07-0.228-0.101      c-0.154-0.063-0.312-0.118-0.471-0.164c-0.103-0.029-0.206-0.055-0.31-0.077C9.195,7.853,8.741,7.804,8.287,7.805      C8.019,7.8,7.751,7.827,7.489,7.886C7.303,7.928,7.125,7.997,6.96,8.09C6.832,8.162,6.728,8.27,6.658,8.399      C6.595,8.517,6.562,8.648,6.561,8.782C6.558,8.948,6.609,9.111,6.707,9.246c0.134,0.167,0.3,0.306,0.488,0.407      c0.306,0.176,0.622,0.336,0.945,0.48l0.603,0.228c0.602,0.228,1.167,0.544,1.677,0.936c0.365,0.284,0.656,0.653,0.847,1.075      c0.165,0.394,0.248,0.818,0.245,1.246C11.523,14.221,11.344,14.811,10.999,15.304z M19.614,18.651      c-0.388,0.493-0.899,0.875-1.482,1.107c-0.722,0.288-1.495,0.426-2.272,0.407c-0.762,0.025-1.521-0.105-2.231-0.382      c-0.51-0.197-0.956-0.533-1.286-0.969c-0.252-0.334-0.394-0.738-0.407-1.157c0.006-0.196,0.056-0.388,0.147-0.562      c0.126-0.241,0.282-0.466,0.464-0.667c0.258-0.29,0.536-0.562,0.83-0.814c0.02-0.017,0.039-0.034,0.06-0.051      c-0.075-0.118-0.139-0.243-0.19-0.373c-0.104-0.267-0.151-0.553-0.139-0.838c0.01-0.233,0.054-0.463,0.13-0.684      c0.045-0.131,0.105-0.257,0.177-0.375c-0.013-0.008-0.026-0.016-0.038-0.024c-0.329-0.209-0.601-0.498-0.79-0.839      c-0.204-0.386-0.306-0.818-0.293-1.254c-0.005-0.494,0.131-0.98,0.391-1.401c0.275-0.436,0.667-0.786,1.132-1.009      c0.562-0.265,1.179-0.393,1.8-0.375c0.293,0,0.578,0.014,0.855,0.041c0.276,0.027,0.508,0.057,0.692,0.089      c0.075,0.011,0.146,0.019,0.211,0.025c0.065,0.005,0.125,0.008,0.179,0.008h2.231c0.065,0,0.097,0.038,0.097,0.114v1.515      c0.013,0.05-0.017,0.101-0.067,0.114c-0.015,0.004-0.031,0.004-0.047,0c-0.109,0-0.28-0.008-0.513-0.024      c-0.233-0.016-0.437-0.035-0.611-0.057c0.072,0.137,0.129,0.282,0.171,0.432c0.052,0.199,0.077,0.404,0.073,0.611      c0.02,0.518-0.125,1.028-0.415,1.457c-0.289,0.395-0.688,0.695-1.148,0.863c-0.526,0.197-1.083,0.293-1.644,0.285      c-0.182,0-0.363-0.008-0.544-0.027c-0.014,0.046-0.022,0.093-0.026,0.141c-0.021,0.189-0.022,0.431,0.09,0.595      c0.024,0.036,0.051,0.071,0.078,0.105l1.673,0.082c0.642,0.004,1.277,0.128,1.873,0.366c0.414,0.167,0.766,0.457,1.01,0.831      c0.209,0.352,0.316,0.755,0.309,1.165C20.142,17.675,19.956,18.214,19.614,18.651z M17.863,16.981      c-0.176-0.117-0.376-0.195-0.586-0.228c-0.274-0.052-0.552-0.082-0.83-0.09l-1.792-0.082c-0.182,0.116-0.335,0.272-0.448,0.456      c-0.092,0.125-0.15,0.27-0.171,0.423c0.009,0.185,0.088,0.359,0.22,0.489c0.188,0.188,0.42,0.325,0.676,0.399      c0.348,0.11,0.71,0.162,1.075,0.155c0.401,0.011,0.802-0.038,1.189-0.147c0.252-0.067,0.482-0.199,0.667-0.383      c0.133-0.138,0.209-0.321,0.212-0.513C18.089,17.276,18.01,17.096,17.863,16.981z M14.777,11.933      c0.22,0.235,0.534,0.358,0.855,0.334c0.305,0.015,0.604-0.09,0.831-0.293c0.212-0.21,0.324-0.5,0.309-0.798      c0.003-0.202-0.038-0.403-0.122-0.586c-0.081-0.173-0.211-0.317-0.374-0.415c-0.196-0.11-0.418-0.164-0.643-0.155      c-0.307-0.019-0.61,0.087-0.838,0.293c-0.214,0.229-0.323,0.535-0.301,0.847C14.488,11.444,14.59,11.719,14.777,11.933z"/>
			</g>
		</g>
	</g>
</g>















</svg>
