<?xml version="1.0" encoding="UTF-8"?>
<svg xmlns="http://www.w3.org/2000/svg" id="Layer_1" data-name="Layer 1" viewBox="0 0 24 24" width="512" height="512"><path d="M20.5,5H14.042l-.381-.413L17,2.5,13,0H11V3.871L9.958,5H3.5A3.5,3.5,0,0,0,0,8.5V24H24V8.5A3.5,3.5,0,0,0,20.5,5Zm0,3a.5.5,0,0,1,.5.5V10H18.657L16.811,8ZM3.5,8H7.189L5.343,10H3V8.5A.5.5,0,0,1,3.5,8ZM14,21V17a2,2,0,0,0-4,0v4H3V13H6.657L12,7.212,17.343,13H21v8ZM5,16H8v3H5Zm11,0h3v3H16Zm-2.5-4.5A1.5,1.5,0,1,1,12,10,1.5,1.5,0,0,1,13.5,11.5Z"/></svg>
