<?xml version="1.0" encoding="UTF-8"?>
<svg xmlns="http://www.w3.org/2000/svg" id="Layer_1" data-name="Layer 1" viewBox="0 0 24 24" width="512" height="512"><path d="M19.221,4.96C18.454,1.694,16.216,0,14,0V3c.7,0,1.575.647,2.083,2a6.282,6.282,0,0,0-4.629,6.048C11.454,13.075,9.4,14,7.5,14c-2.185,0-3.542-.609-4.018-3.727L3.288,9H.791L.437,10A8.374,8.374,0,0,0,0,12.5C0,18.948,5.271,24,12,24A12.013,12.013,0,0,0,24,12v-.954A6.278,6.278,0,0,0,19.221,4.96ZM21,12a9.01,9.01,0,0,1-9,9,8.848,8.848,0,0,1-8.156-4.782A7.8,7.8,0,0,0,7.5,17c4.029,0,6.954-2.5,6.954-5.954a3.23,3.23,0,0,1,.334-1.413A4.471,4.471,0,0,0,18,11a4.423,4.423,0,0,0,2.811-1.008A3.236,3.236,0,0,1,21,11.046Z"/></svg>
