<?xml version="1.0" encoding="UTF-8"?>
<svg xmlns="http://www.w3.org/2000/svg" id="Layer_1" data-name="Layer 1" viewBox="0 0 24 24" width="512" height="512"><path d="M20.328,12.2a28.856,28.856,0,0,0-1.09-2.877A13.321,13.321,0,0,1,18,5.5a.5.5,0,0,1,1,0,1.5,1.5,0,0,0,3,0,3.491,3.491,0,0,0-6.969-.3A1.512,1.512,0,0,0,15,5.5a7.12,7.12,0,0,0,.314,1.911L11.6,10.3,7.1,7H8.5a1.5,1.5,0,0,0,0-3H5.471A2.469,2.469,0,0,0,4.013,8.462l5.126,3.752-1.093.85A4.946,4.946,0,0,0,5,12a5,5,0,1,0,5,5,4.917,4.917,0,0,0-.245-1.466l6.661-5.18s.586,1.4.8,1.989a5.012,5.012,0,1,0,3.111-.141ZM5,19a2,2,0,1,1,2-2A2,2,0,0,1,5,19Zm14,0a2,2,0,1,1,2-2A2,2,0,0,1,19,19Z"/></svg>
