<?xml version="1.0" encoding="UTF-8"?>
<svg xmlns="http://www.w3.org/2000/svg" id="Layer_1" data-name="Layer 1" viewBox="0 0 24 24" width="512" height="512"><path d="M23.263,14.759a2.427,2.427,0,0,0-2-.748A12.49,12.49,0,0,0,13.5,17.337V14.818a6.506,6.506,0,0,0,5-6.318c0-2.973-2.016-5.43-3.987-7.441a3.592,3.592,0,0,0-5.026,0C7.516,3.07,5.5,5.527,5.5,8.5a6.506,6.506,0,0,0,5,6.318v2.519a12.493,12.493,0,0,0-7.763-3.326,2.432,2.432,0,0,0-2,.748,2.665,2.665,0,0,0-.687,2.2c.811,5.673,6.6,7.108,10.559,7.108,5.012.143,12.1-.157,13.341-7.108A2.669,2.669,0,0,0,23.263,14.759ZM8.5,8.5a7.04,7.04,0,0,1,2-4.118V7.5a1.5,1.5,0,0,0,3,0V4.382a7.04,7.04,0,0,1,2,4.118,3.5,3.5,0,0,1-7,0ZM3.127,17.077a8.953,8.953,0,0,1,6.561,3.956C7.369,20.9,3.917,20.162,3.127,17.077Zm11.185,3.956a8.955,8.955,0,0,1,6.561-3.956C20.084,20.162,16.631,20.9,14.312,21.033Z"/></svg>
