<?xml version="1.0" encoding="UTF-8"?>
<svg xmlns="http://www.w3.org/2000/svg" id="Layer_1" data-name="Layer 1" viewBox="0 0 24 24" width="512" height="512"><path d="M24,10H21a7.008,7.008,0,0,0-7-7V0A10.011,10.011,0,0,1,24,10ZM14,5V8a2,2,0,0,1,2,2h3A5.006,5.006,0,0,0,14,5Zm6.265,17.235L23.91,18.59l-6.641-6.642L14.3,14.923A10.7,10.7,0,0,1,9.088,9.694l2.964-2.963L5.41.09,1.766,3.734A6.055,6.055,0,0,0,0,8.058C0,15.209,8.791,24,15.942,24A6.055,6.055,0,0,0,20.265,22.235ZM7.809,6.731,5.541,9l.369.919a13.938,13.938,0,0,0,8.2,8.182l.908.346,2.255-2.256,2.4,2.4-1.524,1.525a3.076,3.076,0,0,1-2.2.885C10.949,21,3,13.934,3,8.058a3.08,3.08,0,0,1,.886-2.2L5.41,4.332Z"/></svg>
