<svg id="Layer_1" height="512" viewBox="0 0 24 24" width="512" xmlns="http://www.w3.org/2000/svg" data-name="Layer 1"><path d="m22 13a10.006 10.006 0 0 0 -8.5-9.875v-3.125h-3v3.125a9.982 9.982 0 0 0 -6.177 16.275l-2.417 2.574 2.188 2.052 2.477-2.64a9.938 9.938 0 0 0 10.858 0l2.477 2.64 2.188-2.052-2.417-2.574a9.956 9.956 0 0 0 2.323-6.4zm-17 0a7 7 0 1 1 7 7 7.008 7.008 0 0 1 -7-7zm8.5-1.945 2.408 1.461-1.592 2.543-3.816-2.344v-4.715h3zm-10.989-5.381-2.494-1.663a15.17 15.17 0 0 1 4.439-3.955l1.6 2.53a12.026 12.026 0 0 0 -3.545 3.088zm15.435-3.088 1.6-2.53a15.17 15.17 0 0 1 4.439 3.955l-2.496 1.663a12.026 12.026 0 0 0 -3.543-3.088z"/></svg>