<?xml version="1.0" encoding="UTF-8"?>
<svg xmlns="http://www.w3.org/2000/svg" id="Layer_1" data-name="Layer 1" viewBox="0 0 24 24" width="512" height="512"><path d="M15,16a2,2,0,0,1,4,0A2,2,0,0,1,15,16ZM8,17a2,2,0,0,0,0-4A2,2,0,0,0,8,17ZM24,8.771V24H5.227a4.463,4.463,0,0,1-4.085-2.614,13.319,13.319,0,0,1-.518-9.41c.4-1.443,2.257-7.282,7.12-10.917A5.461,5.461,0,0,1,14.029.933ZM5.581,8H18.167L12.321,3.4A2.541,2.541,0,0,0,10.983,3a2.262,2.262,0,0,0-1.443.462A15.483,15.483,0,0,0,5.581,8ZM21,11H5.227a1.462,1.462,0,0,0-1.347.838A11.193,11.193,0,0,0,3,16a10.277,10.277,0,0,0,.88,4.162A1.462,1.462,0,0,0,5.227,21H9a3,3,0,0,1,3.305-2.984A3.075,3.075,0,0,1,14.99,21H21Z"/></svg>
