<?xml version="1.0" encoding="UTF-8"?>
<svg xmlns="http://www.w3.org/2000/svg" id="Bold" viewBox="0 0 24 24" width="512" height="512"><path d="M22.419,10a8.269,8.269,0,0,0-4.442-3.063A8.185,8.185,0,0,0,8.258,1.111,8.174,8.174,0,0,0,2.6,12.375,5.781,5.781,0,0,0,.188,18.694,5.85,5.85,0,0,0,5.944,23H8.5A1.5,1.5,0,0,0,10,21.5h0A1.5,1.5,0,0,0,8.5,20H5.944A2.893,2.893,0,0,1,3.1,17.958a2.8,2.8,0,0,1,2-3.446,1.5,1.5,0,0,0,.83-2.346A5.2,5.2,0,0,1,5.119,7.6a5.1,5.1,0,0,1,3.7-3.539,5.589,5.589,0,0,1,1.264-.147,5.14,5.14,0,0,1,3.118,1.042,5.216,5.216,0,0,1,2.014,3.442,1.508,1.508,0,0,0,1.288,1.3A5.227,5.227,0,0,1,20,11.774a5.155,5.155,0,0,1,.92,3.958,5.031,5.031,0,0,1-2.246,3.319A1.5,1.5,0,0,0,18,20.307h0a1.515,1.515,0,0,0,2.313,1.3,8.016,8.016,0,0,0,3.565-5.363A8.127,8.127,0,0,0,22.419,10Z"/><path d="M15.5,22.5V17h1.663a1,1,0,0,0,.707-1.707L14.707,12.13a1,1,0,0,0-1.414,0L10.13,15.293A1,1,0,0,0,10.837,17H12.5v5.5a1.5,1.5,0,0,0,3,0Z"/></svg>
