<?xml version="1.0" encoding="UTF-8"?>
<!-- Generator: Adobe Illustrator 26.0.1, SVG Export Plug-In . SVG Version: 6.00 Build 0)  -->
<svg xmlns="http://www.w3.org/2000/svg" xmlns:xlink="http://www.w3.org/1999/xlink" version="1.1" id="Capa_1" x="0px" y="0px" viewBox="0 0 24 24" style="enable-background:new 0 0 24 24;" xml:space="preserve" width="512" height="512">
<g>
	<path d="M0.873,18.057c-0.254,0.399-0.544,0.87-0.761,1.233c-0.217,0.363-0.109,0.834,0.254,1.052l4.966,3.046   c0.362,0.218,0.834,0.109,1.051-0.254c0.181-0.326,0.435-0.762,0.725-1.233c1.957-3.228,3.951-2.865,7.503-1.161l4.929,2.321   c0.399,0.181,0.834,0,1.015-0.363l2.356-5.331c0.181-0.363,0-0.834-0.362-1.015c-1.051-0.471-3.117-1.451-4.929-2.357   C10.913,10.767,5.222,10.985,0.873,18.057z"/>
	<path d="M23.127,5.943c0.254-0.399,0.544-0.87,0.761-1.233c0.217-0.363,0.109-0.834-0.254-1.052l-4.966-3.047   c-0.362-0.218-0.834-0.109-1.051,0.254c-0.181,0.326-0.435,0.762-0.725,1.233c-1.957,3.228-3.951,2.865-7.503,1.161L4.461,0.938   c-0.399-0.181-0.834,0-1.015,0.363L1.09,6.632c-0.181,0.363,0,0.834,0.362,1.016c1.051,0.471,3.117,1.451,4.929,2.357   C13.087,13.197,18.778,13.015,23.127,5.943z"/>
</g>















</svg>
