<svg id="Layer_1" height="512" viewBox="0 0 24 24" width="512" xmlns="http://www.w3.org/2000/svg" data-name="Layer 1"><path d="m20.485 3.515a11.994 11.994 0 1 0 0 16.97 12.013 12.013 0 0 0 0-16.97zm.276 6.477a7.088 7.088 0 0 1 -6.752-6.753 8.924 8.924 0 0 1 6.752 6.753zm-17.522 4.017a7.086 7.086 0 0 1 6.752 6.752 8.924 8.924 0 0 1 -6.752-6.752zm15.125 4.355a8.948 8.948 0 0 1 -5.38 2.573 10.042 10.042 0 0 0 -9.921-9.922 8.959 8.959 0 0 1 7.953-7.952 10.058 10.058 0 0 0 9.92 9.931 8.948 8.948 0 0 1 -2.572 5.37z"/></svg>