<?xml version="1.0" encoding="UTF-8"?>
<svg xmlns="http://www.w3.org/2000/svg" id="Layer_1" data-name="Layer 1" viewBox="0 0 24 24" width="512" height="512"><path d="M23,.988A3.385,3.385,0,0,0,20.275.016C17.577.277,8.493,1.406,4.92,4.979a10,10,0,0,0-.973,12.953L.439,21.439a1.5,1.5,0,0,0,2.122,2.122l3.507-3.508a10,10,0,0,0,12.953-.973C22.644,15.457,23.737,6.4,23.985,3.709A3.388,3.388,0,0,0,23,.988Zm-6.1,15.97A6.991,6.991,0,0,1,8.22,17.9l8.341-8.34a1.5,1.5,0,0,0-2.122-2.122L6.1,15.78A6.991,6.991,0,0,1,7.042,7.1C9.322,4.82,15.751,3.468,20.565,3a.391.391,0,0,1,.319.113A.385.385,0,0,1,21,3.433C20.555,8.225,19.216,14.642,16.9,16.958Z"/></svg>
