<?xml version="1.0" encoding="UTF-8"?>
<!-- Generator: Adobe Illustrator 26.0.1, SVG Export Plug-In . SVG Version: 6.00 Build 0)  -->
<svg xmlns="http://www.w3.org/2000/svg" xmlns:xlink="http://www.w3.org/1999/xlink" version="1.1" id="Capa_1" x="0px" y="0px" viewBox="0 0 24 24" style="enable-background:new 0 0 24 24;" xml:space="preserve" width="512" height="512">
<g>
	<path style="fill-rule:evenodd;clip-rule:evenodd;" d="M24,12.167c0-1.707-0.827-3.053-2.407-3.053   c-1.587,0-2.547,1.347-2.547,3.04c0,2.007,1.133,3.02,2.76,3.02c0.793,0,1.393-0.18,1.847-0.433v-1.333   c-0.453,0.227-0.973,0.367-1.633,0.367c-0.647,0-1.22-0.227-1.293-1.013h3.26C23.987,12.673,24,12.327,24,12.167z M20.707,11.533   c0-0.753,0.46-1.067,0.88-1.067c0.407,0,0.84,0.313,0.84,1.067H20.707z"/>
	<path style="fill-rule:evenodd;clip-rule:evenodd;" d="M16.473,9.113c-0.653,0-1.073,0.307-1.307,0.52L15.08,9.22h-1.467v7.773   l1.667-0.353l0.007-1.887c0.24,0.173,0.593,0.42,1.18,0.42c1.193,0,2.28-0.96,2.28-3.073C18.74,10.167,17.64,9.113,16.473,9.113z    M16.073,13.707c-0.393,0-0.627-0.14-0.787-0.313L15.28,10.92c0.173-0.193,0.413-0.327,0.793-0.327c0.607,0,1.027,0.68,1.027,1.553   C17.1,13.04,16.687,13.707,16.073,13.707z"/>
	<polygon style="fill-rule:evenodd;clip-rule:evenodd;" points="11.32,8.72 12.993,8.36 12.993,7.007 11.32,7.36  "/>
	<rect x="11.32" y="9.227" style="fill-rule:evenodd;clip-rule:evenodd;" width="1.673" height="5.833"/>
	<path style="fill-rule:evenodd;clip-rule:evenodd;" d="M9.527,9.72L9.42,9.227H7.98v5.833h1.667v-3.953   c0.393-0.513,1.06-0.42,1.267-0.347V9.227C10.7,9.147,9.92,9,9.527,9.72z"/>
	<path style="fill-rule:evenodd;clip-rule:evenodd;" d="M6.193,7.78L4.567,8.127l-0.007,5.34c0,0.987,0.74,1.713,1.727,1.713   c0.547,0,0.947-0.1,1.167-0.22v-1.353C7.24,13.693,6.187,14,6.187,13.013v-2.367h1.267v-1.42H6.187L6.193,7.78z"/>
	<path style="fill-rule:evenodd;clip-rule:evenodd;" d="M1.687,10.92c0-0.26,0.213-0.36,0.567-0.36c0.507,0,1.147,0.153,1.653,0.427   V9.42c-0.553-0.22-1.1-0.307-1.653-0.307C0.9,9.113,0,9.82,0,11c0,1.84,2.533,1.547,2.533,2.34c0,0.307-0.267,0.407-0.64,0.407   c-0.553,0-1.26-0.227-1.82-0.533V14.8c0.62,0.267,1.247,0.38,1.82,0.38c1.387,0,2.34-0.687,2.34-1.88   C4.227,11.313,1.687,11.667,1.687,10.92z"/>
</g>















</svg>
