<svg id="Layer_1" height="512" viewBox="0 0 24 24" width="512" xmlns="http://www.w3.org/2000/svg" data-name="Layer 1"><path d="m22.511 16.464a1.5 1.5 0 0 1 -1.061-.439 7.007 7.007 0 0 0 -9.9 0 1.5 1.5 0 1 1 -2.121-2.125 10.009 10.009 0 0 1 14.142 0 1.5 1.5 0 0 1 -1.06 2.56zm-2.476 3.1a1.5 1.5 0 0 0 0-2.122 5 5 0 0 0 -7.07 0 1.5 1.5 0 0 0 2.121 2.122 2.049 2.049 0 0 1 2.828 0 1.5 1.5 0 0 0 2.121 0zm-3.535 1.436a1.5 1.5 0 1 0 1.5 1.5 1.5 1.5 0 0 0 -1.5-1.5zm-6-.5a1.5 1.5 0 0 0 -1.5-1.5h-3.032a2.925 2.925 0 0 1 -2.875-2.038 2.763 2.763 0 0 1 1.444-3.156 2.484 2.484 0 0 0 1.012-3.356 5.118 5.118 0 0 1 -.456-3.3 5.052 5.052 0 0 1 4.215-4.093 5.206 5.206 0 0 1 3.909.988 5.12 5.12 0 0 1 2 3.42 1.5 1.5 0 0 0 1.289 1.287 5.152 5.152 0 0 1 2.2.828 1.5 1.5 0 0 0 1.664-2.5 8.248 8.248 0 0 0 -2.393-1.08 8.1 8.1 0 0 0 -2.951-4.343 8.186 8.186 0 0 0 -6.144-1.57 8.051 8.051 0 0 0 -6.736 6.5 8.1 8.1 0 0 0 .541 4.825 5.764 5.764 0 0 0 -2.5 6.3 5.886 5.886 0 0 0 5.781 4.288h3.032a1.5 1.5 0 0 0 1.5-1.5z"/></svg>