<?xml version="1.0" encoding="UTF-8"?>
<svg xmlns="http://www.w3.org/2000/svg" id="Layer_1" data-name="Layer 1" viewBox="0 0 24 24" width="512" height="512"><path d="M19.63,13.574A5.487,5.487,0,0,0,9.006,15.255,4.5,4.5,0,0,0,10.5,24h8.25a5.25,5.25,0,0,0,.88-10.426ZM18.75,21H10.5a1.5,1.5,0,0,1,0-3H12V15.5a2.488,2.488,0,0,1,4.958-.312l.166,1.312H18.75a2.25,2.25,0,0,1,0,4.5ZM7.171,13.951,3.843,17.278,1.722,15.156,3.978,12.9a6.527,6.527,0,0,1-.8-1.9H0V8H3.175a6.429,6.429,0,0,1,.794-1.91L1.722,3.844,3.843,1.722,6.09,3.969A6.44,6.44,0,0,1,8,3.175V0h3V3.175a6.487,6.487,0,0,1,1.909.794l2.248-2.247,2.121,2.122L15.03,6.091a6.464,6.464,0,0,1,.825,2.051A7.268,7.268,0,0,0,14.5,8a7.559,7.559,0,0,0-1.753.211,3.495,3.495,0,1,0-5.1,4.246A7.723,7.723,0,0,0,7.171,13.951Z"/></svg>
