<?xml version="1.0" encoding="UTF-8"?>
<!-- Generator: Adobe Illustrator 25.0.0, SVG Export Plug-In . SVG Version: 6.00 Build 0)  -->
<svg xmlns="http://www.w3.org/2000/svg" xmlns:xlink="http://www.w3.org/1999/xlink" version="1.1" id="Layer_1" x="0px" y="0px" viewBox="0 0 512 512" style="enable-background:new 0 0 512 512;" xml:space="preserve" width="512" height="512">
<path d="M472.898,287.547l-52.236,12.448c-6.571,1.673-12.857,4.315-18.651,7.839l-42.485-26.086  c4.588-16.857,4.588-34.635,0-51.492l42.485-26.086c5.794,3.524,12.08,6.166,18.651,7.839c0,0,57.185,13.319,59.649,13.319  c17.597-0.168,31.726-14.57,31.558-32.168c-0.139-14.535-10.097-27.134-24.208-30.626l-52.321-12.512  c-1.188-0.289-2.204-1.059-2.804-2.124c-0.643-1.025-0.842-2.267-0.552-3.441l12.448-52.257c5.092-16.845-4.435-34.629-21.28-39.721  c-16.845-5.092-34.629,4.435-39.721,21.28c-0.378,1.249-0.678,2.519-0.9,3.805l-12.448,52.257c-1.46,6.549-1.94,13.278-1.423,19.968  l-42.485,26.192c-10.921-9.405-23.652-16.476-37.408-20.775v-50.027c6.029-3.055,11.558-7.009,16.399-11.726l38.003-37.982  c12.442-12.448,12.437-32.625-0.011-45.066c-12.448-12.442-32.625-12.437-45.066,0.011l0,0L260.11,48.418  c-1.758,1.76-4.609,1.762-6.369,0.004c-0.001-0.001-0.003-0.003-0.004-0.004l-38.024-38.003c-12.448-12.448-32.629-12.448-45.077,0  s-12.448,32.629,0,45.077l38.003,37.982c4.842,4.709,10.372,8.656,16.399,11.705v50.027c-13.726,4.338-26.42,11.437-37.302,20.86  l-42.592-26.277c0.532-6.739,0.052-13.52-1.423-20.117l-12.448-52.108c-3.806-17.181-20.82-28.024-38.001-24.218  c-17.181,3.806-28.024,20.82-24.218,38.001c0.073,0.328,0.151,0.655,0.234,0.98l12.448,52.257c0.29,1.175,0.091,2.417-0.552,3.441  c-0.6,1.066-1.616,1.835-2.804,2.124l-52.236,12.384C9.026,166.62-1.538,183.809,2.549,200.926  c3.42,14.327,16.215,24.443,30.944,24.465c2.464,0,59.649-13.319,59.649-13.319c6.571-1.673,12.857-4.315,18.651-7.839  l42.485,26.086c-4.588,16.857-4.588,34.635,0,51.492l-42.485,26.086c-5.794-3.524-12.08-6.166-18.651-7.839l-52.236-12.448  c-16.819-5.178-34.651,4.26-39.829,21.079c-5.178,16.819,4.26,34.651,21.079,39.829c1.307,0.402,2.639,0.72,3.986,0.951  l52.236,12.448c1.188,0.289,2.204,1.059,2.804,2.124c0.643,1.025,0.842,2.267,0.552,3.441L69.287,419.74  c-4.106,17.117,6.441,34.322,23.558,38.428c17.117,4.106,34.322-6.441,38.428-23.558l12.448-52.257  c1.477-6.604,1.957-13.392,1.423-20.138l42.592-26.192c10.882,9.423,23.576,16.522,37.302,20.86v49.942  c-6.025,3.071-11.553,7.031-16.399,11.747l-38.003,37.939c-12.448,12.448-12.448,32.629,0,45.077s32.629,12.448,45.077,0  l37.982-38.003c1.758-1.76,4.609-1.762,6.369-0.004c0.001,0.001,0.003,0.003,0.004,0.004l37.982,38.003  c12.448,12.448,32.629,12.448,45.077,0c12.448-12.448,12.448-32.629,0-45.077l-38.003-37.982  c-4.836-4.698-10.35-8.643-16.357-11.705v-50.027c13.726-4.338,26.42-11.437,37.302-20.86l42.485,26.192  c-0.532,6.739-0.052,13.52,1.423,20.117l12.448,52.257c4.106,17.117,21.311,27.664,38.428,23.558  c17.117-4.106,27.664-21.311,23.558-38.428l-12.448-52.257c-0.29-1.175-0.091-2.417,0.552-3.441c0.6-1.066,1.616-1.835,2.804-2.124  l52.236-12.448c17.117-4.106,27.664-21.311,23.558-38.428c-4.106-17.117-21.311-27.664-38.428-23.558l0,0L472.898,287.547z   M256.902,298.487c-23.464,0-42.485-19.021-42.485-42.485s19.021-42.485,42.485-42.485s42.485,19.021,42.485,42.485  S280.366,298.487,256.902,298.487z"/>
</svg>
