<?xml version="1.0" encoding="UTF-8"?>
<!-- Generator: Adobe Illustrator 26.0.1, SVG Export Plug-In . SVG Version: 6.00 Build 0)  -->
<svg xmlns="http://www.w3.org/2000/svg" xmlns:xlink="http://www.w3.org/1999/xlink" version="1.1" id="Capa_1" x="0px" y="0px" viewBox="0 0 24 24" style="enable-background:new 0 0 24 24;" xml:space="preserve" width="512" height="512">
<g>
	<g>
		<g>
			<path d="M17.703,11.341c0.175-0.021,0.343-0.022,0.497,0c0.089-0.205,0.105-0.558,0.024-0.942     c-0.119-0.571-0.281-0.917-0.615-0.863c-0.334,0.054-0.346,0.468-0.227,1.039C17.451,10.896,17.57,11.171,17.703,11.341z"/>
			<path d="M14.838,11.793c0.239,0.105,0.386,0.174,0.443,0.114c0.037-0.038,0.026-0.11-0.031-0.203     c-0.118-0.192-0.36-0.387-0.617-0.497c-0.526-0.226-1.153-0.151-1.637,0.197c-0.16,0.117-0.311,0.279-0.29,0.378     c0.007,0.032,0.031,0.056,0.087,0.064c0.132,0.015,0.592-0.218,1.122-0.25C14.289,11.571,14.599,11.688,14.838,11.793z"/>
			<path d="M14.358,12.067c-0.311,0.049-0.483,0.152-0.593,0.247c-0.094,0.082-0.152,0.173-0.152,0.237     c0,0.03,0.013,0.048,0.024,0.057c0.014,0.013,0.031,0.019,0.051,0.019c0.07,0,0.228-0.063,0.228-0.063     c0.433-0.155,0.718-0.136,1.001-0.104c0.156,0.018,0.23,0.027,0.264-0.026c0.01-0.015,0.022-0.049-0.009-0.099     C15.1,12.216,14.786,12.016,14.358,12.067z"/>
			<path d="M16.736,13.073c0.211,0.104,0.444,0.063,0.519-0.091c0.076-0.154-0.034-0.363-0.245-0.467     c-0.211-0.104-0.444-0.063-0.519,0.091C16.415,12.761,16.525,12.97,16.736,13.073z"/>
			<path d="M18.093,11.887c-0.172-0.003-0.314,0.185-0.318,0.421c-0.004,0.235,0.132,0.428,0.303,0.431     c0.172,0.003,0.314-0.185,0.318-0.421C18.401,12.083,18.265,11.89,18.093,11.887z"/>
			<path d="M6.57,16.129c-0.043-0.054-0.113-0.037-0.181-0.021c-0.047,0.011-0.101,0.024-0.16,0.023     c-0.126-0.002-0.233-0.056-0.293-0.149c-0.078-0.12-0.074-0.299,0.013-0.504c0.012-0.028,0.025-0.058,0.04-0.092     c0.138-0.309,0.368-0.825,0.109-1.318c-0.195-0.371-0.512-0.601-0.894-0.65c-0.366-0.046-0.744,0.089-0.984,0.355     c-0.38,0.419-0.439,0.988-0.365,1.19c0.027,0.074,0.069,0.094,0.1,0.098c0.065,0.009,0.16-0.038,0.22-0.199     c0.004-0.012,0.01-0.03,0.017-0.052c0.027-0.085,0.076-0.243,0.158-0.37c0.098-0.153,0.251-0.259,0.43-0.297     c0.183-0.039,0.369-0.004,0.525,0.098c0.266,0.174,0.368,0.5,0.255,0.811c-0.059,0.161-0.154,0.468-0.133,0.721     c0.042,0.511,0.357,0.717,0.639,0.738c0.275,0.01,0.467-0.144,0.515-0.257C6.61,16.187,6.586,16.147,6.57,16.129z"/>
			<path d="M22.422,15.194c-0.01-0.037-0.079-0.286-0.172-0.586c-0.094-0.3-0.19-0.511-0.19-0.511     c0.375-0.562,0.382-1.065,0.332-1.349c-0.053-0.353-0.2-0.654-0.496-0.964c-0.296-0.311-0.902-0.629-1.753-0.868     c-0.097-0.027-0.418-0.115-0.447-0.124c-0.002-0.018-0.023-1.053-0.043-1.497c-0.014-0.321-0.042-0.822-0.197-1.315     c-0.185-0.668-0.508-1.252-0.911-1.626c1.112-1.153,1.806-2.422,1.804-3.512c-0.003-2.095-2.576-2.729-5.746-1.416     c-0.003,0.001-0.667,0.283-0.672,0.285c-0.003-0.003-1.214-1.192-1.233-1.207C9.085-2.649-2.216,9.913,1.397,12.964l0.79,0.669     c-0.205,0.531-0.285,1.139-0.22,1.792c0.084,0.84,0.518,1.645,1.22,2.266c0.666,0.59,1.543,0.964,2.393,0.963     c1.406,3.24,4.619,5.228,8.386,5.34c4.041,0.12,7.433-1.776,8.854-5.182c0.093-0.239,0.487-1.316,0.487-2.267     C23.307,15.59,22.766,15.194,22.422,15.194z M5.89,17.745c-0.123,0.021-0.248,0.029-0.374,0.026     c-1.22-0.033-2.539-1.131-2.67-2.434c-0.145-1.44,0.591-2.549,1.894-2.811c0.156-0.031,0.344-0.05,0.547-0.039     c0.73,0.04,1.806,0.601,2.052,2.191C7.556,16.085,7.211,17.519,5.89,17.745z M4.527,11.663c-0.811,0.158-1.526,0.617-1.963,1.252     c-0.261-0.218-0.748-0.64-0.834-0.804C1.032,10.786,2.492,8.21,3.511,6.755c2.52-3.596,6.467-6.318,8.294-5.824     c0.297,0.084,1.281,1.225,1.281,1.225s-1.826,1.013-3.52,2.426C7.284,6.338,5.56,8.892,4.527,11.663z M17.337,17.206     c0.026-0.011,0.045-0.042,0.042-0.072c-0.004-0.037-0.037-0.064-0.074-0.06c0,0-1.912,0.283-3.718-0.378     c0.197-0.639,0.72-0.408,1.51-0.345c1.425,0.085,2.702-0.123,3.646-0.394c0.818-0.235,1.892-0.698,2.727-1.356     c0.281,0.618,0.381,1.299,0.381,1.299s0.218-0.039,0.4,0.073c0.172,0.106,0.298,0.326,0.212,0.895     c-0.175,1.063-0.627,1.926-1.387,2.72c-0.462,0.498-1.023,0.93-1.666,1.245c-0.341,0.179-0.704,0.334-1.088,0.459     c-2.863,0.935-5.793-0.093-6.738-2.301c-0.075-0.166-0.139-0.34-0.189-0.521c-0.403-1.455-0.061-3.2,1.008-4.299c0,0,0,0,0-0.001     c0.066-0.07,0.133-0.152,0.133-0.256c0-0.087-0.055-0.178-0.103-0.243c-0.374-0.542-1.668-1.466-1.409-3.254     c0.187-1.284,1.31-2.189,2.357-2.135c0.088,0.005,0.177,0.01,0.265,0.015c0.454,0.027,0.85,0.085,1.223,0.101     c0.625,0.027,1.188-0.064,1.853-0.619c0.225-0.187,0.405-0.35,0.71-0.401c0.032-0.005,0.112-0.034,0.271-0.027     c0.163,0.009,0.317,0.053,0.456,0.146c0.534,0.355,0.61,1.216,0.637,1.845c0.016,0.359,0.059,1.229,0.074,1.478     c0.034,0.571,0.184,0.651,0.487,0.751c0.171,0.056,0.329,0.098,0.563,0.164c0.707,0.198,1.126,0.4,1.39,0.658     c0.158,0.162,0.231,0.333,0.253,0.497c0.083,0.608-0.472,1.359-1.942,2.041c-1.607,0.746-3.556,0.935-4.903,0.785     c-0.103-0.012-0.471-0.053-0.472-0.053c-1.077-0.145-1.692,1.247-1.045,2.201c0.417,0.615,1.552,1.015,2.688,1.015     c2.604,0,4.606-1.112,5.35-2.072c0.022-0.029,0.024-0.032,0.06-0.085c0.037-0.055,0.006-0.086-0.039-0.054     c-0.608,0.416-3.31,2.069-6.2,1.572c0,0-0.351-0.058-0.672-0.182c-0.255-0.099-0.788-0.344-0.853-0.891     C15.869,17.888,17.337,17.206,17.337,17.206z M9.181,6.74c0.896-1.035,1.999-1.935,2.987-2.441     c0.034-0.017,0.07,0.02,0.052,0.053c-0.078,0.142-0.229,0.446-0.277,0.677c-0.007,0.036,0.032,0.063,0.062,0.042     c0.615-0.419,1.684-0.868,2.622-0.926c0.04-0.002,0.06,0.049,0.028,0.074c-0.143,0.109-0.299,0.261-0.412,0.414     c-0.019,0.026-0.001,0.064,0.031,0.064c0.659,0.005,1.587,0.235,2.192,0.574c0.041,0.023,0.012,0.102-0.034,0.092     c-0.915-0.21-2.414-0.369-3.971,0.011c-1.39,0.339-2.45,0.862-3.224,1.425C9.197,6.828,9.15,6.777,9.181,6.74z"/>
		</g>
	</g>
</g>















</svg>
