<?xml version="1.0" encoding="UTF-8"?>
<!-- Generator: Adobe Illustrator 26.0.1, SVG Export Plug-In . SVG Version: 6.00 Build 0)  -->
<svg xmlns="http://www.w3.org/2000/svg" xmlns:xlink="http://www.w3.org/1999/xlink" version="1.1" id="Capa_1" x="0px" y="0px" viewBox="0 0 24 24" style="enable-background:new 0 0 24 24;" xml:space="preserve" width="512" height="512">
<g id="logo">
	<g>
		<path style="fill-rule:evenodd;clip-rule:evenodd;" d="M12,0C5.24,0,0,4.952,0,11.64c0,3.498,1.434,6.522,3.769,8.61    c0.196,0.175,0.314,0.421,0.323,0.684l0.065,2.134c0.021,0.681,0.724,1.124,1.347,0.849l2.382-1.051    c0.202-0.089,0.428-0.105,0.641-0.047C9.621,23.12,10.786,23.28,12,23.28c6.76,0,12-4.952,12-11.64S18.76,0,12,0z M19.206,8.956    l-3.525,5.593c-0.561,0.89-1.762,1.111-2.603,0.48l-2.804-2.103c-0.257-0.193-0.611-0.192-0.867,0.003l-3.787,2.873    c-0.505,0.383-1.165-0.221-0.827-0.758l3.525-5.593c0.561-0.89,1.762-1.111,2.603-0.48l2.804,2.103    c0.257,0.193,0.611,0.192,0.867-0.003l3.787-2.873C18.885,7.815,19.544,8.419,19.206,8.956z"/>
	</g>
</g>















</svg>
