<?xml version="1.0" encoding="UTF-8"?>
<!-- Generator: Adobe Illustrator 25.0.0, SVG Export Plug-In . SVG Version: 6.00 Build 0)  -->
<svg xmlns="http://www.w3.org/2000/svg" xmlns:xlink="http://www.w3.org/1999/xlink" version="1.1" id="Layer_1" x="0px" y="0px" viewBox="0 0 512 512" style="enable-background:new 0 0 512 512;" xml:space="preserve" width="512" height="512">
<path d="M501.313,377.013L339.687,51.845C316.735,5.632,260.666-13.225,214.452,9.727c-18.259,9.068-33.05,23.86-42.119,42.119  L10.708,377.013c-22.966,46.22-4.114,102.305,42.105,125.271c12.924,6.422,27.161,9.763,41.593,9.761h323.209  c51.611,0.005,93.454-41.829,93.459-93.44C511.076,404.174,507.734,389.938,501.313,377.013z M396.536,309.774H115.485  l42.328-85.167H354.25L396.536,309.774z M256.01,63.854c11.264-0.124,21.586,6.273,26.487,16.416l39.986,80.462H189.537  l39.986-80.462C234.433,70.135,244.749,63.741,256.01,63.854z M442.76,434.16c-5.337,8.765-14.884,14.085-25.146,14.01H94.406  c-16.333,0.001-29.575-13.24-29.575-29.573c0-4.566,1.057-9.07,3.088-13.159l15.798-31.789h344.586l15.798,31.789  C448.749,414.579,448.24,425.492,442.76,434.16L442.76,434.16z"/>
</svg>
