<svg id="Layer_1" height="512" viewBox="0 0 24 24" width="512" xmlns="http://www.w3.org/2000/svg" data-name="Layer 1"><path d="m23.148 5.7-2.868-3.873a4.374 4.374 0 0 0 -3.551-1.827h-9.458a4.355 4.355 0 0 0 -3.531 1.8l-2.94 3.921a4.346 4.346 0 0 0 .118 5.2l8.411 11.789a3.391 3.391 0 0 0 2.671 1.29 3.423 3.423 0 0 0 2.715-1.35l8.3-11.609a4.365 4.365 0 0 0 .133-5.341zm-19.921 1.787 2.934-3.916a1.367 1.367 0 0 1 1.11-.571h2.391l-1.48 5.182.085.318h7.466l.085-.318-1.48-5.182h2.391a1.381 1.381 0 0 1 1.125.592l2.879 3.89a1.318 1.318 0 0 1 .22 1.018h-5.22l-3.22 12.075-.193.271a.4.4 0 0 1 -.32.154.39.39 0 0 1 -.274-.094l-.241-.337-3.218-12.069h-5.226a1.306 1.306 0 0 1 .186-1.013z"/></svg>