<?xml version="1.0" encoding="UTF-8"?>
<!-- Generator: Adobe Illustrator 26.0.1, SVG Export Plug-In . SVG Version: 6.00 Build 0)  -->
<svg xmlns="http://www.w3.org/2000/svg" xmlns:xlink="http://www.w3.org/1999/xlink" version="1.1" id="Capa_1" x="0px" y="0px" viewBox="0 0 24 24" style="enable-background:new 0 0 24 24;" xml:space="preserve" width="512" height="512">
<g xmlns:cc="http://creativecommons.org/ns#" xmlns:dc="http://purl.org/dc/elements/1.1/" xmlns:inkscape="http://www.inkscape.org/namespaces/inkscape" xmlns:rdf="http://www.w3.org/1999/02/22-rdf-syntax-ns#" xmlns:sodipodi="http://sodipodi.sourceforge.net/DTD/sodipodi-0.dtd" xmlns:svg="http://www.w3.org/2000/svg" inkscape:version="0.48.1 r9760">
	<path d="M12.973,11.078h-4V7.212h4c0.667,0,1.177,0.145,1.53,0.431c0.353,0.286,0.529,0.785,0.529,1.49   c0,0.628-0.196,1.106-0.588,1.443C14.051,10.914,13.561,11.078,12.973,11.078z"/>
	<path d="M15.659,14.996c0,0.706-0.208,1.255-0.619,1.639c-0.408,0.388-0.989,0.58-1.733,0.58H8.972v-4.377h4.334   c0.745,0,1.318,0.18,1.733,0.557C15.455,13.772,15.659,14.302,15.659,14.996z"/>
	<path d="M20,0H4C1.8,0,0,1.8,0,4v16c0,2.2,1.8,4,4,4h16c2.2,0,4-1.8,4-4V4C24,1.8,22.2,0,20,0z M17.816,16.851   c-0.196,0.478-0.502,0.89-0.922,1.235c-0.42,0.345-0.953,0.62-1.608,0.824c-0.655,0.204-1.432,0.306-2.333,0.306H6.522v-14h6.804   c1.255,0,2.263,0.286,3.02,0.863c0.757,0.577,1.137,1.443,1.137,2.608c0,0.706-0.172,1.31-0.518,1.812   c-0.345,0.502-0.839,0.894-1.482,1.169v0.039c0.863,0.184,1.518,0.592,1.961,1.223c0.443,0.635,0.667,1.427,0.667,2.384   C18.11,15.863,18.012,16.376,17.816,16.851z"/>
</g>















</svg>
