<?xml version="1.0" encoding="UTF-8"?>
<!-- Generator: Adobe Illustrator 24.1.0, SVG Export Plug-In . SVG Version: 6.00 Build 0)  -->
<svg xmlns="http://www.w3.org/2000/svg" xmlns:xlink="http://www.w3.org/1999/xlink" version="1.1" id="Capa_1" x="0px" y="0px" viewBox="0 0 512 512" style="enable-background:new 0 0 512 512;" xml:space="preserve" width="512" height="512">
<g>
	<g id="XMLID_1_">
		<polygon points="512,249.98 487.77,249.98 478.42,303.08 458.99,303.08 468.31,249.98 457.22,249.98 448.62,237.63 470.51,237.63     473.73,219.2   "/>
		<path d="M424,236.16c13.4,0,26.11,7.36,22.53,28.05l-6.83,38.87h-19.43l6.48-36.93c1.62-9.38-1.26-16.53-11.88-16.53    c-7.7,0-13.8,4.65-16.7,9.71c-0.84,1.34-1.48,3.35-1.8,5.25l-6.76,38.5h-19.43l7.97-45.99c1.33-7.55,2.18-15.26,2.8-20.93    l17.11,10.11h0.45C402.79,241.19,411.86,236.16,424,236.16z"/>
		<path d="M338.18,236.16c24.96,0,30.03,17.49,27.54,31.81c-0.56,3.07-1.28,5.54-1.9,6.95h-51.35    c-1.54,11.86,8.34,17.05,20.76,17.05c8.91,0,19.43-3.31,27.71-9.24l-2.63,14.96c-8.44,4.71-18.88,6.8-30.01,6.8    c-24.92,0-37.25-14.68-33.77-34.73C297.66,251.71,313.47,236.16,338.18,236.16z M348.25,263.4c1.15-6.06-0.24-15.95-13.25-15.95    c-11.95,0-18.52,9.25-20.55,15.95H348.25z"/>
		<path d="M292.07,240.09l-3,17.79c-5.17-6.79-13.34-8.81-19.37-8.81c-14.83,0-26.18,9.23-28.21,21.22    c-2.32,13.42,7.68,21.12,20.91,21.12c6.51,0,15.66-1.51,22.4-8.76l-3.14,17.49c-4.31,1.6-15.74,4.35-25.32,4.35    c-24.06,0-38.29-14.7-34.77-35.01c3.41-19.58,22.74-33.28,49.73-33.3C281.22,236.18,287.89,238.49,292.07,240.09z"/>
		<path d="M190.89,236.16c13.4,0,26.11,7.36,22.57,28.05l-6.85,38.87h-19.43l6.51-36.93c1.62-9.38-1.26-16.53-11.87-16.53    c-7.72,0-13.82,4.65-16.72,9.71c-0.85,1.34-1.49,3.35-1.81,5.25l-6.77,38.5h-19.43l7.98-45.99c1.3-7.55,2.15-15.26,2.77-20.93    l17.11,10.11h0.45C169.69,241.19,178.75,236.16,190.89,236.16z"/>
		<path d="M105.07,236.16c24.96,0,30.03,17.49,27.54,31.81c-0.54,3.07-1.28,5.54-1.9,6.95H79.36c-1.56,11.86,8.32,17.05,20.76,17.05    c8.91,0,19.43-3.31,27.71-9.24l-2.62,14.96c-8.45,4.71-18.88,6.8-30.02,6.8c-24.92,0-37.25-14.68-33.77-34.73    C64.55,251.71,80.36,236.16,105.07,236.16z M115.14,263.4c1.13-6.06-0.24-15.95-13.25-15.95c-11.95,0-18.52,9.25-20.55,15.95    H115.14z"/>
		<polygon points="90.69,207.49 88.28,221.4 53.72,221.4 39.34,303.08 19.93,303.08 34.28,221.4 0,221.4 2.41,207.49   "/>
	</g>
</g>
</svg>
