<svg id="Layer_1" height="512" viewBox="0 0 24 24" width="512" xmlns="http://www.w3.org/2000/svg" data-name="Layer 1"><path d="m12 24a1.494 1.494 0 0 1 -.671-.159l-.38-.191c-2.097-1.05-8.949-4.979-8.949-11.499v-5.1a5.273 5.273 0 0 1 3.617-5.01l5.911-1.965a1.508 1.508 0 0 1 .944 0l5.911 1.96a5.273 5.273 0 0 1 3.617 5.01v5.1c0 7.37-6.922 10.728-9.043 11.581l-.394.159a1.49 1.49 0 0 1 -.563.114zm0-20.92-5.439 1.8a2.274 2.274 0 0 0 -1.561 2.166v5.1c0 4.607 5.143 7.705 7.068 8.7 1.9-.808 6.932-3.444 6.932-8.7v-5.1a2.274 2.274 0 0 0 -1.561-2.162zm1.5 9.42v-6a1.5 1.5 0 0 0 -3 0v6a1.5 1.5 0 0 0 3 0zm-1.5 2.5a1.5 1.5 0 1 0 1.5 1.5 1.5 1.5 0 0 0 -1.5-1.5z"/></svg>