<?xml version="1.0" encoding="UTF-8"?>
<svg xmlns="http://www.w3.org/2000/svg" id="Layer_1" data-name="Layer 1" viewBox="0 0 24 24" width="512" height="512"><path d="M20.8,6.19A4.576,4.576,0,0,0,16.505,3a6.657,6.657,0,0,0-5.459-3A6.284,6.284,0,0,0,4.9,5.035,5.506,5.506,0,0,0,0,10.5a6.5,6.5,0,0,0,6.163,6.483A17,17,0,0,1,7,22.5V24H17V22.5c0-4.74,1.479-7.249,1.69-7.582A4.5,4.5,0,0,0,20.8,6.19ZM9.952,21A19.744,19.744,0,0,0,9.1,16.313a9.4,9.4,0,0,0,1.726-1.156A5.342,5.342,0,0,0,13.5,16a5.237,5.237,0,0,0,1.535-.235A19.823,19.823,0,0,0,14.045,21ZM19.5,12A1.5,1.5,0,0,1,18,10.5V10H15v.5a4.451,4.451,0,0,0,.3,1.569A2.233,2.233,0,0,1,13.5,13a3.528,3.528,0,0,1-1.817-.915l-1.128-.993-.992,1.131A5.117,5.117,0,0,1,6.5,14,3.5,3.5,0,0,1,3,10.5,2.5,2.5,0,0,1,5.5,8,1.5,1.5,0,0,1,7,9.5V10h3V9.5A4.487,4.487,0,0,0,7.833,5.671,3.275,3.275,0,0,1,11.046,3a3.667,3.667,0,0,1,3.232,2.181L14.771,6.4l1.271-.326A1.837,1.837,0,0,1,16.5,6,1.581,1.581,0,0,1,18,7.5V9h1.5a1.5,1.5,0,0,1,0,3Z"/></svg>
