<?xml version="1.0" encoding="UTF-8"?>
<svg xmlns="http://www.w3.org/2000/svg" id="Bold" viewBox="0 0 24 24" width="512" height="512"><path d="M5.5,0h-2A3.5,3.5,0,0,0,0,3.5v2A3.494,3.494,0,0,0,2.99,8.948l0,.545A1.5,1.5,0,0,0,4.48,11h0A1.5,1.5,0,0,0,5.988,9.507l0-.557A3.485,3.485,0,0,0,8.948,6.01l.544,0A1.5,1.5,0,0,0,11,4.52h0A1.5,1.5,0,0,0,9.508,3.012l-.558,0A3.494,3.494,0,0,0,5.5,0ZM6,5.5a.5.5,0,0,1-.5.5h-2A.5.5,0,0,1,3,5.5v-2A.5.5,0,0,1,3.5,3h2a.5.5,0,0,1,.5.5Z"/><path d="M20.5,0h-2a3.494,3.494,0,0,0-3.448,2.99l-.544,0A1.5,1.5,0,0,0,13,4.48h0a1.5,1.5,0,0,0,1.492,1.508l.558,0a3.485,3.485,0,0,0,2.94,2.958l0,.545A1.5,1.5,0,0,0,19.48,11h0a1.5,1.5,0,0,0,1.508-1.493l0-.557A3.494,3.494,0,0,0,24,5.5v-2A3.5,3.5,0,0,0,20.5,0ZM21,5.5a.5.5,0,0,1-.5.5h-2a.5.5,0,0,1-.5-.5v-2a.5.5,0,0,1,.5-.5h2a.5.5,0,0,1,.5.5Z"/><path d="M21.01,15.052l0-.545A1.5,1.5,0,0,0,19.52,13h0a1.5,1.5,0,0,0-1.508,1.493l0,.557a3.485,3.485,0,0,0-2.957,2.94l-.544,0A1.5,1.5,0,0,0,13,19.48h0a1.5,1.5,0,0,0,1.492,1.508l.558,0A3.494,3.494,0,0,0,18.5,24h2A3.5,3.5,0,0,0,24,20.5v-2A3.494,3.494,0,0,0,21.01,15.052ZM21,20.5a.5.5,0,0,1-.5.5h-2a.5.5,0,0,1-.5-.5v-2a.5.5,0,0,1,.5-.5h2a.5.5,0,0,1,.5.5Z"/><path d="M6.01,15.052l0-.545A1.5,1.5,0,0,0,4.52,13h0a1.5,1.5,0,0,0-1.508,1.493l0,.557A3.494,3.494,0,0,0,0,18.5v2A3.5,3.5,0,0,0,3.5,24h2a3.494,3.494,0,0,0,3.448-2.99l.544,0A1.5,1.5,0,0,0,11,19.52h0a1.5,1.5,0,0,0-1.492-1.508l-.558,0A3.485,3.485,0,0,0,6.01,15.052ZM6,20.5a.5.5,0,0,1-.5.5h-2a.5.5,0,0,1-.5-.5v-2a.5.5,0,0,1,.5-.5h2a.5.5,0,0,1,.5.5Z"/></svg>
