<svg id="Layer_1" height="512" viewBox="0 0 24 24" width="512" xmlns="http://www.w3.org/2000/svg" data-name="Layer 1"><path d="m12 0a12 12 0 1 0 12 12 12.013 12.013 0 0 0 -12-12zm8.617 9.415-2.871.861a6.007 6.007 0 0 0 -4.022-4.022l.861-2.871a9.027 9.027 0 0 1 6.032 6.032zm-7.879 6.216a.922.922 0 0 1 -1.476 0l-1.893-2.523a1.848 1.848 0 0 1 0-2.216l1.893-2.523a.922.922 0 0 1 1.476 0l1.893 2.523a1.848 1.848 0 0 1 0 2.216zm-3.323-12.248.861 2.871a6.007 6.007 0 0 0 -4.022 4.022l-2.871-.861a9.031 9.031 0 0 1 6.032-6.032zm-6.032 11.2 2.871-.861a6.009 6.009 0 0 0 4.022 4.022l-.861 2.871a9.031 9.031 0 0 1 -6.032-6.03zm11.2 6.032-.861-2.871a6.009 6.009 0 0 0 4.022-4.022l2.871.861a9.027 9.027 0 0 1 -6.03 6.034z"/></svg>