<?xml version="1.0" encoding="UTF-8"?>
<svg xmlns="http://www.w3.org/2000/svg" id="Layer_1" data-name="Layer 1" viewBox="0 0 24 24" width="512" height="512"><path d="M22.5,21H5.5A2.5,2.5,0,0,1,3,18.5V1.5a1.5,1.5,0,0,0-3,0v17A5.506,5.506,0,0,0,5.5,24h17a1.5,1.5,0,0,0,0-3Z"/><path d="M22.5,3.976H19.414a1,1,0,0,0-.707,1.707l.733.732h0L15.853,10a.5.5,0,0,1-.708,0l-.17-.17a3.583,3.583,0,0,0-4.95,0l-4.1,4.1a1.5,1.5,0,1,0,2.121,2.121l4.1-4.1a.5.5,0,0,1,.708,0l.17.17a3.585,3.585,0,0,0,4.95,0l3.586-3.585h0l.732.733A1,1,0,0,0,24,8.562V5.476A1.5,1.5,0,0,0,22.5,3.976Z"/></svg>
