<?xml version="1.0" encoding="UTF-8"?>
<svg xmlns="http://www.w3.org/2000/svg" id="Layer_1" data-name="Layer 1" viewBox="0 0 24 24" width="512" height="512"><path d="M8.5,22.437a1.5,1.5,0,0,1-.88-2.715c2.512-1.82,2.865-5.181,2.878-8.229A1.5,1.5,0,0,1,12,10h.006A1.5,1.5,0,0,1,13.5,11.507c-.01,2.3-.033,7.686-4.12,10.644A1.487,1.487,0,0,1,8.5,22.437Zm6.028.994A14,14,0,0,0,16.513,20.1a1.5,1.5,0,1,0-2.762-1.174A10.925,10.925,0,0,1,12.2,21.542a1.5,1.5,0,0,0,2.331,1.889Zm3.408-9.838C18,12.572,18,11.663,18,11a6,6,0,0,0-8-5.658A1.5,1.5,0,1,0,11,8.17,3,3,0,0,1,15,11c0,.659,0,1.479-.058,2.407A1.5,1.5,0,0,0,16.347,15q.046,0,.093,0A1.5,1.5,0,0,0,17.937,13.593ZM4.691,18.956a4.745,4.745,0,0,0,1.846-.618C8.978,16.873,8.99,13.771,9,11.506A1.5,1.5,0,0,0,7.505,10H7.5A1.5,1.5,0,0,0,6,11.494c-.009,2.385-.172,3.772-1,4.271a1.823,1.823,0,0,1-.686.216A1.5,1.5,0,0,0,4.5,18.969,1.4,1.4,0,0,0,4.691,18.956Zm16.028,4.172A28.7,28.7,0,0,0,23,11a10.946,10.946,0,0,0-.774-4.054,1.5,1.5,0,1,0-2.788,1.108A7.937,7.937,0,0,1,20,11a25.906,25.906,0,0,1-2.006,10.872,1.5,1.5,0,0,0,2.725,1.256ZM4,12.5V11A8,8,0,0,1,15.787,3.954a1.5,1.5,0,0,0,1.426-2.639A11,11,0,0,0,1,11v1.5a1.5,1.5,0,0,0,3,0Z"/></svg>
