<?xml version="1.0" encoding="UTF-8"?>
<!-- Generator: Adobe Illustrator 26.0.1, SVG Export Plug-In . SVG Version: 6.00 Build 0)  -->
<svg xmlns="http://www.w3.org/2000/svg" xmlns:xlink="http://www.w3.org/1999/xlink" version="1.1" id="Capa_1" x="0px" y="0px" viewBox="0 0 24 24" style="enable-background:new 0 0 24 24;" xml:space="preserve" width="512" height="512">
<g>
	<path d="M21.879,10.124v0.468h0.32c0.021-0.001,0.043,0.005,0.06,0.018c0.039,0.03,0.047,0.086,0.017,0.126   c-0.007,0.01-0.888,1.046-0.899,1.056c-0.011,0.01-0.018,0.008-0.026-0.003c-0.008-0.011-0.879-1.053-0.879-1.053   c-0.061-0.075-0.013-0.144,0.059-0.144h0.312v-0.468h-2.587v0.469h0.458c0.2,0,0.332,0.126,0.407,0.208   c0.06,0.067,1.38,1.564,1.412,1.603c0.032,0.039,0.032,0.04,0.032,0.065v0.742c0,0.034-0.003,0.068-0.01,0.101   c-0.019,0.044-0.056,0.077-0.102,0.09c-0.043,0.005-0.087,0.008-0.131,0.008l-0.459,0v0.469h2.574V13.41h-0.484   c-0.043,0-0.087-0.002-0.13-0.008c-0.045-0.014-0.083-0.047-0.101-0.09c-0.007-0.033-0.01-0.067-0.011-0.101v-0.741   c-0.003-0.024,0.003-0.049,0.017-0.069l1.428-1.629c0.131-0.146,0.199-0.178,0.371-0.178H24v-0.469H21.879z"/>
	<path d="M4.176,11.754c-0.15-0.068-0.307-0.122-0.467-0.163c-0.304-0.074-0.988-0.168-1.315-0.2   c-0.343-0.036-0.937-0.085-1.175-0.158c-0.072-0.023-0.219-0.092-0.219-0.263c0-0.121,0.067-0.224,0.2-0.307   c0.211-0.132,0.636-0.214,1.08-0.214c0.429-0.005,0.855,0.078,1.251,0.244c0.106,0.046,0.206,0.106,0.298,0.178   c0.149,0.127,0.252,0.299,0.293,0.491h0.474v-1.287H4.068v0.149c0,0.048-0.048,0.111-0.144,0.059   c-0.238-0.124-0.907-0.392-1.728-0.395c-0.465,0-0.994,0.087-1.44,0.288C0.339,10.362,0,10.661,0,11.157   c-0.001,0.26,0.098,0.51,0.276,0.699c0.12,0.111,0.315,0.3,0.823,0.412c0.227,0.048,0.712,0.125,1.196,0.176   c0.483,0.051,0.952,0.096,1.144,0.147c0.153,0.039,0.409,0.092,0.409,0.38s-0.27,0.374-0.317,0.393   c-0.047,0.019-0.372,0.168-0.954,0.168c-0.386-0.011-0.769-0.077-1.136-0.195c-0.217-0.078-0.445-0.18-0.658-0.44   c-0.086-0.122-0.133-0.267-0.137-0.417H0.117v1.478h0.587v-0.2c0-0.046,0.037-0.084,0.083-0.084c0.015,0,0.031,0.004,0.044,0.012   c0.276,0.12,0.564,0.213,0.858,0.277c0.308,0.064,0.507,0.111,0.89,0.111c0.404,0.008,0.807-0.049,1.193-0.168   c0.256-0.07,0.497-0.189,0.709-0.35c0.242-0.186,0.382-0.474,0.38-0.778c0.002-0.285-0.108-0.56-0.307-0.765   C4.444,11.906,4.316,11.818,4.176,11.754z"/>
	<path d="M10.77,10.631c-0.563-0.511-1.3-0.743-2.22-0.743c-0.832,0-1.715,0.288-2.214,0.742c-0.385,0.35-0.604,0.847-0.602,1.368   c-0.006,0.523,0.213,1.023,0.602,1.372c0.538,0.483,1.344,0.743,2.214,0.743c0.872,0,1.695-0.256,2.22-0.743   c0.377-0.357,0.592-0.853,0.594-1.372C11.37,11.478,11.154,10.981,10.77,10.631z M9.739,13.099   c-0.299,0.298-0.727,0.457-1.188,0.457c-0.458,0-0.895-0.163-1.19-0.457c-0.285-0.296-0.441-0.693-0.432-1.104   c0-0.423,0.147-0.822,0.432-1.104c0.295-0.292,0.735-0.454,1.19-0.454s0.893,0.164,1.188,0.454   c0.286,0.281,0.435,0.679,0.435,1.104C10.174,12.441,10.038,12.802,9.739,13.099z"/>
	<path d="M15.594,10.593h0.485c0.223,0,0.26,0.086,0.263,0.292l0.026,1.568l-2.58-2.328h-1.845v0.469h0.411   c0.297,0,0.317,0.165,0.317,0.309V13.1c0,0.132,0.008,0.312-0.181,0.312h-0.507v0.469h2.164v-0.469h-0.528   c-0.211,0-0.22-0.096-0.223-0.301v-1.882l2.973,2.652h0.756l-0.04-2.996c0.004-0.219,0.017-0.292,0.244-0.292h0.474v-0.469h-2.208   V10.593z"/>
</g>















</svg>
