<?xml version="1.0" encoding="UTF-8"?>
<svg xmlns="http://www.w3.org/2000/svg" id="Layer_1" data-name="Layer 1" viewBox="0 0 24 24" width="512" height="512"><path d="M19.084,9.034a33.631,33.631,0,0,0-5.282,1.1c.69-2.072,2.583-3.145,5.2-3.145A2,2,0,1,0,19,3c-3.314,0-5.5,2.7-5.5,6V1.5a1.5,1.5,0,0,0-3,0V9C10.5,5.7,8.314,3,5,3A2,2,0,1,0,5,6.994c2.615,0,4.508,1.073,5.2,3.145a33.631,33.631,0,0,0-5.282-1.1,4.106,4.106,0,0,0-3.27,1.012A5.076,5.076,0,0,0,0,13.875C0,23.27,5.476,24,7.154,24a5.56,5.56,0,0,0,3.283-1.287A2.959,2.959,0,0,1,12,21.967a2.964,2.964,0,0,1,1.564.746A5.557,5.557,0,0,0,16.847,24C18.524,24,24,23.27,24,13.875a5.076,5.076,0,0,0-1.646-3.829A4.1,4.1,0,0,0,19.084,9.034ZM16.847,21a2.967,2.967,0,0,1-1.565-.746A5.56,5.56,0,0,0,12,18.967a5.566,5.566,0,0,0-3.283,1.287A2.959,2.959,0,0,1,7.154,21C3.721,21,3,17.125,3,13.875a2.116,2.116,0,0,1,.631-1.58,1.128,1.128,0,0,1,.913-.285,29.349,29.349,0,0,1,6.877,1.711,1.509,1.509,0,0,0,1.158,0,29.349,29.349,0,0,1,6.878-1.711,1.124,1.124,0,0,1,.912.285A2.116,2.116,0,0,1,21,13.875C21,17.125,20.279,21,16.847,21Z"/><path d="M17.83,14.523C15.309,15.1,12,16.148,12,16.148c2.009.213,4.056,2.051,5.114,2.345,1.109.308,1.527-.844,1.867-2.725A1.02,1.02,0,0,0,17.83,14.523Z"/><path d="M5.019,15.768c.34,1.881.758,3.033,1.867,2.725,1.058-.294,3.1-2.132,5.114-2.345,0,0-3.309-1.052-5.83-1.625A1.02,1.02,0,0,0,5.019,15.768Z"/></svg>
