<?xml version="1.0" encoding="UTF-8"?>
<svg xmlns="http://www.w3.org/2000/svg" id="Layer_1" data-name="Layer 1" viewBox="0 0 24 24" width="512" height="512"><circle cx="9.5" cy="11.5" r="1.5"/><circle cx="14.5" cy="11.5" r="1.5"/><path d="M24,11a3.988,3.988,0,0,0-2.64-3.767A9.727,9.727,0,0,0,12.444.019V0c-.042,0-.082.012-.124.014C12.212.01,12.107,0,12,0A9.727,9.727,0,0,0,2.64,7.233a4,4,0,0,0,.983,7.749,8.971,8.971,0,0,0,.866,1.72A4.982,4.982,0,0,0,2,21v3H5V21a1.994,1.994,0,0,1,1.63-1.949A8.77,8.77,0,0,0,12,21a8.775,8.775,0,0,0,5.385-1.961A2,2,0,0,1,19,21v3h3V21a4.982,4.982,0,0,0-2.489-4.3,8.971,8.971,0,0,0,.866-1.72A4.006,4.006,0,0,0,24,11Zm-5.961,1-.255,1.186A6.262,6.262,0,0,1,12,18a6.262,6.262,0,0,1-5.784-4.814L5.961,12H4a1,1,0,0,1-.034-2l1.252-.045L5.4,8.714a6.66,6.66,0,0,1,2.62-4.378c0,.055-.016.108-.016.164a4.5,4.5,0,0,0,7.683,3.182L13.56,5.561a1.535,1.535,0,0,1-2.121,0,1.484,1.484,0,0,1,.955-2.542,6.7,6.7,0,0,1,6.21,5.7l.178,1.24L20.034,10A1,1,0,0,1,20,12Z"/></svg>
