<?xml version="1.0" encoding="UTF-8"?>
<svg xmlns="http://www.w3.org/2000/svg" viewBox="0 0 24 24" width="512" height="512"><defs><style>.cls-1{isolation:isolate;}</style></defs><g id="Foursquare"><g class="cls-1"><path d="M6.009,4.344h4.514v.741H6.758V7.159h3.347V7.9H6.758v3H6.009Z"/><path d="M5.878,17.3l.732-.166a1.621,1.621,0,0,0,1.778,1.447c.915,0,1.638-.427,1.638-1.124,0-.5-.366-.915-1.795-1.342C6.61,15.656,6.07,15.063,6.07,14.192c0-1.124.906-1.726,2.222-1.726a2.128,2.128,0,0,1,2.353,1.778l-.732.166a1.467,1.467,0,0,0-1.647-1.2c-.837,0-1.429.314-1.429.915,0,.488.383.863,1.708,1.281,1.577.488,2.257,1.02,2.257,2.031,0,1.254-1.055,1.908-2.4,1.908A2.3,2.3,0,0,1,5.878,17.3Z"/><path d="M11.7,15.917a3.22,3.22,0,1,1,6.423,0,3.589,3.589,0,0,1-.863,2.414c.262.262.514.523.767.8l-.54.523c-.262-.279-.532-.558-.8-.828A3.249,3.249,0,0,1,11.7,15.917Zm4.419,2.353c-.253-.244-.506-.479-.767-.706l.523-.531c.278.244.557.5.819.749a2.887,2.887,0,0,0,.627-1.874,2.417,2.417,0,1,0-4.8,0,2.464,2.464,0,0,0,2.4,2.685A2.211,2.211,0,0,0,16.118,18.27Z"/></g></g></svg>
