<?xml version="1.0" encoding="UTF-8"?>
<svg xmlns="http://www.w3.org/2000/svg" id="Layer_1" data-name="Layer 1" viewBox="0 0 24 24" width="512" height="512"><path d="M14.3,14.923A10.7,10.7,0,0,1,9.088,9.694l2.964-2.963L5.41.09,1.766,3.734A6.055,6.055,0,0,0,0,8.058C0,15.209,8.791,24,15.942,24a6.058,6.058,0,0,0,4.323-1.765L23.91,18.59l-6.641-6.642Zm3.848,5.191a3.076,3.076,0,0,1-2.2.886C10.949,21,3,13.934,3,8.058a3.08,3.08,0,0,1,.886-2.2L5.41,4.332l2.4,2.4L5.541,9l.369.919a13.939,13.939,0,0,0,8.2,8.182l.909.346,2.255-2.256,2.4,2.4ZM15,8V2.5l2.189,2.189L21.814.064l2.122,2.122L19.311,6.811,21.5,9H16A1,1,0,0,1,15,8Z"/></svg>
