<?xml version="1.0" encoding="UTF-8"?>
<!-- Generator: Adobe Illustrator 26.0.1, SVG Export Plug-In . SVG Version: 6.00 Build 0)  -->
<svg xmlns="http://www.w3.org/2000/svg" xmlns:xlink="http://www.w3.org/1999/xlink" version="1.1" id="Capa_1" x="0px" y="0px" viewBox="0 0 24 24" style="enable-background:new 0 0 24 24;" xml:space="preserve" width="512" height="512">
<path d="M5.928,15.769c0.005,0.015,0.13,0.358,0.202,0.529c0.395,0.935,0.962,1.775,1.683,2.497  c0.721,0.721,1.561,1.287,2.497,1.683c0.969,0.41,1.998,0.618,3.058,0.618c1.06,0,2.089-0.208,3.058-0.618  c0.936-0.396,1.776-0.962,2.497-1.683c0.721-0.721,1.288-1.561,1.683-2.497c0.41-0.969,0.618-1.998,0.618-3.058  c0-1.06-0.208-2.089-0.618-3.058c-0.396-0.936-0.962-1.776-1.683-2.497c-0.721-0.721-1.561-1.287-2.497-1.683  c-0.969-0.41-1.998-0.618-3.058-0.618c-1.073,0-2.145,0.214-3.1,0.618C9.504,6.324,8.212,7.156,7.455,7.936L7.451,7.941V1.475  l10.86,0c0.395-0.004,0.395-0.556,0.395-0.738c0-0.181,0-0.733-0.396-0.738L6.567,0c-0.32,0-0.518,0.266-0.518,0.512v9.1  c0,0.294,0.366,0.506,0.706,0.578c0.664,0.142,0.817-0.07,0.979-0.295l0.022-0.03C8.004,9.498,8.779,8.717,8.787,8.71  c1.21-1.21,2.828-1.876,4.556-1.876c1.719,0,3.333,0.666,4.543,1.876c1.214,1.214,1.883,2.823,1.883,4.53  c0,1.713-0.665,3.322-1.873,4.53c-1.192,1.192-2.858,1.876-4.57,1.876c-1.16,0-2.279-0.309-3.238-0.894l0.004-5.533  c0-0.738,0.32-1.54,0.856-2.146c0.613-0.692,1.458-1.074,2.379-1.074c0.892,0,1.725,0.339,2.346,0.954  c0.616,0.611,0.956,1.424,0.956,2.291c0,1.849-1.454,3.298-3.31,3.298c-0.358,0-1.008-0.158-1.035-0.165  c-0.375-0.112-0.534,0.409-0.587,0.58c-0.202,0.66,0.101,0.79,0.164,0.81c0.597,0.185,0.989,0.221,1.503,0.221  c2.62,0,4.752-2.133,4.752-4.754c0-2.601-2.13-4.716-4.749-4.716c-1.282,0-2.487,0.49-3.392,1.38  c-0.862,0.848-1.356,1.978-1.356,3.101l0,0.028c-0.004,0.14-0.007,3.457-0.008,4.546l-0.005-0.005  c-0.493-0.545-0.979-1.38-1.302-2.233c-0.127-0.334-0.412-0.275-0.802-0.155c-0.17,0.052-0.689,0.212-0.574,0.587L5.928,15.769z   M11.51,14.469c0.002,0.159,0.147,0.298,0.234,0.382l0.027,0.026c0.149,0.147,0.291,0.221,0.422,0.221  c0.108,0,0.175-0.051,0.199-0.073c0.066-0.061,0.809-0.814,0.879-0.886l0.828,0.826c0.077,0.086,0.16,0.13,0.257,0.132  c0.132,0,0.276-0.079,0.428-0.234c0.358-0.365,0.179-0.562,0.092-0.657l-0.839-0.84l0.875-0.882  c0.192-0.208,0.022-0.428-0.147-0.598c-0.246-0.246-0.482-0.309-0.634-0.169l-0.87,0.872l-0.88-0.88  c-0.047-0.045-0.105-0.068-0.17-0.068c-0.117,0-0.256,0.079-0.413,0.236c-0.271,0.271-0.329,0.458-0.188,0.607l0.88,0.878  l-0.875,0.877C11.545,14.312,11.509,14.389,11.51,14.469z M13.429,2.571c-1.407,0-2.904,0.284-4.004,0.76  c-0.118,0.046-0.188,0.14-0.203,0.273c-0.014,0.125,0.019,0.29,0.103,0.505c0.068,0.174,0.249,0.637,0.6,0.503  c1.126-0.429,2.37-0.666,3.504-0.666c1.285,0,2.531,0.251,3.703,0.747c0.932,0.394,1.811,0.964,2.767,1.792  c0.07,0.06,0.144,0.091,0.22,0.091c0.186,0,0.365-0.183,0.518-0.355c0.255-0.286,0.43-0.524,0.179-0.762  c-0.913-0.865-1.913-1.511-3.148-2.033C16.325,2.859,14.899,2.571,13.429,2.571z M21.011,19.948L21.011,19.948  c-0.169-0.169-0.313-0.269-0.44-0.305c-0.128-0.037-0.243-0.009-0.331,0.079l-0.083,0.083c-0.872,0.872-1.888,1.557-3.019,2.035  c-1.17,0.495-2.414,0.746-3.696,0.746c-1.282,0-2.526-0.251-3.696-0.746c-1.131-0.478-2.146-1.163-3.019-2.035  c-0.909-0.909-1.593-1.924-2.035-3.018c-0.431-1.067-0.571-1.869-0.618-2.133c-0.004-0.025-0.008-0.044-0.01-0.058  c-0.059-0.31-0.345-0.332-0.756-0.269c-0.171,0.026-0.691,0.106-0.641,0.48l0.001,0.009c0.138,0.866,0.381,1.715,0.723,2.523  c0.55,1.299,1.336,2.466,2.338,3.467c1.002,1.002,2.168,1.788,3.467,2.337C10.541,23.711,11.97,24,13.442,24  c1.472,0,2.901-0.289,4.246-0.858c1.299-0.549,2.465-1.336,3.467-2.338c0.002-0.002,0.057-0.057,0.087-0.089  C21.353,20.595,21.449,20.385,21.011,19.948z"/>















</svg>
