<?xml version="1.0" encoding="UTF-8"?>
<!-- Generator: Adobe Illustrator 26.0.1, SVG Export Plug-In . SVG Version: 6.00 Build 0)  -->
<svg xmlns="http://www.w3.org/2000/svg" xmlns:xlink="http://www.w3.org/1999/xlink" version="1.1" id="Capa_1" x="0px" y="0px" viewBox="0 0 24 24" style="enable-background:new 0 0 24 24;" xml:space="preserve" width="512" height="512">
<g>
	<path d="M19.75,0.3H4.25C1.903,0.3,0,2.203,0,4.55v14.9c0,2.347,1.903,4.25,4.25,4.25h15.5c2.347,0,4.25-1.903,4.25-4.25V4.55   C24,2.203,22.097,0.3,19.75,0.3z M11.892,6.583L11.888,8.37c0,0.097-0.037,0.128-0.112,0.097c-0.302-0.139-0.621-0.234-0.95-0.282   c-0.389-0.061-0.782-0.09-1.175-0.089C8.431,8.102,7.216,8.608,6.607,9.73c-0.502,0.923-0.547,2.145-0.217,3.131   c0.227,0.68,0.73,1.301,1.36,1.642c0.603,0.327,1.264,0.502,1.95,0.504c0.519,0.002,1.518,0.073,1.963-0.263   c0.043-0.032,0.075-0.04,0.097-0.024c0.026,0.028,0.037,0.067,0.032,0.105v1.658c0.013,0.096-0.04,0.188-0.129,0.225   c-0.315,0.11-0.642,0.183-0.974,0.217c-0.414,0.05-0.831,0.074-1.249,0.072c-0.6,0.003-1.198-0.07-1.779-0.217   c-0.544-0.137-1.063-0.359-1.537-0.66c-0.457-0.291-0.86-0.658-1.191-1.086c-0.344-0.45-0.605-0.957-0.773-1.497   c-0.186-0.631-0.273-1.288-0.26-1.946c0-1.084,0.222-2.022,0.695-2.844c0.471-0.82,1.17-1.486,2.012-1.916   c0.869-0.456,1.935-0.713,3.137-0.713c0.417-0.004,0.833,0.017,1.248,0.064c0.281,0.035,0.556,0.105,0.82,0.207   C11.871,6.435,11.902,6.509,11.892,6.583z M19.696,16.243c-0.483,0.182-0.88,0.359-1.256,0.466   c-0.358,0.104-0.724,0.179-1.094,0.225c-0.374,0.044-0.75,0.066-1.127,0.064c-0.558,0.008-1.113-0.09-1.634-0.29   c-0.481-0.178-0.905-0.484-1.225-0.885c-0.301-0.397-0.451-0.901-0.451-1.513c0-0.58,0.158-1.063,0.475-1.449   c0.317-0.386,0.791-0.676,1.338-0.869c0.607-0.202,1.244-0.3,1.884-0.29h0.588c0.121-0.003,0.242,0.002,0.362,0.016v-0.097   c-0.006-0.096-0.025-0.191-0.056-0.282c-0.043-0.131-0.118-0.25-0.217-0.346c-0.127-0.138-0.284-0.245-0.459-0.314   c-0.258-0.078-0.527-0.113-0.797-0.105c-0.389-0.003-0.778,0.035-1.159,0.112c-0.354,0.075-0.712,0.275-1.013,0.404   c-0.031,0.011-0.065,0.011-0.097,0c-0.033-0.012-0.053-0.045-0.048-0.081V9.336c-0.006-0.077,0.04-0.15,0.112-0.177   c0.354-0.161,0.785-0.249,1.23-0.329c0.433-0.08,0.872-0.12,1.312-0.121c0.794,0,1.436,0.145,1.924,0.434   c0.488,0.29,0.819,0.617,1.055,1.111c0.241,0.519,0.362,1.086,0.354,1.658v3.107c0,0.204,0.003,0.397,0.008,0.58   c0.005,0.182,0.013,0.37,0.024,0.563C19.728,16.206,19.718,16.232,19.696,16.243z M16.75,13.392c-0.58,0-0.966,0.086-1.208,0.258   c-0.241,0.172-0.362,0.361-0.362,0.661c-0.001,0.152,0.046,0.3,0.137,0.421c0.11,0.171,0.266,0.307,0.451,0.392   c0.21,0.091,0.451,0.091,0.773,0.091c0.183,0.001,0.366-0.013,0.547-0.04c0.145-0.023,0.289-0.059,0.429-0.105v-1.614   c-0.129-0.022-0.214-0.037-0.332-0.048C17.066,13.397,16.921,13.392,16.75,13.392z"/>
</g>















</svg>
