<?xml version="1.0" encoding="UTF-8"?>
<svg xmlns="http://www.w3.org/2000/svg" id="Layer_1" data-name="Layer 1" viewBox="0 0 24 24" width="512" height="512"><path d="M17.5,24C9.351,24.23-5.077,9.785,1.863,1.938,1.888,1.914,2.954.984,2.954.984a3.5,3.5,0,0,1,4.907.041l2.153,2.319a3.522,3.522,0,0,1-.039,4.909l-.389.394a11.6,11.6,0,0,0,5.756,5.777l.41-.4a3.583,3.583,0,0,1,4.945,0L22.935,16.1a3.509,3.509,0,0,1,.081,4.946s-.93,1.067-.954,1.092A6.4,6.4,0,0,1,17.5,24ZM3.95,4.1C-.91,10.117,14.643,24.773,19.905,20.05c0,0,.924-1.059.949-1.084a.482.482,0,0,0,0-.706l-2.238-2.074c-.3-.25-.468-.253-.748-.04l-1.135,1.117a1.5,1.5,0,0,1-1.587.332A14.849,14.849,0,0,1,6.414,8.878a1.5,1.5,0,0,1,.322-1.611L7.845,6.14a.482.482,0,0,0,.009-.715L5.7,3.106a.5.5,0,0,0-.668.04C5.009,3.171,3.95,4.1,3.95,4.1Zm19.7,6.833A8.543,8.543,0,0,0,13.071.353a1.5,1.5,0,1,0,.858,2.875,5.535,5.535,0,0,1,6.843,6.844,1.5,1.5,0,0,0,1.01,1.866,1.519,1.519,0,0,0,.429.062A1.5,1.5,0,0,0,23.647,10.928Zm-5.586.133a1.5,1.5,0,0,0,0-2.122L17,7.879V6.5a1.5,1.5,0,0,0-3,0v2a1.5,1.5,0,0,0,.439,1.061l1.5,1.5a1.5,1.5,0,0,0,2.122,0Z"/></svg>
