<?xml version="1.0" encoding="UTF-8"?>
<svg xmlns="http://www.w3.org/2000/svg" id="Layer_1" data-name="Layer 1" viewBox="0 0 24 24" width="512" height="512"><path d="M23.077,7.508a21.712,21.712,0,0,1-4.23-.233l4.214-4.214L20.939.939,16.725,5.154A21.727,21.727,0,0,1,16.492.923C16.5.6,16.5.29,16.5,0h-3c0,.279,0,.576-.007.886-.012.964-.021,2.011.051,3.047A6.954,6.954,0,0,0,4.911,5.251C1.644,8.519-1.555,20.653.9,23.105a4.832,4.832,0,0,0,3.309.866c4.6,0,12.084-2.422,14.544-4.882a6.954,6.954,0,0,0,1.321-8.628c.637.044,1.278.056,1.9.056.389,0,.772,0,1.142-.01.31,0,.607-.007.886-.007v-3C23.71,7.5,23.4,7.5,23.077,7.508Zm-6.45,9.46c-2.657,2.657-11.546,4.5-13.566,3.971C2.531,18.92,4.375,10.03,7.032,7.373c2.207-2.2,4.939-1.712,8.123,1.472S18.834,14.761,16.627,16.968Zm-2.991-6.6a1.243,1.243,0,0,1,0,1.757A8.2,8.2,0,0,1,11,13a8.2,8.2,0,0,1,.879-2.636A1.243,1.243,0,0,1,13.636,10.364Zm-7,7a1.243,1.243,0,0,1,0,1.757A8.2,8.2,0,0,1,4,20a8.2,8.2,0,0,1,.879-2.636A1.243,1.243,0,0,1,6.636,17.364Zm8.243-4a1.242,1.242,0,1,1,1.757,1.757A8.2,8.2,0,0,1,14,16,8.2,8.2,0,0,1,14.879,13.364ZM10.636,9.121A8.2,8.2,0,0,1,8,10a8.2,8.2,0,0,1,.879-2.636,1.242,1.242,0,1,1,1.757,1.757Zm-2,3.243a1.243,1.243,0,0,1,0,1.757A8.2,8.2,0,0,1,6,15a8.2,8.2,0,0,1,.879-2.636A1.243,1.243,0,0,1,8.636,12.364Zm3,3a1.243,1.243,0,0,1,0,1.757A8.2,8.2,0,0,1,9,18a8.2,8.2,0,0,1,.879-2.636A1.243,1.243,0,0,1,11.636,15.364Z"/></svg>
