<?xml version="1.0" encoding="UTF-8"?>
<svg xmlns="http://www.w3.org/2000/svg" id="Layer_1" data-name="Layer 1" viewBox="0 0 24 24" width="512" height="512"><path d="M22,12.853C22,8.475,16.611,2.774,14,.7a3.2,3.2,0,0,0-4,0C6.906,3.157,2,8.613,2,12.789,2,16.271,4.416,19,7.5,19a6.285,6.285,0,0,0,2.946-.759C9.654,20.2,9,21,5,21v3H19V21c-4,0-4.654-.8-5.446-2.76A6.277,6.277,0,0,0,16.5,19C19.636,19,22,16.357,22,12.853Zm-8.782,1.272-1.209-1.669-1.222,1.662A4.768,4.768,0,0,1,7.5,16C5.876,16,5,14.346,5,12.789c0-2.524,3.618-7.16,6.866-9.741a.211.211,0,0,1,.269,0C15.382,5.63,19,10.291,19,12.853,19,14.646,17.925,16,16.5,16A4.766,4.766,0,0,1,13.218,14.125Z"/></svg>
