<?xml version="1.0" encoding="UTF-8"?>
<!-- Generator: Adobe Illustrator 26.0.1, SVG Export Plug-In . SVG Version: 6.00 Build 0)  -->
<svg xmlns="http://www.w3.org/2000/svg" xmlns:xlink="http://www.w3.org/1999/xlink" version="1.1" id="Capa_1" x="0px" y="0px" viewBox="0 0 24 24" style="enable-background:new 0 0 24 24;" xml:space="preserve" width="512" height="512">
<g id="W_Mark_2_">
	<path d="M12,0.72c1.523,0,3,0.298,4.39,0.886c2.671,1.13,4.874,3.333,6.003,6.003C22.982,9,23.28,10.477,23.28,12   s-0.298,3-0.886,4.39c-1.116,2.639-3.35,4.881-6.003,6.003C15,22.982,13.523,23.28,12,23.28c-1.523,0-3-0.298-4.39-0.886   c-2.638-1.116-4.881-3.351-6.003-6.003C1.018,15,0.72,13.523,0.72,12c0-1.523,0.298-3,0.886-4.39   C2.736,4.939,4.94,2.735,7.61,1.606C9,1.018,10.477,0.72,12,0.72 M12,0C5.373,0,0,5.373,0,12c0,6.627,5.373,12,12,12   s12-5.373,12-12C24,5.373,18.627,0,12,0L12,0z"/>
	<path d="M2,12c0,3.958,2.3,7.379,5.636,9L2.866,7.93C2.311,9.174,2,10.55,2,12z M18.751,11.495c0-1.236-0.444-2.092-0.824-2.758   c-0.507-0.824-0.982-1.521-0.982-2.345c0-0.919,0.697-1.775,1.679-1.775c0.044,0,0.086,0.005,0.129,0.008   C16.974,2.995,14.603,2,12,2C8.506,2,5.433,3.793,3.645,6.507C3.88,6.515,4.101,6.519,4.288,6.519c1.046,0,2.665-0.127,2.665-0.127   c0.539-0.032,0.602,0.76,0.064,0.824c0,0-0.542,0.063-1.144,0.095l3.641,10.832l2.189-6.563l-1.558-4.269   C9.607,7.28,9.096,7.216,9.096,7.216C8.557,7.184,8.621,6.361,9.16,6.392c0,0,1.651,0.127,2.634,0.127   c1.046,0,2.666-0.127,2.666-0.127c0.539-0.032,0.602,0.76,0.064,0.824c0,0-0.542,0.063-1.144,0.095l3.614,10.749l1.032-3.269   C18.482,13.363,18.751,12.351,18.751,11.495z M12.176,12.874l-3.001,8.718C10.071,21.856,11.018,22,12,22   c1.164,0,2.282-0.201,3.321-0.567c-0.027-0.043-0.051-0.088-0.072-0.138L12.176,12.874z M20.775,7.202   c0.043,0.318,0.067,0.66,0.067,1.028c0,1.014-0.19,2.155-0.761,3.582l-3.054,8.831C20.001,18.91,22,15.689,22,12   C22,10.261,21.556,8.627,20.775,7.202z"/>
</g>















</svg>
