<?xml version="1.0" encoding="UTF-8"?>
<svg xmlns="http://www.w3.org/2000/svg" id="Isolation_Mode" data-name="Isolation Mode" viewBox="0 0 24 24" width="512" height="512"><path d="M12,0A12,12,0,1,0,24,12,12.013,12.013,0,0,0,12,0Zm8.941,11H17.463a18.368,18.368,0,0,0-2.289-7.411A9.013,9.013,0,0,1,20.941,11ZM9.685,14h4.63A16.946,16.946,0,0,1,12,19.9,16.938,16.938,0,0,1,9.685,14Zm-.132-3A16.246,16.246,0,0,1,12,4.1,16.241,16.241,0,0,1,14.447,11ZM8.826,3.589A18.368,18.368,0,0,0,6.537,11H3.059A9.013,9.013,0,0,1,8.826,3.589ZM3.232,14H6.641a18.906,18.906,0,0,0,2.185,6.411A9.021,9.021,0,0,1,3.232,14Zm11.942,6.411A18.884,18.884,0,0,0,17.359,14h3.409A9.021,9.021,0,0,1,15.174,20.411Z"/></svg>
