<?xml version="1.0" encoding="UTF-8"?>
<svg xmlns="http://www.w3.org/2000/svg" id="Layer_1" data-name="Layer 1" viewBox="0 0 24 24" width="512" height="512"><path d="M14.447,4.326,1.149,17.3A3.924,3.924,0,0,0,3.924,24a3.887,3.887,0,0,0,2.762-1.136L20,9.875Zm1.281,5.523L13.12,12.394l-1.307-1.307,2.608-2.545ZM4.577,20.729a.943.943,0,0,1-1.306,0,.924.924,0,0,1-.014-1.293l6.409-6.254,1.307,1.307Zm16.756-5.062L24,17l-2.667,1.333L20,21l-1.333-2.667L16,17l2.667-1.333L20,13ZM5.667,5.333,3,4,5.667,2.667,7,0,8.333,2.667,11,4,8.333,5.333,7,8Zm13.666-.666L17,3.5l2.333-1.167L20.5,0l1.167,2.333L24,3.5,21.667,4.667,20.5,7Z"/></svg>
