<?xml version="1.0" encoding="UTF-8"?>
<svg xmlns="http://www.w3.org/2000/svg" id="Layer_1" data-name="Layer 1" viewBox="0 0 24 24" width="512" height="512"><g><path d="M17.63,13.574A5.487,5.487,0,0,0,7.006,15.255,4.5,4.5,0,0,0,8.5,24h8.25a5.25,5.25,0,0,0,.88-10.426ZM16.75,21H8.5a1.5,1.5,0,0,1,0-3H10V15.5a2.488,2.488,0,0,1,4.958-.312l.166,1.312H16.75a2.25,2.25,0,0,1,0,4.5Z"/><path d="M20.792,7c-.005-.016-.012-.031-.017-.048A5.483,5.483,0,0,0,20.3,5.823l0,0,2.27-2.269L20.45,1.429,18.18,3.7l0,0a5.4,5.4,0,0,0-1.128-.472L17,3.208V0H14V3.212a5.5,5.5,0,0,0-1.179.487L10.55,1.429,8.429,3.551,10.144,5.2A7.554,7.554,0,0,1,14.705,8.35a7.545,7.545,0,0,1,4.335,3.519c.2.067.39.162.584.245A5.49,5.49,0,0,0,20.788,10H24V7Z"/><path d="M2,19.5a6.514,6.514,0,0,1,3.166-5.579A7.478,7.478,0,0,1,11.7,8.047,5.431,5.431,0,0,0,8.5,7a5.505,5.505,0,0,0-5.494,5.255,4.493,4.493,0,0,0-.957,8.01A6.438,6.438,0,0,1,2,19.5Z"/></g></svg>
