<?xml version="1.0" encoding="UTF-8"?>
<svg xmlns="http://www.w3.org/2000/svg" id="Layer_1" data-name="Layer 1" viewBox="0 0 24 24" width="512" height="512"><path d="M22.566,7.423C23.812,6.042,24,3.63,24,2H19.576A4.95,4.95,0,0,0,20,0H17a2,2,0,0,1-2,2H9A2,2,0,0,1,7,0H4a4.95,4.95,0,0,0,.424,2H0C0,3.57.178,5.648,1.3,6.9L5.031,21.808A2.492,2.492,0,0,0,7.5,24h9a2.492,2.492,0,0,0,2.469-2.192ZM16.5,19h-3V14.5a4.482,4.482,0,0,1,1.28-3.133,1.5,1.5,0,0,0,2.646-1.309A4.36,4.36,0,0,1,18,10h.829l-2.252,9.008C16.551,19.007,16.526,19,16.5,19Zm-9.077.008L5.171,10H6a4.36,4.36,0,0,1,.574.058A1.5,1.5,0,0,0,9.22,11.367,4.482,4.482,0,0,1,10.5,14.5V19h-3C7.474,19,7.449,19.007,7.423,19.008ZM15,5a4.927,4.927,0,0,0,.89-.09A14.344,14.344,0,0,1,18.223,7H18a7.486,7.486,0,0,0-6,3.019A7.486,7.486,0,0,0,6,7H5.777A14.344,14.344,0,0,1,8.11,4.91,4.927,4.927,0,0,0,9,5Z"/></svg>
