<?xml version="1.0" encoding="UTF-8"?>
<!-- Generator: Adobe Illustrator 26.0.1, SVG Export Plug-In . SVG Version: 6.00 Build 0)  -->
<svg xmlns="http://www.w3.org/2000/svg" xmlns:xlink="http://www.w3.org/1999/xlink" version="1.1" id="Capa_1" x="0px" y="0px" viewBox="0 0 24 24" style="enable-background:new 0 0 24 24;" xml:space="preserve" width="512" height="512">
<path d="M18.535,14.627c0.337,0.026,0.674,0.054,1.011,0.083V8.776h-1.011V14.627z M2.277,12.425L0.961,8.776H0v6.448  c0.336-0.048,0.673-0.094,1.011-0.138V11.58l1.17,3.362c0.368-0.043,0.737-0.083,1.106-0.121V8.776H2.277V12.425z M4.259,14.727  c0.931-0.085,1.867-0.154,2.807-0.209v-0.996c-0.601,0.035-1.2,0.076-1.797,0.123v-1.508c0.392-0.004,0.908-0.016,1.365-0.01v-0.996  c-0.365-0.001-0.952,0.005-1.365,0.01V9.781h1.797V8.777H4.259V14.727z M7.714,9.781h1.058v4.657  c0.336-0.013,0.673-0.023,1.011-0.032V9.781h1.058V8.776H7.714V9.781z M11.489,14.379l1.011,0v-2.299h1.37v-0.996h-1.37V9.781h1.811  V8.777h-2.821V14.379z M24,8.776h-1.11l-0.732,1.696l-0.658-1.696h-1.093l1.175,3.031l-1.283,2.973  c0.355,0.035,0.709,0.072,1.062,0.111l0.746-1.729l0.739,1.906c0.385,0.049,0.769,0.101,1.152,0.156L24,15.223l-1.317-3.396  L24,8.776z M15.968,8.776h-1.011v5.652c0.918,0.032,1.833,0.078,2.744,0.139v-0.996c-0.576-0.038-1.154-0.071-1.733-0.098V8.776z"/>















</svg>
