<?xml version="1.0" encoding="UTF-8"?>
<!-- Generator: Adobe Illustrator 26.0.1, SVG Export Plug-In . SVG Version: 6.00 Build 0)  -->
<svg xmlns="http://www.w3.org/2000/svg" xmlns:xlink="http://www.w3.org/1999/xlink" version="1.1" id="Capa_1" x="0px" y="0px" viewBox="0 0 24 24" style="enable-background:new 0 0 24 24;" xml:space="preserve" width="512" height="512">
<g>
	<path d="M18.59,0H5.41C2.422,0,0,2.422,0,5.41V18.59C0,21.578,2.422,24,5.41,24H18.59c2.988,0,5.41-2.422,5.41-5.41V5.41   C24,2.422,21.577,0,18.59,0z M18.284,14.865L18.284,14.865c-1.679,1.932-5.432,4.286-6.286,4.646   c-0.854,0.36-0.728-0.229-0.693-0.432c0.021-0.12,0.114-0.685,0.114-0.685c0.027-0.204,0.055-0.521-0.026-0.723   c-0.09-0.223-0.444-0.338-0.705-0.395c-3.845-0.508-6.692-3.196-6.692-6.406c0-3.58,3.59-6.494,8.002-6.494   s8.002,2.913,8.002,6.494C19.999,12.302,19.444,13.593,18.284,14.865z"/>
	<g>
		<g>
			<g>
				<path d="M15.81,10.012v0.589h1.528c0.084,0,0.153,0.069,0.153,0.153v0.568c0,0.084-0.068,0.153-0.153,0.153H15.81v0.589h1.528      c0.084,0,0.153,0.069,0.153,0.153v0.568c0,0.084-0.068,0.152-0.153,0.152h-2.248c-0.084,0-0.153-0.068-0.153-0.152V9.292      c0-0.084,0.068-0.153,0.153-0.153h2.248c0.084,0,0.153,0.068,0.153,0.153v0.567c0,0.084-0.068,0.153-0.153,0.153H15.81z"/>
				<path d="M9.174,12.217v0.568c0,0.084-0.068,0.152-0.153,0.152H6.773c-0.084,0-0.152-0.068-0.152-0.152V9.292      c0-0.084,0.068-0.153,0.152-0.153h0.568c0.084,0,0.153,0.068,0.153,0.153v2.772h1.528C9.106,12.064,9.174,12.133,9.174,12.217z"/>
				<path d="M10.528,9.292v3.492c0,0.084-0.068,0.152-0.153,0.152H9.808c-0.084,0-0.153-0.068-0.153-0.152V9.292      c0-0.084,0.068-0.153,0.153-0.153h0.567C10.459,9.139,10.528,9.208,10.528,9.292z"/>
				<path d="M14.391,9.292v3.492c0,0.084-0.068,0.152-0.153,0.152h-0.564c-0.05,0-0.099-0.025-0.128-0.066l-1.6-2.16v2.074      c0,0.084-0.068,0.152-0.153,0.152h-0.568c-0.084,0-0.153-0.068-0.153-0.152V9.292c0-0.084,0.068-0.153,0.153-0.153h0.564      c0.053,0,0.099,0.028,0.13,0.069c0,0,1.598,2.158,1.598,2.158V9.292c0-0.084,0.068-0.153,0.153-0.153h0.568      C14.323,9.139,14.391,9.208,14.391,9.292z"/>
			</g>
		</g>
	</g>
</g>















</svg>
