<?xml version="1.0" encoding="UTF-8"?>
<!-- Generator: Adobe Illustrator 26.0.1, SVG Export Plug-In . SVG Version: 6.00 Build 0)  -->
<svg xmlns="http://www.w3.org/2000/svg" xmlns:xlink="http://www.w3.org/1999/xlink" version="1.1" id="Capa_1" x="0px" y="0px" viewBox="0 0 24 24" style="enable-background:new 0 0 24 24;" xml:space="preserve" width="512" height="512">
<g>
	<g>
		<path d="M14.873,8.927C15.198,9.253,15.4,9.703,15.4,10.2c0,0.994-0.806,1.8-1.8,1.8h-3.4V8.4h3.4    C14.097,8.4,14.547,8.602,14.873,8.927z"/>
	</g>
	<g>
		<path d="M12,0C5.373,0,0,5.373,0,12s5.373,12,12,12s12-5.373,12-12S18.627,0,12,0z M16.57,13.17c-0.76,0.76-1.81,1.23-2.97,1.23    h-3.4V18H7.8V6h5.8c2.32,0,4.2,1.881,4.2,4.2C17.8,11.36,17.33,12.41,16.57,13.17z"/>
	</g>
</g>















</svg>
