<?xml version="1.0" encoding="UTF-8"?>
<svg xmlns="http://www.w3.org/2000/svg" id="Layer_1" data-name="Layer 1" viewBox="0 0 24 24" width="512" height="512"><path d="M7,12a2,2,0,0,1,4,0A2,2,0,0,1,7,12Zm8,2a2,2,0,0,0,0-4A2,2,0,0,0,15,14Zm-3,2a6.946,6.946,0,0,1-3.6-1.2L6.6,17.2a9.192,9.192,0,0,0,10.792,0l-1.786-2.41A6.952,6.952,0,0,1,12,16Zm12,2.177A5.83,5.83,0,0,1,18.176,24H5.824a5.856,5.856,0,0,1-4.686-9.275A5.48,5.48,0,0,1,3.009,9.271,5.007,5.007,0,0,1,8,4H9.264A3.79,3.79,0,0,0,10,1.5V0h1.5c2.185,0,4.24,1.946,5.1,4.035a5.009,5.009,0,0,1,4.394,5.236,5.481,5.481,0,0,1,1.871,5.454A5.75,5.75,0,0,1,24,18.177Zm-3,0a2.8,2.8,0,0,0-.865-2.027l-.743-.718.406-.951A2.485,2.485,0,0,0,18.649,11.3l-1.086-.57.343-1.177A1.985,1.985,0,0,0,16,7H14.208L14,5.753a4.052,4.052,0,0,0-1.262-2.1,5.549,5.549,0,0,1-1.967,3.036l-.4.311H8A1.985,1.985,0,0,0,6.094,9.553l.343,1.177-1.086.57A2.485,2.485,0,0,0,4.2,14.481l.406.951-.743.718A2.836,2.836,0,0,0,5.824,21H18.176A2.827,2.827,0,0,0,21,18.177Z"/></svg>
