<?xml version="1.0" encoding="UTF-8"?>
<!-- Generator: Adobe Illustrator 26.0.1, SVG Export Plug-In . SVG Version: 6.00 Build 0)  -->
<svg xmlns="http://www.w3.org/2000/svg" xmlns:xlink="http://www.w3.org/1999/xlink" version="1.1" id="Capa_1" x="0px" y="0px" viewBox="0 0 24 24" style="enable-background:new 0 0 24 24;" xml:space="preserve" width="512" height="512">
<g>
	<path d="M19.704,23.004h0.174c0.058,0.004,0.115-0.014,0.161-0.05c0.041-0.035,0.063-0.087,0.061-0.14   c0-0.126-0.08-0.195-0.222-0.195h-0.174V23.004z M20.064,23.498l-0.222-0.393h-0.138v0.404h-0.128v-0.979h0.331   c0.044-0.001,0.088,0.006,0.13,0.021c0.038,0.015,0.072,0.036,0.103,0.063c0.028,0.027,0.051,0.059,0.067,0.094   c0.017,0.036,0.026,0.075,0.025,0.115c0.001,0.062-0.02,0.123-0.059,0.172c-0.037,0.05-0.09,0.087-0.151,0.105l-0.042,0.015   l0.23,0.395L20.064,23.498z M19.855,22.207c-0.107,0-0.213,0.02-0.312,0.061c-0.094,0.041-0.179,0.099-0.251,0.172   c-0.072,0.075-0.129,0.162-0.169,0.257c-0.078,0.202-0.078,0.426,0,0.628c0.039,0.096,0.097,0.184,0.169,0.257   c0.072,0.073,0.157,0.131,0.251,0.172c0.298,0.128,0.645,0.06,0.873-0.172c0.074-0.073,0.132-0.16,0.169-0.257   c0.078-0.202,0.078-0.426,0-0.628c-0.038-0.096-0.096-0.184-0.169-0.257c-0.072-0.073-0.157-0.131-0.251-0.172   C20.066,22.227,19.961,22.207,19.855,22.207 M19.855,23.946c-0.124,0.001-0.248-0.024-0.362-0.073   c-0.11-0.05-0.21-0.121-0.293-0.209c-0.088-0.084-0.159-0.184-0.209-0.295c-0.098-0.231-0.098-0.491,0-0.722   c0.095-0.222,0.271-0.399,0.492-0.496c0.114-0.048,0.238-0.073,0.362-0.071c0.125-0.001,0.249,0.023,0.364,0.071   c0.111,0.051,0.211,0.122,0.295,0.209c0.087,0.085,0.158,0.185,0.209,0.295c0.098,0.231,0.098,0.491,0,0.722   c-0.051,0.111-0.122,0.211-0.209,0.295C20.329,23.847,20.102,23.946,19.855,23.946"/>
	<path d="M12,24c5.231,0,8.851-2.49,8.851-12S17.242,0,12,0S3.149,2.49,3.149,12S6.769,24,12,24 M10.851,12L6.56,7.7l1.243-1.255   l3.421,3.429V1.682l6.217,6.214L13.335,12l4.105,4.103l-6.214,6.214v-8.192l-3.411,3.419l-1.243-1.255L10.851,12z M12.971,18.068   l1.984-1.986l-1.984-1.982V18.068z M12.971,5.919l1.984,1.986l-1.984,1.982V5.919z"/>
</g>















</svg>
