<?xml version="1.0" encoding="UTF-8"?>
<!-- Generator: Adobe Illustrator 24.1.0, SVG Export Plug-In . SVG Version: 6.00 Build 0)  -->
<svg xmlns="http://www.w3.org/2000/svg" xmlns:xlink="http://www.w3.org/1999/xlink" version="1.1" id="Capa_1" x="0px" y="0px" viewBox="0 0 512 512" style="enable-background:new 0 0 512 512;" xml:space="preserve" width="512" height="512">
<g id="XMLID_1_">
	<path d="M451.95,316.03c0,0.02,0,0.04,0,0.07c-0.02,108.2-87.77,195.92-195.97,195.9c-108.23-0.02-195.93-87.74-195.91-195.97   c0-91.77,61.25-152.98,115.29-206.97C211.39,73.05,245.76,38.72,256,0c10.22,38.72,44.61,73.05,80.62,109.06   C390.68,163.05,451.93,224.26,451.95,316.03z M384.98,353.13c6.81-14.87,18.37-59.92-15.12-112.04   C336.36,188.97,256,112.73,256,112.73s-26.97,26.94-36.2,36.18c-7.36,7.36-23.23,21.44-4.76,41.38   c21.01,22.7,133.25,140.01,146.11,159.04c5.87,8.66,6.7,12.74,14.64,12.44C380.22,361.6,383.53,356.31,384.98,353.13z    M323.39,395.03c0.15-16.47-5.89-32.41-16.89-44.65c-12.65-14.1-50.5-56.51-50.5-56.51s-38.44,41.79-50.6,56.66   c-5.3,6.21-9.44,13.25-12.28,20.78c-2.84,7.53-4.38,15.55-4.51,23.72c0,37.23,30.18,67.39,67.39,67.39   C293.23,462.42,323.39,432.26,323.39,395.03z M223.7,269.5c1.81-1.81,1.79-4.75-0.04-6.57l-54.42-59.45   c-82.24,81.38-37.91,157.8-25.9,158.21c1.26,0.04,3.33,0.19,4.73-3.8c6.87-19.18,62.23-74.71,75.23-88.02   C223.45,269.76,223.57,269.63,223.7,269.5z"/>
</g>
</svg>
