<?xml version="1.0" encoding="UTF-8"?>
<svg xmlns="http://www.w3.org/2000/svg" id="Layer_1" data-name="Layer 1" viewBox="0 0 24 24" width="512" height="512"><path d="M21.973,11.216A11.167,11.167,0,0,0,12,1.077V0H5.5A3.5,3.5,0,0,0,2,3.5v17A3.5,3.5,0,0,0,5.5,24H12V22.961a10.933,10.933,0,0,0,7.032-3.436A11.087,11.087,0,0,0,21.973,11.216Zm-5.135,6.263A7.793,7.793,0,0,1,11.088,20H9v1H5.5a.5.5,0,0,1-.5-.5V19H7V16H5V13.5H7v-3H5V8H7V5H5V3.5A.5.5,0,0,1,5.5,3H9V4h1.663a8.208,8.208,0,0,1,8.317,7.426A7.968,7.968,0,0,1,16.838,17.479ZM15,12a4.167,4.167,0,0,1-4.167,4.167H10V7.833h.833A4.167,4.167,0,0,1,15,12Z"/></svg>
