<?xml version="1.0" encoding="UTF-8"?>
<svg xmlns="http://www.w3.org/2000/svg" id="Layer_1" data-name="Layer 1" viewBox="0 0 24 24" width="512" height="512"><path d="M20.26,9.766a13.17,13.17,0,0,0,2.356-1.688,4.729,4.729,0,0,0-6.689-6.687,13.141,13.141,0,0,0-1.689,2.355A2.618,2.618,0,0,0,9.014,3.4c-.164,1.876,1.137,3.555,1.429,7.16A7.592,7.592,0,0,0,6.067,9a6.2,6.2,0,0,0-4.442,1.97C.1,12.517.056,14.831.019,17.069L0,23.994l7.725.012c2,0,3.974-.149,5.337-1.524,2.489-2.514,2.565-5.828.337-8.959,3.925.2,5.239,1.636,7.207,1.464a2.617,2.617,0,0,0-.349-5.221ZM18.048,3.511A1.73,1.73,0,1,1,20.5,5.958,30.98,30.98,0,0,1,14.623,9.38,31,31,0,0,1,18.048,3.511ZM10.933,20.373c-.658.663-2.358.645-4,.628L3,21l.016-3.877c.029-1.722.055-3.347.739-4.038A3.185,3.185,0,0,1,6.067,12,5.351,5.351,0,0,1,9.4,13.546l1.053,1.06C11.7,16.055,12.947,18.338,10.933,20.373Z"/></svg>
