<?xml version="1.0" encoding="UTF-8"?>
<svg xmlns="http://www.w3.org/2000/svg" id="Layer_1" data-name="Layer 1" viewBox="0 0 24 24" width="512" height="512"><path d="M22.5,18.972a1.473,1.473,0,0,0-1.5,1.471A1.283,1.283,0,0,1,19.875,21a1.656,1.656,0,0,1-.766-.183,12.154,12.154,0,0,0,2.841-5.9,3.408,3.408,0,0,0-1.95-3.7V8.5A4.505,4.505,0,0,0,15.5,4H15V3A3,3,0,0,0,9,3V4H8.5A4.505,4.505,0,0,0,4,8.5v2.583a3.412,3.412,0,0,0-1.929,3.691A13.01,13.01,0,0,0,4.893,20.82a1.682,1.682,0,0,1-.768.18A1.324,1.324,0,0,1,3,20.452,1.5,1.5,0,0,0,0,20.5C0,22.364,1.928,24,4.125,24a4.636,4.636,0,0,0,2.628-.81A4.67,4.67,0,0,0,12,23.2a4.679,4.679,0,0,0,5.258-.011A4.625,4.625,0,0,0,19.875,24C22.072,24,24,22.364,24,20.5A1.522,1.522,0,0,0,22.5,18.972ZM8.5,7h7A1.5,1.5,0,0,1,17,8.5v1.8L13.076,9.174a3.35,3.35,0,0,0-2.066-.026L7,10.221V8.5A1.5,1.5,0,0,1,8.5,7Zm.875,14a1.374,1.374,0,0,1-1.136-.488,5.309,5.309,0,0,0-.9-1.453A10.008,10.008,0,0,1,5.028,14.27a.446.446,0,0,1,.185-.468L10.5,12.388v8.149A1.4,1.4,0,0,1,9.375,21Zm5.25,0a1.668,1.668,0,0,1-1.125-.409V12.418l5.239,1.512a.434.434,0,0,1,.254.487,9.262,9.262,0,0,1-2.326,4.638,5.292,5.292,0,0,0-.906,1.463A1.367,1.367,0,0,1,14.625,21Z"/></svg>
