<svg id="Layer_1" height="512" viewBox="0 0 24 24" width="512" xmlns="http://www.w3.org/2000/svg" data-name="Layer 1"><path d="m22.5 18a1.5 1.5 0 0 0 -1.5 1.5 1.5 1.5 0 0 1 -1.5 1.5h-3v-3h1.119a4.406 4.406 0 0 0 4.4-4.4 6.5 6.5 0 0 0 -5.186-6.365l-3.433-.785a1.54 1.54 0 0 1 -1.208-1.363l-.4-2.082a3.5 3.5 0 0 0 -4.225-2.922c-.044.01-4.294 1.355-4.294 1.355a4.52 4.52 0 0 0 -3.273 4.331v7.731a4.505 4.505 0 0 0 4.5 4.5v3h-3a1.5 1.5 0 0 0 0 3h18a4.505 4.505 0 0 0 4.5-4.5 1.5 1.5 0 0 0 -1.5-1.5zm-19.5-4.5v-7.731a1.522 1.522 0 0 1 1.136-1.457l4.125-1.307a.467.467 0 0 1 .349.085.557.557 0 0 1 .223.411l.289 1.493-1.628.006a1.5 1.5 0 0 0 .006 3h.006l2.847-.01c.064.07.133.135.2.2l-1.171 1.31a1.5 1.5 0 1 0 2.236 2l1.769-1.977 2.819.644a3.511 3.511 0 0 1 2.814 3.433 1.4 1.4 0 0 1 -1.4 1.4h-13.12a1.5 1.5 0 0 1 -1.5-1.5zm4.5 4.5h6v3h-6z"/></svg>