<?xml version="1.0" encoding="UTF-8"?>
<svg xmlns="http://www.w3.org/2000/svg" id="Layer_1" data-name="Layer 1" viewBox="0 0 24 24" width="512" height="512"><path d="M21.567,4.4A5.308,5.308,0,0,0,16.33,0H7.657A5.308,5.308,0,0,0,2.419,4.4L.081,17.765A5.317,5.317,0,0,0,5.319,24H18.681a5.319,5.319,0,0,0,5.238-6.239ZM20.456,20.172A2.313,2.313,0,0,1,18.681,21H5.319a2.317,2.317,0,0,1-2.283-2.718L5.374,4.918A2.314,2.314,0,0,1,7.657,3H16.33a2.312,2.312,0,0,1,2.282,1.917L20.964,18.28A2.312,2.312,0,0,1,20.456,20.172ZM13.5,5.5v1a1.5,1.5,0,0,1-3,0v-1a1.5,1.5,0,0,1,3,0Zm0,6v1a1.5,1.5,0,0,1-3,0v-1a1.5,1.5,0,0,1,3,0Zm0,6v1a1.5,1.5,0,0,1-3,0v-1a1.5,1.5,0,0,1,3,0Z"/></svg>
