<svg id="Layer_1" height="512" viewBox="0 0 24 24" width="512" xmlns="http://www.w3.org/2000/svg" data-name="Layer 1"><path d="m23.268.733a2.489 2.489 0 0 0 -2.307-.673l-3.972 1.294-11.567 11.568a15.07 15.07 0 0 0 -4.21-1.407l-.429 2.969a12.3 12.3 0 0 1 4.668 1.944l-2.244 2.244-1.055-1.055-2.121 2.121 4.24 4.241 2.121-2.121-1.064-1.065 2.243-2.243a12.286 12.286 0 0 1 1.945 4.667l2.969-.429a15.058 15.058 0 0 0 -1.407-4.209l11.568-11.567 1.295-3.973a2.491 2.491 0 0 0 -.673-2.306zm-3.25 4.667-10.618 10.615c-.211-.253-.432-.5-.673-.743s-.489-.461-.741-.672l10.614-10.619 2.1-.689z"/></svg>