<?xml version="1.0" encoding="UTF-8"?>
<svg xmlns="http://www.w3.org/2000/svg" id="Layer_1" data-name="Layer 1" viewBox="0 0 24 24" width="512" height="512"><circle cx="11" cy="13" r="2"/><path d="M7.561,14.439a1.5,1.5,0,0,0-2.122,2.122l2,2a1.5,1.5,0,0,0,2.122-2.122Z"/><path d="M23.379.621a2.122,2.122,0,0,0-3,0l-.258.258a7.237,7.237,0,0,0-1.625,2.5L16.713,5.166a6.36,6.36,0,0,0-8.008.539,5.366,5.366,0,0,0-.489.561,1.8,1.8,0,0,1-1.2.762A7.545,7.545,0,0,0,2.211,9.211c-3.151,3.151-2.894,8.536.574,12a9.292,9.292,0,0,0,6.529,2.779,7.659,7.659,0,0,0,5.475-2.2,7.545,7.545,0,0,0,2.183-4.81,1.8,1.8,0,0,1,.762-1.195A5.366,5.366,0,0,0,18.3,15.3a6.36,6.36,0,0,0,.539-8.008L20.617,5.5a7.237,7.237,0,0,0,2.5-1.625l.258-.258a2.122,2.122,0,0,0,0-3ZM16.174,13.174a2.481,2.481,0,0,1-.252.22,4.683,4.683,0,0,0-1.941,3.348,4.58,4.58,0,0,1-1.313,2.926c-1.982,1.982-5.464,1.724-7.762-.574s-2.555-5.781-.574-7.762a4.58,4.58,0,0,1,2.925-1.313,4.683,4.683,0,0,0,3.349-1.941,2.481,2.481,0,0,1,.22-.252A2.923,2.923,0,0,1,12.92,7a3.811,3.811,0,0,1,1.59.371l-1.071,1.07a1.5,1.5,0,0,0,2.122,2.122l1.076-1.076A3.24,3.24,0,0,1,16.174,13.174Z"/></svg>
