<?xml version="1.0" encoding="UTF-8"?>
<!-- Generator: Adobe Illustrator 25.0.0, SVG Export Plug-In . SVG Version: 6.00 Build 0)  -->
<svg xmlns="http://www.w3.org/2000/svg" xmlns:xlink="http://www.w3.org/1999/xlink" version="1.1" id="Capa_1" x="0px" y="0px" viewBox="0 0 509.348 509.348" style="enable-background:new 0 0 509.348 509.348;" xml:space="preserve" width="512" height="512">
<g>
	<path d="M488.935,188.541C437.397,109.024,349.407,60.662,254.652,59.773C159.898,60.662,71.908,109.024,20.37,188.541   c-27.16,39.859-27.16,92.279,0,132.139c51.509,79.566,139.504,127.978,234.283,128.896   c94.754-0.889,182.744-49.251,234.283-128.768C516.153,280.919,516.153,228.429,488.935,188.541z M436.199,284.541   c-39.348,62.411-107.769,100.488-181.547,101.035c-73.777-0.546-142.198-38.624-181.547-101.035   c-12.267-18.022-12.267-41.712,0-59.733c39.348-62.411,107.769-100.488,181.547-101.035   c73.777,0.546,142.198,38.624,181.547,101.035C448.466,242.829,448.466,266.519,436.199,284.541z"/>
	<circle cx="254.652" cy="254.674" r="85.333"/>
</g>















</svg>
