<?xml version="1.0" encoding="UTF-8"?>
<svg xmlns="http://www.w3.org/2000/svg" id="Layer_1" data-name="Layer 1" viewBox="0 0 24 24" width="512" height="512"><path d="M6.3,23.989a6.279,6.279,0,0,1-4.578-1.712C-1.69,18.863.15,11.675,5.913,5.913s12.949-7.6,16.364-4.19,1.573,10.6-4.19,16.364C14.281,21.894,9.853,23.989,6.3,23.989ZM17.689,3.013c-2.548,0-6.26,1.625-9.655,5.021C3.228,12.84,1.968,18.28,3.844,20.156s7.316.617,12.122-4.19S22.032,5.72,20.156,3.844A3.41,3.41,0,0,0,17.689,3.013ZM14,5V8a1.8,1.8,0,0,1,2,2h3A4.784,4.784,0,0,0,14,5ZM10,9v3a1.8,1.8,0,0,1,2,2h3A4.784,4.784,0,0,0,10,9ZM6,13v3a1.8,1.8,0,0,1,2,2h3A4.784,4.784,0,0,0,6,13Z"/></svg>
