<?xml version="1.0" encoding="UTF-8"?>
<!-- Generator: Adobe Illustrator 25.0.0, SVG Export Plug-In . SVG Version: 6.00 Build 0)  -->
<svg xmlns="http://www.w3.org/2000/svg" xmlns:xlink="http://www.w3.org/1999/xlink" version="1.1" id="Capa_1" x="0px" y="0px" viewBox="0 0 512 512" style="enable-background:new 0 0 512 512;" xml:space="preserve" width="512" height="512">
<g>
	<path d="M136.043,111.68c10.243,0.028,18.643-8.108,18.944-18.347c-0.312-10.23-8.709-18.353-18.944-18.325h-17.899l0.128,36.757   L136.043,111.68z"/>
	<path d="M367.36,158.677c20.715-0.363,29.995-20.8,29.995-40.896s-8.043-41.109-30.656-41.109h-17.493l0.171,82.176   C355.883,158.805,363.2,158.741,367.36,158.677z"/>
	<path d="M416,0H96C43.005,0.059,0.059,43.005,0,96v320c0.059,52.995,43.005,95.941,96,96h255.659   c25.476,0.078,49.923-10.048,67.883-28.117l64.341-64.32c18.059-17.966,28.184-42.409,28.117-67.883V96   C511.941,43.005,468.995,0.059,416,0z M322.517,63.36c-0.035-7.34,5.886-13.319,13.226-13.355c0.036,0,0.071,0,0.107,0h30.848   c34.261,0,57.323,27.243,57.323,67.776c0,38.571-23.637,66.987-56.192,67.563c-8.853,0.149-31.701,0.235-31.701,0.235l0,0   c-7.339,0-13.298-5.931-13.333-13.269L322.517,63.36z M199.36,145.643c4.455-4.198,11.259-4.654,16.235-1.088l2.709,2.133   c5.309,4.645,11.437,8.263,18.069,10.667c6.833,1.998,14.128,1.736,20.8-0.747c4.37-1.334,7.929-4.526,9.728-8.725   c1.389-4.386,0.156-9.181-3.179-12.352c-2.975-2.664-6.479-4.67-10.283-5.888c-8.853-3.221-17.579-6.72-26.304-10.304   c-8.328-2.902-15.506-8.398-20.48-15.68c-4.429-6.969-6.208-15.296-5.013-23.467c0.674-4.501,2.171-8.84,4.416-12.8   c4.838-8.402,12.647-14.688,21.888-17.621c17.51-4.64,36.148-2.098,51.776,7.061c3.484,1.755,6.47,4.36,8.683,7.573   c3.335,4.801,3.047,11.239-0.704,15.723c-5.056,5.995-12.437,4.267-18.731,1.579c-5.696-2.524-11.529-4.725-17.472-6.592   c-4.146-1.519-8.564-2.159-12.971-1.877c-4.465,0.337-8.429,2.982-10.453,6.976c-1.602,4.646-0.342,9.8,3.221,13.184   c3.568,3.239,7.947,5.451,12.672,6.4c5.952,1.557,11.989,2.667,17.835,4.651c7.068,2.398,13.593,6.168,19.2,11.093   c10.023,8.531,14.874,21.669,12.8,34.667c-4.897,21.423-24.379,36.304-46.336,35.392c-18.579,0.081-36.355-7.57-49.067-21.12   c-4.937-5.464-4.51-13.895,0.954-18.832C199.356,145.646,199.358,145.644,199.36,145.643z M104.64,48.341h31.403   c24.854-0.541,45.441,19.169,45.982,44.023c0.541,24.854-19.169,45.441-44.023,45.982c-0.653,0.014-1.306,0.014-1.96,0h-17.92   v35.563c0,7.364-5.97,13.333-13.333,13.333s-13.333-5.97-13.333-13.333V61.674c-0.021-0.936-0.02-5.408,3.445-9.158   C98.734,48.37,103.822,48.333,104.64,48.341z M448,320h-85.333C339.103,320,320,339.103,320,362.667V448H96   c-17.673,0-32-14.327-32-32V234.667h384V320z"/>
</g>















</svg>
