<?xml version="1.0" encoding="UTF-8"?>
<svg xmlns="http://www.w3.org/2000/svg" id="Layer_1" data-name="Layer 1" viewBox="0 0 24 24" width="512" height="512"><path d="M22.5,21H22V17.5a5.5,5.5,0,0,0-3-4.893V11.5a5.5,5.5,0,0,0-2.756-4.759L15.661,3.8A1,1,0,0,0,14.68,3h-.36a1,1,0,0,0-.981.8L12.9,6H11l.5-2a1,1,0,0,0-1-1h-2a1,1,0,0,0-1,1l.635,2.542A5.5,5.5,0,0,0,5,11.5v1.107A5.5,5.5,0,0,0,2,17.5V21H1.5a1.5,1.5,0,0,0,0,3h21a1.5,1.5,0,0,0,0-3ZM10.5,9h3A2.5,2.5,0,0,1,16,11.5V12H8v-.5A2.5,2.5,0,0,1,10.5,9ZM5,17.74a2.336,2.336,0,0,0,1.75-1.876A2.5,2.5,0,0,0,9.375,18,2.491,2.491,0,0,0,12,15.864,2.5,2.5,0,0,0,14.625,18a2.491,2.491,0,0,0,2.625-2.136A2.354,2.354,0,0,0,19,17.738V21H5Z"/><circle cx="9.5" cy="1.5" r="1.5"/><circle cx="14.5" cy="1.5" r="1.5"/></svg>
