<svg id="Layer_1" height="512" viewBox="0 0 24 24" width="512" xmlns="http://www.w3.org/2000/svg" data-name="Layer 1"><path d="m12 0a12 12 0 1 0 12 12 12.013 12.013 0 0 0 -12-12zm8.036 16.029a15.779 15.779 0 0 1 -9.464-.562 9.434 9.434 0 0 1 1.674-1.757 12.493 12.493 0 0 0 4.367.8 12.593 12.593 0 0 0 4.209-.734 8.9 8.9 0 0 1 -.786 2.253zm-7.6-13.007a15.763 15.763 0 0 1 3.492 8.451 9.447 9.447 0 0 1 -2.494-.527 12.543 12.543 0 0 0 -3.516-7.693 8.984 8.984 0 0 1 2.082-.253c.146 0 .288.015.432.022zm8.434 7.485a9.467 9.467 0 0 1 -1.952.714 18.772 18.772 0 0 0 -1.956-6.721 9.009 9.009 0 0 1 3.904 6.007zm-13.953-5.927a9.515 9.515 0 0 1 1.283 1.256 18.711 18.711 0 0 0 -5.18 5.8 8.993 8.993 0 0 1 3.897-7.056zm-2.706 11.908a15.7 15.7 0 0 1 5.57-8.1 9.488 9.488 0 0 1 .673 2.921 12.543 12.543 0 0 0 -4.5 7.336 9.052 9.052 0 0 1 -1.743-2.157zm4.531 3.892a9.508 9.508 0 0 1 .441-2.252 18.788 18.788 0 0 0 7.022 1.39c.258 0 .516-.017.774-.027a8.931 8.931 0 0 1 -8.237.889z"/></svg>