<svg id="Layer_1" height="512" viewBox="0 0 24 24" width="512" xmlns="http://www.w3.org/2000/svg" data-name="Layer 1"><path d="m20.389 4.268-2.657-2.657a5.462 5.462 0 0 0 -3.889-1.611h-6.343a5.506 5.506 0 0 0 -5.5 5.5v13a5.506 5.506 0 0 0 5.5 5.5h9a5.506 5.506 0 0 0 5.5-5.5v-10.343a5.464 5.464 0 0 0 -1.611-3.889zm-3.889 16.732h-9a2.5 2.5 0 0 1 -2.5-2.5v-13a2.5 2.5 0 0 1 2.5-2.5h5.5v4a2 2 0 0 0 2 2h4v9.5a2.5 2.5 0 0 1 -2.5 2.5zm.586-9.534a1.5 1.5 0 0 1 -.052 2.12l-3.586 3.414a3.5 3.5 0 0 1 -4.923-.025l-1.525-1.355a1.5 1.5 0 1 1 2-2.24l1.586 1.414a.584.584 0 0 0 .414.206.5.5 0 0 0 .353-.146l3.613-3.44a1.5 1.5 0 0 1 2.12.052z"/></svg>