<?xml version="1.0" encoding="UTF-8"?>
<!-- Generator: Adobe Illustrator 25.0.0, SVG Export Plug-In . SVG Version: 6.00 Build 0)  -->
<svg xmlns="http://www.w3.org/2000/svg" xmlns:xlink="http://www.w3.org/1999/xlink" version="1.1" id="Layer_1" x="0px" y="0px" viewBox="0 0 512 512" style="enable-background:new 0 0 512 512;" xml:space="preserve" width="512" height="512">
<path d="M468.096,107.435c-0.875-0.512-153.301-70.869-153.301-70.869c-36.604-20.159-80.985-20.159-117.589,0  c0,0-152.405,70.357-153.301,70.869c-40.813,22.217-55.888,73.314-33.671,114.127c7.747,14.232,19.439,25.923,33.671,33.671  c0.896,0.512,62.763,29.099,62.763,29.099v100.843c0.06,43.435,28.345,81.789,69.824,94.677  c25.834,7.462,52.621,11.105,79.509,10.816c26.889,0.289,53.675-3.354,79.509-10.816c41.479-12.889,69.764-51.243,69.824-94.677  V284.331L448,264.661V416c0,17.673,14.327,32,32,32s32-14.327,32-32V180.501C511.154,149.044,496.121,121.088,468.096,107.435z   M341.333,385.173c0.078,15.245-9.754,28.774-24.277,33.408c-39.997,10.731-82.115,10.731-122.112,0  c-14.524-4.634-24.355-18.163-24.277-33.408v-71.317l26.539,12.245c36.591,20.212,80.998,20.212,117.589,0l26.539-12.245V385.173z   M437.013,199.253c0,0-152.085,70.187-152.939,70.699c-17.407,9.9-38.742,9.9-56.149,0c-0.853-0.512-152.939-70.699-152.939-70.699  c-9.897-5.049-13.827-17.165-8.778-27.062c1.927-3.778,5-6.85,8.778-8.778c0,0,152.085-70.187,152.939-70.699  c17.407-9.9,38.742-9.9,56.149,0c0.853,0.512,152.939,70.699,152.939,70.699c9.897,5.049,13.827,17.165,8.778,27.062  C443.864,194.254,440.791,197.326,437.013,199.253L437.013,199.253z"/>
</svg>
