<?xml version="1.0" encoding="UTF-8"?>
<!-- Generator: Adobe Illustrator 26.0.1, SVG Export Plug-In . SVG Version: 6.00 Build 0)  -->
<svg xmlns="http://www.w3.org/2000/svg" xmlns:xlink="http://www.w3.org/1999/xlink" version="1.1" id="Capa_1" x="0px" y="0px" viewBox="0 0 24 24" style="enable-background:new 0 0 24 24;" xml:space="preserve" width="512" height="512">
<g>
	<path d="M19.75,0.3H4.25C1.903,0.3,0,2.203,0,4.55V19.45c0,2.347,1.903,4.25,4.25,4.25h15.5c2.347,0,4.25-1.903,4.25-4.25V4.55   C24,2.203,22.097,0.3,19.75,0.3z M16.514,6.911c-0.242,0-0.363-0.182-0.439-0.439c-0.257-0.97-0.591-1.257-0.787-1.257   c-0.197,0-0.5,0.364-0.833,1.121c-0.44,0.954-0.735,1.993-1.008,2.993l1.732-0.002c0.106,0.212,0.02,0.651-0.238,0.772h-1.712   c-0.56,1.878-1.032,3.688-1.592,5.46c-0.318,1-0.666,1.954-1.106,2.559c-0.485,0.681-1.393,1.333-2.484,1.333   c-0.772,0-1.53-0.363-1.53-1.166c0-0.5,0.515-0.969,0.924-0.969c0.176-0.007,0.341,0.087,0.424,0.242   c0.379,0.681,0.742,1.075,0.909,1.075c0.167,0,0.303-0.227,0.576-1.211l1.988-7.322l-1.43-0.002   C9.802,9.78,9.953,9.399,10.134,9.323h1.424c0.273-0.878,0.594-1.776,1.048-2.579c0.681-1.226,1.772-2.196,3.271-2.196   c1.136,0,1.606,0.546,1.606,1.242C17.468,6.533,16.817,6.911,16.514,6.911z"/>
</g>















</svg>
