<?xml version="1.0" encoding="UTF-8"?>
<svg xmlns="http://www.w3.org/2000/svg" id="Layer_1" data-name="Layer 1" viewBox="0 0 24 24" width="512" height="512"><path d="M22.817,14.354A3.955,3.955,0,0,0,24,11.522a3.882,3.882,0,0,0-2.113-3.455,10.093,10.093,0,0,0-19.775,0A3.883,3.883,0,0,0,0,11.522a3.993,3.993,0,0,0,3.281,3.924,9.481,9.481,0,0,0,1.291,1.9,9.924,9.924,0,0,0-2.411,4.892,1.5,1.5,0,0,0,1.213,1.741A1.6,1.6,0,0,0,3.64,24a1.5,1.5,0,0,0,1.474-1.236,6.946,6.946,0,0,1,1.7-3.435A9.581,9.581,0,0,0,12,21a9.581,9.581,0,0,0,5.19-1.671,6.946,6.946,0,0,1,1.7,3.435A1.5,1.5,0,0,0,20.36,24a1.6,1.6,0,0,0,.266-.023,1.5,1.5,0,0,0,1.213-1.741,9.924,9.924,0,0,0-2.411-4.892,9.459,9.459,0,0,0,1.291-1.9A3.958,3.958,0,0,0,22.817,14.354ZM20,12.508h-.011l-.162,0a1.514,1.514,0,0,0-1.538,1A7.178,7.178,0,0,1,12,18a7.178,7.178,0,0,1-6.293-4.5,1.5,1.5,0,0,0-1.413-1c-.042,0-.083,0-.125.005l-.168,0H3.99A.988.988,0,0,1,3,11.522a.884.884,0,0,1,.727-.867A1.5,1.5,0,0,0,4.949,9.337,7.057,7.057,0,0,1,7.51,4.6a4.494,4.494,0,0,0,7.673,3.079A1.5,1.5,0,1,0,13.06,5.561a1.535,1.535,0,0,1-2.121,0A1.5,1.5,0,0,1,12,3a7.07,7.07,0,0,1,7.049,6.337,1.5,1.5,0,0,0,1.224,1.318.884.884,0,0,1,.727.867.98.98,0,0,1-.292.7A.992.992,0,0,1,20,12.508Z"/><circle cx="9.5" cy="11.5" r="1.5"/><circle cx="14.5" cy="11.5" r="1.5"/></svg>
