<?xml version="1.0" encoding="UTF-8"?>
<svg xmlns="http://www.w3.org/2000/svg" id="Layer_1" data-name="Layer 1" viewBox="0 0 24 24" width="512" height="512"><path d="M8.262,18H3.5A3.5,3.5,0,0,1,0,14.5V9.232A9.311,9.311,0,0,1,3.4,2.008,8.739,8.739,0,0,1,10.768.179a9.009,9.009,0,0,1,7.095,7.265A8.644,8.644,0,0,1,15.969,14.6,9.984,9.984,0,0,1,8.262,18ZM8.979,3A5.734,5.734,0,0,0,5.3,4.326,6.4,6.4,0,0,0,3,9.232V14.5a.5.5,0,0,0,.5.5H8.262a7,7,0,0,0,5.412-2.336,5.685,5.685,0,0,0,1.233-4.711,6.072,6.072,0,0,0-4.72-4.832A6.247,6.247,0,0,0,8.979,3Zm12,6.782a8.129,8.129,0,0,0-1-.687,10.553,10.553,0,0,1-.553,3.335A5.359,5.359,0,0,1,21,16.2v4.3a.5.5,0,0,1-.5.5H16.64a5.951,5.951,0,0,1-4.269-1.671,12.742,12.742,0,0,1-3.279.629,7.664,7.664,0,0,0,.716,1.021A8.853,8.853,0,0,0,16.64,24H20.5A3.5,3.5,0,0,0,24,20.5V16.2A8.267,8.267,0,0,0,20.983,9.784Z"/></svg>
