<?xml version="1.0" encoding="UTF-8"?>
<!-- Generator: Adobe Illustrator 26.0.1, SVG Export Plug-In . SVG Version: 6.00 Build 0)  -->
<svg xmlns="http://www.w3.org/2000/svg" xmlns:xlink="http://www.w3.org/1999/xlink" version="1.1" id="Capa_1" x="0px" y="0px" viewBox="0 0 24 24" style="enable-background:new 0 0 24 24;" xml:space="preserve" width="512" height="512">
<g>
	<g>
		<g>
			<path d="M4.536,8.222C4.818,7.869,5.01,7.394,4.96,6.91C4.546,6.93,4.041,7.182,3.749,7.536C3.487,7.839,3.254,8.333,3.315,8.798     C3.779,8.838,4.243,8.566,4.536,8.222L4.536,8.222z"/>
			<path d="M4.954,8.889c-0.674-0.04-1.248,0.383-1.57,0.383c-0.322,0-0.815-0.362-1.349-0.353c-0.694,0.01-1.338,0.403-1.691,1.027     c-0.725,1.249-0.191,3.101,0.513,4.118c0.342,0.503,0.755,1.057,1.298,1.037c0.513-0.02,0.715-0.332,1.339-0.332     c0.624,0,0.805,0.332,1.348,0.322c0.564-0.01,0.916-0.503,1.258-1.007c0.393-0.574,0.553-1.127,0.563-1.158     c-0.01-0.01-1.087-0.423-1.097-1.661c-0.01-1.037,0.845-1.53,0.886-1.561C5.971,8.99,5.216,8.909,4.954,8.889L4.954,8.889z"/>
		</g>
		<g>
			<path d="M10.826,7.485c1.466,0,2.486,1.01,2.486,2.481c0,1.476-1.042,2.492-2.523,2.492H9.166v2.581H7.994V7.485H10.826z      M9.166,11.474h1.345c1.021,0,1.602-0.55,1.602-1.502c0-0.953-0.581-1.497-1.596-1.497h-1.35V11.474z"/>
			<path d="M13.618,13.474c0-0.963,0.738-1.555,2.047-1.628l1.507-0.089v-0.424c0-0.612-0.414-0.979-1.104-0.979     c-0.654,0-1.063,0.314-1.162,0.806h-1.068c0.063-0.995,0.911-1.727,2.272-1.727c1.335,0,2.188,0.707,2.188,1.811v3.795h-1.084     v-0.906h-0.026c-0.319,0.612-1.015,1-1.738,1C14.372,15.133,13.618,14.463,13.618,13.474z M17.172,12.976v-0.434l-1.356,0.084     c-0.675,0.047-1.057,0.345-1.057,0.817c0,0.481,0.398,0.796,1.005,0.796C16.555,14.238,17.172,13.693,17.172,12.976z"/>
			<path d="M19.321,17.064v-0.916c0.084,0.021,0.272,0.021,0.366,0.021c0.523,0,0.806-0.22,0.979-0.785c0-0.01,0.1-0.335,0.1-0.34     l-1.989-5.512h1.225l1.392,4.481h0.021l1.392-4.481H24l-2.062,5.794c-0.471,1.335-1.015,1.764-2.156,1.764     C19.687,17.09,19.404,17.08,19.321,17.064z"/>
		</g>
	</g>
</g>















</svg>
