<svg id="Layer_1" height="512" viewBox="0 0 24 24" width="512" xmlns="http://www.w3.org/2000/svg" data-name="Layer 1"><path d="m10 12a1.983 1.983 0 0 1 .5-1.31v-3.69a1.5 1.5 0 0 1 3 0v3.69a1.966 1.966 0 0 1 0 2.62v2.19a1.5 1.5 0 0 1 -3 0v-2.19a1.985 1.985 0 0 1 -.5-1.31zm2-12a1.5 1.5 0 0 0 0 3 9 9 0 0 1 0 18 1.5 1.5 0 0 0 0 3 12 12 0 0 0 0-24zm-9 12a1.5 1.5 0 1 0 -1.5 1.5 1.5 1.5 0 0 0 1.5-1.5zm3.74-10.606a1.5 1.5 0 1 0 1.5 1.5 1.5 1.5 0 0 0 -1.5-1.5zm-3.827 3.856a1.5 1.5 0 1 0 1.5 1.5 1.5 1.5 0 0 0 -1.5-1.5zm3.827 14.356a1.5 1.5 0 1 0 1.5 1.5 1.5 1.5 0 0 0 -1.5-1.5zm-3.827-3.856a1.5 1.5 0 1 0 1.5 1.5 1.5 1.5 0 0 0 -1.5-1.5z"/></svg>