<?xml version="1.0" encoding="UTF-8"?>
<svg xmlns="http://www.w3.org/2000/svg" id="Layer_1" data-name="Layer 1" viewBox="0 0 24 24" width="512" height="512"><path d="M23.072.929A3.142,3.142,0,0,0,19.725.208L3.354,6.653a5.3,5.3,0,0,0-3.19,6.2A15.686,15.686,0,0,0,11.145,23.836h0a5.305,5.305,0,0,0,6.205-3.2l6.457-16.4A3.126,3.126,0,0,0,23.072.929ZM19.36,7.344a2.985,2.985,0,1,0-2.178,5.531l-2.62,6.654a2.342,2.342,0,0,1-.253.459c-5.076-.126-10.173-5.223-10.3-10.3a2.331,2.331,0,0,1,.45-.248L20.787,3.014a.133.133,0,0,1,.164.036.136.136,0,0,1,.05.126h0ZM12,12a2,2,0,0,1-4,0A2,2,0,0,1,12,12Z"/></svg>
