<?xml version="1.0" encoding="UTF-8"?>
<!-- Generator: Adobe Illustrator 26.0.1, SVG Export Plug-In . SVG Version: 6.00 Build 0)  -->
<svg xmlns="http://www.w3.org/2000/svg" xmlns:xlink="http://www.w3.org/1999/xlink" version="1.1" id="Capa_1" x="0px" y="0px" viewBox="0 0 24 24" style="enable-background:new 0 0 24 24;" xml:space="preserve" width="512" height="512">
<path d="M19.75,0.3H4.25C1.903,0.3,0,2.203,0,4.55v14.9c0,2.347,1.903,4.25,4.25,4.25h15.5c2.347,0,4.25-1.903,4.25-4.25V4.55  C24,2.203,22.097,0.3,19.75,0.3z M9.775,16.612C9.172,16.871,8.462,17,7.646,17c-0.548,0.005-1.096-0.046-1.634-0.153  c-0.425-0.081-0.839-0.213-1.232-0.394c-0.086-0.043-0.129-0.134-0.129-0.274v-1.917c-0.003-0.035,0.012-0.067,0.04-0.088  c0.034-0.016,0.074-0.013,0.105,0.008c0.877,0.54,1.884,0.83,2.914,0.837c0.612,0,1.049-0.094,1.312-0.282  c0.244-0.149,0.395-0.413,0.4-0.7c0.002-0.172-0.042-0.342-0.129-0.491c-0.116-0.174-0.27-0.32-0.451-0.427  c-0.281-0.172-0.577-0.317-0.885-0.434l-0.8-0.339c-0.655-0.278-1.168-0.576-1.538-0.893c-0.337-0.271-0.6-0.622-0.765-1.022  c-0.141-0.376-0.212-0.775-0.209-1.176c-0.023-1.165,0.657-2.229,1.723-2.7c0.569-0.273,1.277-0.409,2.125-0.41  c0.482-0.001,0.964,0.032,1.441,0.1c0.371,0.041,0.733,0.142,1.071,0.3c0.075,0.043,0.118,0.125,0.112,0.21v1.824  c-0.003,0.028-0.017,0.054-0.04,0.072c-0.027,0.027-0.062,0.025-0.1-0.008c-0.356-0.183-0.735-0.317-1.127-0.4  C9.407,8.145,8.954,8.097,8.5,8.1C8.235,8.095,7.97,8.122,7.711,8.181C7.397,8.253,7.049,8.388,6.888,8.687  C6.746,8.951,6.755,9.278,6.932,9.524c0.133,0.164,0.297,0.3,0.483,0.4c0.499,0.286,1.011,0.486,1.539,0.702  c0.99,0.405,2.033,0.969,2.495,1.988c0.163,0.39,0.245,0.809,0.242,1.232C11.681,15.083,10.916,16.152,9.775,16.612z M19.762,14.52  c-0.514,1.082-1.575,1.862-2.701,2.21c-0.587,0.181-1.198,0.272-1.812,0.27c-0.043,0-0.086-0.003-0.128-0.008  c-0.054,0-0.161-0.008-0.226-0.008v2.736c0.007,0.072-0.045,0.137-0.116,0.144c-0.004,0-0.008,0.001-0.012,0.001  c-0.161,0.011-0.3,0.027-0.524,0.048c-0.224,0.021-0.432,0.043-0.636,0.065c-0.204,0.022-0.381,0.037-0.531,0.048  c-0.092,0.004-0.184,0.015-0.274,0.032c-0.064,0-0.1-0.043-0.1-0.128c0,0,0-9.436,0-9.451c0-0.244-0.014-0.489-0.025-0.733  c-0.003-0.105-0.011-0.21-0.024-0.314c-0.008-0.045,0.02-0.089,0.065-0.1c0.267-0.097,0.575-0.193,0.925-0.29  c0.349-0.1,0.73-0.182,1.144-0.258C15.22,8.709,15.66,8.672,16.1,8.676c0.708,0,1.314,0.107,1.819,0.322  c0.935,0.397,1.661,1.17,2.004,2.125c0.168,0.47,0.253,0.966,0.25,1.465C20.189,13.255,20.048,13.917,19.762,14.52z M15.909,10.575  l-0.003,0.001c-0.167-0.001-0.334,0.01-0.5,0.033c-0.15,0.021-0.358,0-0.519,0.043v4.4c0.098,0.032,0.198,0.058,0.3,0.077  c0.1,0,0.185,0.008,0.25,0.008c0.392-0.001,0.78-0.082,1.141-0.237c0.376-0.16,0.697-0.426,0.925-0.764  c0.247-0.355,0.371-0.822,0.371-1.4c0-0.687-0.172-1.219-0.516-1.594C17.014,10.767,16.531,10.578,15.909,10.575z"/>















</svg>
