<?xml version="1.0" encoding="UTF-8"?>
<!-- Generator: Adobe Illustrator 26.0.1, SVG Export Plug-In . SVG Version: 6.00 Build 0)  -->
<svg xmlns="http://www.w3.org/2000/svg" xmlns:xlink="http://www.w3.org/1999/xlink" version="1.1" id="Capa_1" x="0px" y="0px" viewBox="0 0 24 24" style="enable-background:new 0 0 24 24;" xml:space="preserve" width="512" height="512">
<g>
	<g id="Surfaces_00000121272836238291306230000011672537812004301721_">
		<g id="Photo_Surface_1_">
			<g id="Outline_no_shadow_00000100358263114505726170000014876107576961158537_">
				<path d="M9.13,11.89c-0.08,0-0.17,0-0.27-0.01V9.5c0.06-0.01,0.15-0.02,0.29-0.01c0.14-0.01,0.3-0.01,0.48-0.01      c0.487,0,1.042,0.108,1.33,0.54c0.12,0.19,0.18,0.41,0.17,0.63c0,0.31-0.07,0.56-0.22,0.73c-0.343,0.388-0.903,0.51-1.4,0.51      H9.13z"/>
				<path d="M19.75,0.3H4.25C1.9,0.3,0,2.2,0,4.55v14.9c0,2.35,1.9,4.25,4.25,4.25h15.5c2.35,0,4.25-1.9,4.25-4.25V4.55      C24,2.2,22.1,0.3,19.75,0.3z M21.25,13.03l-8.22,8.22c-0.27,0.27-0.64,0.43-1.03,0.43s-0.76-0.15-1.03-0.43l-8.22-8.22      c-0.57-0.57-0.57-1.49,0-2.06l8.22-8.22c0.57-0.57,1.49-0.57,2.06,0l8.22,8.22C21.82,11.54,21.82,12.46,21.25,13.03z       M12.74,3.04c-0.41-0.41-1.08-0.41-1.49,0l-8.22,8.22c-0.41,0.41-0.41,1.08,0,1.49l8.22,8.22c0.41,0.41,1.08,0.41,1.49,0      l8.22-8.22c0.41-0.41,0.41-1.08,0-1.49L12.74,3.04z M12.26,12.12c-0.28,0.4-0.68,0.7-1.14,0.86c-0.51,0.17-1.05,0.26-1.6,0.24      c-0.17,0-0.29,0-0.35-0.01C9.1,13.21,9,13.2,8.86,13.2v2.27c0.01,0.05-0.03,0.1-0.08,0.1H7.4c-0.05,0.02-0.08-0.01-0.08-0.08      V8.21c0-0.05,0.02-0.08,0.07-0.08c0.12,0,0.23,0,0.4-0.01c0.17,0,0.35-0.01,0.54-0.01c0.19,0,0.4-0.01,0.62-0.01      c0.22,0,0.43-0.01,0.64-0.01c0.5-0.01,0.99,0.06,1.46,0.22c0.36,0.12,0.68,0.32,0.95,0.58c0.23,0.23,0.41,0.5,0.52,0.8      c0.11,0.29,0.16,0.6,0.16,0.92C12.68,11.22,12.54,11.72,12.26,12.12z M17.27,14.87c-0.2,0.28-0.47,0.5-0.79,0.63      c-0.41,0.16-0.84,0.24-1.28,0.23c-0.32,0-0.65-0.03-0.96-0.09c-0.25-0.05-0.49-0.12-0.72-0.23c-0.05-0.03-0.08-0.08-0.08-0.14      v-1.23c0-0.02,0.01-0.05,0.03-0.06c0.02-0.01,0.05-0.01,0.06,0.01c0.27,0.16,0.57,0.28,0.88,0.35c0.27,0.07,0.55,0.1,0.83,0.11      c0.2,0.01,0.4-0.02,0.59-0.1c0.12-0.05,0.19-0.17,0.19-0.3c-0.01-0.12-0.07-0.22-0.17-0.29c-0.22-0.14-0.45-0.25-0.7-0.33      c-0.36-0.12-0.7-0.3-1.01-0.51c-0.22-0.16-0.41-0.36-0.54-0.6c-0.11-0.22-0.17-0.47-0.17-0.72c0-0.3,0.08-0.6,0.24-0.86      c0.18-0.28,0.44-0.51,0.74-0.65c0.39-0.18,0.82-0.27,1.25-0.25c0.29,0,0.59,0.02,0.88,0.06c0.21,0.03,0.42,0.08,0.61,0.17      c0.03,0.01,0.06,0.03,0.07,0.06c0.01,0.03,0.01,0.06,0.01,0.09v1.15c0,0.03-0.01,0.05-0.03,0.07c-0.04,0.02-0.08,0.02-0.11,0      c-0.21-0.11-0.44-0.19-0.68-0.24c-0.26-0.06-0.53-0.09-0.79-0.09c-0.14,0-0.29,0.01-0.43,0.05c-0.09,0.02-0.17,0.07-0.22,0.14      c-0.04,0.06-0.06,0.13-0.06,0.19c0,0.07,0.03,0.13,0.07,0.18c0.07,0.08,0.15,0.14,0.24,0.19c0.16,0.09,0.33,0.17,0.5,0.23      c0.38,0.13,0.75,0.3,1.09,0.52c0.23,0.15,0.42,0.35,0.56,0.59c0.11,0.23,0.17,0.48,0.17,0.73      C17.55,14.26,17.45,14.59,17.27,14.87z"/>
			</g>
		</g>
	</g>
</g>















</svg>
