<?xml version="1.0" encoding="UTF-8"?>
<svg xmlns="http://www.w3.org/2000/svg" id="Layer_1" data-name="Layer 1" viewBox="0 0 24 24" width="512" height="512"><path d="M17.5,13A6.5,6.5,0,1,0,11,6.5,6.508,6.508,0,0,0,17.5,13Zm0-3a3.463,3.463,0,0,1-1.164-.214l4.45-4.45A3.463,3.463,0,0,1,21,6.5,3.5,3.5,0,0,1,17.5,10Zm0-7a3.463,3.463,0,0,1,1.164.214l-4.45,4.45A3.463,3.463,0,0,1,14,6.5,3.5,3.5,0,0,1,17.5,3ZM24,11.966V24H0V6.5A3.5,3.5,0,0,1,3.5,3H9.763a8.44,8.44,0,0,0-.738,3H3.5a.5.5,0,0,0-.5.5v.46l7.361,7.361a2.373,2.373,0,0,0,3.278,0l.174-.174a8.44,8.44,0,0,0,3.4.839L15.76,16.442a5.317,5.317,0,0,1-7.521,0L3,11.2V21H21V14.237A8.546,8.546,0,0,0,24,11.966Z"/></svg>
