<?xml version="1.0" encoding="UTF-8"?>
<svg xmlns="http://www.w3.org/2000/svg" id="Layer_1" data-name="Layer 1" viewBox="0 0 24 24" width="512" height="512"><path d="M1.5,21H13.062c3.634,0,6.546-1.716,7.789-4.59a1.72,1.72,0,0,0-.137-1.655,1.642,1.642,0,0,0-1.395-.749h-4.31a.482.482,0,0,0-.3.084l-1.983,1.322A3.5,3.5,0,0,1,10.788,16H1.5a1.5,1.5,0,0,1,0-3h9.288a.5.5,0,0,0,.279-.085l1.982-1.322a3.488,3.488,0,0,1,1.94-.587h1.782a12.984,12.984,0,0,0-3.394-4.432A3.392,3.392,0,0,0,11.5,6H1.5a1.5,1.5,0,0,1,0-3H4.181l-.094-.357A2.106,2.106,0,0,1,8.16,1.569L8.537,3H11.5a6.349,6.349,0,0,1,3.776,1.252,16.4,16.4,0,0,1,4.788,6.82,4.654,4.654,0,0,1,3.157,2.034A4.734,4.734,0,0,1,23.6,17.6C21.872,21.607,17.931,24,13.062,24H1.5a1.5,1.5,0,0,1,0-3Zm8-10h0a1.5,1.5,0,0,0,0-3l-8-.006h0a1.5,1.5,0,0,0,0,3ZM9,18.506a1.5,1.5,0,1,0-1.5,1.5A1.5,1.5,0,0,0,9,18.506Zm-5,0a1.5,1.5,0,1,0-1.5,1.5A1.5,1.5,0,0,0,4,18.506Zm10,0a1.5,1.5,0,1,0-1.5,1.5A1.5,1.5,0,0,0,14,18.506Z"/></svg>
