<?xml version="1.0" encoding="UTF-8"?>
<svg xmlns="http://www.w3.org/2000/svg" id="Layer_1" data-name="Layer 1" viewBox="0 0 24 24" width="512" height="512"><path d="M12,2.5A2.5,2.5,0,1,1,14.5,5,2.5,2.5,0,0,1,12,2.5ZM24,19v.5A4.505,4.505,0,0,1,19.5,24H0V21H.01l1.844-8H4.933L3.088,21H4.614L6.3,16.887l.533.573a4.414,4.414,0,0,0,.88.755l1.02.644L7.854,21H12V19.276l-3.459-2.45a3.47,3.47,0,0,1-1.3-4.242L8.709,9H6.42L5.261,11h-3.1L4.987,6H12.5a3.519,3.519,0,0,1,3,1.7L17.488,11h1.267l.424-1.837,2.923.674L19.526,21A1.5,1.5,0,0,0,21,19.5V19Zm-9-1.276V21h1.447l1.615-7h-2.27l-2.13-3.539L11.885,15.52Z"/></svg>
