<?xml version="1.0" encoding="UTF-8"?>
<!-- Generator: Adobe Illustrator 25.0.0, SVG Export Plug-In . SVG Version: 6.00 Build 0)  -->
<svg xmlns="http://www.w3.org/2000/svg" xmlns:xlink="http://www.w3.org/1999/xlink" version="1.1" id="Capa_1" x="0px" y="0px" viewBox="0 0 512 512" style="enable-background:new 0 0 512 512;" xml:space="preserve" width="512" height="512">
<g>
	<path d="M512,117.333C511.929,52.561,459.439,0.071,394.667,0H117.333C52.561,0.071,0.071,52.561,0,117.333v21.333   c0.008,19.49,7.669,38.198,21.333,52.096v203.904C21.404,459.439,73.895,511.929,138.667,512h234.667   c64.772-0.071,117.263-52.561,117.333-117.333V190.763c13.665-13.898,21.326-32.606,21.333-52.096V117.333z M64,117.333   C64,87.878,87.878,64,117.333,64h277.333C424.122,64,448,87.878,448,117.333v21.333c0,5.891-4.776,10.667-10.667,10.667H74.667   c-5.891,0-10.667-4.776-10.667-10.667V117.333z M426.667,394.667c0,29.455-23.878,53.333-53.333,53.333H138.667   c-29.455,0-53.333-23.878-53.333-53.333V213.333h341.333V394.667z"/>
	<path d="M202.667,256h106.667c17.673,0,32,14.327,32,32l0,0c0,17.673-14.327,32-32,32H202.667c-17.673,0-32-14.327-32-32l0,0   C170.667,270.327,184.994,256,202.667,256z"/>
</g>















</svg>
