<?xml version="1.0" encoding="UTF-8"?>
<!-- Generator: Adobe Illustrator 26.0.1, SVG Export Plug-In . SVG Version: 6.00 Build 0)  -->
<svg xmlns="http://www.w3.org/2000/svg" xmlns:xlink="http://www.w3.org/1999/xlink" version="1.1" id="Capa_1" x="0px" y="0px" viewBox="0 0 24.035 24.035" style="enable-background:new 0 0 24.035 24.035;" xml:space="preserve" width="512" height="512">
<path d="M24.023,10.602c-0.007-0.013-0.015-0.025-0.02-0.039c-0.051-0.151-0.178-0.237-0.337-0.229  c-0.121,0.007-0.234,0.044-0.336,0.105c-0.09,0.054-0.179,0.112-0.261,0.178c-0.117,0.093-0.232,0.189-0.345,0.286  c-0.213-1.916-0.465-3.856-0.465-5.678c0-2.039,0.41-3.77,0.504-4.274c0.048-0.31,0.074-0.501,0.074-0.646  c0-0.193-0.097-0.288-0.361-0.288c-1.942,0-6.214,3.096-6.214,7.726c0,1.896,0.407,3.243,1.128,4.417  c-0.265-0.046-0.479-0.046-0.672-0.046c-0.766,0-1.487,0.191-1.942,0.288v-0.481c0-1.033-0.239-2.449-0.675-2.928  c-0.046-0.051-0.12-0.071-0.188-0.071c-0.194,0-0.435,0.094-0.698,0.239c-0.288,0.142-0.575,0.29-0.575,0.387  c0,0.043,0,0.092,0.069,0.211c0.168,0.242,0.626,0.723,0.794,1.851c-0.552-0.553-1.167-0.88-1.88-1.044c0,0-2.081-0.615-5.123,0.603  C6.283,9.25,6.003,7.051,6.003,5.226c0-2.039,0.407-3.77,0.504-4.274c0.046-0.31,0.074-0.501,0.074-0.646  c0-0.193-0.102-0.288-0.362-0.288C4.274,0.018,0,3.113,0,7.744c0,3.289,1.202,4.873,3.292,6.914  c-1.27,2.042-2.281,4.465-2.281,6.624c0,1.56,0.361,2.736,1.51,2.736c2.403,0,4.203-4.992,4.203-8.688  c0-1.103-0.045-1.897-0.139-2.999c1.185-0.751,1.771-0.802,2.109-0.922l0.009-0.002c-0.027,0.107-0.046,0.216-0.046,0.326  c0,1.245,1.654,1.869,3.742,1.869c0.387,0,0.817-0.071,1.247-0.168c0,0.385,0.051,0.721,0.051,1.008c0,0.41,0.071,0.72,0.333,0.72  c0.41,0,0.652-0.814,0.695-1.993c0.746-0.191,1.515-0.359,2.164-0.359c0.311,0,0.695,0.048,1.079,0.12  c0.43,0.575,0.957,1.127,1.583,1.728c-1.273,2.042-2.278,4.465-2.278,6.624c0,1.56,0.359,2.736,1.51,2.736  c2.401,0,4.2-4.992,4.2-8.688c0-1.103-0.048-2.21-0.145-3.312l-0.008-0.082c0.166-0.155,0.335-0.308,0.507-0.457  c0.1-0.086,0.202-0.169,0.302-0.253c0.056-0.047,0.113-0.094,0.166-0.144c0.114-0.108,0.216-0.224,0.231-0.39  C24.031,10.662,24.027,10.632,24.023,10.602z M3.124,22.48c-0.507,0-0.937-0.504-0.962-1.39c-0.046-2.881,1.321-5.33,2.688-7.079  c0.191,1.271,0.361,2.518,0.361,3.503C5.211,19.817,4.442,22.505,3.124,22.48z M4.946,2.945C4.49,4.192,4.058,5.969,4.058,8.105  c0,1.273,0.313,2.953,0.578,4.656l-0.769,1.034c-1.224-1.489-1.99-3.169-1.99-6.051c0-4.076,2.469-6.906,3.742-6.906  c0.071,0,0.097,0.021,0.097,0.092C5.715,1.074,5.376,1.746,4.946,2.945z M12.159,12.738c-0.937,0-1.632-0.364-1.632-0.886  c0-0.338,0.168-0.532,0.647-0.532c0.771,0,1.393,0.532,2.064,1.369C12.833,12.738,12.591,12.738,12.159,12.738z M18.136,7.744  c0-4.076,2.472-6.906,3.742-6.906c0.072,0,0.094,0.021,0.094,0.092c0,0.145-0.334,0.817-0.769,2.016  c-0.456,1.247-0.886,3.024-0.886,5.16c0,1.273,0.316,2.953,0.578,4.656l-0.769,1.034C18.905,12.305,18.136,10.625,18.136,7.744z   M19.383,22.48c-0.504,0-0.934-0.504-0.962-1.39c-0.046-2.881,1.321-5.33,2.691-7.079c0.188,1.271,0.359,2.518,0.359,3.503  C21.47,19.817,20.704,22.505,19.383,22.48z"/>















</svg>
