<?xml version="1.0" encoding="UTF-8"?>
<svg xmlns="http://www.w3.org/2000/svg" id="Layer_1" data-name="Layer 1" viewBox="0 0 24 24" width="512" height="512"><path d="M20.293,15.505l2.762,1.17A11.952,11.952,0,0,1,21.5,19.329l-2.373-1.835A9,9,0,0,0,20.293,15.505Zm-4.786,4.787,1.17,2.762A11.962,11.962,0,0,0,19.331,21.5L17.5,19.127A8.917,8.917,0,0,1,15.507,20.292ZM3.669,15.412.894,16.55a11.983,11.983,0,0,0,1.541,2.7l2.39-1.814A8.948,8.948,0,0,1,3.669,15.412Zm.944,6.045a12.038,12.038,0,0,0,2.673,1.582l1.18-2.759a9,9,0,0,1-2-1.185Zm.008-18.92L6.465,4.9A8.987,8.987,0,0,1,8.472,3.718L7.294.958A11.988,11.988,0,0,0,4.621,2.537Zm.208,4.024L2.44,4.746A12.009,12.009,0,0,0,.9,7.44L3.671,8.581A8.949,8.949,0,0,1,4.829,6.561ZM3,12a9.142,9.142,0,0,1,.076-1.172L.1,10.445A12.182,12.182,0,0,0,0,12a12.041,12.041,0,0,0,.1,1.546l2.975-.383A9.167,9.167,0,0,1,3,12Zm9,9a9.157,9.157,0,0,1-1.285-.091l-.424,2.97a12.129,12.129,0,0,0,3.418,0l-.424-2.97A9.178,9.178,0,0,1,12,21ZM12,0a12.169,12.169,0,0,0-1.709.121l.424,2.97A9.157,9.157,0,0,1,12,3a9.01,9.01,0,0,1,8.909,10.287l2.971.421A12.186,12.186,0,0,0,24,12,12.013,12.013,0,0,0,12,0ZM10.5,6v4.69a1.991,1.991,0,0,0,2.81,2.81H17v-3H13.5V6Z"/></svg>
