<?xml version="1.0" encoding="UTF-8"?>
<!-- Generator: Adobe Illustrator 26.0.1, SVG Export Plug-In . SVG Version: 6.00 Build 0)  -->
<svg xmlns="http://www.w3.org/2000/svg" xmlns:xlink="http://www.w3.org/1999/xlink" version="1.1" id="Capa_1" x="0px" y="0px" viewBox="0 0 24 24" style="enable-background:new 0 0 24 24;" xml:space="preserve" width="512" height="512">
<g>
	<g>
		<path d="M13.537,12c0,3.764-3.03,6.815-6.769,6.815C3.03,18.815,0,15.764,0,12s3.03-6.815,6.769-6.815    C10.507,5.185,13.537,8.236,13.537,12"/>
		<path d="M20.963,12c0,3.543-1.515,6.415-3.384,6.415c-1.869,0-3.384-2.872-3.384-6.415c0-3.543,1.515-6.415,3.384-6.415    C19.447,5.585,20.963,8.457,20.963,12"/>
		<path d="M24,12c0,3.174-0.533,5.748-1.19,5.748c-0.657,0-1.19-2.573-1.19-5.748s0.533-5.748,1.19-5.748    C23.467,6.252,24,8.826,24,12"/>
	</g>
</g>















</svg>
