<?xml version="1.0" encoding="UTF-8"?>
<svg xmlns="http://www.w3.org/2000/svg" id="Layer_1" data-name="Layer 1" viewBox="0 0 24 24" width="512" height="512"><path d="M22,11.5a5.491,5.491,0,0,0-8.487-4.611C13.649,3.12,15.975,3,16,3a.879.879,0,0,1,1,1h3a3.87,3.87,0,0,0-4-4,5.4,5.4,0,0,0-3.951,2.069A6.24,6.24,0,0,0,9.808.158L8.466,2.842c.481.241,1.93.971,2.026,4.05A5.495,5.495,0,1,0,6.729,16.939a5.5,5.5,0,1,0,10.542,0A5.5,5.5,0,0,0,22,11.5Zm-17,0A2.5,2.5,0,1,1,7.5,14,2.5,2.5,0,0,1,5,11.5ZM12,21a2.5,2.5,0,1,1,2.5-2.5A2.5,2.5,0,0,1,12,21Zm4.5-7A2.5,2.5,0,1,1,19,11.5,2.5,2.5,0,0,1,16.5,14Z"/></svg>
