<svg id="Layer_1" height="512" viewBox="0 0 24 24" width="512" xmlns="http://www.w3.org/2000/svg" data-name="Layer 1"><path d="m9.856 20.743a9 9 0 1 1 11.144-8.743 1.5 1.5 0 0 0 3 0 12 12 0 1 0 -14.856 11.657 1.464 1.464 0 0 0 .356.043 1.5 1.5 0 0 0 .355-2.957z"/><path d="m23.621 15.939a1.5 1.5 0 0 0 -2.121 0l-4.785 4.782-2.133-2.26a1.5 1.5 0 0 0 -2.121-.043 1.5 1.5 0 0 0 -.042 2.121l2.581 2.721a2.362 2.362 0 0 0 1.674.74h.037a2.368 2.368 0 0 0 1.661-.688l5.254-5.252a1.5 1.5 0 0 0 -.005-2.121z"/><path d="m10.5 7.5v3.555l-2.4 1.5a1.5 1.5 0 0 0 -.475 2.068 1.5 1.5 0 0 0 2.068.475l2.869-1.8a2 2 0 0 0 .938-1.7v-4.098a1.5 1.5 0 0 0 -3 0z"/></svg>