<?xml version="1.0" encoding="UTF-8"?>
<!-- Generator: Adobe Illustrator 26.0.1, SVG Export Plug-In . SVG Version: 6.00 Build 0)  -->
<svg xmlns="http://www.w3.org/2000/svg" xmlns:xlink="http://www.w3.org/1999/xlink" version="1.1" id="Capa_1" x="0px" y="0px" viewBox="0 0 24 24" style="enable-background:new 0 0 24 24;" xml:space="preserve" width="512" height="512">
<g transform="translate(-15 -14.636)">
	<path d="M33.735,36.943c-0.468,0-0.846,0.38-0.846,0.847c0,0.468,0.38,0.846,0.847,0.846c0.467,0,0.845-0.379,0.846-0.845   C34.582,37.323,34.202,36.943,33.735,36.943z M33.736,38.487c-0.385-0.001-0.697-0.314-0.696-0.699   c0-0.384,0.312-0.696,0.697-0.696c0.385,0,0.698,0.311,0.698,0.697v0.002C34.434,38.176,34.121,38.488,33.736,38.487z    M34.071,37.578c0.003-0.165-0.128-0.303-0.294-0.306c-0.016,0-0.032,0.001-0.049,0.003l-0.291-0.002v1.03h0.186v-0.43h0.026   c0.014,0.021,0.28,0.43,0.28,0.43h0.225c0,0-0.282-0.413-0.311-0.452C33.975,37.829,34.072,37.713,34.071,37.578z M33.647,37.729   h-0.024v-0.306l0.084,0c0.158,0,0.18,0.077,0.18,0.144C33.887,37.664,33.846,37.729,33.647,37.729z M33.842,37.851   c0.133-0.022,0.23-0.139,0.228-0.274c0.003-0.165-0.128-0.303-0.294-0.306c-0.016,0-0.032,0.001-0.049,0.003l-0.291-0.002v1.03   h0.186v-0.43h0.026c0.014,0.021,0.28,0.43,0.28,0.43h0.225C34.154,38.303,33.871,37.89,33.842,37.851z M33.647,37.729h-0.024   v-0.306l0.084,0c0.158,0,0.18,0.077,0.18,0.144C33.887,37.664,33.846,37.729,33.647,37.729z M33.842,37.851   c0.133-0.022,0.23-0.139,0.228-0.274c0.003-0.165-0.128-0.303-0.294-0.306c-0.016,0-0.032,0.001-0.049,0.003l-0.291-0.002v1.03   h0.186v-0.43h0.026c0.014,0.021,0.28,0.43,0.28,0.43h0.225C34.154,38.303,33.871,37.89,33.842,37.851z M33.647,37.729h-0.024   v-0.306l0.084,0c0.158,0,0.18,0.077,0.18,0.144C33.887,37.664,33.846,37.729,33.647,37.729z M33.734,25.834   c-0.653-0.384-1.169-0.636-1.152-1.275c0.017-0.624,0.534-0.842,1.032-0.838c0.596,0.031,1.158,0.289,1.571,0.72v-1.526   c-0.557-0.405-1.237-0.606-1.925-0.57c-1.28-0.014-2.331,1.007-2.354,2.287h-0.001c0.002,0.933,0.262,1.631,1.709,2.48   c0.772,0.453,1.083,0.753,1.096,1.303c0.015,0.612-0.408,0.981-1.052,0.978c-0.623-0.044-1.213-0.295-1.677-0.714v1.616   c0.583,0.349,1.249,0.537,1.928,0.545c1.733,0,2.506-1.225,2.54-2.347C35.482,27.469,35.199,26.695,33.734,25.834z M27.263,22.346   c-0.833-0.029-1.655,0.188-2.365,0.624v11.433h1.755l0-3.694c0.257,0.071,0.523,0.105,0.79,0.1c1.948,0,3.065-1.759,3.065-4.317   C30.508,23.935,29.357,22.346,27.263,22.346z M27.222,29.381c-0.195-0.002-0.387-0.038-0.57-0.106l-0.001-5.391   c0.196-0.085,0.408-0.128,0.622-0.127c1.019,0,1.44,0.813,1.44,2.778C28.714,28.454,28.23,29.381,27.222,29.381z M22.245,29.134   c-0.248,0.153-0.537,0.228-0.828,0.216c-0.804,0-0.924-0.737-0.924-1.235v-5.592h-1.754v5.514h-0.002   c0,1.859,0.88,2.801,2.616,2.801c0.932,0.035,1.853-0.21,2.643-0.705v-7.611h-1.751V29.134z M33.734,25.834   c-0.653-0.384-1.169-0.636-1.152-1.275c0.017-0.624,0.534-0.842,1.032-0.838c0.596,0.031,1.158,0.289,1.571,0.72v-1.526   c-0.557-0.405-1.237-0.606-1.925-0.57c-1.28-0.014-2.331,1.007-2.354,2.287h-0.001c0.002,0.933,0.262,1.631,1.709,2.48   c0.772,0.453,1.083,0.753,1.096,1.303c0.015,0.612-0.408,0.981-1.052,0.978c-0.623-0.044-1.213-0.295-1.677-0.714v1.616   c0.583,0.349,1.249,0.537,1.928,0.545c1.733,0,2.506-1.225,2.54-2.347C35.482,27.469,35.199,26.695,33.734,25.834z M27.263,22.346   c-0.833-0.029-1.655,0.188-2.365,0.624v11.433h1.755l0-3.694c0.257,0.071,0.523,0.105,0.79,0.1c1.948,0,3.065-1.759,3.065-4.317   C30.508,23.935,29.357,22.346,27.263,22.346z M27.222,29.381c-0.195-0.002-0.387-0.038-0.57-0.106l-0.001-5.391   c0.196-0.085,0.408-0.128,0.622-0.127c1.019,0,1.44,0.813,1.44,2.778C28.714,28.454,28.23,29.381,27.222,29.381z M22.245,22.524   v6.611c-0.248,0.153-0.537,0.228-0.828,0.216c-0.804,0-0.924-0.737-0.924-1.235v-5.592h-1.754v5.514h-0.002   c0,1.859,0.88,2.801,2.616,2.801c0.932,0.035,1.853-0.21,2.643-0.705v-7.611H22.245z M33.734,25.834   c-0.653-0.384-1.169-0.636-1.152-1.275c0.017-0.624,0.534-0.842,1.032-0.838c0.596,0.031,1.158,0.289,1.571,0.72v-1.526   c-0.557-0.405-1.237-0.606-1.925-0.57c-1.28-0.014-2.331,1.007-2.354,2.287h-0.001c0.002,0.933,0.262,1.631,1.709,2.48   c0.772,0.453,1.083,0.753,1.096,1.303c0.015,0.612-0.408,0.981-1.052,0.978c-0.623-0.044-1.213-0.295-1.677-0.714v1.616   c0.583,0.349,1.249,0.537,1.928,0.545c1.733,0,2.506-1.225,2.54-2.347C35.482,27.469,35.199,26.695,33.734,25.834z M27.263,22.346   c-0.833-0.029-1.655,0.188-2.365,0.624v11.433h1.755l0-3.694c0.257,0.071,0.523,0.105,0.79,0.1c1.948,0,3.065-1.759,3.065-4.317   C30.508,23.935,29.357,22.346,27.263,22.346z M27.222,29.381c-0.195-0.002-0.387-0.038-0.57-0.106l-0.001-5.391   c0.196-0.085,0.408-0.128,0.622-0.127c1.019,0,1.44,0.813,1.44,2.778C28.714,28.454,28.23,29.381,27.222,29.381z M22.245,29.134   c-0.248,0.153-0.537,0.228-0.828,0.216c-0.804,0-0.924-0.737-0.924-1.235v-5.592h-1.754v5.514h-0.002   c0,1.859,0.88,2.801,2.616,2.801c0.932,0.035,1.853-0.21,2.643-0.705v-7.611h-1.751V29.134z"/>
	<path d="M27,14.636c-3.889,0-7.282,0.753-10.084,2.238v11.871c0,2.497,0.937,4.586,2.712,6.04c1.623,1.331,6.78,3.593,7.372,3.851   c0.592-0.257,5.75-2.52,7.372-3.85c1.775-1.454,2.712-3.543,2.712-6.04V16.874C34.282,15.389,30.889,14.636,27,14.636z    M36.157,28.745c0,2.232-0.81,4.036-2.374,5.325c-1.396,1.15-5.608,3.037-6.783,3.554c-1.191-0.525-5.413-2.438-6.785-3.554   c-1.554-1.267-2.372-3.113-2.372-5.325v-6.79c4.331-3.973,9.57-5.023,14.457-5.023c1.318,0,2.611,0.076,3.857,0.192V28.745z"/>
</g>















</svg>
