<?xml version="1.0" encoding="UTF-8"?>
<svg xmlns="http://www.w3.org/2000/svg" id="Layer_1" data-name="Layer 1" viewBox="0 0 24 24" width="512" height="512"><path d="M22.934,16.1a3.515,3.515,0,0,1,.082,4.946s-.93,1.066-.954,1.091c-3.44,3.2-7.766,1.85-11.86-.611a1.5,1.5,0,1,1,1.6-2.539c2.935,1.645,5.681,3.043,8.107,1.063,0,0,.924-1.059.949-1.083a.5.5,0,0,0,0-.707l-2.238-2.074c-.3-.25-.469-.253-.747-.04l-1.136,1.118a1.5,1.5,0,0,1-1.588.331q-.27-.1-.532-.214a1.5,1.5,0,0,1,.651-2.88l.492-.484a3.59,3.59,0,0,1,4.941.008Zm.627-13.539-21,21A1.5,1.5,0,0,1,.439,21.439L4.88,17c-4-4.7-7.018-10.6-3.018-15.061C1.887,1.914,2.954.984,2.954.984a3.583,3.583,0,0,1,4.908.041l2.152,2.318a3.493,3.493,0,0,1-.039,4.91l-.388.393a13.1,13.1,0,0,0,1.381,2.265L21.439.439A1.5,1.5,0,0,1,23.561,2.561ZM7,14.88l1.827-1.827A16.434,16.434,0,0,1,6.414,8.877a1.5,1.5,0,0,1,.323-1.61L7.845,6.141a.485.485,0,0,0,.009-.717L5.7,3.106a.487.487,0,0,0-.667.04C5.009,3.171,3.95,4.1,3.95,4.1,1.5,7,4.224,11.591,7,14.88Z"/></svg>
