<?xml version="1.0" encoding="UTF-8"?>
<svg xmlns="http://www.w3.org/2000/svg" id="Layer_1" data-name="Layer 1" viewBox="0 0 24 24" width="512" height="512"><path d="M15.628,5.458A2.822,2.822,0,0,1,18,3V0a5.438,5.438,0,0,0-4.5,2.755V0h-3V2.755A5.438,5.438,0,0,0,6,0V3A2.822,2.822,0,0,1,8.372,5.458C3.7,6.8,3,10.866,3,14.5,3,18.923,4.023,24,12,24s9-5.077,9-9.5C21,10.866,20.3,6.8,15.628,5.458Zm-.921,15.249L12,18,9.293,20.707c-2.034-.529-2.867-1.8-3.156-3.844L8.5,14.5,6.137,12.137c.289-2.049,1.122-3.315,3.156-3.844L12,11l2.707-2.707c2.034.529,2.867,1.8,3.156,3.844L15.5,14.5l2.363,2.363C17.574,18.912,16.741,20.178,14.707,20.707ZM15.5,14.5,12,18,8.5,14.5,12,11Z"/></svg>
