<?xml version="1.0" encoding="UTF-8"?>
<!-- Generator: Adobe Illustrator 25.0.0, SVG Export Plug-In . SVG Version: 6.00 Build 0)  -->
<svg xmlns="http://www.w3.org/2000/svg" xmlns:xlink="http://www.w3.org/1999/xlink" version="1.1" id="Capa_1" x="0px" y="0px" viewBox="0 0 512 512" style="enable-background:new 0 0 512 512;" xml:space="preserve" width="512" height="512">
<g>
	<path d="M435.413,86.379l-51.029-51.584C362.29,12.599,332.288,0.084,300.97,0H160C95.228,0.071,42.737,52.561,42.666,117.333   v277.333C42.737,459.439,95.228,511.929,160,512h192c64.772-0.071,117.263-52.561,117.333-117.333V168.896   C469.414,137.981,457.213,108.299,435.413,86.379z M405.333,394.667C405.333,424.122,381.455,448,352,448H160   c-29.455,0-53.333-23.878-53.333-53.333V117.333C106.666,87.878,130.545,64,160,64h117.333v85.333   C277.333,172.897,296.436,192,320,192h85.333V394.667z"/>
</g>















</svg>
