<?xml version="1.0" encoding="UTF-8"?>
<svg xmlns="http://www.w3.org/2000/svg" id="Layer_1" data-name="Layer 1" viewBox="0 0 24 24" width="512" height="512"><path d="M5.391,16.538A2.846,2.846,0,0,0,5,17.875c0,1.9,1.716,2.725,2.852,3.269a6.713,6.713,0,0,1,1.113.615,4.971,4.971,0,0,1-.322.577l2.543,1.593A4.3,4.3,0,0,0,12,21.708c0-1.9-1.716-2.726-2.852-3.27a7.6,7.6,0,0,1-1.066-.578,10.3,10.3,0,0,1,.635-1.023,7.993,7.993,0,0,0,4.743-4.078,6.619,6.619,0,0,0,2.833,2.849,3.928,3.928,0,0,0-.2,2.27,4.8,4.8,0,0,0,2.7,2.879c1.432.816,1.423.834.922,1.763l2.643,1.422c1.9-3.526-.79-5.056-2.081-5.792-.506-.288-1.2-.683-1.264-.957-.018-.075-.059-.5.62-1.553C22.268,14.48,24,10.635,24,7.115A5.86,5.86,0,0,0,18,1a5.892,5.892,0,0,0-4.461,1.907A7.628,7.628,0,0,0,7.5,0,7.316,7.316,0,0,0,0,7.1C0,10.88,2.236,15.158,5.391,16.538ZM18,4a2.9,2.9,0,0,1,3,3.115C21,10.09,19.282,13,18,13s-3-2.91-3-5.885A2.9,2.9,0,0,1,18,4ZM7.5,3A4.319,4.319,0,0,1,12,7.1C12,10.113,9.817,14,7.5,14S3,10.113,3,7.1A4.319,4.319,0,0,1,7.5,3Z"/></svg>
