<?xml version="1.0" encoding="UTF-8"?>
<svg xmlns="http://www.w3.org/2000/svg" id="Layer_1" data-name="Layer 1" viewBox="0 0 24 24" width="512" height="512"><path d="M5.023,14.027A17.62,17.62,0,0,1,0,3V2.65A2.586,2.586,0,0,1,1.637.19,2.71,2.71,0,0,1,4.622.86L7.739,4.241,6.585,5.4a5.51,5.51,0,0,0-.837,1.113L3.041,3.571A15.321,15.321,0,0,0,4.992,9.083c0-.016,0-.031,0,0a5.966,5.966,0,0,0,1.273,3.7ZM19.27,16.75l-.665.665A5.322,5.322,0,0,1,16.772,18.6l5,5.3,2.206-2.034Zm4.639-7.466L21.788,7.163,15.069,13.88a.5.5,0,0,1-.706,0L13.3,12.819l7.071-7.071L18.252,3.627,11.181,10.7,10.12,9.637a.5.5,0,0,1,0-.707l6.717-6.718L14.716.091,8,6.809a3.5,3.5,0,0,0,0,4.949L9.06,12.819l-9,8.995,2.122,2.122,8.995-9L12.241,16a3.5,3.5,0,0,0,4.95,0Z"/></svg>
