<?xml version="1.0" encoding="UTF-8"?>
<!-- Generator: Adobe Illustrator 25.0.0, SVG Export Plug-In . SVG Version: 6.00 Build 0)  -->
<svg xmlns="http://www.w3.org/2000/svg" xmlns:xlink="http://www.w3.org/1999/xlink" version="1.1" id="Capa_1" x="0px" y="0px" viewBox="0 0 512.012 512.012" style="enable-background:new 0 0 512.012 512.012;" xml:space="preserve" width="512" height="512">
<g>
	<path d="M405.339,298.678c-31.546,0.117-61.402,14.278-81.451,38.635l-115.2-52.011c2.93-9.494,4.496-19.356,4.651-29.291   c-0.138-9.827-1.653-19.586-4.501-28.992l115.072-52.267c37.932,44.641,104.871,50.08,149.512,12.149S523.502,82.031,485.57,37.39   S380.7-12.691,336.059,25.241c-23.88,20.291-37.565,50.102-37.386,81.437c0,3.029,0.64,5.888,0.896,8.853l-126.763,57.536   c-18.688-15.229-42.026-23.601-66.133-23.723c-58.91,0-106.667,47.756-106.667,106.667s47.756,106.667,106.667,106.667   c24.003-0.098,47.255-8.376,65.92-23.467l126.976,57.323c-0.256,2.965-0.896,5.803-0.896,8.811   c0,58.91,47.756,106.667,106.667,106.667s106.667-47.756,106.667-106.667S464.25,298.678,405.339,298.678z M405.339,64.012   c23.564,0,42.667,19.103,42.667,42.667s-19.103,42.667-42.667,42.667c-23.564,0-42.667-19.103-42.667-42.667   S381.775,64.012,405.339,64.012z M106.673,298.678c-23.564,0-42.667-19.103-42.667-42.667s19.103-42.667,42.667-42.667   s42.667,19.103,42.667,42.667S130.237,298.678,106.673,298.678z M405.339,448.012c-23.564,0-42.667-19.102-42.667-42.667   s19.103-42.667,42.667-42.667c23.564,0,42.667,19.102,42.667,42.667S428.903,448.012,405.339,448.012z"/>
</g>















</svg>
