<?xml version="1.0" encoding="UTF-8"?>
<svg xmlns="http://www.w3.org/2000/svg" id="Layer_1" data-name="Layer 1" viewBox="0 0 24 24" width="512" height="512"><path d="M13.5,11.281v-.676A6,6,0,0,1,19,7a2,2,0,0,0,0-4,6,6,0,0,0-5.5,3.605V0h-3V6.605A6,6,0,0,0,5,3,2,2,0,0,0,5,7a6,6,0,0,1,5.5,3.605v.676A34.254,34.254,0,0,0,1.5,10H0v1.5C0,22.376,4.528,24,7.227,24a5.492,5.492,0,0,0,3.245-1.27A2.909,2.909,0,0,1,12,22a2.911,2.911,0,0,1,1.527.729A5.491,5.491,0,0,0,16.772,24C19.472,24,24,22.376,24,11.5V10H22.5A34.254,34.254,0,0,0,13.5,11.281ZM16.772,21a2.911,2.911,0,0,1-1.527-.729A5.486,5.486,0,0,0,12,19a5.492,5.492,0,0,0-3.245,1.27A2.905,2.905,0,0,1,7.227,21c-3.182,0-4.022-4.456-4.191-7.955a31.639,31.639,0,0,1,8.427,1.689l.538.2.536-.2a31.639,31.639,0,0,1,8.427-1.689C20.8,16.544,19.955,21,16.772,21Z"/><path d="M18.686,15.371a28.61,28.61,0,0,0-5.21,1.347l-.8.315c1.858.182,3.075,1.717,4.053,1.967C18.009,19.328,18.293,17.713,18.686,15.371Z"/><path d="M5.314,15.371c.393,2.342.677,3.957,1.958,3.629.978-.25,2.2-1.785,4.053-1.967l-.8-.315A28.61,28.61,0,0,0,5.314,15.371Z"/></svg>
