<?xml version="1.0" encoding="UTF-8"?>
<svg xmlns="http://www.w3.org/2000/svg" id="Layer_1" data-name="Layer 1" viewBox="0 0 24 24" width="512" height="512"><path d="M18.449,16a5.506,5.506,0,0,0-3.925,1.63c-2.28,2.285-5.518,3.4-9.9,3.4h-1.1a.5.5,0,0,1-.484-.325.508.508,0,0,1,.115-.58l.511-.512a9.491,9.491,0,0,0,6.121-2.781l3.834-3.848c.049,0,.1.012.147.014.087,0,.174.006.26.006a6.071,6.071,0,0,0,4.286-1.778l.912-.913a6.079,6.079,0,0,0-.4-8.944A6.213,6.213,0,0,0,10.5,1.9l-.578.58A6.423,6.423,0,0,0,8.069,7.6L4.32,11.356a9.529,9.529,0,0,0-2.771,6.128L1.033,18a3.53,3.53,0,0,0,2.493,6.024h1.1c5.218,0,9.151-1.4,12.023-4.278a2.529,2.529,0,0,1,1.8-.748A2.557,2.557,0,0,1,21,21.56v.966a1.5,1.5,0,0,0,3,0V21.56A5.56,5.56,0,0,0,18.449,16ZM12.041,4.6l.577-.578A3.423,3.423,0,0,1,15.028,3a2.881,2.881,0,0,1,1.87.663A3.076,3.076,0,0,1,17.1,8.189l-.912.914A3.047,3.047,0,0,1,11.686,8.9,3.226,3.226,0,0,1,12.041,4.6Zm-5.6,8.88,2.821-2.831c.045.058.075.123.122.179a6.024,6.024,0,0,0,1.123,1.031L7.664,14.71a6.536,6.536,0,0,1-2.92,1.7A6.572,6.572,0,0,1,6.444,13.475Z"/></svg>
