<?xml version="1.0" encoding="UTF-8"?>
<svg xmlns="http://www.w3.org/2000/svg" id="Layer_1" data-name="Layer 1" viewBox="0 0 24 24" width="512" height="512"><path d="M24,15.5v3A5.506,5.506,0,0,1,18.5,24H5.5A5.506,5.506,0,0,1,0,18.5V8.5A5.506,5.506,0,0,1,5.5,3h2a1.5,1.5,0,0,1,0,3h-2A2.493,2.493,0,0,0,3.3,7.336l6.931,6.932a2.551,2.551,0,0,0,2.979.42,1.5,1.5,0,0,1,1.455,2.624,5.523,5.523,0,0,1-6.555-.922L3,11.278V18.5A2.5,2.5,0,0,0,5.5,21h13A2.5,2.5,0,0,0,21,18.5v-3A1.5,1.5,0,0,1,24,15.5Zm-13-9A6.508,6.508,0,0,1,17.5,0c8.6.305,8.6,12.7,0,13A6.508,6.508,0,0,1,11,6.5Zm10,0a3.463,3.463,0,0,0-.214-1.164l-4.45,4.45A3.5,3.5,0,0,0,21,6.5Zm-7,0a3.463,3.463,0,0,0,.214,1.164l4.45-4.45A3.5,3.5,0,0,0,14,6.5Z"/></svg>
