<?xml version="1.0" encoding="UTF-8"?>
<svg xmlns="http://www.w3.org/2000/svg" id="Layer_1" data-name="Layer 1" viewBox="0 0 24 24" width="512" height="512"><path d="M23,13a6.09,6.09,0,0,0-5.25-5.923A5.115,5.115,0,0,0,18,5.5C18,2.313,15.477,0,12,0S6,2.313,6,5.5a5.115,5.115,0,0,0,.25,1.577A6.09,6.09,0,0,0,1,13a6.136,6.136,0,0,0,6.25,6,6.247,6.247,0,0,0,3.293-.954C9.793,20.282,9,21,5,21v3H19V21c-4,0-4.793-.718-5.543-2.954A6.247,6.247,0,0,0,16.75,19,6.136,6.136,0,0,0,23,13ZM12,3c1.822,0,3,.981,3,2.5,0,.962-.668,1.885-1.987,2.743l0,0A8.341,8.341,0,0,0,12,9.1a8.341,8.341,0,0,0-1.015-.858l0,0C9.668,7.385,9,6.462,9,5.5,9,3.981,10.178,3,12,3ZM7.25,16A3.136,3.136,0,0,1,4,13a3.136,3.136,0,0,1,3.25-3C9,10,10.7,12.219,10.7,12.229l.455.779-.451.757C10.693,13.786,9.35,16,7.25,16ZM13.3,13.771l-.455-.779.451-.757C13.3,12.222,15,10,16.75,10A3.136,3.136,0,0,1,20,13a3.136,3.136,0,0,1-3.25,3C14.65,16,13.307,13.786,13.3,13.771Z"/></svg>
