<?xml version="1.0" encoding="UTF-8"?>
<svg xmlns="http://www.w3.org/2000/svg" id="Isolation_Mode" data-name="Isolation Mode" viewBox="0 0 24 24" width="512" height="512"><path d="M10.984,5.716a.735.735,0,1,0,0-1.47h-.715l0,1.473Z"/><path d="M21,0H3A3,3,0,0,0,0,3V24H17.471L24,17.471V3A3,3,0,0,0,21,0ZM16.259,6.62c-.752-.277-1.43-.58-1.43-.58a1.572,1.572,0,0,1-.777-1.579,1.711,1.711,0,0,1,1.239-1.38,2.813,2.813,0,0,1,2.452.537l.479.4-.8.956-.475-.4a1.567,1.567,0,0,0-1.29-.3.457.457,0,0,0-.363.361.3.3,0,0,0,.13.3c.016,0,.614.263,1.273.507A1.827,1.827,0,0,1,18.1,7.461a2,2,0,0,1-2.04,1.552A2.869,2.869,0,0,1,13.93,8.1l-.42-.462.926-.841.42.463a1.637,1.637,0,0,0,1.2.5.781.781,0,0,0,.809-.521C16.931,6.9,16.418,6.679,16.259,6.62ZM9.017,3h1.967a1.985,1.985,0,1,1,0,3.97l-.717,0v2.1H9.017ZM4,3H7.261v1.25H5.248V5.384H7.112v1.25H5.248V7.771H7.261v1.25H4ZM21,15H15v6H3V11H21Z"/></svg>
