<?xml version="1.0" encoding="UTF-8"?>
<svg xmlns="http://www.w3.org/2000/svg" id="Layer_1" data-name="Layer 1" viewBox="0 0 24 24" width="512" height="512"><path d="M8.5,12A5.729,5.729,0,0,1,5,11a5.729,5.729,0,0,1,3.5-1A5.729,5.729,0,0,1,12,11,5.729,5.729,0,0,1,8.5,12ZM24,13c0,3.027-3.026,5.458-7.1,5.916C16.286,21.829,12.823,24,8.5,24,3.733,24,0,21.364,0,18V11C0,7.973,3.026,5.542,7.105,5.084,7.714,2.171,11.177,0,15.5,0,20.267,0,24,2.636,24,6ZM10.292,5.13a10.93,10.93,0,0,1,2.2.553A6.305,6.305,0,0,1,15.5,5,5.729,5.729,0,0,1,19,6a5.729,5.729,0,0,1-3.5,1c-.231,0-.452-.01-.662-.028A5.91,5.91,0,0,1,16.493,8.94C19.19,8.657,21,7.268,21,6c0-1.419-2.259-3-5.5-3C12.918,3,10.982,4.005,10.292,5.13ZM3,11c0,1.419,2.259,3,5.5,3S14,12.419,14,11,11.741,8,8.5,8,3,9.581,3,11Zm11,7V15.606A10.852,10.852,0,0,1,8.5,17,10.852,10.852,0,0,1,3,15.606V18c0,1.419,2.259,3,5.5,3S14,19.419,14,18Zm7-5V10.606a10.31,10.31,0,0,1-4,1.3v3.962C19.41,15.472,21,14.186,21,13Z"/></svg>
