<?xml version="1.0" encoding="UTF-8"?>
<!-- Generator: Adobe Illustrator 26.0.1, SVG Export Plug-In . SVG Version: 6.00 Build 0)  -->
<svg xmlns="http://www.w3.org/2000/svg" xmlns:xlink="http://www.w3.org/1999/xlink" version="1.1" id="Capa_1" x="0px" y="0px" viewBox="0 0 24 24" style="enable-background:new 0 0 24 24;" xml:space="preserve" width="512" height="512">
<g>
	<path d="M11.979,0c5.404,0,10.519,3.906,11.719,9.225C23.903,10.135,24,11.068,24,12c0,1.643-0.289,3.182-0.868,4.618   C21.354,21.03,16.699,24,11.979,24C6.145,24,1.047,19.528,0.141,13.791C0.048,13.199,0,12.6,0,12C0,6.212,4.33,1.109,10.032,0.161   C10.675,0.054,11.327,0,11.979,0z M12.021,2.164c-5.289,0-9.857,4.541-9.857,9.836c0,5.279,4.611,9.793,9.857,9.793   c5.35,0,9.814-4.458,9.814-9.793C21.836,6.632,17.393,2.164,12.021,2.164z M11.871,10.007l-1.607,0.836   c-0.171-0.357-0.382-0.607-0.632-0.75C9.382,9.95,9.15,9.879,8.936,9.879c-1.071,0-1.607,0.707-1.607,2.121   c0,0.643,0.136,1.157,0.407,1.543c0.271,0.386,0.671,0.579,1.2,0.579c0.7,0,1.193-0.343,1.479-1.029l1.479,0.75   c-0.314,0.586-0.75,1.047-1.307,1.382c-0.557,0.336-1.171,0.504-1.843,0.504c-1.071,0-1.936-0.329-2.593-0.986   C5.493,14.086,5.164,13.172,5.164,12c0-1.143,0.332-2.05,0.997-2.722c0.664-0.671,1.503-1.007,2.518-1.007   C10.164,8.272,11.229,8.85,11.871,10.007z M18.793,10.007l-1.586,0.836c-0.171-0.357-0.382-0.607-0.632-0.75   c-0.25-0.143-0.489-0.214-0.718-0.214c-1.071,0-1.607,0.707-1.607,2.121c0,0.643,0.136,1.157,0.407,1.543   c0.271,0.386,0.671,0.579,1.2,0.579c0.7,0,1.193-0.343,1.479-1.029l1.5,0.75c-0.329,0.586-0.771,1.047-1.329,1.382   c-0.557,0.336-1.164,0.504-1.821,0.504c-1.086,0-1.954-0.329-2.603-0.986c-0.65-0.657-0.975-1.571-0.975-2.743   c0-1.143,0.332-2.05,0.996-2.722c0.664-0.671,1.503-1.007,2.518-1.007C17.107,8.272,18.164,8.85,18.793,10.007z"/>
</g>















</svg>
