<svg id="Layer_1" height="512" viewBox="0 0 24 24" width="512" xmlns="http://www.w3.org/2000/svg" data-name="Layer 1"><path d="m22.327 18.422c.728 1.034 1.673 2.229 1.673 3.078a2.5 2.5 0 0 1 -5 0c0-.775.961-2.008 1.692-3.069a1 1 0 0 1 1.635-.009zm-.875-3.853-7.82 7.82a5.508 5.508 0 0 1 -7.778 0l-4.243-4.243a5.5 5.5 0 0 1 0-7.778l3.818-3.818-2.99-2.989a1.5 1.5 0 0 1 2.122-2.122l2.989 2.99 1.881-1.881a1.5 1.5 0 0 1 2.13-2.109l12 12a1.5 1.5 0 0 1 -2.109 2.13zm-2.123-2.119-7.779-7.779-1.879 1.879 3.89 3.889a1.5 1.5 0 0 1 -2.122 2.122l-3.889-3.89-3.818 3.818a2.5 2.5 0 0 0 0 3.536l4.243 4.243a2.5 2.5 0 0 0 3.536 0z"/></svg>