<?xml version="1.0" encoding="UTF-8"?>
<!-- Generator: Adobe Illustrator 26.0.1, SVG Export Plug-In . SVG Version: 6.00 Build 0)  -->
<svg xmlns="http://www.w3.org/2000/svg" xmlns:xlink="http://www.w3.org/1999/xlink" version="1.1" id="Capa_1" x="0px" y="0px" viewBox="0 0 24 24" style="enable-background:new 0 0 24 24;" xml:space="preserve" width="512" height="512">
<path d="M14.497,15.012c1.528,0,3.037-0.904,4.001-2.051c1.354-1.61,1.513-4.004,0.919-5.953c-0.178-0.584-0.429-1.146-0.75-1.666  c-0.36-0.584-0.804-1.114-1.299-1.587c-2.302-2.202-5.608-3.128-8.708-2.563C7.61,1.383,6.548,1.726,5.629,2.277  C5.625,2.28,5.62,2.283,5.617,2.285C5.618,2.284,5.62,2.283,5.621,2.282C5.619,2.283,5.617,2.284,5.615,2.285  C5.613,2.287,5.61,2.289,5.608,2.291C5.609,2.29,5.61,2.289,5.612,2.287C5.611,2.288,5.609,2.289,5.608,2.29  C6.556,1.37,8.055,0.634,9.76,0.275c0.784-0.165,1.612-0.249,2.451-0.246c1.797,0,3.587,0.441,5.201,1.224  c1.131,0.548,2.164,1.289,3.04,2.191c0.682,0.702,1.299,1.469,1.811,2.304c0.587,0.957,1.036,2.006,1.328,3.09  c0.001,0.003,0.001,0.005,0.002,0.008C23.858,9.837,24,10.88,24,11.955c0,6.636-5.38,12.016-12.016,12.016  c-5.943,0-10.878-4.315-11.844-9.983c-0.026-0.153-0.037-0.309-0.055-0.464C0.03,13.052,0.002,12.574,0,12.096  c-0.006-1.607,0.284-3.213,0.864-4.609C1.207,6.662,1.78,5.795,2.369,5.175c0.028-0.03,0.056-0.059,0.084-0.087  c0.281-0.284,0.562-0.508,0.822-0.642c-0.05,0.099-0.099,0.198-0.147,0.298C2.936,5.144,2.764,5.556,2.614,5.975  c-0.068,0.19-0.132,0.382-0.191,0.576C2.197,7.294,2.07,7.967,2.027,8.5c0.132-0.434,0.295-0.86,0.49-1.27  c0.026-0.055,0.053-0.109,0.08-0.164c0.414-0.827,0.966-1.595,1.63-2.236C4.56,4.51,4.92,4.215,5.305,3.956  c1.42-0.955,3.079-1.369,4.472-1.33c1.01,0.029,1.882,0.295,2.422,0.766c-0.039,0.013-0.077,0.027-0.116,0.041  c-0.039,0.013-0.078,0.03-0.116,0.045c-2.4,0.971-4.906,4.289-4.331,8.16c0.106,0.717,0.311,1.311,0.589,1.895  c-0.458-1.212-0.499-2.922,0.242-4.028c0.827-1.233,2.014-1.499,2.646-1.363c-1.903,1.618-1.511,4.963,1.119,6.306  C12.914,14.797,13.714,15.012,14.497,15.012z"/>















</svg>
