<?xml version="1.0" encoding="UTF-8"?>
<svg xmlns="http://www.w3.org/2000/svg" id="Layer_1" data-name="Layer 1" viewBox="0 0 24 24" width="512" height="512"><path d="M23.136,13.153,18.96,14.286,17,13.163V10.888l1.957-1.122L23.136,10.9,23.921,8l-3.329-.9.9-3.329L18.6,2.985,17.466,7.163,15.6,8.233,13.5,7.02v-1.8l3.061-3.061L14.439.042,12,2.481,9.561.042,7.439,2.163,10.5,5.224v1.8L8.4,8.233,6.534,7.164,5.4,2.985l-2.894.786.9,3.329L.079,8l.785,2.9L5.043,9.766,7,10.888v2.275L5.041,14.286.864,13.153.079,16.048l3.329.9-.9,3.33,2.894.785,1.134-4.177L8.57,15.722l1.93,1.114v1.94L7.439,21.837l2.122,2.121L12,21.519l2.439,2.439,2.122-2.121L13.5,18.776v-1.94l1.93-1.114,2.036,1.167L18.6,21.066l2.894-.785-.9-3.33,3.329-.9ZM14,13.083l-2,1.154-2-1.154v-2.31l2-1.154,2,1.154Z"/></svg>
