<?xml version="1.0" encoding="UTF-8"?>
<svg xmlns="http://www.w3.org/2000/svg" id="Layer_1" data-name="Layer 1" viewBox="0 0 24 24" width="512" height="512"><path d="M10,11.5a1.5,1.5,0,0,1-3,0A1.5,1.5,0,0,1,10,11.5ZM13.5,15a1.5,1.5,0,0,0,0,3A1.5,1.5,0,0,0,13.5,15Zm-5,0a1.5,1.5,0,0,0,0,3A1.5,1.5,0,0,0,8.5,15ZM22,17.506V10.354a5.258,5.258,0,0,0,1.847-5.33h0A5.378,5.378,0,0,0,18.541,1H5.459A5.378,5.378,0,0,0,.153,5.024,5.258,5.258,0,0,0,2,10.354v7.152A5.5,5.5,0,0,0,7.5,23H16.5A5.5,5.5,0,0,0,22,17.506ZM18.541,4a2.422,2.422,0,0,1,2.392,1.733,2.347,2.347,0,0,1-1.188,2.543A1.5,1.5,0,0,0,19,9.573v7.933A2.5,2.5,0,0,1,16.5,20H7.5A2.5,2.5,0,0,1,5,17.506V9.573a1.5,1.5,0,0,0-.745-1.3A2.347,2.347,0,0,1,3.067,5.734,2.421,2.421,0,0,1,5.459,4Z"/></svg>
