<?xml version="1.0" encoding="UTF-8"?>
<svg xmlns="http://www.w3.org/2000/svg" id="Layer_1" data-name="Layer 1" viewBox="0 0 24 24" width="512" height="512"><path d="M24,10a1.5,1.5,0,0,0-1.5-1.5H21.032l-.779-2.63A5.459,5.459,0,0,0,15.6,2.048,4,4,0,0,0,12.117,0h-.234A3.993,3.993,0,0,0,8.4,2.044,5.467,5.467,0,0,0,3.688,5.889L2.916,8.5H1.5a1.5,1.5,0,0,0,0,3h.528l-.477,1.628A4.461,4.461,0,0,0,3,20.724V22a2,2,0,0,0,4,0V21H17v1a2,2,0,0,0,4,0V20.724a4.46,4.46,0,0,0,1.386-7.648v0L21.92,11.5h.58A1.5,1.5,0,0,0,24,10ZM6.56,6.758A2.487,2.487,0,0,1,8.947,5H15a2.482,2.482,0,0,1,2.382,1.74L18.939,12H5.008ZM19.5,18H4.5a1.5,1.5,0,0,1,0-3H5v.5a1.5,1.5,0,0,0,3,0V15h8v.5a1.5,1.5,0,0,0,3,0V15h.5a1.5,1.5,0,0,1,0,3Z"/></svg>
