<?xml version="1.0" encoding="UTF-8"?>
<svg xmlns="http://www.w3.org/2000/svg" id="Layer_1" data-name="Layer 1" viewBox="0 0 24 24" width="512" height="512"><path d="M18.5,24H13.034C5.711,24.143-.746,18.255.056,10.885A12.024,12.024,0,0,1,9.908.188a11.646,11.646,0,0,1,9.654,2.569A12.451,12.451,0,0,1,24,12.324V18.5A5.506,5.506,0,0,1,18.5,24ZM12.03,3a9.021,9.021,0,0,0-8.988,8.164,8.512,8.512,0,0,0,2.179,6.605A10.5,10.5,0,0,0,13.034,21H18.5A2.5,2.5,0,0,0,21,18.5V12.324a9.46,9.46,0,0,0-3.367-7.27A8.63,8.63,0,0,0,12.03,3ZM14.5,8A2.634,2.634,0,0,0,12,10.75a2.509,2.509,0,1,0-5,0c0,2.163,2.82,4.851,4.225,5.978a1.239,1.239,0,0,0,1.55,0C14.18,15.6,17,12.913,17,10.75A2.634,2.634,0,0,0,14.5,8Z"/></svg>
