<?xml version="1.0" encoding="UTF-8"?>
<svg xmlns="http://www.w3.org/2000/svg" id="Bold" viewBox="0 0 24 24" width="512" height="512"><path d="M10.7,2.625a3.481,3.481,0,0,0-6.3,0H1.5A1.5,1.5,0,0,0,0,4.125H0a1.5,1.5,0,0,0,1.5,1.5H4.395a3.481,3.481,0,0,0,6.3,0H22.5a1.5,1.5,0,0,0,1.5-1.5h0a1.5,1.5,0,0,0-1.5-1.5Z"/><path d="M16.455,8.5a3.492,3.492,0,0,0-3.151,2H1.5A1.5,1.5,0,0,0,0,12H0a1.5,1.5,0,0,0,1.5,1.5H13.3a3.481,3.481,0,0,0,6.3,0H22.5A1.5,1.5,0,0,0,24,12h0a1.5,1.5,0,0,0-1.5-1.5H19.605A3.492,3.492,0,0,0,16.455,8.5Z"/><path d="M7.545,16.375a3.492,3.492,0,0,0-3.15,2H1.5a1.5,1.5,0,0,0-1.5,1.5H0a1.5,1.5,0,0,0,1.5,1.5H4.395a3.481,3.481,0,0,0,6.3,0H22.5a1.5,1.5,0,0,0,1.5-1.5h0a1.5,1.5,0,0,0-1.5-1.5H10.7A3.492,3.492,0,0,0,7.545,16.375Z"/></svg>
