<?xml version="1.0" encoding="UTF-8"?>
<svg xmlns="http://www.w3.org/2000/svg" id="Layer_1" data-name="Layer 1" viewBox="0 0 24 24" width="512" height="512"><path d="M19,15a2,2,0,0,1-4,0A2,2,0,0,1,19,15ZM8,12a2,2,0,0,0,0,4A2,2,0,0,0,8,12Zm16-.993V18.5A5.506,5.506,0,0,1,18.5,24H6.025a5.506,5.506,0,0,1-5.21-3.732A14.366,14.366,0,0,1,.8,10.78,19.446,19.446,0,0,1,7.744,1.06,5.458,5.458,0,0,1,14.029.933l7.289,4.816A6.561,6.561,0,0,1,24,11.007ZM6.051,7H17.772l-5.4-3.567a2.455,2.455,0,0,0-2.83.03A16.683,16.683,0,0,0,6.051,7ZM21,11.007A3.512,3.512,0,0,0,20.851,10H6.026a2.506,2.506,0,0,0-2.371,1.7,11.37,11.37,0,0,0,0,7.6A2.5,2.5,0,0,0,6.025,21H9a3,3,0,0,1,6,0h3.5A2.5,2.5,0,0,0,21,18.5Z"/></svg>
