<svg id="Layer_1" height="512" viewBox="0 0 24 24" width="512" xmlns="http://www.w3.org/2000/svg" data-name="Layer 1"><path d="m13.185 16h-2.37a2.494 2.494 0 0 1 -2.377-1.727l-.732-2.253a2.493 2.493 0 0 1 .908-2.8l1.916-1.388a2.491 2.491 0 0 1 2.938 0l1.917 1.392a2.492 2.492 0 0 1 .908 2.8l-.731 2.253a2.5 2.5 0 0 1 -2.377 1.723zm10.815-4a12 12 0 1 1 -12-12 12.013 12.013 0 0 1 12 12zm-12 9a9.037 9.037 0 0 0 1.544-.142l.848-2.781a2.992 2.992 0 0 1 2.847-2.084l2.817-.005a8.919 8.919 0 0 0 .871-2.9l-2.248-1.5a2.992 2.992 0 0 1 -1.138-3.338l.853-2.573a9.046 9.046 0 0 0 -2.458-1.756l-2.172 1.506a2.993 2.993 0 0 1 -3.528 0l-2.114-1.536a9.039 9.039 0 0 0 -2.43 1.7l.767 2.657a2.992 2.992 0 0 1 -1.138 3.338l-2.234 1.595a8.906 8.906 0 0 0 .857 2.807l2.816.005a2.992 2.992 0 0 1 2.848 2.083l.865 2.784a8.93 8.93 0 0 0 1.527.14z"/></svg>