<?xml version="1.0" encoding="UTF-8"?>
<svg xmlns="http://www.w3.org/2000/svg" id="Layer_1" data-name="Layer 1" viewBox="0 0 24 24" width="512" height="512"><path d="M17.25,24a6.044,6.044,0,0,1-4.9-2.309,3.625,3.625,0,0,0-3.212-1.509C4.269,20.182,0,15.466,0,10.091A10.1,10.1,0,0,1,10.091,0C19.8,0,24,11.423,24,17.25A6.758,6.758,0,0,1,17.25,24ZM10.091,3A7.1,7.1,0,0,0,3,10.091c0,4.058,3.24,7.091,6.136,7.091a6.566,6.566,0,0,1,5.4,2.459A3.117,3.117,0,0,0,17.25,21,3.754,3.754,0,0,0,21,17.25C21,13.057,17.861,3,10.091,3Zm0,2A5.1,5.1,0,0,0,5,10.091a5.457,5.457,0,0,0,.132,1.184L11.29,5.118A6.323,6.323,0,0,0,10.091,5Zm7.971,7.491a17.043,17.043,0,0,0-1.32-2.923l-5.784,5.784a7.989,7.989,0,0,1,3.058,1.184ZM16,18.272c.5.562.68.728,1.253.728A1.752,1.752,0,0,0,19,17.25a12.664,12.664,0,0,0-.31-2.527l-3.111,3.111C15.729,17.988,15.872,18.133,16,18.272ZM13.357,5.911,6.019,13.249a4.779,4.779,0,0,0,2.419,1.823L15.61,7.9A8.572,8.572,0,0,0,13.357,5.911Z"/></svg>
