<?xml version="1.0" encoding="UTF-8"?>
<svg xmlns="http://www.w3.org/2000/svg" id="Layer_1" data-name="Layer 1" viewBox="0 0 24 24" width="512" height="512"><path d="M10.258,5.473,10.252,3.75h.838a.887.887,0,0,1,.889.86.886.886,0,0,1-.889.859ZM24,4.5V15.843a5.462,5.462,0,0,1-1.611,3.889l-2.657,2.657A5.464,5.464,0,0,1,15.843,24H4.5A4.505,4.505,0,0,1,0,19.5V4.5A4.505,4.505,0,0,1,4.5,0h15A4.505,4.505,0,0,1,24,4.5ZM14,6.584a1.991,1.991,0,0,0,2,1.985h0a2,2,0,0,0,2-1.984V6.25a.75.75,0,0,0-.75-.75H16.5a.5.5,0,0,0,0,1h.249v.084a.759.759,0,0,1-.75.735.742.742,0,0,1-.749-.751V4.5A.742.742,0,0,1,16,3.75a.779.779,0,0,1,.662.409.626.626,0,1,0,1.11-.58A2.022,2.022,0,0,0,16,2.5h0a1.991,1.991,0,0,0-2,1.985ZM9,7.944a.625.625,0,0,0,1.25,0V6.723l.84,0a2.11,2.11,0,1,0,0-4.219H10a1,1,0,0,0-1,1ZM4.072,7.4a2.109,2.109,0,0,0,1.849,1.17h0A2.069,2.069,0,0,0,8,6.506V3.15a.65.65,0,0,0-1.3,0l0,3.34a.771.771,0,0,1-.778.781.818.818,0,0,1-.687-.459A.651.651,0,1,0,4.072,7.4ZM4.5,21H15V17a2,2,0,0,1,2-2h4V11H3v8.5A1.5,1.5,0,0,0,4.5,21Z"/></svg>
