<?xml version="1.0" encoding="UTF-8"?>
<!-- Generator: Adobe Illustrator 26.0.1, SVG Export Plug-In . SVG Version: 6.00 Build 0)  -->
<svg xmlns="http://www.w3.org/2000/svg" xmlns:xlink="http://www.w3.org/1999/xlink" version="1.1" id="Capa_1" x="0px" y="0px" viewBox="0 0 24 24" style="enable-background:new 0 0 24 24;" xml:space="preserve" width="512" height="512">
<g>
	<path d="M23.006,0H11.451c0,2.88,2.331,5.211,5.211,5.211h2.126v2.057c0,2.88,2.331,5.211,5.211,5.211V0.994   C24,0.446,23.554,0,23.006,0z"/>
	<path d="M17.28,5.76H5.726c0,2.88,2.331,5.211,5.211,5.211h2.126v2.057c0,2.88,2.332,5.211,5.212,5.211V6.754   C18.274,6.206,17.829,5.76,17.28,5.76z"/>
	<path d="M11.554,11.52H0c0,2.88,2.331,5.211,5.211,5.211h2.126v2.057c0,2.88,2.332,5.211,5.211,5.211V12.514   C12.549,11.966,12.103,11.52,11.554,11.52z"/>
</g>















</svg>
