<?xml version="1.0" encoding="UTF-8"?>
<!-- Generator: Adobe Illustrator 26.0.1, SVG Export Plug-In . SVG Version: 6.00 Build 0)  -->
<svg xmlns="http://www.w3.org/2000/svg" xmlns:xlink="http://www.w3.org/1999/xlink" version="1.1" id="Capa_1" x="0px" y="0px" viewBox="0 0 24 24" style="enable-background:new 0 0 24 24;" xml:space="preserve" width="512" height="512">
<g>
	<path d="M24,2.176C24,0.974,23.026,0,21.824,0H2.176C0.974,0,0,0.974,0,2.176v19.649C0,23.026,0.974,24,2.176,24h19.649   C23.026,24,24,23.026,24,21.824V2.176z M7.997,4.685c0.798,0,1.466,0.625,1.466,1.444c0,0.82-0.668,1.445-1.466,1.445   c-0.798,0-1.466-0.625-1.466-1.445C6.531,5.31,7.199,4.685,7.997,4.685z M17.806,18.505c-1.488,0-2.199-0.883-2.199-2.091   c0-0.345,0.043-0.711,0.151-1.078l0.712-2.544c0.086-0.28,0.108-0.539,0.108-0.776c0-0.819-0.496-1.315-1.294-1.315   c-1.013,0-1.682,0.727-2.027,2.129l-1.38,5.535H9.462l0.433-1.739c-0.71,1.166-1.695,1.888-2.911,1.888   c-1.466,0-2.156-0.845-2.156-2.117c0-0.323,0.043-0.719,0.129-1.085l1.1-4.492H4.354l0.517-1.909h4.096L7.35,15.324   c-0.108,0.41-0.151,0.75-0.151,0.987c0,0.41,0.202,0.53,0.518,0.601c0.192,0.043,1.724,0.013,2.559-1.841l1.062-4.253H9.613   l0.517-1.909h3.687l-0.474,2.167c0.647-1.208,1.94-2.355,3.212-2.355c1.358,0,2.48,0.968,2.48,2.822   c0,0.474-0.065,0.99-0.237,1.572l-0.69,2.479C18.043,15.854,18,16.069,18,16.263c0,0.431,0.173,0.647,0.496,0.647   c0.323,0,0.733-0.238,1.207-1.552l0.949,0.366C20.091,17.686,19.078,18.505,17.806,18.505z"/>
</g>















</svg>
