<?xml version="1.0" encoding="UTF-8"?>
<svg xmlns="http://www.w3.org/2000/svg" id="Layer_1" data-name="Layer 1" viewBox="0 0 24 24" width="512" height="512"><path d="M5.154,16.83A2.02,2.02,0,0,0,5,17.6c0,1.866,1.738,2.641,2.889,3.154a9.1,9.1,0,0,1,1.027.512c-.051.091-.129.219-.247.394a1.5,1.5,0,0,0,2.49,1.674A3.972,3.972,0,0,0,12,21.173c0-1.866-1.738-2.642-2.889-3.155a9.922,9.922,0,0,1-.971-.476c.07-.117.157-.251.249-.387a7.844,7.844,0,0,0,4.6-4.186,6.913,6.913,0,0,0,3.156,3.058c-.612,2.546,1.121,3.724,2.043,4.348.981.664.981.664.6,1.506a1.5,1.5,0,0,0,.748,1.986,1.485,1.485,0,0,0,.617.133,1.5,1.5,0,0,0,1.368-.881c1.423-3.147-.654-4.553-1.652-5.229-.928-.628-1.13-.775-.564-1.857C22.071,14.89,24,10.881,24,7.227A6.067,6.067,0,0,0,17.728.955a6.212,6.212,0,0,0-4.694,1.988A7.218,7.218,0,0,0,0,7.227C0,11.062,2.135,15.4,5.154,16.83ZM17.728,3.955A3.1,3.1,0,0,1,21,7.227c0,3.161-1.844,6.137-3.272,6.137s-3.274-2.976-3.274-6.137A3.1,3.1,0,0,1,17.728,3.955ZM7.228,3a4.231,4.231,0,0,1,4.226,4.227c0,3.314-2.252,7.091-4.226,7.091S3,10.541,3,7.227A4.232,4.232,0,0,1,7.228,3Z"/></svg>
