<?xml version="1.0" encoding="UTF-8"?>
<svg xmlns="http://www.w3.org/2000/svg" id="Layer_1" data-name="Layer 1" viewBox="0 0 24 24" width="512" height="512"><path d="M21.777,2.223C18.416-1.139,12.417-.608,8.4,3.4a11.077,11.077,0,0,0-3.378,8.1H5v3c0,1.223,0,2.379-.561,2.939l-4.4,4.4,2.121,2.121,4.4-4.4c.611-.611,2.232-.583,3.412-.561,1.42.024,2.757-.011,2.856-.011A11.164,11.164,0,0,0,20.6,15.6C24.608,11.583,25.138,5.584,21.777,2.223ZM18.392,3.487,14.541,7.338,11.722,4.52a7.8,7.8,0,0,1,4.441-1.527A5.23,5.23,0,0,1,18.392,3.487ZM9.584,6.624l2.835,2.835L8.476,13.4A6.851,6.851,0,0,1,9.584,6.624Zm1.013,8.9,3.944-3.943,2.835,2.835A6.848,6.848,0,0,1,10.6,15.524Zm8.885-3.244-2.82-2.821L20.524,5.6A6.813,6.813,0,0,1,19.482,12.28Z"/></svg>
