<?xml version="1.0" encoding="UTF-8"?>
<svg xmlns="http://www.w3.org/2000/svg" id="Layer_1" data-name="Layer 1" viewBox="0 0 24 24" width="512" height="512"><path d="M19.975,11h4v1.5A11.514,11.514,0,0,1,12.478,24H0V21H12.478a8.514,8.514,0,0,0,8.367-7H15.312l-2.863,2H0V13H11.506l2.863-2H16.6a19.728,19.728,0,0,0-3.48-4.35A2.446,2.446,0,0,0,11.435,6H0V3H2.89L1.976,0H6.133l.915,3h4.387a5.432,5.432,0,0,1,3.734,1.462A21.812,21.812,0,0,1,19.975,11ZM10,8H0v3H10ZM3,18.5A1.5,1.5,0,1,0,1.5,20,1.5,1.5,0,0,0,3,18.5Zm5,0A1.5,1.5,0,1,0,6.5,20,1.5,1.5,0,0,0,8,18.5Zm5,0A1.5,1.5,0,1,0,11.5,20,1.5,1.5,0,0,0,13,18.5Z"/></svg>
