<?xml version="1.0" encoding="UTF-8"?>
<!-- Generator: Adobe Illustrator 26.0.1, SVG Export Plug-In . SVG Version: 6.00 Build 0)  -->
<svg xmlns="http://www.w3.org/2000/svg" xmlns:xlink="http://www.w3.org/1999/xlink" version="1.1" id="Capa_1" x="0px" y="0px" viewBox="0 0 24 24" style="enable-background:new 0 0 24 24;" xml:space="preserve" width="512" height="512">
<g id="Layer_2_2_">
	<g id="Surfaces_2_">
		<g id="Photo_Surface">
			<g id="Outline_no_shadow_2_">
				<path d="M19.75,0.3H4.25C1.9,0.3,0,2.2,0,4.55v14.9c0,2.35,1.9,4.25,4.25,4.25h15.5c2.35,0,4.25-1.9,4.25-4.25V4.55      C24,2.2,22.1,0.3,19.75,0.3z M8.83,14.95l-0.26,1.74c-0.01,0.06-0.03,0.1-0.06,0.12c-0.03,0.02-0.06,0.03-0.09,0.03H2.71      c-0.1,0-0.14-0.06-0.14-0.18V6.44c0-0.1,0.04-0.14,0.13-0.14h1.77c0.07,0,0.1,0.04,0.1,0.11v8.4h4.16      C8.82,14.81,8.85,14.86,8.83,14.95z M14.17,10.77c0,0.08-0.05,0.11-0.14,0.11c-0.32-0.02-0.64,0-0.95,0.07      c-0.26,0.06-0.51,0.15-0.75,0.27c-0.18,0.09-0.35,0.22-0.49,0.37v5.1c0,0.1-0.04,0.14-0.12,0.14H9.98      c-0.1,0-0.14-0.05-0.14-0.16v-5.54c0-0.24,0-0.49-0.01-0.75c0-0.26-0.01-0.52-0.02-0.78C9.8,9.38,9.78,9.16,9.75,8.94      c0-0.03,0-0.06,0.02-0.09C9.8,8.84,9.82,8.83,9.85,8.84h1.58c0.09,0,0.15,0.05,0.19,0.16c0.03,0.07,0.06,0.15,0.07,0.23      c0.02,0.1,0.03,0.21,0.04,0.31c0.01,0.11,0.01,0.23,0.01,0.36C12,9.56,12.33,9.26,12.7,9.04c0.4-0.24,0.87-0.37,1.34-0.36      c0.09,0,0.13,0.05,0.13,0.14V10.77z M16.95,13.19c0.369,1.144,1.419,1.87,2.61,1.87c0.29,0,0.58-0.01,0.87-0.04      c0.24-0.03,0.48-0.09,0.7-0.17c0.08-0.06,0.13-0.03,0.16-0.01c0.04,0.04,0.06,0.1,0.05,0.15v1.49c0.01,0.12-0.05,0.22-0.15,0.27      c-0.26,0.1-0.53,0.17-0.81,0.2c-0.34,0.05-0.68,0.07-1.03,0.07c-0.49,0-0.99-0.07-1.46-0.2c-0.46-0.12-0.89-0.33-1.27-0.6      c-0.38-0.27-0.71-0.6-0.98-0.99c-0.29-0.42-0.5-0.88-0.64-1.37c-0.15-0.58-0.23-1.17-0.22-1.76c0-0.98,0.19-1.86,0.58-2.6      c0.38-0.73,0.95-1.34,1.66-1.75c0.71-0.41,1.57-0.62,2.55-0.62c0.34,0,0.68,0.02,1.02,0.06c0.23,0.03,0.46,0.08,0.67,0.17      c0.08,0.05,0.12,0.14,0.11,0.24v1.56c0.01,0.06-0.02,0.11-0.06,0.15c-0.04,0.02-0.09,0.02-0.13,0c-0.23-0.12-0.47-0.2-0.72-0.24      c-0.31-0.06-0.63-0.08-0.94-0.08c-0.51-0.01-1.02,0.12-1.46,0.38c-0.41,0.25-0.73,0.62-0.94,1.05      C16.736,11.255,16.667,12.313,16.95,13.19z"/>
			</g>
		</g>
	</g>
</g>















</svg>
