<?xml version="1.0" encoding="UTF-8"?>
<svg xmlns="http://www.w3.org/2000/svg" id="Layer_1" data-name="Layer 1" viewBox="0 0 24 24" width="512" height="512"><path d="M13,24H10V19h3Zm5-5H15v5h3Zm1.263-5.947a5.762,5.762,0,0,0-11.226,1.04A5,5,0,0,0,8,23.9V20.722A1.994,1.994,0,0,1,9,17h2V14.75A2.752,2.752,0,0,1,13.75,12,2.723,2.723,0,0,1,16.5,14.57L16.568,16H18.5A2.5,2.5,0,0,1,21,18.5a2.462,2.462,0,0,1-1,1.975v3.312a5.5,5.5,0,0,0-.737-10.734ZM22.5,9A1.5,1.5,0,1,0,24,10.5,1.5,1.5,0,0,0,22.5,9Zm0-9A1.5,1.5,0,1,0,24,1.5,1.5,1.5,0,0,0,22.5,0Zm-4,5A1.5,1.5,0,1,0,20,6.5,1.5,1.5,0,0,0,18.5,5ZM3.756,14.379A7.917,7.917,0,0,1,3,11a8.009,8.009,0,0,1,8-8,7.912,7.912,0,0,1,1.472.137A10.75,10.75,0,0,0,9.266,8.443,7.7,7.7,0,0,1,13.1,7.054,9.559,9.559,0,0,1,16.326,4l2.313-1.32L16.311,1.383A10.978,10.978,0,0,0,2.174,17.537,7,7,0,0,1,3.756,14.379Z"/></svg>
