<?xml version="1.0" encoding="UTF-8"?>
<svg xmlns="http://www.w3.org/2000/svg" id="Layer_1" data-name="Layer 1" viewBox="0 0 24 24" width="512" height="512"><path d="M14.122,24H9.877A8.766,8.766,0,0,1,3.72,21.507a14.1,14.1,0,0,1-3.546-6.04A4.26,4.26,0,0,1,4.252,10h15.5a4.284,4.284,0,0,1,4.079,5.467,14.11,14.11,0,0,1-3.548,6.04A8.763,8.763,0,0,1,14.122,24ZM4.252,13a1.222,1.222,0,0,0-1,.5,1.27,1.27,0,0,0-.2,1.128,11.24,11.24,0,0,0,2.783,4.755A5.744,5.744,0,0,0,9.877,21h4.245a5.744,5.744,0,0,0,4.04-1.618,11.247,11.247,0,0,0,2.785-4.756,1.27,1.27,0,0,0-.2-1.128,1.222,1.222,0,0,0-1-.5ZM17,6.5a5.165,5.165,0,0,0-1.44-3.647A1.763,1.763,0,0,1,15,1.5,1.5,1.5,0,0,0,13.5,0h0A1.5,1.5,0,0,0,12,1.5a4.757,4.757,0,0,0,1.439,3.473A2.18,2.18,0,0,1,14,6.5a1.5,1.5,0,0,0,3,0Zm-5,1V7.192a4.909,4.909,0,0,0-1.439-3.474A1.9,1.9,0,0,1,10,2.364V1.5a1.5,1.5,0,0,0-3,0v.864A4.882,4.882,0,0,0,8.44,5.839,1.8,1.8,0,0,1,9,7.192V7.5a1.5,1.5,0,0,0,3,0Z"/></svg>
