<?xml version="1.0" encoding="UTF-8"?>
<!-- Generator: Adobe Illustrator 26.0.1, SVG Export Plug-In . SVG Version: 6.00 Build 0)  -->
<svg xmlns="http://www.w3.org/2000/svg" xmlns:xlink="http://www.w3.org/1999/xlink" version="1.1" id="Capa_1" x="0px" y="0px" viewBox="0 0 24 24" style="enable-background:new 0 0 24 24;" xml:space="preserve" width="512" height="512">
<g>
	<path id="j-green_1_" d="M9.202,16.983l2.367-2.369L6.23,9.279C5.464,8.513,5.463,7.263,6.234,6.491   C7.004,5.722,8.25,5.722,9.019,6.49l0.184,0.184l2.37-2.368l-0.184-0.184C10.037,2.772,8.141,2.3,6.409,2.706   C6.16,1.18,4.837,0.016,3.241,0.015c-1.773,0-3.21,1.438-3.21,3.211c0,1.529,1.069,2.809,2.5,3.132   c-0.542,1.813-0.099,3.859,1.332,5.29L9.202,16.983z"/>
	<path id="j-orange_1_" d="M12.314,4.127c1.426-1.426,3.458-1.875,5.264-1.344c0.216-1.563,1.558-2.768,3.181-2.768   c1.773,0,3.211,1.437,3.211,3.211c0,1.63-1.215,2.976-2.788,3.183c0.517,1.799,0.066,3.817-1.351,5.235l-0.184,0.185l-2.367-2.37   l0.183-0.184c0.769-0.769,0.769-2.016,0.001-2.784c-0.767-0.766-2.01-0.767-2.782,0.004l-5.338,5.334l-2.37-2.368l0,0L12.314,4.127   z"/>
	<path id="j-red_2_" d="M17.463,14.943c0.772,0.772,0.77,2.015,0.004,2.782c-0.768,0.768-2.015,0.768-2.785-0.001L14.5,17.542   l-2.367,2.37l0.182,0.181c1.442,1.442,3.506,1.883,5.328,1.322l0,0c0.297,1.467,1.592,2.57,3.147,2.57   c1.773,0,3.211-1.436,3.211-3.21c0-1.62-1.199-2.96-2.759-3.179c0.424-1.743-0.047-3.659-1.409-5.021L14.5,7.238l-2.37,2.367   L17.463,14.943z"/>
	<path id="j-blue_2_" d="M14.352,12.39l2.367,2.37l0,0l-5.331,5.336c-1.368,1.368-3.296,1.833-5.047,1.399   c-0.327,1.427-1.605,2.489-3.13,2.49C1.437,23.985,0,22.548,0,20.775c0-1.518,1.054-2.791,2.47-3.125   c-0.448-1.759,0.016-3.702,1.393-5.079l0.181-0.181l2.37,2.368L6.23,14.94c-0.769,0.769-0.768,2.015,0.001,2.784   c0.772,0.772,2.021,0.77,2.788,0.003L14.352,12.39z"/>
</g>















</svg>
