<svg id="Layer_1" height="512" viewBox="0 0 24 24" width="512" xmlns="http://www.w3.org/2000/svg" data-name="Layer 1"><path d="m22.5 13.5h-21a1.5 1.5 0 0 1 0-3h21a1.5 1.5 0 0 1 0 3zm-3.633-6.6a2.717 2.717 0 0 0 -1.423-3.059q-.061-.031-.126-.057l-8.455-3.384a3.475 3.475 0 0 0 -3.343.058 3.078 3.078 0 0 0 -1.52 2.682v2.645a3.218 3.218 0 0 0 3.215 3.215h8.785a2.8 2.8 0 0 0 2.867-2.1zm-4.088-.9h-7.564a.215.215 0 0 1 -.215-.215v-2.645c0-.072.009-.077.042-.1a.385.385 0 0 1 .193-.04c.082 0 7.544 3 7.544 3zm-5.916 17.6 8.455-3.389q.064-.026.126-.057a2.718 2.718 0 0 0 1.423-3.06 2.8 2.8 0 0 0 -2.867-2.094h-8.785a3.218 3.218 0 0 0 -3.215 3.214v2.645a3.076 3.076 0 0 0 1.52 2.681 3.377 3.377 0 0 0 1.713.46 3.553 3.553 0 0 0 1.63-.4zm5.916-5.6s-7.222 2.9-7.279 2.93a.49.49 0 0 1 -.46.025c-.033-.02-.042-.025-.042-.1v-2.641a.215.215 0 0 1 .217-.214z"/></svg>