<?xml version="1.0" encoding="UTF-8"?>
<svg xmlns="http://www.w3.org/2000/svg" id="Layer_1" data-name="Layer 1" viewBox="0 0 24 24" width="512" height="512"><path d="M22,8.5a4.491,4.491,0,0,0-6-4.239V3.5A3.5,3.5,0,0,0,12.5,0H7V3H8V8c0,.382-1.38,1.427-2.043,1.929C4.193,11.263,2,12.924,2,15.5c0,2.821,1.6,4.3,3.152,5.725l.5.463A1.116,1.116,0,0,1,6,22.5V24H18V22.5a1.113,1.113,0,0,1,.348-.812l.5-.463C20.4,19.8,22,18.321,22,15.5a5.159,5.159,0,0,0-1.619-3.572A4.473,4.473,0,0,0,22,8.5ZM17.5,7a1.5,1.5,0,0,1,.511,2.9,9.9,9.9,0,0,1-1.957-1.75A1.485,1.485,0,0,1,17.5,7ZM7.768,12.32C9.356,11.117,11,9.873,11,8V3h1.5a.5.5,0,0,1,.5.5V8c0,1.873,1.644,3.117,3.232,4.32.291.221.59.448.88.68H6.888C7.178,12.768,7.477,12.541,7.768,12.32Zm9.047,6.7-.521.483A4.106,4.106,0,0,0,15.283,21H8.717a4.115,4.115,0,0,0-1.01-1.5l-.522-.483c-1.295-1.193-2-1.892-2.152-3.018H18.967C18.814,17.126,18.11,17.825,16.815,19.018Z"/></svg>
