<?xml version="1.0" encoding="UTF-8"?>
<svg xmlns="http://www.w3.org/2000/svg" id="Layer_1" data-name="Layer 1" viewBox="0 0 24 24" width="512" height="512"><g><path d="M12,0A12.013,12.013,0,0,0,0,12c.6,15.9,23.4,15.893,24,0A12.013,12.013,0,0,0,12,0Zm0,21a9.011,9.011,0,0,1-9-9C3.453.077,20.549.08,21,12A9.011,9.011,0,0,1,12,21Zm-.007-6A21.923,21.923,0,0,0,18,14c-.615,2.28-2.664,5-6,5s-5.392-2.72-6.007-5A21.841,21.841,0,0,0,11.993,15Z"/><path d="M16.386,6l.652,2.005h2.109l.3.918-1.706,1.24.652,2.006-.781.567L15.9,11.5,14.2,12.737l-.781-.567.652-2.006-1.706-1.24.3-.918h2.109l.652-2Z"/><path d="M8.579,6l.652,2.005H11.34l.3.918-1.706,1.24.652,2.006-.781.567L8.1,11.5,6.39,12.737l-.781-.567.652-2.006L4.555,8.924l.3-.918H6.962l.652-2Z"/></g></svg>
