<?xml version="1.0" encoding="UTF-8"?>
<svg xmlns="http://www.w3.org/2000/svg" id="Layer_1" data-name="Layer 1" viewBox="0 0 24 24" width="512" height="512"><path d="M19.052,3A25.728,25.728,0,0,1,21,13h3A26.928,26.928,0,0,0,21.311.771L20.883,0H.573L3.779,6.412A30.557,30.557,0,0,0,0,20.444,3.4,3.4,0,0,0,3.4,24H17.6A3.4,3.4,0,0,0,21,20.444c-.383-8.076-3.1-12.976-4-14.395V3ZM17.89,20.875A.4.4,0,0,1,17.6,21H3.4a.4.4,0,0,1-.4-.415A32.7,32.7,0,0,1,3.97,14H14.95a25.068,25.068,0,0,0-1.032-3h-9a21,21,0,0,1,1.4-3h8.347A28.009,28.009,0,0,1,18,20.585.4.4,0,0,1,17.89,20.875ZM14,5H6.427l-1-2H14Z"/></svg>
