<?xml version="1.0" encoding="UTF-8"?>
<svg xmlns="http://www.w3.org/2000/svg" id="Layer_1" data-name="Layer 1" viewBox="0 0 24 24" width="512" height="512"><path d="M24,11a4.006,4.006,0,0,1-3.623,3.982A9.441,9.441,0,0,1,17,19.332V24H14V20.743a7.808,7.808,0,0,1-4-.007V24H7V19.326A9.3,9.3,0,0,1,3.331,14H3.5a12.839,12.839,0,0,0,2.841-.421A6.267,6.267,0,0,0,12,18a6.262,6.262,0,0,0,5.784-4.814L18.039,12H20a1,1,0,0,0,.034-2l-1.252-.045L18.6,8.714A6.7,6.7,0,0,0,12,3,7.012,7.012,0,0,0,5.11,8.761,12.633,12.633,0,0,0,11.345,5H12a4.634,4.634,0,0,1,2.588.807,16.787,16.787,0,0,1-4.78,4.225,1.507,1.507,0,1,1-1.671.849A12.8,12.8,0,0,1,3.5,12H2V10A10.011,10.011,0,0,1,12,0a9.727,9.727,0,0,1,9.36,7.233A3.988,3.988,0,0,1,24,11Zm-8,.5A1.5,1.5,0,1,0,14.5,13,1.5,1.5,0,0,0,16,11.5Z"/></svg>
