<?xml version="1.0" encoding="UTF-8"?>
<svg xmlns="http://www.w3.org/2000/svg" id="Layer_1" data-name="Layer 1" viewBox="0 0 24 24" width="512" height="512"><path d="M14,16c-.052,3.948-3.948,3.948-4,0C10.052,12.052,13.948,12.052,14,16ZM5,24H8V14H5Zm11,0h3V14H16ZM8,7c-2.267,0-3,3.369-3,5,2.759-2.607,3.254-2.59,6,0C11,10.369,10.267,7,8,7Zm8,0c-2.267,0-3,3.369-3,5,2.759-2.607,3.254-2.59,6,0C19,10.369,18.267,7,16,7Zm8,5A12.013,12.013,0,0,0,12,0C1.759-.084-3.8,12.384,3,19.911V12C3.454.074,20.55.083,21,12v7.911A11.938,11.938,0,0,0,24,12ZM10,20.768v3.051a11.388,11.388,0,0,0,4,0V20.768A8.829,8.829,0,0,1,10,20.768Z"/></svg>
