<?xml version="1.0" encoding="UTF-8"?>
<svg xmlns="http://www.w3.org/2000/svg" id="Layer_1" data-name="Layer 1" viewBox="0 0 24 24" width="512" height="512"><path d="M23.075,14.69A1.51,1.51,0,0,0,24,15v3a4.483,4.483,0,0,1-2.742-.923.473.473,0,0,0-.517,0,4.6,4.6,0,0,1-5.483,0,.473.473,0,0,0-.517,0,4.6,4.6,0,0,1-5.483,0,.473.473,0,0,0-.517,0,4.6,4.6,0,0,1-5.483,0,.473.473,0,0,0-.517,0A4.484,4.484,0,0,1,0,18V15a1.511,1.511,0,0,0,.924-.308,3.48,3.48,0,0,1,4.151,0,1.562,1.562,0,0,0,1.849,0,3.48,3.48,0,0,1,4.151,0,1.562,1.562,0,0,0,1.849,0,3.48,3.48,0,0,1,4.151,0,1.562,1.562,0,0,0,1.849,0A3.48,3.48,0,0,1,23.075,14.69ZM24,7.222V12H0V6.8L14.876.288a3.389,3.389,0,0,1,3.956.905ZM21,8.331,16.554,3.145a.412.412,0,0,0-.476-.109L3,8.757V9H21ZM0,21.5A2.5,2.5,0,0,0,2.5,24h19A2.5,2.5,0,0,0,24,21.5V20H0Z"/></svg>
