<?xml version="1.0" encoding="UTF-8"?>
<svg xmlns="http://www.w3.org/2000/svg" id="Layer_1" data-name="Layer 1" viewBox="0 0 24 24" width="512" height="512"><path d="M24,7.5A7.486,7.486,0,0,0,12.005,1.51,7.5,7.5,0,1,0,6,14.849V19H4v3H6v2H9V22h2V19H9V14.844a7.52,7.52,0,0,0,3.005-1.354A7.463,7.463,0,0,0,15,14.849V19H13v3h2v2h3V22h2V19H18V14.849A7.513,7.513,0,0,0,24,7.5ZM3,7.5a4.479,4.479,0,0,1,7-3.724,7.441,7.441,0,0,0,0,7.448A4.479,4.479,0,0,1,3,7.5Zm9,0A4.5,4.5,0,1,1,16.5,12,4.505,4.505,0,0,1,12,7.5Z"/></svg>
