<?xml version="1.0" encoding="UTF-8"?>
<svg xmlns="http://www.w3.org/2000/svg" id="Layer_1" data-name="Layer 1" viewBox="0 0 24 24" width="512" height="512"><path d="M20,9H18.374L14.315,1.836A3.47,3.47,0,0,0,10.964,0,3.1,3.1,0,0,0,8.551,1.25a3.131,3.131,0,0,0-.487,2.805L9.705,9H8.123a2.492,2.492,0,0,1-1.769-.732L4.937,6.851a2.91,2.91,0,0,0-3.4-.525A2.813,2.813,0,0,0,.124,8.048a3.031,3.031,0,0,0,.223,2.264s1.635,3.865,1.665,3.917A5.513,5.513,0,0,0,6.787,17H9.455L8.2,19.771A3.131,3.131,0,0,0,11.131,24a3.5,3.5,0,0,0,3.018-1.727L17.99,17H20a4,4,0,0,0,0-8ZM10.929,3.165C10.924,3.148,10.9,3,11.053,3h.192a.458.458,0,0,1,.442.281L14.926,9H12.865ZM20,14H17.227a1.5,1.5,0,0,0-1.212.617S11.6,20.683,11.57,20.739a.5.5,0,0,1-.439.261c-.161,0-.133-.121-.139-.121l2.154-4.76A1.5,1.5,0,0,0,11.78,14H6.787a2.508,2.508,0,0,1-2.13-1.191L3.2,9.354l1.034,1.035A5.468,5.468,0,0,0,8.123,12H20a1,1,0,0,1,0,2Z"/></svg>
