<svg id="Layer_1" height="512" viewBox="0 0 24 24" width="512" xmlns="http://www.w3.org/2000/svg" data-name="Layer 1"><path d="m13.5 8.5a1.5 1.5 0 0 0 -3 0v3.19a2 2 0 1 0 3 0z"/><path d="m22.5 5.5a1.5 1.5 0 0 0 0-3c-.841 0-1-.159-1-1a1.5 1.5 0 0 0 -3 0 4.861 4.861 0 0 0 .289 1.715l-.618.685a10.927 10.927 0 0 0 -4.671-1.785v-.615a1.5 1.5 0 0 0 -3 0v.615a10.927 10.927 0 0 0 -4.671 1.785l-.618-.685a4.861 4.861 0 0 0 .289-1.715 1.5 1.5 0 0 0 -3 0c0 .841-.159 1-1 1a1.5 1.5 0 0 0 0 3 4.953 4.953 0 0 0 1.523-.232l.579.643a11 11 0 1 0 16.8 0l.579-.643a4.953 4.953 0 0 0 1.519.232zm-10.5 15.5a8 8 0 1 1 8-8 8.009 8.009 0 0 1 -8 8z"/></svg>