<?xml version="1.0" encoding="UTF-8"?>
<!-- Generator: Adobe Illustrator 26.0.1, SVG Export Plug-In . SVG Version: 6.00 Build 0)  -->
<svg xmlns="http://www.w3.org/2000/svg" xmlns:xlink="http://www.w3.org/1999/xlink" version="1.1" id="Capa_1" x="0px" y="0px" viewBox="0 0 24 24" style="enable-background:new 0 0 24 24;" xml:space="preserve" width="512" height="512">
<g>
	<path d="M2.949,13.551L5.883,3.259C6.167,2.201,7.338,1.235,8.52,1.235h8.974c0.151,0,0.198,0.196,0.082,0.275   C12.91,4.704,7.282,9.443,3.204,13.684C3.096,13.796,2.906,13.706,2.949,13.551L2.949,13.551z"/>
	<path d="M10.038,19.73l2.904-10.157c0.043-0.154-0.123-0.266-0.247-0.159c-4.273,3.676-9.428,9.044-12.654,13.105   c-0.082,0.104-0.04,0.26,0.101,0.26h12.57c5.301,0,8.202-1.643,9.254-5.567c0.858-3.195-0.818-5.376-3.492-5.936   c-0.047-0.01-0.09-0.1,0-0.116c2.261-0.386,4.544-1.297,5.357-4.596c0.88-3.571-1.849-5.528-4.99-5.326l-4.804,16.821   c-0.26,0.909-1.233,1.673-2.157,1.673H10.038L10.038,19.73z"/>
</g>















</svg>
