<?xml version="1.0" encoding="UTF-8"?>
<svg xmlns="http://www.w3.org/2000/svg" id="Layer_1" data-name="Layer 1" viewBox="0 0 24 24" width="512" height="512"><path d="M18.5,5H13l2.857-.952a1.617,1.617,0,0,0-.009-3.07L13.329.154A1.636,1.636,0,0,0,11,1.636V5H5.5A5.506,5.506,0,0,0,0,10.5v10A3.5,3.5,0,0,0,3.5,24h17A3.5,3.5,0,0,0,24,20.5v-10A5.506,5.506,0,0,0,18.5,5Zm2.449,5H19.657a2.484,2.484,0,0,1-1.768-.732L16.621,8H18.5A2.5,2.5,0,0,1,20.949,10ZM5.5,8H7.378L6.111,9.268A2.516,2.516,0,0,1,4.343,10H3.051A2.5,2.5,0,0,1,5.5,8Zm15,13H14V17a2,2,0,0,0-4,0v4H3.5a.5.5,0,0,1-.5-.5V13H4.343a5.464,5.464,0,0,0,3.889-1.611l2.707-2.707a1.536,1.536,0,0,1,2.122,0l2.707,2.707A5.464,5.464,0,0,0,19.657,13H21v7.5A.5.5,0,0,1,20.5,21ZM8,17.5A1.5,1.5,0,0,1,6.5,19h-1a1.5,1.5,0,0,1,0-3h1A1.5,1.5,0,0,1,8,17.5Zm12,0A1.5,1.5,0,0,1,18.5,19h-1a1.5,1.5,0,0,1,0-3h1A1.5,1.5,0,0,1,20,17.5Zm-6.5-6A1.5,1.5,0,1,1,12,10,1.5,1.5,0,0,1,13.5,11.5Z"/></svg>
