<?xml version="1.0" encoding="UTF-8"?>
<svg xmlns="http://www.w3.org/2000/svg" id="Layer_1" data-name="Layer 1" viewBox="0 0 24 24" width="512" height="512"><path d="M16.9,4.032a5.006,5.006,0,0,0-9.8,0,5.787,5.787,0,0,0-4.275,8.7l5.866,9.412a3.91,3.91,0,0,0,6.617.008L21.2,12.7C23.354,9.209,20.923,4.317,16.9,4.032ZM18.981,9.6c-1.168.113-3.362.3-5.47.376L13.5,9.8A2.743,2.743,0,0,1,18.981,9.6ZM12,3a2,2,0,0,1,1.931,1.507,5.79,5.79,0,0,0-1.925,1.409,5.827,5.827,0,0,0-1.937-1.41A2,2,0,0,1,12,3ZM7.705,7a2.821,2.821,0,0,1,2.8,2.883l.006.089C8.393,9.9,6.191,9.709,5.019,9.6A2.7,2.7,0,0,1,7.705,7Zm5.05,13.578a.886.886,0,0,1-1.515-.009L6.352,12.728a62.676,62.676,0,0,0,11.3,0Z"/></svg>
