<?xml version="1.0" encoding="UTF-8"?>
<svg xmlns="http://www.w3.org/2000/svg" id="Layer_1" data-name="Layer 1" viewBox="0 0 24 24" width="512" height="512"><path d="M8.743,22.571,7.2,20c3.3-1.981,3.3-6.374,3.3-9h3C13.5,13.829,13.5,19.717,8.743,22.571Zm8.277-3.838-2.856-.918a11.175,11.175,0,0,1-2.381,4.206l2.205,2.034A14.148,14.148,0,0,0,17.02,18.733ZM18,11A6,6,0,0,0,7.736,6.779l2.133,2.11A2.973,2.973,0,0,1,12,8a3,3,0,0,1,3,3,31.1,31.1,0,0,1-.149,3.479l2.982.326A33.623,33.623,0,0,0,18,11ZM6.537,18.338C9,16.859,9,13.747,9,11a3.053,3.053,0,0,1,.061-.606l-2.939-.6A6.015,6.015,0,0,0,6,11c0,2.514-.07,4.2-1.006,4.766A2.039,2.039,0,0,1,4,16v3A5.054,5.054,0,0,0,6.537,18.338ZM23,11a10.871,10.871,0,0,0-1.1-4.794L19.2,7.517A7.894,7.894,0,0,1,20,11a25.686,25.686,0,0,1-2.107,11.089L20.6,23.38A28.454,28.454,0,0,0,23,11ZM4,11a8.009,8.009,0,0,1,8-8,7.92,7.92,0,0,1,4.8,1.6l1.805-2.4A10.9,10.9,0,0,0,12,0,11.013,11.013,0,0,0,1,11v3H4Z"/></svg>
