<?xml version="1.0" encoding="UTF-8"?>
<!-- Generator: Adobe Illustrator 25.0.0, SVG Export Plug-In . SVG Version: 6.00 Build 0)  -->
<svg xmlns="http://www.w3.org/2000/svg" xmlns:xlink="http://www.w3.org/1999/xlink" version="1.1" id="Layer_1" x="0px" y="0px" viewBox="0 0 512 512" style="enable-background:new 0 0 512 512;" xml:space="preserve" width="512" height="512">
<path d="M503.14,236.27C467.396,146.363,386.736,82.091,291.118,67.324c13.103-19.461,7.949-45.86-11.512-58.964  c-19.461-13.103-45.86-7.949-58.964,11.512c-9.657,14.343-9.657,33.108,0,47.452C125.049,82.112,44.417,146.381,8.685,236.27  c-13.257,28.442-11.202,61.663,5.459,88.254c10.51,16.054,26.34,27.891,44.711,33.432l12.935,66.801  c9.674,49.95,53.37,86.052,104.248,86.13h159.685c50.86-0.078,94.552-36.143,104.269-86.066l12.914-66.78  c18.404-5.556,34.254-17.434,44.754-33.539C514.316,297.919,516.379,264.71,503.14,236.27z M377.439,412.735  c-3.858,19.991-21.357,34.433-41.716,34.431H176.038c-20.351-0.008-37.838-14.448-41.695-34.431l-5.671-29.29  c15.151-0.085,29.906-4.847,42.247-13.636c25.563,17.673,59.398,17.673,84.962,0c25.563,17.673,59.398,17.673,84.962,0  c12.341,8.789,27.096,13.552,42.247,13.636L377.439,412.735z M444.261,289.732c-4.16,5.99-11.187,9.322-18.458,8.751  c-13.405,0.32-25.955,6.653-34.176,17.247c-3.932,4.587-10.838,5.118-15.424,1.186c-0.425-0.364-0.821-0.761-1.186-1.186  c-14.034-18.875-40.711-22.799-59.586-8.766c-3.334,2.479-6.287,5.432-8.766,8.766c-3.932,4.587-10.838,5.118-15.424,1.186  c-0.425-0.364-0.821-0.761-1.186-1.186c-14.124-18.881-40.879-22.737-59.76-8.613c-3.268,2.445-6.168,5.345-8.613,8.613  c-3.91,4.575-10.788,5.114-15.363,1.205c-0.432-0.37-0.835-0.772-1.205-1.205c-14.136-18.887-40.905-22.738-59.792-8.602  c-3.263,2.442-6.16,5.339-8.602,8.602c-3.91,4.575-10.788,5.114-15.363,1.205c-0.432-0.37-0.835-0.772-1.205-1.205  c-8.285-10.526-20.807-16.842-34.197-17.247c-7.254,0.569-14.264-2.755-18.415-8.73c-4.72-8.548-4.942-18.869-0.595-27.612  c75.276-178.101,303.037-177.633,377.888,0C449.215,270.868,449,281.195,444.261,289.732L444.261,289.732z"/>
</svg>
