<?xml version="1.0" encoding="UTF-8"?>
<svg xmlns="http://www.w3.org/2000/svg" id="Layer_1" data-name="Layer 1" viewBox="0 0 24 24" width="512" height="512"><path d="M21.226,2.774A9.887,9.887,0,0,0,8.73,1.7a4.989,4.989,0,1,0-4.7,8.2A11.369,11.369,0,0,0,5.081,15,.483.483,0,0,1,5,15.578L1.282,18.153A3.363,3.363,0,0,0,0,20.566a2.824,2.824,0,0,0,.853,2.151l.445.422A2.948,2.948,0,0,0,3.381,24a3.261,3.261,0,0,0,2.275-1.08L8.4,19a.5.5,0,0,1,.6-.119A10.371,10.371,0,0,0,13.5,20c.5,0,1.81-.182,1.841-.187a9.963,9.963,0,0,0,5.516-2.774A10.565,10.565,0,0,0,24,9.876,9.518,9.518,0,0,0,21.226,2.774ZM5,7A2,2,0,1,1,7,5,2,2,0,0,1,5,7Zm13.736,7.918a6.92,6.92,0,0,1-3.4,1.845L7.746,9.171A5,5,0,0,0,10,5c0-.164-.033-.319-.048-.479A7.048,7.048,0,0,1,19.1,4.9,6.543,6.543,0,0,1,21,9.785,7.587,7.587,0,0,1,18.736,14.918Z"/></svg>
