<?xml version="1.0" encoding="UTF-8"?>
<svg xmlns="http://www.w3.org/2000/svg" id="Bold" viewBox="0 0 24 24" width="512" height="512"><path d="M7.293,2.091,5.753,3.632,2.56.439A1.5,1.5,0,0,0,.439,2.56L3.632,5.753,2.091,7.293A1,1,0,0,0,2.8,9H7.564A1.436,1.436,0,0,0,9,7.564V2.8A1,1,0,0,0,7.293,2.091Z"/><path d="M16.707,21.909l1.54-1.541,3.193,3.193a1.5,1.5,0,1,0,2.121-2.121l-3.193-3.193,1.541-1.54A1,1,0,0,0,21.2,15H16.436A1.436,1.436,0,0,0,15,16.436V21.2A1,1,0,0,0,16.707,21.909Z"/><path d="M2.091,16.707l1.541,1.54L.439,21.44A1.5,1.5,0,1,0,2.56,23.561l3.193-3.193,1.54,1.541A1,1,0,0,0,9,21.2V16.436A1.436,1.436,0,0,0,7.564,15H2.8A1,1,0,0,0,2.091,16.707Z"/><path d="M21.909,7.293l-1.541-1.54L23.561,2.56A1.5,1.5,0,1,0,21.44.439L18.247,3.632l-1.54-1.541A1,1,0,0,0,15,2.8V7.564A1.436,1.436,0,0,0,16.436,9H21.2A1,1,0,0,0,21.909,7.293Z"/></svg>
