<?xml version="1.0" encoding="UTF-8"?>
<!-- Generator: Adobe Illustrator 26.0.1, SVG Export Plug-In . SVG Version: 6.00 Build 0)  -->
<svg xmlns="http://www.w3.org/2000/svg" xmlns:xlink="http://www.w3.org/1999/xlink" version="1.1" id="Capa_1" x="0px" y="0px" viewBox="0 0 24 24" style="enable-background:new 0 0 24 24;" xml:space="preserve" width="512" height="512">
<g>
	<g>
		<path style="fill-rule:evenodd;clip-rule:evenodd;" d="M22.628,6.126H1.371C0.615,6.126,0,6.742,0,7.498v9.003    c0,0.757,0.615,1.372,1.371,1.372h21.257c0.756,0,1.372-0.615,1.372-1.372V7.498C24,6.742,23.385,6.126,22.628,6.126z     M22.628,6.369c0.624,0,1.129,0.505,1.129,1.129v9.003c0,0.625-0.504,1.129-1.129,1.129H1.371c-0.624,0-1.129-0.505-1.129-1.129    V7.498c0-0.624,0.505-1.129,1.129-1.129H22.628z"/>
	</g>
	<rect x="3.456" y="8.614" style="fill-rule:evenodd;clip-rule:evenodd;" width="1.776" height="6.851"/>
	<path style="fill-rule:evenodd;clip-rule:evenodd;" d="M9.022,8.614l-0.412,3.202l-0.252-1.74C8.282,9.518,8.213,9.029,8.143,8.614   H5.839v6.851h1.557l0.007-4.523l0.654,4.523h1.109l0.624-4.623l0.003,4.623h1.553V8.614H9.022z"/>
	<path style="fill-rule:evenodd;clip-rule:evenodd;" d="M14.124,9.85c0.069,0.04,0.116,0.103,0.136,0.193   c0.02,0.086,0.03,0.285,0.03,0.594v2.653c0,0.459-0.03,0.738-0.09,0.841c-0.06,0.103-0.216,0.152-0.471,0.152V9.787   C13.922,9.787,14.054,9.807,14.124,9.85z M14.108,15.466c0.425,0,0.744-0.023,0.956-0.07c0.209-0.046,0.388-0.126,0.531-0.246   c0.143-0.116,0.246-0.279,0.302-0.485c0.06-0.206,0.093-0.618,0.093-1.232v-2.404c0-0.648-0.027-1.083-0.063-1.305   c-0.04-0.219-0.139-0.422-0.299-0.601c-0.156-0.18-0.388-0.309-0.691-0.389c-0.302-0.08-0.8-0.12-1.66-0.12h-1.325v6.851H14.108z"/>
	<path style="fill-rule:evenodd;clip-rule:evenodd;" d="M18.908,13.805c0,0.329-0.017,0.541-0.05,0.627   c-0.033,0.087-0.176,0.129-0.286,0.129c-0.106,0-0.176-0.039-0.212-0.126c-0.033-0.083-0.053-0.276-0.053-0.578v-1.81   c0-0.312,0.016-0.505,0.047-0.585c0.033-0.076,0.103-0.116,0.206-0.116c0.11,0,0.255,0.047,0.292,0.133   c0.036,0.09,0.056,0.279,0.056,0.568V13.805z M16.594,8.614v6.851h1.6l0.113-0.435c0.143,0.176,0.302,0.305,0.478,0.395   c0.176,0.086,0.435,0.129,0.637,0.129c0.279,0,0.524-0.073,0.727-0.222c0.206-0.146,0.336-0.322,0.389-0.522   c0.056-0.202,0.083-0.508,0.083-0.917v-1.922c0-0.415-0.007-0.684-0.027-0.81c-0.049-0.315-0.269-0.575-0.558-0.698   c-0.176-0.073-0.378-0.11-0.614-0.11c-0.202,0-0.465,0.04-0.64,0.123c-0.173,0.079-0.332,0.202-0.475,0.365V8.614H16.594z"/>
</g>















</svg>
