<?xml version="1.0" encoding="UTF-8"?>
<!-- Generator: Adobe Illustrator 26.0.1, SVG Export Plug-In . SVG Version: 6.00 Build 0)  -->
<svg xmlns="http://www.w3.org/2000/svg" xmlns:xlink="http://www.w3.org/1999/xlink" version="1.1" id="Capa_1" x="0px" y="0px" viewBox="0 0 24 24" style="enable-background:new 0 0 24 24;" xml:space="preserve" width="512" height="512">
<g id="layer1_00000069379214082054225550000004600713903019782292_" transform="translate(-193.633,-276.3622)">
	<g id="g3013_00000093138603932973688150000013863908198644500923_" transform="translate(119,276.3622)">
		<path d="M78.131,4.717l1.547,17.356L86.623,24l6.963-1.93l1.549-17.353H78.131z M81.295,8.264h5.33v2.129h-5.137L81.295,8.264z     M86.633,14.701h2.614L89,17.462l-2.367,0.639V14.701z M86.633,12.573v-2.18h2.992l-0.194,2.18H86.633z M81.679,12.573h4.947    v2.129H81.87L81.679,12.573z M92.259,20.965l-5.626,1.56v-2.209l-0.01,0.003l-4.36-1.211l-0.298-3.342h2.137l0.152,1.698    l2.37,0.64l0.002,0v2.214l0.007-0.002l4.357-1.208l0.968-10.844h-5.325V6.135h6.95L92.259,20.965z"/>
		<polygon points="91.958,8.264 90.99,19.108 86.633,20.315 86.633,18.101 89,17.462 89.247,14.701 86.633,14.701 86.633,12.573     89.431,12.573 89.625,10.393 86.633,10.393 86.633,8.264   "/>
		<rect x="86.626" y="12.573" width="0.007" height="2.129"/>
		<rect x="86.626" y="8.264" width="0.007" height="2.129"/>
		<rect x="86.625" y="18.102" width="0.008" height="2.214"/>
		<path id="path2999_00000183935336956994173500000009856227378309738643_" d="M82.133,0h2.578v1.078h-1.5v1.078h1.5v1.078h-2.578V0    z"/>
		<path id="path3001_00000096055226761582317920000005110122629658984122_" d="M85.227,0h2.578v0.938h-1.5v0.188h1.5v2.156h-2.578    V2.297h1.5V2.109h-1.5V0z"/>
		<path id="path3003_00000136402835624896882680000006132478931596835508_" d="M88.32,0h2.578v0.938h-1.5v0.188h1.5v2.156H88.32    V2.297h1.5V2.109h-1.5V0z"/>
		<polygon points="91.958,8.264 90.99,19.108 86.633,20.315 86.626,20.317 86.626,18.103 86.633,18.101 89,17.462 89.247,14.701     86.626,14.701 86.626,12.573 89.431,12.573 89.625,10.393 86.626,10.393 86.626,8.264   "/>
	</g>
</g>















</svg>
