<svg id="Layer_1" height="512" viewBox="0 0 24 24" width="512" xmlns="http://www.w3.org/2000/svg" data-name="Layer 1"><path d="m12 15a3.244 3.244 0 0 0 1.453-.341l1.75-.875a3.231 3.231 0 0 0 1.797-2.909v-1.75a3.231 3.231 0 0 0 -1.8-2.907l-1.75-.875a3.264 3.264 0 0 0 -2.906 0l-1.744.875a3.231 3.231 0 0 0 -1.8 2.907v1.75a3.231 3.231 0 0 0 1.8 2.907l1.75.875a3.244 3.244 0 0 0 1.45.343zm-2-4.123v-1.7l1.327.663a1.5 1.5 0 0 0 1.346 0l1.327-.662v1.7a.248.248 0 0 1 -.139.224l-1.75.875a.248.248 0 0 1 -.222 0l-1.75-.875a.248.248 0 0 1 -.139-.227zm8.5 10.123h-3.74a5.127 5.127 0 0 0 .9-.693l3.412-3.169a10.083 10.083 0 0 0 0-14.2 9.973 9.973 0 0 0 -14.148 0 10.094 10.094 0 0 0 .045 14.242l3.338 3.1a5.194 5.194 0 0 0 .943.72h-3.75a1.5 1.5 0 0 0 0 3h13a1.5 1.5 0 0 0 0-3zm-11.447-5.978a7.074 7.074 0 0 1 0-9.961 6.968 6.968 0 0 1 9.894 0 7.063 7.063 0 0 1 .043 9.919l-3.4 3.157a2.3 2.3 0 0 1 -3.211-.03z"/></svg>