<?xml version="1.0" encoding="UTF-8"?>
<svg xmlns="http://www.w3.org/2000/svg" id="Isolation_Mode" data-name="Isolation Mode" viewBox="0 0 24 24" width="512" height="512"><path d="M7.253,24A7.251,7.251,0,0,1,2.124,11.62L6.191,7.55,8.313,9.67,4.246,13.741a4.253,4.253,0,1,0,6.016,6.014l4.068-4.068,2.121,2.121-4.068,4.068A7.229,7.229,0,0,1,7.253,24Z"/><path d="M17.808,16.452l-2.121-2.121,4.068-4.068A4.254,4.254,0,0,0,13.74,4.246L9.669,8.314,7.548,6.192l4.071-4.068a7.254,7.254,0,0,1,10.257,10.26Z"/><rect x="7.204" y="10.501" width="9.591" height="3" transform="translate(-4.971 12) rotate(-45)"/></svg>
