<svg id="Layer_1" height="512" viewBox="0 0 24 24" width="512" xmlns="http://www.w3.org/2000/svg" data-name="Layer 1"><path d="m24 21h-24v-14.5a3.5 3.5 0 0 1 3.5-3.5h17a3.5 3.5 0 0 1 3.5 3.5zm-21-3h18v-11.5a.5.5 0 0 0 -.5-.5h-17a.5.5 0 0 0 -.5.5zm9-3a3 3 0 1 1 3-3 3 3 0 0 1 -3 3zm-6.5-8a1.5 1.5 0 1 0 1.5 1.5 1.5 1.5 0 0 0 -1.5-1.5zm11.5 1.5a1.5 1.5 0 1 0 1.5-1.5 1.5 1.5 0 0 0 -1.5 1.5zm-11.5 5.5a1.5 1.5 0 1 0 1.5 1.5 1.5 1.5 0 0 0 -1.5-1.5zm11.5 1.5a1.5 1.5 0 1 0 1.5-1.5 1.5 1.5 0 0 0 -1.5 1.5z"/></svg>