<?xml version="1.0" encoding="UTF-8"?>
<svg xmlns="http://www.w3.org/2000/svg" id="Layer_1" data-name="Layer 1" viewBox="0 0 24 24" width="512" height="512"><path d="M23.529,2.471a1.5,1.5,0,0,0-2.121,0L18.439,5.439A1.5,1.5,0,0,0,18,6.5v11a.5.5,0,0,1-.5.5H16V5.5A5.507,5.507,0,0,0,10.5,0h-5A5.507,5.507,0,0,0,0,5.5v13A5.507,5.507,0,0,0,5.5,24h5a5.5,5.5,0,0,0,4.9-3.01c.034,0,.067.01.1.01h2A3.5,3.5,0,0,0,21,17.5V7.121l2.529-2.529A1.5,1.5,0,0,0,23.529,2.471ZM5.5,3h5A2.5,2.5,0,0,1,13,5.5V9H10.816a2.969,2.969,0,0,0-.521-.91l.491-.819A1.5,1.5,0,0,0,8.214,5.729l-.8,1.33A2.993,2.993,0,0,0,5.184,9H3V5.5A2.5,2.5,0,0,1,5.5,3Zm5,18h-5A2.5,2.5,0,0,1,3,18.5V12H13v6.5A2.5,2.5,0,0,1,10.5,21Z"/></svg>
