<?xml version="1.0" encoding="UTF-8"?>
<svg xmlns="http://www.w3.org/2000/svg" id="Layer_1" data-name="Layer 1" viewBox="0 0 24 24" width="512" height="512"><path d="M14.327,14.891A10.7,10.7,0,0,1,9.121,9.662L12.083,6.7,5.442.058,1.8,3.7c-7.39,7.908,10.583,25.889,18.5,18.5l3.646-3.645L17.3,11.916Zm3.847,5.192C13.425,24.417-.558,11.343,3.918,5.824L5.442,4.3l2.4,2.4L5.573,8.967l.369.919a13.937,13.937,0,0,0,8.2,8.181l.908.347L17.3,16.158l2.4,2.4Zm2.963-15.1,2.831,2.83L21.847,9.936,19.016,7.105l-2.83,2.831L14.064,7.814,16.9,4.984,14.064,2.153,16.186.032l2.83,2.831L21.847.032l2.121,2.121Z"/></svg>
