<svg id="Layer_1" height="512" viewBox="0 0 24 24" width="512" xmlns="http://www.w3.org/2000/svg" data-name="Layer 1"><path d="m23.9 11.394a12 12 0 0 0 -23.9 1.556 11.8 11.8 0 0 0 3.761 8.678 5.176 5.176 0 0 0 3.575 1.372h9.322a5.317 5.317 0 0 0 3.728-1.512 11.866 11.866 0 0 0 3.514-10.094zm-5.607 7.944a2.333 2.333 0 0 1 -1.635.662h-9.322a2.225 2.225 0 0 1 -1.52-.557 8.831 8.831 0 0 1 -2.816-6.493 8.977 8.977 0 0 1 8.988-8.95 9.483 9.483 0 0 1 1.06.06 9.008 9.008 0 0 1 7.877 7.713 8.9 8.9 0 0 1 -2.631 7.565zm-9.24-3.853a1.5 1.5 0 0 1 -2.209 2.03 6.97 6.97 0 0 1 -1.844-4.729 6.818 6.818 0 0 1 6.377-6.761 1.5 1.5 0 0 1 .246 2.991 3.79 3.79 0 0 0 -3.623 3.77 3.979 3.979 0 0 0 1.053 2.699zm9.888-1.792a6.94 6.94 0 0 1 -1.785 3.823 1.5 1.5 0 0 1 -2.209-2.032 3.951 3.951 0 0 0 1.02-2.177 1.5 1.5 0 0 1 2.974.386zm-4.955-.558a2 2 0 1 1 -2.121-2.121l2.574-2.575a1.5 1.5 0 0 1 2.122 2.122z"/></svg>