<svg id="Layer_1" height="512" viewBox="0 0 24 24" width="512" xmlns="http://www.w3.org/2000/svg" data-name="Layer 1"><path d="m22.082 19.961a7.585 7.585 0 0 0 1.893-4.461 8.111 8.111 0 0 0 -5.749-8.434.489.489 0 0 1 -.328-.335 8.189 8.189 0 0 0 -12.959-3.913l-2.378-2.379a1.5 1.5 0 0 0 -2.122 2.122l21 21a1.5 1.5 0 0 0 2.122-2.122zm-12.772-15.904a5.172 5.172 0 0 1 5.724 3.565 3.5 3.5 0 0 0 2.313 2.313 5.126 5.126 0 0 1 3.637 5.33 4.556 4.556 0 0 1 -1.037 2.561l-12.856-12.856a5.068 5.068 0 0 1 2.219-.913zm6.69 17.443a1.5 1.5 0 0 1 -1.5 1.5h-8.53a6.061 6.061 0 0 1 -5.91-4.937 5.76 5.76 0 0 1 2.286-5.463.45.45 0 0 0 .109-.532 7.966 7.966 0 0 1 -.374-1.259 1.5 1.5 0 1 1 2.935-.618 5.041 5.041 0 0 0 .235.791 3.411 3.411 0 0 1 -1.126 4.033 2.729 2.729 0 0 0 -1.1 2.623 3.1 3.1 0 0 0 2.945 2.362h8.53a1.5 1.5 0 0 1 1.5 1.5z"/></svg>