<?xml version="1.0" encoding="UTF-8"?>
<svg xmlns="http://www.w3.org/2000/svg" id="Layer_1" data-name="Layer 1" viewBox="0 0 24 24" width="512" height="512"><path d="M19.847,7.1C19.033.6,15.009.016,14.963.011A1.522,1.522,0,0,0,14.784,0a5.178,5.178,0,0,0-2.828.988A4.8,4.8,0,0,0,9.212,0a1.5,1.5,0,0,0-.177.011C8.99.016,4.967.6,4.153,7.1,2.724,7.563,0,8.708,0,10.714,0,14.669,6.194,15,12,15s12-.331,12-4.286C24,8.708,21.276,7.563,19.847,7.1ZM7,10.336V9.5C7,4.439,8.843,3.255,9.358,3.023a1.875,1.875,0,0,1,.769.343,3.076,3.076,0,0,0,3.746,0,1.9,1.9,0,0,1,.767-.344C15.152,3.252,17,4.434,17,9.5v.836A17.435,17.435,0,0,1,12,11,17.435,17.435,0,0,1,7,10.336ZM21,20a3.989,3.989,0,0,1-7.8,1.193A5.751,5.751,0,0,0,12,21a5.751,5.751,0,0,0-1.2.193,4,4,0,1,1-.259-3.018A7.526,7.526,0,0,1,12,18a7.526,7.526,0,0,1,1.461.175A3.987,3.987,0,0,1,21,20Z"/></svg>
