<?xml version="1.0" encoding="UTF-8"?>
<svg xmlns="http://www.w3.org/2000/svg" id="Layer_1" data-name="Layer 1" viewBox="0 0 24 24" width="512" height="512"><path d="M22.732,9.013a3.882,3.882,0,0,0-5.487.257l-2.438,2.679A3.629,3.629,0,0,0,12.357,11H3.5A3.5,3.5,0,0,0,0,14.5v6A3.5,3.5,0,0,0,3.5,24H14.681l8.334-9.532A3.9,3.9,0,0,0,22.732,9.013Zm-1.965,3.469L13.319,21H3.5a.5.5,0,0,1-.5-.5v-6a.5.5,0,0,1,.5-.5h8.857a.642.642,0,0,1,.092,1.278l-5.161.737.424,2.97,5.162-.737a3.665,3.665,0,0,0,3.093-3.116l3.5-3.843a.883.883,0,0,1,1.248-.059A.89.89,0,0,1,20.767,12.482ZM7,2.475A2.37,2.37,0,0,1,9.25,0,2.37,2.37,0,0,1,11.5,2.475,2.37,2.37,0,0,1,13.75,0,2.37,2.37,0,0,1,16,2.475c0,2.592-4.5,5.775-4.5,5.775S7,5.067,7,2.475Z"/></svg>
