<?xml version="1.0" encoding="UTF-8"?>
<svg xmlns="http://www.w3.org/2000/svg" id="Layer_1" data-name="Layer 1" viewBox="0 0 24 24" width="512" height="512"><path d="M9.5,7.5a2.5,2.5,0,0,1,5,0A2.5,2.5,0,0,1,9.5,7.5Zm4.12,15.565L17.328,20H18.5A5.507,5.507,0,0,0,24,14.5v-9A5.507,5.507,0,0,0,18.5,0H5.5A5.506,5.506,0,0,0,0,5.5v9A5.506,5.506,0,0,0,5.5,20H6.741l3.6,3.03a2.515,2.515,0,0,0,1.675.636A2.4,2.4,0,0,0,13.62,23.065ZM18.5,3A2.5,2.5,0,0,1,21,5.5v9A2.5,2.5,0,0,1,18.5,17H16.788a1.5,1.5,0,0,0-.956.344L12,20.511,8.255,17.353A1.5,1.5,0,0,0,7.289,17H5.5A2.5,2.5,0,0,1,3,14.5v-9A2.5,2.5,0,0,1,5.5,3ZM7.981,14.232A.665.665,0,0,0,8.654,15h6.661a.665.665,0,0,0,.673-.768C15.128,9.966,8.841,9.968,7.981,14.232Z"/></svg>
