<?xml version="1.0" encoding="UTF-8"?>
<svg xmlns="http://www.w3.org/2000/svg" id="Layer_1" data-name="Layer 1" viewBox="0 0 24 24" width="512" height="512"><path d="M5,21h8v3H5Zm10,3h4V21H15Zm-4-5h8V16H11ZM5,16v3H9V16Zm19-3.522A7.411,7.411,0,0,0,17.584,5.1,8.294,8.294,0,0,0,10.091,0,7.96,7.96,0,0,0,2,8a11.943,11.943,0,0,0,.133,1.893A5.768,5.768,0,0,0,0,14.387H.005c0,.037,0,.075,0,.113a6,6,0,0,0,3,5.158V14.5c0-.038,0-.076,0-.113H3A2.787,2.787,0,0,1,4.527,11.9l1.2-.613-.48-1.258A5.955,5.955,0,0,1,5,8a4.935,4.935,0,0,1,5.091-5,5.4,5.4,0,0,1,4.971,3.927l.308,1.038L16.452,8A4.517,4.517,0,0,1,21,12.478h0V18.7a8,8,0,0,0,3-6.2v-.022Z"/></svg>
