<?xml version="1.0" encoding="UTF-8"?>
<svg xmlns="http://www.w3.org/2000/svg" id="Bold" viewBox="0 0 24 24" width="512" height="512"><path d="M22.412,8.7a2.635,2.635,0,0,0-2.516.407l-1.085.808A5.335,5.335,0,0,0,14.725,6.1L10.146,1.525A3.5,3.5,0,0,0,7.672.5H1.5A1.5,1.5,0,0,0,0,2H0A1.5,1.5,0,0,0,1.5,3.5H7.672a.5.5,0,0,1,.354.146L10.38,6H5.318A5.318,5.318,0,0,0,0,11.318v7.364A5.318,5.318,0,0,0,5.318,24h8.364a5.327,5.327,0,0,0,5.129-3.913l1.2.891a2.5,2.5,0,0,0,1.492.5A2.529,2.529,0,0,0,22.969,21,2.617,2.617,0,0,0,24,18.851V11.027A2.491,2.491,0,0,0,22.412,8.7ZM16,18.682A2.321,2.321,0,0,1,13.682,21H5.318A2.321,2.321,0,0,1,3,18.682V11.318A2.321,2.321,0,0,1,5.318,9h8.364A2.321,2.321,0,0,1,16,11.318Z"/></svg>
