<?xml version="1.0" encoding="UTF-8"?>
<svg xmlns="http://www.w3.org/2000/svg" id="Layer_1" data-name="Layer 1" viewBox="0 0 24 24" width="512" height="512"><path d="M9,12a3,3,0,0,1,6,0A3,3,0,0,1,9,12Zm7.953,8.575c4.683.673,7.914-4.955,4.859-8.59a5.345,5.345,0,0,0-4.888-8.633,5.312,5.312,0,0,0-9.848,0,5.344,5.344,0,0,0-4.888,8.632c-3.056,3.637.177,9.263,4.859,8.59a5.294,5.294,0,0,0,9.906,0ZM7.438,17.389c-2.65,1.247-4.944-2.5-2.218-4.073a1.511,1.511,0,0,0,0-2.632C2.567,9.148,4.7,5.105,7.442,6.616A1.5,1.5,0,0,0,9.7,5.318a2.3,2.3,0,1,1,4.6,0,1.5,1.5,0,0,0,2.258,1.294C19.3,5.105,21.432,9.15,18.78,10.684a1.511,1.511,0,0,0,0,2.632c2.727,1.576.429,5.32-2.218,4.073A1.5,1.5,0,0,0,14.3,18.682a2.3,2.3,0,1,1-4.6,0,1.5,1.5,0,0,0-2.262-1.293Z"/></svg>
