<?xml version="1.0" encoding="UTF-8"?>
<!-- Generator: Adobe Illustrator 26.0.1, SVG Export Plug-In . SVG Version: 6.00 Build 0)  -->
<svg xmlns="http://www.w3.org/2000/svg" xmlns:xlink="http://www.w3.org/1999/xlink" version="1.1" id="Capa_1" x="0px" y="0px" viewBox="0 0 24 24" style="enable-background:new 0 0 24 24;" xml:space="preserve" width="512" height="512">
<g>
	<path d="M19.149,0.001H4.847C2.169,0.001,0,2.17,0,4.849v14.305c0,2.676,2.169,4.845,4.847,4.845h14.305   c2.676,0,4.847-2.169,4.847-4.847V4.849C23.997,2.17,21.828,0.001,19.149,0.001z M6.635,19.001c-0.3,0.525-0.969,0.702-1.494,0.402   c-0.525-0.3-0.702-0.969-0.402-1.494l0.78-1.35c0.882-0.273,1.598-0.063,2.166,0.621L6.635,19.001z M14.218,16.056H4.29   c-0.606,0-1.092-0.486-1.092-1.092c0-0.606,0.486-1.092,1.092-1.092h2.783l3.564-6.176L9.524,5.764   c-0.3-0.525-0.123-1.188,0.402-1.494c0.525-0.3,1.188-0.123,1.494,0.402l0.477,0.843l0.486-0.84c0.3-0.525,0.969-0.702,1.494-0.402   c0.525,0.3,0.702,0.969,0.402,1.493l-4.682,8.105h3.387C14.08,13.872,14.695,15.162,14.218,16.056z M19.567,16.062h-1.578   l1.065,1.847c0.3,0.525,0.123,1.188-0.402,1.494c-0.525,0.3-1.188,0.123-1.494-0.402c-1.793-3.111-3.141-5.438-4.034-6.989   c-0.915-1.578-0.261-3.162,0.384-3.699c0.717,1.23,1.788,3.087,3.218,5.565h2.841c0.606,0,1.092,0.486,1.092,1.092   C20.658,15.576,20.173,16.062,19.567,16.062z"/>
</g>















</svg>
