<?xml version="1.0" encoding="UTF-8"?>
<svg xmlns="http://www.w3.org/2000/svg" id="Layer_1" data-name="Layer 1" viewBox="0 0 24 24" width="512" height="512"><path d="M23.969,2.159,21.842.033,19.9,1.978,17.952.033,15.825,2.159l1.946,1.946L16.514,5.363,14.568,3.417,12.441,5.543,14.388,7.49,12.63,9.248,10.368,6.987a4.683,4.683,0,0,0-.871,5.4L8.47,13.411,6.521,11.462,4.394,13.589l1.949,1.949-.595.595a.6.6,0,0,1-.576.056A4.011,4.011,0,1,0,3.481,24,3.892,3.892,0,0,0,4,24.033a3.984,3.984,0,0,0,2.829-1.176L4.7,20.73A1.008,1.008,0,0,1,3.1,20.5a.983.983,0,0,1,0-.952,1.02,1.02,0,0,1,1.186-.481,3.522,3.522,0,0,0,3.591-.8l.6-.6,1.941,1.94,2.127-2.127L10.6,15.537l1.029-1.029a4.686,4.686,0,0,0,5.388-.876l-2.257-2.257,1.758-1.758,1.942,1.942,2.127-2.126L18.641,7.489,19.9,6.232l1.944,1.943,2.127-2.126L22.025,4.105Z"/></svg>
