<?xml version="1.0" encoding="UTF-8"?>
<!-- Generator: Adobe Illustrator 26.0.1, SVG Export Plug-In . SVG Version: 6.00 Build 0)  -->
<svg xmlns="http://www.w3.org/2000/svg" xmlns:xlink="http://www.w3.org/1999/xlink" version="1.1" id="Capa_1" x="0px" y="0px" viewBox="0 0 24 24" style="enable-background:new 0 0 24 24;" xml:space="preserve" width="512" height="512">
<g id="Layer_2_10_">
	<g id="Surfaces_11_">
		<g id="_3D_Substance_Surface_00000067213245072356212660000002926126609348119210_">
			<g id="Outline_no_shadow_11_">
				<polygon points="8.933,8.144 10.205,12.314 7.661,12.314     "/>
				<path d="M19.75,0.3H4.25C1.903,0.3,0,2.203,0,4.55v14.9c0,2.347,1.903,4.25,4.25,4.25h15.5c2.347,0,4.25-1.903,4.25-4.25V4.55      C24,2.203,22.097,0.3,19.75,0.3z M13.876,16.8h-2.093c-0.075,0.008-0.143-0.04-0.161-0.113L10.801,14.3H7.082l-0.757,2.355      c-0.021,0.089-0.102,0.149-0.193,0.145H4.248c-0.107,0-0.145-0.059-0.113-0.177l3.22-9.235C7.388,7.291,7.42,7.197,7.452,7.073      C7.494,6.858,7.516,6.64,7.517,6.421c-0.008-0.054,0.03-0.105,0.084-0.113c0.009-0.001,0.019-0.001,0.028,0h2.56      c0.075,0,0.118,0.027,0.129,0.081l3.655,10.25C14.005,16.746,13.973,16.8,13.876,16.8z M19.792,8.821v1.948      c0,0.075-0.054,0.113-0.161,0.113c-0.334-0.023-0.67,0.001-0.997,0.072c-0.288,0.057-0.569,0.146-0.837,0.266      c-0.231,0.107-0.476,0.231-0.604,0.37v5.065c0,0.097-0.043,0.145-0.129,0.145H15.18c-0.078,0.011-0.15-0.043-0.161-0.12      c-0.002-0.014-0.002-0.027,0-0.04v-5.5c0-0.236-0.003-0.485-0.008-0.749c-0.006-0.263-0.014-0.523-0.024-0.781      c-0.007-0.233-0.029-0.466-0.064-0.697c-0.013-0.049,0.017-0.1,0.067-0.113c0.015-0.004,0.031-0.004,0.046,0h1.755      c0.098,0.001,0.183,0.067,0.209,0.161c0.038,0.084,0.065,0.172,0.081,0.262c0.023,0.104,0.038,0.209,0.048,0.314      c0.01,0.113,0.016,0.233,0.016,0.362c0.301-0.351,0.664-0.643,1.071-0.862c0.436-0.247,0.931-0.372,1.432-0.362      c0.07-0.01,0.135,0.038,0.145,0.108C19.793,8.796,19.793,8.808,19.792,8.821z"/>
			</g>
		</g>
	</g>
</g>















</svg>
