<?xml version="1.0" encoding="UTF-8"?>
<!-- Generator: Adobe Illustrator 26.0.1, SVG Export Plug-In . SVG Version: 6.00 Build 0)  -->
<svg xmlns="http://www.w3.org/2000/svg" xmlns:xlink="http://www.w3.org/1999/xlink" version="1.1" id="Capa_1" x="0px" y="0px" viewBox="0 0 24 24" style="enable-background:new 0 0 24 24;" xml:space="preserve" width="512" height="512">
<g>
	<path d="M12.01,0C5.388,0,0.02,5.368,0.02,11.99c0,5.082,3.158,9.424,7.618,11.171c-0.109-0.947-0.197-2.408,0.039-3.444   c0.217-0.938,1.401-5.961,1.401-5.961s-0.355-0.72-0.355-1.776c0-1.668,0.967-2.911,2.171-2.911c1.026,0,1.52,0.77,1.52,1.688   c0,1.026-0.651,2.566-0.997,3.997c-0.286,1.194,0.602,2.171,1.776,2.171c2.132,0,3.77-2.25,3.77-5.487   c0-2.872-2.062-4.875-5.013-4.875c-3.414,0-5.418,2.556-5.418,5.201c0,1.026,0.395,2.132,0.888,2.734   C7.52,14.615,7.53,14.724,7.5,14.842c-0.089,0.375-0.296,1.194-0.336,1.362c-0.049,0.217-0.178,0.266-0.405,0.158   c-1.5-0.701-2.438-2.882-2.438-4.648c0-3.78,2.743-7.253,7.924-7.253c4.155,0,7.391,2.961,7.391,6.928   c0,4.135-2.605,7.461-6.217,7.461c-1.214,0-2.359-0.632-2.743-1.382c0,0-0.602,2.289-0.75,2.852   c-0.266,1.046-0.997,2.349-1.49,3.148C9.562,23.812,10.747,24,11.99,24c6.622,0,11.99-5.368,11.99-11.99C24,5.368,18.632,0,12.01,0   z"/>
</g>















</svg>
