<svg id="Layer_1" height="512" viewBox="0 0 24 24" width="512" xmlns="http://www.w3.org/2000/svg" data-name="Layer 1"><path d="m20 3.5v1.5h4v3h-4v2h4v3h-4v2h4v3h-4v6h-3v-20.5a3.5 3.5 0 0 1 3.5-3.5h3.5v3h-3.5a.5.5 0 0 0 -.5.5zm-4 15.75a4.736 4.736 0 0 1 -8 3.45 4.735 4.735 0 1 1 -5.41-7.652l3.7-6.7-2.097-3.798a9.46 9.46 0 0 1 -1.193-4.55h3a6.367 6.367 0 0 0 .82 3.1l1.18 2.139 1.18-2.139a6.367 6.367 0 0 0 .82-3.1h3a9.46 9.46 0 0 1 -1.193 4.55l-2.094 3.794 3.7 6.7a4.737 4.737 0 0 1 2.587 4.206zm-8-7.8-1.818 3.3a4.733 4.733 0 0 1 1.818 1.05 4.733 4.733 0 0 1 1.818-1.059zm-1.5 7.8a1.75 1.75 0 1 0 -1.75 1.75 1.752 1.752 0 0 0 1.75-1.75zm6.5 0a1.75 1.75 0 1 0 -1.75 1.75 1.752 1.752 0 0 0 1.75-1.75z"/></svg>