<?xml version="1.0" encoding="UTF-8"?>
<svg xmlns="http://www.w3.org/2000/svg" id="Layer_1" data-name="Layer 1" viewBox="0 0 24 24" width="512" height="512"><path d="M2.54,20.5A1.5,1.5,0,0,1,1.422,20a5.467,5.467,0,0,1-1.23-2.282,5.767,5.767,0,0,1,2.5-6.3,8.113,8.113,0,0,1-.541-4.823A8.053,8.053,0,0,1,8.884.087,8.184,8.184,0,0,1,17.979,6a8.255,8.255,0,0,1,4.906,3.743A1.5,1.5,0,0,1,20.3,11.261a5.22,5.22,0,0,0-3.788-2.508,1.5,1.5,0,0,1-1.289-1.288,5.118,5.118,0,0,0-2-3.419,5.206,5.206,0,0,0-3.909-.99A5.055,5.055,0,0,0,5.1,7.15a5.119,5.119,0,0,0,.455,3.3A2.483,2.483,0,0,1,4.54,13.806,2.761,2.761,0,0,0,3.1,16.963,2.463,2.463,0,0,0,3.657,18,1.5,1.5,0,0,1,2.54,20.5ZM18.85,24a5.492,5.492,0,0,0,1.107-.134,5.15,5.15,0,0,0,.154-10.024,1.812,1.812,0,0,1-.337-.1,6.217,6.217,0,0,0-6.628-3.677A6.109,6.109,0,0,0,8,15.971a5.934,5.934,0,0,0,.058.95,3.728,3.728,0,0,0,.769,6.95A4.153,4.153,0,0,0,9.774,24Zm-1.838-9.086v0a3.046,3.046,0,0,0,2.335,1.825,2.149,2.149,0,0,1-.047,4.2,2.479,2.479,0,0,1-.479.062H9.814a.976.976,0,0,1-.786-.56c-.123-.458.3-.825.6-.95a2.447,2.447,0,0,0,1.444-2.783,2.875,2.875,0,0,1-.067-.68,3.113,3.113,0,0,1,2.567-2.992A3.361,3.361,0,0,1,14.047,13,3.2,3.2,0,0,1,17.012,14.914Z"/></svg>
