<?xml version="1.0" encoding="UTF-8"?>
<svg xmlns="http://www.w3.org/2000/svg" id="Layer_1" data-name="Layer 1" viewBox="0 0 24 24" width="512" height="512"><path d="M24,19V5.5A3.5,3.5,0,0,0,20.5,2H18.658A3.491,3.491,0,0,0,14.533.138L13.038.57A3.53,3.53,0,0,0,12,1.064,3.484,3.484,0,0,0,10.967.572L9.462.136A3.492,3.492,0,0,0,5.342,2H3.5A3.5,3.5,0,0,0,0,5.5V19H10.5v2H7v3H17V21H13.5V19ZM13.5,3.936a.5.5,0,0,1,.367-.483l1.495-.432A.5.5,0,0,1,15.8,3.1a.491.491,0,0,1,.2.4V7.947l-2.5.717ZM8,3.5a.491.491,0,0,1,.2-.4.479.479,0,0,1,.434-.083l1.505.436a.5.5,0,0,1,.362.481V8.664L8,7.947Zm-5,2A.5.5,0,0,1,3.5,5H5v5.207l7,2.008,7-2.008V5h1.5a.5.5,0,0,1,.5.5V16H3Z"/></svg>
