<?xml version="1.0" encoding="UTF-8"?>
<svg xmlns="http://www.w3.org/2000/svg" id="Bold" viewBox="0 0 24 24" width="512" height="512"><path d="M22.419,10a8.269,8.269,0,0,0-4.442-3.063,8.252,8.252,0,0,0-2.962-4.377A8.177,8.177,0,0,0,2.6,12.375,5.78,5.78,0,0,0,.188,18.694,5.85,5.85,0,0,0,5.944,23H15.58a8.29,8.29,0,0,0,8.3-6.759A8.127,8.127,0,0,0,22.419,10Zm-1.5,5.733A5.365,5.365,0,0,1,15.58,20H5.944A2.891,2.891,0,0,1,3.1,17.958a2.8,2.8,0,0,1,2-3.446,1.5,1.5,0,0,0,.83-2.345,5.171,5.171,0,0,1,3.381-8.2,5.506,5.506,0,0,1,.776-.056,5.14,5.14,0,0,1,3.118,1.042A5.212,5.212,0,0,1,15.22,8.4a1.5,1.5,0,0,0,1.287,1.288A5.232,5.232,0,0,1,20,11.774,5.155,5.155,0,0,1,20.921,15.732Z"/></svg>
