<svg id="Layer_1" height="512" viewBox="0 0 24 24" width="512" xmlns="http://www.w3.org/2000/svg" data-name="Layer 1"><path d="m22.833 1.167a4.079 4.079 0 0 0 -5.634 0l-9.849 9.85c-.115-.007-.229-.017-.345-.017a5.956 5.956 0 0 0 -4.238 1.755c-2.051 2.051-2.56 8.293-2.642 9.524l-.112 1.708 1.708-.112c1.23-.082 7.472-.59 9.523-2.641a5.961 5.961 0 0 0 1.722-4.566l9.867-9.868a3.986 3.986 0 0 0 0-5.633zm-13.71 17.945c-.678.678-3.276 1.288-5.836 1.6.314-2.56.923-5.158 1.6-5.836a2.995 2.995 0 1 1 4.235 4.235zm11.589-14.433-8.843 8.843a5.938 5.938 0 0 0 -.625-.767 6.208 6.208 0 0 0 -.756-.634l8.832-8.832a1.008 1.008 0 0 1 1.392 0 .984.984 0 0 1 0 1.39z"/></svg>