<?xml version="1.0" encoding="UTF-8"?>
<svg xmlns="http://www.w3.org/2000/svg" id="Layer_1" data-name="Layer 1" viewBox="0 0 24 24" width="512" height="512"><path d="M20.7,14.025a3.585,3.585,0,0,0-4.946,0l-.409.4A11.6,11.6,0,0,1,9.587,8.647l.388-.394a3.522,3.522,0,0,0,.039-4.91L7.862,1.025A3.583,3.583,0,0,0,2.954.984s-1.067.93-1.092.954c-7.895,8.269,11.923,28.1,20.2,20.2.024-.025.954-1.091.954-1.091a3.516,3.516,0,0,0-.081-4.946Zm.157,4.942c-.025.024-.949,1.083-.949,1.083C14.655,24.773-.91,10.127,3.95,4.1c0,0,1.059-.924,1.084-.949a.487.487,0,0,1,.667-.04L7.854,5.424a.485.485,0,0,1-.009.717L6.737,7.267a1.5,1.5,0,0,0-.323,1.61A14.855,14.855,0,0,0,15.146,17.6a1.5,1.5,0,0,0,1.588-.332l1.134-1.118c.29-.214.441-.212.748.04l2.238,2.074A.5.5,0,0,1,20.854,18.967ZM15,8V3.526a1,1,0,0,1,1.707-.707l1.187,1.187L21.437.442a1.5,1.5,0,0,1,2.126,2.116L20.015,6.127l1.166,1.166A1,1,0,0,1,20.474,9H16A1,1,0,0,1,15,8Z"/></svg>
