<?xml version="1.0" encoding="UTF-8"?>
<svg xmlns="http://www.w3.org/2000/svg" id="Bold" viewBox="0 0 24 24" width="512" height="512"><path d="M12,19a7.008,7.008,0,0,0,7-7V7A7,7,0,0,0,5,7v5A7.008,7.008,0,0,0,12,19ZM12,3a4,4,0,0,1,4,4V8H14.5a1.5,1.5,0,0,0,0,3H16v1a4,4,0,0,1-8,0V11H9.5a1.5,1.5,0,0,0,0-3H8V7A4,4,0,0,1,12,3Z"/><path d="M22.5,11.5A1.5,1.5,0,0,0,21,13v.389A7.62,7.62,0,0,1,13.389,21H10.611A7.621,7.621,0,0,1,3,13.389V13a1.5,1.5,0,0,0-3,0v.389A10.623,10.623,0,0,0,10.611,24h2.778A10.623,10.623,0,0,0,24,13.389V13A1.5,1.5,0,0,0,22.5,11.5Z"/></svg>
