<?xml version="1.0" encoding="UTF-8"?>
<svg xmlns="http://www.w3.org/2000/svg" id="Isolation_Mode" data-name="Isolation Mode" viewBox="0 0 24 24" width="512" height="512"><path d="M19.436,8.64,24,4.074,21.881,1.953,17.29,6.544l-1.75-1.71a2.458,2.458,0,0,0-3.333-.091A18.25,18.25,0,0,1,6.336,8.322L0,10.18V11.3A12.845,12.845,0,0,0,12.961,24h1.353l.387-.27a14.818,14.818,0,0,0,6.805-11.957,2.469,2.469,0,0,0-.744-1.837ZM13.36,21h-.4a10.189,10.189,0,0,1-2.786-.387,11.559,11.559,0,0,0,3.282-3.179l.494-.727-2.48-1.687-.493.725a8.584,8.584,0,0,1-3.224,2.817L6.9,18.99A9.891,9.891,0,0,1,5.25,17.423a11.605,11.605,0,0,0,3.637-2.4l-2.1-2.142a8.627,8.627,0,0,1-3.1,1.931,9.424,9.424,0,0,1-.619-2.407L7.18,11.2A16.87,16.87,0,0,0,11.5,9.043L17.826,15.2A12.492,12.492,0,0,1,13.36,21Z"/></svg>
