<?xml version="1.0" encoding="UTF-8"?>
<svg xmlns="http://www.w3.org/2000/svg" id="Layer_1" data-name="Layer 1" viewBox="0 0 24 24" width="512" height="512"><path d="M14.5,13A1.5,1.5,0,1,1,16,11.5,1.5,1.5,0,0,1,14.5,13Zm9.421,4.771A5.318,5.318,0,0,1,18.682,24H15.5A1.5,1.5,0,0,1,14,22.5V20.726A8.413,8.413,0,0,1,12,21a7.393,7.393,0,0,1-2-.282V22.5A1.5,1.5,0,0,1,8.5,24H5.317A5.318,5.318,0,0,1,.079,17.771l.4-2.024a3.351,3.351,0,0,1,6.077-1.266C7.658,16.1,9.745,18,12,18a7.176,7.176,0,0,0,6.292-4.5,1.5,1.5,0,0,1,1.415-1h.319A.982.982,0,0,0,21,11.525a.884.884,0,0,0-.727-.87A1.5,1.5,0,0,1,19.05,9.337,7.071,7.071,0,0,0,12,3C7,3,5.681,5.945,4.52,8.544l-.125.279A12.841,12.841,0,0,0,11.47,5.437a1.5,1.5,0,1,1,2.115,2.126,14.25,14.25,0,0,1-3.524,2.548,1.506,1.506,0,1,1-1.959.855A17.771,17.771,0,0,1,1.385,12,1.5,1.5,0,0,1,.745,9.2,6.978,6.978,0,0,0,1.781,7.319C3,4.582,5.053,0,12,0a10.063,10.063,0,0,1,9.887,8.068A3.882,3.882,0,0,1,24,11.521a3.931,3.931,0,0,1-.762,2.321ZM7,19.214a12.694,12.694,0,0,1-2.926-3.048.337.337,0,0,0-.3-.166.356.356,0,0,0-.342.3l-.4,2.023A2.32,2.32,0,0,0,5.318,21H7Zm13.965-.93-.438-2.518A10.375,10.375,0,0,1,17,19.455V21h1.681a2.319,2.319,0,0,0,2.284-2.715Z"/></svg>
