<?xml version="1.0" encoding="UTF-8"?>
<svg xmlns="http://www.w3.org/2000/svg" id="Layer_1" data-name="Layer 1" viewBox="0 0 24 24" width="512" height="512"><path d="M19.586,23.046H4.414A4.391,4.391,0,0,1,.655,20.963a4.311,4.311,0,0,1-.2-4.216L8.064,3.354a4.428,4.428,0,0,1,7.893.041L23.5,16.674a4.341,4.341,0,0,1-.159,4.289A4.391,4.391,0,0,1,19.586,23.046ZM12,3.955a1.4,1.4,0,0,0-1.27.774l-.039.074L3.1,18.156a1.288,1.288,0,0,0,.1,1.226,1.394,1.394,0,0,0,1.209.664H19.586a1.394,1.394,0,0,0,1.209-.664,1.318,1.318,0,0,0,.061-1.3L13.309,4.8A1.449,1.449,0,0,0,12,3.955Z"/></svg>
