<?xml version="1.0" encoding="UTF-8"?>
<!-- Generator: Adobe Illustrator 25.0.0, SVG Export Plug-In . SVG Version: 6.00 Build 0)  -->
<svg xmlns="http://www.w3.org/2000/svg" xmlns:xlink="http://www.w3.org/1999/xlink" version="1.1" id="Isolation_Mode" x="0px" y="0px" viewBox="0 0 512 512" style="enable-background:new 0 0 512 512;" xml:space="preserve" width="512" height="512">
<path d="M126.869,122.027c8.66,0.005,15.684-7.011,15.689-15.671c0.005-8.66-7.011-15.684-15.671-15.689c-0.006,0-0.012,0-0.018,0  h-15.253v31.424L126.869,122.027z"/>
<path d="M348.501,164.117c18.24-0.32,26.389-18.475,26.389-36.267c0-8.533-1.941-36.544-26.944-36.544h-14.933l0.469,72.96  C339.072,164.267,345.003,164.267,348.501,164.117z"/>
<path d="M448,0H64C28.654,0,0,28.654,0,64v448h372.715L512,372.715V64C512,28.654,483.346,0,448,0z M306.325,64.747v-0.171h41.621  c32,0,53.611,25.408,53.611,63.211c0,31.543-19.471,59.539-50.874,62.845c-0.563,0.059-1.127,0.11-1.692,0.153  c-8.085,0.149-42.411,0.213-42.411,0.213l-0.235-126.251H306.325z M239.424,141.312c-16.043-5.909-30.507-12.373-30.507-12.373  c-11.882-6.794-18.442-20.126-16.576-33.685c2.257-14.156,12.6-25.676,26.432-29.44c18.265-4.589,37.625-0.357,52.309,11.435  l10.219,8.533l-17.067,20.395l-10.155-8.533c-7.773-6.104-17.852-8.448-27.52-6.4c-3.91,0.755-6.967,3.813-7.723,7.723  c-0.421,2.494,0.665,5.002,2.773,6.4c0.32,0,13.099,5.611,27.136,10.795c19.593,4.434,32.601,23.041,30.037,42.965  c-4.599,20.104-22.918,34.041-43.52,33.109c-17.236,0.226-33.767-6.831-45.525-19.435l-8.96-9.877l19.755-17.856l8.96,9.877  c6.703,6.926,15.963,10.784,25.6,10.667c7.638,0.715,14.776-3.884,17.28-11.136C253.867,147.2,242.816,142.571,239.424,141.312z   M84.907,64h41.963c23.387,0,42.347,18.959,42.347,42.347s-18.959,42.347-42.347,42.347h-15.296v44.8H84.907V64z M448,320H320v128  H64V234.667h384V320z"/>
</svg>
