<?xml version="1.0" encoding="UTF-8"?>
<svg xmlns="http://www.w3.org/2000/svg" id="Layer_1" data-name="Layer 1" viewBox="0 0 24 24" width="512" height="512"><path d="M24.029,5.9,21.2,4.906,19.059,11H17.63L19.475.766,16.523.234,14.582,11H13.5V0h-3V11H9.437L7.5.234,4.544.766,6.389,11H4.962L2.985,4.82.128,5.734,1.813,11H.029L2.318,21.262A3.479,3.479,0,0,0,5.734,24H18.269a3.48,3.48,0,0,0,3.414-2.732L23.994,11H22.239Zm-5.272,14.71a.5.5,0,0,1-.488.391H5.734a.5.5,0,0,1-.488-.391L3.772,14H20.244Z"/></svg>
