<?xml version="1.0" encoding="UTF-8"?>
<!-- Generator: Adobe Illustrator 26.0.1, SVG Export Plug-In . SVG Version: 6.00 Build 0)  -->
<svg xmlns="http://www.w3.org/2000/svg" xmlns:xlink="http://www.w3.org/1999/xlink" version="1.1" id="Capa_1" x="0px" y="0px" viewBox="0 0 24 24" style="enable-background:new 0 0 24 24;" xml:space="preserve" width="512" height="512">
<g>
	<path d="M17.225,4.026c-1.968,0-3.506,1.482-4.899,3.365c-1.914-2.437-3.514-3.365-5.429-3.365C2.992,4.026,0,9.107,0,14.486   c0,3.366,1.628,5.489,4.356,5.489c1.963,0,3.375-0.925,5.885-5.313c0,0,1.046-1.848,1.766-3.12   c0.252,0.407,0.517,0.845,0.797,1.316l1.177,1.98c2.293,3.836,3.57,5.137,5.885,5.137c2.657,0,4.136-2.152,4.136-5.588   C24,8.755,20.941,4.026,17.225,4.026z M8.326,13.474c-2.035,3.19-2.739,3.905-3.872,3.905c-1.166,0-1.859-1.024-1.859-2.849   c0-3.905,1.947-7.897,4.268-7.897c1.257,0,2.307,0.726,3.916,3.029C9.252,12.004,8.326,13.474,8.326,13.474z M19.919,17.379   c-1.159,0-1.713-0.765-3.913-4.306l-1.407-2.347c-0.381-0.619-0.746-1.188-1.098-1.71c1.268-1.957,2.314-2.933,3.559-2.933   c2.585,0,4.653,3.806,4.653,8.48C21.712,16.345,21.129,17.379,19.919,17.379z"/>
</g>















</svg>
