<svg id="Layer_1" height="512" viewBox="0 0 24 24" width="512" xmlns="http://www.w3.org/2000/svg" data-name="Layer 1"><path d="m20 8v2h2.5a1.5 1.5 0 0 1 0 3h-2.5v2h2.5a1.5 1.5 0 0 1 0 3h-2.5v4.5a1.5 1.5 0 0 1 -3 0v-18a4.505 4.505 0 0 1 4.5-4.5h1a1.5 1.5 0 0 1 0 3h-1a1.5 1.5 0 0 0 -1.5 1.5v.5h2.5a1.5 1.5 0 0 1 0 3zm-4 11.25a4.736 4.736 0 0 1 -8 3.45 4.739 4.739 0 1 1 -5.8-7.442c1.154-1.4 2.712-3.5 4.013-5.474-1.723-2.838-3.213-5.955-3.213-8.284a1.5 1.5 0 0 1 3 0c0 1.308.827 3.268 2 5.365 1.173-2.1 2-4.058 2-5.365a1.5 1.5 0 0 1 3 0c0 2.329-1.491 5.447-3.217 8.281 1.3 1.975 2.858 4.077 4.013 5.473a4.739 4.739 0 0 1 2.204 3.996zm-9.5 0a1.75 1.75 0 1 0 -1.75 1.75 1.752 1.752 0 0 0 1.75-1.75zm1.5-3.45a4.753 4.753 0 0 1 1.649-1c-.5-.658-1.063-1.438-1.649-2.284-.586.846-1.152 1.626-1.649 2.284a4.753 4.753 0 0 1 1.649 1zm5 3.446a1.75 1.75 0 1 0 -1.75 1.754 1.752 1.752 0 0 0 1.75-1.75z"/></svg>