<?xml version="1.0" encoding="UTF-8"?>
<svg xmlns="http://www.w3.org/2000/svg" id="Isolation_Mode" data-name="Isolation Mode" viewBox="0 0 24 24" width="512" height="512"><path d="M21,11.555V9.994a9,9,0,0,0-18,0v1.561a5.307,5.307,0,0,0-3,4.763v.364A5.324,5.324,0,0,0,5.318,22H8V11H6V9.994a6,6,0,0,1,12,0V11H16V22h2.682A5.324,5.324,0,0,0,24,16.682v-.364A5.307,5.307,0,0,0,21,11.555ZM5,18.978a2.321,2.321,0,0,1-2-2.3v-.364a2.321,2.321,0,0,1,2-2.3Zm16-2.3a2.321,2.321,0,0,1-2,2.3V14.022a2.321,2.321,0,0,1,2,2.3Z"/></svg>
