<svg id="Layer_1" height="512" viewBox="0 0 24 24" width="512" xmlns="http://www.w3.org/2000/svg" data-name="Layer 1"><path d="m12 1a11.945 11.945 0 0 0 -6.859 21.728l.387.272h12.944l.387-.272a11.945 11.945 0 0 0 -6.859-21.728zm5.5 19h-11a8.95 8.95 0 1 1 11 0zm-3.511-6.921a2 2 0 1 1 -2.182-2.06l3.6-3.605 2.121 2.121zm-4.283 3.193-1.725 2.456a6.986 6.986 0 0 1 5.2-12.62l-4.172 4.263a3.965 3.965 0 0 0 .7 5.9zm9.294-3.272a7.013 7.013 0 0 1 -2.981 5.728l-1.725-2.456c.316-.222 4.584-4.544 4.584-4.544a6.926 6.926 0 0 1 .122 1.272z"/></svg>