<svg id="Layer_1" height="512" viewBox="0 0 24 24" width="512" xmlns="http://www.w3.org/2000/svg" data-name="Layer 1"><path d="m19.5 0a4.505 4.505 0 0 0 -4.5 4.5 1.5 1.5 0 0 0 3 0 1.5 1.5 0 0 1 3 0v9.107a5.47 5.47 0 0 0 -6.845 1.534 3.943 3.943 0 0 0 -4.31 0 5.47 5.47 0 0 0 -6.845-1.534v-9.107a1.5 1.5 0 0 1 3 0 1.5 1.5 0 0 0 3 0 4.5 4.5 0 0 0 -9 0v14a5.5 5.5 0 0 0 11 0 1 1 0 0 1 2 0 5.5 5.5 0 0 0 11 0v-14a4.505 4.505 0 0 0 -4.5-4.5zm-14 21a2.5 2.5 0 1 1 2.5-2.5 2.5 2.5 0 0 1 -2.5 2.5zm13 0a2.5 2.5 0 1 1 2.5-2.5 2.5 2.5 0 0 1 -2.5 2.5z"/></svg>