<?xml version="1.0" encoding="UTF-8"?>
<!-- Generator: Adobe Illustrator 26.0.1, SVG Export Plug-In . SVG Version: 6.00 Build 0)  -->
<svg xmlns="http://www.w3.org/2000/svg" xmlns:xlink="http://www.w3.org/1999/xlink" version="1.1" id="Capa_1" x="0px" y="0px" viewBox="0 0 24 24" style="enable-background:new 0 0 24 24;" xml:space="preserve" width="512" height="512">
<g>
	<path d="M12,0C5.373,0,0,5.372,0,12c0,6.628,5.373,12,12,12s12-5.373,12-12C24,5.372,18.628,0,12,0z M14.55,4.499   c0.426-0.738,1.37-0.99,2.107-0.564c0.739,0.426,0.991,1.369,0.565,2.107c-0.426,0.738-1.369,0.99-2.107,0.564   C14.377,6.18,14.124,5.236,14.55,4.499z M4.229,13.543c-0.851,0-1.542-0.691-1.542-1.543c0-0.852,0.691-1.542,1.542-1.542   c0.853,0,1.544,0.69,1.544,1.542C5.772,12.852,5.082,13.543,4.229,13.543z M5.59,13.691c0.494-0.398,0.81-1.007,0.81-1.692   c0-0.683-0.316-1.293-0.81-1.691C6.007,8.723,6.997,7.37,8.325,6.483L9.471,8.4C8.34,9.195,7.6,10.512,7.6,12   c0,1.489,0.739,2.805,1.871,3.601l-1.147,1.916C6.997,16.63,6.007,15.277,5.59,13.691z M16.657,20.066   c-0.738,0.426-1.681,0.173-2.107-0.564c-0.426-0.738-0.173-1.681,0.565-2.107c0.738-0.426,1.681-0.173,2.107,0.564   C17.648,18.697,17.395,19.64,16.657,20.066z M16.669,16.705c-0.591-0.228-1.277-0.197-1.868,0.145   c-0.592,0.341-0.962,0.92-1.059,1.547c-0.555,0.151-1.139,0.231-1.74,0.231c-1.056,0-2.054-0.247-2.94-0.686l1.087-1.951   C10.71,16.253,11.339,16.4,12,16.4c2.299,0,4.185-1.763,4.382-4.01l2.233,0.035C18.51,14.095,17.785,15.597,16.669,16.705z    M16.383,11.61C16.185,9.362,14.299,7.6,12,7.6c-0.662,0-1.291,0.147-1.854,0.408L9.06,6.058C9.946,5.618,10.944,5.372,12,5.372   c0.602,0,1.185,0.081,1.74,0.231C13.838,6.23,14.208,6.809,14.8,7.15c0.592,0.342,1.277,0.373,1.868,0.145   c1.116,1.108,1.841,2.61,1.947,4.28L16.383,11.61z"/>
</g>















</svg>
