<?xml version="1.0" encoding="UTF-8"?>
<svg xmlns="http://www.w3.org/2000/svg" id="Layer_1" data-name="Layer 1" viewBox="0 0 24 24" width="512" height="512"><path d="M4.825,17.433,2.437,19.248a11.947,11.947,0,0,1-1.543-2.7l2.775-1.139A9,9,0,0,0,4.825,17.433Zm0-10.872L2.439,4.747A12.025,12.025,0,0,0,.9,7.44L3.67,8.582A9,9,0,0,1,4.828,6.561ZM3,12a9.168,9.168,0,0,1,.075-1.17L.1,10.445A12.084,12.084,0,0,0,0,12a12.256,12.256,0,0,0,.1,1.545l2.976-.38A9.055,9.055,0,0,1,3,12Zm1.614,9.458a12.064,12.064,0,0,0,2.673,1.581l1.18-2.759a8.96,8.96,0,0,1-2.005-1.186ZM4.62,2.537,6.466,4.9A8.993,8.993,0,0,1,8.472,3.717L7.294.958A12.049,12.049,0,0,0,4.62,2.537ZM12,0a12.19,12.19,0,0,0-1.709.121l.424,2.97A9.178,9.178,0,0,1,12,3a9,9,0,0,1,0,18,9.178,9.178,0,0,1-1.285-.091l-.424,2.97A12.19,12.19,0,0,0,12,24,12,12,0,0,0,12,0ZM10.5,6.273V10.69a1.966,1.966,0,0,0,0,2.62v3.463h3V13.31a1.966,1.966,0,0,0,0-2.62V6.273Z"/></svg>
