<?xml version="1.0" encoding="UTF-8"?>
<!-- Generator: Adobe Illustrator 26.0.1, SVG Export Plug-In . SVG Version: 6.00 Build 0)  -->
<svg xmlns="http://www.w3.org/2000/svg" xmlns:xlink="http://www.w3.org/1999/xlink" version="1.1" id="Capa_1" x="0px" y="0px" viewBox="0 0 24 24" style="enable-background:new 0 0 24 24;" xml:space="preserve" width="512" height="512">
<g>
	<path d="M5.664,9.905C5.621,9.566,5.789,9.207,5.98,8.987C6.193,8.73,6.56,8.546,6.861,8.531c0.037,0.353-0.103,0.698-0.309,0.955   C6.339,9.736,6.002,9.934,5.664,9.905z"/>
	<path d="M8.101,12.907c-0.008,0.022-0.124,0.425-0.41,0.842c-0.249,0.366-0.505,0.725-0.915,0.732   c-0.395,0.007-0.527-0.234-0.981-0.234c-0.454,0-0.6,0.227-0.973,0.242c-0.395,0.015-0.695-0.389-0.944-0.754   c-0.512-0.74-0.9-2.087-0.373-2.995C3.761,10.285,4.229,10,4.734,9.992c0.388-0.007,0.746,0.256,0.981,0.256   c0.234,0,0.651-0.308,1.141-0.278c0.19,0.015,0.739,0.073,1.091,0.593c-0.029,0.023-0.651,0.381-0.644,1.135   C7.31,12.599,8.093,12.899,8.101,12.907z"/>
	<path d="M11.126,8.95H9.067v5.493H9.92v-1.876h1.18c1.077,0,1.835-0.738,1.835-1.812C12.934,9.685,12.193,8.95,11.126,8.95z    M10.898,11.85H9.92V9.669h0.982c0.738,0,1.161,0.396,1.161,1.089C12.063,11.451,11.64,11.85,10.898,11.85z"/>
	<path d="M14.969,10.366c-0.99,0-1.606,0.533-1.652,1.256h0.776c0.072-0.358,0.369-0.586,0.845-0.586   c0.503,0,0.803,0.266,0.803,0.712v0.309l-1.096,0.065c-0.952,0.053-1.488,0.483-1.488,1.184c0,0.719,0.548,1.207,1.332,1.207   c0.526,0,1.032-0.282,1.264-0.727h0.019v0.658h0.788v-2.76C16.561,10.88,15.94,10.366,14.969,10.366z M15.742,12.943   c0,0.521-0.449,0.917-1.024,0.917c-0.441,0-0.73-0.228-0.73-0.579c0-0.342,0.278-0.559,0.768-0.594l0.986-0.061V12.943z"/>
	<path d="M19.84,10.438h0.868l-1.5,4.214c-0.343,0.971-0.738,1.283-1.568,1.283c-0.068,0-0.274-0.008-0.335-0.019V15.25   c0.06,0.015,0.197,0.015,0.266,0.015c0.381,0,0.586-0.16,0.712-0.571c0-0.008,0.072-0.243,0.072-0.247l-1.446-4.009h0.891   l1.013,3.259h0.015L19.84,10.438z"/>
	<path d="M24,6.221c-0.002-0.367-0.013-0.753-0.184-1.087c-0.139-0.27-0.361-0.493-0.631-0.631   c-0.337-0.172-0.718-0.182-1.088-0.184c-0.082,0-0.164,0-0.246,0H2.15c-0.301,0-0.607-0.01-0.905,0.044   C0.947,4.415,0.666,4.554,0.45,4.768C0.235,4.983,0.097,5.265,0.044,5.563C-0.01,5.86,0.001,6.167,0.001,6.468v11.066   c0,0.082,0,0.164,0,0.246c0.002,0.369,0.013,0.752,0.184,1.087c0.138,0.27,0.361,0.494,0.631,0.631   c0.337,0.171,0.719,0.18,1.088,0.184c0.082,0.001,0.164,0.001,0.246,0.001h19.701c0.082,0,0.164,0,0.246-0.001   c0.366-0.004,0.75-0.012,1.088-0.184c0.27-0.137,0.494-0.361,0.631-0.631c0.17-0.335,0.182-0.719,0.184-1.087   c0-0.082,0-0.164,0-0.246V6.468C24,6.385,24,6.303,24,6.221z M23.488,17.533c0,0.081,0,0.161,0,0.244   c-0.002,0.286,0.004,0.596-0.128,0.858c-0.088,0.174-0.234,0.319-0.407,0.407c-0.262,0.133-0.572,0.126-0.858,0.128   c-0.081,0-0.162,0-0.242,0H2.147c-0.08,0-0.159,0-0.241,0c-0.287-0.002-0.596,0.005-0.858-0.129   c-0.174-0.089-0.318-0.232-0.406-0.406c-0.133-0.262-0.126-0.571-0.128-0.858l0-0.193V6.417l0-0.192   c0-0.066,0.001-0.131,0.003-0.197c0.006-0.223,0.023-0.46,0.126-0.662C0.73,5.192,0.875,5.047,1.048,4.959   C1.253,4.856,1.485,4.84,1.71,4.834c0.066-0.002,0.131-0.002,0.196-0.003l0.243,0h19.701c0,0,0.242,0,0.242,0   c0.286,0.001,0.598-0.004,0.859,0.128c0.174,0.089,0.318,0.233,0.406,0.407c0.133,0.261,0.127,0.573,0.128,0.859   c0,0.081,0,0.161,0,0.242V17.533z"/>
	<path d="M5.664,9.905C5.621,9.566,5.789,9.207,5.98,8.987C6.193,8.73,6.56,8.546,6.861,8.531c0.037,0.353-0.103,0.698-0.309,0.955   C6.339,9.736,6.002,9.934,5.664,9.905z"/>
	<path d="M8.101,12.907c-0.008,0.022-0.124,0.425-0.41,0.842c-0.249,0.366-0.505,0.725-0.915,0.732   c-0.395,0.007-0.527-0.234-0.981-0.234c-0.454,0-0.6,0.227-0.973,0.242c-0.395,0.015-0.695-0.389-0.944-0.754   c-0.512-0.74-0.9-2.087-0.373-2.995C3.761,10.285,4.229,10,4.734,9.992c0.388-0.007,0.746,0.256,0.981,0.256   c0.234,0,0.651-0.308,1.141-0.278c0.19,0.015,0.739,0.073,1.091,0.593c-0.029,0.023-0.651,0.381-0.644,1.135   C7.31,12.599,8.093,12.899,8.101,12.907z"/>
	<path d="M11.126,8.95H9.067v5.493H9.92v-1.876h1.18c1.077,0,1.835-0.738,1.835-1.812C12.934,9.685,12.193,8.95,11.126,8.95z    M10.898,11.85H9.92V9.669h0.982c0.738,0,1.161,0.396,1.161,1.089C12.063,11.451,11.64,11.85,10.898,11.85z"/>
	<path d="M14.969,10.366c-0.99,0-1.606,0.533-1.652,1.256h0.776c0.072-0.358,0.369-0.586,0.845-0.586   c0.503,0,0.803,0.266,0.803,0.712v0.309l-1.096,0.065c-0.952,0.053-1.488,0.483-1.488,1.184c0,0.719,0.548,1.207,1.332,1.207   c0.526,0,1.032-0.282,1.264-0.727h0.019v0.658h0.788v-2.76C16.561,10.88,15.94,10.366,14.969,10.366z M15.742,12.943   c0,0.521-0.449,0.917-1.024,0.917c-0.441,0-0.73-0.228-0.73-0.579c0-0.342,0.278-0.559,0.768-0.594l0.986-0.061V12.943z"/>
	<path d="M20.708,10.438l-1.5,4.214c-0.343,0.971-0.738,1.283-1.568,1.283c-0.068,0-0.274-0.008-0.335-0.019V15.25   c0.06,0.015,0.197,0.015,0.266,0.015c0.381,0,0.586-0.16,0.712-0.571c0-0.008,0.072-0.243,0.072-0.247l-1.446-4.009h0.891   l1.013,3.259h0.015l1.013-3.259H20.708z"/>
	<g>
		<g>
			<path d="M6.552,9.486c-0.213,0.25-0.55,0.448-0.888,0.419C5.621,9.566,5.789,9.207,5.98,8.987C6.193,8.73,6.56,8.546,6.861,8.531     C6.897,8.884,6.758,9.229,6.552,9.486z"/>
			<path d="M8.101,12.907c-0.008,0.022-0.124,0.425-0.41,0.842c-0.249,0.366-0.505,0.725-0.915,0.732     c-0.395,0.007-0.527-0.234-0.981-0.234c-0.454,0-0.6,0.227-0.973,0.242c-0.395,0.015-0.695-0.389-0.944-0.754     c-0.512-0.74-0.9-2.087-0.373-2.995C3.761,10.285,4.229,10,4.734,9.992c0.388-0.007,0.746,0.256,0.981,0.256     c0.234,0,0.651-0.308,1.141-0.278c0.19,0.015,0.739,0.073,1.091,0.593c-0.029,0.023-0.651,0.381-0.644,1.135     C7.31,12.599,8.093,12.899,8.101,12.907z"/>
		</g>
		<g>
			<path d="M11.126,8.95H9.067v5.493H9.92v-1.876h1.18c1.077,0,1.835-0.738,1.835-1.812C12.934,9.685,12.193,8.95,11.126,8.95z      M10.898,11.85H9.92V9.669h0.982c0.738,0,1.161,0.396,1.161,1.089C12.063,11.451,11.64,11.85,10.898,11.85z"/>
			<path d="M14.969,10.366c-0.99,0-1.606,0.533-1.652,1.256h0.776c0.072-0.358,0.369-0.586,0.845-0.586     c0.503,0,0.803,0.266,0.803,0.712v0.309l-1.096,0.065c-0.952,0.053-1.488,0.483-1.488,1.184c0,0.719,0.548,1.207,1.332,1.207     c0.526,0,1.032-0.282,1.264-0.727h0.019v0.658h0.788v-2.76C16.561,10.88,15.94,10.366,14.969,10.366z M15.742,12.943     c0,0.521-0.449,0.917-1.024,0.917c-0.441,0-0.73-0.228-0.73-0.579c0-0.342,0.278-0.559,0.768-0.594l0.986-0.061V12.943z"/>
			<path d="M19.84,10.438l-1.013,3.259h-0.015l-1.013-3.259h-0.891l1.446,4.009c0,0.004-0.072,0.24-0.072,0.247     c-0.126,0.411-0.331,0.571-0.712,0.571c-0.069,0-0.206,0-0.266-0.015v0.666c0.06,0.011,0.266,0.019,0.335,0.019     c0.83,0,1.226-0.312,1.568-1.283l1.5-4.214H19.84z"/>
		</g>
	</g>
</g>















</svg>
