<?xml version="1.0" encoding="UTF-8"?>
<svg xmlns="http://www.w3.org/2000/svg" id="Layer_1" data-name="Layer 1" viewBox="0 0 24 24" width="512" height="512"><path d="M22.592,20H19.408a1.491,1.491,0,0,1-2.816,0H13.408a1.491,1.491,0,0,1-2.816,0H7.408a1.491,1.491,0,0,1-2.816,0H1.408A1.5,1.5,0,0,1,0,21v3a4.468,4.468,0,0,0,3-1.17,4.431,4.431,0,0,0,6,0,4.431,4.431,0,0,0,6,0,4.431,4.431,0,0,0,6,0A4.468,4.468,0,0,0,24,24V21A1.5,1.5,0,0,1,22.592,20Z"/><path d="M3,17.989V12.21l9-9,9,9v5.779h3V10.968L13.768.735a2.5,2.5,0,0,0-3.536,0h0L0,10.968v7.021Z"/><path d="M12.182,13.588h-.364A3.818,3.818,0,0,0,8,17.406v.583h8v-.583A3.818,3.818,0,0,0,12.182,13.588Z"/></svg>
