<?xml version="1.0" encoding="UTF-8"?>
<svg xmlns="http://www.w3.org/2000/svg" id="Layer_1" data-name="Layer 1" viewBox="0 0 24 24" width="512" height="512"><path d="M10,2.5A2.5,2.5,0,1,1,12.5,5,2.5,2.5,0,0,1,10,2.5ZM21,8V24H18V13H13.554l-1.149-2.3-.973,5.035L14,17.775V24H11V19.225L8.118,16.94a3.494,3.494,0,0,1-.931-1.125A4.039,4.039,0,0,1,5.969,16,3.845,3.845,0,0,1,2,12.026C2,8.759,5.4,6,9.413,6h1.831a3.483,3.483,0,0,1,3.131,1.934L15.407,10H18V8ZM5.969,13a1.536,1.536,0,0,0,1.2-.862l.66-2.912C6.225,9.692,5,10.818,5,12.026A.861.861,0,0,0,5.969,13Zm.308,4.952L5.051,24H8.114L8.9,20.113,6.876,18.507A5.545,5.545,0,0,1,6.277,17.952Z"/></svg>
