<?xml version="1.0" encoding="UTF-8"?>
<!-- Generator: Adobe Illustrator 26.0.1, SVG Export Plug-In . SVG Version: 6.00 Build 0)  -->
<svg xmlns="http://www.w3.org/2000/svg" xmlns:xlink="http://www.w3.org/1999/xlink" version="1.1" id="Capa_1" x="0px" y="0px" viewBox="0 0 24 24" style="enable-background:new 0 0 24 24;" xml:space="preserve" width="512" height="512">
<path d="M21.429,0H2.571C1.152,0,0,1.152,0,2.571v18.857C0,22.848,1.152,24,2.571,24h18.857C22.848,24,24,22.848,24,21.429V2.571  C24,1.152,22.848,0,21.429,0z M7.741,15.375c-1.88,0-3.402-1.521-3.402-3.402s1.521-3.402,3.402-3.402s3.402,1.521,3.402,3.402  S9.621,15.375,7.741,15.375z M16.259,15.375c-1.88,0-3.402-1.521-3.402-3.402s1.521-3.402,3.402-3.402s3.402,1.521,3.402,3.402  S18.139,15.375,16.259,15.375z"/>















</svg>
