<svg id="Layer_1" height="512" viewBox="0 0 24 24" width="512" xmlns="http://www.w3.org/2000/svg" data-name="Layer 1"><path d="m.221 4.283a1.5 1.5 0 0 1 .5-2.062l3.268-2a1.5 1.5 0 1 1 1.563 2.558l-3.269 2a1.5 1.5 0 0 1 -2.062-.5zm23.067 13.7a1.5 1.5 0 0 0 -2.064.489l-2 3.241a1.5 1.5 0 1 0 2.552 1.576l2-3.241a1.5 1.5 0 0 0 -.488-2.066zm-2.453-2.5-3.6 5.865a5.527 5.527 0 0 1 -4.086 2.611 5.91 5.91 0 0 1 -.663.039 5.5 5.5 0 0 1 -3.386-1.183 4.183 4.183 0 0 1 -5.956-5.872l-1.494-1.5a5.54 5.54 0 0 1 -1.6-4.589 5.483 5.483 0 0 1 2.587-4.054l5.487-3.387a8.982 8.982 0 0 1 10.076.267l1.24-1.241a1.5 1.5 0 0 1 2.122 2.122l-1.239 1.239a9.054 9.054 0 0 1 .512 9.686zm-3.6-8.707a6.019 6.019 0 0 0 -7.519-.823l-5.5 3.4a2.507 2.507 0 0 0 -1.18 1.853 2.559 2.559 0 0 0 .742 2.12l6.912 6.928a2.563 2.563 0 0 0 3.991-.473l3.573-5.818a6.025 6.025 0 0 0 -1.018-7.184z"/></svg>