<?xml version="1.0" encoding="UTF-8"?>
<!-- Generator: Adobe Illustrator 26.0.1, SVG Export Plug-In . SVG Version: 6.00 Build 0)  -->
<svg xmlns="http://www.w3.org/2000/svg" xmlns:xlink="http://www.w3.org/1999/xlink" version="1.1" id="Capa_1" x="0px" y="0px" viewBox="0 0 24 24" style="enable-background:new 0 0 24 24;" xml:space="preserve" width="512" height="512">
<g>
	<path d="M11.979,0c3.357,0,6.2,1.164,8.528,3.493C22.835,5.807,24,8.643,24,12c0,3.357-1.143,6.171-3.429,8.443   C18.157,22.814,15.293,24,11.979,24c-3.243,0-6.057-1.178-8.443-3.536C1.179,18.107,0,15.286,0,12c0-3.271,1.179-6.107,3.536-8.507   C5.864,1.164,8.678,0,11.979,0z M12.021,2.164c-2.729,0-5.036,0.964-6.921,2.893C3.143,7.043,2.164,9.357,2.164,12   c0,2.672,0.971,4.971,2.914,6.9c1.943,1.943,4.257,2.914,6.943,2.914c2.671,0,5-0.978,6.986-2.936   c1.886-1.828,2.829-4.121,2.829-6.879c0-2.743-0.957-5.057-2.871-6.943C17.064,3.129,14.75,2.164,12.021,2.164z M20.078,12.321   v3.386L16.821,17.1l-6.643-2.721l-3.107,1.286l-3.064-1.329V11.25l2.871-1.2l-0.022-0.021V6.643l3.257-1.436l7.35,3.043v2.979   L20.078,12.321z M16.436,16.157v-2.198L10.907,11.7v2.186L16.436,16.157z M16.8,13.371l1.929-0.793l-1.779-0.75l-1.886,0.793   L16.8,13.371z M19.328,15.214v-2.079l-2.143,0.9v2.1L19.328,15.214z"/>
</g>















</svg>
