<?xml version="1.0" encoding="UTF-8"?>
<svg xmlns="http://www.w3.org/2000/svg" id="Layer_1" data-name="Layer 1" viewBox="0 0 24 24" width="512" height="512"><path d="M21.148,20.234a1.343,1.343,0,0,1-.769.69,1.379,1.379,0,0,1-1.077-.077L17,19.834V14.353l-3.831-3.612,1.5-2.054,7.007,4.569,1.638-2.512L11.446,3H7.619L4.674.066,2.557,2.191,6.381,6h4.173l.086.056L8.725,8.547A3.515,3.515,0,0,0,8,10.68v2.3L4.561,14.36l-.777-.341a1.353,1.353,0,0,1-.658-1.795L.4,10.962a4.364,4.364,0,0,0,2.146,5.79l15.5,6.82a4.351,4.351,0,0,0,5.805-2.041ZM11,15.016v-2.2l3,2.827v2.867L8.407,16.053ZM14,2.5A2.5,2.5,0,1,1,16.5,5,2.5,2.5,0,0,1,14,2.5Z"/></svg>
