<?xml version="1.0" encoding="UTF-8"?>
<svg xmlns="http://www.w3.org/2000/svg" id="Layer_1" data-name="Layer 1" viewBox="0 0 24 24" width="512" height="512"><path d="M19.882,4.437A11.041,11.041,0,0,0,.389,8.1a10.959,10.959,0,0,0,2,9.641A2.712,2.712,0,0,1,3,19.375v.11A4.513,4.513,0,0,0,7.5,24h5a4.507,4.507,0,0,0,4.256-3.039,5.475,5.475,0,0,0,4.77-4.579l.144-.885A2.456,2.456,0,0,0,24,12.954C24,11.355,21.053,5.882,19.882,4.437Zm.512,8.063a1.5,1.5,0,0,0-1.48,1.26l-.349,2.14A2.49,2.49,0,0,1,16.1,18h-.6A1.5,1.5,0,0,0,14,19.5,1.5,1.5,0,0,1,12.5,21h-5A1.51,1.51,0,0,1,6,19.485v-.11A5.65,5.65,0,0,0,4.76,15.9a7.929,7.929,0,0,1-1.475-7.02A8.064,8.064,0,0,1,9.672,3.114,8.22,8.22,0,0,1,11.012,3a8.1,8.1,0,0,1,6.5,3.275A32.68,32.68,0,0,1,20.837,12.5ZM16.225,8.051a1.5,1.5,0,0,0-2.043-.57l-.708.4A3.987,3.987,0,0,0,12.5,7.3V6.5a1.5,1.5,0,0,0-3,0v.8a3.987,3.987,0,0,0-.974.584l-.708-.4A1.5,1.5,0,0,0,6.344,10.1l.707.4A4.015,4.015,0,0,0,7,11a4.015,4.015,0,0,0,.051.506l-.707.4a1.5,1.5,0,0,0,1.474,2.614l.708-.4A3.987,3.987,0,0,0,9.5,14.7v.8a1.5,1.5,0,0,0,3,0v-.8a3.987,3.987,0,0,0,.974-.584l.708.4a1.5,1.5,0,0,0,1.474-2.614l-.707-.4A4.015,4.015,0,0,0,15,11a4.015,4.015,0,0,0-.051-.506l.707-.4A1.5,1.5,0,0,0,16.225,8.051ZM12,11a1,1,0,1,1-1-1A1,1,0,0,1,12,11Z"/></svg>
