<?xml version="1.0" encoding="UTF-8"?>
<svg xmlns="http://www.w3.org/2000/svg" id="Layer_1" data-name="Layer 1" viewBox="0 0 24 24" width="512" height="512"><path d="M17.728,0a12.208,12.208,0,0,0-3.909.641A5.935,5.935,0,0,1,12,1,5.947,5.947,0,0,1,10.18.641,12.2,12.2,0,0,0,6.272,0,6.1,6.1,0,0,0,0,6.272C0,12.4,3.083,18.389,5.4,22.362A3.325,3.325,0,0,0,8.37,24,2.782,2.782,0,0,0,11,21.183V15a1,1,0,0,1,2,0v6.183A2.783,2.783,0,0,0,15.628,24a3.326,3.326,0,0,0,2.97-1.636C20.917,18.389,24,12.4,24,6.272A6.1,6.1,0,0,0,17.728,0ZM16,20.86h0V15a4,4,0,0,0-8,0v5.86H8C5.855,17.188,3,11.676,3,6.272A3.125,3.125,0,0,1,6.272,3a9.238,9.238,0,0,1,3.036.511A8.687,8.687,0,0,0,12,4a8.68,8.68,0,0,0,2.691-.489A9.244,9.244,0,0,1,17.728,3,3.121,3.121,0,0,1,21,6.272C21,11.676,18.145,17.188,16,20.86Z"/></svg>
