<?xml version="1.0" encoding="UTF-8"?>
<!-- Generator: Adobe Illustrator 26.0.1, SVG Export Plug-In . SVG Version: 6.00 Build 0)  -->
<svg xmlns="http://www.w3.org/2000/svg" xmlns:xlink="http://www.w3.org/1999/xlink" version="1.1" id="Capa_1" x="0px" y="0px" viewBox="0 0 24 24" style="enable-background:new 0 0 24 24;" xml:space="preserve" width="512" height="512">
<g>
	<path style="fill-rule:evenodd;clip-rule:evenodd;" d="M12,0C5.375,0,0,5.375,0,12s5.375,12,12,12c6.612,0,12-5.375,12-12   S18.612,0,12,0z M19.926,5.531c1.432,1.744,2.291,3.97,2.317,6.378c-0.338-0.065-3.722-0.755-7.133-0.326   c-0.078-0.169-0.143-0.351-0.221-0.533c-0.208-0.495-0.443-1.002-0.677-1.484C17.987,8.03,19.705,5.818,19.926,5.531z    M13.418,8.043c-1.679-3.084-3.54-5.61-3.826-6C10.36,1.861,11.167,1.77,12,1.77c2.603,0,4.985,0.976,6.794,2.577   C18.612,4.607,17.063,6.677,13.418,8.043z M7.64,2.733c0.273,0.364,2.095,2.902,3.8,5.922c-4.79,1.275-9.02,1.25-9.475,1.25   C2.629,6.729,4.777,4.087,7.64,2.733z M1.744,11.7c0.442,0.013,5.414,0.078,10.529-1.457c0.3,0.572,0.573,1.158,0.833,1.744   c-0.13,0.039-0.273,0.078-0.404,0.117c-5.284,1.705-8.095,6.365-8.33,6.755c-1.627-1.809-2.629-4.217-2.629-6.846V11.7z    M13.757,13.692c0.026-0.013,0.039-0.013,0.065-0.026c1.445,3.735,2.031,6.872,2.187,7.77c-1.237,0.534-2.59,0.82-4.009,0.82   c-2.369,0-4.555-0.807-6.286-2.16C5.896,19.718,7.978,15.709,13.757,13.692z M17.714,20.499c-0.104-0.625-0.651-3.618-1.991-7.302   c3.215-0.507,6.026,0.326,6.377,0.443C21.657,16.49,20.018,18.95,17.714,20.499z"/>
</g>















</svg>
