<?xml version="1.0" encoding="UTF-8"?>
<!-- Generator: Adobe Illustrator 25.0.0, SVG Export Plug-In . SVG Version: 6.00 Build 0)  -->
<svg xmlns="http://www.w3.org/2000/svg" xmlns:xlink="http://www.w3.org/1999/xlink" version="1.1" id="Capa_1" x="0px" y="0px" viewBox="0 0 512 512" style="enable-background:new 0 0 512 512;" xml:space="preserve" width="512" height="512">
<g>
	<path d="M42.667,373.333H96c23.564,0,42.667,19.103,42.667,42.667v53.333C138.667,492.898,119.564,512,96,512H42.667   C19.103,512,0,492.898,0,469.333V416C0,392.436,19.103,373.333,42.667,373.333z"/>
	<path d="M416,373.333h53.333C492.898,373.333,512,392.436,512,416v53.333C512,492.898,492.898,512,469.333,512H416   c-23.564,0-42.667-19.102-42.667-42.667V416C373.333,392.436,392.436,373.333,416,373.333z"/>
	<path d="M42.667,186.667H96c23.564,0,42.667,19.103,42.667,42.667v53.333c0,23.564-19.103,42.667-42.667,42.667H42.667   C19.103,325.333,0,306.231,0,282.667v-53.333C0,205.769,19.103,186.667,42.667,186.667z"/>
	<path d="M416,186.667h53.333c23.564,0,42.667,19.103,42.667,42.667v53.333c0,23.564-19.102,42.667-42.667,42.667H416   c-23.564,0-42.667-19.103-42.667-42.667v-53.333C373.333,205.769,392.436,186.667,416,186.667z"/>
	<path d="M42.667,0H96c23.564,0,42.667,19.103,42.667,42.667V96c0,23.564-19.103,42.667-42.667,42.667H42.667   C19.103,138.667,0,119.564,0,96V42.667C0,19.103,19.103,0,42.667,0z"/>
	<path d="M229.333,373.333h53.333c23.564,0,42.667,19.103,42.667,42.667v53.333c0,23.564-19.103,42.667-42.667,42.667h-53.333   c-23.564,0-42.667-19.102-42.667-42.667V416C186.667,392.436,205.769,373.333,229.333,373.333z"/>
	<path d="M229.333,186.667h53.333c23.564,0,42.667,19.103,42.667,42.667v53.333c0,23.564-19.103,42.667-42.667,42.667h-53.333   c-23.564,0-42.667-19.103-42.667-42.667v-53.333C186.667,205.769,205.769,186.667,229.333,186.667z"/>
	<path d="M229.333,0h53.333c23.564,0,42.667,19.103,42.667,42.667V96c0,23.564-19.103,42.667-42.667,42.667h-53.333   c-23.564,0-42.667-19.103-42.667-42.667V42.667C186.667,19.103,205.769,0,229.333,0z"/>
	<path d="M416,0h53.333C492.898,0,512,19.103,512,42.667V96c0,23.564-19.102,42.667-42.667,42.667H416   c-23.564,0-42.667-19.103-42.667-42.667V42.667C373.333,19.103,392.436,0,416,0z"/>
</g>















</svg>
