<svg id="Layer_1" height="512" viewBox="0 0 24 24" width="512" xmlns="http://www.w3.org/2000/svg" data-name="Layer 1"><path d="m16.5 14.5a1.5 1.5 0 0 1 -1.5 1.5h-1.5v1.5a1.5 1.5 0 0 1 -3 0v-1.5h-1.5a1.5 1.5 0 0 1 0-3h1.5v-1.5a1.5 1.5 0 0 1 3 0v1.5h1.5a1.5 1.5 0 0 1 1.5 1.5zm5.5-6.343v10.343a5.506 5.506 0 0 1 -5.5 5.5h-9a5.506 5.506 0 0 1 -5.5-5.5v-13a5.506 5.506 0 0 1 5.5-5.5h6.343a5.464 5.464 0 0 1 3.889 1.611l2.657 2.657a5.464 5.464 0 0 1 1.611 3.889zm-3 10.343v-9.5h-4a2 2 0 0 1 -2-2v-4h-5.5a2.5 2.5 0 0 0 -2.5 2.5v13a2.5 2.5 0 0 0 2.5 2.5h9a2.5 2.5 0 0 0 2.5-2.5z"/></svg>