<?xml version="1.0" encoding="UTF-8"?>
<svg xmlns="http://www.w3.org/2000/svg" id="Layer_1" data-name="Layer 1" viewBox="0 0 24 24" width="512" height="512"><path d="M18.5,5H15.975A5.506,5.506,0,0,0,10.5,0h-5A5.506,5.506,0,0,0,0,5.5v13A5.506,5.506,0,0,0,5.5,24h13A5.506,5.506,0,0,0,24,18.5v-8A5.506,5.506,0,0,0,18.5,5ZM3,18.5V5.5A2.5,2.5,0,0,1,5.5,3h5A2.5,2.5,0,0,1,13,5.5V21H5.5A2.5,2.5,0,0,1,3,18.5Zm18,0A2.5,2.5,0,0,1,18.5,21H16V8h2.5A2.5,2.5,0,0,1,21,10.5Zm-1-7A1.5,1.5,0,1,1,18.5,10,1.5,1.5,0,0,1,20,11.5Zm0,5A1.5,1.5,0,1,1,18.5,15,1.5,1.5,0,0,1,20,16.5ZM7,6.5A1.5,1.5,0,1,1,5.5,5,1.5,1.5,0,0,1,7,6.5Zm0,5A1.5,1.5,0,1,1,5.5,10,1.5,1.5,0,0,1,7,11.5Zm5-5A1.5,1.5,0,1,1,10.5,5,1.5,1.5,0,0,1,12,6.5Zm0,5A1.5,1.5,0,1,1,10.5,10,1.5,1.5,0,0,1,12,11.5Zm-5,5A1.5,1.5,0,1,1,5.5,15,1.5,1.5,0,0,1,7,16.5Zm5,0A1.5,1.5,0,1,1,10.5,15,1.5,1.5,0,0,1,12,16.5Z"/></svg>
