<?xml version="1.0" encoding="UTF-8"?>
<!-- Generator: Adobe Illustrator 26.0.1, SVG Export Plug-In . SVG Version: 6.00 Build 0)  -->
<svg xmlns="http://www.w3.org/2000/svg" xmlns:xlink="http://www.w3.org/1999/xlink" version="1.1" id="Capa_1" x="0px" y="0px" viewBox="0 0 24 24" style="enable-background:new 0 0 24 24;" xml:space="preserve" width="512" height="512">
<path d="M8.948,8.798V7.368C9.09,7.359,9.23,7.35,9.372,7.35c3.922-0.124,6.493,3.374,6.493,3.374s-2.774,3.851-5.751,3.851  c-0.398,0-0.786-0.062-1.157-0.185v-4.346c1.528,0.185,1.837,0.857,2.747,2.385l2.041-1.713c0,0-1.493-1.952-4.001-1.952  C9.478,8.755,9.213,8.772,8.948,8.798 M8.948,4.064v2.138l0.424-0.027c5.45-0.186,9.01,4.469,9.01,4.469s-4.081,4.964-8.33,4.964  c-0.371,0-0.733-0.035-1.095-0.097v1.325c0.301,0.035,0.61,0.062,0.91,0.062c3.957,0,6.819-2.023,9.593-4.407  c0.459,0.371,2.341,1.263,2.729,1.651c-2.632,2.208-8.772,3.984-12.252,3.984c-0.336,0-0.654-0.018-0.971-0.053v1.864H24V4.064  H8.948z M8.948,14.39v1.131c-3.657-0.654-4.673-4.461-4.673-4.461s1.758-1.943,4.673-2.261v1.237H8.939  C7.411,9.85,6.21,11.281,6.21,11.281S6.89,13.692,8.948,14.39 M2.455,10.901c0,0,2.164-3.197,6.501-3.533V6.201  C4.151,6.59,0,10.653,0,10.653s2.35,6.802,8.948,7.42v-1.237C4.108,16.236,2.455,10.901,2.455,10.901z"/>















</svg>
