<?xml version="1.0" encoding="UTF-8"?>
<svg xmlns="http://www.w3.org/2000/svg" id="Layer_1" data-name="Layer 1" viewBox="0 0 24 24" width="512" height="512"><path d="M20.7,14.025a3.584,3.584,0,0,0-4.945,0l-.411.4A11.6,11.6,0,0,1,9.586,8.647l.388-.394a3.521,3.521,0,0,0,.039-4.91L7.861,1.025A3.583,3.583,0,0,0,2.954.984l-1.017.884c-.026.023-.051.046-.075.07-7.9,8.27,11.923,28.1,20.2,20.2.023-.025.046-.049.069-.075l.885-1.016a3.516,3.516,0,0,0-.082-4.946Zm.156,4.942c-.024.024-.048.05-.071.075l-.877,1.008C14.654,24.773-.91,10.127,3.949,4.1l1.008-.877c.026-.024.052-.047.076-.072a.488.488,0,0,1,.668-.04L7.853,5.424a.485.485,0,0,1-.009.717L6.736,7.267a1.5,1.5,0,0,0-.322,1.61A14.852,14.852,0,0,0,15.146,17.6a1.5,1.5,0,0,0,1.586-.332l1.127-1.109.01-.009c.278-.213.45-.21.747.04l2.237,2.074A.5.5,0,0,1,20.853,18.967ZM23.56,6.439a1.5,1.5,0,0,1-2.121,2.122L19.5,6.621l-1.94,1.94a1.5,1.5,0,0,1-2.121-2.122L17.378,4.5,15.439,2.561A1.5,1.5,0,0,1,17.56.439l1.94,1.94L21.439.439A1.5,1.5,0,0,1,23.56,2.561L21.621,4.5Z"/></svg>
