<?xml version="1.0" encoding="UTF-8"?>
<svg xmlns="http://www.w3.org/2000/svg" id="Layer_1" data-name="Layer 1" viewBox="0 0 24 24" width="512" height="512"><path d="M18.451,15.95a5.512,5.512,0,0,0-3.924,1.626C12.224,19.88,8.985,21,4.627,21h-1.1a.524.524,0,0,1-.37-.9L5.464,17.8l11.453-3.054A5.505,5.505,0,0,0,21,9.427V5.5A5.507,5.507,0,0,0,15.5,0H11.573A5.505,5.505,0,0,0,6.259,4.083L3.105,15.91l-2.07,2.072A3.526,3.526,0,0,0,3.528,24h1.1c5.122,0,9.167-1.447,12.021-4.3A2.549,2.549,0,0,1,21,21.5v1a1.5,1.5,0,0,0,3,0v-1A5.555,5.555,0,0,0,18.451,15.95ZM9.157,4.856a2.49,2.49,0,0,1,.631-1.1L13.7,7.438l3.629-3.63A2.483,2.483,0,0,1,18,5.5V9.427a2.5,2.5,0,0,1-.546,1.554L13.7,7.438,6.661,14.371l-.044.012Z"/></svg>
