<?xml version="1.0" encoding="UTF-8"?>
<svg xmlns="http://www.w3.org/2000/svg" id="Bold" viewBox="0 0 24 24" width="512" height="512"><circle cx="16" cy="8" r="2"/><circle cx="9" cy="8" r="2"/><circle cx="8" cy="15" r="2"/><path d="M24.036,10.928A12.144,12.144,0,0,0,12.5.008,12,12,0,1,0,12.083,24c.338,0,.669-.022,1-.049a1.5,1.5,0,0,0,1.376-1.508l-.03-3.425a2.859,2.859,0,0,1,4.88-2.047l.1.1a2.38,2.38,0,0,0,2.19.644A2.344,2.344,0,0,0,23.3,16.25,11.909,11.909,0,0,0,24.036,10.928Zm-3.249,3.366a5.86,5.86,0,0,0-9.359,4.75l.017,1.933A9,9,0,0,1,12.082,3c.1,0,.212,0,.318.006a9.105,9.105,0,0,1,8.648,8.185A8.964,8.964,0,0,1,20.787,14.294Z"/></svg>
