<?xml version="1.0" encoding="UTF-8"?>
<svg xmlns="http://www.w3.org/2000/svg" id="Layer_1" data-name="Layer 1" viewBox="0 0 24 24" width="512" height="512"><path d="M19.5,7h-.591A5.81,5.81,0,0,0,20,3.5a1.5,1.5,0,0,0-3,0c0,2.17-1.824,2.993-3.279,3.307A8.617,8.617,0,0,0,15,3,3,3,0,0,0,9,3a8.617,8.617,0,0,0,1.279,3.807C8.824,6.493,7,5.67,7,3.5a1.5,1.5,0,0,0-3,0A5.81,5.81,0,0,0,5.091,7H4.5A4.505,4.505,0,0,0,0,11.5v1a2.5,2.5,0,0,0,2,2.449v3.733A5.324,5.324,0,0,0,7.318,24h9.364A5.324,5.324,0,0,0,22,18.682V14.949A2.5,2.5,0,0,0,24,12.5v-1A4.505,4.505,0,0,0,19.5,7ZM21,11.5V12H13.5V10h6A1.5,1.5,0,0,1,21,11.5Zm-18,0A1.5,1.5,0,0,1,4.5,10h6v2H3Zm2,7.182V15h5.5v6H7.318A2.321,2.321,0,0,1,5,18.682ZM16.682,21H13.5V15H19v3.682A2.321,2.321,0,0,1,16.682,21Z"/></svg>
