<?xml version="1.0" encoding="UTF-8"?>
<svg xmlns="http://www.w3.org/2000/svg" id="Layer_1" data-name="Layer 1" viewBox="0 0 24 24" width="512" height="512"><path d="M22.319,15.465c-4.629-4.629-16.009-4.629-20.638,0a5.629,5.629,0,0,0-1.681,4V24H9V20.536A8.565,8.565,0,0,1,11.992,20,8.888,8.888,0,0,1,15,20.551V24h9V19.467A5.63,5.63,0,0,0,22.319,15.465ZM21,21H18V18.538l-.911-.39A12.668,12.668,0,0,0,12.007,17a12.161,12.161,0,0,0-5.12,1.159l-.887.4V21H3V19.465a2.648,2.648,0,0,1,.8-1.879c3.163-3.163,12.674-3.722,16.4,0a2.649,2.649,0,0,1,.8,1.88ZM5.5,4.5,3,7V1A1,1,0,0,1,4,0h6L7.627,2.373,12.5,6.892,19.189.2l2.122,2.121L14.427,9.2A2.7,2.7,0,0,1,12.5,10h0a2.7,2.7,0,0,1-1.927-.8Z"/></svg>
