<?xml version="1.0" encoding="UTF-8"?>
<svg xmlns="http://www.w3.org/2000/svg" id="Layer_1" data-name="Layer 1" viewBox="0 0 24 24" width="512" height="512"><path d="M8,10.073a4,4,0,0,1,8,0V12h6V9H18.909a6.942,6.942,0,0,0-1.031-2.714L20.162,4,18.041,1.881,15.75,4.172a6.975,6.975,0,0,0-2.25-.933V0h-3V3.239a6.943,6.943,0,0,0-2.25.933L5.958,1.881,3.837,4,6.122,6.286A6.942,6.942,0,0,0,5.091,9H2v3H8Z"/><path d="M22.592,14H19.408a1.5,1.5,0,0,1-2.816,0H13.408a1.5,1.5,0,0,1-2.816,0H7.408a1.5,1.5,0,0,1-2.816,0H1.408A1.5,1.5,0,0,1,0,15v3a4.468,4.468,0,0,0,3-1.17,4.484,4.484,0,0,0,6,0,4.484,4.484,0,0,0,6,0,4.484,4.484,0,0,0,6,0A4.468,4.468,0,0,0,24,18V15A1.5,1.5,0,0,1,22.592,14Z"/><path d="M22.592,20H19.408a1.5,1.5,0,0,1-2.816,0H13.408a1.5,1.5,0,0,1-2.816,0H7.408a1.5,1.5,0,0,1-2.816,0H1.408A1.5,1.5,0,0,1,0,21v3a4.468,4.468,0,0,0,3-1.17,4.484,4.484,0,0,0,6,0,4.484,4.484,0,0,0,6,0,4.484,4.484,0,0,0,6,0A4.468,4.468,0,0,0,24,24V21A1.5,1.5,0,0,1,22.592,20Z"/></svg>
