<?xml version="1.0" encoding="UTF-8"?>
<!-- Generator: Adobe Illustrator 26.0.1, SVG Export Plug-In . SVG Version: 6.00 Build 0)  -->
<svg xmlns="http://www.w3.org/2000/svg" xmlns:xlink="http://www.w3.org/1999/xlink" version="1.1" id="Capa_1" x="0px" y="0px" viewBox="0 0 24 24" style="enable-background:new 0 0 24 24;" xml:space="preserve" width="512" height="512">
<g id="Layer_2_00000168083143428496127570000001031425787601960844_">
	<g id="Surfaces_00000112634749408321309710000006199205330657721272_">
		<g id="Publishing_Surface_00000165219578112773553310000015908480525951741609_">
			<g id="Outline_no_shadow_00000135684472128657691430000010454027607684546967_">
				<path d="M19.751,0.428H4.249C1.902,0.428,0,2.331,0,4.677v14.646c0,2.346,1.902,4.249,4.249,4.249h15.502      c2.347,0,4.249-1.903,4.249-4.249V4.677C24,2.331,22.098,0.428,19.751,0.428z M9.786,6.562V16.5      c0,0.106-0.048,0.159-0.143,0.159l-1.785,0.029c-0.085,0-0.127-0.053-0.127-0.159V6.592c0-0.084,0.047-0.127,0.143-0.127      l1.785-0.03C9.72,6.427,9.777,6.47,9.786,6.531C9.787,6.541,9.787,6.552,9.786,6.562z M17.145,16.493      c0.002,0.059-0.028,0.114-0.08,0.143c-0.234,0.102-0.482,0.166-0.736,0.191c-0.317,0.032-0.624,0.047-0.92,0.047      c-0.6,0.01-1.197-0.092-1.76-0.301c-0.979-0.363-1.775-1.19-2.149-2.157c-0.464-1.2-0.389-2.619,0.262-3.734      c0.788-1.349,2.397-2.041,3.917-2.006c0.313-0.006,0.626,0.013,0.936,0.056c0.148,0.026,0.294,0.066,0.435,0.119      c0.057,0.039,0.087,0.106,0.08,0.174l-0.016,1.672c0,0.095-0.043,0.132-0.127,0.111c-0.139-0.064-0.285-0.11-0.435-0.135      c-0.263-0.04-0.528-0.059-0.793-0.056c-0.401-0.018-0.801,0.05-1.173,0.199c-0.34,0.151-0.627,0.399-0.825,0.714      c-0.213,0.365-0.318,0.783-0.301,1.205c-0.026,0.461,0.1,0.917,0.357,1.301c0.227,0.309,0.542,0.544,0.904,0.674      c0.353,0.13,0.726,0.197,1.102,0.198c0.254,0.001,0.508-0.012,0.761-0.04c0.149-0.014,0.295-0.049,0.435-0.103      c0.085-0.021,0.127,0.011,0.127,0.095V16.493z"/>
			</g>
		</g>
	</g>
</g>















</svg>
