<?xml version="1.0" encoding="UTF-8"?>
<svg xmlns="http://www.w3.org/2000/svg" id="Layer_1" data-name="Layer 1" viewBox="0 0 24 24" width="512" height="512"><path d="M12,24C5.619,24,1,15.945,1,10.515A10.778,10.778,0,0,1,12,0,10.778,10.778,0,0,1,23,10.515C23,15.945,18.381,24,12,24ZM12,3a7.778,7.778,0,0,0-8,7.515C4,14.656,7.584,21,12,21s8-6.344,8-10.485A7.778,7.778,0,0,0,12,3Zm4.5,6A2.292,2.292,0,0,0,14,11a2.292,2.292,0,0,0,2.5,2A2.292,2.292,0,0,0,19,11,2.292,2.292,0,0,0,16.5,9Zm-9,0A2.292,2.292,0,0,0,5,11a2.292,2.292,0,0,0,2.5,2A2.292,2.292,0,0,0,10,11,2.292,2.292,0,0,0,7.5,9ZM12,13a1.5,1.5,0,1,0,1.5,1.5A1.5,1.5,0,0,0,12,13Zm0,4a1.5,1.5,0,1,0,1.5,1.5A1.5,1.5,0,0,0,12,17ZM12,5a1.5,1.5,0,1,0,1.5,1.5A1.5,1.5,0,0,0,12,5Z"/></svg>
