<?xml version="1.0" encoding="UTF-8"?>
<!-- Generator: Adobe Illustrator 26.0.1, SVG Export Plug-In . SVG Version: 6.00 Build 0)  -->
<svg xmlns="http://www.w3.org/2000/svg" xmlns:xlink="http://www.w3.org/1999/xlink" version="1.1" id="Capa_1" x="0px" y="0px" viewBox="0 0 24 24" style="enable-background:new 0 0 24 24;" xml:space="preserve" width="512" height="512">
<g>
	<g id="Surfaces_00000155117454710786193780000015692872716734976653_">
		<g id="Photo_Surface_4_">
			<g id="Outline_no_shadow_00000047778151802872438500000014307046415756546726_">
				<path d="M8.83,11.8c-0.08,0-0.17,0-0.27-0.01V9.41c0.05,0,0.15-0.01,0.29-0.01c0.14-0.01,0.3-0.01,0.48-0.01      c0.484,0,1.044,0.112,1.33,0.54c0.12,0.19,0.18,0.41,0.17,0.63c0,0.31-0.07,0.56-0.22,0.73c-0.345,0.39-0.9,0.51-1.4,0.51H8.83z      "/>
				<path d="M19.75,0.3H4.25C1.9,0.3,0,2.2,0,4.55v14.9c0,2.35,1.9,4.25,4.25,4.25h15.5c2.35,0,4.25-1.9,4.25-4.25V4.55      C24,2.2,22.1,0.3,19.75,0.3z M16.85,9.99c0.03,0.01,0.06,0.03,0.07,0.06c0.01,0.03,0.01,0.06,0.01,0.09v1.15      c0,0.03-0.01,0.05-0.03,0.07c-0.05,0.01-0.08,0.01-0.11,0c-0.21-0.11-0.44-0.19-0.68-0.24c-0.26-0.06-0.53-0.09-0.79-0.09      c-0.14,0-0.29,0.01-0.43,0.05c-0.09,0.02-0.17,0.07-0.22,0.14c-0.04,0.06-0.06,0.13-0.06,0.19c0,0.07,0.03,0.13,0.07,0.18      c0.07,0.08,0.15,0.14,0.24,0.19c0.16,0.09,0.33,0.17,0.5,0.23c0.38,0.13,0.75,0.3,1.09,0.52c0.23,0.15,0.42,0.35,0.56,0.59      c0.11,0.23,0.17,0.48,0.17,0.73c0.01,0.33-0.09,0.66-0.27,0.94c-0.2,0.28-0.47,0.5-0.79,0.63c-0.41,0.16-0.84,0.24-1.28,0.23      c-0.32,0-0.65-0.03-0.96-0.09c-0.25-0.05-0.49-0.12-0.72-0.23c-0.05-0.03-0.08-0.08-0.08-0.14v-1.23c0-0.02,0.01-0.05,0.03-0.06      c0.02-0.01,0.05-0.01,0.06,0.01c0.27,0.16,0.57,0.28,0.88,0.35c0.27,0.07,0.55,0.1,0.83,0.11c0.2,0.01,0.4-0.02,0.59-0.1      c0.12-0.05,0.19-0.17,0.19-0.3c-0.01-0.12-0.07-0.22-0.17-0.29c-0.22-0.14-0.45-0.25-0.7-0.33c-0.36-0.12-0.7-0.3-1.01-0.51      c-0.22-0.16-0.41-0.36-0.54-0.6c-0.11-0.22-0.17-0.47-0.17-0.72c0-0.3,0.08-0.6,0.24-0.86c0.18-0.28,0.44-0.51,0.74-0.65      c0.39-0.18,0.82-0.27,1.25-0.25c0.29,0,0.59,0.02,0.88,0.06C16.45,9.85,16.66,9.9,16.85,9.99z M12.02,20.72      c-4.82,0-8.72-3.9-8.72-8.72s3.9-8.72,8.72-8.72c0.685,0,1.362,0.08,2.021,0.238C14.7,3.675,15.34,3.91,15.95,4.22      c0.1,0.05,0.14,0.17,0.09,0.27c-0.05,0.1-0.17,0.14-0.27,0.09c-1.142-0.581-2.41-0.89-3.69-0.89h-0.06      C7.43,3.68,3.7,7.41,3.7,12s3.72,8.32,8.32,8.32c4.6,0,8.32-3.72,8.32-8.32c0-0.655-0.077-1.305-0.229-1.938      C19.96,9.43,19.735,8.815,19.44,8.23c-0.05-0.1-0.01-0.22,0.09-0.27c0.1-0.05,0.22-0.01,0.27,0.09      c0.62,1.22,0.95,2.58,0.95,3.95C20.74,16.81,16.84,20.71,12.02,20.72z M8.48,15.5H7.1c-0.06,0-0.08-0.03-0.08-0.09V8.13      c0-0.05,0.02-0.08,0.07-0.08c0.12,0,0.23,0,0.4-0.01c0.17,0,0.35-0.01,0.54-0.01c0.19,0,0.4-0.01,0.62-0.01      c0.22,0,0.43-0.01,0.64-0.01c0.5-0.01,0.99,0.06,1.46,0.22c0.36,0.12,0.68,0.32,0.95,0.58c0.23,0.23,0.41,0.5,0.52,0.8      c0.11,0.29,0.16,0.6,0.16,0.92c0,0.61-0.14,1.11-0.42,1.51c-0.28,0.4-0.68,0.7-1.14,0.86c-0.51,0.17-1.05,0.26-1.6,0.24      c-0.17,0-0.29,0-0.35-0.01c-0.07,0-0.17-0.01-0.31-0.01v2.28C8.57,15.45,8.53,15.5,8.48,15.5z"/>
			</g>
		</g>
	</g>
</g>















</svg>
