<?xml version="1.0" encoding="UTF-8"?>
<!-- Generator: Adobe Illustrator 26.0.1, SVG Export Plug-In . SVG Version: 6.00 Build 0)  -->
<svg xmlns="http://www.w3.org/2000/svg" xmlns:xlink="http://www.w3.org/1999/xlink" version="1.1" id="Capa_1" x="0px" y="0px" viewBox="0 0 24 24" style="enable-background:new 0 0 24 24;" xml:space="preserve" width="512" height="512">
<g>
	<path d="M20.987,24h-0.291v-1.739h-0.641v-0.228h1.574v0.228h-0.641V24z"/>
	<path d="M22.94,23.544l0.612-1.511h0.437V24h-0.291v-1.654L23.027,24h-0.175l-0.67-1.654V24H21.89v-1.967h0.437L22.94,23.544z"/>
	<path d="M13.001,5.022c-0.045-0.034-1.221-0.93-1.221-0.93s-1.176,0.897-1.221,0.93c-0.045,0.034-0.022,0.09,0.034,0.078   c0.101-0.022,0.605-0.101,1.187-0.101c0.583,0,1.087,0.079,1.187,0.101C13.024,5.111,13.046,5.055,13.001,5.022z M12.621,10.94   c0,0-0.325,0.078-0.851,0.078c-0.526,0-0.851-0.078-0.851-0.078s-0.067,0.022-0.078,0.078c0.246,0.191,0.414,0.628,0.93,0.628   c0.515,0,0.683-0.437,0.929-0.628C12.688,10.963,12.621,10.94,12.621,10.94z M12.072,10.155c-0.123,0-0.157,0.056-0.292,0.056   c-0.145,0-0.179-0.056-0.269-0.056c-0.09,0-0.269,0.079-0.314,0.146c0,0.034,0.011,0.068,0.045,0.09   c0.213,0.034,0.302,0.146,0.548,0.146c0.247,0,0.336-0.112,0.549-0.146c0.022-0.022,0.034-0.056,0.045-0.09   C12.352,10.234,12.162,10.155,12.072,10.155z M12.072,10.155c-0.123,0-0.157,0.056-0.292,0.056c-0.145,0-0.179-0.056-0.269-0.056   c-0.09,0-0.269,0.079-0.314,0.146c0,0.034,0.011,0.068,0.045,0.09c0.213,0.034,0.302,0.146,0.548,0.146   c0.247,0,0.336-0.112,0.549-0.146c0.022-0.022,0.034-0.056,0.045-0.09C12.352,10.234,12.162,10.155,12.072,10.155z M12.621,10.94   c0,0-0.325,0.078-0.851,0.078c-0.526,0-0.851-0.078-0.851-0.078s-0.067,0.022-0.078,0.078c0.246,0.191,0.414,0.628,0.93,0.628   c0.515,0,0.683-0.437,0.929-0.628C12.688,10.963,12.621,10.94,12.621,10.94z M13.001,5.022c-0.045-0.034-1.221-0.93-1.221-0.93   s-1.176,0.897-1.221,0.93c-0.045,0.034-0.022,0.09,0.034,0.078c0.101-0.022,0.605-0.101,1.187-0.101   c0.583,0,1.087,0.079,1.187,0.101C13.024,5.111,13.046,5.055,13.001,5.022z M13.001,5.022c-0.045-0.034-1.221-0.93-1.221-0.93   s-1.176,0.897-1.221,0.93c-0.045,0.034-0.022,0.09,0.034,0.078c0.101-0.022,0.605-0.101,1.187-0.101   c0.583,0,1.087,0.079,1.187,0.101C13.024,5.111,13.046,5.055,13.001,5.022z M12.621,10.94c0,0-0.325,0.078-0.851,0.078   c-0.526,0-0.851-0.078-0.851-0.078s-0.067,0.022-0.078,0.078c0.246,0.191,0.414,0.628,0.93,0.628c0.515,0,0.683-0.437,0.929-0.628   C12.688,10.963,12.621,10.94,12.621,10.94z M12.072,10.155c-0.123,0-0.157,0.056-0.292,0.056c-0.145,0-0.179-0.056-0.269-0.056   c-0.09,0-0.269,0.079-0.314,0.146c0,0.034,0.011,0.068,0.045,0.09c0.213,0.034,0.302,0.146,0.548,0.146   c0.247,0,0.336-0.112,0.549-0.146c0.022-0.022,0.034-0.056,0.045-0.09C12.352,10.234,12.162,10.155,12.072,10.155z M12.072,10.155   c-0.123,0-0.157,0.056-0.292,0.056c-0.145,0-0.179-0.056-0.269-0.056c-0.09,0-0.269,0.079-0.314,0.146   c0,0.034,0.011,0.068,0.045,0.09c0.213,0.034,0.302,0.146,0.548,0.146c0.247,0,0.336-0.112,0.549-0.146   c0.022-0.022,0.034-0.056,0.045-0.09C12.352,10.234,12.162,10.155,12.072,10.155z M12.621,10.94c0,0-0.325,0.078-0.851,0.078   c-0.526,0-0.851-0.078-0.851-0.078s-0.067,0.022-0.078,0.078c0.246,0.191,0.414,0.628,0.93,0.628c0.515,0,0.683-0.437,0.929-0.628   C12.688,10.963,12.621,10.94,12.621,10.94z M13.001,5.022c-0.045-0.034-1.221-0.93-1.221-0.93s-1.176,0.897-1.221,0.93   c-0.045,0.034-0.022,0.09,0.034,0.078c0.101-0.022,0.605-0.101,1.187-0.101c0.583,0,1.087,0.079,1.187,0.101   C13.024,5.111,13.046,5.055,13.001,5.022z M13.001,5.022c-0.045-0.034-1.221-0.93-1.221-0.93s-1.176,0.897-1.221,0.93   c-0.045,0.034-0.022,0.09,0.034,0.078c0.101-0.022,0.605-0.101,1.187-0.101c0.583,0,1.087,0.079,1.187,0.101   C13.024,5.111,13.046,5.055,13.001,5.022z M12.621,10.94c0,0-0.325,0.078-0.851,0.078c-0.526,0-0.851-0.078-0.851-0.078   s-0.067,0.022-0.078,0.078c0.246,0.191,0.414,0.628,0.93,0.628c0.515,0,0.683-0.437,0.929-0.628   C12.688,10.963,12.621,10.94,12.621,10.94z M12.072,10.155c-0.123,0-0.157,0.056-0.292,0.056c-0.145,0-0.179-0.056-0.269-0.056   c-0.09,0-0.269,0.079-0.314,0.146c0,0.034,0.011,0.068,0.045,0.09c0.213,0.034,0.302,0.146,0.548,0.146   c0.247,0,0.336-0.112,0.549-0.146c0.022-0.022,0.034-0.056,0.045-0.09C12.352,10.234,12.162,10.155,12.072,10.155z M12.072,10.155   c-0.123,0-0.157,0.056-0.292,0.056c-0.145,0-0.179-0.056-0.269-0.056c-0.09,0-0.269,0.079-0.314,0.146   c0,0.034,0.011,0.068,0.045,0.09c0.213,0.034,0.302,0.146,0.548,0.146c0.247,0,0.336-0.112,0.549-0.146   c0.022-0.022,0.034-0.056,0.045-0.09C12.352,10.234,12.162,10.155,12.072,10.155z M12.621,10.94c0,0-0.325,0.078-0.851,0.078   c-0.526,0-0.851-0.078-0.851-0.078s-0.067,0.022-0.078,0.078c0.246,0.191,0.414,0.628,0.93,0.628c0.515,0,0.683-0.437,0.929-0.628   C12.688,10.963,12.621,10.94,12.621,10.94z M13.001,5.022c-0.045-0.034-1.221-0.93-1.221-0.93s-1.176,0.897-1.221,0.93   c-0.045,0.034-0.022,0.09,0.034,0.078c0.101-0.022,0.605-0.101,1.187-0.101c0.583,0,1.087,0.079,1.187,0.101   C13.024,5.111,13.046,5.055,13.001,5.022z M13.001,5.022c-0.045-0.034-1.221-0.93-1.221-0.93s-1.176,0.897-1.221,0.93   c-0.045,0.034-0.022,0.09,0.034,0.078c0.101-0.022,0.605-0.101,1.187-0.101c0.583,0,1.087,0.079,1.187,0.101   C13.024,5.111,13.046,5.055,13.001,5.022z M12.621,10.94c0,0-0.325,0.078-0.851,0.078c-0.526,0-0.851-0.078-0.851-0.078   s-0.067,0.022-0.078,0.078c0.246,0.191,0.414,0.628,0.93,0.628c0.515,0,0.683-0.437,0.929-0.628   C12.688,10.963,12.621,10.94,12.621,10.94z M12.072,10.155c-0.123,0-0.157,0.056-0.292,0.056c-0.145,0-0.179-0.056-0.269-0.056   c-0.09,0-0.269,0.079-0.314,0.146c0,0.034,0.011,0.068,0.045,0.09c0.213,0.034,0.302,0.146,0.548,0.146   c0.247,0,0.336-0.112,0.549-0.146c0.022-0.022,0.034-0.056,0.045-0.09C12.352,10.234,12.162,10.155,12.072,10.155z M12.072,10.155   c-0.123,0-0.157,0.056-0.292,0.056c-0.145,0-0.179-0.056-0.269-0.056c-0.09,0-0.269,0.079-0.314,0.146   c0,0.034,0.011,0.068,0.045,0.09c0.213,0.034,0.302,0.146,0.548,0.146c0.247,0,0.336-0.112,0.549-0.146   c0.022-0.022,0.034-0.056,0.045-0.09C12.352,10.234,12.162,10.155,12.072,10.155z M12.621,10.94c0,0-0.325,0.078-0.851,0.078   c-0.526,0-0.851-0.078-0.851-0.078s-0.067,0.022-0.078,0.078c0.246,0.191,0.414,0.628,0.93,0.628c0.515,0,0.683-0.437,0.929-0.628   C12.688,10.963,12.621,10.94,12.621,10.94z M13.001,5.022c-0.045-0.034-1.221-0.93-1.221-0.93s-1.176,0.897-1.221,0.93   c-0.045,0.034-0.022,0.09,0.034,0.078c0.101-0.022,0.605-0.101,1.187-0.101c0.583,0,1.087,0.079,1.187,0.101   C13.024,5.111,13.046,5.055,13.001,5.022z M13.001,5.022c-0.045-0.034-1.221-0.93-1.221-0.93s-1.176,0.897-1.221,0.93   c-0.045,0.034-0.022,0.09,0.034,0.078c0.101-0.022,0.605-0.101,1.187-0.101c0.583,0,1.087,0.079,1.187,0.101   C13.024,5.111,13.046,5.055,13.001,5.022z M12.621,10.94c0,0-0.325,0.078-0.851,0.078c-0.526,0-0.851-0.078-0.851-0.078   s-0.067,0.022-0.078,0.078c0.246,0.191,0.414,0.628,0.93,0.628c0.515,0,0.683-0.437,0.929-0.628   C12.688,10.963,12.621,10.94,12.621,10.94z M11.243,10.391c0.213,0.034,0.302,0.146,0.548,0.146c0.247,0,0.336-0.112,0.549-0.146   c0.022-0.022,0.034-0.056,0.045-0.09c-0.033-0.067-0.224-0.146-0.313-0.146c-0.123,0-0.157,0.056-0.292,0.056   c-0.145,0-0.179-0.056-0.269-0.056c-0.09,0-0.269,0.079-0.314,0.146C11.198,10.335,11.21,10.369,11.243,10.391z M20.001,11.501   c-0.135-0.337-0.28-0.661-0.459-0.975c1.77-0.314,2.374,1.166,4.02,0.942C23.385,5.2,18.338,0.16,12.081,0.004   c-0.05-0.001-0.101-0.002-0.151-0.003C11.88,0,11.831,0,11.781,0c-0.045,0-0.09,0-0.136,0.001c-0.051,0-0.102,0.001-0.152,0.003   c-4.209,0.1-7.87,2.404-9.869,5.804c-0.041,0.068-0.081,0.137-0.12,0.207C1.486,6.046,1.469,6.077,1.452,6.109   c-0.877,1.596-1.393,3.419-1.441,5.358c1.646,0.224,2.251-1.255,4.02-0.942c-0.168,0.314-0.324,0.639-0.459,0.975   c-1.422-0.157-2.004,1.121-3.55,0.941c0.022,0.28,0.045,0.561,0.078,0.841c1.333,0.224,1.814-0.964,3.18-0.908   c-0.09,0.292-0.146,0.583-0.202,0.885c-1.131,0-1.579,1.054-2.833,0.897c0.067,0.325,0.145,0.639,0.235,0.953   c0.986,0.101,1.344-0.886,2.486-0.863c-0.011,0.157-0.011,0.325-0.011,0.494v0.28c-0.974-0.011-1.299,0.897-2.228,0.852   c0.123,0.314,0.247,0.628,0.392,0.93c0.661-0.034,0.896-0.897,1.915-0.83c0.022,0.213,0.067,0.437,0.112,0.65   c-0.885-0.067-1.075,0.751-1.713,0.818c0.157,0.291,0.325,0.583,0.515,0.863c0.369-0.202,0.694-0.818,1.411-0.852   c-0.067-0.224-0.135-0.448-0.19-0.683c0.627,0,1.355-0.247,1.96-0.796c-0.202-1.121,1.534-2.264,1.534-3.082   c0-0.885-0.448-1.379-0.448-2.578c0-0.897,0.437-1.861,1.086-2.522c0.123-0.124,0.258-0.236,0.403-0.325   C7.1,8.205,6.641,9.079,6.641,10.1c0,1.132,0.526,1.726,0.526,2.768c0,1.054-1.523,1.95-1.523,3.027   c0,0.426,0.134,0.84,0.582,1.648c-0.683,0.683-1.579,1.054-2.15,1.054c-0.19,0-0.291-0.056-0.358-0.202   c-0.067-0.123-0.112-0.247-0.168-0.381c-0.614,0.034-0.894,0.59-1.24,0.816c-0.001,0.001-0.002,0.001-0.003,0.002   c0.176,0.228,0.352,0.455,0.546,0.674c0.016,0.018,0.032,0.036,0.048,0.054c0.235-0.258,0.548-0.684,0.997-0.807   c0.078,0.168,0.168,0.314,0.257,0.471c-0.392,0.112-0.66,0.504-0.862,0.762c0.224,0.224,0.459,0.448,0.694,0.661   c0.157-0.236,0.392-0.538,0.65-0.695c0.101,0.123,0.202,0.258,0.302,0.381c-0.224,0.157-0.426,0.426-0.549,0.65   c0.28,0.224,0.56,0.437,0.862,0.639c0.145-1.2,1.78-2.017,1.343-3.408c0.146,0.247,0.314,0.549,0.314,0.919   c0,1.009-1.064,1.805-1.153,2.803c0.224,0.135,0.448,0.258,0.683,0.381c0.045-1.099,1.176-2.298,1.176-3.206   c0-1.009-1.321-2.018-1.321-3.206c0-1.188,1.523-2.018,1.523-3.06c0-1.043-0.649-1.648-0.649-2.982c0-0.975,0.459-1.973,1.164-2.6   c0.123-0.112,0.258-0.202,0.403-0.28C8.052,7.791,7.66,8.53,7.66,9.651c0,1.255,0.739,1.95,0.739,3.183   c0,1.222-1.49,1.917-1.49,3.06c0,1.143,1.389,2.118,1.389,3.295c0,1.076-1.221,2.141-1.243,3.419   c0.269,0.123,0.538,0.225,0.817,0.325c-0.157-1.289,1.221-2.612,1.221-3.666c0-1.155-1.445-2.141-1.445-3.374   c0-1.233,1.467-1.816,1.467-3.083c0-1.267-0.896-1.972-0.896-3.374c0-1.099,0.549-2.085,1.333-2.69   c0.011-0.011,0.034-0.022,0.045-0.034c0.067-0.056,0.135,0.011,0.078,0.078C9.127,7.488,8.824,8.194,8.824,9.236   c0,1.289,1.03,2.332,1.03,3.576c0,1.469-1.388,1.895-1.388,3.094c0,1.2,1.489,2.164,1.489,3.442c0,1.188-1.411,2.499-1.164,3.867   c0.291,0.078,0.571,0.135,0.862,0.19c-0.257-1.704,1.12-2.937,1.12-4.046c0-1.211-1.534-2.287-1.534-3.464   c0-1.11,1.109-1.469,1.254-2.612c0.022-0.157,0.146-0.28,0.314-0.247c0.224,0.045,0.515,0.19,0.963,0.19   c0.448,0,0.739-0.146,0.963-0.19c0.168-0.022,0.291,0.09,0.314,0.247c0.146,1.132,1.254,1.502,1.254,2.612   c0,1.177-1.534,2.253-1.534,3.464c0,1.121,1.388,2.342,1.12,4.046c0.291-0.056,0.582-0.112,0.862-0.19   c0.247-1.368-1.164-2.679-1.164-3.867c0-1.278,1.489-2.242,1.489-3.442c0-1.21-1.388-1.625-1.388-3.094   c0-1.244,1.03-2.287,1.03-3.576c0-1.043-0.291-1.748-0.851-2.444c-0.056-0.067,0-0.135,0.078-0.078   c0.011,0.011,0.034,0.022,0.045,0.034c0.795,0.616,1.333,1.591,1.333,2.69c0,1.401-0.896,2.107-0.896,3.374   c0,1.267,1.467,1.85,1.467,3.083c0,1.244-1.445,2.23-1.445,3.374c0,1.054,1.378,2.377,1.221,3.666   c0.28-0.101,0.549-0.213,0.817-0.325c-0.022-1.278-1.243-2.342-1.243-3.419c0-1.177,1.388-2.152,1.388-3.295   c0-1.144-1.49-1.827-1.49-3.06c0-1.222,0.739-1.928,0.739-3.183c0-1.121-0.392-1.85-1.075-2.668c0.157,0.078,0.28,0.168,0.403,0.28   c0.728,0.628,1.187,1.625,1.187,2.6c0,1.334-0.649,1.939-0.649,2.982c0,1.042,1.523,1.872,1.523,3.06   c0,1.188-1.321,2.197-1.321,3.206c0,0.908,1.142,2.107,1.176,3.206c0.235-0.123,0.459-0.247,0.683-0.381   c-0.078-0.998-1.153-1.793-1.153-2.803c0-0.37,0.168-0.672,0.314-0.919c-0.437,1.39,1.198,2.208,1.343,3.408   c0.291-0.202,0.583-0.415,0.862-0.639c-0.123-0.224-0.325-0.493-0.549-0.65c0.101-0.123,0.202-0.247,0.302-0.381   c0.269,0.168,0.504,0.459,0.65,0.695c0.235-0.213,0.47-0.426,0.694-0.661c-0.202-0.258-0.47-0.661-0.862-0.762   c0.09-0.157,0.179-0.314,0.257-0.471c0.459,0.123,0.762,0.549,0.997,0.807c0.213-0.235,0.403-0.471,0.594-0.728   c-0.336-0.235-0.627-0.796-1.243-0.818c-0.056,0.123-0.112,0.258-0.168,0.381c-0.067,0.146-0.168,0.202-0.358,0.202   c-0.571,0-1.467-0.37-2.15-1.054c0.448-0.807,0.582-1.222,0.582-1.648c0-1.076-1.523-1.984-1.523-3.027   c0-1.043,0.526-1.636,0.526-2.768c0-1.009-0.47-1.895-1.064-2.634c0.146,0.09,0.28,0.202,0.403,0.325   c0.65,0.661,1.087,1.625,1.087,2.522c0,1.2-0.448,1.693-0.448,2.578c0,0.818,1.736,1.962,1.545,3.082   c0.605,0.549,1.333,0.796,1.96,0.796c-0.056,0.235-0.112,0.459-0.19,0.683c0.705,0.045,1.03,0.65,1.411,0.852   c0.179-0.28,0.358-0.572,0.515-0.863c-0.638-0.067-0.829-0.886-1.713-0.818c0.045-0.213,0.078-0.426,0.112-0.65   c1.02-0.067,1.243,0.796,1.915,0.83c0.145-0.303,0.28-0.617,0.392-0.93c-0.93,0.045-1.254-0.863-2.228-0.852v-0.28   c0-0.168,0-0.325-0.011-0.494c1.142-0.022,1.489,0.964,2.486,0.863c0.09-0.314,0.168-0.628,0.235-0.953   c-1.254,0.157-1.702-0.897-2.833-0.897c-0.056-0.303-0.123-0.594-0.202-0.885c1.366-0.056,1.848,1.132,3.18,0.908   c0.033-0.28,0.067-0.561,0.078-0.841C21.994,12.622,21.412,11.344,20.001,11.501z M4.424,9.819c-1.691-0.583-2.8,1.098-4.11,0.706   c1.266-1.356,2.295-2.88,2.161-4.652c0-0.101,0.09-0.168,0.179-0.101c0.65,0.449,1.109,1.188,1.243,2.029   C4.793,7.23,5.846,7.14,6.708,7.499C5.812,8.127,5.04,8.911,4.424,9.819z M14.043,7.858c0.023,0.056-0.011,0.101-0.078,0.067   c-0.19-0.09-0.414-0.134-0.66-0.134c-0.448,0-0.84,0.168-1.075,0.448c-0.146,0.471-0.135,0.998,0.034,1.412   c0.257-0.022,0.235-0.482,0.448-0.482c0.18,0,0.269,0.123,0.571,0.123c0.28,0,0.392-0.079,0.515-0.168   c0.246,0.034,0.302,0.269,0.302,0.538c0,1.222-1.12,2.903-2.307,2.903c-1.198,0-2.318-1.681-2.318-2.903   c0-0.269,0.045-0.516,0.28-0.516c0.202,0,0.235,0.146,0.538,0.146c0.314,0,0.448-0.123,0.627-0.123   c0.179,0,0.247,0.135,0.426,0.179c0.112-0.28,0.101-0.773,0-1.11c-0.235-0.28-0.627-0.448-1.075-0.448   c-0.235,0-0.459,0.045-0.66,0.134C9.541,7.958,9.508,7.914,9.53,7.858c0.235-0.807,1.153-1.424,2.25-1.424   C12.867,6.434,13.785,7.05,14.043,7.858z M14.01,8.44c0,0.101-0.034,0.191-0.146,0.292c-0.202-0.224-0.627-0.224-1.097-0.056   c-0.034-0.056-0.034-0.146-0.011-0.202c0.19-0.213,0.504-0.292,0.761-0.292C13.841,8.183,14.01,8.295,14.01,8.44z M9.563,8.452   c0-0.157,0.157-0.269,0.481-0.269c0.448,0,0.896,0.28,0.874,0.527c-0.504-0.19-0.997-0.202-1.221,0.034   C9.586,8.642,9.552,8.553,9.563,8.452z M15.936,6.748c-0.045,0.078-0.123,0.112-0.213,0.067c-1.187-0.583-2.52-0.919-3.931-0.919   c-1.411,0-2.744,0.337-3.93,0.919C7.772,6.86,7.682,6.838,7.649,6.748C7.301,5.986,6.842,5.28,6.327,4.607   C7.189,4.663,7.94,4.965,8.544,5.459C8.287,4.719,7.962,4.08,7.548,3.464c1.097,0.123,2.016,0.527,2.688,1.211l0.526-1.379   L9.597,2.264l1.557-0.112l0.627-1.457l0.627,1.457l1.557,0.112L12.8,3.295l0.526,1.379c0.672-0.695,1.59-1.099,2.688-1.211   C15.6,4.091,15.275,4.73,15.017,5.459c0.605-0.494,1.355-0.796,2.217-0.852C16.719,5.28,16.26,5.986,15.936,6.748z M16.854,7.499   c0.862-0.359,1.915-0.28,2.811,0.302c0.146-0.84,0.593-1.58,1.243-2.029c0.078-0.067,0.179,0,0.168,0.101   c-0.134,1.771,0.896,3.307,2.161,4.652c-1.31,0.392-2.43-1.289-4.121-0.706C18.511,8.911,17.738,8.127,16.854,7.499z M13.001,5.022   c-0.045-0.034-1.221-0.93-1.221-0.93s-1.176,0.897-1.221,0.93c-0.045,0.034-0.022,0.09,0.034,0.078   c0.101-0.022,0.605-0.101,1.187-0.101c0.583,0,1.087,0.079,1.187,0.101C13.024,5.111,13.046,5.055,13.001,5.022z M10.919,10.94   c0,0-0.067,0.022-0.078,0.078c0.246,0.191,0.414,0.628,0.93,0.628c0.515,0,0.683-0.437,0.929-0.628   c-0.011-0.056-0.078-0.078-0.078-0.078s-0.325,0.078-0.851,0.078C11.243,11.018,10.919,10.94,10.919,10.94z M11.781,10.212   c-0.145,0-0.179-0.056-0.269-0.056c-0.09,0-0.269,0.079-0.314,0.146c0,0.034,0.011,0.068,0.045,0.09   c0.213,0.034,0.302,0.146,0.548,0.146c0.247,0,0.336-0.112,0.549-0.146c0.022-0.022,0.034-0.056,0.045-0.09   c-0.033-0.067-0.224-0.146-0.313-0.146C11.949,10.155,11.915,10.212,11.781,10.212z M12.072,10.155   c-0.123,0-0.157,0.056-0.292,0.056c-0.145,0-0.179-0.056-0.269-0.056c-0.09,0-0.269,0.079-0.314,0.146   c0,0.034,0.011,0.068,0.045,0.09c0.213,0.034,0.302,0.146,0.548,0.146c0.247,0,0.336-0.112,0.549-0.146   c0.022-0.022,0.034-0.056,0.045-0.09C12.352,10.234,12.162,10.155,12.072,10.155z M12.621,10.94c0,0-0.325,0.078-0.851,0.078   c-0.526,0-0.851-0.078-0.851-0.078s-0.067,0.022-0.078,0.078c0.246,0.191,0.414,0.628,0.93,0.628c0.515,0,0.683-0.437,0.929-0.628   C12.688,10.963,12.621,10.94,12.621,10.94z M13.001,5.022c-0.045-0.034-1.221-0.93-1.221-0.93s-1.176,0.897-1.221,0.93   c-0.045,0.034-0.022,0.09,0.034,0.078c0.101-0.022,0.605-0.101,1.187-0.101c0.583,0,1.087,0.079,1.187,0.101   C13.024,5.111,13.046,5.055,13.001,5.022z M13.001,5.022c-0.045-0.034-1.221-0.93-1.221-0.93s-1.176,0.897-1.221,0.93   c-0.045,0.034-0.022,0.09,0.034,0.078c0.101-0.022,0.605-0.101,1.187-0.101c0.583,0,1.087,0.079,1.187,0.101   C13.024,5.111,13.046,5.055,13.001,5.022z M12.621,10.94c0,0-0.325,0.078-0.851,0.078c-0.526,0-0.851-0.078-0.851-0.078   s-0.067,0.022-0.078,0.078c0.246,0.191,0.414,0.628,0.93,0.628c0.515,0,0.683-0.437,0.929-0.628   C12.688,10.963,12.621,10.94,12.621,10.94z M12.072,10.155c-0.123,0-0.157,0.056-0.292,0.056c-0.145,0-0.179-0.056-0.269-0.056   c-0.09,0-0.269,0.079-0.314,0.146c0,0.034,0.011,0.068,0.045,0.09c0.213,0.034,0.302,0.146,0.548,0.146   c0.247,0,0.336-0.112,0.549-0.146c0.022-0.022,0.034-0.056,0.045-0.09C12.352,10.234,12.162,10.155,12.072,10.155z M12.072,10.155   c-0.123,0-0.157,0.056-0.292,0.056c-0.145,0-0.179-0.056-0.269-0.056c-0.09,0-0.269,0.079-0.314,0.146   c0,0.034,0.011,0.068,0.045,0.09c0.213,0.034,0.302,0.146,0.548,0.146c0.247,0,0.336-0.112,0.549-0.146   c0.022-0.022,0.034-0.056,0.045-0.09C12.352,10.234,12.162,10.155,12.072,10.155z M12.621,10.94c0,0-0.325,0.078-0.851,0.078   c-0.526,0-0.851-0.078-0.851-0.078s-0.067,0.022-0.078,0.078c0.246,0.191,0.414,0.628,0.93,0.628c0.515,0,0.683-0.437,0.929-0.628   C12.688,10.963,12.621,10.94,12.621,10.94z M13.001,5.022c-0.045-0.034-1.221-0.93-1.221-0.93s-1.176,0.897-1.221,0.93   c-0.045,0.034-0.022,0.09,0.034,0.078c0.101-0.022,0.605-0.101,1.187-0.101c0.583,0,1.087,0.079,1.187,0.101   C13.024,5.111,13.046,5.055,13.001,5.022z M13.001,5.022c-0.045-0.034-1.221-0.93-1.221-0.93s-1.176,0.897-1.221,0.93   c-0.045,0.034-0.022,0.09,0.034,0.078c0.101-0.022,0.605-0.101,1.187-0.101c0.583,0,1.087,0.079,1.187,0.101   C13.024,5.111,13.046,5.055,13.001,5.022z M12.621,10.94c0,0-0.325,0.078-0.851,0.078c-0.526,0-0.851-0.078-0.851-0.078   s-0.067,0.022-0.078,0.078c0.246,0.191,0.414,0.628,0.93,0.628c0.515,0,0.683-0.437,0.929-0.628   C12.688,10.963,12.621,10.94,12.621,10.94z M12.072,10.155c-0.123,0-0.157,0.056-0.292,0.056c-0.145,0-0.179-0.056-0.269-0.056   c-0.09,0-0.269,0.079-0.314,0.146c0,0.034,0.011,0.068,0.045,0.09c0.213,0.034,0.302,0.146,0.548,0.146   c0.247,0,0.336-0.112,0.549-0.146c0.022-0.022,0.034-0.056,0.045-0.09C12.352,10.234,12.162,10.155,12.072,10.155z M12.072,10.155   c-0.123,0-0.157,0.056-0.292,0.056c-0.145,0-0.179-0.056-0.269-0.056c-0.09,0-0.269,0.079-0.314,0.146   c0,0.034,0.011,0.068,0.045,0.09c0.213,0.034,0.302,0.146,0.548,0.146c0.247,0,0.336-0.112,0.549-0.146   c0.022-0.022,0.034-0.056,0.045-0.09C12.352,10.234,12.162,10.155,12.072,10.155z M12.621,10.94c0,0-0.325,0.078-0.851,0.078   c-0.526,0-0.851-0.078-0.851-0.078s-0.067,0.022-0.078,0.078c0.246,0.191,0.414,0.628,0.93,0.628c0.515,0,0.683-0.437,0.929-0.628   C12.688,10.963,12.621,10.94,12.621,10.94z M13.001,5.022c-0.045-0.034-1.221-0.93-1.221-0.93s-1.176,0.897-1.221,0.93   c-0.045,0.034-0.022,0.09,0.034,0.078c0.101-0.022,0.605-0.101,1.187-0.101c0.583,0,1.087,0.079,1.187,0.101   C13.024,5.111,13.046,5.055,13.001,5.022z M13.001,5.022c-0.045-0.034-1.221-0.93-1.221-0.93s-1.176,0.897-1.221,0.93   c-0.045,0.034-0.022,0.09,0.034,0.078c0.101-0.022,0.605-0.101,1.187-0.101c0.583,0,1.087,0.079,1.187,0.101   C13.024,5.111,13.046,5.055,13.001,5.022z M12.621,10.94c0,0-0.325,0.078-0.851,0.078c-0.526,0-0.851-0.078-0.851-0.078   s-0.067,0.022-0.078,0.078c0.246,0.191,0.414,0.628,0.93,0.628c0.515,0,0.683-0.437,0.929-0.628   C12.688,10.963,12.621,10.94,12.621,10.94z M12.072,10.155c-0.123,0-0.157,0.056-0.292,0.056c-0.145,0-0.179-0.056-0.269-0.056   c-0.09,0-0.269,0.079-0.314,0.146c0,0.034,0.011,0.068,0.045,0.09c0.213,0.034,0.302,0.146,0.548,0.146   c0.247,0,0.336-0.112,0.549-0.146c0.022-0.022,0.034-0.056,0.045-0.09C12.352,10.234,12.162,10.155,12.072,10.155z M12.072,10.155   c-0.123,0-0.157,0.056-0.292,0.056c-0.145,0-0.179-0.056-0.269-0.056c-0.09,0-0.269,0.079-0.314,0.146   c0,0.034,0.011,0.068,0.045,0.09c0.213,0.034,0.302,0.146,0.548,0.146c0.247,0,0.336-0.112,0.549-0.146   c0.022-0.022,0.034-0.056,0.045-0.09C12.352,10.234,12.162,10.155,12.072,10.155z M12.621,10.94c0,0-0.325,0.078-0.851,0.078   c-0.526,0-0.851-0.078-0.851-0.078s-0.067,0.022-0.078,0.078c0.246,0.191,0.414,0.628,0.93,0.628c0.515,0,0.683-0.437,0.929-0.628   C12.688,10.963,12.621,10.94,12.621,10.94z M13.001,5.022c-0.045-0.034-1.221-0.93-1.221-0.93s-1.176,0.897-1.221,0.93   c-0.045,0.034-0.022,0.09,0.034,0.078c0.101-0.022,0.605-0.101,1.187-0.101c0.583,0,1.087,0.079,1.187,0.101   C13.024,5.111,13.046,5.055,13.001,5.022z"/>
</g>















</svg>
