<?xml version="1.0" encoding="UTF-8"?>
<svg xmlns="http://www.w3.org/2000/svg" id="Layer_1" data-name="Layer 1" viewBox="0 0 24 24" width="512" height="512"><path d="M23.2,11.215a3.4,3.4,0,0,0-2.012-1.149A28.251,28.251,0,0,0,22,4.557l.062-1.632L20.43,3a26.657,26.657,0,0,0-3.986.508A2.983,2.983,0,0,0,11.421.872c-.166.166-.421.372-.421.372s-.254-.206-.421-.372a2.968,2.968,0,0,0-4.77,3.4,5.511,5.511,0,0,0-3.747,6.02A3.38,3.38,0,0,0,.048,13.964,13.415,13.415,0,0,0,7.54,23.856l.3.144h8.31l.3-.144a13.415,13.415,0,0,0,7.492-9.892A3.373,3.373,0,0,0,23.2,11.215ZM18.057,10H13.045a2.718,2.718,0,0,1,.707-2.237c.774-.8,3.075-1.349,5.108-1.61A19.28,19.28,0,0,1,18.057,10ZM7.5,7a2.49,2.49,0,0,1,2.437,3H5.063A2.49,2.49,0,0,1,7.5,7Zm7.971,14H8.529a10.421,10.421,0,0,1-5.524-7.537.379.379,0,0,1,.089-.312A.421.421,0,0,1,3.418,13H20.582a.421.421,0,0,1,.324.151.376.376,0,0,1,.089.312A10.421,10.421,0,0,1,15.471,21Z"/></svg>
