<?xml version="1.0" encoding="UTF-8"?>
<svg xmlns="http://www.w3.org/2000/svg" id="Layer_1" data-name="Layer 1" viewBox="0 0 24 24" width="512" height="512"><path d="M23.962,2.148,21.839.029,15,6.878,10.263,2.142,0,12.405v7.1A4.505,4.505,0,0,0,4.5,24h7.1L21.858,13.737,17.12,9ZM3,19.5V16.226A6.592,6.592,0,0,0,5.942,17a8.97,8.97,0,0,0,1.122-.07A8.794,8.794,0,0,0,7,18a6.737,6.737,0,0,0,.783,3H4.5A1.5,1.5,0,0,1,3,19.5Zm7.942.911A4.409,4.409,0,0,1,10,18a3.939,3.939,0,0,1,.981-2.86l2.08-2.079-2.122-2.122L8.86,13.019A4.052,4.052,0,0,1,5.942,14a4.234,4.234,0,0,1-2.36-.935l6.681-6.681,7.353,7.353Z"/></svg>
