<?xml version="1.0" encoding="UTF-8"?>
<!-- Generator: Adobe Illustrator 26.0.1, SVG Export Plug-In . SVG Version: 6.00 Build 0)  -->
<svg xmlns="http://www.w3.org/2000/svg" xmlns:xlink="http://www.w3.org/1999/xlink" version="1.1" id="Capa_1" x="0px" y="0px" viewBox="0 0 24 24" style="enable-background:new 0 0 24 24;" xml:space="preserve" width="512" height="512">
<g id="Page-1_1_">
	<g id="Logo_1_" transform="translate(-1.000000, 0.000000)">
		<path id="Shape_1_" d="M13.049,19.223c-3.987,0-5.808-2.031-5.808-3.521c-0.001-0.355,0.145-0.695,0.403-0.94    c0.258-0.244,0.605-0.372,0.96-0.352c1.707,0,1.26,2.56,4.445,2.56c1.628,0,2.584-0.98,2.584-1.901    c0-0.553-0.316-1.185-1.391-1.438l-3.556-0.897c-2.857-0.727-3.355-2.315-3.355-3.789c0-3.058,2.797-4.165,5.461-4.165    c2.454,0,5.37,1.355,5.37,3.189c0,0.79-0.66,1.213-1.426,1.213c-1.458,0-1.213-2.047-4.145-2.047c-1.458,0-2.225,0.684-2.225,1.64    c0,0.956,1.134,1.28,2.13,1.498l2.624,0.593c2.877,0.648,3.643,2.335,3.643,3.951c0,2.485-1.924,4.406-5.717,4.406 M24.057,13.964    c0.114-0.652,0.171-1.313,0.17-1.976c0.014-3.327-1.448-6.488-3.991-8.632s-5.906-3.051-9.183-2.475    C10.046,0.301,8.904-0.003,7.742,0C5.357,0.015,3.158,1.293,1.966,3.359c-1.193,2.066-1.2,4.609-0.02,6.682    c-0.658,3.618,0.495,7.329,3.088,9.936c2.593,2.607,6.298,3.781,9.919,3.142C15.959,23.698,17.1,24.002,18.26,24    c2.384-0.015,4.581-1.293,5.773-3.358S25.235,16.036,24.057,13.964"/>
	</g>
</g>















</svg>
