<?xml version="1.0" encoding="UTF-8"?>
<svg xmlns="http://www.w3.org/2000/svg" id="Layer_1" data-name="Layer 1" viewBox="0 0 24 24" width="512" height="512"><path d="M16.154,24H7.844l-.3-.144A13.417,13.417,0,0,1,.047,13.963,3.375,3.375,0,0,1,.8,11.215,3.418,3.418,0,0,1,3.417,10H20.581A3.42,3.42,0,0,1,23.2,11.215a3.374,3.374,0,0,1,.754,2.748,13.415,13.415,0,0,1-7.492,9.893ZM8.529,21H15.47a10.42,10.42,0,0,0,5.524-7.538.375.375,0,0,0-.089-.311A.421.421,0,0,0,20.581,13H3.417a.423.423,0,0,0-.324.151.378.378,0,0,0-.088.311A10.418,10.418,0,0,0,8.529,21ZM12,6.414a4.885,4.885,0,0,0-1.439-3.475A1.927,1.927,0,0,1,10,1.586V0H7V1.586A4.885,4.885,0,0,0,8.439,5.061,1.927,1.927,0,0,1,9,6.414V8h3Zm5-1a4.886,4.886,0,0,0-1.439-3.475A1.9,1.9,0,0,1,15,.586V0H12V.586a4.882,4.882,0,0,0,1.439,3.475A1.9,1.9,0,0,1,14,5.414V7h3Z"/></svg>
