<?xml version="1.0" encoding="UTF-8"?>
<!-- Generator: Adobe Illustrator 26.0.1, SVG Export Plug-In . SVG Version: 6.00 Build 0)  -->
<svg xmlns="http://www.w3.org/2000/svg" xmlns:xlink="http://www.w3.org/1999/xlink" version="1.1" id="Capa_1" x="0px" y="0px" viewBox="0 0 24 24" style="enable-background:new 0 0 24 24;" xml:space="preserve" width="512" height="512">
<g id="Layer_2_00000080914336643268906040000013680685670080058297_">
	<g id="Surfaces_00000068635135053254290230000014452915921741667200_">
		<g id="Video_Audio_Surface">
			<g id="Outline_no_shadow_00000182512826952423199550000010114509087919609763_">
				<path d="M10.85,8.99c0.16,0.27,0.24,0.58,0.23,0.89c0,0.44-0.1,0.78-0.31,1.03c-0.22,0.25-0.5,0.44-0.82,0.53      c-0.37,0.12-0.76,0.18-1.15,0.18H8.27c-0.12,0-0.25-0.01-0.39-0.02V8.24c0.07-0.01,0.21-0.02,0.41-0.01      c0.19-0.01,0.42-0.01,0.68-0.01c0.41-0.01,0.81,0.05,1.18,0.2C10.44,8.53,10.68,8.73,10.85,8.99z"/>
				<path d="M19.75,0.3H4.25C1.9,0.3,0,2.2,0,4.55v14.9c0,2.35,1.9,4.25,4.25,4.25h15.5c2.35,0,4.25-1.9,4.25-4.25V4.55      C24,2.2,22.1,0.3,19.75,0.3z M12.66,11.95c-0.889,1.245-2.416,1.56-3.86,1.56c-0.24,0-0.4,0-0.5-0.01      c-0.1-0.01-0.24-0.01-0.43-0.01v3.21c0.01,0.07-0.04,0.13-0.11,0.14H5.82c-0.08,0-0.12-0.04-0.12-0.13V6.42      c0-0.07,0.03-0.11,0.1-0.11c0.17,0,0.33,0,0.56-0.01L8.9,6.25c0.82,0,1.5,0.1,2.06,0.31c0.936,0.351,1.716,1.009,2.07,1.96      C13.432,9.6,13.34,10.999,12.66,11.95z M19.48,10.75c0,0.08-0.05,0.11-0.16,0.11c-0.36-0.01-0.73,0.02-1.08,0.1      c-0.29,0.06-0.57,0.15-0.84,0.27c-0.19,0.09-0.37,0.21-0.51,0.37v5.1c0,0.1-0.04,0.14-0.13,0.14h-1.97      c-0.08,0.01-0.15-0.04-0.16-0.12v-5.58c0-0.24,0-0.49-0.01-0.75c-0.01-0.26-0.01-0.52-0.02-0.78c0-0.23-0.02-0.45-0.04-0.68      c-0.01-0.05,0.02-0.1,0.07-0.11c0-0.01,0.02-0.01,0.03,0h1.75c0.1,0,0.18,0.07,0.21,0.16c0.03,0.08,0.05,0.16,0.06,0.25      c0.02,0.1,0.04,0.21,0.05,0.31c0.01,0.11,0.02,0.23,0.02,0.36c0.3-0.35,0.66-0.64,1.07-0.86c0.46-0.26,0.99-0.39,1.52-0.39      c0.07-0.01,0.13,0.04,0.14,0.11V10.75z"/>
			</g>
		</g>
	</g>
</g>















</svg>
