<?xml version="1.0" encoding="UTF-8"?>
<svg xmlns="http://www.w3.org/2000/svg" id="Layer_1" data-name="Layer 1" viewBox="0 0 24 24" width="512" height="512"><path d="M20.4,16.67l-.015-.021-1.115-1.56a2.75,2.75,0,0,0,.468-.641,2.87,2.87,0,0,0-.271-3.018L17.941,9.36a2.8,2.8,0,0,0,.75-.91,2.746,2.746,0,0,0-.219-2.894C18.432,5.5,14.2.989,14.2.989A2.97,2.97,0,0,0,9.827.956s-4.259,4.544-4.3,4.6A2.746,2.746,0,0,0,5.309,8.45a2.812,2.812,0,0,0,.758.916l-1.529,2.1A2.8,2.8,0,0,0,4.312,14.4a2.849,2.849,0,0,0,.5.678L3.6,16.67A3.4,3.4,0,0,0,6.4,22h4.1v.5a1.5,1.5,0,0,0,3,0V22h4.1a3.4,3.4,0,0,0,2.8-5.33Zm-2.445,2.116A.38.38,0,0,1,17.6,19H6.4a.38.38,0,0,1-.354-.214.364.364,0,0,1-.014-.359L7.873,16H11.5a1.5,1.5,0,0,0,0-3H7.133l2.183-3H10.5a1.5,1.5,0,0,0,0-3H8.266l3.719-3.99L15.731,7h-.284a1.5,1.5,0,0,0-1.209,2.388L16.889,13a1.5,1.5,0,0,0-1.109,2.369l2.151,3.007A.38.38,0,0,1,17.951,18.786Z"/></svg>
