<?xml version="1.0" encoding="UTF-8"?>
<svg xmlns="http://www.w3.org/2000/svg" id="Layer_1" data-name="Layer 1" viewBox="0 0 24 24" width="512" height="512"><path d="M16.968,8.532,19.3,7.365l1.167-2.333,1.167,2.333,2.333,1.167L21.635,9.7l-1.167,2.333L19.3,9.7ZM22.5,16A1.5,1.5,0,1,0,24,17.5,1.5,1.5,0,0,0,22.5,16Zm-5-4A1.5,1.5,0,1,0,19,13.5,1.5,1.5,0,0,0,17.5,12Zm1.259,9.894,2.2-1.509-2.432-1.1C15.776,18.048,13,15.159,13,11.5c0-3.419,2.59-6.111,4.808-7.378L20.122,2.8l-2.33-1.293a12,12,0,1,0,.967,20.386ZM13.968,3.219A11.2,11.2,0,0,0,10,11.5a11.523,11.523,0,0,0,4.816,9.041A8.857,8.857,0,0,1,12,21,9,9,0,0,1,12,3,8.834,8.834,0,0,1,13.968,3.219Z"/></svg>
