<?xml version="1.0" encoding="UTF-8"?>
<svg xmlns="http://www.w3.org/2000/svg" id="Layer_1" data-name="Layer 1" viewBox="0 0 24 24" width="512" height="512"><path d="M18.556,7.307C18.719,5.937,19.374,3,22,3V0a5.663,5.663,0,0,0-4.537,2.116A13.769,13.769,0,0,0,10,0,13.239,13.239,0,0,0,2,2.5,13.239,13.239,0,0,0,10,5a14,14,0,0,0,6.622-1.622,10.087,10.087,0,0,0-1.071,3.69,6.959,6.959,0,0,0-2.132.635,7.536,7.536,0,0,0-.881-.635,7.19,7.19,0,0,0-6.184-.652,9.445,9.445,0,0,0-4.878,4.108A9.445,9.445,0,0,0,.087,16.75a7.194,7.194,0,0,0,3.435,5.182A7.213,7.213,0,0,0,7.283,23a7.72,7.72,0,0,0,4.064-1.231A7.029,7.029,0,0,0,16.5,24c4.276,0,7.5-3.654,7.5-8.5C24,11.47,21.766,8.272,18.556,7.307ZM5.078,19.367a4.191,4.191,0,0,1-2.024-3.056,6.449,6.449,0,0,1,.987-4.23,6.446,6.446,0,0,1,3.3-2.83,4.182,4.182,0,0,1,3.646.383h0A9.15,9.15,0,0,0,9,15.5a9.8,9.8,0,0,0,.73,3.76A4.33,4.33,0,0,1,5.078,19.367ZM16.5,21c-2.954,0-4.5-2.767-4.5-5.5S13.546,10,16.5,10,21,12.767,21,15.5,19.454,21,16.5,21Zm.5-5v3a2.812,2.812,0,0,1-3-3Zm-8.818-.759L6.625,17.806A2.851,2.851,0,0,1,5.6,13.629Z"/></svg>
