<?xml version="1.0" encoding="UTF-8"?>
<!-- Generator: Adobe Illustrator 26.0.1, SVG Export Plug-In . SVG Version: 6.00 Build 0)  -->
<svg xmlns="http://www.w3.org/2000/svg" xmlns:xlink="http://www.w3.org/1999/xlink" version="1.1" id="Capa_1" x="0px" y="0px" viewBox="0 0 24 24" style="enable-background:new 0 0 24 24;" xml:space="preserve" width="512" height="512">
<g>
	<rect y="7.474" width="1.737" height="1.737"/>
	<g>
		<path d="M1.694,16.526v-6.257H0.049v6.257H1.694z M12.624,16.587v-1.533c-0.241,0-0.445-0.012-0.594-0.037    c-0.173-0.025-0.303-0.087-0.389-0.173c-0.087-0.087-0.142-0.21-0.173-0.371c-0.025-0.155-0.037-0.359-0.037-0.606v-2.189h1.193    v-1.41h-1.193V7.827H9.781v6.053c0,0.513,0.043,0.946,0.13,1.292c0.087,0.34,0.235,0.618,0.439,0.828    c0.204,0.21,0.476,0.359,0.804,0.451c0.334,0.093,0.754,0.136,1.255,0.136H12.624L12.624,16.587z M22.071,16.526V7.345H20.42    v9.181H22.071z M8.192,10.881c-0.457-0.495-1.1-0.742-1.917-0.742c-0.396,0-0.754,0.08-1.082,0.241    c-0.321,0.161-0.6,0.383-0.816,0.668l-0.093,0.117V11.06v-0.791H2.658v6.257h1.638v-3.332v0.229c0-0.037,0-0.074,0-0.111    c0.019-0.587,0.161-1.02,0.433-1.298c0.291-0.297,0.643-0.445,1.045-0.445c0.476,0,0.841,0.148,1.082,0.433    c0.235,0.284,0.359,0.686,0.359,1.199l0,0v0.012l0,0l0,0v3.308h1.663v-3.549C8.884,12.08,8.649,11.376,8.192,10.881z     M19.567,13.385c0-0.451-0.08-0.872-0.235-1.267c-0.161-0.389-0.383-0.736-0.662-1.032c-0.284-0.297-0.624-0.526-1.02-0.692    c-0.396-0.167-0.835-0.247-1.311-0.247c-0.451,0-0.878,0.087-1.274,0.253c-0.396,0.173-0.742,0.402-1.032,0.692    c-0.291,0.291-0.526,0.637-0.692,1.032c-0.173,0.396-0.253,0.822-0.253,1.274c0,0.451,0.08,0.878,0.241,1.274    c0.161,0.396,0.389,0.742,0.674,1.032c0.284,0.291,0.637,0.526,1.045,0.692c0.408,0.173,0.859,0.26,1.342,0.26    c1.397,0,2.263-0.637,2.782-1.23l-1.187-0.903c-0.247,0.297-0.841,0.699-1.583,0.699c-0.464,0-0.847-0.105-1.138-0.321    c-0.291-0.21-0.488-0.507-0.594-0.872l-0.019-0.056h4.915L19.567,13.385L19.567,13.385z M14.665,12.81    c0-0.457,0.526-1.255,1.657-1.261c1.131,0,1.663,0.798,1.663,1.255L14.665,12.81z"/>
		<path d="M23.951,15.709c-0.031-0.074-0.074-0.136-0.13-0.192c-0.056-0.056-0.117-0.099-0.192-0.13    c-0.074-0.031-0.155-0.049-0.235-0.049c-0.087,0-0.161,0.019-0.235,0.049c-0.074,0.031-0.136,0.074-0.192,0.13    c-0.056,0.056-0.099,0.117-0.13,0.192c-0.031,0.074-0.049,0.155-0.049,0.235c0,0.087,0.019,0.161,0.049,0.235    s0.074,0.136,0.13,0.192c0.056,0.056,0.117,0.099,0.192,0.13c0.074,0.031,0.155,0.049,0.235,0.049    c0.087,0,0.161-0.019,0.235-0.049c0.074-0.031,0.136-0.074,0.192-0.13c0.056-0.056,0.099-0.117,0.13-0.192    C23.981,16.105,24,16.025,24,15.944C24,15.864,23.981,15.784,23.951,15.709z M23.852,16.142c-0.025,0.062-0.062,0.117-0.105,0.161    c-0.043,0.043-0.099,0.08-0.161,0.105c-0.062,0.025-0.124,0.037-0.198,0.037c-0.068,0-0.136-0.012-0.198-0.037    c-0.062-0.025-0.117-0.062-0.161-0.105s-0.08-0.099-0.105-0.161c-0.025-0.062-0.037-0.124-0.037-0.198    c0-0.068,0.012-0.136,0.037-0.198s0.062-0.117,0.105-0.161c0.043-0.043,0.099-0.08,0.161-0.105    c0.062-0.025,0.124-0.037,0.198-0.037c0.068,0,0.136,0.012,0.198,0.037c0.062,0.025,0.117,0.062,0.161,0.105    c0.043,0.043,0.08,0.099,0.105,0.161c0.025,0.062,0.037,0.124,0.037,0.198C23.895,16.019,23.876,16.08,23.852,16.142z     M23.505,15.994c0.049-0.006,0.087-0.025,0.117-0.056c0.031-0.031,0.049-0.074,0.049-0.136c0-0.068-0.019-0.117-0.062-0.155    c-0.037-0.037-0.105-0.056-0.185-0.056h-0.272v0.699h0.13v-0.284h0.093l0.173,0.284h0.136L23.505,15.994z M23.437,15.895    c-0.019,0-0.037,0-0.062,0h-0.093v-0.198h0.093c0.019,0,0.037,0,0.062,0c0.019,0,0.037,0.006,0.056,0.012    c0.019,0.006,0.031,0.019,0.037,0.031c0.006,0.012,0.012,0.031,0.012,0.056c0,0.025-0.006,0.043-0.012,0.056    c-0.012,0.012-0.025,0.025-0.037,0.031C23.474,15.889,23.456,15.895,23.437,15.895z"/>
	</g>
</g>















</svg>
