<?xml version="1.0" encoding="UTF-8"?>
<svg xmlns="http://www.w3.org/2000/svg" id="Isolation_Mode" data-name="Isolation Mode" viewBox="0 0 24 24" width="512" height="512"><path d="M11.937,7.442a4.513,4.513,0,0,1,1.543.273l.471.171a4.487,4.487,0,1,0-6.064,6.066l-.17-.469a4.505,4.505,0,0,1,4.22-6.041Z"/><path d="M3,10A7,7,0,0,1,16.915,8.964L20,10.084c0-.028,0-.056,0-.084A10,10,0,1,0,10,20c.029,0,.056,0,.085,0l-1.12-3.081A7,7,0,0,1,3,10Z"/><path d="M24,13.669,12.8,9.6a2.5,2.5,0,0,0-3.2,3.2L13.669,24,17.774,19.9,21.879,24,24,21.879,19.9,17.774Zm-11.218-.887,5.765,2.1-3.669,3.669Z"/></svg>
