<svg id="Layer_1" height="512" viewBox="0 0 24 24" width="512" xmlns="http://www.w3.org/2000/svg" data-name="Layer 1"><path d="m24 21a3 3 0 0 1 -6 .014l-2.5-1.43a2.97 2.97 0 0 1 -1.5.416 3 3 0 0 1 0-6 2.97 2.97 0 0 1 1.5.416l2.5-1.43a3 3 0 1 1 3 3.014 2.97 2.97 0 0 1 -1.5-.416l-2.477 1.416 2.477 1.416a2.97 2.97 0 0 1 1.5-.416 3 3 0 0 1 3 3zm-14.692-17.943a5.2 5.2 0 0 1 3.909.989 5.109 5.109 0 0 1 2 3.418 1.5 1.5 0 0 0 1.29 1.288 5.191 5.191 0 0 1 1 .237 1.5 1.5 0 0 0 .976-2.837q-.254-.087-.515-.158a8.176 8.176 0 0 0 -9.086-5.907 8.053 8.053 0 0 0 -6.736 6.5 8.111 8.111 0 0 0 .541 4.825 5.763 5.763 0 0 0 -2.5 6.3 5.884 5.884 0 0 0 5.781 4.288h2.532a1.5 1.5 0 0 0 0-3h-2.532a2.926 2.926 0 0 1 -2.875-2.038 2.765 2.765 0 0 1 1.444-3.157 2.482 2.482 0 0 0 1.012-3.355 5.117 5.117 0 0 1 -.456-3.3 5.052 5.052 0 0 1 4.215-4.093z"/></svg>