<?xml version="1.0" encoding="UTF-8"?>
<!-- Generator: Adobe Illustrator 26.0.1, SVG Export Plug-In . SVG Version: 6.00 Build 0)  -->
<svg xmlns="http://www.w3.org/2000/svg" xmlns:xlink="http://www.w3.org/1999/xlink" version="1.1" id="Capa_1" x="0px" y="0px" viewBox="0 0 24 24" style="enable-background:new 0 0 24 24;" xml:space="preserve" width="512" height="512">
<g>
	<path d="M18.905,5.972l-1.733,7.053l-1.739-7.053h-5.099v2.605C9.722,6.297,7.561,5.726,5.56,5.694   C3.121,5.662,0.564,6.718,0.47,9.943h3.374c0-0.973,0.747-1.53,1.588-1.517c1.033-0.008,1.509,0.433,1.533,1.12   c-0.036,0.596-0.388,1.011-1.525,1.011H4.306v2.341h1.031c0.584,0,1.399,0.318,1.431,1.151c0.039,0.993-0.652,1.43-1.502,1.438   c-1.517-0.056-1.763-1.222-1.763-2.224H0c0.016,0.675-0.151,5.075,5.337,5.043c2.629,0.024,4.464-1.08,5.004-2.605v2.335h3.455   v-7.609l1.867,7.609h3.018l1.874-7.601v7.609H24V5.972H18.905z M10.343,13.009c-0.429-0.89-1.034-1.279-1.376-1.402   c0.715-0.318,1.09-0.749,1.376-1.608V13.009z"/>
</g>















</svg>
