<?xml version="1.0" encoding="UTF-8"?>
<svg xmlns="http://www.w3.org/2000/svg" id="Layer_1" data-name="Layer 1" viewBox="0 0 24 24" width="512" height="512"><path d="M24.061,2.061,21.939-.061,19,2.879V0H16V3.055c-1.79-1.226-3.907-1.761-6.139.47-2.435,2.436-7.508,14.722-8.5,17.16L.02,23.98l3.3-1.341c2.439-.992,14.724-6.064,17.16-8.5,2.231-2.231,1.7-4.348.469-6.139H24V5H21.121Zm-5.707,9.957a10.251,10.251,0,0,1-1.923,1.292l-2.37-2.371-2.122,2.122,1.707,1.706c-2.431,1.2-5.408,2.535-8.1,3.689C6.007,17.373,6.5,16.245,7,15.124l.936.937,2.122-2.122L8.337,12.216c.672-1.428,1.326-2.75,1.912-3.846l1.69,1.691,2.122-2.122L11.883,5.761c1.553-1.593,2.246-.474,4.627,1.729C19.382,10.363,19.424,10.948,18.354,12.018Z"/></svg>
