<?xml version="1.0" encoding="UTF-8"?>
<svg xmlns="http://www.w3.org/2000/svg" id="Layer_1" data-name="Layer 1" viewBox="0 0 24 24" width="512" height="512"><path d="M16.993,14c0,2-2,5-4.993,5s-4.956-3-5.007-5ZM24,12A12.013,12.013,0,0,1,12,24C-3.9,23.4-3.893.6,12,0A12.013,12.013,0,0,1,24,12Zm-3,0a9.011,9.011,0,0,0-9-9C.077,3.453.08,20.549,12,21A9.01,9.01,0,0,0,21,12ZM13,9c0,2.267,3.369,3,5,3-2.607-2.759-2.59-3.254,0-6C16.369,6,13,6.733,13,9ZM11,9c0-2.267-3.369-3-5-3,2.607,2.759,2.59,3.254,0,6C7.631,12,11,11.267,11,9Z"/></svg>
