<svg id="Layer_1" height="512" viewBox="0 0 24 24" width="512" xmlns="http://www.w3.org/2000/svg" data-name="Layer 1"><path d="m22.024 1.976c-3.524-3.529-12.647-2.153-17.424 2.624s-6.151 13.9-2.624 17.424a8.323 8.323 0 0 0 5.937 1.976 17.032 17.032 0 0 0 11.487-4.6c4.777-4.779 6.151-13.9 2.624-17.424zm-4.746 15.3a14.038 14.038 0 0 1 -7.845 3.609l-6.319-6.317a14.036 14.036 0 0 1 3.608-7.846 14.036 14.036 0 0 1 7.846-3.608l6.318 6.318a14.036 14.036 0 0 1 -3.608 7.846zm.283-5.717a1.5 1.5 0 0 1 -2.122 0l-.439-.438-.879.879.44.439a1.5 1.5 0 0 1 -2.122 2.122l-.439-.44-.879.879.44.439a1.5 1.5 0 0 1 -2.122 2.122l-3-3a1.5 1.5 0 0 1 2.122-2.122l.439.44.879-.879-.44-.439a1.5 1.5 0 0 1 2.122-2.122l.439.44.879-.879-.44-.439a1.5 1.5 0 0 1 2.122-2.122l3 3a1.5 1.5 0 0 1 0 2.122z"/></svg>