<?xml version="1.0" encoding="UTF-8"?>
<svg xmlns="http://www.w3.org/2000/svg" id="Layer_1" data-name="Layer 1" viewBox="0 0 24 24" width="512" height="512"><path d="M18,5a3,3,0,1,1,3,3A3,3,0,0,1,18,5ZM5.843,12l7.136-4.995,3.512,5h3.668S12.623,1.31,12.542,1.237A3.489,3.489,0,0,0,9.9,0H2.942V3H9.9a.5.5,0,0,1,.409.212h0l.942,1.339L.612,12Zm16.749,2H19.408a1.491,1.491,0,0,1-2.816,0H13.408a1.491,1.491,0,0,1-2.816,0H7.408a1.491,1.491,0,0,1-2.816,0H1.408A1.5,1.5,0,0,1,0,15v3a4.468,4.468,0,0,0,3-1.17,4.431,4.431,0,0,0,6,0,4.431,4.431,0,0,0,6,0,4.431,4.431,0,0,0,6,0A4.468,4.468,0,0,0,24,18V15A1.5,1.5,0,0,1,22.592,14Zm0,6H19.408a1.491,1.491,0,0,1-2.816,0H13.408a1.491,1.491,0,0,1-2.816,0H7.408a1.491,1.491,0,0,1-2.816,0H1.408A1.5,1.5,0,0,1,0,21v3a4.468,4.468,0,0,0,3-1.17,4.431,4.431,0,0,0,6,0,4.431,4.431,0,0,0,6,0,4.431,4.431,0,0,0,6,0A4.468,4.468,0,0,0,24,24V21A1.5,1.5,0,0,1,22.592,20Z"/></svg>
