<?xml version="1.0" encoding="UTF-8"?>
<!-- Generator: Adobe Illustrator 26.0.1, SVG Export Plug-In . SVG Version: 6.00 Build 0)  -->
<svg xmlns="http://www.w3.org/2000/svg" xmlns:xlink="http://www.w3.org/1999/xlink" version="1.1" id="Capa_1" x="0px" y="0px" viewBox="0 0 24 24" style="enable-background:new 0 0 24 24;" xml:space="preserve" width="512" height="512">
<path d="M23.901,8.567L18.995,1.96c-0.083-0.112-0.21-0.185-0.349-0.201l-6.59-0.743c-0.038-0.004-0.076-0.004-0.113,0L5.353,1.76  C5.214,1.775,5.088,1.848,5.005,1.96L0.099,8.567c-0.14,0.189-0.131,0.449,0.021,0.628l11.687,13.703  c0.009,0.01,0.018,0.02,0.028,0.028c0.106,0.09,0.265,0.078,0.356-0.028L23.879,9.195C24.032,9.016,24.041,8.756,23.901,8.567z   M22.532,8.81c-0.01,0.046-0.051,0.08-0.099,0.08h-2.356L20.05,8.89c-0.135,0.009-0.258,0.086-0.325,0.205l-5.652,10.077  l-0.009,0.014c-0.044,0.062-0.129,0.082-0.197,0.044c-0.069-0.039-0.097-0.125-0.063-0.196l4.569-9.714l0.009-0.02  c0.057-0.147-0.009-0.315-0.154-0.383c-0.04-0.019-0.084-0.029-0.129-0.029H5.901L5.88,8.89C5.723,8.901,5.598,9.032,5.598,9.192  c0,0.045,0.01,0.089,0.029,0.129l4.569,9.714l0.006,0.015c0.025,0.072-0.008,0.153-0.079,0.186  c-0.072,0.034-0.158,0.006-0.197-0.063L4.275,9.096L4.261,9.072C4.187,8.959,4.06,8.889,3.923,8.889H1.567L1.553,8.889  c-0.049-0.007-0.087-0.049-0.087-0.1c0-0.048,0.033-0.089,0.08-0.099l2.362-0.509l0.027-0.007c0.141-0.041,0.25-0.155,0.282-0.299  L5.17,3.657l0.004-0.013C5.192,3.598,5.241,3.57,5.291,3.581C5.339,3.592,5.372,3.636,5.37,3.684L5.196,7.349v0.019  C5.201,7.471,5.283,7.556,5.388,7.56c0.057,0.003,0.113-0.019,0.153-0.059l5.034-5.06l0.012-0.01  c0.042-0.031,0.101-0.028,0.139,0.01c0.039,0.039,0.042,0.1,0.008,0.143L7.019,7.208L7.005,7.227  c-0.072,0.108-0.05,0.254,0.052,0.336c0.045,0.036,0.101,0.056,0.158,0.056h9.569l0.021-0.001c0.13-0.011,0.232-0.119,0.232-0.252  c0-0.057-0.02-0.113-0.056-0.158l-3.716-4.624l-0.009-0.013c-0.026-0.045-0.016-0.104,0.025-0.137  c0.043-0.034,0.104-0.031,0.143,0.008l5.034,5.06l0.015,0.014c0.079,0.065,0.196,0.061,0.27-0.013  c0.04-0.04,0.062-0.096,0.059-0.153L18.63,3.684l0-0.014c0.004-0.05,0.045-0.089,0.096-0.092c0.049-0.002,0.092,0.031,0.103,0.079  l0.954,4.218l0.007,0.027c0.042,0.14,0.157,0.248,0.302,0.279l2.362,0.509l0.013,0.004C22.514,8.711,22.543,8.76,22.532,8.81z"/>















</svg>
