<?xml version="1.0" encoding="UTF-8"?>
<svg xmlns="http://www.w3.org/2000/svg" id="Layer_1" data-name="Layer 1" viewBox="0 0 24 24" width="512" height="512"><path d="M20.813,7.084l0-.008a10.169,10.169,0,0,0-4.487-4.188A3.992,3.992,0,0,0,12.5,0h-1A3.992,3.992,0,0,0,7.677,2.888,10.1,10.1,0,0,0,3.2,7.081a3.989,3.989,0,0,0-.947,7.5A9.9,9.9,0,0,0,7.4,20.907l-.337,1.181a1.5,1.5,0,1,0,2.884.824l.3-1.061A10.467,10.467,0,0,0,12,22a10.342,10.342,0,0,0,1.753-.151l.3,1.063a1.5,1.5,0,1,0,2.884-.824L16.6,20.9a9.935,9.935,0,0,0,5.152-6.324,3.988,3.988,0,0,0-.942-7.493ZM20,12H19a1,1,0,0,1,0-2h1a1,1,0,0,1,0,2ZM11.5,3h1a1,1,0,0,1,0,2h-1a1,1,0,0,1,0-2ZM5,12H4a1,1,0,0,1,0-2H5a1,1,0,0,1,0,2Zm7,7a7.3,7.3,0,0,1-.917-.076L12,15.717l.92,3.218A7.166,7.166,0,0,1,12,19Zm3.757-1.057-1.121-3.919A2.728,2.728,0,0,0,9.371,14L8.246,17.933a6.9,6.9,0,0,1-2.683-2.99,3.982,3.982,0,0,0,1.1-7.573A7.113,7.113,0,0,1,8.106,6.091,3.988,3.988,0,0,0,11.5,8h1a3.987,3.987,0,0,0,3.4-1.92,7.176,7.176,0,0,1,1.445,1.289,3.982,3.982,0,0,0,1.1,7.575A6.965,6.965,0,0,1,15.757,17.943Z"/></svg>
