<?xml version="1.0" encoding="UTF-8"?>
<svg xmlns="http://www.w3.org/2000/svg" id="Layer_1" data-name="Layer 1" viewBox="0 0 24 24" width="512" height="512"><path d="M20,7.256A7.509,7.509,0,0,0,12.5,0h-4A7.508,7.508,0,0,0,1,7.5v6.368a8.455,8.455,0,0,0,1.541,4.88L4,20.463V24H18V21.622l2.356-2.388A8.536,8.536,0,0,0,23,13.075V11.5A4.508,4.508,0,0,0,20,7.256Zm0,5.819a5.551,5.551,0,0,1-1.744,4.018L16.373,19H6.691L4.958,16.971A5.477,5.477,0,0,1,4,13.868V11.743A4.488,4.488,0,0,0,5.5,12H12V9H5.5A1.5,1.5,0,0,1,4,7.5,4.505,4.505,0,0,1,8.5,3h4a4.506,4.506,0,0,1,4.493,4.259A4.509,4.509,0,0,0,14,11.5V14h3V11.5a1.5,1.5,0,0,1,3,0Z"/></svg>
