<?xml version="1.0" encoding="UTF-8"?>
<!-- Generator: Adobe Illustrator 26.0.1, SVG Export Plug-In . SVG Version: 6.00 Build 0)  -->
<svg xmlns="http://www.w3.org/2000/svg" xmlns:xlink="http://www.w3.org/1999/xlink" version="1.1" id="Capa_1" x="0px" y="0px" viewBox="0 0 24 24" style="enable-background:new 0 0 24 24;" xml:space="preserve" width="512" height="512">
<g id="Layer_2_00000148620440474592329160000009848729829953727905_">
	<g id="Surfaces_00000085237080942541777960000006724616836033153433_">
		<g id="Video_Audio_Surface_3_">
			<g id="Outline_no_shadow_00000092442807645552873210000003520089694237407627_">
				<polygon points="7.703,8.152 9.027,12.446 6.378,12.446     "/>
				<path d="M19.752,0.429H4.248C1.902,0.429,0,2.331,0,4.677v14.645c0,2.347,1.902,4.249,4.248,4.249h15.503      c2.346,0,4.248-1.902,4.248-4.249V4.677C24,2.331,22.098,0.429,19.752,0.429z M12.499,16.706h-2.061      c-0.073,0.008-0.141-0.039-0.158-0.111l-0.809-2.46H5.807l-0.745,2.428c-0.021,0.087-0.101,0.147-0.19,0.143H3.017      c-0.106,0-0.143-0.058-0.111-0.174l3.172-9.015c0.031-0.095,0.063-0.203,0.095-0.325c0.041-0.212,0.062-0.427,0.063-0.642      c-0.008-0.054,0.03-0.104,0.083-0.111c0.009-0.001,0.018-0.001,0.028,0h2.521c0.074,0,0.116,0.027,0.127,0.079l3.6,10.03      C12.626,16.653,12.594,16.706,12.499,16.706z M20.063,16.694l-1.633,0.021c-0.081,0.008-0.158-0.037-0.19-0.111      c-0.023-0.081-0.041-0.163-0.055-0.246c-0.015-0.081-0.023-0.164-0.024-0.246c-0.295,0.298-0.654,0.525-1.048,0.665      c-0.357,0.098-0.724,0.148-1.094,0.151c-0.382,0-0.762-0.06-1.125-0.179c-0.318-0.088-0.609-0.254-0.848-0.482      c-0.253-0.31-0.442-0.667-0.555-1.051c-0.142-0.454-0.209-0.928-0.198-1.403V9.135c-0.008-0.061,0.034-0.118,0.095-0.127      c0.011-0.001,0.022-0.001,0.032,0h1.865C15.346,9,15.402,9.043,15.411,9.104c0.001,0.01,0.001,0.021,0,0.031v4.424      c-0.021,0.363,0.08,0.723,0.286,1.023c0.259,0.297,0.637,0.465,1.031,0.458c0.255-0.025,0.504-0.094,0.736-0.204      c0.201-0.079,0.388-0.189,0.555-0.325V9.12c0-0.074,0.048-0.111,0.143-0.111l1.862,0.005c0.054-0.008,0.104,0.03,0.111,0.083      c0.001,0.009,0.001,0.018,0,0.027l-0.039,5.81c0,0.264,0.003,0.499,0.008,0.706c0.006,0.206,0.016,0.386,0.032,0.539      c0.016,0.153,0.029,0.283,0.04,0.388C20.185,16.652,20.148,16.694,20.063,16.694z"/>
			</g>
		</g>
	</g>
</g>















</svg>
