<?xml version="1.0" encoding="UTF-8"?>
<!-- Generator: Adobe Illustrator 26.0.1, SVG Export Plug-In . SVG Version: 6.00 Build 0)  -->
<svg xmlns="http://www.w3.org/2000/svg" xmlns:xlink="http://www.w3.org/1999/xlink" version="1.1" id="Capa_1" x="0px" y="0px" viewBox="0 0 24 24" style="enable-background:new 0 0 24 24;" xml:space="preserve" width="512" height="512">
<g>
	<path d="M22.316,1.684C20.632,0,17.921,0,12.5,0h-1C6.079,0,3.368,0,1.684,1.684C0,3.368,0,6.079,0,11.5v1   c0,5.421,0,8.131,1.684,9.816S6.079,24,11.5,24h1c5.421,0,8.131,0,9.816-1.684C24,20.632,24,17.921,24,12.5v-1   C24,6.079,24,3.368,22.316,1.684z M19.503,17h-1.75c-0.667,0-0.863-0.532-2.05-1.719c-1.039-1.001-1.484-1.131-1.743-1.131   c-0.353,0-0.458,0.1-0.458,0.6v1.569c0,0.43-0.137,0.681-1.25,0.681c-1.854,0-3.892-1.126-5.339-3.202   c-2.17-3.041-2.763-5.34-2.763-5.803c0-0.26,0.1-0.495,0.6-0.495h1.751c0.447,0,0.615,0.196,0.783,0.68   c0.856,2.493,2.3,4.672,2.893,4.672c0.222,0,0.324-0.103,0.324-0.667V9.608c-0.065-1.186-0.696-1.284-0.696-1.706   c0-0.195,0.167-0.402,0.445-0.402h2.751c0.371,0,0.5,0.198,0.5,0.643v3.467c0,0.37,0.161,0.5,0.272,0.5   c0.223,0,0.408-0.13,0.816-0.538c1.261-1.409,2.151-3.578,2.151-3.578c0.112-0.26,0.316-0.495,0.762-0.495h1.75   c0.529,0,0.641,0.272,0.529,0.643c-0.223,1.02-2.355,4.023-2.355,4.023c-0.186,0.297-0.26,0.445,0,0.779   c0.186,0.26,0.797,0.779,1.205,1.261c0.752,0.846,1.319,1.559,1.477,2.051C20.254,16.75,20.003,17,19.503,17z"/>
</g>















</svg>
