<?xml version="1.0" encoding="UTF-8"?>
<!-- Generator: Adobe Illustrator 26.0.1, SVG Export Plug-In . SVG Version: 6.00 Build 0)  -->
<svg xmlns="http://www.w3.org/2000/svg" xmlns:xlink="http://www.w3.org/1999/xlink" version="1.1" id="Capa_1" x="0px" y="0px" viewBox="0 0 24 24" style="enable-background:new 0 0 24 24;" xml:space="preserve" width="512" height="512">
<g>
	<path d="M12.342,4.828h-2.36l-2.965,6.716h2.015l0.556-1.343h3.09l0.566,1.343h2.063L12.342,4.828z M10.221,8.694l0.912-2.197   l0.911,2.197H10.221z"/>
	<polygon points="15.307,17.681 15.307,19.235 9.589,19.235 9.589,12.519 15.307,12.519 15.307,14.073 11.422,14.073 11.422,15.119    15.212,15.119 15.212,16.635 11.422,16.635 11.422,17.681  "/>
	<polygon points="20.815,15.858 24,19.235 21.592,19.235 19.625,17.067 17.649,19.235 15.307,19.235 18.474,15.877 15.307,12.519    17.716,12.519 19.664,14.668 21.631,12.519 24,12.519  "/>
	<polygon points="22.156,15.86 24,13.915 24,17.823  "/>
	<polygon points="21.179,4.828 24,4.828 24,11.544 22.186,11.544 22.186,6.833 20.459,11.544 18.848,11.544 17.12,6.842    17.12,11.544 15.307,11.544 15.307,4.828 18.176,4.828 19.673,9.011  "/>
	<polygon points="24,0 24,3.866 20.463,3.866 19.666,6.098 18.874,3.866 14.312,3.866 14.312,6.829 12.996,3.866 9.31,3.866    5.488,12.515 8.569,12.515 8.569,20.197 18.116,20.197 19.614,18.549 21.105,20.197 24,20.197 24,24 0,24 0,0  "/>
</g>















</svg>
