<?xml version="1.0" encoding="UTF-8"?>
<svg xmlns="http://www.w3.org/2000/svg" id="Layer_1" data-name="Layer 1" viewBox="0 0 24 24" width="512" height="512"><path d="M21.5,8A1.5,1.5,0,0,1,20,6.5v-5a1.5,1.5,0,0,1,3,0v5A1.5,1.5,0,0,1,21.5,8ZM18,6.5v-5a1.5,1.5,0,0,0-3,0v5a1.5,1.5,0,0,0,3,0Zm4.062,15.638c.024-.025.954-1.092.954-1.092a3.509,3.509,0,0,0-.081-4.946L20.7,14.025a3.584,3.584,0,0,0-4.945,0l-.41.4A11.6,11.6,0,0,1,9.586,8.647l.389-.394a3.521,3.521,0,0,0,.039-4.909L7.861,1.025A3.5,3.5,0,0,0,2.954.984s-1.066.93-1.091.954C-5.073,9.785,9.342,24.224,17.5,24A6.4,6.4,0,0,0,22.062,22.138ZM5.033,3.146a.494.494,0,0,1,.668-.04L7.854,5.425a.482.482,0,0,1-.009.715L6.736,7.267a1.5,1.5,0,0,0-.322,1.611A14.849,14.849,0,0,0,15.146,17.6a1.5,1.5,0,0,0,1.587-.332l1.135-1.117c.28-.213.451-.21.748.04l2.238,2.074a.482.482,0,0,1,0,.706c-.025.025-.949,1.084-.949,1.084C14.654,24.773-.911,10.127,3.95,4.1,3.95,4.1,5.009,3.171,5.033,3.146Z"/></svg>
