<?xml version="1.0" encoding="UTF-8"?>
<svg xmlns="http://www.w3.org/2000/svg" id="Layer_1" data-name="Layer 1" viewBox="0 0 24 24" width="512" height="512"><path d="M10.5,15A1.5,1.5,0,1,1,12,13.5,1.5,1.5,0,0,1,10.5,15Zm.5,2.5A1.5,1.5,0,1,0,12.5,16,1.5,1.5,0,0,0,11,17.5ZM20,5.094V20.5A3.5,3.5,0,0,1,16.5,24h-9A3.5,3.5,0,0,1,4,20.5V5.094A2.76,2.76,0,0,1,3,3.375a2.246,2.246,0,0,1,3.806-1.62A3.339,3.339,0,0,1,12,.876a3.339,3.339,0,0,1,5.194.879A2.246,2.246,0,0,1,21,3.375,2.76,2.76,0,0,1,20,5.094ZM9.869,5.243A17.56,17.56,0,0,1,12.348,6.8a11.6,11.6,0,0,1,.923-.835A5.563,5.563,0,0,1,14,5.385L12.365,2.867A10.883,10.883,0,0,0,9.869,5.243ZM17,20.5c0-6.388-5.986-12-10-13.243V20.5a.5.5,0,0,0,.5.5h9A.5.5,0,0,0,17,20.5ZM17,7.237A6.192,6.192,0,0,0,14.617,8.77,20.9,20.9,0,0,1,17,11.628Z"/></svg>
