<?xml version="1.0" encoding="UTF-8"?>
<!-- Generator: Adobe Illustrator 25.0.0, SVG Export Plug-In . SVG Version: 6.00 Build 0)  -->
<svg xmlns="http://www.w3.org/2000/svg" xmlns:xlink="http://www.w3.org/1999/xlink" version="1.1" id="Capa_1" x="0px" y="0px" viewBox="0 0 512 512" style="enable-background:new 0 0 512 512;" xml:space="preserve" width="512" height="512">
<g>
	<path d="M352,0H160C95.228,0.071,42.737,52.561,42.667,117.333v277.333C42.737,459.439,95.228,511.929,160,512h192   c64.772-0.071,117.263-52.561,117.333-117.333V117.333C469.263,52.561,416.772,0.071,352,0z M160,64h192   c29.455,0,53.333,23.878,53.333,53.333v117.333H106.667V117.333C106.667,87.878,130.545,64,160,64z M352,448H160   c-29.455,0-53.333-23.878-53.333-53.333v-96h298.667v96C405.333,424.122,381.455,448,352,448z"/>
	<path d="M245.333,128h21.333c17.673,0,32,14.327,32,32l0,0c0,17.673-14.327,32-32,32h-21.333c-17.673,0-32-14.327-32-32l0,0   C213.333,142.327,227.66,128,245.333,128z"/>
	<path d="M245.333,341.333h21.333c17.673,0,32,14.327,32,32l0,0c0,17.673-14.327,32-32,32h-21.333c-17.673,0-32-14.327-32-32l0,0   C213.333,355.66,227.66,341.333,245.333,341.333z"/>
</g>















</svg>
