<?xml version="1.0" encoding="UTF-8"?>
<svg xmlns="http://www.w3.org/2000/svg" id="Bold" viewBox="0 0 24 24" width="512" height="512"><path d="M8,21H3.409A.41.41,0,0,1,3,20.591V3.409A.41.41,0,0,1,3.409,3H8A1.5,1.5,0,0,0,8,0H3.409A3.413,3.413,0,0,0,0,3.409V20.591A3.413,3.413,0,0,0,3.409,24H8a1.5,1.5,0,0,0,0-3Z"/><path d="M22.682,8.818,18.8,4.939a1.5,1.5,0,0,0-2.121,2.122l3.412,3.411L6.5,10.5a1.5,1.5,0,0,0,0,3h0l13.646-.025-3.467,3.467A1.5,1.5,0,0,0,18.8,19.061l3.879-3.879a4.5,4.5,0,0,0,0-6.364Z"/></svg>
