<?xml version="1.0" encoding="UTF-8"?>
<svg xmlns="http://www.w3.org/2000/svg" id="Layer_1" data-name="Layer 1" viewBox="0 0 24 24" width="512" height="512"><path d="M7.135,14.549c.037.012,1.92.485,1.92.485s.608,1.984.626,2.028a3.075,3.075,0,0,0,2.857,1.915h.05a3.079,3.079,0,0,0,2.846-2.006s2.461-6.554,2.474-6.6A3.5,3.5,0,0,0,13.633,6.1C13.575,6.11,7,8.719,7,8.719a3.1,3.1,0,0,0,.137,5.83Zm.96-3.038,6.366-2.528a.5.5,0,0,1,.555.575l-2.391,6.357a.085.085,0,0,1-.084.062c-.045,0-.057-.009-.069-.024l-.795-2.606a1.5,1.5,0,0,0-1.071-1.018l-2.549-.637c-.02-.012-.034-.031-.035-.08C8.021,11.54,8.047,11.53,8.1,11.511ZM12,24A12,12,0,1,0,0,12,12.013,12.013,0,0,0,12,24ZM12,3a9,9,0,1,1-9,9A9.01,9.01,0,0,1,12,3Z"/></svg>
