<?xml version="1.0" encoding="UTF-8"?>
<svg xmlns="http://www.w3.org/2000/svg" id="Layer_1" data-name="Layer 1" viewBox="0 0 24 24" width="512" height="512"><path d="M1.156,3.167l.5,1A1.5,1.5,0,0,0,4.34,2.833l-.5-1A1.5,1.5,0,1,0,1.156,3.167Z"/><path d="M11.161,1.825l-.5,1a1.5,1.5,0,1,0,2.678,1.35l.5-1a1.5,1.5,0,1,0-2.678-1.35Z"/><path d="M6,1.5v1a1.5,1.5,0,0,0,3,0v-1a1.5,1.5,0,0,0-3,0Z"/><path d="M16,8a7.964,7.964,0,0,0-5.087,1.83,7.344,7.344,0,0,0-1.3-.522l.736-1.473a1.73,1.73,0,0,0-.688-2.272A4.245,4.245,0,0,0,7.5,5a4.217,4.217,0,0,0-2.295.646,1.691,1.691,0,0,0-.556,2.183l.74,1.479a7.5,7.5,0,1,0,6.292,13.415A8,8,0,1,0,16,8ZM3,16.5A4.505,4.505,0,0,1,7.5,12a4.436,4.436,0,0,1,1.435.256,7.961,7.961,0,0,0,.493,8.293A4.447,4.447,0,0,1,7.5,21,4.505,4.505,0,0,1,3,16.5ZM16,21a4.931,4.931,0,0,1-2.16-.511,7.457,7.457,0,0,0-.512-8.7A4.995,4.995,0,1,1,16,21Z"/></svg>
