<?xml version="1.0" encoding="UTF-8"?>
<!-- Generator: Adobe Illustrator 26.0.1, SVG Export Plug-In . SVG Version: 6.00 Build 0)  -->
<svg xmlns="http://www.w3.org/2000/svg" xmlns:xlink="http://www.w3.org/1999/xlink" version="1.1" id="Capa_1" x="0px" y="0px" viewBox="0 0 24 24" style="enable-background:new 0 0 24 24;" xml:space="preserve" width="512" height="512">
<g id="SIEMENS_1_">
	<g>
		<path style="fill-rule:evenodd;clip-rule:evenodd;" d="M0.074,13.763v-0.722c0.411,0.129,0.774,0.194,1.091,0.194    c0.437,0,0.655-0.115,0.655-0.346c0-0.086-0.032-0.158-0.095-0.217c-0.065-0.062-0.232-0.148-0.5-0.258    c-0.481-0.198-0.795-0.366-0.941-0.506C0.095,11.724,0,11.492,0,11.211c0-0.361,0.138-0.637,0.413-0.826    c0.272-0.188,0.627-0.281,1.064-0.281c0.241,0,0.59,0.044,1.046,0.133v0.694c-0.339-0.136-0.655-0.203-0.946-0.203    c-0.41,0-0.615,0.113-0.615,0.338c0,0.084,0.041,0.153,0.124,0.206c0.069,0.043,0.258,0.134,0.568,0.274    c0.446,0.198,0.743,0.37,0.891,0.517c0.176,0.174,0.263,0.398,0.263,0.674c0,0.396-0.172,0.698-0.517,0.906    c-0.279,0.169-0.641,0.253-1.085,0.253C0.833,13.896,0.455,13.852,0.074,13.763L0.074,13.763z"/>
		<polygon style="fill-rule:evenodd;clip-rule:evenodd;" points="3.386,10.167 3.386,10.167 4.406,10.167 4.406,13.822     3.386,13.822   "/>
		<polygon style="fill-rule:evenodd;clip-rule:evenodd;" points="5.343,13.822 5.343,10.167 7.961,10.167 7.961,10.828     6.327,10.828 6.327,11.654 7.75,11.654 7.75,12.257 6.327,12.257 6.327,13.124 8.003,13.124 8.003,13.822   "/>
		<polygon style="fill-rule:evenodd;clip-rule:evenodd;" points="8.67,13.822 8.67,10.167 9.994,10.167 10.913,12.503     11.856,10.167 13.113,10.167 13.113,13.822 12.145,13.822 12.145,11.234 11.073,13.86 10.441,13.86 9.389,11.234 9.389,13.822       "/>
		<polygon style="fill-rule:evenodd;clip-rule:evenodd;" points="14.05,13.822 14.05,10.167 16.668,10.167 16.668,10.828     15.034,10.828 15.034,11.654 16.457,11.654 16.457,12.257 15.034,12.257 15.034,13.124 16.711,13.124 16.711,13.822   "/>
		<polygon style="fill-rule:evenodd;clip-rule:evenodd;" points="17.383,13.822 17.383,10.167 18.566,10.167 19.821,12.614     19.821,10.167 20.54,10.167 20.54,13.822 19.391,13.822 18.102,11.343 18.102,13.822   "/>
		<path style="fill-rule:evenodd;clip-rule:evenodd;" d="M21.265,13.763v-0.722c0.407,0.129,0.771,0.194,1.091,0.194    c0.437,0,0.655-0.115,0.655-0.346c0-0.086-0.031-0.158-0.092-0.217c-0.065-0.062-0.233-0.148-0.503-0.258    c-0.48-0.196-0.794-0.365-0.941-0.506c-0.189-0.183-0.283-0.416-0.283-0.7c0-0.36,0.137-0.634,0.413-0.824    c0.272-0.188,0.627-0.281,1.064-0.281c0.246,0,0.565,0.039,0.955,0.118l0.09,0.016v0.694c-0.34-0.136-0.656-0.203-0.948-0.203    c-0.408,0-0.612,0.113-0.612,0.338c0,0.084,0.041,0.153,0.124,0.206c0.066,0.041,0.256,0.133,0.571,0.274    c0.443,0.198,0.739,0.37,0.888,0.517C23.912,12.237,24,12.462,24,12.737c0,0.396-0.171,0.698-0.514,0.906    c-0.281,0.169-0.643,0.253-1.087,0.253C22.024,13.896,21.645,13.852,21.265,13.763L21.265,13.763z"/>
	</g>
</g>















</svg>
