<?xml version="1.0" encoding="UTF-8"?>
<!-- Generator: Adobe Illustrator 26.0.1, SVG Export Plug-In . SVG Version: 6.00 Build 0)  -->
<svg xmlns="http://www.w3.org/2000/svg" xmlns:xlink="http://www.w3.org/1999/xlink" version="1.1" id="Capa_1" x="0px" y="0px" viewBox="0 0 24 24" style="enable-background:new 0 0 24 24;" xml:space="preserve" width="512" height="512">
<path d="M23.993,12.598c-0.027-1.91-0.494-3.707-1.348-5.28c3.707-8.313-3.778-7.193-4.381-7.078  c-1.573,0.315-3.146,0.82-4.494,1.46C8.602,1.639,4.108,4.397,2.648,10.127c2.696-3.033,4.606-4.269,5.73-4.718  C8.141,5.622,7.905,5.846,7.669,6.071c-1.797,1.797-3.258,3.595-4.494,5.505c-0.955,1.685-2.022,3.146-2.584,5.055  c-3.033,11.01,6.516,6.404,7.864,5.617c1.46,0.719,3.033,1.112,4.831,1.112c4.718,0,8.763-3.033,10.223-7.19h-5.73  c-2.696,4.269-9.1,2.359-9.325-2.247h15.503C24.018,13.463,23.998,12.93,23.993,12.598z M22.364,6.869  c-1.236-2.022-3.033-3.595-5.28-4.381c1-0.483,3.558-1.457,4.943-0.562C23.067,2.598,23.518,3.916,22.364,6.869z M2.086,22.26  c-0.794-0.721-0.899-2.696,0.786-6.179c0.843,2.472,2.584,4.494,4.718,5.73C6.501,22.406,3.613,23.647,2.086,22.26z M8.377,11.025  c0.087-2.472,2.247-4.494,4.943-4.494s4.831,2.022,4.943,4.494H8.377z"/>















</svg>
