<?xml version="1.0" encoding="UTF-8"?>
<svg xmlns="http://www.w3.org/2000/svg" id="Layer_1" data-name="Layer 1" viewBox="0 0 24 24" width="512" height="512"><path d="M9,16.017c0-2.531,1.711-4.972,3-4.972s3,2.441,3,4.972A2.9,2.9,0,0,1,12,19,2.9,2.9,0,0,1,9,16.017ZM22,14.69a8.527,8.527,0,0,0-1.962-5.773,13.829,13.829,0,0,1-2.226-4.368A5.989,5.989,0,0,0,12,0C8.019,0,2,5.859,2,14.69,2,19.824,6.486,24,12,24S22,19.824,22,14.69ZM14.937,5.4a16.721,16.721,0,0,0,2.7,5.317A5.606,5.606,0,0,1,19,14.69C19,18.169,15.859,21,12,21s-7-2.831-7-6.31C5,7.1,9.968,3,12,3A3.018,3.018,0,0,1,14.937,5.4Z"/></svg>
