<?xml version="1.0" encoding="UTF-8"?>
<!-- Generator: Adobe Illustrator 26.0.1, SVG Export Plug-In . SVG Version: 6.00 Build 0)  -->
<svg xmlns="http://www.w3.org/2000/svg" xmlns:xlink="http://www.w3.org/1999/xlink" version="1.1" id="Capa_1" x="0px" y="0px" viewBox="0 0 24 24" style="enable-background:new 0 0 24 24;" xml:space="preserve" width="512" height="512">
<g>
	<g>
		<polygon points="2.187,15.921 7.041,15.921 7.041,11.066 2.187,11.066 2.187,15.921   "/>
		<path d="M13.871,1.145c3.955,0.07,6.313,2.706,6.66,7.526l1.284-0.208L21.57,0H2.426L2.185,8.463l1.282,0.208    c0.348-4.82,2.671-7.457,6.66-7.526v17.723c0,3.225-0.556,3.746-4.023,3.781V24h11.791v-1.352    c-3.468-0.034-4.024-0.556-4.024-3.781V1.145L13.871,1.145z"/>
		<polygon points="16.918,15.921 21.772,15.921 21.772,11.066 16.918,11.066 16.918,15.921   "/>
	</g>
</g>















</svg>
