<?xml version="1.0" encoding="UTF-8"?>
<svg xmlns="http://www.w3.org/2000/svg" id="Layer_1" data-name="Layer 1" viewBox="0 0 24 24" width="512" height="512"><path d="M8.5,7A2.587,2.587,0,0,1,11,9.667C11,11,9.881,11,8.5,11S6,11,6,9.667A2.587,2.587,0,0,1,8.5,7ZM13,9.667C13,11,14.119,11,15.5,11S18,11,18,9.667A2.587,2.587,0,0,0,15.5,7,2.587,2.587,0,0,0,13,9.667ZM24,12A12,12,0,1,0,12,24,12.013,12.013,0,0,0,24,12Zm-3,0a9,9,0,1,1-9-9A9.011,9.011,0,0,1,21,12Zm-5.5,1h-7a1.468,1.468,0,0,0-1.268,2.2A5.865,5.865,0,0,0,12,18a5.865,5.865,0,0,0,4.767-2.8A1.468,1.468,0,0,0,15.5,13Z"/></svg>
