<?xml version="1.0" encoding="UTF-8"?>
<svg xmlns="http://www.w3.org/2000/svg" id="Layer_1" data-name="Layer 1" viewBox="0 0 24 24" width="512" height="512"><path d="M24,9.924V18.5A5.506,5.506,0,0,1,18.5,24a1.5,1.5,0,0,1,0-3A2.5,2.5,0,0,0,21,18.5V9.924a2.5,2.5,0,0,0-1.1-2.073L13.3,3.4a2.306,2.306,0,0,0-2.593,0L4.1,7.851A2.5,2.5,0,0,0,3,9.924V18.5A2.5,2.5,0,0,0,5.5,21a1.5,1.5,0,0,1,0,3A5.506,5.506,0,0,1,0,18.5V9.924a5.5,5.5,0,0,1,2.423-4.56L9.025.91a5.29,5.29,0,0,1,5.95,0l6.6,4.454A5.5,5.5,0,0,1,24,9.924ZM19,15a6.95,6.95,0,0,1-2.05,4.949l-3.593,3.515a1.932,1.932,0,0,1-2.712,0L7.062,19.961A7,7,0,1,1,19,15Zm-3,0a4,4,0,1,0-6.829,2.828L12,20.6l2.84-2.779A3.963,3.963,0,0,0,16,15Zm-4-2a2,2,0,1,0,2,2A2,2,0,0,0,12,13Z"/></svg>
