<?xml version="1.0" encoding="UTF-8"?>
<svg xmlns="http://www.w3.org/2000/svg" id="Layer_1" data-name="Layer 1" viewBox="0 0 24 24" width="512" height="512"><path d="M12,24h0a3.611,3.611,0,0,1-3.44-2.428.646.646,0,0,0-.366-.384.635.635,0,0,0-.529.013A3.652,3.652,0,0,1,2.8,16.335a.654.654,0,0,0-.371-.9,3.651,3.651,0,0,1,0-6.88.655.655,0,0,0,.37-.9A3.652,3.652,0,0,1,7.665,2.8a.654.654,0,0,0,.9-.371,3.651,3.651,0,0,1,6.88,0h0a.654.654,0,0,0,.9.371A3.652,3.652,0,0,1,21.2,7.665a.652.652,0,0,0,.371.9,3.651,3.651,0,0,1,0,6.88.652.652,0,0,0-.371.9A3.652,3.652,0,0,1,16.335,21.2a.656.656,0,0,0-.529-.013.646.646,0,0,0-.366.384A3.612,3.612,0,0,1,12,24ZM7.945,18.139a3.65,3.65,0,0,1,3.441,2.427A.617.617,0,0,0,12,21h0a.617.617,0,0,0,.614-.434,3.653,3.653,0,0,1,5.01-2.074.652.652,0,0,0,.868-.868,3.653,3.653,0,0,1,2.074-5.01.651.651,0,0,0,0-1.228,3.653,3.653,0,0,1-2.074-5.01.652.652,0,0,0-.868-.868,3.653,3.653,0,0,1-5.01-2.074.651.651,0,0,0-1.228,0A3.652,3.652,0,0,1,6.377,5.508a.652.652,0,0,0-.869.868,3.654,3.654,0,0,1-2.073,5.01.651.651,0,0,0,0,1.228,3.653,3.653,0,0,1,2.074,5.01.652.652,0,0,0,.869.868A3.655,3.655,0,0,1,7.945,18.139Z"/></svg>
