<?xml version="1.0" encoding="UTF-8"?>
<svg xmlns="http://www.w3.org/2000/svg" id="Layer_1" data-name="Layer 1" viewBox="0 0 24 24" width="512" height="512"><path d="M2.442,7.436.658,9.927a3.4,3.4,0,0,0,.416,4.49L12,24l10.994-9.641a3.4,3.4,0,0,0,.287-4.5L21.24,7.422A3.416,3.416,0,0,0,18.5,6.03H5.2A3.425,3.425,0,0,0,2.442,7.436Zm.646,4.251L4.872,9.2A.4.4,0,0,1,5.2,9.03H9.188L8,12h8L14.812,9.03H18.5a.483.483,0,0,1,.386.242L20.922,11.7A.427.427,0,0,1,21,12H16l-4,8.006L8,12H3.018A.4.4,0,0,1,3.088,11.687Z"/><rect x="10.5" width="3" height="4"/><rect x="16.138" y="1.186" width="3.724" height="3.001" transform="matrix(0.537, -0.844, 0.844, 0.537, 6.068, 16.428)"/><rect x="4.5" y="0.824" width="3.001" height="3.724" transform="translate(-0.504 3.642) rotate(-32.482)"/></svg>
