<?xml version="1.0" encoding="UTF-8"?>
<!-- Generator: Adobe Illustrator 26.0.1, SVG Export Plug-In . SVG Version: 6.00 Build 0)  -->
<svg xmlns="http://www.w3.org/2000/svg" xmlns:xlink="http://www.w3.org/1999/xlink" version="1.1" id="Capa_1" x="0px" y="0px" viewBox="0 0 24 24" style="enable-background:new 0 0 24 24;" xml:space="preserve" width="512" height="512">
<g>
	<path d="M6.68,5.677c0,0.261,0,1.374,0,1.374h1.974c0,0,0.252,0.007,0.252-0.278c0-0.261,0.001-1.374,0.001-1.374H6.932   C6.932,5.398,6.68,5.392,6.68,5.677z M6.681,8.529c0,0.26,0,7.429,0,7.429h1.973c0,0,0.252,0.006,0.252-0.278   c0-0.058,0.001-7.429,0.001-7.429H6.933C6.933,8.251,6.681,8.245,6.681,8.529z M3.781,5.677v2.575H0.252   c0,0-0.252-0.007-0.252,0.278v7.428h5.755c0,0,0.252,0.007,0.252-0.278c0-0.261,0.001-10.281,0.001-10.281H4.033   C4.033,5.398,3.781,5.392,3.781,5.677z M3.782,14.025c0,0.285-0.253,0.279-0.253,0.279H2.182v-4.122   c0-0.285,0.253-0.279,0.253-0.279h1.348V14.025z M9.672,8.529v7.428h3.781v0.992H9.924c0,0-0.252-0.007-0.252,0.278   c0,0.261,0,1.374,0,1.374h5.755c0,0,0.252,0.007,0.252-0.278c0-0.261,0.001-10.068,0.001-10.068L9.924,8.251   C9.924,8.251,9.672,8.245,9.672,8.529z M11.854,10.181c0-0.285,0.253-0.279,0.253-0.279h1.348v4.122   c0,0.285-0.253,0.279-0.253,0.279h-1.348V10.181z M16.697,8.251c0,0-0.252-0.007-0.252,0.278v7.428h3.781v0.992h-3.528   c0,0-0.252-0.007-0.252,0.278c0,0.261,0,1.374,0,1.374H22.2c0,0,0.252,0.007,0.252-0.278c0-0.261,0.001-10.068,0.001-10.068   L16.697,8.251z M20.227,14.025c0,0.285-0.253,0.279-0.253,0.279h-1.348v-4.122c0-0.285,0.253-0.279,0.253-0.279h1.348V14.025z"/>
	<g>
		<path d="M23.112,8.451h-0.106V8.322h0.352v0.129h-0.106v0.566h-0.139V8.451z"/>
		<path d="M23.459,8.322h0.178l0.036,0.265c0.01,0.074,0.018,0.148,0.022,0.224c0.011-0.113,0.019-0.187,0.024-0.224l0.045-0.265    h0.176L24,9.017h-0.14l-0.015-0.322c-0.003-0.064-0.008-0.144-0.008-0.242l-0.091,0.564h-0.1l-0.085-0.568    c0,0.088-0.007,0.17-0.012,0.247l-0.021,0.321h-0.137L23.459,8.322z"/>
	</g>
</g>















</svg>
