<svg id="Layer_1" height="512" viewBox="0 0 24 24" width="512" xmlns="http://www.w3.org/2000/svg" data-name="Layer 1"><path d="m20.682 3.561-2.242-2.242a4.526 4.526 0 0 0 -3.182-1.319h-9.758a3.5 3.5 0 0 0 -3.5 3.5v20.5h20v-17.257a4.474 4.474 0 0 0 -1.318-3.182zm-15.682 17.439v-17.5a.5.5 0 0 1 .5-.5h9.5v4h4v14zm11-8h-8v-3h8zm-2.132 2.023 2.848.946c-.369 1.131-1.539 3.031-3.581 3.031a3.683 3.683 0 0 1 -2.275-.8 1.409 1.409 0 0 0 -.308-.2 3.234 3.234 0 0 0 -.8.825l-2.5-1.664c.339-.502 1.574-2.161 3.235-2.161a3.407 3.407 0 0 1 2.111.756c.3.217.354.244.537.244.204 0 .586-.55.733-.977z"/></svg>