<?xml version="1.0" encoding="UTF-8"?>
<svg xmlns="http://www.w3.org/2000/svg" id="Bold" viewBox="0 0 24 24" width="512" height="512"><path d="M4.16,20.809A4.168,4.168,0,0,1,0,16.648v-9.3A4.157,4.157,0,0,1,6.615,4L9.527,6.135A4.159,4.159,0,0,1,15.962,4L22.3,8.648a4.156,4.156,0,0,1,0,6.7L15.963,20a4.16,4.16,0,0,1-6.436-2.135L6.615,20A4.14,4.14,0,0,1,4.16,20.809Zm6.688-7.272a1.5,1.5,0,0,1,1.5,1.5v1.611a1.157,1.157,0,0,0,1.841.934l6.338-4.649a1.157,1.157,0,0,0,0-1.866L14.188,6.418a1.157,1.157,0,0,0-1.84.934V8.963a1.5,1.5,0,0,1-2.388,1.21L4.841,6.418A1.158,1.158,0,0,0,3,7.352v9.3a1.158,1.158,0,0,0,1.841.934L9.96,13.827A1.506,1.506,0,0,1,10.848,13.537Z"/></svg>
