<?xml version="1.0" encoding="UTF-8"?>
<!-- Generator: Adobe Illustrator 26.0.1, SVG Export Plug-In . SVG Version: 6.00 Build 0)  -->
<svg xmlns="http://www.w3.org/2000/svg" xmlns:xlink="http://www.w3.org/1999/xlink" version="1.1" id="Capa_1" x="0px" y="0px" viewBox="0 0 24 24" style="enable-background:new 0 0 24 24;" xml:space="preserve" width="512" height="512">
<path d="M8.181,5.37c0,0.233-0.021,0.635-0.262,0.895c-0.26,0.241-0.662,0.262-0.895,0.262l-2.547,0c-0.736,0-1.174,0-1.472,0.04  c-0.159,0.02-0.358,0.099-0.458,0.139c-0.031,0.012-0.04,0-0.02-0.02L8.34,0.774c0.02-0.02,0.032-0.011,0.02,0.02  C8.32,0.893,8.24,1.092,8.221,1.251c-0.04,0.298-0.04,0.736-0.04,1.472L8.181,5.37z M13.584,23.248  c-0.68-0.432-1.03-1.024-1.172-1.372c-0.135-0.343-0.211-0.715-0.211-1.101c0-1.652,1.353-3.005,3.025-3.005  c0.497,0,0.895,0.398,0.895,0.895c0,0.331-0.187,0.624-0.462,0.781c-0.092,0.053-0.24,0.102-0.338,0.117  c-0.098,0.014-0.478,0.059-0.655,0.214c-0.207,0.16-0.355,0.411-0.355,0.699c0,0.298,0.119,0.577,0.318,0.776  c0.358,0.358,0.836,0.557,1.353,0.557c1.353,0,2.448-1.094,2.448-2.448c0-1.214-0.816-2.288-1.89-2.766  c-0.159-0.08-0.418-0.139-0.657-0.199c-0.298-0.06-0.577-0.099-0.597-0.099c-0.836-0.099-2.925-0.756-3.064-2.607  c0,0-0.617,2.786-1.851,3.542c-0.119,0.06-0.279,0.119-0.458,0.159c-0.179,0.04-0.378,0.06-0.438,0.06  c-2.01,0.119-4.139-0.517-5.611-2.03c0,0-0.995-0.816-1.512-3.104C2.231,11.76,1.993,10.765,1.853,9.83  c-0.06-0.338-0.08-0.597-0.099-0.836c0-0.966,0.6-1.631,1.344-1.724c0.023-0.003,0.088-0.007,0.116-0.007c0.454,0,3.932,0,3.932,0  c0.696,0,1.094-0.179,1.353-0.418c0.338-0.318,0.418-0.776,0.418-1.313c0,0,0-3.617,0-4.071c0-0.028,0.004-0.094,0.007-0.116  C9.018,0.6,9.683,0,10.649,0c0.57,0,1.115,0.021,1.671,0.159c1.215,0.302,1.472,1.532,1.472,1.532s2.288,0.398,3.442,0.597  c1.094,0.199,3.801,0.378,4.318,3.104c1.214,6.487,0.478,12.775,0.418,12.775c-0.856,6.129-5.95,5.83-5.95,5.83  C14.951,23.988,14.131,23.614,13.584,23.248z M18.17,10.201c-0.658-0.069-1.216,0.192-1.422,0.699  c-0.042,0.104-0.076,0.22-0.055,0.279c0.021,0.059,0.061,0.079,0.101,0.098c0.241,0.116,0.642,0.174,1.217,0.244  c0.575,0.069,0.979,0.107,1.24,0.052c0.044-0.009,0.087-0.018,0.121-0.071c0.034-0.053,0.029-0.174,0.013-0.285  C19.306,10.676,18.825,10.29,18.17,10.201z"/>















</svg>
