<?xml version="1.0" encoding="UTF-8"?>
<svg xmlns="http://www.w3.org/2000/svg" id="Layer_1" data-name="Layer 1" viewBox="0 0 24 24" width="512" height="512"><path d="M16.884,12.8A10.447,10.447,0,0,1,24,10v3a7.461,7.461,0,0,0-5.07,1.989A7.179,7.179,0,0,0,16.884,12.8ZM13.035,9.556a7.5,7.5,0,0,1,1.98,2.274A12.459,12.459,0,0,1,24,8V5A15.451,15.451,0,0,0,13.035,9.556ZM7.76,8.039C8,8.015,8.25,8,8.5,8a7.387,7.387,0,0,1,2.756.545A17.435,17.435,0,0,1,24,3V0A20.456,20.456,0,0,0,7.76,8.039ZM18,18.75a5.258,5.258,0,0,0-4.37-5.176A5.487,5.487,0,0,0,3.005,15.255,4.5,4.5,0,0,0,4.5,24h8.25A5.256,5.256,0,0,0,18,18.75ZM6,18V15.5a2.488,2.488,0,0,1,4.958-.312l.166,1.312H12.75a2.25,2.25,0,0,1,0,4.5H4.5a1.5,1.5,0,0,1,0-3Z"/></svg>
