<svg id="Layer_1" height="512" viewBox="0 0 24 24" width="512" xmlns="http://www.w3.org/2000/svg" data-name="Layer 1"><path d="m22.4 1.592c-1.812-1.807-5-2.759-10.417 1.008-5.412-3.766-8.605-2.815-10.413-1.008s-2.76 4.998 1.008 10.408c-3.768 5.41-2.815 8.6-1.008 10.408a5.271 5.271 0 0 0 3.844 1.6c1.7 0 3.857-.7 6.569-2.594 2.713 1.889 4.868 2.595 6.569 2.595a5.266 5.266 0 0 0 3.844-1.6c1.804-1.809 2.761-4.999-1.008-10.409 3.769-5.41 2.812-8.6 1.012-10.408zm-3.928 1.416a2.446 2.446 0 0 1 1.8.707c1.355 1.354.585 3.6-.823 5.8-.706-.821-1.487-1.675-2.4-2.584s-1.764-1.689-2.585-2.395a8.148 8.148 0 0 1 4.008-1.528zm-.855 8.992c-.968 1.171-1.958 2.214-2.688 2.944s-1.775 1.72-2.946 2.687c-1.171-.967-2.215-1.956-2.945-2.687s-1.721-1.773-2.688-2.944c.967-1.171 1.957-2.214 2.688-2.944s1.773-1.721 2.945-2.688c1.172.967 2.215 1.957 2.946 2.688s1.72 1.773 2.688 2.944zm-13.923-8.285a2.445 2.445 0 0 1 1.8-.707 8.141 8.141 0 0 1 4.006 1.53c-.822.706-1.676 1.486-2.585 2.395s-1.692 1.767-2.398 2.584c-1.407-2.204-2.178-4.448-.823-5.802zm0 16.57c-1.355-1.354-.584-3.6.823-5.8.706.821 1.487 1.675 2.4 2.584s1.762 1.7 2.579 2.4c-2.206 1.402-4.448 2.169-5.802.816zm16.578 0c-1.355 1.354-3.6.586-5.8-.818.818-.7 1.676-1.495 2.581-2.4s1.69-1.763 2.4-2.584c1.404 2.204 2.174 4.448.819 5.802z"/><circle cx="12" cy="12" r="2"/></svg>