<?xml version="1.0" encoding="UTF-8"?>
<svg xmlns="http://www.w3.org/2000/svg" id="Layer_1" data-name="Layer 1" viewBox="0 0 24 24" width="512" height="512"><path d="M8.364,12.636a1.243,1.243,0,0,1,0-1.757A8.2,8.2,0,0,1,11,10a8.2,8.2,0,0,1-.879,2.636A1.243,1.243,0,0,1,8.364,12.636Zm7.272,0a1.243,1.243,0,0,0,0-1.757A8.2,8.2,0,0,0,13,10a8.2,8.2,0,0,0,.879,2.636A1.243,1.243,0,0,0,15.636,12.636Zm6.682,4.895-.763,3.68A3.514,3.514,0,0,1,18.128,24H5.873a3.514,3.514,0,0,1-3.427-2.79l-.764-3.679A3.564,3.564,0,0,1,0,14.5C0,10.569,5.242,6,12,6s12,4.569,12,8.5A3.564,3.564,0,0,1,22.318,17.531ZM3,14.5c.022.5.276.5.5.5H6a1,1,0,0,0,2,0h3a1,1,0,0,0,2,0h3a1,1,0,0,0,2,0h2.5c.224,0,.478,0,.5-.529C21,12.611,17.5,9,12,9S3,12.611,3,14.5Zm15.617,6.1.456-2.2A3.908,3.908,0,0,1,14.5,18.1a3.912,3.912,0,0,1-5,0,3.907,3.907,0,0,1-4.572.307l.456,2.2a.5.5,0,0,0,.489.4H18.128A.5.5,0,0,0,18.617,20.6ZM13.5,0h-3V4h3ZM19,0H16V4h3ZM8,0H5V4H8Z"/></svg>
