<?xml version="1.0" encoding="UTF-8"?>
<svg xmlns="http://www.w3.org/2000/svg" id="Layer_1" data-name="Layer 1" viewBox="0 0 24 24" width="512" height="512"><path d="M3,21.484V22.5a1.5,1.5,0,0,0,3,0v-.409H18V22.5a1.5,1.5,0,0,0,3,0V21.484a5.5,5.5,0,0,0,3-4.893V12.5A5.506,5.506,0,0,0,18.5,7H17V5A5,5,0,0,0,7,5V7H5.5A5.506,5.506,0,0,0,0,12.5v4.091A5.5,5.5,0,0,0,3,21.484ZM10,5a2,2,0,0,1,4,0V7H10ZM3,12.5A2.5,2.5,0,0,1,5.5,10h13A2.5,2.5,0,0,1,21,12.5v4.091a2.5,2.5,0,0,1-2.5,2.5H5.5a2.5,2.5,0,0,1-2.5-2.5Zm4,1A1.5,1.5,0,0,1,8.5,12h7a1.5,1.5,0,0,1,0,3h-7A1.5,1.5,0,0,1,7,13.5Z"/></svg>
