<?xml version="1.0" encoding="UTF-8"?>
<svg xmlns="http://www.w3.org/2000/svg" id="Layer_1" data-name="Layer 1" viewBox="0 0 24 24" width="512" height="512"><path d="M22.874,14.877a3.828,3.828,0,0,0-1.817-2.372h0l-.883-.5.884-.505a3.823,3.823,0,0,0,1.816-2.372,3.932,3.932,0,0,0-.449-3.043A4.3,4.3,0,0,0,19,4.005a3.9,3.9,0,0,0-2.062.51L16,5.051V4A4,4,0,0,0,8,4V5.051l-.939-.536A3.9,3.9,0,0,0,5.019,4,4.326,4.326,0,0,0,1.571,6.088a3.927,3.927,0,0,0-.444,3.035A3.826,3.826,0,0,0,2.944,11.5l.883.5-.884.505a3.828,3.828,0,0,0-1.817,2.372,3.932,3.932,0,0,0,.449,3.04,4.283,4.283,0,0,0,3.743,2.075,3.892,3.892,0,0,0,1.744-.507L8,18.949V20a4,4,0,0,0,8,0V18.949l.939.536A3.9,3.9,0,0,0,19,20a4.325,4.325,0,0,0,3.43-2.083A3.932,3.932,0,0,0,22.874,14.877Zm-3.09,1.609a1.031,1.031,0,0,1-1.357.394l-3.183-1.817A1.5,1.5,0,0,0,13,16.366V20a1,1,0,0,1-2,0V16.366a1.5,1.5,0,0,0-2.244-1.3L5.574,16.88a1.033,1.033,0,0,1-1.362-.4.98.98,0,0,1,.219-1.37L7.6,13.3a1.5,1.5,0,0,0,0-2.606L4.432,8.891a1.074,1.074,0,0,1-.216-1.377A1.031,1.031,0,0,1,5.573,7.12L8.756,8.937A1.5,1.5,0,0,0,11,7.634V4a1,1,0,0,1,2,0V7.634a1.5,1.5,0,0,0,2.244,1.3L18.426,7.12a1.034,1.034,0,0,1,1.363.4,1.06,1.06,0,0,1-.22,1.368L16.4,10.7a1.5,1.5,0,0,0,0,2.606l3.165,1.806A1.037,1.037,0,0,1,19.784,16.486Z"/></svg>
