<?xml version="1.0" encoding="UTF-8"?>
<svg xmlns="http://www.w3.org/2000/svg" id="Layer_1" data-name="Layer 1" viewBox="0 0 24 24" width="512" height="512"><path d="M14.088,17H17v3H14.2l1.38,2.3L13.01,23.846,11.5,21.323,9.99,23.846,7.416,22.305,8.8,20H6V17H8.912l-1.5-2.5L9.99,12.958l1.51,2.523,1.51-2.523L15.584,14.5ZM24,12.478A7.411,7.411,0,0,0,17.584,5.1,8.294,8.294,0,0,0,10.091,0,7.96,7.96,0,0,0,2,8a11.952,11.952,0,0,0,.133,1.893A5.768,5.768,0,0,0,0,14.387H.011c0,.038-.011.074-.011.113a6.022,6.022,0,0,0,4,5.635v-3.42A2.961,2.961,0,0,1,3,14.5c0-.039-.009-.075-.012-.113H3A2.786,2.786,0,0,1,4.527,11.9l1.2-.613-.48-1.258A5.955,5.955,0,0,1,5,8a4.935,4.935,0,0,1,5.091-5,5.4,5.4,0,0,1,4.971,3.927l.308,1.038L16.452,8A4.517,4.517,0,0,1,21,12.478h0l0,.022a5.008,5.008,0,0,1-2,3.973v3.419A8.041,8.041,0,0,0,24,12.5l0-.022Z"/></svg>
