<?xml version="1.0" encoding="UTF-8"?>
<!-- Generator: Adobe Illustrator 26.0.1, SVG Export Plug-In . SVG Version: 6.00 Build 0)  -->
<svg xmlns="http://www.w3.org/2000/svg" xmlns:xlink="http://www.w3.org/1999/xlink" version="1.1" id="Capa_1" x="0px" y="0px" viewBox="0 0 24 24" style="enable-background:new 0 0 24 24;" xml:space="preserve" width="512" height="512">
<path d="M10.384,12.468h1.583l-0.836-1.35l-1.537,2.439H8.894l1.87-2.926c0.141-0.202,0.419-0.251,0.62-0.11  c0.041,0.029,0.077,0.064,0.107,0.105l1.875,2.931h-0.699l-0.329-0.545h-1.602l-0.349-0.543 M17.65,13.011V10.47h-0.594v2.792  c0,0.078,0.032,0.153,0.088,0.208c0.057,0.058,0.135,0.091,0.216,0.09h2.7l0.352-0.545h-2.766 M7.828,12.557  c0.576,0,1.044-0.467,1.044-1.044c0-0.576-0.467-1.044-1.044-1.044H5.231v3.087h0.593v-2.54h1.967c0.276,0,0.5,0.224,0.5,0.5  c0,0.276-0.224,0.5-0.5,0.5H6.118l1.772,1.541h0.861l-1.19-0.999H7.828 M1.583,13.557h1.794c0.852-0.022,1.525-0.731,1.503-1.583  c-0.021-0.821-0.682-1.482-1.503-1.503H1.583c-0.852-0.022-1.561,0.651-1.583,1.503c-0.022,0.852,0.651,1.561,1.503,1.583  C1.53,13.557,1.557,13.557,1.583,13.557 M3.337,13.013H1.623c-0.552-0.018-0.984-0.479-0.966-1.031  c0.017-0.527,0.44-0.949,0.966-0.966h1.714c0.552-0.018,1.013,0.415,1.031,0.966c0.018,0.552-0.415,1.013-0.966,1.031  C3.38,13.014,3.358,13.014,3.337,13.013 M14.605,13.557h1.831l0.347-0.543h-2.137c-0.552,0.018-1.013-0.415-1.031-0.966  c-0.018-0.552,0.415-1.013,0.966-1.031c0.021-0.001,0.043-0.001,0.064,0h1.74l0.351-0.545h-2.131  c-0.852-0.022-1.561,0.651-1.583,1.503c-0.022,0.852,0.651,1.561,1.503,1.583C14.551,13.557,14.578,13.557,14.605,13.557   M21.861,13.013c-0.447,0-0.84-0.297-0.962-0.727h2.536l0.349-0.544H20.9c0.121-0.43,0.514-0.728,0.962-0.727h1.741l0.348-0.545  h-2.129c-0.852,0.022-1.525,0.731-1.503,1.583c0.021,0.821,0.682,1.482,1.503,1.503h1.831L24,13.012h-2.14"/>















</svg>
