<?xml version="1.0" encoding="UTF-8"?>
<!-- Generator: Adobe Illustrator 26.0.1, SVG Export Plug-In . SVG Version: 6.00 Build 0)  -->
<svg xmlns="http://www.w3.org/2000/svg" xmlns:xlink="http://www.w3.org/1999/xlink" version="1.1" id="Capa_1" x="0px" y="0px" viewBox="0 0 24 24" style="enable-background:new 0 0 24 24;" xml:space="preserve" width="512" height="512">
<path d="M8.592,2.446c0-0.326,0.033-0.522,0.587-0.522h7.467c1.304,0,2.022,1.109,2.543,3.196l0.424,1.663h1.272  C21.114,2.054,21.31,0,21.31,0s-3.196,0.359-5.087,0.359H6.668l-5.12-0.163v1.37l1.728,0.326c1.207,0.228,1.5,0.489,1.598,1.598  c0,0,0.098,3.261,0.098,8.641s-0.098,8.609-0.098,8.609c0,0.978-0.391,1.337-1.598,1.565L1.549,22.63V24l5.12-0.163h8.543  c1.924,0,6.391,0.163,6.391,0.163c0.098-1.174,0.75-6.489,0.848-7.076h-1.207l-1.272,2.902c-1.011,2.283-2.478,2.446-4.109,2.446  h-4.859c-1.63,0-2.413-0.652-2.413-2.054v-7.435c0,0,3.62,0,4.793,0.098c0.913,0.065,1.467,0.326,1.761,1.598l0.391,1.696h1.402  l-0.098-4.272l0.196-4.304h-1.402l-0.457,1.891c-0.293,1.239-0.489,1.467-1.761,1.598c-1.663,0.163-4.826,0.13-4.826,0.13V2.446z"/>















</svg>
