<?xml version="1.0" encoding="UTF-8"?>
<!-- Generator: Adobe Illustrator 25.2.1, SVG Export Plug-In . SVG Version: 6.00 Build 0)  -->
<svg xmlns="http://www.w3.org/2000/svg" xmlns:xlink="http://www.w3.org/1999/xlink" version="1.1" id="Layer_1" x="0px" y="0px" viewBox="0 0 24 24" style="enable-background:new 0 0 24 24;" xml:space="preserve" width="512" height="512">
<path d="M17.7,3H6.3C4.4,3,2.7,4,1.7,5.7C0.6,7.6,0,9.8,0,12c0,4.9,2,10,5.3,10c1.8,0,3.3-1.4,4-3.7C9.4,18.1,9.5,18,9.7,18h4.6  c0.2,0,0.4,0.1,0.4,0.3c1,3.2,2.9,3.7,3.9,3.7C22,22,24,16.9,24,12c0-2.2-0.6-4.4-1.7-6.4C21.4,4,19.6,3,17.7,3z M18.7,19  c-0.3,0-0.7-0.5-1-1.6C17.2,16,15.9,15,14.4,15H9.7c-1.5,0-2.8,1-3.3,2.4c-0.3,1-0.8,1.6-1.1,1.6C4.7,18.9,3,16.4,3,12  c0-1.7,0.5-3.4,1.3-4.9C4.7,6.4,5.5,6,6.3,6h11.4c0.8,0,1.6,0.4,2,1.1C20.6,8.6,21,10.3,21,12C21,16.4,19.3,18.9,18.7,19z"/>
<path d="M10.5,9H10V8.5C10,7.7,9.3,7,8.5,7S7,7.7,7,8.5V9H6.5C5.7,9,5,9.7,5,10.5S5.7,12,6.5,12H7v0.5C7,13.3,7.7,14,8.5,14  s1.5-0.7,1.5-1.5V12h0.5c0.8,0,1.5-0.7,1.5-1.5S11.3,9,10.5,9z"/>
<circle cx="17" cy="10" r="2"/>
</svg>
