<?xml version="1.0" encoding="UTF-8"?>
<svg xmlns="http://www.w3.org/2000/svg" id="Layer_1" data-name="Layer 1" viewBox="0 0 24 24" width="512" height="512"><path d="M22.933,14.056,22.605,13H13.193l.608-1.7a.4.4,0,0,1,.285-.3l4.4-.48A2.941,2.941,0,0,0,20.819,6.6C19.373,2.651,15.253,0,10.568,0A10.58,10.58,0,0,0,0,10.568,48.789,48.789,0,0,0,.769,16.8a3.391,3.391,0,0,0,2.414,2.7,33.455,33.455,0,0,1,8.033,3.33l1.016.623,2.716-2.757,1.869,2.088.284.131A13.421,13.421,0,0,0,22.5,24H24V22.5A31,31,0,0,0,22.933,14.056ZM11.747,19.665a38.642,38.642,0,0,0-7.718-3.049.413.413,0,0,1-.3-.32A45.22,45.22,0,0,1,3,10.568,7.577,7.577,0,0,1,10.568,3c3.421,0,6.4,1.849,7.43,4.554l-4.29.468a3.4,3.4,0,0,0-2.795,2.463L10.1,12.749a3.4,3.4,0,0,0,.323,2.476l2.562,3.181Zm6.878.634-2.482-2.771L14.9,16H20.33a30.346,30.346,0,0,1,.63,4.9A9.752,9.752,0,0,1,18.625,20.3ZM9,14.5A1.5,1.5,0,1,1,7.5,13,1.5,1.5,0,0,1,9,14.5Z"/></svg>
