<?xml version="1.0" encoding="UTF-8"?>
<svg xmlns="http://www.w3.org/2000/svg" id="Bold" viewBox="0 0 24 24" width="512" height="512"><path d="M15.5,24h-7A5.506,5.506,0,0,1,3,18.5V5.5A5.506,5.506,0,0,1,8.5,0h7A5.506,5.506,0,0,1,21,5.5v13A5.506,5.506,0,0,1,15.5,24ZM8.5,3A2.5,2.5,0,0,0,6,5.5v13A2.5,2.5,0,0,0,8.5,21h7A2.5,2.5,0,0,0,18,18.5V5.5A2.5,2.5,0,0,0,15.5,3Z"/><circle cx="12" cy="7" r="2"/><path d="M12,19.5A4.5,4.5,0,1,1,16.5,15,4.505,4.505,0,0,1,12,19.5Zm0-6A1.5,1.5,0,1,0,13.5,15,1.5,1.5,0,0,0,12,13.5Z"/></svg>
