<?xml version="1.0" encoding="UTF-8"?>
<svg xmlns="http://www.w3.org/2000/svg" id="Isolation_Mode" data-name="Isolation Mode" viewBox="0 0 24 24" width="512" height="512"><path d="M24,10.091,21.794,0H2.206L.036,9.766,0,11.046a4.313,4.313,0,0,0,.955,2.69V21a3,3,0,0,0,3,3h16.09a3,3,0,0,0,3-3V13.736A4.313,4.313,0,0,0,24,11.046ZM3,10.256,4.612,3h2.07V6.272h3V3h4.636V6.272h3V3h2.07L21,10.256v.79a1.365,1.365,0,0,1-1.364,1.363h-.954a1.365,1.365,0,0,1-1.364-1.363h-3a1.364,1.364,0,0,1-1.363,1.363h-1.91a1.364,1.364,0,0,1-1.363-1.363h-3a1.365,1.365,0,0,1-1.364,1.363H4.364A1.365,1.365,0,0,1,3,11.046ZM3.955,21V15.368c.136.013.269.041.409.041h.954a4.33,4.33,0,0,0,2.864-1.1,4.327,4.327,0,0,0,2.863,1.1h1.91a4.347,4.347,0,0,0,2.863-1.073,4.348,4.348,0,0,0,2.864,1.073h.954c.14,0,.273-.028.409-.041V21Z"/></svg>
