<?xml version="1.0" encoding="UTF-8"?>
<!-- Generator: Adobe Illustrator 26.0.1, SVG Export Plug-In . SVG Version: 6.00 Build 0)  -->
<svg xmlns="http://www.w3.org/2000/svg" xmlns:xlink="http://www.w3.org/1999/xlink" version="1.1" id="Capa_1" x="0px" y="0px" viewBox="0 0 24 24" style="enable-background:new 0 0 24 24;" xml:space="preserve" width="512" height="512">
<path d="M22.038,8.783L24,6.649h-4.35c-2.178-1.488-4.808-2.354-7.652-2.354c-2.841,0-5.463,0.868-7.637,2.354H0l1.962,2.134  c-1.202,1.097-1.956,2.677-1.956,4.432c0,3.311,2.684,5.995,5.995,5.995c1.573,0,3.006-0.607,4.076-1.598l1.922,2.092l1.922-2.091  c1.07,0.992,2.501,1.596,4.074,1.596c3.311,0,5.999-2.684,5.999-5.995C23.995,11.459,23.241,9.879,22.038,8.783z M6.003,17.273  c-2.241,0-4.057-1.816-4.057-4.057c0-2.241,1.816-4.058,4.057-4.058s4.057,1.816,4.057,4.058  C10.06,15.456,8.244,17.273,6.003,17.273z M12,13.097c0-2.67-1.942-4.962-4.504-5.941c1.386-0.579,2.906-0.901,4.502-0.901  c1.596,0,3.118,0.321,4.504,0.901C13.942,8.137,12,10.427,12,13.097z M17.995,17.273c-2.241,0-4.058-1.816-4.058-4.057  c0-2.241,1.816-4.058,4.058-4.058s4.057,1.816,4.057,4.058C22.053,15.456,20.237,17.273,17.995,17.273z M17.995,11.086  c-1.175,0-2.127,0.952-2.127,2.127c0,1.175,0.952,2.127,2.127,2.127c1.175,0,2.127-0.952,2.127-2.127  C20.122,12.04,19.171,11.086,17.995,11.086z M8.13,13.215c0,1.175-0.952,2.127-2.127,2.127c-1.175,0-2.127-0.952-2.127-2.127  c0-1.175,0.952-2.127,2.127-2.127C7.178,11.086,8.13,12.04,8.13,13.215z"/>















</svg>
