<?xml version="1.0" encoding="UTF-8"?>
<svg xmlns="http://www.w3.org/2000/svg" id="Isolation_Mode" data-name="Isolation Mode" viewBox="0 0 24 24" width="512" height="512"><path d="M9,0H2.5A2.5,2.5,0,0,0,0,2.5V9H2.99l-.01,1.993,3,.014L5.99,9H9V6.01l1.992.01.016-3L9,3.01ZM6,6H3V3H6Z"/><path d="M21.5,0H15V2.99l-1.992-.01-.016,3L15,5.99V9h2.99l-.01,1.993,3,.014L20.99,9H24V2.5A2.5,2.5,0,0,0,21.5,0ZM21,6H18V3h3Z"/><path d="M21.02,13.007l-3-.014L18.01,15H15v2.99l-1.992-.01-.016,3L15,20.99V24h6.5A2.5,2.5,0,0,0,24,21.5V15H21.01ZM21,21H18V18h3Z"/><path d="M9,15H6.01l.01-1.993-3-.014L3.01,15H0v6.5A2.5,2.5,0,0,0,2.5,24H9V21.01l1.992.01.016-3L9,18.01ZM6,21H3V18H6Z"/></svg>
