<svg id="Layer_1" height="512" viewBox="0 0 24 24" width="512" xmlns="http://www.w3.org/2000/svg" data-name="Layer 1"><path d="m12 0a12 12 0 1 0 12 12 12.013 12.013 0 0 0 -12-12zm1.5 20.865v-1.365a1.5 1.5 0 0 0 -3 0v1.365a9.014 9.014 0 0 1 -7.365-7.365h1.365a1.5 1.5 0 0 0 0-3h-1.365a9.014 9.014 0 0 1 7.365-7.365v1.365a1.5 1.5 0 0 0 3 0v-1.365a9.01 9.01 0 0 1 7.365 7.365h-1.365a1.5 1.5 0 0 0 0 3h1.365a9.01 9.01 0 0 1 -7.365 7.365zm2.5-8.865a1.5 1.5 0 0 1 -1.5 1.5h-1v1a1.5 1.5 0 0 1 -3 0v-1h-1a1.5 1.5 0 0 1 0-3h1v-1a1.5 1.5 0 0 1 3 0v1h1a1.5 1.5 0 0 1 1.5 1.5z"/></svg>