<?xml version="1.0" encoding="UTF-8"?>
<svg xmlns="http://www.w3.org/2000/svg" id="Layer_1" data-name="Layer 1" viewBox="0 0 24 24" width="512" height="512"><path d="M19.5,10H16.819l.117-.942a3.388,3.388,0,0,0-.686-2.787,3.341,3.341,0,0,0-2.617-1.258H11.6L11.83,3H17V.013H9.172l-.579,5H3.367A3.342,3.342,0,0,0,.752,6.268,3.389,3.389,0,0,0,.065,9.061L2.053,24.013,19.5,24A4.505,4.505,0,0,0,24,19.5v-5A4.505,4.505,0,0,0,19.5,10ZM21,14.5V15H11v-.5A1.5,1.5,0,0,1,12.5,13h7A1.5,1.5,0,0,1,21,14.5ZM13.633,8.013a.353.353,0,0,1,.279.136.4.4,0,0,1,.078.341L13.8,10h-2.76l.224-1.987ZM3.089,8.149a.35.35,0,0,1,.278-.136H8.245L8.015,10h-4.8L3.01,8.489A.4.4,0,0,1,3.089,8.149ZM3.615,13H8.276A4.445,4.445,0,0,0,8,14.5v5a4.449,4.449,0,0,0,.28,1.513h-3.6ZM19.5,21h-7A1.5,1.5,0,0,1,11,19.5V18h2.5l3,2,3-2H21v1.5A1.5,1.5,0,0,1,19.5,21Z"/></svg>
