<?xml version="1.0" encoding="UTF-8"?>
<!-- Generator: Adobe Illustrator 25.2.1, SVG Export Plug-In . SVG Version: 6.00 Build 0)  -->
<svg xmlns="http://www.w3.org/2000/svg" xmlns:xlink="http://www.w3.org/1999/xlink" version="1.1" id="Layer_1" x="0px" y="0px" viewBox="0 0 24 24" style="enable-background:new 0 0 24 24;" xml:space="preserve" width="512" height="512">
<path d="M20.3,3H3.7L3.3,3.4C1.2,5.8,0,8.8,0,12c0,4.9,2,10,5.3,10c2.2,0,3.6-2.4,4.2-4h4.9c0.7,1.6,2,4,4.2,4C22,22,24,16.9,24,12  c0-3.2-1.2-6.2-3.3-8.6L20.3,3z M18.7,19c-0.4-0.1-1.3-1.5-1.8-3l-0.3-1H7.4l-0.3,1c-0.4,1.4-1.3,2.8-1.7,3C4.7,18.9,3,16.4,3,12  c0-2.2,0.7-4.3,2.1-6H19c1.3,1.7,2,3.8,2,6C21,16.4,19.3,18.9,18.7,19z"/>
<polygon points="10,7 7,7 7,9 5,9 5,12 7,12 7,14 10,14 10,12 12,12 12,9 10,9 "/>
<circle cx="17" cy="10" r="2"/>
</svg>
