<?xml version="1.0" encoding="UTF-8"?>
<!-- Generator: Adobe Illustrator 26.0.1, SVG Export Plug-In . SVG Version: 6.00 Build 0)  -->
<svg xmlns="http://www.w3.org/2000/svg" xmlns:xlink="http://www.w3.org/1999/xlink" version="1.1" id="Capa_1" x="0px" y="0px" viewBox="0 0 24 24" style="enable-background:new 0 0 24 24;" xml:space="preserve" width="512" height="512">
<path d="M22.776,8.049c-0.505-1.216-1.529-2.528-2.333-2.943c0.654,1.282,1.033,2.569,1.178,3.529c0,0.002,0.001,0.007,0.002,0.019  c-1.315-3.277-3.545-4.599-5.366-7.476c-0.092-0.146-0.184-0.291-0.274-0.445c-0.046-0.079-0.088-0.159-0.128-0.241  c-0.075-0.146-0.134-0.3-0.173-0.46c0.001-0.016-0.011-0.029-0.026-0.031c-0.007-0.002-0.015-0.002-0.022,0  c-0.002,0.001-0.004,0.002-0.006,0.003c-0.003,0.001-0.033,0.015-0.067,0.035C13.085,1.523,12,4.076,11.692,5.856  c-0.799,0.045-1.581,0.245-2.304,0.588c-0.136,0.067-0.2,0.227-0.147,0.369c0.053,0.152,0.219,0.233,0.371,0.181  c0.008-0.003,0.017-0.006,0.025-0.01c0.738-0.334,1.55-0.531,2.362-0.539c1.084-0.011,2.173,0.293,3.093,0.867  c0.842,0.521,1.541,1.244,2.034,2.104c-0.621-0.436-1.733-0.867-2.804-0.681c4.183,2.091,3.06,9.292-2.736,9.02  c-0.707-0.033-1.42-0.2-2.051-0.525c-1.42-0.734-2.593-2.121-2.739-3.805c0,0,0.537-2,3.844-2c0.357,0,1.379-0.997,1.398-1.287  c-0.004-0.095-2.028-0.9-2.817-1.677C8.798,8.045,8.598,7.845,8.421,7.695C8.325,7.614,8.224,7.538,8.12,7.467  C7.855,6.54,7.843,5.559,8.087,4.625c-1.71,0.787-2.805,2.163-2.805,2.163C4.821,6.205,4.854,4.278,4.88,3.876  C4.875,3.851,4.536,4.052,4.492,4.082c-0.407,0.29-0.787,0.616-1.136,0.974C2.958,5.459,2.595,5.894,2.27,6.358  c0,0.001,0,0.001-0.001,0.002c0-0.001,0-0.001,0.001-0.002c-0.748,1.06-1.278,2.257-1.56,3.523c-0.159,0.715-0.274,1.459-0.314,2.19  c-0.005,0.101-0.009,0.201-0.009,0.302C0.387,18.794,5.593,24,12.016,24c5.752,0,10.527-4.175,11.462-9.66  c0.02-0.149,0.035-0.298,0.053-0.449C23.762,11.898,23.505,9.802,22.776,8.049z"/>















</svg>
