<?xml version="1.0" encoding="UTF-8"?>
<!-- Generator: Adobe Illustrator 25.0.0, SVG Export Plug-In . SVG Version: 6.00 Build 0)  -->
<svg xmlns="http://www.w3.org/2000/svg" xmlns:xlink="http://www.w3.org/1999/xlink" version="1.1" id="Bold" x="0px" y="0px" viewBox="0 0 512 512" style="enable-background:new 0 0 512 512;" xml:space="preserve" width="512" height="512">
<path d="M282.453,1.344c-21.733-2.222-43.659-1.691-65.259,1.579c-16.649,2.807-27.87,18.578-25.063,35.227  c0.352,2.152,1.639,6.33,1.639,6.33c4.592,14.844,19.446,24.012,34.773,21.461c9.095-1.29,18.27-1.939,27.456-1.941v384  c-9.186-0.003-18.361-0.651-27.456-1.941c-15.327-2.551-30.182,6.617-34.773,21.461l-0.789,2.688  c-4.879,16.089,4.209,33.088,20.298,37.967c1.187,0.36,2.395,0.647,3.617,0.86c12.941,1.972,26.013,2.964,39.104,2.965  c141.385,0.142,256.115-114.358,256.257-255.743C512.388,124.917,413.104,14.784,282.453,1.344z"/>
<path d="M64.128,364.309l-2.539,1.451c-14.712,8.163-20.021,26.707-11.858,41.419c0.608,1.097,1.284,2.155,2.023,3.168  c12.764,16.845,27.545,32.062,44.011,45.312c13.334,10.28,32.477,7.805,42.757-5.529c0.74-0.96,3.537-5.501,3.537-5.501  c7.864-13.153,4.782-30.096-7.211-39.637c-11.668-9.503-22.179-20.343-31.317-32.299C94.35,360.425,77.508,356.841,64.128,364.309z"/>
<path d="M142.059,67.413l-1.493-2.496c-8.621-14.462-27.333-19.197-41.795-10.577c-1.041,0.621-2.045,1.303-3.005,2.043  c-16.488,13.247-31.284,28.473-44.053,45.333c-9.913,13.595-6.928,32.651,6.667,42.564c1.013,0.739,5.621,3.452,5.621,3.452  c13.385,7.481,30.241,3.896,39.424-8.384c9.162-11.949,19.687-22.788,31.36-32.299C146.807,97.533,149.918,80.58,142.059,67.413z"/>
<path d="M64,256c0.005-7.521,0.44-15.035,1.301-22.507c1.961-15.199-7.635-29.502-22.443-33.451l-2.837-0.747  c-16.513-4.194-33.299,5.792-37.493,22.305c-0.364,1.433-0.625,2.891-0.779,4.362c-2.332,19.986-2.332,40.174,0,60.16  c1.779,16.944,16.957,29.237,33.9,27.458c1.518-0.159,7.337-1.56,7.337-1.56c14.796-3.948,24.383-18.242,22.421-33.429  C64.501,271.095,64.031,263.552,64,256z"/>
</svg>
