<?xml version="1.0" encoding="UTF-8"?>
<!-- Generator: Adobe Illustrator 26.0.1, SVG Export Plug-In . SVG Version: 6.00 Build 0)  -->
<svg xmlns="http://www.w3.org/2000/svg" xmlns:xlink="http://www.w3.org/1999/xlink" version="1.1" id="Capa_1" x="0px" y="0px" viewBox="0 0 24 24" style="enable-background:new 0 0 24 24;" xml:space="preserve" width="512" height="512">
<g>
	<path d="M21.055,7.814C17.513,1.404,7.118,0,7.118,0s4.798,5.34-1.334,9.567c-3.875,2.666-5.41,6.13-3.75,9.914   c1.27,2.899,3.96,4.076,6.861,4.519c-0.745-1.434-0.932-3.505-0.381-5.628c0.055-0.212,0.116-0.434,0.186-0.635   c0.813,1.258,2.147,1.946,3.449,1.628c1.783-0.424,2.829-2.581,2.342-4.798c-0.111-0.481-0.292-0.943-0.536-1.372   c0.07,0.017,0.14,0.023,0.212,0.047c2.225,0.635,3.301,3.962,2.403,7.435c-0.266,1.052-0.715,2.049-1.326,2.945   c3.82-1.23,6.361-4.311,7.06-7.056C23.041,13.709,22.482,10.38,21.055,7.814z"/>
</g>















</svg>
