<svg id="Layer_1" height="512" viewBox="0 0 24 24" width="512" xmlns="http://www.w3.org/2000/svg" data-name="Layer 1"><path d="m12 10.5a1.5 1.5 0 1 1 1.5 1.5 1.5 1.5 0 0 1 -1.5-1.5zm4.5-1.5a1.5 1.5 0 1 0 -1.5-1.5 1.5 1.5 0 0 0 1.5 1.5zm-6 6a1.5 1.5 0 1 0 -1.5-1.5 1.5 1.5 0 0 0 1.5 1.5zm13.341-11.447-.075.209c-1.488 4.126-2.906 8.051-5.823 11.538a13.989 13.989 0 0 1 -4.772 8.7h-4.171v-3.333l-1.773-1.773-2.027 2.026-2.12-2.12 2.026-2.027-1.773-1.773h-3.333v-4.171a13.211 13.211 0 0 1 8.766-4.829c3.47-2.88 7.372-4.288 11.472-5.766l.209-.075a2.652 2.652 0 0 1 3.394 3.394zm-3.073-.321c-4.356 1.573-8.133 3.008-11.368 6.24a24.084 24.084 0 0 0 -3.16 4.2l4.088 4.088a24.242 24.242 0 0 0 4.2-3.159c3.232-3.236 4.672-7.013 6.24-11.369z"/></svg>