<?xml version="1.0" encoding="UTF-8"?>
<svg xmlns="http://www.w3.org/2000/svg" id="Layer_1" data-name="Layer 1" viewBox="0 0 24 24" width="512" height="512"><path d="M16.728,18.806a1.731,1.731,0,0,1,.109,1.67l-1.616,3.465L12.5,22.674,13.282,21H12.74a1.739,1.739,0,0,1-1.554-2.521l1.824-3.65,2.683,1.342L14.778,18h.482A1.734,1.734,0,0,1,16.728,18.806ZM22.5,9A1.5,1.5,0,1,0,24,10.5,1.5,1.5,0,0,0,22.5,9Zm0-6A1.5,1.5,0,1,0,21,1.5,1.5,1.5,0,0,0,22.5,3ZM17,6.5A1.5,1.5,0,1,0,18.5,5,1.5,1.5,0,0,0,17,6.5ZM11,3a7.912,7.912,0,0,1,1.472.137A10.75,10.75,0,0,0,9.266,8.443,7.7,7.7,0,0,1,13.1,7.054,9.559,9.559,0,0,1,16.326,4l2.313-1.32L16.311,1.383A10.978,10.978,0,0,0,2.174,17.537a7,7,0,0,1,1.582-3.158A7.917,7.917,0,0,1,3,11,8.009,8.009,0,0,1,11,3Zm8.263,10.053a5.762,5.762,0,0,0-11.226,1.04A5,5,0,0,0,9,24V21a2,2,0,0,1,0-4h2V14.75A2.752,2.752,0,0,1,13.75,12,2.723,2.723,0,0,1,16.5,14.57L16.568,16H18.5a2.491,2.491,0,0,1,.5,4.934v3.041a5.5,5.5,0,0,0,.263-10.922Z"/></svg>
