<?xml version="1.0" encoding="UTF-8"?>
<!-- Generator: Adobe Illustrator 26.0.1, SVG Export Plug-In . SVG Version: 6.00 Build 0)  -->
<svg xmlns="http://www.w3.org/2000/svg" xmlns:xlink="http://www.w3.org/1999/xlink" version="1.1" id="Capa_1" x="0px" y="0px" viewBox="0 0 24 24" style="enable-background:new 0 0 24 24;" xml:space="preserve" width="512" height="512">
<g>
	<g>
		<path d="M21.363,21.625c0,0,0.689,0.462,1.36,0.462c0.68,0,1.278-0.485,1.278-0.485v-2.379c0,0-0.603,0.435-1.269,0.435    c-0.671,0-1.369-0.467-1.369-0.467l-6.934-4.106l0.634,2.81l6.299,3.725L21.363,21.625z M2.637,14.298    c0,0-0.671-0.467-1.369-0.467C0.571,13.831,0,14.32,0,14.32v2.37c0,0,0.571-0.421,1.269-0.421c0.698,0,1.369,0.467,1.369,0.467    l5.728,3.39l0.489-2.144l-6.218-3.671V14.298z M21.363,18.512c0,0,0.689,0.467,1.36,0.467c0.68,0,1.278-0.485,1.278-0.485v-2.37    c0,0-0.603,0.426-1.269,0.426c-0.671,0-1.369-0.453-1.369-0.453l-7.758-4.6l0.644,2.81l7.115,4.215V18.512z M2.637,11.202    c0,0-0.671-0.471-1.369-0.471C0.571,10.731,0,11.221,0,11.221v2.37c0,0,0.571-0.426,1.269-0.426c0.698,0,1.369,0.467,1.369,0.467    l6.353,3.761l0.489-2.148l-6.843-4.047V11.202z M21.363,15.417c0,0,0.689,0.467,1.36,0.467c0.68,0,1.278-0.485,1.278-0.485v-2.375    c0,0-0.603,0.431-1.269,0.431c-0.671,0-1.369-0.467-1.369-0.467l-8.579-5.076l0.644,2.81l7.931,4.695H21.363z M2.637,8.098    c0,0-0.671-0.467-1.369-0.467C0.571,7.631,0,8.116,0,8.116v2.366c0,0,0.571-0.426,1.269-0.426c0.698,0,1.369,0.467,1.369,0.467    l6.979,4.133l0.485-2.144L2.642,8.094L2.637,8.098z M12.607,7.147l8.755,5.166c0,0,0.689,0.467,1.36,0.467    c0.68,0,1.278-0.485,1.278-0.485V9.934c0,0-0.603,0.426-1.269,0.426c-0.671,0-1.369-0.462-1.369-0.462l-6.77-4.015l-0.471-1.795    c0-0.077,0.068-0.113,0.091-0.118l1.151-0.363c0.154,0,0.24,0.136,0.24,0.245l0.063,0.127c0.036,0.023,0.227-0.032,0.227-0.068    V3.208c0-0.471-0.372-0.888-0.875-0.888h-1.147c0,0-0.163-0.408-0.648-0.408h-2.175c-0.58,0-0.716,0.544-0.716,0.544L8.819,8.642    L2.637,4.994c0,0-0.671-0.467-1.369-0.467C0.571,4.527,0,5.017,0,5.017v2.37c0,0,0.571-0.426,1.269-0.426    c0.698,0,1.369,0.467,1.369,0.467l7.595,4.5l1.736-7.582l0.634,2.796L12.607,7.147z"/>
	</g>
</g>















</svg>
