<?xml version="1.0" encoding="UTF-8"?>
<!-- Generator: Adobe Illustrator 26.0.1, SVG Export Plug-In . SVG Version: 6.00 Build 0)  -->
<svg xmlns="http://www.w3.org/2000/svg" xmlns:xlink="http://www.w3.org/1999/xlink" version="1.1" id="Capa_1" x="0px" y="0px" viewBox="0 0 24 24" style="enable-background:new 0 0 24 24;" xml:space="preserve" width="512" height="512">
<g>
	<g>
		<path d="M5.053,15.158c0,1.395-1.131,2.526-2.526,2.526C1.131,17.684,0,16.553,0,15.158c0-1.395,1.131-2.526,2.526-2.526h2.526    V15.158z"/>
		<path d="M6.316,15.158c0-1.395,1.131-2.526,2.526-2.526s2.526,1.131,2.526,2.526v6.316c0,1.395-1.131,2.526-2.526,2.526    s-2.526-1.131-2.526-2.526V15.158z"/>
	</g>
	<g>
		<path d="M8.842,5.053c-1.395,0-2.526-1.131-2.526-2.526C6.316,1.131,7.447,0,8.842,0s2.526,1.131,2.526,2.526v2.526H8.842z"/>
		<path d="M8.842,6.316c1.395,0,2.526,1.131,2.526,2.526s-1.131,2.526-2.526,2.526H2.526C1.131,11.368,0,10.237,0,8.842    s1.131-2.526,2.526-2.526H8.842z"/>
	</g>
	<g>
		<path d="M18.947,8.842c0-1.395,1.131-2.526,2.526-2.526C22.869,6.316,24,7.447,24,8.842s-1.131,2.526-2.526,2.526h-2.526V8.842z"/>
		<path d="M17.684,8.842c0,1.395-1.131,2.526-2.526,2.526s-2.526-1.131-2.526-2.526V2.526C12.632,1.131,13.763,0,15.158,0    s2.526,1.131,2.526,2.526V8.842z"/>
	</g>
	<g>
		<path d="M15.158,18.947c1.395,0,2.526,1.131,2.526,2.526c0,1.395-1.131,2.526-2.526,2.526s-2.526-1.131-2.526-2.526v-2.526H15.158    z"/>
		<path d="M15.158,17.684c-1.395,0-2.526-1.131-2.526-2.526c0-1.395,1.131-2.526,2.526-2.526h6.316c1.395,0,2.526,1.131,2.526,2.526    c0,1.395-1.131,2.526-2.526,2.526H15.158z"/>
	</g>
</g>















</svg>
