<svg id="Layer_1" height="512" viewBox="0 0 24 24" width="512" xmlns="http://www.w3.org/2000/svg" data-name="Layer 1"><path d="m17.024 12a12.231 12.231 0 0 0 3.941-7.029 4.306 4.306 0 0 0 -1-3.448 4.378 4.378 0 0 0 -3.32-1.523h-9.264a4.38 4.38 0 0 0 -3.319 1.524 4.307 4.307 0 0 0 -1 3.451 12.2 12.2 0 0 0 3.938 7.025 12.2 12.2 0 0 0 -3.936 7.025 4.307 4.307 0 0 0 1 3.451 4.38 4.38 0 0 0 3.317 1.524h9.264a4.378 4.378 0 0 0 3.318-1.523 4.3 4.3 0 0 0 1-3.447 12.23 12.23 0 0 0 -3.939-7.03zm.666 8.519a1.381 1.381 0 0 1 -1.045.481h-9.264a1.382 1.382 0 0 1 -1.046-.48 1.3 1.3 0 0 1 -.307-1.048c.337-2.244 1.746-4.363 4.188-6.294a1.5 1.5 0 0 0 0-2.354c-2.442-1.932-3.851-4.051-4.188-6.295a1.3 1.3 0 0 1 .307-1.048 1.382 1.382 0 0 1 1.046-.481h9.264a1.381 1.381 0 0 1 1.045.481 1.3 1.3 0 0 1 .31 1.045c-.335 2.235-1.745 4.354-4.191 6.3a1.5 1.5 0 0 0 0 2.348c2.446 1.946 3.856 4.065 4.191 6.3a1.294 1.294 0 0 1 -.31 1.045z"/><path d="m12.836 15.213-.294-.235a.871.871 0 0 0 -1.081 0l-.3.238a6.547 6.547 0 0 0 -2.1 2.592.869.869 0 0 0 .807 1.192h4.263a.868.868 0 0 0 .8-1.194 6.59 6.59 0 0 0 -2.095-2.593z"/></svg>