<?xml version="1.0" encoding="UTF-8"?>
<svg xmlns="http://www.w3.org/2000/svg" id="Isolation_Mode" data-name="Isolation Mode" viewBox="0 0 24 24" width="512" height="512"><path d="M24,12a11.93,11.93,0,0,0-2.532-7.346l1.593-1.593L20.939.939,19.346,2.532a11.922,11.922,0,0,0-14.692,0L3.061.939.939,3.061,2.532,4.654a11.922,11.922,0,0,0,0,14.692L.939,20.939l2.122,2.122,1.593-1.593a11.922,11.922,0,0,0,14.692,0l1.593,1.593,2.122-2.122-1.593-1.593A11.93,11.93,0,0,0,24,12Zm-3,0a8.942,8.942,0,0,1-1.672,5.206L16.65,14.529a5.121,5.121,0,0,0,0-5.058l2.678-2.677A8.942,8.942,0,0,1,21,12ZM9.682,12A2.318,2.318,0,1,1,12,14.318,2.321,2.321,0,0,1,9.682,12ZM12,3a8.942,8.942,0,0,1,5.206,1.672L14.529,7.35a5.121,5.121,0,0,0-5.058,0L6.794,4.672A8.942,8.942,0,0,1,12,3ZM3,12A8.942,8.942,0,0,1,4.672,6.794L7.35,9.471a5.121,5.121,0,0,0,0,5.058L4.672,17.206A8.942,8.942,0,0,1,3,12Zm9,9a8.942,8.942,0,0,1-5.206-1.672L9.471,16.65a5.121,5.121,0,0,0,5.058,0l2.677,2.678A8.942,8.942,0,0,1,12,21Z"/></svg>
