<?xml version="1.0" encoding="UTF-8"?>
<svg xmlns="http://www.w3.org/2000/svg" id="Layer_1" data-name="Layer 1" viewBox="0 0 24 24" width="512" height="512"><path d="M15.446,6.7l-1.542.89a4.467,4.467,0,0,0-1.4-.815V5h-3V6.776a4.467,4.467,0,0,0-1.4.815L6.554,6.7l-1.5,2.6,1.529.883a4.072,4.072,0,0,0,0,1.636L5.054,12.7l1.5,2.6,1.542-.89a4.467,4.467,0,0,0,1.4.815V17h3V15.224a4.467,4.467,0,0,0,1.4-.815l1.542.89,1.5-2.6-1.529-.883a4.072,4.072,0,0,0,0-1.636L16.946,9.3ZM11,12.5A1.5,1.5,0,1,1,12.5,11,1.5,1.5,0,0,1,11,12.5Zm12.871-.108c-.223-.5-.446-1.017-.669-1.531a31.085,31.085,0,0,0-3.32-6.424A11.041,11.041,0,0,0,.389,8.1,10.94,10.94,0,0,0,2.65,18.061a1.491,1.491,0,0,1,.35.954V24H17V21h.893a3.514,3.514,0,0,0,3.467-3.022L21.7,15.5H24V12.683Zm-4.785.108-.7,5.068a.5.5,0,0,1-.5.432H14v3H6V19.015a4.5,4.5,0,0,0-1.047-2.877,7.979,7.979,0,0,1-1.668-7.26,8.045,8.045,0,0,1,14.231-2.6,30.375,30.375,0,0,1,2.934,5.777l.193.444Z"/></svg>
