<svg id="Layer_1" height="512" viewBox="0 0 24 24" width="512" xmlns="http://www.w3.org/2000/svg" data-name="Layer 1"><path d="m24 14.562a6.445 6.445 0 0 0 -.561-2.641l-2.776-6.249a4.505 4.505 0 0 0 -4.113-2.672h-1.8l-.507-2.03a1.281 1.281 0 0 0 -2.486 0l-.507 2.03h-7.75a3.5 3.5 0 0 0 -3.5 3.5v13.5h3.05a2.577 2.577 0 0 0 -.05.5 2.5 2.5 0 0 0 5 0 2.577 2.577 0 0 0 -.05-.5h8.1a2.577 2.577 0 0 0 -.05.5 2.5 2.5 0 0 0 5 0 2.577 2.577 0 0 0 -.05-.5h3.05zm-3 2.438h-18v-10.5a.5.5 0 0 1 .5-.5h12.5v7h4.636l.062.14a3.478 3.478 0 0 1 .3 1.422zm-10-7h2v3h-2v2h-3v-2h-2v-3h2v-2h3z"/></svg>