<?xml version="1.0" encoding="UTF-8"?>
<!-- Generator: Adobe Illustrator 26.0.1, SVG Export Plug-In . SVG Version: 6.00 Build 0)  -->
<svg xmlns="http://www.w3.org/2000/svg" xmlns:xlink="http://www.w3.org/1999/xlink" version="1.1" id="Capa_1" x="0px" y="0px" viewBox="0 0 24 24" style="enable-background:new 0 0 24 24;" xml:space="preserve" width="512" height="512">
<g>
	<polygon points="14.301,9.164 14.301,9.164 14.301,9.164  "/>
	<path d="M23.997,6.648c-0.008-1.285-0.048-2.629-0.643-3.799c-0.73-1.434-2.129-2.414-3.701-2.697   c-0.99-0.178-2.014-0.151-3.016-0.151H7.365c-1.004,0-2.024-0.027-3.016,0.151C2.771,0.436,1.379,1.412,0.648,2.849   C0.163,3.8,0.044,4.872,0.015,5.924L0.003,16.491c0,1.049-0.035,2.123,0.151,3.16c0.28,1.561,1.277,2.979,2.697,3.702   c1.433,0.73,3.097,0.645,4.658,0.645c0,0,8.983,0,8.983,0c1.542,0,3.234,0.08,4.658-0.645c1.423-0.724,2.415-2.132,2.697-3.702   c0.177-0.984,0.151-1.995,0.151-2.991L23.997,6.648z M20.868,9.604c-0.034,0.157-0.169,0.295-0.289,0.392   c-0.214,0.173-0.432,0.341-0.654,0.503c0,0-4.198,3.05-4.198,3.05l1.603,4.935c0.085,0.262,0.163,0.526,0.234,0.791   c0.051,0.193,0.1,0.541-0.142,0.629c-0.178,0.065-0.399-0.033-0.547-0.129c-0.231-0.15-0.458-0.305-0.68-0.467   c0,0-4.198-3.05-4.198-3.05l-4.198,3.05c-0.223,0.162-0.449,0.317-0.68,0.467c-0.13,0.084-0.304,0.171-0.463,0.158   c-0.101-0.008-0.194-0.073-0.234-0.17c-0.062-0.149-0.033-0.338,0.007-0.489c0.071-0.266,0.149-0.53,0.234-0.791   c0,0,1.603-4.935,1.603-4.935l-4.198-3.05c-0.223-0.162-0.441-0.329-0.654-0.503C3.293,9.9,3.156,9.759,3.119,9.605   c-0.024-0.1,0.009-0.207,0.089-0.275C3.331,9.225,3.52,9.194,3.676,9.186c0.275-0.015,0.55-0.022,0.825-0.022H9.69l1.604-4.935   c0.085-0.262,0.177-0.521,0.276-0.778c0.056-0.144,0.145-0.317,0.281-0.4c0.088-0.054,0.199-0.055,0.289,0   c0.138,0.084,0.225,0.255,0.281,0.4c0.099,0.257,0.191,0.516,0.276,0.778l1.604,4.935l5.189,0c0.275,0,0.55,0.007,0.825,0.022   c0.155,0.008,0.346,0.04,0.468,0.144C20.87,9.405,20.889,9.506,20.868,9.604z"/>
</g>















</svg>
