<svg id="Layer_1" height="512" viewBox="0 0 24 24" width="512" xmlns="http://www.w3.org/2000/svg" data-name="Layer 1"><path d="m8.474 0a5.5 5.5 0 1 0 5.5 5.5 5.506 5.506 0 0 0 -5.5-5.5zm0 8a2.5 2.5 0 1 1 2.5-2.5 2.5 2.5 0 0 1 -2.5 2.5z"/><path d="m8.972 14.351a1.5 1.5 0 0 1 -1.185 1.759 5.935 5.935 0 0 0 -4.787 5.819v.571a1.5 1.5 0 0 1 -3 0v-.571a8.941 8.941 0 0 1 7.213-8.764 1.5 1.5 0 0 1 1.759 1.186z"/><path d="m17 10a7 7 0 1 0 7 7 7 7 0 0 0 -7-7zm3.244 10.245a1.5 1.5 0 0 1 -2.365.316l-2.44-2.44a1.5 1.5 0 0 1 -.439-1.061v-3.5a1.5 1.5 0 0 1 3 0v2.878l1.938 1.938a1.56 1.56 0 0 1 .306 1.869z"/></svg>