<?xml version="1.0" encoding="UTF-8"?>
<!-- Generator: Adobe Illustrator 26.0.1, SVG Export Plug-In . SVG Version: 6.00 Build 0)  -->
<svg xmlns="http://www.w3.org/2000/svg" xmlns:xlink="http://www.w3.org/1999/xlink" version="1.1" id="Capa_1" x="0px" y="0px" viewBox="0 0 24 24" style="enable-background:new 0 0 24 24;" xml:space="preserve" width="512" height="512">
<g>
	<g>
		<path d="M11.985,0C8.661,0,5.847,1.16,3.544,3.48C1.181,5.88,0,8.72,0,12c0,3.281,1.181,6.101,3.544,8.46    C5.907,22.821,8.721,24,11.985,24c3.304,0,6.168-1.19,8.591-3.57C22.858,18.17,24,15.36,24,12c0-3.36-1.162-6.2-3.484-8.52    C18.193,1.16,15.349,0,11.985,0z M12.015,2.16c2.724,0,5.036,0.96,6.939,2.88c1.922,1.9,2.883,4.22,2.883,6.96    c0,2.76-0.941,5.05-2.823,6.87c-1.983,1.961-4.316,2.94-6.999,2.94c-2.684,0-4.996-0.971-6.938-2.91    c-1.943-1.94-2.914-4.241-2.914-6.9c0-2.66,0.981-4.98,2.944-6.96C6.989,3.12,9.291,2.16,12.015,2.16z"/>
		<path d="M17.198,12.109c-0.228,0-0.433,0.137-0.519,0.347l-0.192,0.461l-0.534-4.492c-0.035-0.286-0.28-0.501-0.57-0.496    c-0.288,0.006-0.526,0.229-0.55,0.517l-0.206,2.489l-0.252-3.331c-0.023-0.292-0.266-0.52-0.559-0.52    c-0.294-0.001-0.539,0.226-0.562,0.518l-0.169,2.174l-0.287-4.561c-0.019-0.297-0.264-0.528-0.562-0.528    c-0.297,0.001-0.543,0.232-0.561,0.529l-0.247,4.05L11.22,6.059c-0.019-0.297-0.264-0.526-0.56-0.526    c-0.297,0-0.542,0.229-0.562,0.525l-0.255,3.88l-0.2-2.756C9.62,6.889,9.379,6.662,9.086,6.66    c-0.294-0.002-0.54,0.222-0.565,0.515L8.146,11.52L8.06,10.929c-0.037-0.245-0.227-0.437-0.472-0.474    c-0.246-0.037-0.485,0.09-0.591,0.314l-0.637,1.34H4.234v1.124h2.481c0.211,0,0.406-0.119,0.501-0.307l0.52,3.538    c0.042,0.282,0.289,0.489,0.573,0.48c0.285-0.009,0.519-0.23,0.544-0.513l0.181-2.108l0.275,3.79    c0.023,0.295,0.268,0.523,0.563,0.522c0.296-0.001,0.54-0.231,0.559-0.525l0.225-3.408l0.231,3.549    c0.019,0.296,0.265,0.526,0.562,0.525c0.297,0,0.542-0.232,0.56-0.528l0.238-3.894l0.218,3.473    c0.018,0.294,0.262,0.524,0.557,0.527c0.295,0.003,0.542-0.226,0.564-0.519l0.22-2.837l0.237,3.117    c0.022,0.293,0.264,0.519,0.557,0.52c0.294,0.002,0.539-0.223,0.562-0.516l0.331-4.014l0.129,1.08    c0.03,0.255,0.227,0.455,0.481,0.491c0.254,0.035,0.498-0.105,0.596-0.342l0.872-2.1h2.443V12.11L17.198,12.109L17.198,12.109z     M13.424,12.362h-1.062v1.062c0,0.2-0.162,0.362-0.362,0.362c-0.2,0-0.363-0.162-0.363-0.362v-1.062h-1.061    c-0.2,0-0.363-0.162-0.363-0.361c0-0.2,0.163-0.363,0.363-0.363h1.061v-1.062c0-0.2,0.163-0.362,0.363-0.362    c0.2,0,0.361,0.162,0.361,0.362v1.062h1.062c0.2,0,0.362,0.162,0.362,0.363C13.786,12.2,13.623,12.362,13.424,12.362z"/>
	</g>
</g>















</svg>
