<?xml version="1.0" encoding="UTF-8"?>
<svg xmlns="http://www.w3.org/2000/svg" id="Isolation_Mode" data-name="Isolation Mode" viewBox="0 0 24 24" width="512" height="512"><circle cx="16" cy="8" r="2"/><circle cx="9" cy="8" r="2"/><circle cx="8" cy="15" r="2"/><path d="M12.5.007A12,12,0,1,0,12.083,24c.338,0,.669-.022,1-.049l1.389-.115-.043-4.818a2.86,2.86,0,0,1,4.881-2.047l.1.1a2.377,2.377,0,0,0,2.19.644,2.347,2.347,0,0,0,1.709-1.463A11.919,11.919,0,0,0,24.08,11.7,12.156,12.156,0,0,0,12.5.007Zm8.285,14.286a5.861,5.861,0,0,0-9.359,4.751l.017,1.934A9,9,0,0,1,12.082,3c.1,0,.211,0,.318,0a9.114,9.114,0,0,1,8.68,8.768A8.91,8.91,0,0,1,20.787,14.293Z"/></svg>
