<?xml version="1.0" encoding="UTF-8"?>
<svg xmlns="http://www.w3.org/2000/svg" id="Layer_1" data-name="Layer 1" viewBox="0 0 24 24" width="512" height="512"><path d="M8.179,15.985l2.768,1.159L8.073,24.015,5.305,22.856Zm2.874,6.871,2.768,1.159,2.873-6.871-2.767-1.159ZM.023,14.387h0C.022,14.394.022,14.4.023,14.387ZM17.584,5.1A8.294,8.294,0,0,0,10.091,0,7.96,7.96,0,0,0,2,8a11.943,11.943,0,0,0,.133,1.893A5.765,5.765,0,0,0,0,14.387a6.15,6.15,0,0,0,4.254,5.8l1.159-2.772-.741-.272a3.225,3.225,0,0,1-1.658-2.814A2.89,2.89,0,0,1,4.527,11.9l1.2-.613-.479-1.258A5.918,5.918,0,0,1,5,8a4.935,4.935,0,0,1,5.091-5,5.4,5.4,0,0,1,4.971,3.927l.308,1.038L16.452,8a4.534,4.534,0,0,1,4.568,4.479,5.012,5.012,0,0,1-1.808,3.827l-1.681,4.022A8.05,8.05,0,0,0,24.02,12.48,7.715,7.715,0,0,0,17.584,5.1ZM24.02,12.48c0-.093.016.088,0,0Z"/></svg>
