<?xml version="1.0" encoding="UTF-8"?>
<svg xmlns="http://www.w3.org/2000/svg" id="Layer_1" data-name="Layer 1" viewBox="0 0 24 24" width="512" height="512"><path d="M17.63,13.573A5.487,5.487,0,0,0,7.006,15.255,4.5,4.5,0,0,0,8.5,24h8.25a5.251,5.251,0,0,0,.88-10.427ZM16.75,21H8.5a1.5,1.5,0,0,1,0-3H10V15.5a2.488,2.488,0,0,1,4.958-.312l.166,1.312H16.75a2.25,2.25,0,0,1,0,4.5ZM24,8.863l-.4.865a6.838,6.838,0,0,1-2.7,3.024c-.018.01-.038.016-.056.027a7.2,7.2,0,0,0-1.808-.911,7.54,7.54,0,0,0-4.258-3.49l-.484-.6a7.474,7.474,0,0,0-3.592-2.436c.028-.146.049-.277.086-.44A6.819,6.819,0,0,1,13.84.965,6.147,6.147,0,0,1,17.159,0h1.39A5.495,5.495,0,0,0,24,8.863ZM2,19.294a6.5,6.5,0,0,0,.079.963A4.459,4.459,0,0,1,0,16.5a4.508,4.508,0,0,1,3.006-4.245A5.506,5.506,0,0,1,8.5,7a5.409,5.409,0,0,1,2.943.874,7.476,7.476,0,0,0-6.277,5.841A6.513,6.513,0,0,0,2,19.294Z"/></svg>
