<?xml version="1.0" encoding="UTF-8"?>
<svg xmlns="http://www.w3.org/2000/svg" id="Bold" viewBox="0 0 24 24" width="512" height="512"><path d="M14.5,7h8a1.5,1.5,0,0,0,0-3h-8a1.5,1.5,0,0,0,0,3Z"/><path d="M5.5,0A5.5,5.5,0,1,0,11,5.5,5.506,5.506,0,0,0,5.5,0Zm0,8A2.5,2.5,0,1,1,8,5.5,2.5,2.5,0,0,1,5.5,8Z"/><path d="M5.5,13A5.5,5.5,0,1,0,11,18.5,5.506,5.506,0,0,0,5.5,13Zm0,8A2.5,2.5,0,1,1,8,18.5,2.5,2.5,0,0,1,5.5,21Z"/><path d="M18.5,13A5.5,5.5,0,1,0,24,18.5,5.506,5.506,0,0,0,18.5,13Zm0,8A2.5,2.5,0,1,1,21,18.5,2.5,2.5,0,0,1,18.5,21Z"/></svg>
