<?xml version="1.0" encoding="UTF-8"?>
<!-- Generator: Adobe Illustrator 25.0.0, SVG Export Plug-In . SVG Version: 6.00 Build 0)  -->
<svg xmlns="http://www.w3.org/2000/svg" xmlns:xlink="http://www.w3.org/1999/xlink" version="1.1" id="Layer_1" x="0px" y="0px" viewBox="0 0 512 512" style="enable-background:new 0 0 512 512;" xml:space="preserve" width="512" height="512">
<path d="M255.668,511.885l150.667-147.364c83.577-82.846,84.169-217.758,1.323-301.334s-217.758-84.169-301.334-1.323  c-0.443,0.439-0.884,0.88-1.323,1.323c-83.211,83.213-83.21,218.126,0.002,301.337c0.084,0.084,0.169,0.169,0.253,0.253  L255.668,511.885z M150.216,108.38c58.76-57.732,153.196-56.898,210.928,1.862c56.922,57.936,57.025,150.767,0.232,208.829  L255.668,422.478L150.194,319.327c-58.251-58.245-58.256-152.685-0.011-210.936c0.004-0.004,0.007-0.007,0.011-0.011H150.216z   M223.706,245.815h-53.269v-63.923h53.269v-53.269h63.923v53.269h53.269v63.923h-53.269v53.269h-63.923V245.815z"/>
</svg>
