<?xml version="1.0" encoding="UTF-8"?>
<svg xmlns="http://www.w3.org/2000/svg" id="Layer_1" data-name="Layer 1" viewBox="0 0 24 24" width="512" height="512"><path d="M9,8.5a19.105,19.105,0,0,1,.548-2.382A9.61,9.61,0,0,0,10,4,3.827,3.827,0,0,0,6,0,3.827,3.827,0,0,0,2,4a9.61,9.61,0,0,0,.452,2.119A19.136,19.136,0,0,1,3,8.5a6.542,6.542,0,0,1-1.175,2.92A10.433,10.433,0,0,0,0,16.773a12.344,12.344,0,0,0,2.083,6.6L2.531,24H9.469l.448-.624A12.344,12.344,0,0,0,12,16.773a10.433,10.433,0,0,0-1.825-5.353A6.555,6.555,0,0,1,9,8.5ZM6,3c.71,0,1,.29,1,.922-.023.195-.213.9-.352,1.417A22.624,22.624,0,0,0,6.036,8H5.964a22.624,22.624,0,0,0-.615-2.661C5.21,4.824,5.02,4.117,5,4,5,3.29,5.29,3,6,3ZM7.856,21H4.144A9.183,9.183,0,0,1,3,16.773a7.864,7.864,0,0,1,1.423-3.854A18.836,18.836,0,0,0,5.434,11H6.566a18.836,18.836,0,0,0,1.011,1.919A7.864,7.864,0,0,1,9,16.773,9.184,9.184,0,0,1,7.856,21Zm14.319-9.58A6.555,6.555,0,0,1,21,8.5a19.105,19.105,0,0,1,.548-2.382A9.61,9.61,0,0,0,22,4a3.827,3.827,0,0,0-4-4,3.827,3.827,0,0,0-4,4,9.61,9.61,0,0,0,.452,2.119A19.136,19.136,0,0,1,15,8.5a6.542,6.542,0,0,1-1.175,2.92A10.433,10.433,0,0,0,12,16.773a12.344,12.344,0,0,0,2.083,6.6l.448.624h6.938l.448-.624A12.344,12.344,0,0,0,24,16.773,10.433,10.433,0,0,0,22.175,11.42ZM18,3c.71,0,1,.29,1,.922-.023.195-.213.9-.352,1.417A22.624,22.624,0,0,0,18.036,8h-.072a22.624,22.624,0,0,0-.615-2.661C17.21,4.824,17.02,4.117,17,4,17,3.29,17.29,3,18,3Zm1.856,18H16.144A9.183,9.183,0,0,1,15,16.773a7.864,7.864,0,0,1,1.423-3.854A18.836,18.836,0,0,0,17.434,11h1.132a18.836,18.836,0,0,0,1.011,1.919A7.864,7.864,0,0,1,21,16.773,9.184,9.184,0,0,1,19.856,21Z"/></svg>
