<?xml version="1.0" encoding="UTF-8"?>
<!-- Generator: Adobe Illustrator 26.0.1, SVG Export Plug-In . SVG Version: 6.00 Build 0)  -->
<svg xmlns="http://www.w3.org/2000/svg" xmlns:xlink="http://www.w3.org/1999/xlink" version="1.1" id="Capa_1" x="0px" y="0px" viewBox="0 0 24 24" style="enable-background:new 0 0 24 24;" xml:space="preserve" width="512" height="512">
<g>
	<path d="M8.219,15.772c-1.04,1.64-2.015,2.689-2.615,2.689c-0.075,0-0.225,0-0.3-0.075c-0.075-0.15-0.15-0.3-0.075-0.45   C5.304,17.337,6.504,16.512,8.219,15.772z"/>
	<path d="M11.133,8.894c-0.6-1.64-0.525-2.84-0.3-3.29c0.075-0.15,0.225-0.225,0.375-0.225c0.375,0,0.45,0.45,0.45,0.825   C11.583,7.103,11.433,8.069,11.133,8.894z"/>
	<path d="M11.733,11.658c0.372,0.67,1.039,1.413,1.342,1.781c-0.124-0.011-1.348,0.263-2.317,0.608   C11.133,13.373,11.583,12.108,11.733,11.658z"/>
	<path d="M13.082,13.448c-0.002-0.003-0.005-0.006-0.008-0.009C13.086,13.44,13.088,13.443,13.082,13.448z"/>
	<path d="M18.087,14.572c-0.075,0.3-0.45,0.6-1.125,0.45c-0.825-0.225-1.565-0.6-2.165-1.125c0.525-0.075,1.79-0.225,2.689-0.075   C17.787,13.897,18.162,14.122,18.087,14.572z"/>
	<path d="M19.736,0.3H4.264C1.865,0.3,0,2.165,0,4.554v14.882c0,2.39,1.94,4.254,4.264,4.264h15.472   c2.399,0,4.264-1.949,4.264-4.264V4.564C24,2.165,22.05,0.3,19.736,0.3z M19.38,15.003c-0.141,0.375-0.516,0.825-1.565,0.825   c-0.75,0-2.249-0.216-3.889-1.715c-1.424,0.225-2.839,0.675-3.739,0.975c-1.125,1.95-2.699,4.114-4.264,4.114   c-0.375,0-0.75-0.075-1.05-0.375c-0.3-0.225-0.45-0.675-0.375-1.05c0.225-1.35,2.84-2.54,4.039-2.989   c0.89-1.565,1.64-3.58,2.09-4.929c-0.825-1.865-1.05-3.655-0.525-4.554c0.225-0.375,0.6-0.6,1.05-0.6c1.19,0,1.64,1.115,1.64,2.24   c0,1.2-0.3,2.465-0.675,3.589c0.3,0.45,1.04,1.64,2.09,2.69c0.74-0.075,3.805-0.6,4.929,0.6   C19.436,14.122,19.577,14.647,19.38,15.003z"/>
</g>















</svg>
