<svg id="Layer_1" height="512" viewBox="0 0 24 24" width="512" xmlns="http://www.w3.org/2000/svg" data-name="Layer 1"><path d="m22.024 1.976c-3.524-3.529-12.647-2.153-17.424 2.624s-6.151 13.9-2.624 17.424a8.323 8.323 0 0 0 5.937 1.976 17.032 17.032 0 0 0 11.487-4.6c4.777-4.779 6.151-13.9 2.624-17.424zm-4.746 15.3a14.162 14.162 0 0 1 -8.489 3.677l-5.743-5.741a14.167 14.167 0 0 1 3.676-8.49 14.169 14.169 0 0 1 8.491-3.676l5.741 5.741a14.167 14.167 0 0 1 -3.676 8.491zm1.039-7.595-2.117 2.119-.939-.94-1.14 1.14.94.939-2.122 2.122-.939-.94-1.122 1.122.939.94-2.117 2.117-4-4 2.121-2.121.94.939 1.118-1.118-.94-.939 2.122-2.122.939.94 1.136-1.136-.936-.943 2.121-2.121z"/></svg>