<?xml version="1.0" encoding="UTF-8"?>
<svg xmlns="http://www.w3.org/2000/svg" id="Layer_1" data-name="Layer 1" viewBox="0 0 24 24" width="512" height="512"><path d="M23.258,4.947a11,11,0,0,0-9.317-3.91A3.234,3.234,0,0,0,13.3.5,3.336,3.336,0,0,0,10.537.155,15.717,15.717,0,0,0,1.153,8.109,15.954,15.954,0,0,0,.147,10.6,3.325,3.325,0,0,0,.5,13.337a3.293,3.293,0,0,0,.552.651,11.005,11.005,0,0,0,3.907,9.268,3.2,3.2,0,0,0,2.7.678,3.3,3.3,0,0,0,2.3-1.743l2.949-5.761.471.073L16.51,13.36l-.074-.459,5.757-2.952a3.3,3.3,0,0,0,1.74-2.3A3.2,3.2,0,0,0,23.258,4.947ZM3.015,11.483a12.83,12.83,0,0,1,8.421-8.466.344.344,0,0,1,.281.032.273.273,0,0,1,.132.2l1.457,9.08-.971.976-9.083-1.42a.287.287,0,0,1-.2-.135A.31.31,0,0,1,3.015,11.483Zm4.278,9.342a.284.284,0,0,1-.406.131A7.941,7.941,0,0,1,4.04,15.043l5.751.9ZM20.825,7.279,15.936,9.785l-.925-5.768a7.933,7.933,0,0,1,5.944,2.852.2.2,0,0,1,.038.185A.322.322,0,0,1,20.825,7.279Z"/></svg>
