<?xml version="1.0" encoding="UTF-8"?>
<svg xmlns="http://www.w3.org/2000/svg" id="Layer_1" data-name="Layer 1" viewBox="0 0 24 24" width="512" height="512"><path d="M23.991,12.772l-1.56-1.2c-.5-.386-1.3-.971-2.191-1.542a3.744,3.744,0,0,0,.905-.632C22.6,7.942,23.4,3.45,23.606,2.107l.32-2.032L21.893.393C20.551.6,16.058,1.4,14.6,2.855h0a3.745,3.745,0,0,0-.635.91c-.57-.893-1.155-1.684-1.54-2.183L11.242.048,10.056,1.582A23.845,23.845,0,0,0,7.333,5.919L6.478,4.812,5.291,6.346C4.3,7.625,2,10.811,2,12.758a20.788,20.788,0,0,0,1.527,5.593L.064,21.814l2.122,2.122,3.462-3.463A20.8,20.8,0,0,0,11.242,22c1.945,0,5.141-2.3,6.424-3.29l1.541-1.188-1.145-.882a25.3,25.3,0,0,0,4.354-2.683ZM16.726,4.977a10.972,10.972,0,0,1,3.507-1.21,10.95,10.95,0,0,1-1.209,3.506,8.2,8.2,0,0,1-3.159.862A8.189,8.189,0,0,1,16.726,4.977Zm-5.484.111A9.543,9.543,0,0,1,12.72,7.994a3.4,3.4,0,0,1-.629,1.794l-1.463,1.463A13.994,13.994,0,0,1,9.765,8,9.488,9.488,0,0,1,11.242,5.088ZM5,12.76A9.534,9.534,0,0,1,6.478,9.852,17.209,17.209,0,0,1,7.72,12.03c.072.208.234.694.235.728a3.4,3.4,0,0,1-.629,1.794L5.864,16.015A14.009,14.009,0,0,1,5,12.76ZM11.242,19a13.993,13.993,0,0,1-3.257-.864l1.462-1.462a3.4,3.4,0,0,1,1.793-.63c.015,0,.037.007.053.009.263.1.541.2.828.3a18.528,18.528,0,0,1,2.035,1.173A9.549,9.549,0,0,1,11.242,19Zm4.668-4.764a11.962,11.962,0,0,1-2.857-.742c-.1-.043-.205-.082-.307-.119l1.466-1.466a3.4,3.4,0,0,1,1.793-.629,9.487,9.487,0,0,1,2.9,1.466A9.815,9.815,0,0,1,15.91,14.236Z"/></svg>
