<?xml version="1.0" encoding="UTF-8"?>
<svg xmlns="http://www.w3.org/2000/svg" id="Layer_1" data-name="Layer 1" viewBox="0 0 24 24" width="512" height="512"><path d="M21.782,6.337a8.678,8.678,0,0,1-1.039.994,9.091,9.091,0,0,1-1.342.892,4.761,4.761,0,0,1,1.6,3.3C21,16.9,14.61,21,12,21s-9-4.1-9-9.478A4.363,4.363,0,0,1,7.5,7C10.1,7,13,8.925,13,11.5a9.666,9.666,0,0,1-1.7,5.1l2.4,1.8A12.613,12.613,0,0,0,16,11.5a6.576,6.576,0,0,0-1.4-4.009,8.543,8.543,0,0,0,4.884-1.717,6.725,6.725,0,0,0,2.432-4.231l.068-.69L21.365.547A6.816,6.816,0,0,0,18.515,0a7.307,7.307,0,0,0-5.907,2.867A4.972,4.972,0,0,0,8,0V3a2.181,2.181,0,0,1,2.028,1.393A8.781,8.781,0,0,0,7.5,4,7.347,7.347,0,0,0,0,11.522C0,18.73,7.893,24,12,24s12-5.27,12-12.478A7.762,7.762,0,0,0,21.782,6.337Z"/></svg>
