<?xml version="1.0" encoding="UTF-8"?>
<svg xmlns="http://www.w3.org/2000/svg" id="Layer_1" data-name="Layer 1" viewBox="0 0 24 24" width="512" height="512"><path d="M14,19.5A4.5,4.5,0,0,1,9.5,24C7.008,24,5,21.812,5,20H8l0-.039A1.769,1.769,0,0,0,9.5,21a1.5,1.5,0,0,0,0-3H0V15H9.5A4.5,4.5,0,0,1,14,19.5ZM19.5,11H13.7a8.547,8.547,0,0,1-3.206,3H19.5a1.5,1.5,0,0,1,0,3A1.769,1.769,0,0,1,18,15.961L18,16H15c0,1.812,2.008,4,4.5,4a4.5,4.5,0,0,0,0-9ZM0,6.5A6.5,6.5,0,1,1,6.5,13,6.508,6.508,0,0,1,0,6.5ZM5,7H8V2H5Zm0,4H8V9H5ZM19.5,9a1.522,1.522,0,0,0,.3-.031A4.489,4.489,0,0,0,19.5,0C17.008,0,15,2.188,15,4l3,.039A1.769,1.769,0,0,1,19.5,3a1.5,1.5,0,0,1,0,3H14.975c.009.167.025.331.025.5A8.466,8.466,0,0,1,14.624,9Z"/></svg>
