<?xml version="1.0" encoding="UTF-8"?>
<svg xmlns="http://www.w3.org/2000/svg" id="Layer_1" data-name="Layer 1" viewBox="0 0 24 24" width="512" height="512"><path d="M21.313,3.716A5.6,5.6,0,0,0,23,0H20a2.975,2.975,0,0,1-1,1.792A2.973,2.973,0,0,1,18,0H15a5.445,5.445,0,0,0,1.49,3.5,5.176,5.176,0,0,0-3.065,4.66A5.913,5.913,0,0,1,11.5,11.519a6.155,6.155,0,0,1-3.323,1.918,5.207,5.207,0,0,0-4.67,3.06A5.445,5.445,0,0,0,0,15v3a2.98,2.98,0,0,1,1.793,1A2.978,2.978,0,0,1,0,20v3a5.607,5.607,0,0,0,3.714-1.684A5.281,5.281,0,0,0,8.3,24c.95,0,5.93-.267,10.681-5.007C23.758,14.225,24,9.263,24,8.317A5.306,5.306,0,0,0,21.313,3.716ZM16.858,16.869C12.937,20.781,9.026,21,8.289,21A2.291,2.291,0,0,1,6,18.729a2.284,2.284,0,0,1,2.279-2.293,9.016,9.016,0,0,0,5.341-2.793,8.6,8.6,0,0,0,2.8-5.4A2.245,2.245,0,0,1,18.712,6,2.306,2.306,0,0,1,21,8.317C21,9.055,20.8,12.938,16.858,16.869Z"/></svg>
