<?xml version="1.0" encoding="UTF-8"?>
<svg xmlns="http://www.w3.org/2000/svg" id="Layer_1" data-name="Layer 1" viewBox="0 0 24 24" width="512" height="512"><path d="M1.762,8.375h0L.98,9.382a4.653,4.653,0,0,0,.581,6.332L9.2,22.955a4.214,4.214,0,0,0,2.779,1.038,4.327,4.327,0,0,0,2.859-1.081l7.56-7.143a4.63,4.63,0,0,0,.671-6.3l-.752-1.007A6.191,6.191,0,0,0,17.376,6H6.639A6.208,6.208,0,0,0,1.762,8.375Zm1.59,2.846.779-1.006A3.19,3.19,0,0,1,6.639,9H9.064l-.573,1.406A5.17,5.17,0,0,0,8.124,12.5h7.717a5.152,5.152,0,0,0-.357-2.214L14.961,9h2.415a3.179,3.179,0,0,1,2.541,1.261l.752,1.007a1.62,1.62,0,0,1,.3,1.232H15.841a5.163,5.163,0,0,1-.319,1.6l-2.969,6.75a1.229,1.229,0,0,1-1.117,0L8.454,14.224a5.179,5.179,0,0,1-.33-1.724h-5.1A1.638,1.638,0,0,1,3.352,11.221Z"/><path d="M16.439.439l-1,1a1.5,1.5,0,0,0,2.122,2.122l1-1A1.5,1.5,0,0,0,16.439.439Z"/><path d="M7.5,4A1.5,1.5,0,0,0,8.561,1.439l-1-1A1.5,1.5,0,0,0,5.439,2.561l1,1A1.5,1.5,0,0,0,7.5,4Z"/><path d="M10.5,1.5v1a1.5,1.5,0,0,0,3,0v-1a1.5,1.5,0,0,0-3,0Z"/></svg>
