<?xml version="1.0" encoding="UTF-8"?>
<svg xmlns="http://www.w3.org/2000/svg" id="Layer_1" data-name="Layer 1" viewBox="0 0 24 24" width="512" height="512"><path d="M0,6H24V9H13.985a.407.407,0,0,0,.077.249,4.5,4.5,0,0,1,0,5.5.442.442,0,0,0,0,.5,4.5,4.5,0,0,1,0,5.5.442.442,0,0,0,0,.5A4.461,4.461,0,0,1,15,24H12a1.485,1.485,0,0,0-.312-.916,3.452,3.452,0,0,1,0-4.169,1.5,1.5,0,0,0,0-1.831,3.452,3.452,0,0,1,0-4.169,1.5,1.5,0,0,0,0-1.831A3.4,3.4,0,0,1,10.987,9H9a.417.417,0,0,0,.077.25,4.5,4.5,0,0,1,0,5.5.442.442,0,0,0,0,.5,4.5,4.5,0,0,1,0,5.5.442.442,0,0,0,0,.5A4.458,4.458,0,0,1,10.015,24h-3a1.488,1.488,0,0,0-.311-.915,3.453,3.453,0,0,1,0-4.169,1.5,1.5,0,0,0,0-1.831,3.453,3.453,0,0,1,0-4.169,1.5,1.5,0,0,0,0-1.831A3.41,3.41,0,0,1,6,9H3.985a.407.407,0,0,0,.077.249,4.5,4.5,0,0,1,0,5.5.442.442,0,0,0,0,.5,4.5,4.5,0,0,1,0,5.5.442.442,0,0,0,0,.5A4.461,4.461,0,0,1,5,24H2a1.485,1.485,0,0,0-.312-.916,3.452,3.452,0,0,1,0-4.169A1.479,1.479,0,0,0,2,18a1.485,1.485,0,0,0-.312-.916,3.452,3.452,0,0,1,0-4.169A1.479,1.479,0,0,0,2,12a1.485,1.485,0,0,0-.312-.916A3.4,3.4,0,0,1,.987,9H0ZM24,2.976,23.752,0,0,1.974.247,4.95Z"/></svg>
