<?xml version="1.0" encoding="UTF-8"?>
<svg xmlns="http://www.w3.org/2000/svg" id="Layer_1" data-name="Layer 1" viewBox="0 0 24 24" width="512" height="512"><polygon points="4 24 5.333 21.333 8 20 5.333 18.667 4 16 2.667 18.667 0 20 2.667 21.333 4 24"/><polygon points="20 16 18.667 18.667 16 20 18.667 21.333 20 24 21.333 21.333 24 20 21.333 18.667 20 16"/><polygon points="13.333 2.667 12 0 10.667 2.667 8 4 10.667 5.333 12 8 13.333 5.333 16 4 13.333 2.667"/><circle cx="5.5" cy="13.5" r="1.5"/><circle cx="1.5" cy="9.5" r="1.5"/><circle cx="5.5" cy="5.5" r="1.5"/><circle cx="1.5" cy="1.5" r="1.5"/><circle cx="22.5" cy="13.5" r="1.5"/><circle cx="18.5" cy="9.5" r="1.5"/><circle cx="22.5" cy="5.5" r="1.5"/><circle cx="18.5" cy="1.5" r="1.5"/><circle cx="14.5" cy="22.5" r="1.5"/><circle cx="10.5" cy="18.5" r="1.5"/><circle cx="14.5" cy="14.5" r="1.5"/><circle cx="10.5" cy="10.5" r="1.5"/></svg>
