<svg id="Layer_1" height="512" viewBox="0 0 24 24" width="512" xmlns="http://www.w3.org/2000/svg" data-name="Layer 1"><path d="m24 24h-24v-20.5a3.5 3.5 0 0 1 3.5-3.5h17a3.5 3.5 0 0 1 3.5 3.5zm-21-3h18v-17.5a.5.5 0 0 0 -.5-.5h-17a.5.5 0 0 0 -.5.5zm7.5-9a1.5 1.5 0 1 0 1.5-1.5 1.5 1.5 0 0 0 -1.5 1.5zm-4.5-4.5a1.5 1.5 0 1 0 1.5-1.5 1.5 1.5 0 0 0 -1.5 1.5zm9 0a1.5 1.5 0 1 0 1.5-1.5 1.5 1.5 0 0 0 -1.5 1.5zm-9 9a1.5 1.5 0 1 0 1.5-1.5 1.5 1.5 0 0 0 -1.5 1.5zm9 0a1.5 1.5 0 1 0 1.5-1.5 1.5 1.5 0 0 0 -1.5 1.5z"/></svg>