<?xml version="1.0" encoding="UTF-8"?>
<!-- Generator: Adobe Illustrator 25.0.0, SVG Export Plug-In . SVG Version: 6.00 Build 0)  -->
<svg xmlns="http://www.w3.org/2000/svg" xmlns:xlink="http://www.w3.org/1999/xlink" version="1.1" id="Layer_1" x="0px" y="0px" viewBox="0 0 512 512" style="enable-background:new 0 0 512 512;" xml:space="preserve" width="512" height="512">
<path d="M404.037,479.124c0,17.617-14.281,31.898-31.898,31.898H31.898C14.281,511.022,0,496.741,0,479.124  s14.281-31.898,31.898-31.898h340.242C389.756,447.227,404.037,461.508,404.037,479.124z M512,181.413  c0,63.923-51.036,138.223-116.958,138.223h-31.642c-11.996,50.056-56.745,85.361-108.218,85.379H148.856  c-54.821,0.118-101.617-39.586-110.43-93.694L1.34,108.665C-7.316,58.589,26.261,10.978,76.337,2.323  c5.157-0.891,10.38-1.341,15.613-1.345h220.136c48.162-0.025,88.12,37.247,91.44,85.294C471.49,89.058,512,123.997,512,181.413z   M339.923,97.16c2.337-15.373-8.23-29.73-23.603-32.067c-1.401-0.213-2.816-0.32-4.233-0.32H91.95  c-15.549,0.06-28.106,12.713-28.047,28.263c0.006,1.553,0.14,3.103,0.402,4.634l37.15,202.678  c3.606,23.423,23.702,40.75,47.4,40.872h106.326c23.61,0.03,43.745-17.095,47.506-40.404v-0.51L339.923,97.16z M448.205,181.413  c0-9.548,0-31.898-53.014-31.898l-19.479,106.326h19.33C419.39,255.841,448.205,215.437,448.205,181.413z"/>
</svg>
