<?xml version="1.0" encoding="UTF-8"?>
<!-- Generator: Adobe Illustrator 26.0.1, SVG Export Plug-In . SVG Version: 6.00 Build 0)  -->
<svg xmlns="http://www.w3.org/2000/svg" xmlns:xlink="http://www.w3.org/1999/xlink" version="1.1" id="Capa_1" x="0px" y="0px" viewBox="0 0 24 24" style="enable-background:new 0 0 24 24;" xml:space="preserve" width="512" height="512">
<g>
	<g>
		<path d="M2.912,3.01c-1.518,0-2.905,1.369-2.905,2.904c0,0.845-0.001,4.19-0.001,7.515c0.278,0.175,1.616,0.604,2.154,0.642    c1.179,0.083,1.909-0.306,2.022-1.288L4.177,9.135h2.607V12.7c-0.137,2.042-1.928,2.457-4.655,2.32    c-0.706-0.036-1.665-0.218-2.124-0.337C0.005,18.01,0.004,20.99,0.004,20.99s3.404,0,4.537,0c1.238,0,2.85-1.157,2.85-2.916    c0-2.952,0-15.065,0-15.065S4.069,3.01,2.912,3.01z"/>
		<path d="M0,13.426v1.256c0.002,0,0.004,0.001,0.005,0.001c0-0.414,0-0.834,0-1.253C0.004,13.428,0.002,13.427,0,13.426z"/>
	</g>
	<g>
		<path d="M11.236,3.01c-1.518,0-2.905,1.369-2.905,2.904c0,0.535,0,2.074-0.001,3.976c0.911-0.711,2.379-1.06,4.247-0.916    c1.063,0.082,1.849,0.23,2.278,0.357v1.262c-0.472-0.236-1.405-0.587-2.182-0.643c-1.762-0.127-2.686,0.699-2.686,2.033    c0,1.201,0.714,2.229,2.679,2.092c0.648-0.045,1.726-0.423,2.185-0.641l0.005,1.224c-0.395,0.125-1.623,0.392-2.78,0.401    c-1.741,0.014-2.969-0.355-3.745-0.955c-0.001,3.553-0.001,6.887-0.001,6.887s3.404,0,4.537,0c1.238,0,2.85-1.157,2.85-2.916    c0-2.952,0-15.065,0-15.065S12.393,3.01,11.236,3.01z"/>
	</g>
	<path d="M19.845,12.365c-0.497,0.005-1.581-0.005-1.777,0l-0.003,1.589l1.777,0.006c0.345,0,0.78-0.296,0.78-0.811   C20.622,12.693,20.247,12.362,19.845,12.365z"/>
	<path d="M20.406,10.771c0-0.456-0.343-0.763-0.707-0.755c-0.512,0.012-1.435-0.013-1.637,0.005l-0.006,1.446l1.679,0.012   C20.015,11.474,20.406,11.218,20.406,10.771z"/>
	<path d="M19.521,3.01c-1.518,0-2.905,1.369-2.905,2.904c0,0.46,0,1.661,0,3.196h4.313c0.858,0,1.869,0.367,1.869,1.411   c0,0.56-0.298,1.193-1.372,1.399v0.024c0.627,0,1.714,0.367,1.714,1.474c0,1.143-1.175,1.46-1.804,1.46l-4.722,0.005   c-0.001,3.246-0.001,6.108-0.001,6.108s3.404,0,4.537,0c1.238,0,2.85-1.157,2.85-2.916c0-2.952,0-15.065,0-15.065   S20.679,3.01,19.521,3.01z"/>
</g>















</svg>
