<?xml version="1.0" encoding="UTF-8"?>
<!-- Generator: Adobe Illustrator 26.0.1, SVG Export Plug-In . SVG Version: 6.00 Build 0)  -->
<svg xmlns="http://www.w3.org/2000/svg" xmlns:xlink="http://www.w3.org/1999/xlink" version="1.1" id="Capa_1" x="0px" y="0px" viewBox="0 0 24 24" style="enable-background:new 0 0 24 24;" xml:space="preserve" width="512" height="512">
<g>
	<path d="M22.985,6.323c-0.149-0.124-0.272-0.275-0.418-0.401c0.035-0.061,0.073-0.121,0.113-0.179   c0.151-0.239,0.252-0.514,0.287-0.794c0.053-0.411-0.025-0.832-0.202-1.205c-0.058-0.131-0.124-0.274-0.086-0.421   c0.03-0.073,0.096-0.126,0.164-0.159c0.103-0.048,0.227-0.008,0.302,0.071c0.285,0.282,0.565,0.569,0.852,0.852   c0.002-1.363,0-2.726,0-4.087c-1.394,0.002-2.79-0.005-4.186,0.002c0.29,0.295,0.585,0.585,0.877,0.879   c0.063,0.058,0.098,0.154,0.06,0.234c-0.045,0.116-0.144,0.232-0.275,0.239c-0.133-0.013-0.244-0.093-0.363-0.144   c-0.312-0.136-0.655-0.224-0.995-0.189c-0.378,0.028-0.726,0.197-1.033,0.408c-0.134-0.139-0.275-0.27-0.408-0.411   c0.338-0.34,0.68-0.678,1.015-1.018c-1.209-0.005-2.422-0.002-3.634-0.002H0.002c0,6.232-0.003,12.466,0,18.697   c0.554-0.562,1.119-1.116,1.673-1.678c0.081-0.083,0.186-0.151,0.305-0.159c0.171-0.013,0.33,0.171,0.282,0.34   c-0.038,0.133-0.141,0.252-0.136,0.398c0.03,0.124,0.134,0.207,0.219,0.292c1.28,1.28,2.56,2.563,3.843,3.843   c0.063,0.06,0.134,0.128,0.227,0.136c0.146,0,0.262-0.111,0.403-0.139c0.169-0.035,0.34,0.134,0.317,0.302   c-0.015,0.146-0.118,0.257-0.219,0.353l-1.61,1.61h6.821c0.035-0.071,0.078-0.161,0.015-0.232c-0.138-0.161-0.3-0.302-0.448-0.458   c-0.592-0.592-1.184-1.182-1.774-1.777c-0.05-0.045-0.106-0.101-0.176-0.096c-0.081,0.018-0.149,0.071-0.229,0.081   c-0.091-0.005-0.176-0.093-0.161-0.186c0.033-0.096,0.108-0.164,0.176-0.234c0.323-0.315,0.635-0.64,0.96-0.953   c0.992,0.995,1.986,1.989,2.981,2.981c-0.292,0.292-0.585,0.582-0.877,0.874h11.405V12.595c-0.308,0.308-0.617,0.615-0.925,0.925   c-0.053,0.055-0.124,0.111-0.207,0.096c-0.093-0.002-0.164-0.108-0.131-0.197c0.023-0.076,0.081-0.146,0.071-0.229   c-0.03-0.076-0.096-0.126-0.151-0.184c-0.658-0.655-1.313-1.31-1.968-1.965c-0.181-0.189-0.375-0.363-0.549-0.559   c0.33-0.318,0.65-0.645,0.975-0.97c0.819,0.809,1.628,1.628,2.444,2.439c0.076,0.073,0.144,0.159,0.234,0.217   c0.068,0.033,0.141-0.013,0.207-0.035c0.002-2.275,0-4.551,0-6.826C23.661,5.645,23.318,5.981,22.985,6.323z M19.841,1.896   c0.05-0.093,0.146-0.179,0.259-0.164c0.126,0.01,0.217,0.113,0.3,0.197c0.503,0.505,1.007,1.01,1.512,1.514   c0.096,0.093,0.209,0.184,0.232,0.323c0.013,0.144-0.118,0.272-0.257,0.287c-0.116,0.003-0.222-0.06-0.322-0.116   c-0.214-0.126-0.456-0.227-0.711-0.214c-0.131-0.003-0.257,0.05-0.375,0.103c-0.139-0.149-0.297-0.282-0.428-0.436   c0.04-0.113,0.093-0.222,0.101-0.343c0.018-0.274-0.093-0.537-0.232-0.766C19.848,2.168,19.793,2.027,19.841,1.896z M11.432,4.673   c-0.028-0.081-0.088-0.174-0.035-0.255c0.045-0.083,0.174-0.093,0.234-0.023c0.254,0.257,0.514,0.514,0.771,0.771   c-0.287,0.29-0.576,0.578-0.867,0.864c-0.066-0.076-0.154-0.136-0.204-0.224c0.083-0.141,0.171-0.285,0.194-0.451   C11.568,5.126,11.53,4.884,11.432,4.673z M10.976,4.499c0.048,0.053,0.116,0.101,0.121,0.179c0.01,0.078-0.066,0.154-0.146,0.146   c-0.106,0-0.187-0.083-0.282-0.118c-0.141-0.065-0.312-0.071-0.451,0.005c-0.073-0.073-0.146-0.149-0.222-0.217   c0.033-0.111,0.063-0.229,0.035-0.345C10.011,4.018,9.92,3.917,9.88,3.796C9.847,3.713,9.905,3.612,9.993,3.599   c0.066-0.01,0.118,0.04,0.164,0.083C10.429,3.955,10.701,4.229,10.976,4.499z M9.567,2.39c0.26,0.252,0.511,0.507,0.766,0.761   c0.083,0.081,0.008,0.217-0.086,0.25c-0.078,0.01-0.146-0.043-0.217-0.068C9.759,3.199,9.421,3.184,9.149,3.33   C9.078,3.36,9.02,3.42,8.945,3.433c-0.076-0.06-0.139-0.136-0.209-0.202C9.008,2.944,9.295,2.675,9.567,2.39z M7.511,4.524   c0.005-0.06,0.04-0.113,0.083-0.156c0.323-0.325,0.65-0.645,0.97-0.975c0.37,0.358,0.728,0.728,1.094,1.089   c0.572,0.569,1.141,1.144,1.716,1.714c-0.327,0.331-0.657,0.66-0.988,0.988c-0.068,0.075-0.204,0.108-0.27,0.015   c-0.081-0.086,0.008-0.191,0.033-0.28c0.03-0.066-0.023-0.123-0.066-0.169c-0.66-0.657-1.318-1.316-1.976-1.976   C8.048,4.718,7.997,4.65,7.924,4.612C7.823,4.59,7.745,4.68,7.647,4.685C7.571,4.678,7.501,4.602,7.511,4.524z M6.17,5.792   C6.5,5.456,6.835,5.129,7.166,4.796c0.05-0.053,0.106-0.108,0.179-0.126C7.418,4.655,7.508,4.7,7.518,4.781   c0.018,0.088-0.048,0.161-0.065,0.247c-0.01,0.068,0.045,0.116,0.086,0.161c0.673,0.673,1.343,1.345,2.016,2.016   C9.6,7.248,9.648,7.301,9.713,7.316c0.081-0.008,0.149-0.06,0.227-0.078c0.096-0.01,0.184,0.093,0.154,0.184   C10.081,7.49,10.028,7.54,9.983,7.588C9.655,7.916,9.328,8.243,9,8.568C8.942,8.627,8.867,8.687,8.781,8.667   c-0.048-0.02-0.088-0.058-0.106-0.106C8.65,8.45,8.768,8.359,8.741,8.248C8.715,8.206,8.68,8.173,8.647,8.138   C8.34,7.833,8.035,7.523,7.725,7.218c-0.108,0.11-0.217,0.22-0.328,0.328C7.322,7.472,7.246,7.399,7.176,7.321   c0.111-0.108,0.219-0.219,0.33-0.328C7.234,6.727,6.964,6.454,6.694,6.185C6.636,6.129,6.586,6.069,6.518,6.029   c-0.123-0.04-0.242,0.133-0.36,0.038C6.062,5.998,6.092,5.862,6.17,5.792z M14.753,18.207c-0.03-0.128-0.116-0.234-0.159-0.355   c-0.04-0.103,0.055-0.224,0.164-0.207c0.05,0.013,0.088,0.045,0.123,0.081c0.265,0.267,0.532,0.529,0.794,0.796   c0.086,0.088,0.196,0.164,0.232,0.29c-0.033,0.056-0.068,0.131-0.144,0.139c-0.124,0.013-0.214-0.086-0.325-0.126   c-0.153-0.076-0.334-0.075-0.486,0.003c-0.081-0.081-0.159-0.161-0.239-0.24C14.768,18.469,14.793,18.333,14.753,18.207z    M14.985,17.436c-0.066,0.007-0.126-0.033-0.184-0.058c-0.232-0.114-0.499-0.169-0.753-0.103c-0.161,0.033-0.302,0.123-0.444,0.207   c-0.076-0.078-0.151-0.156-0.229-0.232c0.3-0.295,0.592-0.6,0.897-0.89c0.27,0.272,0.542,0.542,0.811,0.814   C15.174,17.262,15.078,17.396,14.985,17.436z M14.377,14.2c0.048-0.164,0.113-0.33,0.086-0.501   c-0.04-0.287-0.204-0.542-0.386-0.761c-0.683-0.685-1.368-1.368-2.054-2.056c-0.106-0.111-0.222-0.212-0.323-0.33   c0.116,0.038,0.222,0.096,0.33,0.151c0.406,0.197,0.809,0.401,1.217,0.6c0.035,0.018,0.068,0.045,0.098,0.073   c0.343,0.348,0.688,0.69,1.033,1.036c0.188,0.199,0.419,0.353,0.675,0.449c0.179,0.068,0.381,0.068,0.559,0.005   c0.091-0.03,0.189-0.065,0.285-0.035c0.098,0.04,0.165,0.132,0.174,0.237c-0.008,0.139-0.096,0.254-0.189,0.35   c-0.308,0.312-0.619,0.622-0.932,0.93c-0.083,0.076-0.179,0.154-0.295,0.166C14.491,14.538,14.327,14.362,14.377,14.2z    M12.14,11.955c0.607,0.615,1.091,1.386,1.255,2.245c0.091,0.471,0.071,0.965-0.065,1.426c-0.134,0.456-0.376,0.877-0.681,1.24   c-0.131-0.139-0.275-0.267-0.401-0.408c0-0.068,0.043-0.126,0.056-0.191c0.068-0.222,0-0.471-0.169-0.633   c-1.245-1.247-2.495-2.495-3.739-3.742c-0.113-0.116-0.257-0.209-0.421-0.222c-0.134-0.018-0.265,0.03-0.391,0.075   c-0.05,0.028-0.083-0.035-0.116-0.06c-0.101-0.108-0.212-0.207-0.312-0.317c0-0.008-0.003-0.023-0.003-0.03   c0.335-0.287,0.728-0.511,1.152-0.647c0.501-0.161,1.046-0.179,1.562-0.073C10.744,10.804,11.52,11.318,12.14,11.955z M4.784,7.178   c0.328-0.328,0.655-0.655,0.98-0.983C5.8,6.162,5.833,6.129,5.875,6.104C5.951,6.056,6.065,6.086,6.1,6.172   c0.035,0.103-0.058,0.191-0.06,0.292C6.037,6.517,6.08,6.555,6.112,6.59C6.81,7.288,7.506,7.986,8.204,8.682   C8.33,8.818,8.491,8.584,8.627,8.684C8.715,8.755,8.685,8.893,8.61,8.959c-0.328,0.33-0.658,0.655-0.983,0.985   c-0.053,0.05-0.106,0.111-0.179,0.134C7.367,10.1,7.269,10.05,7.259,9.964C7.244,9.864,7.335,9.785,7.329,9.687   c-0.013-0.043-0.04-0.078-0.071-0.111c-0.661-0.658-1.32-1.318-1.978-1.978C5.218,7.54,5.165,7.467,5.082,7.437   C4.991,7.432,4.915,7.5,4.827,7.51C4.752,7.513,4.686,7.445,4.684,7.372C4.676,7.293,4.732,7.231,4.784,7.178z M4.054,7.906   C4.205,7.76,4.351,7.608,4.502,7.46c0.265,0.257,0.524,0.524,0.789,0.784c0.045,0.05,0.101,0.096,0.126,0.161   c0.03,0.124-0.111,0.26-0.234,0.204c-0.124-0.056-0.222-0.154-0.34-0.219C4.643,8.266,4.411,8.188,4.175,8.216   C4.107,8.145,4.031,8.08,3.971,8.004C3.991,7.964,4.023,7.936,4.054,7.906z M2.955,9.004c0.282-0.277,0.559-0.557,0.839-0.837   C4.324,8.7,4.855,9.231,5.387,9.76c0.292,0.29,0.577,0.585,0.872,0.869c0.083,0.093,0.194,0.015,0.285-0.018   c0.091-0.04,0.197,0.04,0.194,0.136c0,0.066-0.038,0.121-0.081,0.167c-0.343,0.34-0.68,0.68-1.021,1.021   c-0.048,0.048-0.108,0.096-0.179,0.091c-0.078,0.008-0.154-0.068-0.146-0.144c0.005-0.081,0.068-0.146,0.068-0.227   c0.005-0.068-0.053-0.111-0.093-0.156c-0.804-0.799-1.6-1.605-2.406-2.401C2.905,9.065,2.927,9.035,2.955,9.004z M2.164,9.793   c0.181-0.171,0.35-0.355,0.534-0.524C2.791,9.304,2.849,9.41,2.925,9.476c-0.04,0.292,0.098,0.567,0.262,0.796   c0.048,0.073,0.106,0.141,0.136,0.224c0.033,0.111-0.075,0.227-0.186,0.214c-0.063,0-0.106-0.053-0.146-0.091   C2.716,10.342,2.439,10.07,2.164,9.793z M9.663,19.641L7.71,21.594c-0.086,0.083-0.192,0.156-0.315,0.156   c-0.151,0.005-0.292-0.138-0.28-0.292c0.015-0.151,0.141-0.272,0.144-0.428c-0.005-0.093-0.078-0.164-0.136-0.229   c-0.58-0.582-1.162-1.159-1.739-1.739c-0.023-0.018-0.053-0.068-0.086-0.033c-0.202,0.194-0.396,0.398-0.597,0.592   c-0.136-0.136-0.272-0.272-0.408-0.411c0.195-0.204,0.395-0.404,0.6-0.6c0-0.01,0.003-0.033,0.003-0.043   c-0.547-0.537-1.084-1.081-1.628-1.623c-0.083-0.078-0.161-0.176-0.277-0.204c-0.159-0.01-0.282,0.113-0.431,0.141   c-0.192,0.033-0.365-0.184-0.3-0.363c0.033-0.126,0.133-0.217,0.222-0.302c0.63-0.633,1.262-1.26,1.89-1.892   c0.076-0.073,0.174-0.128,0.28-0.136c0.174-0.01,0.333,0.171,0.285,0.34c-0.038,0.129-0.131,0.242-0.136,0.381   c0.01,0.121,0.111,0.206,0.192,0.287l3.881,3.88C8.932,19.134,9,19.192,9.086,19.2c0.146,0,0.26-0.108,0.398-0.141   c0.166-0.033,0.333,0.118,0.325,0.285C9.804,19.457,9.741,19.56,9.663,19.641z M9.567,17.905c-0.885-0.194-1.663-0.726-2.286-1.373   c-0.574-0.602-1.038-1.341-1.202-2.165c-0.111-0.547-0.075-1.126,0.121-1.651c0.139-0.385,0.358-0.738,0.617-1.053   c0.129,0.131,0.265,0.257,0.391,0.391c0.025,0.081-0.04,0.156-0.053,0.237c-0.066,0.217,0.02,0.454,0.179,0.61   c1.225,1.227,2.452,2.452,3.679,3.679c0.118,0.129,0.262,0.249,0.443,0.277c0.161,0.025,0.32-0.03,0.469-0.086   c0.136,0.136,0.272,0.27,0.408,0.406c-0.297,0.26-0.643,0.464-1.01,0.607C10.769,17.998,10.149,18.033,9.567,17.905z    M13.647,22.947c-0.078-0.075-0.154-0.151-0.229-0.229c0.045-0.086,0.098-0.176,0.083-0.277c-0.025-0.151-0.129-0.275-0.232-0.378   l-1.701-1.701c-0.116-0.113-0.247-0.237-0.418-0.249c-0.093-0.01-0.176,0.038-0.254,0.083c-0.073-0.081-0.174-0.141-0.219-0.242   c0.277-0.285,0.655-0.484,1.056-0.509c0.449-0.038,0.895,0.123,1.265,0.368c0.29,0.194,0.559,0.418,0.766,0.698   c0.247,0.33,0.398,0.733,0.401,1.149C14.171,22.133,13.984,22.612,13.647,22.947z M15.161,21.435   c-0.048,0.053-0.116,0.083-0.179,0.111c-0.063-0.023-0.141-0.045-0.161-0.116c-0.038-0.119,0.086-0.212,0.071-0.328   c-0.05-0.098-0.139-0.169-0.214-0.247l-1.837-1.837c-0.108-0.101-0.199-0.222-0.328-0.297c-0.129-0.025-0.244,0.138-0.368,0.05   c-0.106-0.068-0.076-0.219,0.005-0.295c0.348-0.353,0.701-0.698,1.048-1.048c0.564,0.557,1.121,1.124,1.688,1.681   c0.433,0.431,0.862,0.867,1.298,1.295C15.847,20.752,15.499,21.09,15.161,21.435z M16.353,20.23   c-0.073-0.078-0.151-0.154-0.227-0.232c0.27-0.333,0.307-0.814,0.126-1.197c-0.033-0.091-0.103-0.202-0.038-0.292   c0.053-0.081,0.181-0.093,0.244-0.018c0.272,0.275,0.549,0.547,0.819,0.824C16.968,19.618,16.671,19.935,16.353,20.23z    M18.613,17.983c-0.355,0.35-0.706,0.706-1.061,1.056c-0.078,0.086-0.224,0.043-0.272-0.053c-0.071-0.118,0.121-0.244,0.02-0.353   c-0.731-0.729-1.461-1.459-2.19-2.19c-0.053-0.048-0.098-0.108-0.161-0.141c-0.108-0.03-0.194,0.061-0.295,0.073   c-0.078-0.008-0.154-0.076-0.149-0.156c-0.008-0.088,0.058-0.156,0.113-0.214c0.335-0.333,0.67-0.668,1.003-1   c0.302,0.282,0.587,0.585,0.884,0.874c0.565,0.567,1.131,1.134,1.698,1.701c0.04,0.033,0.078,0.078,0.131,0.088   c0.108,0.01,0.194-0.096,0.303-0.076c0.066,0.023,0.126,0.086,0.118,0.159C18.757,17.849,18.674,17.917,18.613,17.983z    M20.072,15.959c-0.406,0.018-0.804-0.126-1.141-0.338c-0.245-0.156-0.469-0.345-0.655-0.565c0.088,0.295,0.068,0.625-0.071,0.902   c-0.136,0.272-0.348,0.494-0.557,0.708c-0.076-0.076-0.154-0.154-0.232-0.229c0.066-0.106,0.108-0.232,0.068-0.355   c-0.048-0.126-0.151-0.217-0.242-0.312c-0.187-0.19-0.376-0.379-0.565-0.567c-0.111-0.103-0.229-0.222-0.388-0.232   c-0.093-0.01-0.176,0.038-0.254,0.083c-0.078-0.076-0.154-0.154-0.232-0.229c0.302-0.305,0.648-0.62,1.091-0.675   c0.363-0.061,0.728,0.096,0.985,0.345c-0.161-0.323-0.262-0.685-0.227-1.051h0c0.03-0.383,0.199-0.748,0.451-1.036   c0.073,0.076,0.151,0.151,0.227,0.227c-0.028,0.091-0.071,0.186-0.045,0.282c0.015,0.086,0.073,0.154,0.133,0.214   c0.665,0.663,1.325,1.328,1.991,1.991c0.078,0.076,0.154,0.166,0.265,0.197c0.101,0.028,0.204-0.008,0.302-0.038   c0.076,0.076,0.154,0.151,0.227,0.232C20.886,15.775,20.491,15.959,20.072,15.959z M20.191,10.892   c-0.033,0.252,0.053,0.501,0.184,0.713c0.068,0.121,0.166,0.224,0.227,0.35c0.033,0.061,0.01,0.128-0.013,0.189   c0.318,0.215,0.595,0.484,0.819,0.796c0.254,0.36,0.433,0.789,0.423,1.237c0.003,0.426-0.181,0.834-0.451,1.157   c-0.073-0.076-0.159-0.144-0.222-0.229c0.013-0.093,0.058-0.184,0.035-0.277c-0.025-0.121-0.118-0.207-0.202-0.29   c-0.665-0.663-1.328-1.325-1.991-1.988c-0.066-0.066-0.144-0.126-0.237-0.134c-0.088-0.01-0.176,0.015-0.257,0.043   c-0.078-0.073-0.156-0.151-0.232-0.227c0.335-0.287,0.771-0.471,1.217-0.449c0.171-0.005,0.338,0.035,0.504,0.073   c-0.202-0.209-0.416-0.406-0.61-0.62v0c0.189-0.189,0.381-0.378,0.57-0.569C20.04,10.736,20.113,10.816,20.191,10.892z    M19.982,9.322c-0.648,0.645-1.293,1.295-1.94,1.94c-0.083,0.083-0.189,0.159-0.312,0.159c-0.136,0.008-0.267-0.108-0.285-0.242   c-0.018-0.176,0.146-0.307,0.141-0.484c-0.008-0.083-0.065-0.151-0.121-0.212c-1.131-1.129-2.26-2.26-3.392-3.389   c0.935,1.736,1.877,3.467,2.812,5.204c0.015,0.025,0.028,0.053,0.04,0.083c-0.068,0.063-0.133,0.131-0.199,0.199   c-1.872-0.922-3.742-1.855-5.612-2.779c-0.295-0.146-0.587-0.317-0.92-0.358c-0.111-0.015-0.187,0.076-0.267,0.134   C9.844,9.642,9.733,9.682,9.63,9.649C9.507,9.594,9.421,9.448,9.459,9.314c0.025-0.091,0.088-0.166,0.154-0.232   c0.605-0.602,1.207-1.207,1.812-1.807c0.942,0.461,1.887,0.912,2.832,1.373c0.03,0.023,0.063,0.045,0.091,0.075   c0.015-0.018,0.028-0.035,0.043-0.053l-0.035,0.005c-0.496-0.945-1.018-1.877-1.514-2.822c0.625-0.62,1.242-1.242,1.865-1.862   c0.068-0.068,0.154-0.118,0.249-0.131C15.123,3.836,15.3,4,15.267,4.171c-0.023,0.151-0.149,0.272-0.139,0.431   c0.025,0.111,0.116,0.186,0.189,0.265c1.288,1.285,2.575,2.568,3.858,3.855c0.071,0.063,0.141,0.146,0.242,0.146   c0.151,0,0.267-0.113,0.411-0.139c0.166-0.028,0.33,0.136,0.31,0.302C20.128,9.145,20.06,9.244,19.982,9.322z M20.816,8.49   c-0.081,0.076-0.179,0.139-0.29,0.146c-0.154,0.013-0.308-0.126-0.295-0.282c0.005-0.154,0.136-0.272,0.139-0.428   c0.005-0.098-0.071-0.171-0.133-0.239c-1.303-1.3-2.603-2.603-3.906-3.906c-0.073-0.071-0.154-0.159-0.265-0.151   c-0.164,0.002-0.287,0.154-0.453,0.136c-0.096,0.002-0.174-0.073-0.222-0.151c-0.066-0.136-0.005-0.3,0.093-0.401   c0.61-0.61,1.22-1.22,1.827-1.83c0.023-0.025,0.063-0.048,0.086-0.01c1.757,1.754,3.512,3.51,5.267,5.266   C22.046,7.257,21.431,7.873,20.816,8.49z M22.693,9.987c-0.121,0.018-0.214-0.078-0.307-0.141c-0.249-0.171-0.544-0.333-0.857-0.28   c-0.083-0.076-0.164-0.154-0.232-0.242c0.194-0.187,0.381-0.378,0.569-0.567c0.312,0.307,0.622,0.617,0.93,0.93   C22.895,9.781,22.824,9.967,22.693,9.987z"/>
	<path d="M0.619,19.643c-0.093-0.088-0.176-0.207-0.31-0.232c-0.111-0.003-0.207,0.061-0.307,0.101c-0.003,1.494,0,2.991,0,4.485   c1.492,0,2.983,0,4.478,0.002c0.045-0.096,0.103-0.192,0.108-0.3c-0.013-0.111-0.103-0.189-0.174-0.267   C3.149,22.171,1.887,20.906,0.619,19.643z"/>
</g>















</svg>
