<?xml version="1.0" encoding="UTF-8"?>
<!-- Generator: Adobe Illustrator 26.0.1, SVG Export Plug-In . SVG Version: 6.00 Build 0)  -->
<svg xmlns="http://www.w3.org/2000/svg" xmlns:xlink="http://www.w3.org/1999/xlink" version="1.1" id="Capa_1" x="0px" y="0px" viewBox="0 0 24 24" style="enable-background:new 0 0 24 24;" xml:space="preserve" width="512" height="512">
<g transform="translate(0.000000,640.000000) scale(0.100000,-0.100000)">
	<path d="M6.459,6365.445c-3.014-1.346-4.145-2.369-5.437-4.898c-1.077-2.153-1.346-6.459-0.538-8.667   c0.269-0.7,1.238-1.992,2.099-2.853c0.861-0.915,1.776-2.476,1.992-3.445c1.13-5.329,6.621-10.766,10.819-10.766   c0.484,0,1.723-0.861,2.745-1.884l1.83-1.884h-2.368c-1.292,0-3.553-0.377-5.006-0.808c-2.853-0.808-7.213-4.145-7.213-5.437   c0-0.431-0.969-1.776-2.153-2.907c-2.584-2.53-3.23-4.037-3.23-7.59c0-5.975,4.252-10.173,10.335-10.173   c1.561,0.054,3.445,0.376,4.199,0.753c0.861,0.484,2.261,0.646,4.091,0.484c3.391-0.377,6.083,0.484,8.343,2.584   c0.915,0.861,2.207,1.561,2.853,1.561c2.207,0.054,5.652,2.046,7.267,4.36c2.638,3.606,1.83,5.921-1.023,2.96   c-1.346-1.507-5.275-3.014-7.697-3.014c-1.077,0-2.261-0.646-3.66-1.83c-2.53-2.315-5.006-2.853-7.697-1.723   c-1.83,0.753-2.153,0.753-3.176,0.054c-1.938-1.346-5.383-1.022-7.051,0.592c-2.099,2.099-1.992,5.544,0.215,7.913   c0.915,0.915,2.045,2.584,2.584,3.606c1.184,2.422,4.36,4.145,8.505,4.629c1.723,0.215,3.822,0.861,4.629,1.399   c0.807,0.592,2.368,1.184,3.391,1.346c1.938,0.323,3.284,1.399,2.745,2.207c-0.161,0.269-1.4,0.807-2.691,1.13   c-1.83,0.431-2.961,1.238-4.737,3.284c-1.292,1.507-2.799,2.691-3.337,2.691c-1.992,0-5.813,2.314-7.321,4.414   c-0.861,1.13-1.669,3.068-1.884,4.252c-0.215,1.292-0.969,2.745-1.938,3.66c-1.238,1.292-1.561,2.046-1.561,3.93   c0,4.468,4.629,6.944,8.397,4.468c0.969-0.592,2.584-1.023,4.522-1.023c4.468-0.161,7.751-2.207,9.528-6.029   c0.807-1.83,1.669-2.907,2.207-2.907c2.584,0,6.567-4.467,6.567-7.374c0-0.539,0.215-1.292,0.484-1.723   c0.754-1.13,1.992,0.107,2.422,2.314c0.215,1.023,0.807,2.422,1.346,3.068c0.538,0.7,1.184,2.153,1.4,3.176   c0.915,4.199,3.499,7.052,7.428,8.128c1.238,0.323,2.907,1.185,3.66,1.884c3.068,2.907,7.805,1.722,9.097-2.153   c0.538-1.723,0.484-2.261-0.484-4.252c-0.646-1.292-1.13-3.391-1.13-4.737c0-2.907-1.346-5.275-3.822-6.621   c-1.184-0.646-2.261-1.884-3.068-3.661c-1.023-2.099-1.884-2.96-4.199-4.306c-1.615-0.915-2.853-1.884-2.745-2.261   c0.377-1.023,5.006-0.538,7.428,0.861c1.238,0.646,2.745,2.153,3.391,3.229c0.592,1.13,2.153,2.745,3.337,3.606   c2.745,1.938,4.683,5.652,4.468,8.559c-0.108,1.4,0.215,2.638,0.861,3.661c4.629,7.105-3.553,17.386-11.734,14.695   c-1.238-0.431-3.122-1.507-4.145-2.422c-1.023-0.861-2.853-1.938-4.091-2.261c-3.876-1.13-7.374-5.383-8.236-9.958l-0.431-2.261   l-0.7,1.453c-0.377,0.861-1.615,1.938-2.745,2.422c-1.346,0.646-2.315,1.615-2.907,2.96c-1.992,4.307-6.729,7.429-11.358,7.429   c-1.507,0-3.014,0.376-3.876,0.969c-1.723,1.238-4.683,2.261-6.244,2.261C9.366,6366.575,7.805,6366.037,6.459,6365.445z"/>
	<path d="M128.057,6365.337c-6.567-2.207-9.743-5.221-12.327-11.626c-0.807-1.938-2.961-5.975-4.737-8.936l-3.284-5.383l3.768-0.162   c2.045-0.107,3.714-0.323,3.714-0.484s-0.754-1.615-1.669-3.23c-0.915-1.615-1.561-3.068-1.4-3.176   c0.161-0.161,2.099,0,4.306,0.323c2.207,0.376,5.813,0.592,8.074,0.431c6.621-0.323,6.89-0.754,9.528-17.548   c1.83-11.465,3.714-16.31,9.205-23.792c3.876-5.329,14.264-15.072,15.987-15.072c1.292,0,0.538,1.292-3.176,5.275   c-7.159,7.805-13.403,18.301-15.287,25.729c-0.431,1.776-1.4,7.375-2.153,12.542c-1.561,10.55-2.315,12.811-4.898,15.072   c-2.53,2.261-5.544,2.961-10.658,2.53l-4.199-0.377l1.4,2.369c0.754,1.346,1.184,2.53,1.023,2.745   c-0.161,0.162-1.399,0.323-2.691,0.323h-2.368l1.615,2.853c0.861,1.507,2.099,4.145,2.691,5.813   c2.261,5.975,6.782,9.043,13.403,9.097c6.944,0,10.658-2.422,19.432-12.865c5.598-6.675,7.213-8.182,13.672-13.188   c5.706-4.36,15.395-14.479,20.885-21.854c11.627-15.502,26.537-40.209,35.634-59.104c3.929-8.235,10.12-22.823,9.797-23.146   c-0.269-0.269-15.341,10.335-23.415,16.472c-27.129,20.67-42.739,39.079-56.089,66.208c-2.638,5.383-5.06,9.797-5.383,9.797   c-0.969,0-0.108-4.953,1.938-10.981c7.697-22.985,27.883-47.154,60.557-72.561l5.06-3.929l4.791-13.996   c4.522-13.188,4.737-13.995,3.822-14.695c-1.077-0.808-4.737-0.592-5.652,0.323c-0.323,0.323-2.099,5.006-3.983,10.389   c-1.884,5.383-3.66,10.066-3.929,10.335c-1.346,1.346-1.13-1.776,0.7-10.604c1.077-5.167,1.938-10.12,1.938-10.981   c0-1.184-0.592-2.099-2.153-3.553c-1.184-1.076-2.422-1.938-2.691-1.938c-0.861,0-1.453,1.776-2.961,8.612   c-0.754,3.391-2.907,12.219-4.737,19.647c-2.638,10.55-3.607,13.511-4.306,13.619c-0.646,0.107-0.915-0.162-0.915-0.969   c0-1.399,4.36-27.614,6.244-37.626c1.561-8.451,2.261-10.065,4.468-10.55c2.099-0.431,3.983,0.592,7.321,3.983   c3.122,3.23,4.791,3.822,10.658,3.822c4.683,0,6.298,0.915,6.298,3.714c0,0.807-1.938,6.89-4.306,13.511   c-2.368,6.621-4.199,12.111-4.091,12.219c0.108,0.108,1.83-0.915,3.876-2.261c5.383-3.714,9.689-5.759,11.681-5.544   c1.669,0.161,1.723,0.215,1.669,2.853c-0.323,12.381-26.914,62.925-47.799,90.701c-5.221,6.944-15.449,17.44-22.769,23.253   c-4.091,3.284-7.751,6.836-11.412,11.143c-8.343,9.851-12.165,12.811-18.84,14.695   C134.355,6366.844,132.417,6366.791,128.057,6365.337z"/>
	<path d="M203.47,6358.124c-2.261-3.983-12.057-18.894-14.964-22.769l-2.261-2.907l1.722-1.776c0.915-0.969,1.884-1.615,2.153-1.454   c0.215,0.162,2.53,3.445,5.114,7.375l4.683,7.052l0.646-2.853c0.807-3.66,2.368-5.221,5.867-6.029   c4.091-0.915,9.258,0.377,26.537,6.513c1.615,0.592,1.722,0.808,1.722,3.284c0,1.453-0.054,2.638-0.161,2.638   c-0.108,0-3.553-1.238-7.644-2.746c-20.67-7.482-24.007-6.567-20.724,5.329c0.592,2.207,1.83,5.544,2.691,7.482   c0.915,1.938,1.615,3.606,1.615,3.714c0,0.107-1.184,0.215-2.638,0.215h-2.638L203.47,6358.124z"/>
	<path d="M126.819,6353.064c-1.238-0.969-1.453-1.507-1.292-3.391c0.161-2.046,0.269-2.207,1.884-2.369   c1.238-0.107,2.153,0.269,3.607,1.507c2.368,2.099,2.476,3.445,0.323,4.575C129.241,6354.464,128.542,6354.41,126.819,6353.064z"/>
	<path d="M15.072,6351.503c0-0.592,1.4-1.884,8.343-7.751c4.737-3.983,4.845-4.037,5.867-3.014c0.969,0.969,0.969,1.022-0.108,2.368   C25.73,6347.52,15.072,6353.872,15.072,6351.503z"/>
	<path d="M49.952,6348.381c-1.938-1.992-4.252-5.114-5.168-6.89c-1.669-3.284-1.669-3.337-0.592-4.306   c0.646-0.539,1.238-0.753,1.507-0.431c0.969,1.077,9.205,14.265,9.205,14.749C54.905,6352.849,53.182,6351.772,49.952,6348.381z"/>
	<path d="M78.697,6349.35c-5.06-2.045-7.697-5.706-10.012-13.726c-1.884-6.459-3.983-10.604-7.644-14.803   c-8.989-10.389-12.111-15.072-16.471-24.976c-1.4-3.176-2.584-5.921-2.584-6.029c0-0.108,1.292-0.215,2.853-0.215h2.799   l3.068,6.352c3.822,7.913,7.051,12.811,12.865,19.755c6.89,8.182,8.182,10.604,11.196,21.047c0.915,3.068,1.561,4.252,3.23,5.76   c3.122,2.799,6.083,3.122,11.358,1.292c2.261-0.807,4.737-1.453,5.544-1.453c1.723,0,1.776-0.215,0.323-2.045l-1.077-1.399   l1.669-1.4l1.669-1.346l-2.315-1.668c-1.292-0.915-3.122-2.799-4.091-4.252c-2.961-4.468-1.884-6.244,1.561-2.638   c2.422,2.584,4.898,4.091,8.989,5.598c1.83,0.646,3.337,1.399,3.337,1.561c0,0.215-1.184,1.292-2.691,2.369   c-1.453,1.13-2.691,2.261-2.691,2.583c0,0.269,0.861,1.776,1.884,3.337c1.023,1.507,1.884,2.96,1.884,3.122   c0,0.215-2.261,0.484-4.952,0.592c-3.929,0.215-5.652,0.592-7.967,1.668c-2.368,1.13-3.714,1.453-6.729,1.399   C81.657,6349.834,79.396,6349.619,78.697,6349.35z"/>
	<path d="M83.164,6339.984c-0.484-0.753-0.807-1.991-0.7-2.853c0.161-1.292,0.431-1.507,2.099-1.669   c1.4-0.107,2.261,0.162,3.337,1.184c1.723,1.615,1.776,2.153,0.377,3.553C86.771,6341.707,84.187,6341.599,83.164,6339.984z"/>
	<path d="M235.229,6335.301c-8.882-3.552-21.101-8.881-28.906-12.649c-8.936-4.306-8.666-4.037-6.244-7.051l0.969-1.13l4.845,1.615   c4.252,1.399,5.921,1.668,13.457,2.045c4.737,0.215,10.12,0.7,12.004,1.077l3.337,0.7v2.045c0,1.184-0.054,2.099-0.108,2.099   c-0.108,0-2.207-0.376-4.737-0.807c-5.114-0.915-10.227-1.077-10.227-0.323c0,0.539,8.612,4.306,15.879,6.944l4.306,1.561   l0.161,2.799c0.108,1.507-0.054,2.745-0.269,2.691C239.481,6336.916,237.436,6336.162,235.229,6335.301z"/>
	<path d="M37.787,6331.479c-0.377-0.376-0.646-0.807-0.646-1.022c0-0.162,1.238-2.476,2.745-5.114   c1.561-2.638,3.606-6.621,4.629-8.828l1.884-4.037l1.561,1.884c0.807,1.023,1.561,2.207,1.561,2.638   c0,1.884-9.312,15.125-10.658,15.125C38.649,6332.125,38.164,6331.856,37.787,6331.479z"/>
	<path d="M25.837,6323.566c-5.221-1.668-10.766-4.952-10.766-6.352c0-0.377,0.215-0.7,0.484-0.7c0.538,0,16.364,5.383,16.633,5.652   c0.108,0.107,0.054,0.7-0.161,1.292C31.597,6324.858,29.928,6324.912,25.837,6323.566z"/>
	<path d="M88.278,6322.705c-5.76-1.884-8.774-6.405-9.904-14.91c-0.861-6.567-1.13-7.105-6.836-15.072   c-2.368-3.337-4.683-6.675-5.06-7.428c-0.7-1.4-0.7-1.507,1.453-2.691l2.207-1.238l0.969,1.292   c3.606,4.683,10.873,15.879,11.519,17.763c0.431,1.238,0.807,3.499,0.807,5.006c0,9.205,5.49,14.265,13.78,12.757   c2.153-0.376,3.768-0.431,5.006-0.054c1.023,0.269,1.938,0.431,2.099,0.323c0.108-0.107-0.215-0.969-0.646-1.884   c-1.13-2.153-1.077-2.584,0.377-2.96c2.799-0.754,2.853-1.185,0.431-3.822c-3.553-3.822-6.029-9.528-6.352-14.642   c-0.377-5.921,0.969-12.649,2.315-11.304c0.215,0.215,0.484,1.992,0.592,3.983c0.484,7.805,2.691,13.834,7.105,19.324   c1.184,1.507,3.014,3.337,4.091,4.037c1.023,0.7,1.83,1.507,1.722,1.776c-0.054,0.215-1.453,1.022-3.068,1.668   c-3.391,1.454-3.445,1.723-1.669,6.137l1.184,2.907l-2.853-0.485c-3.337-0.538-7.751-0.538-13.08-0.054   C91.777,6323.405,90.001,6323.297,88.278,6322.705z"/>
	<path d="M93.123,6314.093c-0.969-1.184-0.969-4.521,0.054-5.167c1.292-0.808,2.153-0.539,4.091,1.399   c1.776,1.776,1.83,1.992,1.077,3.122C97.375,6314.954,94.145,6315.331,93.123,6314.093z"/>
	<path d="M34.611,6300.797c-9.205-0.754-18.517-3.93-21.154-7.267c-0.969-1.238-1.13-1.884-0.807-3.929   c0.215-1.346,0.269-3.122,0.215-4.037c-0.538-5.975-0.269-7.59,1.83-10.712c1.992-3.014,2.045-3.068,1.669-6.998   c-0.538-6.029,0.7-8.828,6.998-15.772c1.669-1.776,3.014-3.391,3.014-3.552c0-0.108-4.468-2.1-9.958-4.414   c-14.91-6.244-16.364-7.913-16.418-18.409v-6.083h1.615c2.961,0,3.768,1.507,3.768,6.89c0,5.06,0.861,7.32,3.337,8.935   c2.799,1.83,27.721,11.789,30.144,12.058c4.629,0.431,11.304-2.638,17.979-8.343l3.445-2.907l1.615,1.238   c0.915,0.646,1.615,1.4,1.615,1.669c0,1.561-10.281,9.205-15.449,11.465c-3.983,1.776-7.051,2.099-11.412,1.292   c-4.683-0.861-5.813-0.323-10.389,5.221c-4.145,4.952-4.737,6.029-4.737,8.182c0,1.991,0.108,1.991,2.907,0.376   c2.745-1.615,8.613-3.553,10.658-3.553c1.507,0,1.561,0.108,1.238,1.776c-0.484,2.1-0.484,2.153-3.606,3.284   c-6.136,2.261-13.511,8.774-14.211,12.488c-0.431,2.422,0.431,3.499,1.83,2.207c1.561-1.399,7.697-3.983,11.196-4.737   c3.014-0.592,3.445-0.538,7.482,0.915c6.083,2.153,9.312,1.992,17.387-0.861c8.343-2.961,9.42-3.122,10.55-1.507   c0.807,1.13,0.807,1.292-0.054,1.938c-1.669,1.292-8.666,4.36-13.242,5.813c-5.975,1.884-10.227,1.884-15.126,0   c-4.36-1.722-6.083-1.615-11.896,0.808c-4.845,1.992-7.428,4.252-7.159,6.298c0.323,2.638,5.167,4.414,17.225,6.298   c1.669,0.269,2.045,0.592,2.584,2.207c0.377,1.023,0.538,1.938,0.431,2.045C39.671,6301.174,37.357,6301.013,34.611,6300.797z"/>
	<path d="M111.155,6298.752c-0.431-0.861-0.807-1.831-0.807-2.153c0-0.323,3.553-0.538,10.496-0.538   c5.76,0,10.496,0.215,10.496,0.484c0,0.215-0.269,1.184-0.592,2.153l-0.592,1.669h-9.097h-9.043L111.155,6298.752z"/>
	<path d="M180.862,6293.208c0-1.077,4.522-8.182,8.29-12.973c7.913-10.066,27.345-26.537,27.237-23.039   c0,0.215-4.952,5.329-10.927,11.465c-5.975,6.083-13.618,14.211-17.01,18.14C182.746,6293.369,180.862,6294.984,180.862,6293.208z"/>
	<path d="M137.262,6280.881c-3.176-1.238-6.675-1.346-26.107-0.915l-8.612,0.215l-3.607-1.723c-3.876-1.83-4.36-2.583-2.584-4.199   c1.023-0.915,1.238-0.915,4.252-0.054c4.898,1.346,9.743,1.615,16.095,0.861c11.465-1.399,18.248-0.646,25.138,2.799   c2.853,1.454,2.799,1.346,1.346,2.853C141.676,6282.334,141.137,6282.334,137.262,6280.881z"/>
	<path d="M80.419,6276.628c-8.074-4.037-13.134-8.882-13.134-12.596c0-7.805,11.896-8.236,26.806-1.077   c6.083,2.907,6.136,2.96,5.383,4.145c-1.184,1.831-2.422,1.776-6.89-0.269c-6.836-3.068-11.25-4.36-15.233-4.414   c-2.961,0-3.822,0.215-4.414,0.969c-1.776,2.422,1.776,5.813,10.443,9.958c3.445,1.615,6.352,3.068,6.459,3.176   c0.431,0.323-2.315,2.853-3.122,2.853C86.233,6279.374,83.38,6278.136,80.419,6276.628z"/>
	<path d="M143.936,6271.461c-2.045-2.638-5.76-6.836-8.343-9.42c-3.876-4.037-4.898-4.737-6.352-4.737   c-1.453,0-1.83,0.269-2.53,1.884c-0.377,1.023-0.754,3.122-0.754,4.683c0,4.306-0.215,4.414-4.898,3.66   c-6.298-1.076-12.434-3.014-18.84-6.029l-5.975-2.799l0.323-1.83c0.161-1.023,0.377-1.992,0.538-2.153   c0.161-0.107,1.938,0.592,3.983,1.669c4.629,2.422,12.434,5.06,16.364,5.544l2.961,0.323l0.377-2.045   c0.592-3.068,2.315-6.459,3.929-7.536c1.776-1.13,4.791-1.184,6.944-0.054c2.907,1.507,7.159,5.76,12.973,12.973   c3.122,3.875,5.76,7.375,5.921,7.751c0.269,0.592-1.723,2.746-2.584,2.799C147.812,6276.144,145.982,6274.044,143.936,6271.461z"/>
	<path d="M40.64,6273.399c-3.983-1.346-4.629-1.938-3.983-3.661c0.431-1.077,0.754-1.184,2.53-0.915   c1.077,0.162,3.445,0.484,5.221,0.646c3.122,0.323,3.283,0.269,4.898-1.346c1.83-1.884,3.822-5.76,3.284-6.352   c-0.215-0.162-3.068-0.484-6.406-0.646l-6.083-0.323l0.161-1.346c0.377-2.422,0.969-2.691,6.513-2.637   c2.853,0.054,5.921,0.215,6.782,0.431c1.453,0.323,1.938,0.054,4.898-3.015c4.36-4.468,8.828-6.621,14.641-6.998   c4.845-0.323,8.29,0.269,14.049,2.583c5.221,2.1,5.652,2.476,4.845,4.683c-0.323,0.969-0.7,1.723-0.807,1.723   c-0.161,0-1.399-0.592-2.799-1.292c-7.751-3.929-16.364-4.629-21.262-1.776c-3.553,2.1-6.836,6.029-10.012,12.111   c-1.561,2.907-3.66,6.137-4.683,7.159c-1.615,1.561-2.207,1.776-5.221,1.938C44.839,6274.475,42.955,6274.206,40.64,6273.399z"/>
	<path d="M155.186,6267.047c-4.629-2.96-10.604-9.151-15.18-15.556c-2.745-3.875-4.683-6.083-6.406-7.159   c-2.853-1.83-7.321-3.553-10.227-4.037c-1.992-0.269-1.992-0.269-3.284,2.53c-2.422,5.437-7.536,9.582-11.788,9.635   c-1.023,0-3.66-0.646-5.921-1.399c-5.437-1.776-19.486-8.667-19.863-9.743c-0.161-0.43,0.161-1.292,0.807-1.884l1.13-1.13   l7.967,3.553c13.511,5.975,15.987,6.459,19.27,3.499c1.077-0.915,2.53-2.799,3.23-4.252l1.292-2.53l-1.184-0.323   c-0.646-0.162-4.683-0.592-8.989-0.915c-4.306-0.323-8.343-0.7-8.989-0.808c-1.077-0.215-2.584-3.014-1.938-3.66   c0.538-0.484,7.913-0.377,14.426,0.215c10.389,0.969,19.432,3.122,25.299,6.029c2.745,1.346,3.607,1.561,5.921,1.292   c3.337-0.431,7.913,0.7,12.219,3.015c4.683,2.476,5.813,3.714,5.813,6.352c0,1.184-0.108,2.153-0.269,2.153   s-1.561-0.969-3.122-2.153c-3.607-2.691-6.89-4.145-10.55-4.629c-3.499-0.431-3.499-0.431,0.646,5.598   c3.553,5.275,8.774,10.496,13.457,13.511c1.992,1.292,3.606,2.422,3.606,2.476c0,0.215-3.553,2.422-3.876,2.422   C158.524,6269.146,156.963,6268.231,155.186,6267.047z"/>
	<path d="M171.927,6258.273c-6.244-12.38-18.302-23.846-29.821-28.313c-3.445-1.346-3.822-1.399-22.339-1.776   c-18.786-0.323-18.84-0.377-25.461-2.045c-3.66-0.915-7.913-1.669-9.474-1.669c-3.445,0-8.397,1.615-10.981,3.606l-1.884,1.4   l2.315,1.992l2.261,1.938l-1.292,1.561l-1.346,1.507l-10.496-7.805l-10.496-7.859l-0.323,3.66   c-0.484,6.083-2.853,9.312-8.451,11.735c-2.422,1.022-2.422,1.022-4.414-0.108c-1.13-0.592-1.992-1.346-1.884-1.615   c0.108-0.215,1.292-0.861,2.638-1.399c1.346-0.539,3.284-1.507,4.199-2.153c3.23-2.314,4.575-7.59,3.23-12.488   c-1.13-3.983-6.998-7.429-12.703-7.429c-2.691,0-3.983-1.022-3.983-3.283c0-1.507,0.108-1.561,2.584-1.561   c2.907,0,7.913,1.184,10.819,2.583c1.507,0.7,12.111,8.667,22.5,16.902c0.484,0.376,1.238,0.054,2.584-1.13   c3.876-3.392,9.689-5.437,15.449-5.437c2.422,0,6.029,0.592,10.281,1.723c6.567,1.669,6.567,1.669,25.138,2.045   c20.67,0.377,21.37,0.484,29.067,4.683c10.443,5.652,21.262,16.956,26.86,27.991c0.592,1.238,1.13,2.476,1.13,2.691   c0,0.431-3.445,2.853-4.037,2.853C173.488,6261.072,172.681,6259.78,171.927,6258.273z"/>
</g>















</svg>
