<?xml version="1.0" encoding="UTF-8"?>
<svg xmlns="http://www.w3.org/2000/svg" id="Layer_1" data-name="Layer 1" viewBox="0 0 24 24" width="512" height="512"><path d="M19.412,9.589a7.5,7.5,0,1,0-14.824,0A7.5,7.5,0,1,0,12,22.486a7.495,7.495,0,1,0,7.412-12.9ZM12,4a4.505,4.505,0,0,1,4.5,4.5,4.417,4.417,0,0,1-.051.5A7.449,7.449,0,0,0,12,10.514,7.449,7.449,0,0,0,7.551,9,4.417,4.417,0,0,1,7.5,8.5,4.505,4.505,0,0,1,12,4ZM3,16.5a4.5,4.5,0,0,1,2.621-4.076,7.531,7.531,0,0,0,3.467,2.987A7.523,7.523,0,0,0,9,16.5a7.442,7.442,0,0,0,1.006,3.735A4.5,4.5,0,0,1,3,16.5ZM16.5,21a4.47,4.47,0,0,1-2.506-.765A7.442,7.442,0,0,0,15,16.5a7.523,7.523,0,0,0-.088-1.089,7.531,7.531,0,0,0,3.467-2.987A4.492,4.492,0,0,1,16.5,21Z"/></svg>
