<svg id="Layer_1" height="512" viewBox="0 0 24 24" width="512" xmlns="http://www.w3.org/2000/svg" data-name="Layer 1"><path d="m22.965 6.019a3.525 3.525 0 0 0 0-4.987 3.608 3.608 0 0 0 -4.982 0l-1.436 1.438c-.834.835-2.718.6-3.984-.1a3.1 3.1 0 0 0 -3.653 4.938l1.077 1.077-7.815 8.054a3.942 3.942 0 0 0 -.921 4.189l-.812.811a1.5 1.5 0 0 0 2.122 2.122l.706-.707a3.957 3.957 0 0 0 4.577-.774l7.8-8.038 1.048 1.048a3.1 3.1 0 0 0 4.935-3.652c-.7-1.267-.932-3.15-.1-3.985zm-17.258 13.956a1 1 0 1 1 -1.4-1.431l7.8-8.038 1.413 1.414zm15.139-16.075-1.437 1.432c-1.934 1.933-1.67 5.262-.445 7.637a.108.108 0 0 1 -.151 0l-7.782-7.782c-.031-.036-.031-.116.085-.187 2.289 1.26 5.619 1.524 7.552-.409l1.439-1.439a.524.524 0 0 1 .739.742z"/></svg>