<?xml version="1.0" encoding="UTF-8"?>
<svg xmlns="http://www.w3.org/2000/svg" id="Layer_1" data-name="Layer 1" viewBox="0 0 24 24" width="512" height="512"><g><path d="M8,15h8v3H8Zm16-3A12.013,12.013,0,0,1,12,24C-3.9,23.4-3.894.6,12,0A12.013,12.013,0,0,1,24,12Zm-3,0a9.01,9.01,0,0,0-9-9C.077,3.452.08,20.55,12,21A9.01,9.01,0,0,0,21,12Z"/><path d="M16.5,6c-4.612.129-4.611,7.872,0,8C21.112,13.871,21.111,6.128,16.5,6Zm0,6c-1.114.045-1.833-1.743-1.352-2.85a1.514,1.514,0,0,0,2.7,0C18.333,10.257,17.614,12.045,16.5,12Z"/><path d="M7.5,6c-4.612.129-4.611,7.872,0,8C12.112,13.871,12.111,6.128,7.5,6Zm0,6c-1.114.045-1.833-1.743-1.352-2.85a1.514,1.514,0,0,0,2.7,0C9.333,10.257,8.614,12.045,7.5,12Z"/></g></svg>
