<?xml version="1.0" encoding="UTF-8"?>
<svg xmlns="http://www.w3.org/2000/svg" id="Layer_1" data-name="Layer 1" viewBox="0 0 24 24" width="512" height="512"><path d="M22.616,8.067a4.726,4.726,0,0,0-6.683-6.683L12.891,4.427a32.691,32.691,0,0,0-4.7,5.939A18.967,18.967,0,0,0,7.028,12.7a10.3,10.3,0,0,1-.692,1.415l-3.3,3.3L2.119,16.5,0,18.618,5.382,24,7.5,21.882l-.919-.92L9.742,17.8a11.434,11.434,0,0,1,1.6-.8,20.311,20.311,0,0,0,2.49-1.258,32.643,32.643,0,0,0,5.6-4.494ZM12.232,13.206a10.526,10.526,0,0,1-1.05.567l-.927-.928a9.765,9.765,0,0,1,.484-.9,29.7,29.7,0,0,1,4.273-5.394l3.042-3.043A1.726,1.726,0,0,1,20.5,5.946l-3.181,3.18A29.576,29.576,0,0,1,12.232,13.206ZM24,21a3,3,0,1,1-3-3A3,3,0,0,1,24,21Z"/></svg>
