<?xml version="1.0" encoding="UTF-8"?>
<svg xmlns="http://www.w3.org/2000/svg" id="Bold" viewBox="0 0 24 24" width="512" height="512"><path d="M8.094,1.329a1.5,1.5,0,0,0-2.684,0L.16,11.829A1.5,1.5,0,0,0,1.5,14h0a1.5,1.5,0,0,0,1.342-.829L3.429,12h6.646l.585,1.171A1.5,1.5,0,0,0,12,14h0a1.5,1.5,0,0,0,1.342-2.171ZM4.929,9,6.752,5.354,8.575,9Z"/><path d="M13,23.5a1.5,1.5,0,0,1-1.061-.439l-5-5a1.5,1.5,0,0,1,2.122-2.122L13,19.879l8.439-8.44a1.5,1.5,0,0,1,2.122,2.122l-9.5,9.5A1.5,1.5,0,0,1,13,23.5Z"/></svg>
