<svg id="Layer_1" height="512" viewBox="0 0 24 24" width="512" xmlns="http://www.w3.org/2000/svg" data-name="Layer 1"><path d="m16.652 15.548a1.5 1.5 0 0 1 -.189 2.1 5.981 5.981 0 0 1 -3.47 1.352 3.33 3.33 0 0 1 -2.179-.841 2.4 2.4 0 0 0 -.236-.174 3.535 3.535 0 0 0 -1.1.649 1.5 1.5 0 0 1 -1.969-2.263 5.409 5.409 0 0 1 3.126-1.371 3.133 3.133 0 0 1 2.032.8c.256.2.27.2.326.2a3.028 3.028 0 0 0 1.551-.656 1.5 1.5 0 0 1 2.108.204zm-1.152-5.548h-7a1.5 1.5 0 0 0 0 3h7a1.5 1.5 0 0 0 0-3zm6.5-2.843v11.343a5.506 5.506 0 0 1 -5.5 5.5h-9a5.506 5.506 0 0 1 -5.5-5.5v-13a5.506 5.506 0 0 1 5.5-5.5h7.343a5.464 5.464 0 0 1 3.889 1.611l1.657 1.657a5.464 5.464 0 0 1 1.611 3.889zm-3 11.343v-11.5h-2a2 2 0 0 1 -2-2v-2h-7.5a2.5 2.5 0 0 0 -2.5 2.5v13a2.5 2.5 0 0 0 2.5 2.5h9a2.5 2.5 0 0 0 2.5-2.5z"/></svg>