<svg id="Layer_1" height="512" viewBox="0 0 24 24" width="512" xmlns="http://www.w3.org/2000/svg" data-name="Layer 1"><path d="m23.268.733a2.489 2.489 0 0 0 -2.307-.673 15.964 15.964 0 0 0 -6.821 4.14l-8.218 8.222a15.07 15.07 0 0 0 -4.21-1.407 1.5 1.5 0 0 0 -.429 2.969 12.287 12.287 0 0 1 4.667 1.944l-2.95 2.951-.439-.44a1.5 1.5 0 0 0 -2.122 2.122l3 3a1.5 1.5 0 0 0 2.122-2.122l-.44-.439 2.95-2.951a12.285 12.285 0 0 1 1.945 4.667 1.5 1.5 0 0 0 1.484 1.284 1.55 1.55 0 0 0 .214-.015 1.5 1.5 0 0 0 1.273-1.7 15.07 15.07 0 0 0 -1.407-4.21l8.22-8.216a17.745 17.745 0 0 0 4.144-6.82 2.491 2.491 0 0 0 -.676-2.306zm-5.592 7.005-7.776 7.776c-.212-.252-.432-.5-.673-.742s-.489-.461-.741-.672l7.775-7.776a13.942 13.942 0 0 1 4.364-2.949 13.949 13.949 0 0 1 -2.949 4.363z"/></svg>