<?xml version="1.0" encoding="UTF-8"?>
<!-- Generator: Adobe Illustrator 25.0.0, SVG Export Plug-In . SVG Version: 6.00 Build 0)  -->
<svg xmlns="http://www.w3.org/2000/svg" xmlns:xlink="http://www.w3.org/1999/xlink" version="1.1" id="Capa_1" x="0px" y="0px" viewBox="0 0 512 512" style="enable-background:new 0 0 512 512;" xml:space="preserve" width="512" height="512">
<g>
	<path d="M437.781,36.885C415.688,13.395,384.888,0.052,352.64,0H288c-60.623,0.095-111.219,46.301-116.8,106.667H160   C95.228,106.737,42.737,159.228,42.667,224v170.667C42.737,459.439,95.228,511.929,160,512h85.333   c64.772-0.071,117.263-52.561,117.333-117.333v-11.2c60.37-5.572,106.582-56.173,106.667-116.8V116.693   C469.376,87.041,458.089,58.492,437.781,36.885z M298.667,394.667c0,29.455-23.878,53.333-53.333,53.333H160   c-29.455,0-53.333-23.878-53.333-53.333V224c0-29.455,23.878-53.333,53.333-53.333h10.667v96   C170.737,331.439,223.228,383.929,288,384h10.667V394.667z M405.333,266.667C405.333,296.122,381.455,320,352,320h-64   c-29.455,0-53.333-23.878-53.333-53.333V117.333C234.667,87.878,258.545,64,288,64h53.333v21.333   C341.333,108.897,360.436,128,384,128h21.333V266.667z"/>
</g>















</svg>
