<svg id="Layer_1" height="512" viewBox="0 0 24 24" width="512" xmlns="http://www.w3.org/2000/svg" data-name="Layer 1"><path d="m15 7.5a1.5 1.5 0 1 1 1.5 1.5 1.5 1.5 0 0 1 -1.5-1.5zm-1.5 4.5a1.5 1.5 0 1 0 -1.5-1.5 1.5 1.5 0 0 0 1.5 1.5zm-3 3a1.5 1.5 0 1 0 -1.5-1.5 1.5 1.5 0 0 0 1.5 1.5zm13.341-11.447-.075.209c-1.654 4.589-3.234 8.925-6.875 12.691a11.063 11.063 0 0 1 -3.3 6.787 2.757 2.757 0 0 1 -1.891.76 2.7 2.7 0 0 1 -2.7-2.7v-1.631a5.259 5.259 0 0 1 -1.607-.941l-1.832 1.833a1.5 1.5 0 0 1 -2.122-2.122l1.834-1.834a5.282 5.282 0 0 1 -1.145-2.605h-1.428a2.7 2.7 0 0 1 -2.7-2.7 2.757 2.757 0 0 1 .76-1.89 11.288 11.288 0 0 1 7.983-3.392c3.476-2.893 7.386-4.3 11.5-5.784l.208-.075a2.652 2.652 0 0 1 3.394 3.394zm-3.073-.321c-4.356 1.573-8.133 3.008-11.368 6.24a26.059 26.059 0 0 0 -1.921 2.449 2.32 2.32 0 0 0 .261 2.979l1.424 1.42a2.32 2.32 0 0 0 2.976.258 17.546 17.546 0 0 0 2.388-1.978c3.232-3.235 4.672-7.012 6.24-11.368z"/></svg>