<?xml version="1.0" encoding="UTF-8"?>
<svg xmlns="http://www.w3.org/2000/svg" id="Layer_1" data-name="Layer 1" viewBox="0 0 24 24" width="512" height="512"><path d="M23,7.073,16.928,1a3.414,3.414,0,0,0-4.823,0L1,12.105a3.415,3.415,0,0,0,0,4.822L7.072,23a3.409,3.409,0,0,0,4.822,0L23,11.9A3.414,3.414,0,0,0,23,7.073ZM14.227,3.12a.409.409,0,0,1,.579,0l1.946,1.945L14.22,7.6,11.984,5.362ZM9.719,12.1,7.483,9.862l2.38-2.379L12.1,9.719Zm4.5-.258,2.3,2.3-2.38,2.379-2.3-2.3Zm-11.1,2.387,2.244-2.244L7.6,14.219,5.065,16.752,3.119,14.806A.41.41,0,0,1,3.118,14.227Zm6.654,6.654a.354.354,0,0,1-.578,0L7.186,18.873l2.533-2.532,2.3,2.3ZM20.881,9.773l-2.243,2.243-2.3-2.3,2.533-2.532,2.007,2.007A.409.409,0,0,1,20.881,9.773Z"/></svg>
