<?xml version="1.0" encoding="UTF-8"?>
<!-- Generator: Adobe Illustrator 26.0.1, SVG Export Plug-In . SVG Version: 6.00 Build 0)  -->
<svg xmlns="http://www.w3.org/2000/svg" xmlns:xlink="http://www.w3.org/1999/xlink" version="1.1" id="Capa_1" x="0px" y="0px" viewBox="0 0 24 24" style="enable-background:new 0 0 24 24;" xml:space="preserve" width="512" height="512">
<g>
	<polygon points="2.902,21.586 1.094,21.586 1.094,19.994 0.293,19.994 0.293,23.941 1.094,23.941 1.094,22.338 2.902,22.338    2.902,23.941 3.703,23.941 3.703,19.994 2.902,19.994  "/>
	<path d="M7.414,22.253c0,0.642-0.319,0.984-0.897,0.984c-0.582,0-0.902-0.353-0.902-1.011v-2.23H4.813v2.257   C4.813,23.363,5.43,24,6.506,24c1.086,0,1.709-0.649,1.709-1.78v-2.226H7.414V22.253z"/>
	<polygon points="16.67,22.708 15.773,19.993 15.12,19.993 14.224,22.708 13.352,19.996 12.499,19.996 13.875,23.941 14.538,23.941    15.436,21.349 16.333,23.941 17.002,23.941 18.374,19.996 17.543,19.996  "/>
	<polygon points="19.81,22.242 21.267,22.242 21.267,21.523 19.81,21.523 19.81,20.715 21.924,20.715 21.924,19.997 19.02,19.997    19.02,23.939 22,23.939 22,23.22 19.81,23.22  "/>
	<rect x="22.955" y="19.994" width="0.79" height="3.942"/>
	<path d="M11.604,23.117l0.354,0.821h0.839l-1.732-3.944h-0.706L8.62,23.938h0.818l0.36-0.821H11.604z M10.699,20.992l0.607,1.413   h-1.211L10.699,20.992z"/>
	<path d="M22.047,7.008c0.13-2.021-1.904-3.891-1.904-3.891s-3.772,4.569-6.521,10.569c-0.014,0.031-0.019,0.084,0.013,0.112   c0.022,0.018,0.063,0.031,0.106,0.01c1.03-0.511,5.314-2.717,7.118-4.439C20.859,9.369,21.987,8.463,22.047,7.008 M17.239,2.448   c0,0-0.472-1.761-2.385-2.226c0,0-0.551-0.14-1.137-0.222c0,0-2.139,2.753-1.099,13.142c0.005,0.054,0.035,0.074,0.059,0.081   c0.039,0.01,0.076-0.004,0.102-0.041c0.686-0.991,3.813-5.626,4.448-8.445C17.227,4.737,17.571,3.373,17.239,2.448 M14.307,15.276   c-0.011,0.023-0.021,0.079,0.022,0.11c0.691,0.495,2.785,1.96,3.794,2.244c0,0,1.866,0.636,3.486-2.148   c0,0-5.423-0.189-7.226-0.252C14.358,15.229,14.321,15.247,14.307,15.276 M23.53,9.1c0,0-6.135,3.295-9.307,5.432   c-0.023,0.016-0.053,0.047-0.037,0.103c0.008,0.03,0.037,0.057,0.075,0.057c1.135,0.002,5.435,0.007,5.543-0.013   c0,0,0.556-0.022,1.243-0.286c0,0,1.529-0.486,2.323-2.223C23.37,12.171,24.078,10.755,23.53,9.1 M9.77,14.532   C6.598,12.395,0.463,9.1,0.463,9.1c-0.548,1.655,0.16,3.071,0.16,3.071c0.794,1.736,2.323,2.223,2.323,2.223   c0.687,0.264,1.243,0.286,1.243,0.286c0.108,0.02,4.408,0.015,5.543,0.013c0.038,0,0.067-0.027,0.075-0.057   C9.822,14.579,9.793,14.548,9.77,14.532 M9.61,15.23c-1.803,0.063-7.226,0.252-7.226,0.252C4.005,18.266,5.87,17.63,5.87,17.63   c1.009-0.284,3.104-1.749,3.794-2.244c0.044-0.031,0.033-0.088,0.022-0.11C9.672,15.247,9.635,15.229,9.61,15.23 M9.139,0.222   C7.226,0.687,6.754,2.448,6.754,2.448C6.422,3.373,6.766,4.737,6.766,4.737c0.635,2.819,3.762,7.455,4.448,8.445   c0.026,0.037,0.063,0.051,0.102,0.041c0.025-0.007,0.054-0.026,0.06-0.081C12.415,2.753,10.276,0,10.276,0   C9.69,0.082,9.139,0.222,9.139,0.222 M3.85,3.117c0,0-2.034,1.87-1.904,3.891c0.06,1.455,1.188,2.361,1.188,2.361   c1.805,1.721,6.088,3.927,7.118,4.439c0.042,0.021,0.083,0.008,0.106-0.01c0.033-0.028,0.027-0.08,0.013-0.112   C7.622,7.685,3.85,3.117,3.85,3.117"/>
</g>















</svg>
