<?xml version="1.0" encoding="UTF-8"?>
<svg xmlns="http://www.w3.org/2000/svg" id="Layer_1" data-name="Layer 1" viewBox="0 0 24 24" width="512" height="512"><path d="M17,14.5A1.5,1.5,0,1,1,15.5,13,1.5,1.5,0,0,1,17,14.5ZM12.5,9A1.5,1.5,0,1,0,14,10.5,1.5,1.5,0,0,0,12.5,9Zm5,0A1.5,1.5,0,1,0,19,10.5,1.5,1.5,0,0,0,17.5,9ZM5.894,23.514c3.739.945,10.1.778,14.248-3.372S24.459,9.633,23.514,5.894A3.954,3.954,0,0,0,24,4a4,4,0,0,0-4-4,3.954,3.954,0,0,0-1.894.486c-3.74-.945-10.1-.778-14.248,3.372S-.459,14.367.486,18.106A3.954,3.954,0,0,0,0,20a4,4,0,0,0,4,4A3.954,3.954,0,0,0,5.894,23.514ZM17.909,3.548l.8.259.639-.555A.982.982,0,0,1,20,3a1,1,0,0,1,1,1,.982.982,0,0,1-.252.647l-.555.639.259.805c.894,2.778,1.025,8.473-2.431,11.93s-9.15,3.325-11.93,2.431l-.805-.259-.639.555A.982.982,0,0,1,4,21a1,1,0,0,1-1-1,.982.982,0,0,1,.252-.647l.555-.639-.259-.8c-.894-2.778-1.025-8.473,2.431-11.93a11.413,11.413,0,0,1,8.112-2.968A12.883,12.883,0,0,1,17.909,3.548Z"/></svg>
