<svg id="Layer_1" height="512" viewBox="0 0 24 24" width="512" xmlns="http://www.w3.org/2000/svg" data-name="Layer 1"><path d="m24 12a12 12 0 0 1 -24 0 12.169 12.169 0 0 1 .121-1.709l2.97.424a9.157 9.157 0 0 0 -.091 1.285 9 9 0 1 0 9-9 9.157 9.157 0 0 0 -1.285.091l-.424-2.97a12.169 12.169 0 0 1 1.709-.121 12.013 12.013 0 0 1 12 12zm-15.505-8.292-1.17-2.763a12 12 0 0 0 -2.654 1.555l1.834 2.372a8.987 8.987 0 0 1 1.99-1.164zm-3.622 2.792-2.373-1.831a11.987 11.987 0 0 0 -1.554 2.655l2.762 1.17a9 9 0 0 1 1.165-1.994zm5.627-.5v4.5h-3.5v3h3.69a1.991 1.991 0 0 0 2.81-2.81v-4.69z"/></svg>