<?xml version="1.0" encoding="UTF-8"?>
<!-- Generator: Adobe Illustrator 25.0.0, SVG Export Plug-In . SVG Version: 6.00 Build 0)  -->
<svg xmlns="http://www.w3.org/2000/svg" xmlns:xlink="http://www.w3.org/1999/xlink" version="1.1" id="Capa_1" x="0px" y="0px" viewBox="0 0 512.34 512.34" style="enable-background:new 0 0 512.34 512.34;" xml:space="preserve" width="512" height="512">
<g>
	<path d="M64,213.333c0.584-82.472,67.915-148.856,150.388-148.271c72.918,0.517,134.8,53.62,146.38,125.615l65.899,23.936   c0-0.427,0-0.853,0-1.28C426.667,95.513,331.154,0,213.333,0S0,95.513,0,213.333s95.513,213.333,213.333,213.333   c0.448,0,0.853,0,1.301,0l-23.936-65.899C117.881,349.602,64.086,287.002,64,213.333z"/>
	<path d="M289.429,172.267c3.648,0,7.253,0.619,10.88,0.96c-22.045-48.128-78.932-69.273-127.06-47.228   s-69.273,78.932-47.228,127.06c9.521,20.785,26.157,37.483,46.907,47.08c-5.821-64.539,41.78-121.578,106.32-127.398   C282.633,172.435,286.03,172.277,289.429,172.267L289.429,172.267z"/>
	<path d="M502.571,457.323l-56.427-56.427l35.541-35.541c22.007-21.998,22.014-57.672,0.016-79.679   c-5.825-5.828-12.858-10.307-20.603-13.121L315.221,219.52c-38.755-14.09-81.595,5.904-95.686,44.66   c-5.994,16.486-5.992,34.557,0.006,51.042l53.035,145.877c6.538,18.127,21.924,31.628,40.747,35.755   c4.049,0.898,8.183,1.355,12.331,1.365c14.906-0.012,29.193-5.962,39.701-16.533l35.541-35.541l56.427,56.427   c12.278,12.712,32.536,13.064,45.248,0.786c12.712-12.278,13.064-32.536,0.786-45.248   C503.099,457.842,502.837,457.58,502.571,457.323z M328.533,427.947L279.68,293.355c-1.543-3.885-0.553-8.319,2.496-11.179   c2.834-3.094,7.298-4.09,11.179-2.496l134.592,48.853L328.533,427.947z"/>
</g>















</svg>
