<?xml version="1.0" encoding="UTF-8"?>
<svg xmlns="http://www.w3.org/2000/svg" id="Layer_1" data-name="Layer 1" viewBox="0 0 24 24" width="512" height="512"><path d="M10,2a2,2,0,0,1,4,0A2,2,0,0,1,10,2ZM21.554,13.6c2.822,3.318.792,8.28-.6,9.741l-.6.707-.9-.225a15.612,15.612,0,0,1-5.945-3.2V23h-3V20.618a15.612,15.612,0,0,1-5.945,3.2l-.9.225-.6-.707c-1.412-1.489-3.418-6.423-.6-9.741A7.092,7.092,0,0,1,.006,8.529,12.333,12.333,0,0,1,1.4,2.688,3.408,3.408,0,0,1,5.683,1.264,20.187,20.187,0,0,1,12,6.034a20.187,20.187,0,0,1,6.317-4.77,3.408,3.408,0,0,1,4.288,1.424,12.333,12.333,0,0,1,1.389,5.841A7.092,7.092,0,0,1,21.554,13.6ZM10.5,14.994a10.924,10.924,0,0,1-3.068.433,7.483,7.483,0,0,1-2.313-.334c-1.652,1.538-1.184,4.055-.308,5.508,2.96-1.106,5.689-3.7,5.689-5.11Zm0-6.133a18.275,18.275,0,0,0-5.976-4.83A.412.412,0,0,0,4,4.169,9.4,9.4,0,0,0,3,8.416a4.339,4.339,0,0,0,4.389,4.011,6.017,6.017,0,0,0,3.107-.7ZM20,17.747a3.76,3.76,0,0,0-1.119-2.654,7.483,7.483,0,0,1-2.313.334,10.924,10.924,0,0,1-3.068-.433v.5c0,1.412,2.729,4,5.689,5.11A5.966,5.966,0,0,0,20,17.747ZM20,4.169a.412.412,0,0,0-.52-.138A18.275,18.275,0,0,0,13.5,8.861v2.871a6.017,6.017,0,0,0,3.107.7A4.339,4.339,0,0,0,21,8.416,9.4,9.4,0,0,0,20,4.169Z"/></svg>
