<?xml version="1.0" encoding="UTF-8"?>
<svg xmlns="http://www.w3.org/2000/svg" id="Layer_1" data-name="Layer 1" viewBox="0 0 24 24" width="512" height="512"><path d="M21,19a2,2,0,0,1-2,2H17V18h5V13.844a6.264,6.264,0,0,0-5.024-6.128L13.3,6.979a1.35,1.35,0,0,1-1.074-1.154l-.4-2.9A3.414,3.414,0,0,0,10.394.6,3.457,3.457,0,0,0,7.638.1L0,2.267V18H4v3H0v3H19a5.006,5.006,0,0,0,5-5ZM3,4.534,8.372,3.01a.4.4,0,0,1,.315.061.39.39,0,0,1,.167.263l.225,1.653H7v3H9.9a4.284,4.284,0,0,0,.546.7l-1.236,2.1,2.586,1.52,1.35-2.3,3.245.649A3.259,3.259,0,0,1,19,13.844V15H3ZM7,18h7v3H7Z"/></svg>
