<?xml version="1.0" encoding="UTF-8"?>
<!-- Generator: Adobe Illustrator 26.0.1, SVG Export Plug-In . SVG Version: 6.00 Build 0)  -->
<svg xmlns="http://www.w3.org/2000/svg" xmlns:xlink="http://www.w3.org/1999/xlink" version="1.1" id="Capa_1" x="0px" y="0px" viewBox="0 0 24 24" style="enable-background:new 0 0 24 24;" xml:space="preserve" width="512" height="512">
<g id="Layer_2_13_">
	<g id="Surfaces_14_">
		<g id="_3D_Substance_Surface_4_">
			<g id="Outline_no_shadow_14_">
				<path d="M10.849,10.02c0.17,0.45,0.252,0.928,0.242,1.409c0.008,0.51-0.076,1.017-0.25,1.497      c-0.537,1.487-2.119,2.078-3.59,2.004c-0.102-0.005-0.202-0.01-0.298-0.016c-0.097-0.005-0.204-0.008-0.322-0.008V8.241      c0.182-0.01,0.346-0.018,0.491-0.024c0.145-0.005,0.324-0.008,0.539-0.008C8.963,8.209,10.346,8.726,10.849,10.02z"/>
				<path d="M19.75,0.3H4.25C1.903,0.3,0,2.203,0,4.55v14.9c0,2.347,1.903,4.25,4.25,4.25h15.5c2.347,0,4.25-1.903,4.25-4.25V4.55      C24,2.203,22.097,0.3,19.75,0.3z M13.079,13.433c-0.202,0.565-0.508,1.086-0.902,1.538c-0.373,0.423-0.811,0.784-1.296,1.071      c-0.482,0.284-1.002,0.495-1.546,0.628c-0.532,0.132-1.078,0.2-1.626,0.201h-1.2c-0.424,0-0.818-0.003-1.183-0.008      c-0.365-0.006-0.639-0.014-0.821-0.024c-0.064,0-0.097-0.054-0.097-0.161V6.438C4.403,6.373,4.45,6.316,4.514,6.31      c0.003,0,0.005,0,0.007,0C4.683,6.298,4.919,6.29,5.23,6.285c0.311-0.005,0.676-0.01,1.095-0.016      c0.419-0.005,0.864-0.008,1.337-0.008c1.288,0,2.356,0.22,3.204,0.66c0.804,0.398,1.468,1.03,1.908,1.811      c0.424,0.768,0.636,1.65,0.636,2.649C13.421,12.079,13.309,12.774,13.079,13.433z M19.977,15.784      c-0.659,0.943-1.843,1.216-2.93,1.216c-0.457,0.005-0.913-0.038-1.361-0.129c-0.337-0.064-0.665-0.172-0.974-0.322      c-0.072-0.037-0.116-0.112-0.113-0.193v-1.739c-0.004-0.035,0.012-0.068,0.04-0.089c0.029-0.016,0.064-0.013,0.089,0.008      c0.368,0.227,0.77,0.392,1.192,0.491c0.384,0.097,0.779,0.148,1.175,0.153c0.376,0,1.1-0.037,1.095-0.564      c-0.005-0.493-0.865-0.745-1.224-0.869c-0.506-0.176-0.985-0.419-1.425-0.724c-0.314-0.219-0.574-0.508-0.756-0.845      c-0.368-0.678-0.29-1.583,0.105-2.23c0.591-0.968,1.755-1.263,2.817-1.272c0.415-0.003,0.829,0.026,1.24,0.089      c0.289,0.037,0.571,0.116,0.837,0.233c0.045,0.013,0.08,0.045,0.097,0.089c0.011,0.039,0.016,0.08,0.016,0.121v1.626      c0.002,0.038-0.016,0.075-0.048,0.097c-0.035,0.022-0.079,0.022-0.113,0c-0.303-0.156-0.625-0.269-0.958-0.338      c-0.367-0.084-0.742-0.127-1.119-0.128c-0.204-0.006-0.407,0.019-0.603,0.072c-0.224,0.061-0.395,0.235-0.395,0.475      c0,0.238,0.243,0.426,0.435,0.523c0.229,0.124,0.466,0.234,0.708,0.33c0.865,0.345,1.844,0.705,2.327,1.561      C20.522,14.12,20.428,15.139,19.977,15.784z"/>
			</g>
		</g>
	</g>
</g>















</svg>
