<?xml version="1.0" encoding="UTF-8"?>
<svg xmlns="http://www.w3.org/2000/svg" id="Layer_1" data-name="Layer 1" viewBox="0 0 24 24" width="512" height="512"><path d="M1.5,24.008a1.492,1.492,0,0,0,1.061-.44l5.95-5.954.728.753a5.291,5.291,0,0,0,3.7,1.64,4.241,4.241,0,0,0,1.417-.241,3.932,3.932,0,0,0,2.606-3.334,8.337,8.337,0,0,0-.213-2.94l-.042-.2,3.388-3.387.452.453a2.049,2.049,0,0,0,2.621.292,1.992,1.992,0,0,0,.254-3.026L16.455.641A2.049,2.049,0,0,0,13.834.349a1.992,1.992,0,0,0-.254,3.026L14.1,3.9,10.72,7.281a8.382,8.382,0,0,0-3.009-.227A4.1,4.1,0,0,0,4.253,9.8a4.221,4.221,0,0,0,.977,4.423l1.2,1.236L.439,21.448A1.5,1.5,0,0,0,1.5,24.008ZM7.081,10.8a1.112,1.112,0,0,1,.942-.762,5.45,5.45,0,0,1,1.955.15l.829.211a1.5,1.5,0,0,0,1.431-.393L16.22,6.022l1.754,1.76L14.01,11.747a1.5,1.5,0,0,0-.407,1.369l.225,1.063a5.437,5.437,0,0,1,.148,1.942.909.909,0,0,1-.625.817,1.961,1.961,0,0,1-1.973-.675L7.37,12.118A1.252,1.252,0,0,1,7.081,10.8Z"/></svg>
