<?xml version="1.0" encoding="UTF-8"?>
<svg xmlns="http://www.w3.org/2000/svg" id="Layer_1" data-name="Layer 1" viewBox="0 0 24 24" width="512" height="512"><path d="M15,2.5A2.5,2.5,0,1,1,17.5,5,2.5,2.5,0,0,1,15,2.5Zm2,18a.5.5,0,0,1-.5.5H16V18.25l-3.974-4.224,2.949-2.965a3.5,3.5,0,0,0-.062-5.011L13.486,5H5V8h6.161L8.953,10.336a3.49,3.49,0,0,0,.072,4.874L13,19.439V21H12v3h4.5A3.5,3.5,0,0,0,20,20.5V20H17Zm-10.05.357A.5.5,0,0,1,6.6,21a.6.6,0,0,1-.331-.124l-.419-.448,3.058-3.046L6.791,15.257,3.8,18.234,3.1,17.477.9,19.523,4.1,22.95A3.475,3.475,0,0,0,6.593,24a3.52,3.52,0,0,0,2.476-1.017l.308-.312-2.139-2.1Z"/></svg>
