<?xml version="1.0" encoding="UTF-8"?>
<!-- Generator: Adobe Illustrator 24.1.0, SVG Export Plug-In . SVG Version: 6.00 Build 0)  -->
<svg xmlns="http://www.w3.org/2000/svg" xmlns:xlink="http://www.w3.org/1999/xlink" version="1.1" id="Capa_1" x="0px" y="0px" viewBox="0 0 512 512" style="enable-background:new 0 0 512 512;" xml:space="preserve" width="512" height="512">
<g>
	<g id="XMLID_1_">
		<path d="M512,256c0,71.68-24.36,131.63-73.05,179.84C387.24,486.61,326.14,512,255.66,512c-69.61,0-129.64-25.17-180.03-75.52    C25.19,386.13,0,325.97,0,256S25.19,125.44,75.61,74.24C124.74,24.75,184.75,0,255.66,0c71.79,0,132.46,24.75,182.01,74.24    C487.21,123.73,512,184.32,512,256z M405.63,402.56c40.17-38.81,60.25-87.7,60.25-146.56c0-58.47-20.5-107.97-61.53-148.48    c-40.6-40.96-89.92-61.44-148.03-61.44S149.1,66.54,108.95,107.5c-41.88,42.24-62.81,91.73-62.81,148.48s20.7,105.81,62.15,147.2    c41.45,41.41,90.77,62.1,148.03,62.1S363.33,444.37,405.63,402.56z"/>
		<path d="M322.71,183.85c43.11,0,72.13,20.48,72.13,70.74c0,50.31-29.02,70.76-72.13,70.76h-54.85v-141.5H322.71z M323.52,295.55    c26.43,0,35.99-18.07,35.99-40.94c0-22.84-9.56-40.94-36.18-40.94h-20.1v81.88H323.52z"/>
		<path d="M258.24,231.77c0,18.85-10.54,47.89-59.01,47.89h-27.62v45.69h-35.78V183.87h70.14    C244.14,183.87,258.24,203.75,258.24,231.77z M201,253.42c16.11,0,21.87-10.54,21.87-21.46c0-14.13-6.74-21.87-22.85-21.87H171.2    v43.33H201z"/>
	</g>
</g>
</svg>
