<?xml version="1.0" encoding="UTF-8"?>
<svg xmlns="http://www.w3.org/2000/svg" id="Layer_1" data-name="Layer 1" viewBox="0 0 24 24" width="512" height="512"><path d="M3.448,20.071A3.657,3.657,0,0,0,6.668,22H10.5v.5a1.5,1.5,0,1,0,3,0V22h3.832a3.657,3.657,0,0,0,3.22-1.93,3.711,3.711,0,0,0-.166-3.8l-1.125-1.71a2.621,2.621,0,0,0,.435-.593,2.66,2.66,0,0,0-.118-2.727L17.847,8.606a2.492,2.492,0,0,0,.211-.326,2.662,2.662,0,0,0-.087-2.71,1.9,1.9,0,0,0-.12-.163L14.052.915C14.028.888,14,.861,13.979.836a2.826,2.826,0,0,0-3.958,0c-.024.024-.048.05-.07.076L6.135,5.4a1.8,1.8,0,0,0-.119.161,2.659,2.659,0,0,0-.095,2.713,2.571,2.571,0,0,0,.224.344L4.422,11.237A2.66,2.66,0,0,0,4.3,13.964a2.621,2.621,0,0,0,.435.593l-1.125,1.71A3.711,3.711,0,0,0,3.448,20.071ZM6.12,17.915h0l2.131-3.24a1.5,1.5,0,0,0-.987-2.3L9.5,8.974A1.506,1.506,0,0,0,8.885,6.8L12,3.135,15.1,6.8a1.5,1.5,0,0,0-.6,2.175l2.237,3.4a1.5,1.5,0,0,0-.987,2.3l2.132,3.24a.7.7,0,0,1,.031.732.641.641,0,0,1-.579.354H6.668a.641.641,0,0,1-.579-.354A.7.7,0,0,1,6.12,17.915Z"/><circle cx="11.5" cy="15.5" r="1.5"/><circle cx="12.5" cy="10.5" r="1.5"/></svg>
