<?xml version="1.0" encoding="UTF-8"?>
<svg xmlns="http://www.w3.org/2000/svg" id="Layer_1" data-name="Layer 1" viewBox="0 0 24 24" width="512" height="512"><path d="M23.929,8.35c-.023-.208-.559-4.6-3.97-5.981V0H4.041V2.369C.63,3.748.094,8.142.071,8.35L0,8.991l.415.493a4.185,4.185,0,0,0,1.636,1.254V20.5A3.5,3.5,0,0,0,5.533,24H18.467a3.5,3.5,0,0,0,3.482-3.5V10.738a4.185,4.185,0,0,0,1.636-1.254L24,8.991ZM5.69,5H18.31c1.573.264,2.247,1.969,2.507,2.965a.751.751,0,0,1-.27.035,1.286,1.286,0,0,1-.81-.287,3.279,3.279,0,0,0-4.078,0,1.283,1.283,0,0,1-1.62,0,3.28,3.28,0,0,0-4.077,0,1.284,1.284,0,0,1-1.621,0,3.28,3.28,0,0,0-4.077,0A1.286,1.286,0,0,1,3.453,8a.743.743,0,0,1-.269-.035C3.444,6.967,4.118,5.264,5.69,5ZM18.467,21H5.533a.5.5,0,0,1-.5-.5V10.68a4.3,4.3,0,0,0,1.09-.623.3.3,0,0,1,.354,0,4.376,4.376,0,0,0,5.343,0,.3.3,0,0,1,.355,0,4.374,4.374,0,0,0,5.342,0,.3.3,0,0,1,.355,0,4.318,4.318,0,0,0,1.089.622V20.5A.5.5,0,0,1,18.467,21Z"/></svg>
