<?xml version="1.0" encoding="UTF-8"?>
<svg xmlns="http://www.w3.org/2000/svg" id="Isolation_Mode" data-name="Isolation Mode" viewBox="0 0 24 24" width="512" height="512"><path d="M21.542,7A2.461,2.461,0,0,0,24,4.542V0H21V4H17.626A6.675,6.675,0,0,0,6.374,4H3V0H0V4.542A2.461,2.461,0,0,0,2.458,7h2.8L4.24,11H0v3H3.572c-.016.2-.042.4-.042.614A8.435,8.435,0,0,0,3.878,17H2.458A2.461,2.461,0,0,0,0,19.458V24H3V20H5.468a8.461,8.461,0,0,0,13.064,0H21v4h3V19.458A2.461,2.461,0,0,0,21.542,17h-1.42a8.435,8.435,0,0,0,.348-2.386c0-.209-.026-.41-.042-.614H24V11H19.754L18.747,7ZM12,20.083a5.476,5.476,0,0,1-5.47-5.469,5.326,5.326,0,0,1,.038-.6L8.512,6.343a3.72,3.72,0,0,1,6.976,0l1.944,7.675a5.326,5.326,0,0,1,.038.6A5.476,5.476,0,0,1,12,20.083Z"/></svg>
