<?xml version="1.0" encoding="UTF-8"?>
<svg xmlns="http://www.w3.org/2000/svg" id="Layer_1" data-name="Layer 1" viewBox="0 0 24 24" width="512" height="512"><path d="M17,24a7.009,7.009,0,0,1-7-7c0-1.927,1.474-4.58,4.379-7.885a3.514,3.514,0,0,1,5.241,0C22.526,12.42,24,15.073,24,17A7.009,7.009,0,0,1,17,24Zm0-13.069a.483.483,0,0,0-.368.166C13.954,14.142,13,16.143,13,17a4,4,0,0,0,8,0c0-.857-.954-2.858-3.633-5.9A.481.481,0,0,0,17,10.931Z"/><path d="M5.5,12.483A5.506,5.506,0,0,1,0,6.983C0,6.175.246,4.74,2.375,1.642a3.821,3.821,0,0,1,6.249,0C10.754,4.74,11,6.175,11,6.983A5.506,5.506,0,0,1,5.5,12.483ZM5.5,3a.773.773,0,0,0-.653.342C3.052,5.955,3,6.886,3,6.983a2.5,2.5,0,1,0,5,0c0-.1-.052-1.028-1.848-3.642A.772.772,0,0,0,5.5,3Z"/></svg>
