<?xml version="1.0" encoding="UTF-8"?>
<svg xmlns="http://www.w3.org/2000/svg" id="Layer_1" data-name="Layer 1" viewBox="0 0 24 24" width="512" height="512"><path d="M13.5,19.467V24h-3V19.854a7.966,7.966,0,0,1-2.991-1.241L4.575,21.546,2.454,19.425l2.932-2.932A7.947,7.947,0,0,1,4.142,13.5H0v-3H4.142A7.947,7.947,0,0,1,5.386,7.507L2.454,4.575,4.575,2.454,7.509,5.387A7.966,7.966,0,0,1,10.5,4.146V0h3V4.533a8.53,8.53,0,0,0-3.06,2.741,4.966,4.966,0,0,0,0,9.452A8.53,8.53,0,0,0,13.5,19.467ZM24,12a6.5,6.5,0,1,1-6.5-6.5A6.508,6.508,0,0,1,24,12Zm-3,0a3.5,3.5,0,1,0-3.5,3.5A3.5,3.5,0,0,0,21,12Z"/></svg>
