<?xml version="1.0" encoding="UTF-8"?>
<!-- Generator: Adobe Illustrator 26.0.1, SVG Export Plug-In . SVG Version: 6.00 Build 0)  -->
<svg xmlns="http://www.w3.org/2000/svg" xmlns:xlink="http://www.w3.org/1999/xlink" version="1.1" id="Capa_1" x="0px" y="0px" viewBox="0 0 24 24" style="enable-background:new 0 0 24 24;" xml:space="preserve" width="512" height="512">
<path style="fill-rule:evenodd;clip-rule:evenodd;" d="M6.839,14.693c0.952,0.507,1.903,1.016,2.843,1.545l2.114,1.188  c-0.734,0.555-1.482,1.092-2.201,1.665c-0.275,0.219-0.53,0.462-0.778,0.71c-0.355,0.354-0.695,0.762-0.97,1.194  c-0.359,0.564-0.732,1.514-0.27,2.138c0.451,0.614,1.207,0.745,1.915,0.842c0.624,0.085,1.344-0.056,1.971-0.155  c1.285-0.202,2.564-0.505,3.821-0.835c0.87-0.229,1.702-0.518,2.528-0.873c0.386-0.166,0.934-0.527,0.836-1.028  c-0.073-0.366-0.39-0.607-0.688-0.794c-0.38-0.239-0.767-0.468-1.154-0.697c0,0-1.587-0.937-1.587-0.937  c0.964-0.654,1.936-1.295,2.891-1.962c0.76-0.531,1.479-1.103,2.154-1.74c0.633-0.599,1.262-1.487,1.165-2.404  c-0.114-1.083-1.236-1.768-2.139-2.165c-0.415-0.183-0.818-0.399-1.246-0.548l-2.889-1.003c0-0.549,0.016-1.099,0-1.648  c-0.024-0.815-0.057-1.63-0.12-2.443c-0.044-0.566-0.112-1.13-0.2-1.691c-0.168-1.069-0.424-2.841-1.772-3.033  C12.24-0.1,11.439,0.412,10.865,0.952C10.262,1.519,9.669,2.097,9.09,2.688C7.577,4.23,6.238,6.034,4.91,7.748  C4.435,8.361,4.007,9.009,3.567,9.648c-0.296,0.43-0.541,0.918-0.778,1.392c-0.141,0.283-0.245,0.617-0.225,0.936  c0.012,0.19,0.175,0.366,0.305,0.492c0.253,0.245,0.561,0.427,0.863,0.603L6.839,14.693z M9.583,6.063  c0.538-0.558,1.077-1.115,1.624-1.664c0.173-0.174,0.583-0.638,0.863-0.481c0.392,0.22,0.357,1.09,0.401,1.474  c0.037,0.328,0.063,0.658,0.094,0.987l0.163,1.752l-1.952-0.449l-1.822-0.3L8.513,7.348L8.369,7.344  C8.774,6.917,9.175,6.487,9.583,6.063z M8.368,8.488C8.38,8.478,8.4,8.481,8.414,8.485l0.068,0.02  C8.624,8.558,8.76,8.619,8.899,8.679c0.62,0.265,1.241,0.531,1.861,0.795c0.411,0.175,0.823,0.35,1.234,0.525l0.812,0.347  l0.072,0.032c0.044,0.642,0.097,1.284,0.131,1.927c0.026,0.502,0.037,1.005,0.05,1.508c0.005,0.216-0.008,0.533-0.227,0.65  c-0.424,0.227-0.982-0.294-1.245-0.575c-0.141-0.15-0.28-0.303-0.41-0.463c-0.235-0.288-0.48-0.571-0.687-0.88  c-0.285-0.426-0.578-0.847-0.856-1.278c-0.166-0.258-0.336-0.514-0.474-0.787c-0.19-0.378-0.381-0.755-0.571-1.133  C8.509,9.187,8.455,9.013,8.4,8.842C8.38,8.765,8.364,8.689,8.351,8.611C8.351,8.611,8.337,8.514,8.368,8.488z M15.285,19.507  c0.536,0.341,1.088,0.686,1.579,1.1c0.063,0.053,0.122,0.111,0.178,0.172c0.046,0.05,0.086,0.104,0.126,0.158  c0.011,0.015,0,0.045-0.012,0.056c-0.025,0.023-0.063,0.027-0.095,0.029c-0.824,0.062-1.648,0.118-2.471,0.183l-3.217,0.253  l-0.101,0.006l0.046-0.05l0.203-0.179c0.417-0.31,0.821-0.639,1.251-0.931l1.822-1.236C14.825,19.215,15.055,19.361,15.285,19.507z   M17.763,13.173c-0.035,0.144-0.164,0.267-0.269,0.363c-0.134,0.123-0.267,0.249-0.415,0.354c-0.512,0.363-1.017,0.734-1.535,1.087  c-0.357,0.244-0.724,0.472-1.087,0.705l-2.114,1.358c-0.299-0.172-0.598-0.343-0.898-0.515l-3.828-2.188  c-0.864-0.517-1.734-1.025-2.593-1.55c-0.162-0.099-0.314-0.214-0.468-0.324c-0.155-0.11-0.367-0.261-0.397-0.466  c-0.025-0.178,0.094-0.347,0.197-0.48c0.053-0.069,0.11-0.134,0.171-0.197c0.494-0.509,0.997-1.011,1.493-1.517l1.34-1.367  l0.064,0.22l0.163,0.388l0.011,0.024c0.354,0.614,0.687,1.241,1.063,1.842c0.432,0.691,0.895,1.362,1.359,2.032  c0.217,0.314,0.445,0.621,0.683,0.919c0.208,0.259,0.423,0.514,0.657,0.751c0.205,0.208,0.429,0.398,0.658,0.581  c0.338,0.272,0.759,0.478,1.201,0.479c0.152,0,0.304-0.028,0.445-0.086c0.444-0.184,0.713-0.664,0.856-1.099  c0.151-0.462,0.304-0.974,0.355-1.468l0.173-1.669c0.396,0.185,0.801,0.352,1.188,0.554c0.378,0.197,0.74,0.425,1.107,0.643  c0.187,0.111,0.444,0.326,0.429,0.571C17.77,13.137,17.768,13.155,17.763,13.173z"/>















</svg>
