<?xml version="1.0" encoding="UTF-8"?>
<svg xmlns="http://www.w3.org/2000/svg" id="Layer_1" data-name="Layer 1" viewBox="0 0 24 24" width="512" height="512"><path d="M23.654,5.249a4.529,4.529,0,0,0-3.083-1.82A4.529,4.529,0,0,0,18.751.346,1.718,1.718,0,0,0,16,1.715V7h-.5a25.64,25.64,0,0,0-4.5.379V7.2A2.178,2.178,0,0,0,8.491,5.031a6.748,6.748,0,0,0-5.483,6.483,13.3,13.3,0,0,0-3,7.9,4.276,4.276,0,0,0,1.257,3.336,3.932,3.932,0,0,0,3,1.247c4.2-.325,8.771-1.923,11.124-7h1.334c2.484.077,3.283-3.876.474-4h-.587A25.226,25.226,0,0,0,17,8.5V8h5.285A1.718,1.718,0,0,0,23.654,5.249ZM4.5,21a1.5,1.5,0,0,1,0-3A1.5,1.5,0,0,1,4.5,21Zm4.8-1.428a9,9,0,0,0-4.893-4.879c1.682-2.846,4.842-4.384,9.549-4.651C13.689,14.728,12.15,17.881,9.3,19.572Z"/></svg>
