<?xml version="1.0" encoding="UTF-8"?>
<svg xmlns="http://www.w3.org/2000/svg" id="Layer_1" data-name="Layer 1" viewBox="0 0 24 24" width="512" height="512"><path d="M21.005,3.5a5.335,5.335,0,0,0-5-3.5H7.992A5.335,5.335,0,0,0,3,3.5L.416,10.59A6.912,6.912,0,0,0,0,12.954v2.728a5.307,5.307,0,0,0,3,4.763V22a2,2,0,0,0,4,0V21H17v1a2,2,0,0,0,4,0V20.445a5.307,5.307,0,0,0,3-4.763V12.954a6.912,6.912,0,0,0-.416-2.364ZM5.813,4.526A2.327,2.327,0,0,1,7.992,3h8.016a2.327,2.327,0,0,1,2.179,1.526L20.54,11H3.46ZM18.682,18H5.318A2.321,2.321,0,0,1,3,15.682V14H5v.5a1.5,1.5,0,0,0,3,0V14h8v.5a1.5,1.5,0,0,0,3,0V14h2v1.682A2.321,2.321,0,0,1,18.682,18Z"/></svg>
