<?xml version="1.0" encoding="UTF-8"?>
<!-- Generator: Adobe Illustrator 26.0.1, SVG Export Plug-In . SVG Version: 6.00 Build 0)  -->
<svg xmlns="http://www.w3.org/2000/svg" xmlns:xlink="http://www.w3.org/1999/xlink" version="1.1" id="Capa_1" x="0px" y="0px" viewBox="0 0 24 24" style="enable-background:new 0 0 24 24;" xml:space="preserve" width="512" height="512">
<g>
	<path d="M12,5.093c-3.962,0-4.958,3.738-4.958,6.907c0,3.17,0.996,6.907,4.958,6.907c3.962,0,4.958-3.738,4.958-6.907   C16.958,8.831,15.962,5.093,12,5.093z M9.866,12c0-1.396,0.097-4.303,2.134-4.303c0.161,0,0.308,0.025,0.445,0.059   c0.285,0.246,0.425,0.585,0.151,1.059l-2.639,4.849C9.877,13.05,9.866,12.449,9.866,12z M12,16.303   c-0.161,0-0.308-0.017-0.446-0.051c-0.026-0.008-0.162-0.051-0.202-0.067c-0.454-0.193-0.74-0.542-0.328-1.16l2.949-5.092   c0.14,0.744,0.16,1.521,0.16,2.067C14.134,13.396,14.037,16.303,12,16.303z"/>
	<path d="M23.126,7.386c-0.586-1.457-1.443-2.745-2.572-3.874C18.197,1.17,15.332,0,11.975,0C8.646,0,5.84,1.159,3.555,3.487   c-1.158,1.158-2.041,2.478-2.656,3.95C0.299,8.895,0,10.414,0,12c0,1.6,0.299,3.12,0.899,4.563c0.6,1.443,1.47,2.742,2.613,3.899   c1.157,1.143,2.456,2.025,3.899,2.639C8.869,23.701,10.389,24,11.975,24c1.586,0,3.128-0.31,4.614-0.924   c1.486-0.614,2.811-1.498,3.983-2.655c1.129-1.1,1.983-2.361,2.555-3.79C23.711,15.188,24,13.644,24,12   C24,10.371,23.711,8.83,23.126,7.386z M19.025,18.874c-0.972,0.943-2.063,1.668-3.278,2.168c-1.2,0.5-2.437,0.748-3.723,0.748   c-1.3,0-2.545-0.245-3.731-0.731c-1.186-0.5-2.251-1.214-3.193-2.143c-0.943-0.943-1.671-2.007-2.185-3.193   c-0.5-1.2-0.756-2.437-0.756-3.723c0-1.3,0.256-2.545,0.756-3.731c0.514-1.2,1.242-2.278,2.185-3.235   C6.972,3.119,9.282,2.16,12.025,2.16c2.714,0,5.029,0.962,6.958,2.891c0.929,0.929,1.641,1.991,2.126,3.177   C21.595,9.413,21.84,10.671,21.84,12C21.84,14.757,20.897,17.045,19.025,18.874z"/>
</g>















</svg>
