<?xml version="1.0" encoding="UTF-8"?>
<svg xmlns="http://www.w3.org/2000/svg" id="Layer_1" data-name="Layer 1" viewBox="0 0 24 24" width="512" height="512"><path d="M24,7a6.854,6.854,0,0,0-6.984-7V3.9a8.969,8.969,0,0,0-4.008-.887A10,10,0,0,0,6.064,6.065,9.994,9.994,0,0,0,3,13a8.973,8.973,0,0,0,.888,4.012L0,17a6.835,6.835,0,0,0,7,7V20.115A8.977,8.977,0,0,0,11,21a10,10,0,0,0,6.943-3.055,10,10,0,0,0,3.063-6.935A8.977,8.977,0,0,0,20.119,7Zm-8.178,8.823A6.992,6.992,0,0,1,11,18a5.233,5.233,0,0,1-3.453-1.071l-.469-.47A5.2,5.2,0,0,1,6,13,6.987,6.987,0,0,1,8.185,8.186a6.994,6.994,0,0,1,4.823-2.177A5.22,5.22,0,0,1,16.449,7.07l.48.478a5.206,5.206,0,0,1,1.077,3.46A6.988,6.988,0,0,1,15.822,15.821Zm-3.884-3.295,2.123,2.121a4.584,4.584,0,0,1-2.511,1.308,3.784,3.784,0,0,1-.576.045,3.063,3.063,0,0,1-2.194-.865L10.9,13.014a.1.1,0,0,0-.036-.027A1.3,1.3,0,0,0,11.938,12.526Z"/></svg>
