<?xml version="1.0" encoding="UTF-8"?>
<!-- Generator: Adobe Illustrator 26.0.1, SVG Export Plug-In . SVG Version: 6.00 Build 0)  -->
<svg xmlns="http://www.w3.org/2000/svg" xmlns:xlink="http://www.w3.org/1999/xlink" version="1.1" id="Capa_1" x="0px" y="0px" viewBox="0 0 24 24" style="enable-background:new 0 0 24 24;" xml:space="preserve" width="512" height="512">
<g>
	<path id="path28_00000073709866318191671830000014127386580848751760_" d="M11.997,8.08c0.562,0,1.025-0.292,1.088-0.67   l0.556-6.279C13.641,0.51,12.914,0,11.999,0c-0.913,0-1.639,0.51-1.639,1.131l0.555,6.279C10.976,7.788,11.439,8.08,12,8.08H11.997   L11.997,8.08z"/>
	<path id="path30_00000124153341203747433310000011324957622965191851_" d="M8.604,10.041c0.282-0.486,0.26-1.034-0.037-1.276   l-5.161-3.62C2.87,4.835,2.065,5.209,1.608,6C1.15,6.791,1.231,7.675,1.767,7.985l5.714,2.661c0.358,0.133,0.844-0.122,1.125-0.608   L8.604,10.041L8.604,10.041z"/>
	<path id="path32_00000155864076711077106610000005655660110521736632_" d="M15.394,10.038c0.281,0.486,0.766,0.741,1.124,0.608   l5.715-2.661c0.538-0.31,0.615-1.194,0.16-1.985c-0.459-0.792-1.265-1.166-1.8-0.855l-5.161,3.62   c-0.295,0.243-0.317,0.79-0.036,1.276L15.394,10.038L15.394,10.038z"/>
	<path id="path34_00000101820081931970565570000016267403855375259060_" d="M11.997,15.923c0.562,0,1.025,0.291,1.088,0.668   l0.556,6.279c0,0.622-0.727,1.131-1.642,1.131c-0.913,0-1.639-0.509-1.639-1.131l0.555-6.279c0.061-0.378,0.525-0.668,1.085-0.668   H11.997L11.997,15.923z"/>
	<path id="path36_00000173880211376678550210000014219910852041691539_" d="M15.394,13.962c0.281-0.487,0.766-0.74,1.124-0.605   l5.715,2.658c0.538,0.311,0.615,1.195,0.16,1.987c-0.459,0.789-1.265,1.164-1.8,0.855l-5.161-3.617   c-0.295-0.246-0.317-0.792-0.036-1.278L15.394,13.962L15.394,13.962z"/>
	<path id="path38_00000105391591122968324110000005745871395683367067_" d="M8.604,13.961c0.282,0.486,0.26,1.033-0.037,1.278   l-5.161,3.617c-0.536,0.31-1.341-0.065-1.798-0.855c-0.458-0.792-0.377-1.676,0.159-1.987l5.714-2.658   c0.358-0.135,0.844,0.118,1.125,0.605L8.604,13.961L8.604,13.961z"/>
</g>















</svg>
