<svg id="Layer_1" height="512" viewBox="0 0 24 24" width="512" xmlns="http://www.w3.org/2000/svg" data-name="Layer 1"><path d="m24 22.5a1.5 1.5 0 0 1 -1.5 1.5h-21a1.5 1.5 0 0 1 0-3h21a1.5 1.5 0 0 1 1.5 1.5zm-23.63-13.159a3.03 3.03 0 0 1 .13-3.113 5.1 5.1 0 0 1 1.785-1.669l7.159-3.907a5.314 5.314 0 0 1 5.112 0l7.16 3.907a5.106 5.106 0 0 1 1.784 1.667 3.032 3.032 0 0 1 .134 3.115 3.126 3.126 0 0 1 -2.634 1.65v5.009h.5a1.5 1.5 0 0 1 0 3h-19a1.5 1.5 0 0 1 0-3h.5v-5.009a3.126 3.126 0 0 1 -2.63-1.65zm5.63 6.659h2v-5h-2zm5-5v5h2v-5zm7 5v-5h-2v5zm-15-8.113a.14.14 0 0 0 .131.113h17.738a.145.145 0 0 0 .131-.115 2.145 2.145 0 0 0 -.721-.693l-7.16-3.906a2.325 2.325 0 0 0 -2.236 0l-7.161 3.906a2.1 2.1 0 0 0 -.722.695z"/></svg>