<?xml version="1.0" encoding="UTF-8"?>
<svg xmlns="http://www.w3.org/2000/svg" id="Layer_1" data-name="Layer 1" viewBox="0 0 24 24" width="512" height="512"><path d="M15.341,6h-.349a6.92,6.92,0,0,0,2.547-1.516,5.769,5.769,0,0,0,1.453-3.356,1,1,0,0,0-1.12-1.12,5.769,5.769,0,0,0-3.356,1.453A5.47,5.47,0,0,0,13.2,4.248,10.808,10.808,0,0,0,11.749.668a1.5,1.5,0,0,0-2.5,1.664A8.209,8.209,0,0,1,10.449,6H8.659A8.845,8.845,0,0,0,0,15c-.194,5.655,5.933,10.877,11.074,8.32a1.6,1.6,0,0,1,1.948.017C18.138,25.882,24.181,20.578,24,15A8.845,8.845,0,0,0,15.341,6Zm0,15a1.817,1.817,0,0,1-.916-.315A4.833,4.833,0,0,0,12,20a4.74,4.74,0,0,0-2.308.657A2.065,2.065,0,0,1,8.659,21c-7.477-.246-7.474-11.756,0-12h6.682C22.82,9.247,22.814,20.756,15.341,21Z"/></svg>
