<?xml version="1.0" encoding="UTF-8"?>
<!-- Generator: Adobe Illustrator 26.0.1, SVG Export Plug-In . SVG Version: 6.00 Build 0)  -->
<svg xmlns="http://www.w3.org/2000/svg" xmlns:xlink="http://www.w3.org/1999/xlink" version="1.1" id="Capa_1" x="0px" y="0px" viewBox="0 0 24 24" style="enable-background:new 0 0 24 24;" xml:space="preserve" width="512" height="512">
<path d="M23.988,6.412c-0.107,2.341-1.739,5.546-4.895,9.614c-3.263,4.249-6.024,6.374-8.282,6.374c-1.399,0-2.583-1.294-3.55-3.882  c-0.646-2.372-1.291-4.744-1.937-7.117C4.606,8.814,3.836,7.519,3.013,7.519c-0.18,0-0.808,0.379-1.883,1.133L0,7.195  c1.185-1.043,2.353-2.085,3.503-3.129c1.58-1.368,2.766-2.087,3.556-2.16c1.868-0.18,3.018,1.099,3.449,3.838  c0.466,2.955,0.789,4.792,0.97,5.511c0.538,2.451,1.131,3.675,1.778,3.675c0.502,0,1.257-0.795,2.263-2.385  c1.005-1.59,1.543-2.8,1.616-3.631c0.143-1.372-0.395-2.06-1.616-2.06c-0.575,0-1.167,0.132-1.776,0.394  c1.179-3.871,3.433-5.751,6.759-5.644C22.968,1.677,24.13,3.279,23.988,6.412z"/>















</svg>
