<?xml version="1.0" encoding="UTF-8"?>
<svg xmlns="http://www.w3.org/2000/svg" id="Layer_1" data-name="Layer 1" viewBox="0 0 24 24" width="512" height="512"><path d="M8.439,12.439,9.879,11,8.439,9.561a1.5,1.5,0,0,1,2.122-2.122L12,8.879l1.439-1.44a1.5,1.5,0,0,1,2.122,2.122L14.121,11l1.44,1.439a1.5,1.5,0,0,1-2.122,2.122L12,13.121l-1.439,1.44a1.5,1.5,0,0,1-2.122-2.122ZM4.262,18.894A11.1,11.1,0,0,1,4.22,3.238a10.967,10.967,0,0,1,15.561,0,11.09,11.09,0,0,1,0,15.615L15.973,22.39A5.706,5.706,0,0,1,8,22.36Zm2.084-2.157,3.722,3.454a2.755,2.755,0,0,0,3.833.03L17.7,16.7a8.074,8.074,0,0,0-.043-11.342h0a7.967,7.967,0,0,0-11.308,0A8.084,8.084,0,0,0,6.346,16.737Z"/></svg>
