<?xml version="1.0" encoding="UTF-8"?>
<svg xmlns="http://www.w3.org/2000/svg" id="Layer_1" data-name="Layer 1" viewBox="0 0 24 24" width="512" height="512"><path d="M22.949,23.988l-2.9-.774c.119-.445.252-.859.384-1.265A8.628,8.628,0,0,0,21,19.1a10.515,10.515,0,0,0-1.778-5.728A13.467,13.467,0,0,1,17,6.08,17.7,17.7,0,0,1,18.382.036l2.736,1.23A14.863,14.863,0,0,0,20,6.08a10.5,10.5,0,0,0,1.778,5.727A13.485,13.485,0,0,1,24,19.1a11.3,11.3,0,0,1-.711,3.767C23.173,23.23,23.054,23.6,22.949,23.988Zm-7.66-1.117A11.3,11.3,0,0,0,16,19.1a13.485,13.485,0,0,0-2.222-7.3A10.5,10.5,0,0,1,12,6.08a14.863,14.863,0,0,1,1.118-4.814L10.382.036A17.7,17.7,0,0,0,9,6.08a13.467,13.467,0,0,0,2.222,7.3A10.515,10.515,0,0,1,13,19.1a8.628,8.628,0,0,1-.565,2.845c-.132.406-.265.82-.384,1.265l2.9.774C15.054,23.6,15.173,23.23,15.289,22.871Zm-8,0A11.3,11.3,0,0,0,8,19.1a13.485,13.485,0,0,0-2.222-7.3A10.5,10.5,0,0,1,4,6.08,14.863,14.863,0,0,1,5.118,1.266L2.382.036A17.7,17.7,0,0,0,1,6.08a13.467,13.467,0,0,0,2.222,7.3A10.515,10.515,0,0,1,5,19.1a8.628,8.628,0,0,1-.565,2.845c-.132.406-.265.82-.384,1.265l2.9.774C7.054,23.6,7.173,23.23,7.289,22.871Z"/></svg>
