<?xml version="1.0" encoding="UTF-8"?>
<svg xmlns="http://www.w3.org/2000/svg" id="Layer_1" data-name="Layer 1" viewBox="0 0 24 24" width="512" height="512"><path d="M3.017,13.5H14.455l-2.689,2.689,2.121,2.122,4.189-4.19a3,3,0,0,0,0-4.242l-4.2-4.2L11.753,7.8l2.7,2.7H3.017Z"/><path d="M20.5,0H3.5A3.528,3.528,0,0,0,0,3.552V7.9H3V3.552A.526.526,0,0,1,3.5,3h17a.526.526,0,0,1,.5.548v16.9a.526.526,0,0,1-.5.548H3.5a.526.526,0,0,1-.5-.548V16.1H0v4.352A3.528,3.528,0,0,0,3.5,24h17A3.528,3.528,0,0,0,24,20.448V3.552A3.528,3.528,0,0,0,20.5,0Z"/></svg>
