<svg id="Layer_1" height="512" viewBox="0 0 24 24" width="512" xmlns="http://www.w3.org/2000/svg" data-name="Layer 1"><path d="m17.561 10.561-1.44 1.439 1.44 1.439a1.5 1.5 0 0 1 -2.122 2.122l-1.439-1.44-1.439 1.44a1.5 1.5 0 0 1 -2.122-2.122l1.44-1.439-1.44-1.439a1.5 1.5 0 0 1 2.122-2.122l1.439 1.44 1.439-1.44a1.5 1.5 0 0 1 2.122 2.122zm6.439-3.561v10a5.006 5.006 0 0 1 -5 5h-9.023a5.534 5.534 0 0 1 -4.37-2.159l-5.3-6.93a1.5 1.5 0 0 1 0-1.822l5.3-6.93a5.534 5.534 0 0 1 4.37-2.159h9.023a5.006 5.006 0 0 1 5 5zm-3 0a2 2 0 0 0 -2-2h-9.023a2.518 2.518 0 0 0 -1.987.981l-4.601 6.019 4.6 6.019a2.518 2.518 0 0 0 1.988.981h9.023a2 2 0 0 0 2-2z"/></svg>