<?xml version="1.0" encoding="UTF-8"?>
<svg xmlns="http://www.w3.org/2000/svg" id="Layer_1" data-name="Layer 1" viewBox="0 0 24 24" width="512" height="512"><path d="M24,17.526a5.243,5.243,0,0,1-3,4.724V17.526a2.253,2.253,0,0,0-2.25-2.25H17.124l-.166-1.312A2.488,2.488,0,0,0,12,14.276v2.5H10.5a1.5,1.5,0,0,0-1.5,1.5V22.5a4.487,4.487,0,0,1,.005-8.468A5.486,5.486,0,0,1,19.629,12.35,5.259,5.259,0,0,1,24,17.526ZM11,24h3V19H11Zm5,0h3V19H16ZM8.171,10.961,7.8,10.889a2.493,2.493,0,1,1,3.059-3.174,7.476,7.476,0,0,1,2.873-.9,5.573,5.573,0,0,0-.435-1L15.571,3.55,13.45,1.429,11.18,3.7A5.493,5.493,0,0,0,10,3.208V0H7V3.208A5.472,5.472,0,0,0,5.82,3.7L3.55,1.429,1.429,3.55,3.7,5.82A5.472,5.472,0,0,0,3.208,7H0v3H3.21A5.441,5.441,0,0,0,3.7,11.175L1.429,13.45,3.55,15.571Z"/></svg>
