<?xml version="1.0" encoding="UTF-8"?>
<svg xmlns="http://www.w3.org/2000/svg" id="Layer_1" data-name="Layer 1" viewBox="0 0 24 24" width="512" height="512"><path d="M16,8a7.964,7.964,0,0,0-5.087,1.83,7.419,7.419,0,0,0-1.952-.685L10.333,6.4,9,5H6L4.733,6.4,6.1,9.136a7.5,7.5,0,1,0,5.58,13.587A8,8,0,1,0,16,8ZM3,16.5A4.505,4.505,0,0,1,7.5,12a4.436,4.436,0,0,1,1.435.256,7.961,7.961,0,0,0,.493,8.293A4.447,4.447,0,0,1,7.5,21,4.505,4.505,0,0,1,3,16.5ZM16,21a4.931,4.931,0,0,1-2.16-.511,7.457,7.457,0,0,0-.512-8.7A4.995,4.995,0,1,1,16,21Z"/><rect x="10.771" y="1.356" width="3.236" height="3" transform="translate(1.608 9.596) rotate(-44.994)"/><rect x="1.158" y="1.246" width="3" height="3.182" transform="translate(-1.227 2.711) rotate(-45)"/><rect x="6" width="3" height="3"/></svg>
