<?xml version="1.0" encoding="UTF-8"?>
<!-- Generator: Adobe Illustrator 26.0.1, SVG Export Plug-In . SVG Version: 6.00 Build 0)  -->
<svg xmlns="http://www.w3.org/2000/svg" xmlns:xlink="http://www.w3.org/1999/xlink" version="1.1" id="Capa_1" x="0px" y="0px" viewBox="0 0 24 24" style="enable-background:new 0 0 24 24;" xml:space="preserve" width="512" height="512">
<g>
	<path d="M11.961,11.631c0,5.539-2.414,9.621-5.535,12.369c5.27-1.107,9.303-6.935,9.303-13.207   c0.005-0.511-0.003-1.026-0.025-1.481l4.073-1.392c0.515-0.18,0.845-0.461,0.846-0.953c0.002-0.333,0.003-0.505,0.003-0.505   c-2.202-0.04-10.185-0.304-10.185-0.304C11.189,7.335,11.961,9.355,11.961,11.631"/>
	<path d="M10.13,4.74c3.736,0.566,6.056,0.122,6.056,0.122s-0.533-1.965-2.077-1.972C11.663,2.88,9.94,2.632,9.94,2.632   C4.725,1.843,3.374,0,3.374,0C3.678,2.031,6.793,4.232,10.13,4.74"/>
</g>















</svg>
