<?xml version="1.0" encoding="UTF-8"?>
<svg xmlns="http://www.w3.org/2000/svg" id="Layer_1" data-name="Layer 1" viewBox="0 0 24 24" width="512" height="512"><path d="M24,16.5v2A5.506,5.506,0,0,1,18.5,24H5.5A5.506,5.506,0,0,1,0,18.5V8.5A5.506,5.506,0,0,1,5.5,3h6a1.5,1.5,0,0,1,0,3h-6A2.493,2.493,0,0,0,3.3,7.336l6.931,6.932a2.555,2.555,0,0,0,3.017.4,1.5,1.5,0,1,1,1.5,2.6,5.523,5.523,0,0,1-6.64-.874L3,11.278V18.5A2.5,2.5,0,0,0,5.5,21h13A2.5,2.5,0,0,0,21,18.5v-2A1.5,1.5,0,0,1,24,16.5ZM22,0H17a2,2,0,0,0-2,2v9.654a1.35,1.35,0,0,0,2.193,1.054L19.5,10.863l2.307,1.845A1.35,1.35,0,0,0,24,11.654V2A2,2,0,0,0,22,0Z"/></svg>
