<?xml version="1.0" encoding="UTF-8"?>
<svg xmlns="http://www.w3.org/2000/svg" id="Layer_1" data-name="Layer 1" viewBox="0 0 24 24" width="512" height="512"><path d="M14.089,11H16v3H14.089l.951,1.658-2.6,1.492L11.5,15.516l-.937,1.634-2.6-1.492L8.911,14H7V11H8.911L7.96,9.342l2.6-1.492L11.5,9.484l.937-1.634,2.6,1.492ZM7.923,17.6l-2.8,4.885,2.6,1.492,2.8-4.885ZM10.4,22.481,13,23.973l2.8-4.885L13.2,17.6Zm13.6-10h0A7.41,7.41,0,0,0,17.584,5.1,8.294,8.294,0,0,0,10.091,0,7.96,7.96,0,0,0,2,8a11.93,11.93,0,0,0,.133,1.892A5.767,5.767,0,0,0,0,14.386H.012c0,.038-.012.075-.012.114a6.01,6.01,0,0,0,4.143,5.668L5.7,17.449l-.737-.127-.313-.159A2.987,2.987,0,0,1,3,14.5c0-.039-.008-.076-.011-.114H3A2.784,2.784,0,0,1,4.527,11.9l1.2-.612-.479-1.258A5.935,5.935,0,0,1,5,8a4.935,4.935,0,0,1,5.091-5,5.4,5.4,0,0,1,4.971,3.927l.308,1.038L16.452,8A4.516,4.516,0,0,1,21,12.477h0l0,.023a4.9,4.9,0,0,1-.674,2.46l-3,5.419A8.046,8.046,0,0,0,24,12.5Z"/></svg>
