<?xml version="1.0" encoding="UTF-8"?>
<!-- Generator: Adobe Illustrator 26.0.1, SVG Export Plug-In . SVG Version: 6.00 Build 0)  -->
<svg xmlns="http://www.w3.org/2000/svg" xmlns:xlink="http://www.w3.org/1999/xlink" version="1.1" id="Capa_1" x="0px" y="0px" viewBox="0 0 24 24" style="enable-background:new 0 0 24 24;" xml:space="preserve" width="512" height="512">
<g>
	<path d="M6.774,6.176c0-0.698-0.428-1.581-2.224-1.581H1.784L0.998,8.232h2.883C6.133,8.232,6.774,7.167,6.774,6.176"/>
	<path d="M14.226,6.176c0-0.698-0.426-1.581-2.222-1.581H9.237L8.451,8.232h2.882C13.586,8.232,14.226,7.167,14.226,6.176"/>
	<path d="M5.776,11.651c0-0.698-0.428-1.584-2.224-1.584H0.786L0,13.707h2.882C5.135,13.707,5.776,12.639,5.776,11.651"/>
	<path d="M13.228,11.651c0-0.698-0.429-1.584-2.223-1.584H8.239l-0.787,3.64h2.883C12.587,13.707,13.228,12.639,13.228,11.651"/>
	<path d="M21.024,9.43c0-0.698-0.428-1.584-2.223-1.584h-2.766l-0.787,3.64h2.882C20.382,11.486,21.024,10.421,21.024,9.43"/>
	<path d="M19.949,15.131c0-0.698-0.427-1.582-2.223-1.582H14.96l-0.786,3.638h2.882C19.309,17.188,19.949,16.119,19.949,15.131"/>
	<path d="M12.157,17.352c0-0.701-0.427-1.586-2.221-1.586H7.168l-0.786,3.64h2.882C11.517,19.405,12.157,18.34,12.157,17.352"/>
	<path d="M22.685,19.406c-0.772,0-1.322-0.578-1.322-1.344c0-0.808,0.611-1.344,1.322-1.344c0.704,0,1.315,0.536,1.315,1.344   C24,18.87,23.389,19.406,22.685,19.406 M22.685,16.952c-0.582,0-1.035,0.456-1.035,1.11c0,0.611,0.395,1.11,1.035,1.11   c0.575,0,1.027-0.453,1.027-1.11C23.712,17.408,23.26,16.952,22.685,16.952 M22.419,18.83h-0.244v-1.487h0.564   c0.359,0,0.542,0.126,0.542,0.427c0,0.27-0.165,0.381-0.388,0.406l0.417,0.654h-0.276l-0.385-0.636h-0.23V18.83z M22.692,17.986   c0.183,0,0.345-0.018,0.345-0.234c0-0.18-0.176-0.201-0.323-0.201h-0.294v0.435H22.692z"/>
</g>















</svg>
