<?xml version="1.0" encoding="UTF-8"?>
<!-- Generator: Adobe Illustrator 26.0.1, SVG Export Plug-In . SVG Version: 6.00 Build 0)  -->
<svg xmlns="http://www.w3.org/2000/svg" xmlns:xlink="http://www.w3.org/1999/xlink" version="1.1" id="Capa_1" x="0px" y="0px" viewBox="0 0 24 24" style="enable-background:new 0 0 24 24;" xml:space="preserve" width="512" height="512">
<path d="M16.066,8.529c0.273,1.998-0.252,4.232-1.923,5.395c-1.195,0.83-2.829,0.755-3.793,0.305  c-1.987-0.927-2.652-3.139-2.507-5.207c0.23-3.263,2.191-4.709,4.034-4.688C14.389,4.323,15.723,6.038,16.066,8.529L16.066,8.529z   M24,3v18c0,1.655-1.345,3-3,3H3c-1.655,0-3-1.345-3-3V3c0-1.655,1.345-3,3-3h18C22.655,0,24,1.345,24,3z M17.679,15.064  c0,0-0.005-1.821-0.005-11.641H16.12v2.159c-0.043,0.016-0.064-0.027-0.086-0.064c-0.514-1.109-1.923-2.48-4.071-2.464  c-2.78,0.021-4.671,1.671-5.389,4.168C6.343,8.02,6.262,8.834,6.279,9.664c0.091,4.173,2.416,6.311,6.021,6.171  c1.548-0.059,2.92-0.911,3.696-2.421c0.027-0.054,0.059-0.102,0.091-0.155c0.011,0.005,0.021,0.005,0.032,0.011  c0.016,0.204,0.011,1.645,0.005,1.848c-0.011,0.793-0.107,1.58-0.386,2.33c-0.418,1.125-1.195,1.859-2.384,2.116  c-0.954,0.209-1.907,0.204-2.85-0.064c-1.152-0.327-1.955-1.018-2.202-2.239c-0.016-0.086-0.07-0.07-0.123-0.07H6.745  c0.043,0.568,0.171,1.087,0.455,1.564c1.296,2.17,4.43,2.598,6.868,2.004C16.741,20.1,17.673,17.818,17.679,15.064L17.679,15.064z"/>















</svg>
