<?xml version="1.0" encoding="UTF-8"?>
<svg xmlns="http://www.w3.org/2000/svg" id="Layer_1" data-name="Layer 1" viewBox="0 0 24 24" width="512" height="512"><path d="M22.6,6.9,14.006.652a3.4,3.4,0,0,0-4.011,0L1.4,6.9A3.416,3.416,0,0,0,0,9.657V13H10.5V24h3V13H24V9.657A3.416,3.416,0,0,0,22.6,6.9ZM14,10H10V8.972a.5.5,0,0,1,.053-.223L12,4.854l1.947,3.9A.5.5,0,0,1,14,8.972ZM3,9.657a.408.408,0,0,1,.168-.331l5.094-3.7L7.369,7.407A3.53,3.53,0,0,0,7,8.972V10H3ZM21,10H17V8.972a3.53,3.53,0,0,0-.369-1.565l-.893-1.786,5.094,3.705A.411.411,0,0,1,21,9.657Z"/><path d="M5.5,19H3V15H0v9H3V22H5v2H8V21.5A2.5,2.5,0,0,0,5.5,19Z"/><path d="M21,19H18.5A2.5,2.5,0,0,0,16,21.5V24h3V22h2v2h3V15H21Z"/></svg>
