<?xml version="1.0" encoding="UTF-8"?>
<!-- Generator: Adobe Illustrator 26.0.1, SVG Export Plug-In . SVG Version: 6.00 Build 0)  -->
<svg xmlns="http://www.w3.org/2000/svg" xmlns:xlink="http://www.w3.org/1999/xlink" version="1.1" id="Capa_1" x="0px" y="0px" viewBox="0 0 24 24" style="enable-background:new 0 0 24 24;" xml:space="preserve" width="512" height="512">
<g>
	<path d="M23.11,4.433H0.89C0.398,4.433,0,4.832,0,5.324v13.353c0,0.492,0.398,0.891,0.89,0.891h22.22   c0.492,0,0.89-0.399,0.89-0.891V5.324C24,4.832,23.602,4.433,23.11,4.433z M4.708,15.187l-1.313-5.085   c-0.081-0.314-0.15-0.428-0.392-0.561C2.606,9.327,1.953,9.126,1.376,9l0.04-0.185h2.804c0.357,0,0.679,0.238,0.76,0.65   l0.694,3.688L7.39,8.815h1.732l-2.67,6.372H4.708z M8.465,15.187l1.364-6.372h1.649l-1.364,6.372H8.465z M13.079,15.288   c-0.737-0.009-1.449-0.162-1.834-0.339l0.298-1.397c0.384,0.179,0.865,0.416,1.694,0.403c0.474-0.008,0.982-0.195,0.986-0.623   c0.002-0.28-0.212-0.48-0.855-0.792c-0.625-0.305-1.454-0.817-1.443-1.734c0.01-1.24,1.157-2.106,2.786-2.106   c0.634,0,1.145,0.138,1.542,0.282l-0.289,1.351c-0.738-0.339-1.389-0.316-1.626-0.284c-0.476,0.061-0.694,0.304-0.699,0.534   c-0.017,0.752,2.317,0.844,2.309,2.525C15.944,14.431,14.811,15.288,13.079,15.288z M20.252,15.187l-0.199-0.952h-2.115   l-0.343,0.952h-1.73l2.472-5.905C18.455,9,18.721,8.815,19.038,8.815h1.407l1.331,6.372H20.252z M18.412,12.929h1.367l-0.499-2.393   L18.412,12.929z"/>
</g>















</svg>
