<svg id="Layer_1" height="512" viewBox="0 0 24 24" width="512" xmlns="http://www.w3.org/2000/svg" data-name="Layer 1"><path d="m13 0c-6.065 0-11 4.037-11 9a7.383 7.383 0 0 0 .094 1.121c-.018.017-.039.028-.057.046a3.991 3.991 0 0 0 -.49 5.038 6.3 6.3 0 0 0 -1.547 4.295 4.373 4.373 0 0 0 4.5 4.5 1.49 1.49 0 0 0 1.489-1.481 1.508 1.508 0 0 0 -1.471-1.519 1.378 1.378 0 0 1 -1.518-1.5 3.392 3.392 0 0 1 1.222-2.75 17.347 17.347 0 0 0 3.25.263c.168 0 .325-.01.492-.013a13.092 13.092 0 0 0 5.036 1c6.065 0 11-4.037 11-9s-4.935-9-11-9zm0 15a10.312 10.312 0 0 1 -2.735-.377 18.684 18.684 0 0 0 -2.59-4.455 3.962 3.962 0 0 0 -2.675-1.152v-.016c0-3.309 3.589-6 8-6s8 2.691 8 6-3.589 6-8 6z"/></svg>