<?xml version="1.0" encoding="UTF-8"?>
<svg xmlns="http://www.w3.org/2000/svg" id="Layer_1" data-name="Layer 1" viewBox="0 0 24 24" width="512" height="512"><path d="M13.5,6h-3V1h3ZM19,1H16V5h3ZM8,1H5V4.989H8ZM21.855,19.98A19.316,19.316,0,0,1,12,23a19.316,19.316,0,0,1-9.855-3.02A4.822,4.822,0,0,1,.809,13.3a4.74,4.74,0,0,1,.824-.918,9.183,9.183,0,0,1-.89-.782,2.728,2.728,0,0,1,3.944-3.77C4.83,7.973,8,10.985,12,10.986s7.168-3.013,7.311-3.154a2.728,2.728,0,0,1,3.944,3.77,9.041,9.041,0,0,1-.887.78,4.756,4.756,0,0,1-.512,7.6ZM20.7,14.965a1.818,1.818,0,0,0-1.163-.776,1.78,1.78,0,0,0-1.336.261A12.3,12.3,0,0,1,12,16.5a12.2,12.2,0,0,1-6.191-2.049,1.778,1.778,0,0,0-.986-.3,1.817,1.817,0,0,0-1.013,3.329A16.074,16.074,0,0,0,12,20a16.074,16.074,0,0,0,8.191-2.516A1.818,1.818,0,0,0,20.7,14.965Z"/></svg>
