<?xml version="1.0" encoding="UTF-8"?>
<svg xmlns="http://www.w3.org/2000/svg" id="Isolation_Mode" data-name="Isolation Mode" viewBox="0 0 24 24" width="512" height="512"><path d="M15.58,23H5.944A5.85,5.85,0,0,1,.188,18.694,5.78,5.78,0,0,1,2.6,12.375,8.178,8.178,0,0,1,15.015,2.559a8.252,8.252,0,0,1,2.962,4.377A8.269,8.269,0,0,1,22.419,10a8.127,8.127,0,0,1,1.459,6.242A8.29,8.29,0,0,1,15.58,23ZM10.087,3.91a5.506,5.506,0,0,0-.776.056,5.171,5.171,0,0,0-3.381,8.2l1.325,1.788L5.1,14.512a2.8,2.8,0,0,0-2,3.446A2.891,2.891,0,0,0,5.944,20H15.58a5.365,5.365,0,0,0,5.341-4.268A5.155,5.155,0,0,0,20,11.774a5.232,5.232,0,0,0-3.494-2.085l-1.136-.152L15.22,8.4a5.212,5.212,0,0,0-2.015-3.449A5.14,5.14,0,0,0,10.087,3.91Z"/></svg>
