<?xml version="1.0" encoding="UTF-8"?>
<svg xmlns="http://www.w3.org/2000/svg" id="Layer_1" data-name="Layer 1" viewBox="0 0 24 24" width="512" height="512"><path d="M19.875,21a1.174,1.174,0,0,1-.9-.466A9.338,9.338,0,0,0,22,13.5V12.438l-2-.7V7.5A3.5,3.5,0,0,0,16.5,4H15V2a2,2,0,0,0-2-2H11A2,2,0,0,0,9,2V4H7.5A3.5,3.5,0,0,0,4,7.5v4.233l-2,.705V13.5a9.34,9.34,0,0,0,3.02,7.029A1.145,1.145,0,0,1,4.125,21,1.173,1.173,0,0,1,3,20H0a4.171,4.171,0,0,0,4.125,4,4.147,4.147,0,0,0,2.63-.969,4.079,4.079,0,0,0,5.261.015,4.076,4.076,0,0,0,5.259-.015A4.084,4.084,0,0,0,24,20H21A1.158,1.158,0,0,1,19.875,21ZM7,7.5A.5.5,0,0,1,7.5,7h9a.5.5,0,0,1,.5.5v3.174L12,8.909,7,10.674ZM9.375,21A1.173,1.173,0,0,1,8.25,20l-.012-.828-.691-.443a6.147,6.147,0,0,1-2.475-4.193L10.5,12.62V20A1.158,1.158,0,0,1,9.375,21Zm5.25,0A1.173,1.173,0,0,1,13.5,20V12.62l5.428,1.916a6.161,6.161,0,0,1-2.472,4.192l-.706.434V20A1.158,1.158,0,0,1,14.625,21Z"/></svg>
