<?xml version="1.0" encoding="UTF-8"?>
<svg xmlns="http://www.w3.org/2000/svg" id="Layer_1" data-name="Layer 1" viewBox="0 0 24 24" width="512" height="512"><path d="M20.143,3.857A3.878,3.878,0,0,0,16.286,0C15.515,0,15,.384,15,1.155V7.02l-.97.01c-1.092.031-2.087.11-3.03.218v-2.4a15.132,15.132,0,0,0-6.915,1.7A2.006,2.006,0,0,0,3,8.322v2.3C.833,13.033,0,16.821,0,22.5V24H1.5c8.345,0,12.6-1.812,14.4-7h1.114a1.978,1.978,0,0,0,1.953-1.662L19.343,13H16.752c.108-.943.187-1.938.218-3.03L16.98,9h5.865C23.616,9,24,8.485,24,7.714A3.878,3.878,0,0,0,20.143,3.857ZM4.5,21a1.5,1.5,0,0,1,0-3A1.5,1.5,0,0,1,4.5,21Zm5.175-1.174A9.164,9.164,0,0,0,4.158,14.36c1.4-3.109,4.292-4.189,9.822-4.34C13.829,15.529,12.757,18.419,9.675,19.826Z"/></svg>
