<?xml version="1.0" encoding="UTF-8"?>
<svg xmlns="http://www.w3.org/2000/svg" id="Layer_1" data-name="Layer 1" viewBox="0 0 24 24" width="512" height="512"><path d="M6,8.5a1.5,1.5,0,0,1,3,0A1.5,1.5,0,0,1,6,8.5ZM11.5,8a1.5,1.5,0,0,0,0-3A1.5,1.5,0,0,0,11.5,8ZM23,15.723V19.5A4.505,4.505,0,0,1,18.5,24H5.5A4.505,4.505,0,0,1,1,19.5V15.723a2,2,0,0,1,0-3.446V9.136A9.147,9.147,0,0,1,10.137,0h3.726A9.147,9.147,0,0,1,23,9.136v3.141A2,2,0,0,1,23,15.723ZM4,9.136V12H20V9.136A6.144,6.144,0,0,0,13.863,3H10.137A6.144,6.144,0,0,0,4,9.136ZM20,19.5V16H17c-3.13,0-3.182.287-5.5,2.3a2.814,2.814,0,0,1-3.716,0C6.172,16.9,5.592,16.152,4,16.026V19.5A1.5,1.5,0,0,0,5.5,21h13A1.5,1.5,0,0,0,20,19.5Z"/></svg>
