<?xml version="1.0" encoding="UTF-8"?>
<!-- Generator: Adobe Illustrator 26.0.1, SVG Export Plug-In . SVG Version: 6.00 Build 0)  -->
<svg xmlns="http://www.w3.org/2000/svg" xmlns:xlink="http://www.w3.org/1999/xlink" version="1.1" id="Capa_1" x="0px" y="0px" viewBox="0 0 24 24" style="enable-background:new 0 0 24 24;" xml:space="preserve" width="512" height="512">
<g>
	<path style="fill-rule:evenodd;clip-rule:evenodd;" d="M12.015,2.16c2.723,0,5.036,0.96,6.939,2.88   c1.922,1.9,2.883,4.22,2.883,6.96c0,2.76-0.941,5.051-2.823,6.87c-1.983,1.96-4.316,2.94-6.999,2.94   c-2.684,0-4.997-0.97-6.939-2.91c-1.943-1.94-2.913-4.24-2.913-6.9c0-2.66,0.981-4.98,2.944-6.96   C6.988,3.12,9.291,2.16,12.015,2.16L12.015,2.16z M11.984,0C8.66,0,5.847,1.16,3.544,3.48C1.181,5.88,0,8.72,0,12   c0,3.28,1.181,6.1,3.544,8.46C5.907,22.82,8.72,24,11.984,24c3.304,0,6.168-1.19,8.592-3.57C22.858,18.17,24,15.36,24,12   c0-3.36-1.162-6.2-3.485-8.52C18.193,1.16,15.348,0,11.984,0"/>
	<path style="fill-rule:evenodd;clip-rule:evenodd;" d="M12.237,4.687c-0.297,0-0.543,0.232-0.561,0.529c0,0-0.141,2.31-0.247,4.051   c-0.081-1.249-0.209-3.208-0.209-3.208c-0.019-0.296-0.265-0.526-0.561-0.526c-0.296,0-0.542,0.23-0.561,0.525   c0,0-0.144,2.18-0.256,3.878c-0.076-1.044-0.2-2.755-0.2-2.755C9.621,6.889,9.378,6.662,9.085,6.66   C8.792,6.658,8.546,6.882,8.521,7.174c0,0-0.188,2.179-0.375,4.347c-0.017-0.116-0.087-0.591-0.087-0.591   c-0.036-0.245-0.228-0.438-0.473-0.475c-0.245-0.036-0.485,0.091-0.591,0.315c0,0-0.438,0.921-0.637,1.339   c-0.522,0-2.125,0-2.125,0v1.125h2.48c0.214,0,0.406-0.123,0.501-0.313c0.234,1.591,0.521,3.543,0.521,3.543   c0.041,0.283,0.288,0.488,0.574,0.48c0.285-0.009,0.519-0.229,0.543-0.514c0,0,0.117-1.359,0.182-2.104   c0.125,1.721,0.275,3.788,0.275,3.788c0.021,0.295,0.267,0.522,0.563,0.521c0.296-0.001,0.54-0.23,0.56-0.526   c0,0,0.133-2.02,0.224-3.409c0.096,1.471,0.231,3.55,0.231,3.55c0.02,0.296,0.266,0.527,0.563,0.526   c0.297-0.001,0.542-0.232,0.56-0.529c0,0,0.137-2.256,0.237-3.892c0.087,1.389,0.218,3.47,0.218,3.47   c0.019,0.295,0.262,0.525,0.558,0.527c0.295,0.002,0.542-0.224,0.565-0.518c0,0,0.132-1.694,0.221-2.838   c0.099,1.308,0.236,3.118,0.236,3.118c0.022,0.292,0.266,0.519,0.559,0.52c0.293,0.001,0.538-0.224,0.562-0.516   c0,0,0.17-2.06,0.33-4.014c0.035,0.294,0.129,1.08,0.129,1.08c0.03,0.254,0.228,0.456,0.481,0.491   c0.254,0.035,0.499-0.106,0.597-0.342c0,0,0.658-1.589,0.87-2.1c0.564,0,2.443,0,2.443,0v-1.125h-2.819   c-0.227,0-0.432,0.136-0.519,0.347c0,0-0.132,0.319-0.191,0.459c-0.234-1.962-0.535-4.491-0.535-4.491   c-0.034-0.287-0.28-0.502-0.569-0.496c-0.288,0.005-0.527,0.228-0.55,0.516c0,0-0.126,1.532-0.205,2.488   c-0.109-1.447-0.252-3.329-0.252-3.329c-0.022-0.293-0.266-0.52-0.56-0.52h0c-0.294,0-0.538,0.226-0.561,0.519   c0,0-0.112,1.443-0.169,2.176c-0.133-2.112-0.287-4.563-0.287-4.563C12.781,4.918,12.534,4.687,12.237,4.687"/>
</g>















</svg>
