<?xml version="1.0" encoding="UTF-8"?>
<svg xmlns="http://www.w3.org/2000/svg" id="Layer_1" data-name="Layer 1" viewBox="0 0 24 24" width="512" height="512"><path d="M21,4.5a3.224,3.224,0,0,0-2.2-3.049A19.043,19.043,0,0,0,12,0,19.054,19.054,0,0,0,5.2,1.451,3.225,3.225,0,0,0,3,4.5V18.084l.232.367A6.1,6.1,0,0,0,4.678,19.9L3,24H6.077l1.132-2.767A14.05,14.05,0,0,0,12,22a14.05,14.05,0,0,0,4.791-.767L17.923,24H21l-1.678-4.1a6.143,6.143,0,0,0,1.447-1.447L21,18.084ZM6.312,4.238A19.692,19.692,0,0,1,9,3.388V5h6V3.388a19.692,19.692,0,0,1,2.688.85.493.493,0,0,1,.306.443C17.927,8.64,15.7,11,12,11S6.073,8.64,6.006,4.681A.493.493,0,0,1,6.312,4.238ZM6,17.113V11.935A8.943,8.943,0,0,0,12,14a8.943,8.943,0,0,0,6-2.065v5.174C17.41,17.7,15.694,19,12,19,8.288,19,6.574,17.689,6,17.113Zm7.5-.613A1.5,1.5,0,1,1,12,15,1.5,1.5,0,0,1,13.5,16.5Z"/></svg>
