<?xml version="1.0" encoding="UTF-8"?>
<svg xmlns="http://www.w3.org/2000/svg" id="Isolation_Mode" data-name="Isolation Mode" viewBox="0 0 24 24" width="512" height="512"><path d="M11.16,11.693,9.4,9.866,7.24,11.945l2.2,2.287a2.363,2.363,0,0,0,1.674.74h.037a2.368,2.368,0,0,0,1.662-.688l5.021-5.023L15.712,7.141Z"/><path d="M11.922,24l-.531-.237C11.007,23.589,2,19.5,2,12V5.525A3,3,0,0,1,4.052,2.679L12,.03l7.949,2.65A2.994,2.994,0,0,1,22,5.525V12c0,8.539-9.137,11.682-9.526,11.812ZM12,3.192,5,5.525V12c0,4.67,5.344,7.847,7.077,8.753C13.819,20.026,19,17.408,19,12V5.525Z"/></svg>
