<?xml version="1.0" encoding="UTF-8"?>
<!-- Generator: Adobe Illustrator 26.0.1, SVG Export Plug-In . SVG Version: 6.00 Build 0)  -->
<svg xmlns="http://www.w3.org/2000/svg" xmlns:xlink="http://www.w3.org/1999/xlink" version="1.1" id="Capa_1" x="0px" y="0px" viewBox="0 0 24 24" style="enable-background:new 0 0 24 24;" xml:space="preserve" width="512" height="512">
<g>
	<path style="fill-rule:evenodd;clip-rule:evenodd;" d="M8.789,10.709l0.736,2.369c-0.222,0.079-0.474,0.126-0.742,0.126   c-0.275,0-0.534-0.048-0.757-0.133l0.749-2.362H8.789z"/>
	<path style="fill-rule:evenodd;clip-rule:evenodd;" d="M15.63,10.882c0,0.734-0.554,0.965-1.248,0.965h-0.521V9.942h0.521   C15.076,9.942,15.63,10.173,15.63,10.882z"/>
	<path style="fill-rule:evenodd;clip-rule:evenodd;" d="M0,6.064v11.873h12.129L24,6.064H0z M14.625,13.471h-0.764l-0.009,2.094   l-3.588-0.003l-0.25-0.907c-0.37,0.121-0.788,0.189-1.232,0.189c-0.455,0-0.884-0.071-1.262-0.2l-0.359,0.919l-2,0.006l0.09-0.462   c-0.028,0.025-0.056,0.05-0.087,0.074c-0.534,0.43-1.207,0.629-2.036,0.644l-0.214,0.002c-0.952,0-1.791-0.226-2.58-0.675   l0.73-1.448c0.791,0.467,1.287,0.572,1.956,0.558c0.347-0.007,0.597-0.07,0.761-0.239c0.099-0.103,0.151-0.231,0.156-0.369   c0.007-0.376-0.529-0.553-1.185-0.756c-0.531-0.165-1.135-0.389-1.607-0.734c-0.558-0.411-0.824-0.925-0.811-1.65   c0.008-0.527,0.203-1.004,0.565-1.378C1.42,8.598,2.258,8.272,3.264,8.272h0.005c0.863,0.001,1.915,0.246,2.676,0.633l-0.821,1.43   C4.29,9.932,3.87,9.893,3.395,9.868c-0.708-0.037-1.064,0.215-1.07,0.488c-0.007,0.332,0.669,0.633,1.306,0.838   c0.964,0.306,2.189,0.715,2.377,1.9L7.77,8.436h2.047l2.064,5.577l-0.008-5.575h2.37c2.258,0,3.318,0.764,3.319,2.518   C17.561,12.531,16.471,13.471,14.625,13.471z"/>
</g>















</svg>
