<svg id="Layer_1" height="512" viewBox="0 0 24 24" width="512" xmlns="http://www.w3.org/2000/svg" data-name="Layer 1"><path d="m15.991 5a2.512 2.512 0 0 0 -2.4 1.793l-4.013 13.631a2.175 2.175 0 0 1 -2.078 1.576 2.247 2.247 0 0 1 -2.091-1.488l-2.31-6.7a2.936 2.936 0 0 0 -1.952-1.85 1.5 1.5 0 0 1 .706-2.916 5.938 5.938 0 0 1 4.074 3.765l1.491 4.33 3.3-11.191a5.53 5.53 0 0 1 5.273-3.95h6.509a1.5 1.5 0 0 1 0 3zm7.409 6.3a1.5 1.5 0 0 0 -2.1.3l-1.8 2.4-1.8-2.4a1.5 1.5 0 1 0 -2.4 1.8l2.325 3.1-2.325 3.1a1.5 1.5 0 1 0 2.4 1.8l1.8-2.4 1.8 2.4a1.5 1.5 0 0 0 2.4-1.8l-2.325-3.1 2.325-3.1a1.5 1.5 0 0 0 -.3-2.1z"/></svg>