<?xml version="1.0" encoding="UTF-8"?>
<svg xmlns="http://www.w3.org/2000/svg" id="Layer_1" data-name="Layer 1" viewBox="0 0 24 24" width="512" height="512"><path d="M21.765,5.818,15.192,1.037A5.414,5.414,0,0,0,12.176.01l-.024,0h-.019l-.025,0c-.071,0-.141,0-.211,0l-.036,0-.019,0h-.016A5.406,5.406,0,0,0,8.807,1.038L2.235,5.818A5.447,5.447,0,0,0,0,10.208,2.8,2.8,0,0,0,2.792,13H10.5v9.5a1.5,1.5,0,0,0,3,0V13h7.708A2.8,2.8,0,0,0,24,10.208,5.447,5.447,0,0,0,21.765,5.818ZM14.638,10H9.362V9.838a2.313,2.313,0,0,1,.387-1.283c.021-.032.04-.063.059-.095L12,4.561l2.192,3.9c.019.032.038.063.059.095a2.313,2.313,0,0,1,.387,1.283ZM4,8.244H4l4.206-3.06-.989,1.76a5.3,5.3,0,0,0-.856,2.894V10H3.009A2.44,2.44,0,0,1,4,8.244ZM17.638,10V9.838a5.3,5.3,0,0,0-.856-2.894l-.99-1.76L20,8.244A2.44,2.44,0,0,1,20.991,10Z"/><path d="M4.591,18H3V15.5a1.5,1.5,0,0,0-3,0v7a1.5,1.5,0,0,0,3,0V21H4.591A.41.41,0,0,1,5,21.409V22.5a1.5,1.5,0,0,0,3,0V21.409A3.413,3.413,0,0,0,4.591,18Z"/><path d="M22.5,14A1.5,1.5,0,0,0,21,15.5V18H19.409A3.413,3.413,0,0,0,16,21.409V22.5a1.5,1.5,0,0,0,3,0V21.409A.41.41,0,0,1,19.409,21H21v1.5a1.5,1.5,0,0,0,3,0v-7A1.5,1.5,0,0,0,22.5,14Z"/></svg>
