<?xml version="1.0" encoding="UTF-8"?>
<svg xmlns="http://www.w3.org/2000/svg" id="Layer_1" data-name="Layer 1" viewBox="0 0 24 24" width="512" height="512"><path d="M12,4H9V0h3Zm5-4H14V4h3ZM7,0H4V4H7ZM24,16a5.506,5.506,0,0,1-5.5,5.5H16.166a21.285,21.285,0,0,1-1.2,1.894l-.45.606H5.482l-.45-.605A29.829,29.829,0,0,1,.017,9.741,3.4,3.4,0,0,1,3.4,6L16.6,6a3.4,3.4,0,0,1,3.378,3.741c-.064.629-.154,1.237-.255,1.834C22.426,11.939,24,13.535,24,16ZM17,9.443a.4.4,0,0,0-.1-.311A.379.379,0,0,0,16.6,9H11v3l1,1v4H7V13l1-1V9H3.4a.383.383,0,0,0-.292.129A.4.4,0,0,0,3,9.44,27.58,27.58,0,0,0,7.035,21h5.93A27.6,27.6,0,0,0,17,9.443ZM21,16c0-.411-.006-1.327-1.932-1.477a31.051,31.051,0,0,1-1.4,3.977H18.5A2.5,2.5,0,0,0,21,16Z"/></svg>
