<?xml version="1.0" encoding="UTF-8"?>
<!-- Generator: Adobe Illustrator 26.0.1, SVG Export Plug-In . SVG Version: 6.00 Build 0)  -->
<svg xmlns="http://www.w3.org/2000/svg" xmlns:xlink="http://www.w3.org/1999/xlink" version="1.1" id="Capa_1" x="0px" y="0px" viewBox="0 0 24 24" style="enable-background:new 0 0 24 24;" xml:space="preserve" width="512" height="512">
<g>
	<path d="M23.559,14.723c-0.014-0.044-0.033-0.083-0.056-0.119c-0.139-0.263-0.477-0.342-1.007-0.232   c-1.653,0.341-2.294,0.131-2.526-0.019c1.342-2.048,2.445-4.522,3.041-6.83c0.271-1.051,0.798-3.524,0.122-4.732   c-0.045-0.084-0.095-0.163-0.151-0.235C21.693,0.908,19.801,0.025,17.51,0c-1.496-0.015-2.771,0.346-3.116,0.479   c-0.168-0.031-0.34-0.059-0.516-0.082c-0.411-0.075-0.848-0.12-1.311-0.128c-1.182-0.019-2.204,0.264-3.05,0.841   C8.659,0.79,4.728-0.534,2.295,1.19C0.936,2.153,0.309,3.873,0.43,6.304c0.041,0.818,0.507,3.334,1.242,5.744   c0.46,1.507,0.939,2.702,1.433,3.582c0.553,0.994,1.126,1.593,1.714,1.79c0.447,0.149,1.133,0.144,1.858-0.728   c0.801-0.964,1.59-1.826,1.945-2.207c0.435,0.235,0.906,0.362,1.39,0.377c0,0.001,0,0.003,0,0.004   c-0.098,0.116-0.179,0.218-0.247,0.305c-0.339,0.43-0.409,0.52-1.5,0.744c-0.31,0.064-1.134,0.234-1.146,0.812   c-0.003,0.122,0.033,0.231,0.092,0.327c0.227,0.423,0.921,0.61,1.015,0.633c1.335,0.334,2.504,0.092,3.371-0.679   c-0.017,2.231,0.078,4.417,0.345,5.087C12.165,22.649,12.705,24,14.412,24c0.25,0,0.526-0.029,0.83-0.094   c1.782-0.382,2.556-1.17,2.855-2.906c0.15-0.871,0.402-2.875,0.539-4.101c0.017-0.07,0.036-0.121,0.057-0.136   c0.001,0,0.07-0.047,0.427,0.031c0.015,0.003,0.029,0.005,0.044,0.007l0.254,0.022c0.005,0,0.01,0.001,0.015,0.001   c0.847,0.039,1.911-0.143,2.531-0.431C22.608,16.094,23.77,15.36,23.559,14.723z M2.371,11.876   C1.627,9.441,1.193,6.991,1.159,6.305C1.05,4.133,1.576,2.622,2.721,1.812c1.837-1.299,4.84-0.541,6.108-0.13   c-0.003,0.003-0.007,0.006-0.01,0.009C6.795,3.735,6.843,7.227,6.848,7.441c0,0.082,0.007,0.199,0.016,0.359   c0.035,0.587,0.1,1.68-0.073,2.918c-0.161,1.15,0.194,2.276,0.973,3.089c0.081,0.084,0.165,0.163,0.252,0.238   c-0.347,0.371-1.1,1.193-1.903,2.158c-0.568,0.682-0.96,0.552-1.089,0.509c-0.392-0.131-0.813-0.587-1.239-1.323   C3.307,14.549,2.823,13.357,2.371,11.876z M8.378,16.963c-0.171-0.043-0.327-0.113-0.432-0.177c0.089-0.039,0.237-0.09,0.483-0.141   c1.283-0.264,1.481-0.451,1.914-1c0.099-0.126,0.212-0.269,0.367-0.443c0.034-0.038,0.059-0.082,0.074-0.13   c0.171-0.151,0.272-0.11,0.437-0.042c0.156,0.065,0.308,0.26,0.369,0.475c0.029,0.102,0.062,0.294-0.045,0.444   C10.641,17.217,9.324,17.2,8.378,16.963z M10.472,12.976l-0.053,0.141c-0.133,0.357-0.257,0.688-0.333,1.003   c-0.667-0.002-1.317-0.287-1.811-0.802c-0.628-0.655-0.913-1.566-0.782-2.5C7.676,9.509,7.609,8.37,7.572,7.758   c-0.005-0.086-0.01-0.161-0.012-0.22c0.296-0.262,1.666-0.996,2.643-0.772c0.446,0.102,0.718,0.406,0.831,0.928   c0.585,2.704,0.077,3.831-0.33,4.736C10.619,12.617,10.54,12.793,10.472,12.976z M17.836,17.548   c-0.017,0.177-0.036,0.376-0.062,0.596l-0.146,0.438c-0.012,0.035-0.018,0.071-0.018,0.108c-0.006,0.475-0.054,0.649-0.115,0.869   c-0.063,0.229-0.135,0.489-0.179,1.057c-0.11,1.414-0.878,2.227-2.417,2.557c-1.516,0.325-1.784-0.497-2.021-1.222   c-0.026-0.08-0.051-0.156-0.077-0.227c-0.215-0.586-0.191-1.412-0.157-2.555c0.017-0.561-0.025-1.901-0.33-2.646   c0.004-0.293,0.011-0.591,0.019-0.892c0.001-0.039-0.004-0.077-0.015-0.113c-0.009-0.069-0.024-0.138-0.044-0.208   c-0.123-0.428-0.421-0.787-0.78-0.935c-0.142-0.059-0.404-0.167-0.718-0.087c0.067-0.276,0.183-0.587,0.309-0.925l0.053-0.142   c0.059-0.16,0.134-0.326,0.213-0.501c0.427-0.948,1.011-2.245,0.377-5.177c-0.237-1.098-1.031-1.634-2.233-1.51   C8.773,6.109,8.114,6.4,7.785,6.566C7.715,6.602,7.65,6.637,7.589,6.67c0.092-1.106,0.439-3.174,1.736-4.482   c0.097-0.098,0.198-0.19,0.303-0.276C9.68,1.902,9.73,1.881,9.773,1.848c0.752-0.571,1.695-0.851,2.802-0.833   c0.409,0.007,0.802,0.034,1.174,0.081c1.939,0.354,3.244,1.447,4.036,2.383c0.814,0.962,1.255,1.932,1.431,2.454   c-1.323-0.135-2.223,0.127-2.68,0.779c-0.993,1.419,0.543,4.173,1.281,5.496c0.135,0.243,0.252,0.452,0.289,0.541   c0.24,0.583,0.551,0.971,0.779,1.255c0.07,0.087,0.137,0.171,0.189,0.245c-0.401,0.116-1.121,0.383-1.055,1.717   c-0.012,0.156-0.042,0.447-0.083,0.815C17.889,16.99,17.865,17.242,17.836,17.548z M18.726,15.927   c-0.04-0.832,0.269-0.918,0.597-1.01c0.046-0.013,0.091-0.026,0.135-0.041c0.039,0.035,0.083,0.069,0.134,0.103   c0.57,0.377,1.582,0.421,3.007,0.134c-0.202,0.177-0.519,0.399-0.953,0.601c-0.41,0.19-1.096,0.333-1.747,0.364   C19.179,16.112,18.813,15.997,18.726,15.927z M19.296,6.656c-0.006,0.351-0.054,0.669-0.105,1.002   c-0.055,0.358-0.112,0.727-0.126,1.176c-0.014,0.437,0.04,0.891,0.093,1.33c0.107,0.887,0.216,1.8-0.207,2.701   c-0.066-0.117-0.129-0.244-0.188-0.386c-0.053-0.128-0.167-0.333-0.325-0.616c-0.616-1.104-2.057-3.69-1.319-4.745   C17.497,6.576,18.459,6.553,19.296,6.656z M19.524,13.669c-0.028-0.035-0.056-0.071-0.085-0.107   c-0.012-0.015-0.024-0.03-0.036-0.045c0.726-1.199,0.584-2.386,0.458-3.438c-0.052-0.432-0.101-0.84-0.088-1.223   c0.013-0.406,0.067-0.754,0.118-1.091c0.064-0.415,0.129-0.844,0.111-1.351c0.013-0.053,0.019-0.116,0.012-0.19   c-0.046-0.485-0.6-1.938-1.729-3.253c-0.608-0.707-1.489-1.497-2.688-2.039c0.525-0.106,1.233-0.203,2.024-0.186   c2.052,0.046,3.675,0.814,4.824,2.282c0.024,0.03,0.046,0.064,0.067,0.1C23.234,4.485,22.235,9.404,19.524,13.669z"/>
	<path d="M10.096,7.135c-0.258-0.036-0.491-0.003-0.61,0.087C9.42,7.272,9.4,7.33,9.394,7.37C9.379,7.477,9.454,7.594,9.5,7.655   c0.129,0.172,0.319,0.29,0.506,0.316c0.027,0.004,0.054,0.006,0.081,0.006c0.312,0,0.596-0.243,0.621-0.423   C10.739,7.328,10.413,7.179,10.096,7.135z"/>
	<path d="M18.003,6.957c-0.297,0.041-0.585,0.175-0.561,0.352c0.019,0.137,0.267,0.372,0.561,0.372c0.025,0,0.05-0.002,0.075-0.005   c0.196-0.027,0.34-0.152,0.408-0.223c0.104-0.109,0.164-0.231,0.153-0.31l0,0C18.614,6.966,18.3,6.915,18.003,6.957z"/>
</g>















</svg>
