<?xml version="1.0" encoding="UTF-8"?>
<svg xmlns="http://www.w3.org/2000/svg" id="Bold" viewBox="0 0 24 24" width="512" height="512"><path d="M10.492,20.809A4.137,4.137,0,0,1,8.038,20L1.7,15.352a4.156,4.156,0,0,1,0-6.7L8.037,4a4.16,4.16,0,0,1,6.436,2.135L17.386,4A4.156,4.156,0,0,1,24,7.352v9.3A4.156,4.156,0,0,1,17.386,20l-2.913-2.135a4.175,4.175,0,0,1-3.981,2.944Zm-.01-14.62a1.121,1.121,0,0,0-.671.229L3.473,11.067a1.157,1.157,0,0,0,0,1.866l6.339,4.649a1.157,1.157,0,0,0,1.84-.934V15.037a1.5,1.5,0,0,1,2.387-1.21l5.12,3.755A1.158,1.158,0,0,0,21,16.648v-9.3a1.158,1.158,0,0,0-1.841-.934l-5.12,3.755a1.5,1.5,0,0,1-2.387-1.21V7.352a1.129,1.129,0,0,0-.633-1.032A1.218,1.218,0,0,0,10.482,6.189Z"/></svg>
