<?xml version="1.0" encoding="UTF-8"?>
<!-- Generator: Adobe Illustrator 25.0.0, SVG Export Plug-In . SVG Version: 6.00 Build 0)  -->
<svg xmlns="http://www.w3.org/2000/svg" xmlns:xlink="http://www.w3.org/1999/xlink" version="1.1" id="Capa_1" x="0px" y="0px" viewBox="0 0 512 512" style="enable-background:new 0 0 512 512;" xml:space="preserve" width="512" height="512">
<g>
	<polygon points="130.965,129.771 160.043,129.771 145.557,91.413  "/>
	<path d="M416,0H96C43.005,0.059,0.059,43.005,0,96v320c0.059,52.995,43.005,95.941,96,96h255.659   c25.476,0.078,49.923-10.048,67.883-28.117l64.341-64.32c18.059-17.966,28.184-42.409,28.117-67.883V96   C511.941,43.005,468.995,0.059,416,0z M202.219,165.952c2.604,6.893-0.873,14.591-7.765,17.195   c-6.893,2.604-14.591-0.873-17.195-7.765l-7.147-18.944h-49.301l-7.232,18.965c-2.801,6.81-10.593,10.06-17.403,7.258   c-6.551-2.695-9.852-10.043-7.514-16.73l42.133-110.656c2.378-6.119,8.262-10.157,14.827-10.176l0,0   c6.434,0.001,12.228,3.897,14.656,9.856L202.219,165.952z M226.283,58.432c0-7.364,5.97-13.333,13.333-13.333   c7.364,0,13.333,5.97,13.333,13.333v112.235c0,7.364-5.97,13.333-13.333,13.333c-7.364,0-13.333-5.97-13.333-13.333V58.432z    M362.667,320C339.103,320,320,339.103,320,362.667V448H96c-17.673,0-32-14.327-32-32V234.667h384V320H362.667z"/>
</g>















</svg>
