<svg id="Layer_1" height="512" viewBox="0 0 24 24" width="512" xmlns="http://www.w3.org/2000/svg" data-name="Layer 1"><path d="m19.5 4h-4.051a4.49 4.49 0 0 0 -4.449-4h-6.5a4.505 4.505 0 0 0 -4.5 4.5v18a1.5 1.5 0 0 0 3 0v-8.5h6.551a4.49 4.49 0 0 0 4.449 4h5.5a4.505 4.505 0 0 0 4.5-4.5v-5a4.505 4.505 0 0 0 -4.5-4.5zm-16.5.5a1.5 1.5 0 0 1 1.5-1.5h6.5a1.5 1.5 0 0 1 1.5 1.5v5a1.5 1.5 0 0 1 -1.5 1.5h-8zm18 9a1.5 1.5 0 0 1 -1.5 1.5h-5.5a1.5 1.5 0 0 1 -1.478-1.283 4.493 4.493 0 0 0 2.978-4.217v-2.5h4a1.5 1.5 0 0 1 1.5 1.5z"/></svg>