<?xml version="1.0" encoding="UTF-8"?>
<!-- Generator: Adobe Illustrator 26.0.1, SVG Export Plug-In . SVG Version: 6.00 Build 0)  -->
<svg xmlns="http://www.w3.org/2000/svg" xmlns:xlink="http://www.w3.org/1999/xlink" version="1.1" id="Capa_1" x="0px" y="0px" viewBox="0 0 24 24" style="enable-background:new 0 0 24 24;" xml:space="preserve" width="512" height="512">
<g>
	<g id="Layer_2_8_">
		<g id="Surfaces_9_">
			<g id="UI_UX_Surface">
				<g id="Outline_no_shadow_9_">
					<path d="M19.75,0.3H4.25C1.903,0.3,0,2.203,0,4.55v14.9c0,2.347,1.903,4.25,4.25,4.25h15.5c2.347,0,4.25-1.903,4.25-4.25V4.55       C24,2.203,22.097,0.3,19.75,0.3z M12.842,16.766c-0.011,0.038-0.048,0.014-0.112,0.025h-2.287       c-0.161,0-0.273-0.006-0.338-0.113c-0.215-0.419-0.429-0.834-0.644-1.248c-0.215-0.413-0.443-0.834-0.684-1.264       c-0.242-0.429-0.48-0.864-0.717-1.304H8.045c-0.215,0.429-0.438,0.859-0.668,1.288c-0.231,0.429-0.459,0.856-0.684,1.28       C6.467,15.854,6.236,16.275,6,16.694C5.957,16.79,5.881,16.8,5.774,16.8H3.569c-0.043,0-0.067,0.017-0.073-0.026       c-0.006-0.039,0.003-0.079,0.024-0.112l3.107-5.104l-3.027-5.12C3.569,6.395,3.563,6.36,3.584,6.333       c0.024-0.028,0.06-0.043,0.097-0.04h2.27C6.001,6.29,6.05,6.298,6.096,6.317c0.038,0.022,0.071,0.052,0.097,0.089       c0.193,0.429,0.408,0.859,0.644,1.288c0.236,0.429,0.474,0.854,0.716,1.272c0.241,0.419,0.464,0.842,0.668,1.272h0.016       C8.452,9.798,8.669,9.368,8.89,8.95c0.22-0.419,0.445-0.84,0.676-1.264c0.231-0.424,0.454-0.845,0.668-1.264       c0.012-0.04,0.035-0.076,0.064-0.105c0.04-0.02,0.084-0.029,0.129-0.024h2.109c0.049-0.012,0.099,0.018,0.112,0.067       c0.008,0.035-0.004,0.071-0.031,0.094l-2.994,4.942l3.204,5.249C12.847,16.682,12.852,16.725,12.842,16.766z M20.409,16.372       c-0.523,0.218-1.068,0.38-1.626,0.483c-0.51,0.094-1.027,0.142-1.545,0.145c-0.741,0.011-1.476-0.142-2.15-0.45       c-0.628-0.291-1.153-0.765-1.505-1.361c-0.365-0.606-0.547-1.365-0.547-2.278c-0.006-0.739,0.183-1.466,0.547-2.109       c0.375-0.654,0.928-1.19,1.594-1.545c0.697-0.386,1.54-0.579,2.528-0.579c0.053,0,0.123,0.002,0.209,0.008       c0.086,0.006,0.188,0.014,0.306,0.024V5.536c0-0.075,0.032-0.113,0.097-0.113h2.029c0.046-0.007,0.09,0.026,0.097,0.073       c0.001,0.008,0.001,0.016,0,0.024v9.515c0,0.183,0.008,0.381,0.024,0.596c0.016,0.215,0.03,0.408,0.04,0.579       C20.51,16.279,20.471,16.343,20.409,16.372z M17.624,10.543c-0.39-0.004-0.777,0.084-1.127,0.257       c-0.341,0.17-0.632,0.425-0.845,0.741c-0.22,0.322-0.33,0.746-0.33,1.272c-0.007,0.351,0.05,0.7,0.169,1.03       c0.098,0.266,0.251,0.508,0.451,0.708c0.191,0.185,0.422,0.322,0.676,0.403c0.268,0.087,0.548,0.13,0.829,0.129       c0.15,0,0.29-0.006,0.419-0.016c0.12-0.009,0.239-0.031,0.354-0.065v-4.395c-0.087-0.023-0.176-0.039-0.266-0.048       C17.844,10.549,17.734,10.543,17.624,10.543z"/>
				</g>
			</g>
		</g>
	</g>
</g>















</svg>
