<?xml version="1.0" encoding="UTF-8"?>
<svg xmlns="http://www.w3.org/2000/svg" id="Layer_1" data-name="Layer 1" viewBox="0 0 24 24" width="512" height="512"><path d="M17.411,24a6.589,6.589,0,0,1-4.658-11.247l4.658-4.939,4.69,4.97a6.584,6.584,0,0,1-.031,9.286h0A6.554,6.554,0,0,1,17.411,24Zm0-11.814L14.9,14.843a3.589,3.589,0,1,0,5.045.031Z"/><path d="M5.625,13.5A5.625,5.625,0,0,1,1.647,3.9L5.625.006l3.966,3.88A5.649,5.649,0,0,1,9.6,11.852h0A5.586,5.586,0,0,1,5.625,13.5Zm0-9.3L3.757,6.03a2.624,2.624,0,0,0,.012,3.7,2.689,2.689,0,0,0,3.711,0h0a2.634,2.634,0,0,0,0-3.712Z"/></svg>
