<?xml version="1.0" encoding="UTF-8"?>
<!-- Generator: Adobe Illustrator 25.0.0, SVG Export Plug-In . SVG Version: 6.00 Build 0)  -->
<svg xmlns="http://www.w3.org/2000/svg" xmlns:xlink="http://www.w3.org/1999/xlink" version="1.1" id="Capa_1" x="0px" y="0px" viewBox="0 0 512 512" style="enable-background:new 0 0 512 512;" xml:space="preserve" width="512" height="512">
<g>
	<path d="M309.333,149.333h53.333v53.333c0,17.673,14.327,32,32,32s32-14.327,32-32v-53.333H480c17.673,0,32-14.327,32-32   s-14.327-32-32-32h-53.333V32c0-17.673-14.327-32-32-32s-32,14.327-32,32v53.333h-53.333c-17.673,0-32,14.327-32,32   S291.66,149.333,309.333,149.333z"/>
	<path d="M117.333,0C52.532,0,0,52.532,0,117.333s52.532,117.333,117.333,117.333s117.333-52.532,117.333-117.333   C234.596,52.561,182.106,0.071,117.333,0z M117.333,170.667C87.878,170.667,64,146.789,64,117.333S87.878,64,117.333,64   s53.333,23.878,53.333,53.333S146.789,170.667,117.333,170.667z"/>
	<path d="M117.333,277.333C52.532,277.333,0,329.865,0,394.667S52.532,512,117.333,512s117.333-52.532,117.333-117.333   C234.596,329.895,182.106,277.404,117.333,277.333z M117.333,448C87.878,448,64,424.122,64,394.667s23.878-53.333,53.333-53.333   s53.333,23.878,53.333,53.333S146.789,448,117.333,448z"/>
	<path d="M394.667,277.333c-64.801,0-117.333,52.532-117.333,117.333S329.865,512,394.667,512S512,459.468,512,394.667   C511.929,329.895,459.439,277.404,394.667,277.333z M394.667,448c-29.455,0-53.333-23.878-53.333-53.333   s23.878-53.333,53.333-53.333S448,365.211,448,394.667S424.122,448,394.667,448z"/>
</g>















</svg>
