<?xml version="1.0" encoding="UTF-8"?>
<!-- Generator: Adobe Illustrator 26.0.1, SVG Export Plug-In . SVG Version: 6.00 Build 0)  -->
<svg xmlns="http://www.w3.org/2000/svg" xmlns:xlink="http://www.w3.org/1999/xlink" version="1.1" id="Capa_1" x="0px" y="0px" viewBox="0 0 24 24" style="enable-background:new 0 0 24 24;" xml:space="preserve" width="512" height="512">
<path id="path3" d="M16.592,9.197c0,0-0.354-3.298-3.626-3.39S8.012,8.28,8.012,11.945s1.858,6.597,5.042,6.597  c3.184,0,3.538-3.665,3.538-3.665l6.103,0.366c0,0,0.359,3.31-2.195,5.835c-2.554,2.525-5.689,2.938-7.878,2.921  c-2.189-0.017-5.225,0.034-8.16-2.972s-3.433-5.927-3.433-8.796c0-2.869,0.557-6.67,4.047-9.552C7.448,0.722,9.852,0,12.257,0  c10.04,0,10.714,9.26,10.714,9.26L16.592,9.197z"/>















</svg>
