<?xml version="1.0" encoding="UTF-8"?>
<svg xmlns="http://www.w3.org/2000/svg" id="Bold" viewBox="0 0 24 24" width="512" height="512"><path d="M18.5,22H5.5A5.506,5.506,0,0,1,0,16.5v-9A5.506,5.506,0,0,1,5.5,2h13A5.506,5.506,0,0,1,24,7.5v9A5.506,5.506,0,0,1,18.5,22ZM5.5,5A2.5,2.5,0,0,0,3,7.5v9A2.5,2.5,0,0,0,5.5,19h13A2.5,2.5,0,0,0,21,16.5v-9A2.5,2.5,0,0,0,18.5,5Z"/><path d="M17.5,12h-6a1.5,1.5,0,0,1,0-3h6a1.5,1.5,0,0,1,0,3Z"/><path d="M12.5,17h-6a1.5,1.5,0,0,1,0-3h6a1.5,1.5,0,0,1,0,3Z"/><circle cx="6.5" cy="10.5" r="1.5"/><circle cx="17.5" cy="15.51" r="1.5"/></svg>
