<?xml version="1.0" encoding="UTF-8"?>
<svg xmlns="http://www.w3.org/2000/svg" id="Layer_1" data-name="Layer 1" viewBox="0 0 24 24" width="512" height="512"><path d="M15.5,7A2.587,2.587,0,0,1,18,9.667C18,11,16.881,11,15.5,11S13,11,13,9.667A2.587,2.587,0,0,1,15.5,7ZM24,12A12,12,0,1,0,12,24,12.013,12.013,0,0,0,24,12Zm-3,0a9,9,0,1,1-9-9A9.01,9.01,0,0,1,21,12Zm-3.443,3.564a1.5,1.5,0,0,0-2.109-2.133A5.814,5.814,0,0,1,12,15a5.812,5.812,0,0,1-3.443-1.564,1.5,1.5,0,0,0-2.114,2.128A8.813,8.813,0,0,0,12,18,8.813,8.813,0,0,0,17.557,15.564ZM11,9.5A1.5,1.5,0,0,0,9.5,8h-2a1.5,1.5,0,0,0,0,3h2A1.5,1.5,0,0,0,11,9.5Z"/></svg>
