<?xml version="1.0" encoding="UTF-8"?>
<svg xmlns="http://www.w3.org/2000/svg" id="Layer_1" data-name="Layer 1" viewBox="0 0 24 24" width="512" height="512"><path d="M22.5,19H15.149A3.509,3.509,0,0,0,13.5,17.351V14h7.654A1.847,1.847,0,0,0,23,12.154V11a2,2,0,0,0-2-2V4.5A4.505,4.505,0,0,0,16.5,0h-9A4.505,4.505,0,0,0,3,4.5V9a2,2,0,0,0-2,2v1.154A1.847,1.847,0,0,0,2.846,14H10.5v3.351A3.509,3.509,0,0,0,8.851,19H1.5a1.5,1.5,0,0,0,0,3H8.851a3.479,3.479,0,0,0,6.3,0H22.5a1.5,1.5,0,0,0,0-3ZM8.934,9.678l-.329-.356A1,1,0,0,0,7.87,9H6V4.5A1.5,1.5,0,0,1,7.5,3h9A1.5,1.5,0,0,1,18,4.5V9H16.13a1,1,0,0,0-.735.322l-.329.356a1,1,0,0,1-.735.322H9.669A1,1,0,0,1,8.934,9.678Z"/></svg>
