<?xml version="1.0" encoding="UTF-8"?>
<!-- Generator: Adobe Illustrator 26.0.1, SVG Export Plug-In . SVG Version: 6.00 Build 0)  -->
<svg xmlns="http://www.w3.org/2000/svg" xmlns:xlink="http://www.w3.org/1999/xlink" version="1.1" id="Capa_1" x="0px" y="0px" viewBox="0 0 24 24" style="enable-background:new 0 0 24 24;" xml:space="preserve" width="512" height="512">
<g>
	<path d="M3.602,8.965H3.52c-0.107,0-0.157,0.063-0.157,0.145v0.427c0,0.082,0.051,0.145,0.157,0.145h0.082   c0.271,0,0.352-0.214,0.352-0.365C3.954,9.154,3.872,8.965,3.602,8.965z M3.634,10.436H3.52c-0.107,0-0.157,0.063-0.157,0.145v0.49   c0,0.082,0.051,0.144,0.157,0.144h0.113c0.302,0,0.39-0.232,0.39-0.396C4.024,10.636,3.936,10.436,3.634,10.436z M3.634,10.436   H3.52c-0.107,0-0.157,0.063-0.157,0.145v0.49c0,0.082,0.051,0.144,0.157,0.144h0.113c0.302,0,0.39-0.232,0.39-0.396   C4.024,10.636,3.936,10.436,3.634,10.436z M3.602,8.965H3.52c-0.107,0-0.157,0.063-0.157,0.145v0.427   c0,0.082,0.051,0.145,0.157,0.145h0.082c0.271,0,0.352-0.214,0.352-0.365C3.954,9.154,3.872,8.965,3.602,8.965z M3.602,8.965H3.52   c-0.107,0-0.157,0.063-0.157,0.145v0.427c0,0.082,0.051,0.145,0.157,0.145h0.082c0.271,0,0.352-0.214,0.352-0.365   C3.954,9.154,3.872,8.965,3.602,8.965z M3.634,10.436H3.52c-0.107,0-0.157,0.063-0.157,0.145v0.49c0,0.082,0.051,0.144,0.157,0.144   h0.113c0.302,0,0.39-0.232,0.39-0.396C4.024,10.636,3.936,10.436,3.634,10.436z M10.46,9.072h-0.088   c-0.106,0-0.157,0.063-0.157,0.145v0.427c0,0.082,0.05,0.144,0.157,0.144h0.089c0.264,0,0.346-0.207,0.346-0.364   C10.807,9.261,10.725,9.072,10.46,9.072z M10.46,9.072h-0.088c-0.106,0-0.157,0.063-0.157,0.145v0.427   c0,0.082,0.05,0.144,0.157,0.144h0.089c0.264,0,0.346-0.207,0.346-0.364C10.807,9.261,10.725,9.072,10.46,9.072z M3.634,10.436   H3.52c-0.107,0-0.157,0.063-0.157,0.145v0.49c0,0.082,0.051,0.144,0.157,0.144h0.113c0.302,0,0.39-0.232,0.39-0.396   C4.024,10.636,3.936,10.436,3.634,10.436z M3.602,8.965H3.52c-0.107,0-0.157,0.063-0.157,0.145v0.427   c0,0.082,0.051,0.145,0.157,0.145h0.082c0.271,0,0.352-0.214,0.352-0.365C3.954,9.154,3.872,8.965,3.602,8.965z M3.602,8.965H3.52   c-0.107,0-0.157,0.063-0.157,0.145v0.427c0,0.082,0.051,0.145,0.157,0.145h0.082c0.271,0,0.352-0.214,0.352-0.365   C3.954,9.154,3.872,8.965,3.602,8.965z M3.634,10.436H3.52c-0.107,0-0.157,0.063-0.157,0.145v0.49c0,0.082,0.051,0.144,0.157,0.144   h0.113c0.302,0,0.39-0.232,0.39-0.396C4.024,10.636,3.936,10.436,3.634,10.436z M10.46,9.072h-0.088   c-0.106,0-0.157,0.063-0.157,0.145v0.427c0,0.082,0.05,0.144,0.157,0.144h0.089c0.264,0,0.346-0.207,0.346-0.364   C10.807,9.261,10.725,9.072,10.46,9.072z M20.22,9.072h-0.088c-0.107,0-0.157,0.063-0.157,0.145v0.427   c0,0.082,0.05,0.144,0.157,0.144h0.088c0.264,0,0.346-0.207,0.346-0.364C20.566,9.261,20.484,9.072,20.22,9.072z M20.22,9.072   h-0.088c-0.107,0-0.157,0.063-0.157,0.145v0.427c0,0.082,0.05,0.144,0.157,0.144h0.088c0.264,0,0.346-0.207,0.346-0.364   C20.566,9.261,20.484,9.072,20.22,9.072z M10.46,9.072h-0.088c-0.106,0-0.157,0.063-0.157,0.145v0.427   c0,0.082,0.05,0.144,0.157,0.144h0.089c0.264,0,0.346-0.207,0.346-0.364C10.807,9.261,10.725,9.072,10.46,9.072z M3.634,10.436   H3.52c-0.107,0-0.157,0.063-0.157,0.145v0.49c0,0.082,0.051,0.144,0.157,0.144h0.113c0.302,0,0.39-0.232,0.39-0.396   C4.024,10.636,3.936,10.436,3.634,10.436z M3.602,8.965H3.52c-0.107,0-0.157,0.063-0.157,0.145v0.427   c0,0.082,0.051,0.145,0.157,0.145h0.082c0.271,0,0.352-0.214,0.352-0.365C3.954,9.154,3.872,8.965,3.602,8.965z M3.602,8.965H3.52   c-0.107,0-0.157,0.063-0.157,0.145v0.427c0,0.082,0.051,0.145,0.157,0.145h0.082c0.271,0,0.352-0.214,0.352-0.365   C3.954,9.154,3.872,8.965,3.602,8.965z M3.634,10.436H3.52c-0.107,0-0.157,0.063-0.157,0.145v0.49c0,0.082,0.051,0.144,0.157,0.144   h0.113c0.302,0,0.39-0.232,0.39-0.396C4.024,10.636,3.936,10.436,3.634,10.436z M10.46,9.072h-0.088   c-0.106,0-0.157,0.063-0.157,0.145v0.427c0,0.082,0.05,0.144,0.157,0.144h0.089c0.264,0,0.346-0.207,0.346-0.364   C10.807,9.261,10.725,9.072,10.46,9.072z M20.22,9.072h-0.088c-0.107,0-0.157,0.063-0.157,0.145v0.427   c0,0.082,0.05,0.144,0.157,0.144h0.088c0.264,0,0.346-0.207,0.346-0.364C20.566,9.261,20.484,9.072,20.22,9.072z M20.22,9.072   h-0.088c-0.107,0-0.157,0.063-0.157,0.145v0.427c0,0.082,0.05,0.144,0.157,0.144h0.088c0.264,0,0.346-0.207,0.346-0.364   C20.566,9.261,20.484,9.072,20.22,9.072z M10.46,9.072h-0.088c-0.106,0-0.157,0.063-0.157,0.145v0.427   c0,0.082,0.05,0.144,0.157,0.144h0.089c0.264,0,0.346-0.207,0.346-0.364C10.807,9.261,10.725,9.072,10.46,9.072z M3.634,10.436   H3.52c-0.107,0-0.157,0.063-0.157,0.145v0.49c0,0.082,0.051,0.144,0.157,0.144h0.113c0.302,0,0.39-0.232,0.39-0.396   C4.024,10.636,3.936,10.436,3.634,10.436z M3.602,8.965H3.52c-0.107,0-0.157,0.063-0.157,0.145v0.427   c0,0.082,0.051,0.145,0.157,0.145h0.082c0.271,0,0.352-0.214,0.352-0.365C3.954,9.154,3.872,8.965,3.602,8.965z M3.602,8.965H3.52   c-0.107,0-0.157,0.063-0.157,0.145v0.427c0,0.082,0.051,0.145,0.157,0.145h0.082c0.271,0,0.352-0.214,0.352-0.365   C3.954,9.154,3.872,8.965,3.602,8.965z M3.634,10.436H3.52c-0.107,0-0.157,0.063-0.157,0.145v0.49c0,0.082,0.051,0.144,0.157,0.144   h0.113c0.302,0,0.39-0.232,0.39-0.396C4.024,10.636,3.936,10.436,3.634,10.436z M10.46,9.072h-0.088   c-0.106,0-0.157,0.063-0.157,0.145v0.427c0,0.082,0.05,0.144,0.157,0.144h0.089c0.264,0,0.346-0.207,0.346-0.364   C10.807,9.261,10.725,9.072,10.46,9.072z M20.22,9.072h-0.088c-0.107,0-0.157,0.063-0.157,0.145v0.427   c0,0.082,0.05,0.144,0.157,0.144h0.088c0.264,0,0.346-0.207,0.346-0.364C20.566,9.261,20.484,9.072,20.22,9.072z M20.22,9.072   h-0.088c-0.107,0-0.157,0.063-0.157,0.145v0.427c0,0.082,0.05,0.144,0.157,0.144h0.088c0.264,0,0.346-0.207,0.346-0.364   C20.566,9.261,20.484,9.072,20.22,9.072z M10.46,9.072h-0.088c-0.106,0-0.157,0.063-0.157,0.145v0.427   c0,0.082,0.05,0.144,0.157,0.144h0.089c0.264,0,0.346-0.207,0.346-0.364C10.807,9.261,10.725,9.072,10.46,9.072z M3.634,10.436   H3.52c-0.107,0-0.157,0.063-0.157,0.145v0.49c0,0.082,0.051,0.144,0.157,0.144h0.113c0.302,0,0.39-0.232,0.39-0.396   C4.024,10.636,3.936,10.436,3.634,10.436z M3.52,9.682h0.082c0.271,0,0.352-0.214,0.352-0.365c0-0.164-0.082-0.352-0.352-0.352   H3.52c-0.107,0-0.157,0.063-0.157,0.145v0.427C3.363,9.619,3.413,9.682,3.52,9.682z M12,0C7.881,0,5.288,1.22,3.843,2.247   C2.104,3.488,1.016,5.186,1.016,6.671v13.23c0,0.997,0.773,2.054,2.014,2.756C4.718,23.614,7.311,24,12,24s7.282-0.386,8.96-1.343   c1.251-0.702,2.024-1.76,2.024-2.766V6.671C22.984,3.875,19.17,0,12,0z M2.256,8.708c0-0.39,0.239-0.679,0.736-0.679h0.749   c0.793,0,1.302,0.403,1.302,1.156c0,0.321-0.12,0.54-0.239,0.679C4.772,9.902,4.754,9.915,4.754,9.945   c0,0.025,0.032,0.05,0.063,0.075c0.075,0.063,0.409,0.321,0.409,0.88c0,0.697-0.51,1.256-1.347,1.256H2.992   c-0.497,0-0.736-0.289-0.736-0.679V8.708z M7.075,11.07c0.226,0,0.315-0.176,0.315-0.326V8.695c0-0.377,0.22-0.679,0.623-0.679   c0.403,0,0.623,0.302,0.623,0.679v2.117c0,0.766-0.541,1.376-1.56,1.376v0c-1.019,0-1.554-0.609-1.554-1.375V8.695   c0-0.377,0.22-0.679,0.623-0.679c0.403,0,0.629,0.302,0.629,0.679v2.048C6.773,10.894,6.849,11.07,7.075,11.07z M11.474,10.429   c0.082,0.22,0.245,0.427,0.427,0.666c0.113,0.144,0.202,0.301,0.202,0.515c0,0.321-0.284,0.578-0.611,0.578   c-0.202,0-0.403-0.088-0.616-0.37c-0.17-0.22-0.321-0.653-0.378-0.974c-0.012-0.076-0.038-0.12-0.113-0.12   c-0.063,0-0.1,0.038-0.1,0.12v0.666c0,0.377-0.22,0.679-0.623,0.679c-0.403,0-0.623-0.302-0.623-0.679V8.708   c0-0.39,0.24-0.679,0.736-0.679h0.711c0.799,0,1.46,0.452,1.46,1.25c0,0.528-0.226,0.861-0.421,1.012   C11.468,10.335,11.455,10.379,11.474,10.429z M14.198,11.07c0.151,0,0.283-0.075,0.283-0.188c0-0.088-0.076-0.126-0.195-0.126   c-0.232,0-0.541-0.17-0.541-0.522c0-0.396,0.289-0.572,0.661-0.572h0.201c0.705,0,1.057,0.402,1.057,0.986   c0,0.917-0.623,1.546-1.611,1.546c-0.938,0-1.888-0.66-1.887-2.079c0-1.483,0.95-2.123,1.925-2.123   c0.554,0,0.925,0.144,1.189,0.339c0.145,0.113,0.239,0.276,0.239,0.49c0,0.289-0.226,0.565-0.56,0.565   c-0.289,0-0.359-0.213-0.774-0.213c-0.339,0-0.78,0.251-0.78,0.942C13.405,10.737,13.726,11.07,14.198,11.07z M12.997,13.351   l0.874,1.696c0.044,0.088,0.082,0.119,0.132,0.119c0.069,0,0.107-0.051,0.107-0.163v-1.357c0-0.61,0.353-1.093,1-1.093   c0.648,0,1.001,0.484,1.001,1.093v3.883c0,0.622-0.365,1.118-1.026,1.118c-0.384,0-0.743-0.151-1.076-0.798l-0.875-1.696   c-0.044-0.088-0.082-0.12-0.132-0.12c-0.069,0-0.107,0.051-0.107,0.164v1.357c0,0.609-0.352,1.093-1,1.093   c-0.648,0-1-0.484-1-1.093v-3.883c0-0.622,0.365-1.118,1.026-1.118C12.317,12.553,12.663,12.704,12.997,13.351z M19.66,17.007   c0.214,0,0.415-0.107,0.415-0.27c0-0.132-0.12-0.182-0.289-0.182c-0.346,0-0.812-0.245-0.812-0.76c0-0.565,0.428-0.823,0.982-0.823   h0.308c1.064,0,1.592,0.584,1.591,1.425c0,1.332-0.938,2.243-2.416,2.243c-1.41,0-2.838-0.962-2.838-3.016   c0-2.149,1.428-3.073,2.895-3.073c0.818,0,1.397,0.208,1.781,0.491c0.22,0.163,0.359,0.402,0.359,0.71   c0,0.415-0.34,0.823-0.843,0.823c-0.434,0-0.534-0.314-1.158-0.314c-0.51,0-1.17,0.364-1.17,1.363   C18.464,16.523,18.949,17.007,19.66,17.007z M17.319,9.581h0.435c0.302,0,0.541,0.182,0.541,0.502c0,0.321-0.239,0.503-0.541,0.503   h-0.434c-0.107,0-0.157,0.063-0.157,0.144v0.12c0,0.082,0.05,0.144,0.157,0.144h0.567c0.352,0,0.629,0.208,0.629,0.578   c0,0.377-0.276,0.584-0.629,0.584v0h-1.189c-0.497,0-0.736-0.289-0.736-0.679V8.707c0-0.39,0.239-0.678,0.736-0.678h1.189   c0.352,0,0.629,0.207,0.629,0.578c0,0.377-0.277,0.585-0.629,0.585h-0.566c-0.107,0-0.157,0.063-0.157,0.144v0.1   C17.162,9.518,17.212,9.581,17.319,9.581z M9.076,12.553c0.705,0,1.088,0.528,1.088,1.187v3.72c0,0.66-0.383,1.187-1.088,1.187   c-0.705,0-1.089-0.527-1.089-1.187v-3.72C7.987,13.08,8.371,12.553,9.076,12.553z M6.326,12.553c0.541,0,1.038,0.428,1.038,0.974   c0,0.213-0.075,0.471-0.258,0.754c-0.239,0.371-0.673,0.779-0.849,0.943c-0.075,0.069-0.113,0.119-0.113,0.188   c0,0.025,0.006,0.082,0.063,0.169v0c0.151,0.232,0.567,0.735,0.919,1.119c0.277,0.301,0.422,0.553,0.422,0.892   c0,0.547-0.491,1.056-1.076,1.056c-0.346,0-0.674-0.182-0.938-0.471c-0.39-0.434-0.812-1.169-0.956-1.515   c-0.025-0.05-0.051-0.15-0.151-0.15c-0.075,0-0.107,0.056-0.107,0.132v0.892c0,0.616-0.365,1.112-1.026,1.112   c-0.667,0-1.026-0.497-1.026-1.112v-3.87c0-0.616,0.359-1.112,1.026-1.112c0.66,0,1.026,0.496,1.026,1.112v0.628   c0,0.082,0.031,0.132,0.107,0.132c0.044,0,0.075-0.013,0.132-0.069c0.226-0.22,0.578-0.773,0.874-1.25   C5.653,12.748,5.98,12.553,6.326,12.553z M20.383,21.613c-1.636,0.923-4.442,1.187-8.325,1.187c-3.882,0-6.689-0.264-8.324-1.187   c-0.982-0.553-1.479-1.307-1.479-1.847c0-0.308,0.164-0.484,0.528-0.484h18.549c0.365,0,0.528,0.176,0.528,0.484   C21.862,20.306,21.365,21.06,20.383,21.613z M21.251,12.189c-0.202,0-0.403-0.088-0.617-0.371c-0.17-0.22-0.321-0.653-0.377-0.974   c-0.012-0.075-0.037-0.12-0.112-0.12c-0.063,0-0.101,0.038-0.101,0.12v0.666c0,0.377-0.22,0.679-0.623,0.679   c-0.403,0-0.623-0.301-0.623-0.678V8.708c0-0.39,0.239-0.678,0.736-0.678h0.711c0.799,0,1.46,0.452,1.46,1.25   c0,0.528-0.227,0.861-0.422,1.012c-0.057,0.044-0.069,0.088-0.05,0.138c0.082,0.22,0.213,0.396,0.428,0.666   c0.113,0.144,0.201,0.301,0.201,0.515C21.862,11.931,21.578,12.189,21.251,12.189z M21.333,7.288H2.784   c-0.365,0-0.528-0.188-0.528-0.527c0-2.011,3.026-5.56,9.803-5.56c6.714,0,9.803,3.549,9.803,5.56   C21.862,7.099,21.698,7.288,21.333,7.288z M20.22,9.072h-0.088c-0.107,0-0.157,0.063-0.157,0.145v0.427   c0,0.082,0.05,0.144,0.157,0.144h0.088c0.264,0,0.346-0.207,0.346-0.364C20.566,9.261,20.484,9.072,20.22,9.072z M10.46,9.072   h-0.088c-0.106,0-0.157,0.063-0.157,0.145v0.427c0,0.082,0.05,0.144,0.157,0.144h0.089c0.264,0,0.346-0.207,0.346-0.364   C10.807,9.261,10.725,9.072,10.46,9.072z M3.52,11.215h0.113c0.302,0,0.39-0.232,0.39-0.396c0-0.182-0.088-0.383-0.39-0.383H3.52   c-0.107,0-0.157,0.063-0.157,0.145v0.49C3.363,11.152,3.413,11.215,3.52,11.215z M3.52,9.682h0.082   c0.271,0,0.352-0.214,0.352-0.365c0-0.164-0.082-0.352-0.352-0.352H3.52c-0.107,0-0.157,0.063-0.157,0.145v0.427   C3.363,9.619,3.413,9.682,3.52,9.682z M3.602,8.965H3.52c-0.107,0-0.157,0.063-0.157,0.145v0.427c0,0.082,0.051,0.145,0.157,0.145   h0.082c0.271,0,0.352-0.214,0.352-0.365C3.954,9.154,3.872,8.965,3.602,8.965z M3.634,10.436H3.52   c-0.107,0-0.157,0.063-0.157,0.145v0.49c0,0.082,0.051,0.144,0.157,0.144h0.113c0.302,0,0.39-0.232,0.39-0.396   C4.024,10.636,3.936,10.436,3.634,10.436z M10.46,9.072h-0.088c-0.106,0-0.157,0.063-0.157,0.145v0.427   c0,0.082,0.05,0.144,0.157,0.144h0.089c0.264,0,0.346-0.207,0.346-0.364C10.807,9.261,10.725,9.072,10.46,9.072z M20.22,9.072   h-0.088c-0.107,0-0.157,0.063-0.157,0.145v0.427c0,0.082,0.05,0.144,0.157,0.144h0.088c0.264,0,0.346-0.207,0.346-0.364   C20.566,9.261,20.484,9.072,20.22,9.072z M20.22,9.072h-0.088c-0.107,0-0.157,0.063-0.157,0.145v0.427   c0,0.082,0.05,0.144,0.157,0.144h0.088c0.264,0,0.346-0.207,0.346-0.364C20.566,9.261,20.484,9.072,20.22,9.072z M10.46,9.072   h-0.088c-0.106,0-0.157,0.063-0.157,0.145v0.427c0,0.082,0.05,0.144,0.157,0.144h0.089c0.264,0,0.346-0.207,0.346-0.364   C10.807,9.261,10.725,9.072,10.46,9.072z M3.634,10.436H3.52c-0.107,0-0.157,0.063-0.157,0.145v0.49   c0,0.082,0.051,0.144,0.157,0.144h0.113c0.302,0,0.39-0.232,0.39-0.396C4.024,10.636,3.936,10.436,3.634,10.436z M3.602,8.965H3.52   c-0.107,0-0.157,0.063-0.157,0.145v0.427c0,0.082,0.051,0.145,0.157,0.145h0.082c0.271,0,0.352-0.214,0.352-0.365   C3.954,9.154,3.872,8.965,3.602,8.965z M3.602,8.965H3.52c-0.107,0-0.157,0.063-0.157,0.145v0.427c0,0.082,0.051,0.145,0.157,0.145   h0.082c0.271,0,0.352-0.214,0.352-0.365C3.954,9.154,3.872,8.965,3.602,8.965z M3.634,10.436H3.52   c-0.107,0-0.157,0.063-0.157,0.145v0.49c0,0.082,0.051,0.144,0.157,0.144h0.113c0.302,0,0.39-0.232,0.39-0.396   C4.024,10.636,3.936,10.436,3.634,10.436z M10.46,9.072h-0.088c-0.106,0-0.157,0.063-0.157,0.145v0.427   c0,0.082,0.05,0.144,0.157,0.144h0.089c0.264,0,0.346-0.207,0.346-0.364C10.807,9.261,10.725,9.072,10.46,9.072z M20.22,9.072   h-0.088c-0.107,0-0.157,0.063-0.157,0.145v0.427c0,0.082,0.05,0.144,0.157,0.144h0.088c0.264,0,0.346-0.207,0.346-0.364   C20.566,9.261,20.484,9.072,20.22,9.072z M20.22,9.072h-0.088c-0.107,0-0.157,0.063-0.157,0.145v0.427   c0,0.082,0.05,0.144,0.157,0.144h0.088c0.264,0,0.346-0.207,0.346-0.364C20.566,9.261,20.484,9.072,20.22,9.072z M10.46,9.072   h-0.088c-0.106,0-0.157,0.063-0.157,0.145v0.427c0,0.082,0.05,0.144,0.157,0.144h0.089c0.264,0,0.346-0.207,0.346-0.364   C10.807,9.261,10.725,9.072,10.46,9.072z M3.634,10.436H3.52c-0.107,0-0.157,0.063-0.157,0.145v0.49   c0,0.082,0.051,0.144,0.157,0.144h0.113c0.302,0,0.39-0.232,0.39-0.396C4.024,10.636,3.936,10.436,3.634,10.436z M3.602,8.965H3.52   c-0.107,0-0.157,0.063-0.157,0.145v0.427c0,0.082,0.051,0.145,0.157,0.145h0.082c0.271,0,0.352-0.214,0.352-0.365   C3.954,9.154,3.872,8.965,3.602,8.965z M3.602,8.965H3.52c-0.107,0-0.157,0.063-0.157,0.145v0.427c0,0.082,0.051,0.145,0.157,0.145   h0.082c0.271,0,0.352-0.214,0.352-0.365C3.954,9.154,3.872,8.965,3.602,8.965z M3.634,10.436H3.52   c-0.107,0-0.157,0.063-0.157,0.145v0.49c0,0.082,0.051,0.144,0.157,0.144h0.113c0.302,0,0.39-0.232,0.39-0.396   C4.024,10.636,3.936,10.436,3.634,10.436z M10.46,9.072h-0.088c-0.106,0-0.157,0.063-0.157,0.145v0.427   c0,0.082,0.05,0.144,0.157,0.144h0.089c0.264,0,0.346-0.207,0.346-0.364C10.807,9.261,10.725,9.072,10.46,9.072z M10.46,9.072   h-0.088c-0.106,0-0.157,0.063-0.157,0.145v0.427c0,0.082,0.05,0.144,0.157,0.144h0.089c0.264,0,0.346-0.207,0.346-0.364   C10.807,9.261,10.725,9.072,10.46,9.072z M3.634,10.436H3.52c-0.107,0-0.157,0.063-0.157,0.145v0.49   c0,0.082,0.051,0.144,0.157,0.144h0.113c0.302,0,0.39-0.232,0.39-0.396C4.024,10.636,3.936,10.436,3.634,10.436z M3.602,8.965H3.52   c-0.107,0-0.157,0.063-0.157,0.145v0.427c0,0.082,0.051,0.145,0.157,0.145h0.082c0.271,0,0.352-0.214,0.352-0.365   C3.954,9.154,3.872,8.965,3.602,8.965z M3.602,8.965H3.52c-0.107,0-0.157,0.063-0.157,0.145v0.427c0,0.082,0.051,0.145,0.157,0.145   h0.082c0.271,0,0.352-0.214,0.352-0.365C3.954,9.154,3.872,8.965,3.602,8.965z M3.634,10.436H3.52   c-0.107,0-0.157,0.063-0.157,0.145v0.49c0,0.082,0.051,0.144,0.157,0.144h0.113c0.302,0,0.39-0.232,0.39-0.396   C4.024,10.636,3.936,10.436,3.634,10.436z M10.46,9.072h-0.088c-0.106,0-0.157,0.063-0.157,0.145v0.427   c0,0.082,0.05,0.144,0.157,0.144h0.089c0.264,0,0.346-0.207,0.346-0.364C10.807,9.261,10.725,9.072,10.46,9.072z M10.46,9.072   h-0.088c-0.106,0-0.157,0.063-0.157,0.145v0.427c0,0.082,0.05,0.144,0.157,0.144h0.089c0.264,0,0.346-0.207,0.346-0.364   C10.807,9.261,10.725,9.072,10.46,9.072z M3.634,10.436H3.52c-0.107,0-0.157,0.063-0.157,0.145v0.49   c0,0.082,0.051,0.144,0.157,0.144h0.113c0.302,0,0.39-0.232,0.39-0.396C4.024,10.636,3.936,10.436,3.634,10.436z M3.602,8.965H3.52   c-0.107,0-0.157,0.063-0.157,0.145v0.427c0,0.082,0.051,0.145,0.157,0.145h0.082c0.271,0,0.352-0.214,0.352-0.365   C3.954,9.154,3.872,8.965,3.602,8.965z"/>
	<path d="M17.885,12.157L17.885,12.157L17.885,12.157L17.885,12.157L17.885,12.157z"/>
</g>















</svg>
