<?xml version="1.0" encoding="UTF-8"?>
<svg xmlns="http://www.w3.org/2000/svg" id="Layer_1" data-name="Layer 1" viewBox="0 0 24 24" width="512" height="512"><path d="M13.5,13.5A1.5,1.5,0,1,1,12,12,1.5,1.5,0,0,1,13.5,13.5Zm4.5-.09v1.769l2.33,2.606a4,4,0,0,1-6.6,4.515L12,20.3l-1.726,2a4,4,0,0,1-6.6-4.515L6,15.181V13.412l-1.627-.658a3.956,3.956,0,0,1-2.3-2.185,4.022,4.022,0,0,1,.051-3.254,4.1,4.1,0,0,1,4.9-2.089C7.019,5.149,7,5.077,7,5A5,5,0,0,1,17,5c0,.079-.02.153-.023.231a4.106,4.106,0,0,1,4.9,2.085,4,4,0,0,1-2.282,5.451ZM10,5a2,2,0,1,0,2-2A2,2,0,0,0,10,5Zm5,11.333V11.387l3.572-1.441a.988.988,0,0,0,.593-.553,1,1,0,0,0-.016-.82,1.1,1.1,0,0,0-1.364-.47L13.63,9.726A6.62,6.62,0,0,1,12,10a6.505,6.505,0,0,1-1.59-.26L6.155,8.082a1.09,1.09,0,0,0-1.308.491,1,1,0,0,0-.016.82.988.988,0,0,0,.593.553L9,11.388v4.947L6.124,19.52a1,1,0,0,0,.324,1.313,1.024,1.024,0,0,0,1.387-.28l2.27-2.653a2.5,2.5,0,0,1,3.788,0l2.273,2.655a1.024,1.024,0,0,0,1.386.28,1,1,0,0,0,.325-1.313Z"/></svg>
