<?xml version="1.0" encoding="UTF-8"?>
<!-- Generator: Adobe Illustrator 26.0.1, SVG Export Plug-In . SVG Version: 6.00 Build 0)  -->
<svg xmlns="http://www.w3.org/2000/svg" xmlns:xlink="http://www.w3.org/1999/xlink" version="1.1" id="Capa_1" x="0px" y="0px" viewBox="0 0 24 24" style="enable-background:new 0 0 24 24;" xml:space="preserve" width="512" height="512">
<g>
	<g id="Surfaces_00000015316392273480997780000005079958696681645222_">
		<g id="Publishing_Surface_00000044139518724678442640000017891423955416242099_">
			<g id="Outline_no_shadow_00000162349061969249967620000014322161070957795209_">
				<path d="M19.75,0.3H4.25C1.9,0.3,0,2.2,0,4.55v14.9c0,2.35,1.9,4.25,4.25,4.25h15.5c2.35,0,4.25-1.9,4.25-4.25V4.55      C24,2.2,22.1,0.3,19.75,0.3z M8.72,16.68c0,0.11-0.05,0.16-0.14,0.16H6.62c-0.09,0-0.13-0.05-0.13-0.16V6.42      c0-0.09,0.05-0.13,0.14-0.13h1.95c0.06-0.01,0.12,0.03,0.13,0.1C8.72,6.4,8.72,6.41,8.72,6.42V16.68z M17.65,16.38      c-0.52,0.22-1.07,0.38-1.63,0.48C15.52,16.95,15,17,14.48,17c-0.74,0.01-1.48-0.14-2.15-0.45c-0.63-0.29-1.15-0.77-1.51-1.36      c-0.37-0.61-0.55-1.37-0.55-2.28c-0.01-0.74,0.18-1.47,0.55-2.11c0.38-0.65,0.93-1.19,1.59-1.55c0.7-0.39,1.54-0.58,2.53-0.58      c0.05,0,0.12,0,0.21,0.01c0.09,0.01,0.19,0.01,0.31,0.02V5.54c0-0.07,0.03-0.11,0.1-0.11h2.03c0.05-0.01,0.09,0.03,0.1,0.07      c0,0.01,0,0.02,0,0.02v9.52c0,0.18,0.01,0.38,0.02,0.6c0.02,0.21,0.03,0.41,0.04,0.58C17.75,16.29,17.72,16.35,17.65,16.38z       M14.86,10.53c-0.39,0-0.78,0.08-1.13,0.26c-0.34,0.17-0.63,0.42-0.85,0.74c-0.22,0.32-0.33,0.75-0.33,1.27      c-0.01,0.35,0.05,0.7,0.17,1.03c0.1,0.27,0.25,0.51,0.45,0.71c0.19,0.18,0.42,0.32,0.68,0.4c0.27,0.09,0.55,0.13,0.83,0.13      c0.15,0,0.29-0.01,0.42-0.02c0.13,0.01,0.25-0.01,0.36-0.05v-4.4c-0.09-0.02-0.18-0.04-0.27-0.05      C15.08,10.54,14.97,10.53,14.86,10.53z"/>
			</g>
		</g>
	</g>
</g>















</svg>
