<?xml version="1.0" encoding="UTF-8"?>
<!-- Generator: Adobe Illustrator 26.0.1, SVG Export Plug-In . SVG Version: 6.00 Build 0)  -->
<svg xmlns="http://www.w3.org/2000/svg" xmlns:xlink="http://www.w3.org/1999/xlink" version="1.1" id="Capa_1" x="0px" y="0px" viewBox="0 0 24 24" style="enable-background:new 0 0 24 24;" xml:space="preserve" width="512" height="512">
<g id="Layer_2_6_">
	<g id="Surfaces_00000048483211640786887190000004278377109938306196_">
		<g id="Video_Audio_Surface_4_">
			<g id="Outline_no_shadow_00000155145660724331306090000006225313599400823710_">
				<polygon points="7.83,8.14 9.11,12.31 6.57,12.31 7.81,8.14     "/>
				<path d="M19.75,0.3H4.25C1.9,0.3,0,2.2,0,4.55v14.9c0,2.35,1.9,4.25,4.25,4.25h15.5c2.35,0,4.25-1.9,4.25-4.25V4.55      C24,2.2,22.1,0.3,19.75,0.3z M12.77,16.78h-2.09c-0.07,0.01-0.14-0.04-0.16-0.11L9.7,14.3H5.99l-0.76,2.35      c-0.02,0.09-0.1,0.15-0.19,0.14h-1.9c-0.11,0-0.14-0.06-0.11-0.18l3.23-9.23c0.03-0.1,0.06-0.18,0.1-0.31      C6.4,6.86,6.42,6.64,6.42,6.42C6.41,6.37,6.45,6.32,6.5,6.31h2.6c0.08,0,0.12,0.03,0.13,0.08l3.64,10.23      C12.9,16.73,12.87,16.78,12.77,16.78z M20.99,16.64c0,0.1-0.04,0.14-0.13,0.14l-1.88,0.02c-0.08,0.01-0.15-0.04-0.16-0.12v-4.52      c-0.01-0.3-0.07-0.6-0.19-0.87c-0.188-0.423-0.61-0.7-1.09-0.68c-0.519,0.022-0.968,0.171-1.36,0.52v5.52      c0,0.1-0.04,0.14-0.13,0.14h-1.9c-0.07,0.01-0.13-0.04-0.14-0.11c-0.02-0.02-0.02-0.03-0.01-0.04V10.7c0-0.18,0-0.39-0.01-0.61      c-0.01-0.23-0.01-0.44-0.02-0.64c-0.01-0.2-0.02-0.39-0.03-0.51c-0.01-0.03-0.01-0.07,0.02-0.1c0.03-0.02,0.06-0.03,0.1-0.03      h1.61c0.06,0,0.11,0.01,0.16,0.03c0.04,0.02,0.07,0.06,0.08,0.11c0.02,0.06,0.05,0.14,0.07,0.22c0.03,0.11,0.05,0.22,0.06,0.33      c0.31-0.27,0.67-0.48,1.06-0.62c0.39-0.13,0.8-0.2,1.21-0.2c0.32,0,0.64,0.05,0.94,0.15c0.71,0.23,1.27,0.78,1.52,1.48      c0.16,0.41,0.22,0.95,0.22,1.6V16.64z"/>
			</g>
		</g>
	</g>
</g>















</svg>
