<?xml version="1.0" encoding="UTF-8"?>
<!-- Generator: Adobe Illustrator 26.0.1, SVG Export Plug-In . SVG Version: 6.00 Build 0)  -->
<svg xmlns="http://www.w3.org/2000/svg" xmlns:xlink="http://www.w3.org/1999/xlink" version="1.1" id="Capa_1" x="0px" y="0px" viewBox="0 0 24 24" style="enable-background:new 0 0 24 24;" xml:space="preserve" width="512" height="512">
<g>
	<g id="Layer_2_7_">
		<g id="Surfaces_8_">
			<g id="Video_Audio_Surface_5_">
				<g id="Outline_no_shadow_8_">
					<path d="M19.751,0.429H4.249C1.902,0.429,0,2.331,0,4.677v14.645c0,2.347,1.902,4.249,4.249,4.249h15.502       c2.347,0,4.249-1.902,4.249-4.249V4.677C24,2.331,22.097,0.429,19.751,0.429z M13.719,16.607       c-0.026,0.026-0.061,0.041-0.098,0.039h-1.959c-0.027,0.001-0.053-0.007-0.075-0.023c-0.023-0.023-0.034-0.055-0.03-0.087       c0-0.539-0.003-1.036-0.008-1.628v-6.24c0.005-0.344,0.007-0.6,0.008-0.769h-0.015c-0.06,0.264-0.141,0.611-0.241,1.039       l-1.665,6.366c-0.135,0.487-0.248,0.846-0.339,1.216c-0.019,0.076-0.088,0.128-0.165,0.127H7.43       c-0.084,0.011-0.163-0.044-0.181-0.127c-0.09-0.37-0.194-0.73-0.309-1.216L5.494,9.088C5.399,8.634,5.31,8.232,5.231,7.883H5.2       v1.253l-0.12,5.431c-0.02,0.682-0.045,1.287-0.075,1.953c0,0.085-0.04,0.127-0.12,0.127H3.136       c-0.034,0.002-0.068-0.007-0.098-0.023c-0.025-0.016-0.032-0.056-0.023-0.119l0.542-9.948C3.564,6.497,3.616,6.454,3.674,6.46       c0.001,0,0.003,0,0.005,0.001h2.772c0.075-0.01,0.146,0.038,0.165,0.111c0.07,0.275,0.156,0.474,0.256,0.859l1.325,5.392       c0.08,0.386,0.145,0.706,0.196,0.959h0.015c0.04-0.222,0.111-0.518,0.211-0.888l1.514-5.431       c0.115-0.407,0.208-0.616,0.278-0.891c0.011-0.066,0.069-0.113,0.136-0.111h2.696c0.066-0.009,0.126,0.037,0.135,0.102       c0,0.003,0.001,0.006,0.001,0.008l0.362,9.933C13.753,16.54,13.745,16.579,13.719,16.607z M21.375,12.768       c-0.013,0.113-0.034,0.226-0.061,0.337c-0.008,0.072-0.07,0.127-0.143,0.127c-0.063,0-0.172,0.008-0.324,0.024       c-0.154,0.016-0.426,0.009-0.653,0.015c-0.228,0.006-0.468,0.008-0.722,0.008h-3.124c0.045,0.322,0.155,0.631,0.323,0.909       c0.394,0.654,1.306,0.85,2.008,0.867c0.62,0.015,1.244-0.103,1.814-0.347c0.053-0.042,0.079-0.016,0.079,0.079v1.506       c0.002,0.041-0.006,0.082-0.024,0.119c-0.018,0.029-0.043,0.053-0.071,0.071c-0.65,0.408-1.575,0.437-2.315,0.391       c-1.188-0.074-2.332-0.326-3.124-1.285c-0.621-0.751-0.888-1.767-0.888-2.727c0-1.04,0.316-2.102,0.983-2.91       c0.697-0.844,1.747-1.303,2.838-1.277c0.997,0.025,2.016,0.323,2.651,1.135c0.512,0.655,0.777,1.495,0.777,2.323       C21.399,12.366,21.391,12.578,21.375,12.768z M17.892,10.42c-0.545-0.033-1.059,0.259-1.309,0.745       c-0.119,0.272-0.201,0.559-0.244,0.852h2.077c0.254,0,0.442-0.002,0.563-0.008c0.077,0,0.154-0.008,0.23-0.023v-0.095       c0.009-0.19-0.002-0.38-0.033-0.567C19,10.768,18.474,10.398,17.892,10.42z"/>
				</g>
			</g>
		</g>
	</g>
</g>















</svg>
