<svg id="Layer_1" height="512" viewBox="0 0 24 24" width="512" xmlns="http://www.w3.org/2000/svg" data-name="Layer 1"><path d="m22.727 1.273a4.31 4.31 0 0 0 -4.112-1.144 30.23 30.23 0 0 0 -13.315 7.487 7.862 7.862 0 0 0 -.969 9.933l-3.892 3.89a1.5 1.5 0 0 0 2.122 2.122l3.893-3.894a7.631 7.631 0 0 0 4.288 1.333 8.312 8.312 0 0 0 5.989-2.58 30.589 30.589 0 0 0 7.143-13.07 4.276 4.276 0 0 0 -1.147-4.077zm-3.388 1.768a1.321 1.321 0 0 1 1.269.355 1.291 1.291 0 0 1 .352 1.237 26.828 26.828 0 0 1 -2.037 5.367h-2.8l1.44-1.439a1.5 1.5 0 0 0 -2.122-2.122l-4.441 4.44v-4.035a28.164 28.164 0 0 1 8.339-3.803zm-13.333 10.377a4.895 4.895 0 0 1 1.417-3.683c.184-.185.386-.35.577-.527v4.671l-1.488 1.488a4.861 4.861 0 0 1 -.506-1.949zm8.559 2.922a5.12 5.12 0 0 1 -5.941 1.16l1.936-1.936 2.561-2.564h4.072a23.562 23.562 0 0 1 -2.628 3.34z"/></svg>