<?xml version="1.0" encoding="UTF-8"?>
<!-- Generator: Adobe Illustrator 26.0.1, SVG Export Plug-In . SVG Version: 6.00 Build 0)  -->
<svg xmlns="http://www.w3.org/2000/svg" xmlns:xlink="http://www.w3.org/1999/xlink" version="1.1" id="Capa_1" x="0px" y="0px" viewBox="0 0 24 24" style="enable-background:new 0 0 24 24;" xml:space="preserve" width="512" height="512">
<g>
	<path d="M23.992,3.781c-0.055-0.512-0.371-0.964-0.841-1.191l-4.945-2.38c-0.558-0.267-1.222-0.163-1.671,0.258   C16.522,0.478,16.511,0.489,16.5,0.5L8.527,9.315L3.875,5.5L3.467,5.162C3.181,4.918,2.781,4.855,2.432,5L0.615,5.75   C0.244,5.904,0.002,6.266,0,6.668v10.665c0.002,0.402,0.244,0.763,0.615,0.917l1.817,0.763c0.348,0.145,0.749,0.082,1.035-0.163   l0.408-0.35l4.652-3.815L16.5,23.5c0.011,0.011,0.022,0.021,0.033,0.031c0.45,0.422,1.113,0.526,1.672,0.259l4.945-2.38   c0.471-0.227,0.786-0.679,0.841-1.191C23.997,20.167,24,20.114,24,20.06V3.94C24,3.886,23.997,3.833,23.992,3.781z M3,15.426V8.574   L6.099,12L3,15.426z M11.803,12L18,6.919v10.162L11.803,12z"/>
	<path d="M3.875,5.5L3.467,5.162C3.181,4.918,2.781,4.855,2.432,5c0.346-0.149,0.746-0.091,1.035,0.15L3.875,5.5z"/>
	<path d="M23.992,20.22c-0.054,0.513-0.37,0.966-0.841,1.193l-4.945,2.377l4.945-2.38C23.621,21.183,23.936,20.731,23.992,20.22z"/>
	<path d="M23.15,2.59l-4.945-2.38l4.945,2.377c0.472,0.227,0.787,0.68,0.841,1.193C23.936,3.269,23.621,2.817,23.15,2.59z"/>
</g>















</svg>
