<?xml version="1.0" encoding="UTF-8"?>
<svg xmlns="http://www.w3.org/2000/svg" id="Isolation_Mode" data-name="Isolation Mode" viewBox="0 0 24 24" width="512" height="512"><path d="M12,0A12,12,0,0,0,8.613.485l.846,2.878A9.007,9.007,0,0,1,12,3V21a9.007,9.007,0,0,1-2.541-.363l-.846,2.878A12,12,0,1,0,12,0Z"/><path d="M3,12a9.108,9.108,0,0,1,.292-2.288L.39,8.954a12.08,12.08,0,0,0,0,6.1l2.9-.761A9.033,9.033,0,0,1,3,12Z"/><path d="M7.347,4.3,5.793,1.729A12.076,12.076,0,0,0,1.547,6.1L4.159,7.579A9.05,9.05,0,0,1,7.347,4.3Z"/><path d="M4.161,16.424,1.549,17.9A12.06,12.06,0,0,0,5.8,22.273l1.553-2.566A9.048,9.048,0,0,1,4.161,16.424Z"/></svg>
