<?xml version="1.0" encoding="UTF-8"?>
<svg xmlns="http://www.w3.org/2000/svg" id="Layer_1" data-name="Layer 1" viewBox="0 0 24 24" width="512" height="512"><path d="M23.99,1a1,1,0,0,0-1-1H18.421a1,1,0,0,0-.707,1.707l1.229,1.229L16.905,4.974a6.446,6.446,0,0,0-6.9.057A6.495,6.495,0,1,0,5,16.818V18H4a1.5,1.5,0,0,0,0,3H5v1.5a1.5,1.5,0,0,0,3,0V21H9a1.5,1.5,0,0,0,0-3H8V16.809a6.462,6.462,0,0,0,2-.84A6.488,6.488,0,0,0,19.026,7.1l2.038-2.038,1.229,1.229A1,1,0,0,0,24,5.577ZM3,10.5A3.486,3.486,0,0,1,7.86,7.282a6.451,6.451,0,0,0,0,6.436A3.486,3.486,0,0,1,3,10.5ZM13.5,14A3.5,3.5,0,1,1,17,10.5,3.5,3.5,0,0,1,13.5,14Z"/></svg>
