<?xml version="1.0" encoding="UTF-8"?>
<svg xmlns="http://www.w3.org/2000/svg" id="Layer_1" data-name="Layer 1" viewBox="0 0 24 24" width="512" height="512"><path d="M16,15.5A1.5,1.5,0,1,1,14.5,14,1.5,1.5,0,0,1,16,15.5Zm1,0A1.5,1.5,0,1,0,18.5,14,1.5,1.5,0,0,0,17,15.5Zm1-3A1.5,1.5,0,1,0,16.5,14,1.5,1.5,0,0,0,18,12.5Zm6,3a8.487,8.487,0,0,1-13.479,6.877,9.522,9.522,0,0,1-.6,1L9.469,24H2.531l-.448-.624A12.344,12.344,0,0,1,0,16.773,10.433,10.433,0,0,1,1.825,11.42,6.542,6.542,0,0,0,3,8.5a19.136,19.136,0,0,0-.548-2.381A9.61,9.61,0,0,1,2,4,3.827,3.827,0,0,1,6,0a3.827,3.827,0,0,1,4,4,9.61,9.61,0,0,1-.452,2.119A19.105,19.105,0,0,0,9,8.5a3.258,3.258,0,0,0,.285,1.2A8.5,8.5,0,0,1,24,15.5ZM5,4c.02.117.21.824.349,1.339A22.384,22.384,0,0,1,5.96,8h.08a22.384,22.384,0,0,1,.611-2.661C6.79,4.824,6.98,4.117,7,3.922,7,3.29,6.71,3,6,3S5,3.29,5,4ZM7.856,21A9.184,9.184,0,0,0,9,16.773a7.864,7.864,0,0,0-1.423-3.854A18.806,18.806,0,0,1,6.57,11H5.43a18.806,18.806,0,0,1-1.007,1.919A7.864,7.864,0,0,0,3,16.773,9.183,9.183,0,0,0,4.144,21ZM21,15.5a5.491,5.491,0,0,0-10.163-2.895A8.775,8.775,0,0,1,12,16.773a10.969,10.969,0,0,1-.339,2.66A5.5,5.5,0,0,0,21,15.5Z"/></svg>
