<?xml version="1.0" encoding="UTF-8"?>
<!-- Generator: Adobe Illustrator 26.0.1, SVG Export Plug-In . SVG Version: 6.00 Build 0)  -->
<svg xmlns="http://www.w3.org/2000/svg" xmlns:xlink="http://www.w3.org/1999/xlink" version="1.1" id="Capa_1" x="0px" y="0px" viewBox="0 0 24 24" style="enable-background:new 0 0 24 24;" xml:space="preserve" width="512" height="512">
<g>
	<path id="Path_2525" d="M23.002,21.584h0.227l-0.435-0.658l0,0c0.266,0,0.407-0.169,0.409-0.376c0-0.008,0-0.017-0.001-0.025   c0-0.282-0.17-0.417-0.519-0.417h-0.564v1.476h0.212v-0.643h0.261L23.002,21.584z M22.577,20.774h-0.246v-0.499h0.312   c0.161,0,0.345,0.026,0.345,0.237c0,0.242-0.186,0.262-0.412,0.262"/>
	<path id="Path_2520" d="M17.291,19.073h-3.007v-4.709c0-1.123-0.02-2.568-1.564-2.568c-1.566,0-1.806,1.223-1.806,2.487v4.79H7.908   V9.389h2.887v1.323h0.04c0.589-1.006,1.683-1.607,2.848-1.564c3.048,0,3.609,2.005,3.609,4.612L17.291,19.073z M4.515,8.065   c-0.964,0-1.745-0.781-1.745-1.745c0-0.964,0.781-1.745,1.745-1.745c0.964,0,1.745,0.781,1.745,1.745   C6.26,7.284,5.479,8.065,4.515,8.065L4.515,8.065 M6.018,19.073h-3.01V9.389h3.01V19.073z M18.79,1.783H1.497   C0.68,1.774,0.01,2.429,0,3.246V20.61c0.01,0.818,0.68,1.473,1.497,1.464H18.79c0.819,0.01,1.492-0.645,1.503-1.464V3.245   c-0.012-0.819-0.685-1.474-1.503-1.463"/>
	<path id="Path_2526" d="M22.603,19.451c-0.764,0.007-1.378,0.633-1.37,1.397c0.007,0.764,0.633,1.378,1.397,1.37   c0.764-0.007,1.378-0.633,1.37-1.397c-0.007-0.754-0.617-1.363-1.37-1.37H22.603 M22.635,22.059   c-0.67,0.011-1.254-0.522-1.265-1.192c-0.011-0.67,0.523-1.222,1.193-1.233c0.67-0.011,1.222,0.523,1.233,1.193   c0,0.007,0,0.013,0,0.02C23.81,21.502,23.29,22.045,22.635,22.059h-0.031"/>
</g>















</svg>
