<?xml version="1.0" encoding="UTF-8"?>
<!-- Generator: Adobe Illustrator 26.0.1, SVG Export Plug-In . SVG Version: 6.00 Build 0)  -->
<svg xmlns="http://www.w3.org/2000/svg" xmlns:xlink="http://www.w3.org/1999/xlink" version="1.1" id="Capa_1" x="0px" y="0px" viewBox="0 0 24 24" style="enable-background:new 0 0 24 24;" xml:space="preserve" width="512" height="512">
<g>
	<path d="M11.979,0c3.357,0,6.2,1.164,8.528,3.493C22.835,5.807,24,8.643,24,12c0,3.357-1.143,6.171-3.429,8.443   C18.157,22.814,15.293,24,11.979,24c-3.243,0-6.057-1.178-8.443-3.536C1.179,18.107,0,15.286,0,12c0-3.271,1.179-6.107,3.536-8.507   C5.864,1.164,8.678,0,11.979,0z M12.021,2.164c-2.729,0-5.036,0.964-6.921,2.893C3.143,7.043,2.164,9.357,2.164,12   c0,2.672,0.971,4.971,2.914,6.9c1.943,1.943,4.257,2.914,6.943,2.914c2.671,0,5-0.978,6.986-2.936   c1.886-1.828,2.829-4.121,2.829-6.879c0-2.743-0.957-5.057-2.871-6.943C17.064,3.129,14.75,2.164,12.021,2.164z M16.543,9.171   v2.057H7.821V9.171H16.543z M16.543,13.029v2.057H7.821v-2.057H16.543z"/>
</g>















</svg>
