<?xml version="1.0" encoding="UTF-8"?>
<svg xmlns="http://www.w3.org/2000/svg" id="Layer_1" data-name="Layer 1" viewBox="0 0 24 24" width="512" height="512"><path d="M22.886,17.533l-.5-.951L14,21h0a6.3,6.3,0,0,1-4.534-1.8,5.226,5.226,0,0,1-1.463-3.89,5.682,5.682,0,0,1,.054-.623A6.142,6.142,0,0,0,12,16V13a3.179,3.179,0,0,1-2.547-1.118A6.885,6.885,0,0,1,14.316,10V9.994A7.947,7.947,0,0,0,21.888,3H24V0H12.865C5.773,0,.123,5.169,0,11.767a11.731,11.731,0,0,0,3.344,8.509A12.676,12.676,0,0,0,12.5,24H21a3,3,0,0,0,3-3A9.385,9.385,0,0,0,22.886,17.533ZM13.094,3A1.483,1.483,0,0,0,13,3.5a1.5,1.5,0,0,0,3,0A1.483,1.483,0,0,0,15.91,3h2.925A4.9,4.9,0,0,1,14,7H13a2,2,0,0,1,0-4Zm-5,1.059A4.861,4.861,0,0,0,9.273,8.3,8.8,8.8,0,0,0,7.215,9.907,3.244,3.244,0,0,1,5,6.5H4.971A9.27,9.27,0,0,1,8.1,4.059ZM3,11.821a8.8,8.8,0,0,1,.143-1.37A5.692,5.692,0,0,0,5.571,12.5a8.079,8.079,0,0,0-.563,2.725A8.561,8.561,0,0,0,5.4,18.082,8.754,8.754,0,0,1,3,11.821Z"/></svg>
