<?xml version="1.0" encoding="UTF-8"?>
<!-- Generator: Adobe Illustrator 26.0.1, SVG Export Plug-In . SVG Version: 6.00 Build 0)  -->
<svg xmlns="http://www.w3.org/2000/svg" xmlns:xlink="http://www.w3.org/1999/xlink" version="1.1" id="Capa_1" x="0px" y="0px" viewBox="0 0 24 24" style="enable-background:new 0 0 24 24;" xml:space="preserve" width="512" height="512">
<g>
	<g id="Surfaces_00000003104533626020496210000009466714806292670609_">
		<g id="Video_Audio_Surface_1_">
			<g id="Outline_no_shadow_00000077302641644257883060000013542746799652320905_">
				<path d="M9.44,9.61c0.02,0.577-0.37,1.108-0.92,1.28c-0.35,0.11-0.7,0.16-1.06,0.15H6.2v-2.8c0.12-0.01,0.3-0.01,0.52-0.02      c0.22-0.01,0.46-0.01,0.72-0.01c0.6,0,1.08,0.11,1.45,0.33C9.26,8.76,9.44,9.12,9.44,9.61z"/>
				<path d="M19.75,0.3H4.25C1.9,0.3,0,2.2,0,4.55v14.9c0,2.35,1.9,4.25,4.25,4.25h15.5c2.35,0,4.25-1.9,4.25-4.25V4.55      C24,2.2,22.1,0.3,19.75,0.3z M12.53,16.78c0,0.04-0.03,0.07-0.07,0.06c0,0,0,0-0.01,0h-2.33c-0.05,0-0.1-0.01-0.14-0.02      c-0.03-0.02-0.06-0.04-0.08-0.07c-0.12-0.17-0.27-0.4-0.44-0.68l-1.68-2.84c-0.05-0.08-0.11-0.15-0.18-0.21      c-0.06-0.04-0.13-0.06-0.2-0.06H6.2v3.75c0,0.08-0.05,0.13-0.13,0.13H4.15c-0.09,0-0.13-0.05-0.13-0.14V6.45      c0-0.1,0.03-0.14,0.1-0.14C4.5,6.3,4.82,6.29,5.09,6.29L7.5,6.26c0.9,0,1.66,0.13,2.27,0.38c1.211,0.496,1.9,1.561,1.9,2.86      c0,0.811-0.369,1.619-0.97,2.16c-0.31,0.28-0.66,0.5-1.05,0.65c0.11,0.14,0.26,0.35,0.45,0.64l1.96,2.99      c0.19,0.3,0.33,0.54,0.43,0.71C12.52,16.69,12.54,16.73,12.53,16.78z M20.13,16.84H18.4c-0.08,0.01-0.16-0.04-0.19-0.11      c-0.02-0.08-0.04-0.16-0.06-0.25c-0.02-0.08-0.02-0.17-0.02-0.25c-0.32,0.29-0.71,0.5-1.13,0.62c-0.36,0.1-0.74,0.15-1.11,0.15      c-0.37,0-0.74-0.05-1.09-0.17c-0.32-0.11-0.62-0.3-0.85-0.55c-0.26-0.28-0.45-0.61-0.56-0.97c-0.14-0.46-0.21-0.94-0.2-1.42      V8.97c-0.01-0.06,0.03-0.12,0.1-0.13h2.01c0.06-0.01,0.12,0.03,0.13,0.1v4.7c0,0.44,0.1,0.79,0.29,1.04      c0.19,0.25,0.52,0.38,0.97,0.38c0.23,0,0.46-0.04,0.68-0.12c0.2-0.08,0.39-0.19,0.56-0.33V8.95c0-0.08,0.05-0.11,0.14-0.11h1.98      c0.05-0.01,0.11,0.03,0.11,0.08v6.131c0,0.27,0,0.51,0.01,0.72c0.01,0.21,0.02,0.39,0.03,0.55c0.01,0.16,0.03,0.29,0.04,0.39      C20.25,16.8,20.21,16.84,20.13,16.84z"/>
			</g>
		</g>
	</g>
</g>















</svg>
