<?xml version="1.0" encoding="UTF-8"?>
<svg xmlns="http://www.w3.org/2000/svg" id="Bold" viewBox="0 0 24 24" width="512" height="512"><path d="M21.542,7A2.457,2.457,0,0,0,24,4.542V1.5A1.5,1.5,0,0,0,22.5,0h0A1.5,1.5,0,0,0,21,1.5V4H17.626A6.675,6.675,0,0,0,6.374,4H3V1.5A1.5,1.5,0,0,0,1.5,0h0A1.5,1.5,0,0,0,0,1.5V4.542A2.459,2.459,0,0,0,2.458,7h2.8L4.24,11H1.5A1.5,1.5,0,0,0,0,12.5H0A1.5,1.5,0,0,0,1.5,14H3.572c-.016.2-.042.4-.042.614A8.435,8.435,0,0,0,3.878,17H2.458A2.457,2.457,0,0,0,0,19.458V22.5A1.5,1.5,0,0,0,1.5,24h0A1.5,1.5,0,0,0,3,22.5V20H5.468a8.461,8.461,0,0,0,13.064,0H21v2.5A1.5,1.5,0,0,0,22.5,24h0A1.5,1.5,0,0,0,24,22.5V19.458A2.459,2.459,0,0,0,21.542,17h-1.42a8.435,8.435,0,0,0,.348-2.386c0-.209-.026-.41-.042-.614H22.5A1.5,1.5,0,0,0,24,12.5h0A1.5,1.5,0,0,0,22.5,11H19.754L18.747,7ZM12,20.083a5.476,5.476,0,0,1-5.47-5.469,5.326,5.326,0,0,1,.038-.6L8.512,6.343a3.72,3.72,0,0,1,6.976,0l1.944,7.675a5.326,5.326,0,0,1,.038.6A5.476,5.476,0,0,1,12,20.083Z"/></svg>
