<?xml version="1.0" encoding="UTF-8"?>
<svg xmlns="http://www.w3.org/2000/svg" id="Layer_1" data-name="Layer 1" viewBox="0 0 24 24" width="512" height="512"><path d="M5,20H8v4H5Zm5,4h3V20H10Zm0-10H7v4h3Zm5,10h3V20H15Zm9-11.523V12.5a8.037,8.037,0,0,1-4,6.9v-3.94A4.977,4.977,0,0,0,21,12.5v-.023h0A4.516,4.516,0,0,0,16.452,8L15.37,7.965l-.308-1.038A5.4,5.4,0,0,0,10.091,3,4.935,4.935,0,0,0,5,8a5.935,5.935,0,0,0,.247,2.025l.479,1.258-1.2.612A2.784,2.784,0,0,0,3,14.386H3c0,.038,0,5.289,0,5.289a6.214,6.214,0,0,1-3-5.289v-.01A5.769,5.769,0,0,1,2.133,9.892,11.93,11.93,0,0,1,2,8a7.96,7.96,0,0,1,8.091-8,8.292,8.292,0,0,1,7.492,5.1A7.411,7.411,0,0,1,24,12.477ZM.005,14.386H0C0,14.4,0,14.405.005,14.386ZM16,14H13v4h3Z"/></svg>
