<?xml version="1.0" encoding="UTF-8"?>
<svg xmlns="http://www.w3.org/2000/svg" id="Layer_1" data-name="Layer 1" viewBox="0 0 24 24" width="512" height="512"><path d="M24,13.5v-3H20.874a8.946,8.946,0,0,0-1.541-3.712l2.213-2.213L19.425,2.454,17.212,4.667A8.946,8.946,0,0,0,13.5,3.126V0h-3V3.126A8.946,8.946,0,0,0,6.788,4.667L4.575,2.454,2.454,4.575,4.667,6.788A8.946,8.946,0,0,0,3.126,10.5H0v3H3.126a8.946,8.946,0,0,0,1.541,3.712L2.454,19.425l2.121,2.121,2.213-2.213A8.946,8.946,0,0,0,10.5,20.874V24h3V20.874a8.946,8.946,0,0,0,3.712-1.541l2.213,2.213,2.121-2.121-2.213-2.213A8.946,8.946,0,0,0,20.874,13.5ZM18,12a6,6,0,1,1-6-6A6.006,6.006,0,0,1,18,12Zm-3.748,3.3A4,4,0,1,1,13.929,8.5,3.926,3.926,0,0,0,12,11.818,4.361,4.361,0,0,0,14.252,15.3Z"/></svg>
