<?xml version="1.0" encoding="UTF-8"?>
<!-- Generator: Adobe Illustrator 26.0.1, SVG Export Plug-In . SVG Version: 6.00 Build 0)  -->
<svg xmlns="http://www.w3.org/2000/svg" xmlns:xlink="http://www.w3.org/1999/xlink" version="1.1" id="Capa_1" x="0px" y="0px" viewBox="0 0 24 24" style="enable-background:new 0 0 24 24;" xml:space="preserve" width="512" height="512">
<g>
	<path d="M20.492,3.522c-1.123-1.125-2.437-2.003-3.906-2.611C15.117,0.303,13.568-0.002,11.978,0   C10.399,0.003,8.86,0.311,7.401,0.916s-2.763,1.477-3.88,2.592C1.253,5.773,0.003,8.785,0,11.991   c-0.003,3.206,1.243,6.22,3.508,8.488c2.265,2.268,5.277,3.519,8.483,3.521H12c3.202,0,6.212-1.245,8.478-3.508   c2.269-2.265,3.519-5.277,3.522-8.483C24.003,8.804,22.757,5.789,20.492,3.522z M12.091,0.302c3.094,0.025,6.002,1.244,8.187,3.433   c2.208,2.211,3.422,5.15,3.42,8.275c-0.003,3.125-1.222,6.062-3.433,8.269c-1.093,1.091-2.544,1.692-4.089,1.692h-0.005   c-1.546-0.002-2.998-0.604-4.09-1.698c-1.092-1.094-1.693-2.547-1.692-4.093c0.001-1.546,0.604-2.998,1.698-4.09   c1.153-1.152,1.789-2.683,1.79-4.313c0.001-1.63-0.632-3.162-1.784-4.316C11.17,2.535,9.95,1.913,8.659,1.711   C8.338,1.66,8.017,1.635,7.699,1.635c-0.557,0-1.107,0.077-1.639,0.229C7.852,0.821,9.915,0.285,12.091,0.302z M11.141,6.856   c-0.282,0.555-0.565,1.09-0.84,1.61c-2.057,3.887-3.691,6.972-0.443,10.718H8.196c-2.218-3.608-4.013-7.101-5.538-12.327h1.746   c0.488,2.03,1.21,3.821,2.034,5.781l0.121,0.288l0.112-0.292c0.652-1.692,1.549-3.873,2.733-5.778H11.141z"/>
	<path d="M12.654,17.269h2.013c1.109-1.77,1.98-3.779,2.78-5.858c0.782,1.862,1.55,3.737,2.05,5.858h2.013   c-1.487-5.149-3.242-8.693-5.635-12.579h-2.013C17.796,9.014,15.116,12.37,12.654,17.269z"/>
</g>















</svg>
