<?xml version="1.0" encoding="UTF-8"?>
<!-- Generator: Adobe Illustrator 26.0.1, SVG Export Plug-In . SVG Version: 6.00 Build 0)  -->
<svg xmlns="http://www.w3.org/2000/svg" xmlns:xlink="http://www.w3.org/1999/xlink" version="1.1" id="Capa_1" x="0px" y="0px" viewBox="0 0 24 24" style="enable-background:new 0 0 24 24;" xml:space="preserve" width="512" height="512">
<g>
	<path d="M19.75,0.3H4.25C1.9,0.3,0,2.2,0,4.55v14.9c0,2.35,1.9,4.25,4.25,4.25h15.5c2.35,0,4.25-1.9,4.25-4.25V4.55   C24,2.2,22.1,0.3,19.75,0.3z M11.6,6.55v1.81c0,0.1-0.04,0.13-0.11,0.1c-0.3-0.14-0.63-0.24-0.96-0.29   C9.506,8.015,8.429,8.015,7.5,8.53c-1.082,0.599-1.629,1.803-1.61,3.01c0.019,1.181,0.498,2.359,1.56,2.96   c0.915,0.519,2.013,0.597,3.04,0.46c0.3-0.04,0.59-0.11,0.87-0.22c0.04-0.03,0.07-0.04,0.1-0.02c0.02,0.03,0.03,0.07,0.02,0.11   v1.66c0.01,0.1-0.04,0.19-0.13,0.23c-0.31,0.11-0.62,0.18-0.95,0.22c-1.009,0.12-2.052,0.105-3.04-0.15   c-1.638-0.424-3.013-1.606-3.5-3.25c-0.466-1.547-0.372-3.373,0.44-4.79c1.025-1.788,3.114-2.677,5.12-2.64   c0.42,0,0.83,0.02,1.25,0.06c0.29,0.03,0.57,0.1,0.85,0.19C11.58,6.41,11.61,6.48,11.6,6.55z M19.99,16.65   c0,0.1-0.04,0.14-0.13,0.14h-1.89c-0.08,0.01-0.15-0.04-0.16-0.12v-4.54c0.01-0.29-0.04-0.58-0.15-0.85   c-0.09-0.2-0.23-0.38-0.42-0.51c-0.22-0.13-0.48-0.19-0.74-0.18c-0.24,0-0.48,0.03-0.71,0.1c-0.22,0.09-0.43,0.2-0.61,0.34v5.64   c0,0.09-0.04,0.13-0.11,0.13h-2.01c-0.07,0.01-0.13-0.04-0.14-0.11V5.54c0-0.07,0.04-0.11,0.13-0.11h2.03   c0.05-0.01,0.11,0.03,0.11,0.08v0.03l0.01,3.8c0.29-0.19,0.6-0.35,0.93-0.47c0.653-0.238,1.46-0.195,2.12-0.01   c0.748,0.21,1.225,0.744,1.5,1.45c0.16,0.41,0.24,0.95,0.24,1.6V16.65z"/>
</g>















</svg>
