<?xml version="1.0" encoding="UTF-8"?>
<svg xmlns="http://www.w3.org/2000/svg" id="Isolation_Mode" data-name="Isolation Mode" viewBox="0 0 24 24" width="512" height="512"><path d="M23.8,11.478a15.436,15.436,0,0,0-3.763-5.4l3.02-3.019L20.939.939,17.565,4.314A11.585,11.585,0,0,0,12,2.941C3.5,2.941.327,11.129.2,11.478L0,12l.2.522a15.436,15.436,0,0,0,3.763,5.4L.939,20.939l2.122,2.122,3.374-3.375A11.585,11.585,0,0,0,12,21.059c8.5,0,11.673-8.188,11.8-8.537L24,12ZM3.212,12C3.965,10.445,6.619,5.916,12,5.916a8.743,8.743,0,0,1,3.322.641l-1.76,1.76a4,4,0,0,0-5.245,5.245L6.065,15.813A12.293,12.293,0,0,1,3.212,12ZM12,18.084a8.743,8.743,0,0,1-3.322-.641l1.76-1.76a4,4,0,0,0,5.245-5.245l2.252-2.251A12.281,12.281,0,0,1,20.788,12C20.035,13.555,17.381,18.084,12,18.084Z"/></svg>
