<?xml version="1.0" encoding="UTF-8"?>
<!-- Generator: Adobe Illustrator 26.0.1, SVG Export Plug-In . SVG Version: 6.00 Build 0)  -->
<svg xmlns="http://www.w3.org/2000/svg" xmlns:xlink="http://www.w3.org/1999/xlink" version="1.1" id="Capa_1" x="0px" y="0px" viewBox="0 0 24 24" style="enable-background:new 0 0 24 24;" xml:space="preserve" width="512" height="512">
<g>
	<path d="M20.515,3.48C18.192,1.16,15.349,0,11.984,0C8.661,0,5.847,1.16,3.545,3.48C1.181,5.88,0,8.72,0,12   c0,3.28,1.181,6.101,3.545,8.46C5.907,22.82,8.721,24,11.984,24c3.305,0,6.168-1.19,8.591-3.57C22.858,18.17,24,15.36,24,12   C24,8.64,22.838,5.8,20.515,3.48z M19.013,18.87c-1.983,1.96-4.315,2.94-6.998,2.94c-2.684,0-4.997-0.97-6.939-2.91   C3.134,16.96,2.163,14.66,2.163,12c0-1.023,0.147-1.994,0.436-2.916l6.144,2.736H7.391v1.868h2.811l0.275,0.57v0.905H7.391v1.867   h3.086v2.713h2.986V17.03h3.105v-1.726l3.918,1.745C20.085,17.701,19.594,18.308,19.013,18.87z M16.251,15.163h-2.787v-0.905   l0.141-0.273L16.251,15.163z M16.569,12.678v-0.859h-1.867l3.047-5.613h-3.184l-2.098,4.646l-1.113-0.496l-1.917-4.15H6.251   l1.321,2.467L3.611,6.908C4.022,6.255,4.519,5.632,5.106,5.04c1.883-1.92,4.185-2.88,6.909-2.88c2.722,0,5.036,0.96,6.938,2.88   c1.922,1.9,2.883,4.22,2.883,6.96c0,1.015-0.128,1.965-0.383,2.853L16.569,12.678z"/>
</g>















</svg>
