<svg id="Layer_1" height="512" viewBox="0 0 24 24" width="512" xmlns="http://www.w3.org/2000/svg" data-name="Layer 1"><path d="m17 7.655v-.655a2 2 0 0 0 -2-2v-2h3.5a1.5 1.5 0 0 0 0-3h-6a3.5 3.5 0 0 0 -3.5 3.5v1.5a2 2 0 0 0 -2 2v.655a9.441 9.441 0 0 0 -5 8.345v1.5a6.508 6.508 0 0 0 6.5 6.5h7a6.508 6.508 0 0 0 6.5-6.5v-1.5a9.441 9.441 0 0 0 -5-8.345zm2 9.845a3.5 3.5 0 0 1 -3.5 3.5h-7a3.5 3.5 0 0 1 -3.5-3.5v-1.5a6.471 6.471 0 0 1 4.007-6h5.986a6.471 6.471 0 0 1 4.007 6zm-2-.5a2 2 0 0 1 -2 2h-6a2 2 0 0 1 0-4h6a2 2 0 0 1 2 2z"/></svg>