<?xml version="1.0" encoding="UTF-8"?>
<!-- Generator: Adobe Illustrator 26.0.1, SVG Export Plug-In . SVG Version: 6.00 Build 0)  -->
<svg xmlns="http://www.w3.org/2000/svg" xmlns:xlink="http://www.w3.org/1999/xlink" version="1.1" id="Capa_1" x="0px" y="0px" viewBox="0 0 24 24" style="enable-background:new 0 0 24 24;" xml:space="preserve" width="512" height="512">
<g>
	<path d="M12.64,6.364V17.6c2.258-0.867,3.862-3.053,3.866-5.617C16.501,9.417,14.898,7.23,12.64,6.364z M4.467,11.982   c0.006,2.563,1.606,4.747,3.863,5.615V6.365C6.074,7.234,4.473,9.418,4.467,11.982z M12.64,6.364V17.6   c2.258-0.867,3.862-3.053,3.866-5.617C16.501,9.417,14.898,7.23,12.64,6.364z M4.467,11.982c0.006,2.563,1.606,4.747,3.863,5.615   V6.365C6.074,7.234,4.473,9.418,4.467,11.982z M13.153,1.627h-2.69C4.724,1.626,0,5.905,0,12.09c0,5.66,4.724,10.31,10.463,10.283   h2.69C18.824,22.373,24,17.748,24,12.09C24,5.902,18.824,1.626,13.153,1.627z M10.486,21.476c-5.245-0.001-9.494-4.25-9.495-9.494   c0.001-5.245,4.25-9.495,9.495-9.497c5.245,0.002,9.495,4.252,9.496,9.497C19.981,17.226,15.731,21.475,10.486,21.476z    M12.64,6.364V17.6c2.258-0.867,3.862-3.053,3.866-5.617C16.501,9.417,14.898,7.23,12.64,6.364z M4.467,11.982   c0.006,2.563,1.606,4.747,3.863,5.615V6.365C6.074,7.234,4.473,9.418,4.467,11.982z"/>
</g>















</svg>
