<?xml version="1.0" encoding="UTF-8"?>
<svg xmlns="http://www.w3.org/2000/svg" id="Layer_1" data-name="Layer 1" viewBox="0 0 24 24" width="512" height="512"><path d="M11,12.5A1.5,1.5,0,1,1,9.5,11,1.5,1.5,0,0,1,11,12.5ZM8.5,16A1.5,1.5,0,1,0,10,17.5,1.5,1.5,0,0,0,8.5,16Zm-1,5A1.5,1.5,0,1,0,9,22.5,1.5,1.5,0,0,0,7.5,21Zm5,0A1.5,1.5,0,1,0,14,22.5,1.5,1.5,0,0,0,12.5,21Zm1-5A1.5,1.5,0,1,0,15,17.5,1.5,1.5,0,0,0,13.5,16ZM24,12.477h0a8.064,8.064,0,0,1-7,7.946V17.274l1.122-.254A5.061,5.061,0,0,0,21,12.477,4.516,4.516,0,0,0,16.452,8L15.37,7.965l-.308-1.038A5.4,5.4,0,0,0,10.091,3,4.935,4.935,0,0,0,5,8a5.935,5.935,0,0,0,.247,2.025l.479,1.258-1.2.612A2.784,2.784,0,0,0,3,14.386a3.16,3.16,0,0,0,1.652,2.777l.313.159L5,17.328V20.42l-.267-.058A6.156,6.156,0,0,1,0,14.386v-.01A5.769,5.769,0,0,1,2.133,9.892,11.93,11.93,0,0,1,2,8a7.96,7.96,0,0,1,8.091-8,8.292,8.292,0,0,1,7.492,5.1A7.411,7.411,0,0,1,24,12.477ZM.005,14.386H0C0,14.4,0,14.405.005,14.386Zm2.994,0H3C3,14.405,3,14.4,3,14.386Zm18-1.909h0Zm3,0v0h0ZM14.5,11A1.5,1.5,0,1,0,16,12.5,1.5,1.5,0,0,0,14.5,11Z"/></svg>
