<?xml version="1.0" encoding="UTF-8"?>
<svg xmlns="http://www.w3.org/2000/svg" id="Bold" viewBox="0 0 24 24" width="512" height="512"><path d="M18.738,4.012,16.245.779A2,2,0,0,0,14.661,0H9.339A2,2,0,0,0,7.756.779L5.262,4.012A5.5,5.5,0,0,0,0,9.5v9A5.506,5.506,0,0,0,5.5,24h13A5.506,5.506,0,0,0,24,18.5v-9A5.5,5.5,0,0,0,18.738,4.012ZM21,18.5A2.5,2.5,0,0,1,18.5,21H5.5A2.5,2.5,0,0,1,3,18.5v-9A2.5,2.5,0,0,1,5.5,7h13A2.5,2.5,0,0,1,21,9.5Z"/><path d="M12,8.5A5.5,5.5,0,1,0,17.5,14,5.506,5.506,0,0,0,12,8.5Zm0,8A2.5,2.5,0,1,1,14.5,14,2.5,2.5,0,0,1,12,16.5Z"/></svg>
