<?xml version="1.0" encoding="UTF-8"?>
<svg xmlns="http://www.w3.org/2000/svg" id="Layer_1" data-name="Layer 1" viewBox="0 0 24 24" width="512" height="512"><path d="M20.544,14.01A3.78,3.78,0,0,0,22,11c0-2.379-1.942-4-5.452-4.662A3.819,3.819,0,0,0,17,4.5C17,1.767,14.448,0,10.5,0S4,1.767,4,4.5A3.79,3.79,0,0,0,5.264,7.365,4.008,4.008,0,0,0,3,11a3.841,3.841,0,0,0,1.132,2.783C1.8,14.5,0,15.863,0,18.5,0,24,7.806,24,12,24s12,0,12-5.5C24,16.123,22.539,14.776,20.544,14.01ZM19,11c0,.97-2.278,2-6.5,2C8.551,13,6,12.215,6,11s2.551-2,6.5-2C16.722,9,19,10.03,19,11ZM10.5,3c1.686,0,3.5.469,3.5,1.5S12.186,6,10.5,6,7,5.531,7,4.5,8.814,3,10.5,3ZM12,21c-6.224,0-9-.771-9-2.5S5.776,16,12,16s9,.771,9,2.5S18.225,21,12,21Z"/></svg>
