<?xml version="1.0" encoding="UTF-8"?>
<!-- Generator: Adobe Illustrator 26.0.1, SVG Export Plug-In . SVG Version: 6.00 Build 0)  -->
<svg xmlns="http://www.w3.org/2000/svg" xmlns:xlink="http://www.w3.org/1999/xlink" version="1.1" id="Capa_1" x="0px" y="0px" viewBox="0 0 24 24" style="enable-background:new 0 0 24 24;" xml:space="preserve" width="512" height="512">
<path d="M19.489,20.407H24L16.452,2.424L12.663,4.26l2.636,6.261l-1.224,2.911L9.352,2.134l-3.829,1.75l3.06,7.249  c-1.899,4.558-4.221,5.806-4.449,5.892c-0.541,0.22-1.122,0.345-1.734,0.345c-0.188,0-0.369-0.008-0.549-0.031L0,21.309  c0.612,0.353,1.302,0.557,2.032,0.557c0.926,0,1.773-0.322,2.479-0.855l-0.008,0.016c0,0,1.75-0.887,3.625-5.743  c0-0.008,1.098-2.652,1.098-2.652l3.295,7.783h4.503l-2.322-5.476l1.232-2.911L19.489,20.407z"/>















</svg>
