<?xml version="1.0" encoding="UTF-8"?>
<svg xmlns="http://www.w3.org/2000/svg" id="Layer_1" data-name="Layer 1" viewBox="0 0 24 24" width="512" height="512"><path d="M6,14a21.841,21.841,0,0,0,6,1,21.923,21.923,0,0,0,6.007-1c-.615,2.28-2.664,5-6,5S6.615,16.28,6,14ZM20.5,7A2.5,2.5,0,0,0,23,4.5C23,2.462,20.5,0,20.5,0S18,2.513,18,4.5A2.5,2.5,0,0,0,20.5,7Zm2.8,1a4.419,4.419,0,0,1-2.824,1A9,9,0,1,1,3,12C2.836,5.457,10.3.893,16.034,3.966a7.386,7.386,0,0,1,1.055-2.818C9.451-2.676-.206,3.408,0,12A12.013,12.013,0,0,0,12,24C20.118,24.156,26.164,15.565,23.3,8ZM8,7c-2.267,0-3,3.369-3,5,2.759-2.607,3.254-2.59,6,0C11,10.369,10.267,7,8,7Zm5,5c2.759-2.607,3.254-2.59,6,0C18.829,5.339,13.167,5.354,13,12Z"/></svg>
