<svg id="Layer_1" height="512" viewBox="0 0 24 24" width="512" xmlns="http://www.w3.org/2000/svg" data-name="Layer 1"><path d="m12 14.223a1.5 1.5 0 0 1 -1.5-1.5v-.223a2.611 2.611 0 0 1 1.785-2.543 1.007 1.007 0 0 0 .677-1.25.975.975 0 0 0 -.67-.671 1.031 1.031 0 0 0 -.82.112 1.006 1.006 0 0 0 -.452.649 1.5 1.5 0 1 1 -2.94-.6 4 4 0 0 1 4.961-3.067 4 4 0 0 1 .459 7.575v.016a1.5 1.5 0 0 1 -1.5 1.502zm.563 9.668.394-.159c2.121-.853 9.043-4.211 9.043-11.581v-5.1a5.273 5.273 0 0 0 -3.617-5.01l-5.911-1.965a1.508 1.508 0 0 0 -.944 0l-5.911 1.96a5.273 5.273 0 0 0 -3.617 5.01v5.1c0 6.52 6.852 10.451 8.951 11.5l.38.191a1.5 1.5 0 0 0 1.232.05zm4.876-19.007a2.274 2.274 0 0 1 1.561 2.162v5.1c0 5.259-5.03 7.9-6.932 8.7-1.925-1-7.068-4.1-7.068-8.7v-5.1a2.274 2.274 0 0 1 1.561-2.162l5.439-1.804zm-5.439 10.116a1.5 1.5 0 1 0 1.5 1.5 1.5 1.5 0 0 0 -1.5-1.5z"/></svg>