<?xml version="1.0" encoding="UTF-8"?>
<!-- Generator: Adobe Illustrator 26.0.1, SVG Export Plug-In . SVG Version: 6.00 Build 0)  -->
<svg xmlns="http://www.w3.org/2000/svg" xmlns:xlink="http://www.w3.org/1999/xlink" version="1.1" id="Capa_1" x="0px" y="0px" viewBox="0 0 24 24" style="enable-background:new 0 0 24 24;" xml:space="preserve" width="512" height="512">
<g>
	<g>
		<g>
			<path d="M23.852,14.461c0-0.369-0.262-0.64-0.624-0.64c-0.361,0-0.624,0.271-0.624,0.64c0,0.369,0.263,0.64,0.624,0.64     C23.59,15.101,23.852,14.831,23.852,14.461L23.852,14.461L23.852,14.461z M23.065,14.494v0.419H22.93v-0.923h0.336     c0.197,0,0.287,0.086,0.287,0.254c0,0.103-0.07,0.185-0.16,0.197v0.004c0.078,0.012,0.107,0.082,0.123,0.209     c0.012,0.082,0.029,0.226,0.058,0.258h-0.16c-0.037-0.086-0.033-0.209-0.062-0.312c-0.024-0.078-0.065-0.107-0.155-0.107H23.065     L23.065,14.494z M23.233,14.375c0.131,0,0.168-0.07,0.168-0.131c0-0.074-0.037-0.131-0.168-0.131h-0.168v0.262H23.233     L23.233,14.375z M22.457,14.461c0-0.455,0.362-0.763,0.771-0.763c0.41,0,0.771,0.308,0.771,0.763     c0,0.455-0.361,0.763-0.771,0.763C22.819,15.224,22.457,14.917,22.457,14.461L22.457,14.461z"/>
		</g>
		<g>
			<g>
				<g>
					<polygon points="19.785,15.092 18.895,14.094 18.014,15.092 16.161,15.092 17.973,13.055 16.161,11.019 18.073,11.019        18.97,12.008 19.835,11.019 21.68,11.019 19.876,13.047 21.705,15.092      "/>
				</g>
				<path d="M16.161,10.106V8.675h-5.063v2.626H11.08c-0.332-0.382-0.748-0.515-1.23-0.515c-0.988,0-1.732,0.672-1.993,1.559      c-0.298-0.978-1.066-1.577-2.205-1.577c-0.925,0-1.655,0.415-2.037,1.092v-0.841H1.704v-0.913h2.086V8.675H0v6.416h1.704v-2.697      h1.699c-0.051,0.198-0.078,0.41-0.078,0.634c0,1.339,1.022,2.278,2.327,2.278c1.097,0,1.82-0.515,2.203-1.455H6.395      c-0.197,0.283-0.347,0.366-0.742,0.366c-0.458,0-0.853-0.399-0.853-0.873h2.974c0.129,1.063,0.957,1.98,2.093,1.98      c0.49,0,0.939-0.241,1.213-0.648h0.017v0.415h5.063v-1.434h-2.053v-1.263h2.053v-1.376h-2.053v-0.913H16.161z M4.847,12.414      c0.095-0.407,0.411-0.674,0.805-0.674c0.435,0,0.735,0.258,0.813,0.674H4.847z M10.185,14.115c-0.554,0-0.898-0.516-0.898-1.055      c0-0.576,0.3-1.13,0.898-1.13c0.621,0,0.868,0.554,0.868,1.13C11.053,13.606,10.791,14.115,10.185,14.115z"/>
			</g>
		</g>
	</g>
</g>















</svg>
