<?xml version="1.0" encoding="UTF-8"?>
<svg xmlns="http://www.w3.org/2000/svg" id="Layer_1" data-name="Layer 1" viewBox="0 0 24 24" width="512" height="512"><path d="M20.7,14.025a3.585,3.585,0,0,0-4.946,0l-.409.4A11.6,11.6,0,0,1,9.586,8.647l.389-.394a3.522,3.522,0,0,0,.039-4.91L7.861,1.025A3.5,3.5,0,0,0,2.954.984s-1.066.93-1.091.954c-7.9,8.268,11.922,28.1,20.2,20.2.024-.025.954-1.091.954-1.091a3.516,3.516,0,0,0-.081-4.946Zm.157,4.942c-.025.024-.949,1.083-.949,1.083C14.655,24.774-.911,10.126,3.95,4.1c0,0,1.059-.924,1.083-.949a.5.5,0,0,1,.668-.04L7.854,5.424a.484.484,0,0,1-.009.716L6.736,7.266a1.5,1.5,0,0,0-.322,1.611A14.855,14.855,0,0,0,15.146,17.6a1.5,1.5,0,0,0,1.588-.332l1.134-1.118c.29-.214.441-.212.748.04l2.238,2.074A.5.5,0,0,1,20.854,18.967ZM24,1V5.474a1,1,0,0,1-1.707.707L21.127,5.015,17.558,8.563a1.5,1.5,0,0,1-2.116-2.126l3.564-3.543L17.819,1.707A1,1,0,0,1,18.526,0H23A1,1,0,0,1,24,1Z"/></svg>
