<?xml version="1.0" encoding="UTF-8"?>
<svg xmlns="http://www.w3.org/2000/svg" id="Layer_1" data-name="Layer 1" viewBox="0 0 24 24" width="512" height="512"><path d="M8,8a2,2,0,0,0,0,4A2,2,0,0,0,8,8Zm8,0a2,2,0,0,0,0,4A2,2,0,0,0,16,8Zm8,4A12.013,12.013,0,0,1,12,24C-3.9,23.4-3.893.6,12,0A12.013,12.013,0,0,1,24,12Zm-3,0a9.01,9.01,0,0,0-9-9C.077,3.453.08,20.549,12,21A9.01,9.01,0,0,0,21,12Z"/><path d="M15,14.5A2.5,2.5,0,0,0,12.5,12H11v2h1.5a.5.5,0,0,1,0,1H12v2h.5a.5.5,0,0,1,0,1H11v2h1.5a2.507,2.507,0,0,0,1.987-4A2.471,2.471,0,0,0,15,14.5Z"/></svg>
