<?xml version="1.0" encoding="UTF-8"?>
<svg xmlns="http://www.w3.org/2000/svg" id="Layer_1" data-name="Layer 1" viewBox="0 0 24 24" width="512" height="512"><path d="M23.9,19.391l-1-5.642A3.995,3.995,0,0,0,21.36,7.233,9.727,9.727,0,0,0,12,0,10.016,10.016,0,0,0,2.145,8.3c-.1.553-.491,3.7-.491,3.7H3.5a12.8,12.8,0,0,0,4.637-1.119,1.5,1.5,0,1,0,1.671-.849,16.787,16.787,0,0,0,4.78-4.225A4.634,4.634,0,0,0,12,5h-.655A12.633,12.633,0,0,1,5.11,8.761,7.012,7.012,0,0,1,12,3a6.7,6.7,0,0,1,6.6,5.714l.179,1.24L20.034,10A1,1,0,0,1,20,12H18.04l-.255,1.186A6.264,6.264,0,0,1,12,18a6.267,6.267,0,0,1-5.659-4.421A12.839,12.839,0,0,1,3.5,14H1.061L.105,19.391A3.736,3.736,0,0,0,3.739,24H10V20.736a7.808,7.808,0,0,0,4,.007V24h6.262a3.737,3.737,0,0,0,3.633-4.61ZM7,21H3.738a.736.736,0,0,1-.713-.921l.817-4.586A9.5,9.5,0,0,0,7,19.326Zm13.845-.285a.727.727,0,0,1-.583.286H17V19.332a9.506,9.506,0,0,0,3.159-3.827l.791,4.46.025.115A.725.725,0,0,1,20.845,20.715ZM14.5,13A1.5,1.5,0,1,1,16,11.5,1.5,1.5,0,0,1,14.5,13Z"/></svg>
