<?xml version="1.0" encoding="UTF-8"?>
<svg xmlns="http://www.w3.org/2000/svg" id="Layer_1" data-name="Layer 1" viewBox="0 0 24 24" width="512" height="512"><path d="M24,5a3,3,0,0,0-2.3-2.91A3.5,3.5,0,0,0,18.5,0H5.5A3.5,3.5,0,0,0,2.3,2.09a3,3,0,0,0-.208,5.755L3.539,19.4A5.257,5.257,0,0,0,8.748,24h6.5a5.257,5.257,0,0,0,5.209-4.6L21.906,7.845A2.994,2.994,0,0,0,24,5Zm-5.762,8H14.816c-.9-3.959-4.733-3.957-5.632,0H5.762L5.137,8H18.863ZM5.5,3h13a.5.5,0,0,1,.5.5V5H5V3.5A.5.5,0,0,1,5.5,3Zm9.752,18h-6.5a2.255,2.255,0,0,1-2.233-1.972L6.137,16H9.184c.9,3.959,4.733,3.957,5.632,0h3.047l-.379,3.029A2.253,2.253,0,0,1,15.252,21Z"/></svg>
