<?xml version="1.0" encoding="UTF-8"?>
<!-- Generator: Adobe Illustrator 26.0.1, SVG Export Plug-In . SVG Version: 6.00 Build 0)  -->
<svg xmlns="http://www.w3.org/2000/svg" xmlns:xlink="http://www.w3.org/1999/xlink" version="1.1" id="Capa_1" x="0px" y="0px" viewBox="0 0 24 24" style="enable-background:new 0 0 24 24;" xml:space="preserve" width="512" height="512">
<g id="Layer_2_11_">
	<g id="Surfaces_12_">
		<g id="_3D_Substance_Surface_2_">
			<g id="Outline_no_shadow_12_">
				<path d="M19.75,0.3H4.25C1.9,0.3,0,2.2,0,4.55v14.9c0,2.35,1.9,4.25,4.25,4.25h15.5c2.35,0,4.25-1.9,4.25-4.25V4.55      C24,2.2,22.1,0.3,19.75,0.3z M11.01,15.53c-0.36,0.49-0.85,0.87-1.41,1.1C9.04,16.87,8.33,17,7.51,17      c-0.55,0.01-1.1-0.05-1.63-0.15c-0.42-0.08-0.84-0.21-1.23-0.39c-0.09-0.04-0.13-0.13-0.13-0.27v-1.92      c0-0.03,0.01-0.07,0.04-0.09c0.03-0.02,0.07-0.01,0.1,0.01c0.45,0.28,0.93,0.49,1.43,0.63c0.48,0.14,0.98,0.21,1.48,0.21      c0.61,0,1.05-0.09,1.31-0.28c0.24-0.15,0.39-0.41,0.39-0.7c0-0.17-0.04-0.34-0.13-0.49c-0.12-0.17-0.27-0.32-0.45-0.43      c-0.28-0.17-0.58-0.32-0.89-0.43L7,12.36c-0.65-0.28-1.17-0.58-1.54-0.89c-0.34-0.27-0.6-0.62-0.76-1.02      c-0.14-0.38-0.21-0.77-0.21-1.18c-0.02-1.16,0.66-2.23,1.72-2.7C6.78,6.3,7.49,6.16,8.34,6.16c0.48,0,0.96,0.03,1.44,0.1      c0.37,0.04,0.73,0.15,1.07,0.31c0.07,0.04,0.12,0.12,0.11,0.21V8.6c0,0.03-0.02,0.06-0.05,0.08c-0.04,0.02-0.08-0.01-0.11-0.02      c-0.06-0.03-0.12-0.06-0.18-0.09c-0.12-0.05-0.24-0.1-0.37-0.15C10.13,8.38,10,8.34,9.87,8.3C9.81,8.28,9.74,8.27,9.68,8.25      C9.24,8.15,8.79,8.1,8.34,8.11c-0.27,0-0.53,0.02-0.79,0.08C7.37,8.23,7.19,8.3,7.03,8.39C6.9,8.46,6.8,8.57,6.73,8.7      c-0.06,0.12-0.1,0.25-0.1,0.38c0,0.16,0.05,0.33,0.14,0.46c0.13,0.17,0.3,0.3,0.48,0.4c0.3,0.17,0.61,0.33,0.93,0.47l0.6,0.23      c0.71,0.29,1.26,0.6,1.66,0.93c0.36,0.28,0.65,0.65,0.84,1.06c0.16,0.39,0.24,0.81,0.24,1.23      C11.53,14.46,11.35,15.04,11.01,15.53z M19.49,16.28c-0.48,0.18-0.91,0.33-1.29,0.43c-0.36,0.1-0.72,0.18-1.09,0.23      c-0.37,0.04-0.75,0.07-1.13,0.06c-0.56,0.01-1.11-0.09-1.63-0.29c-0.47-0.18-0.88-0.49-1.18-0.89c-0.3-0.4-0.45-0.9-0.45-1.51      c0-0.58,0.16-1.06,0.47-1.45c0.34-0.4,0.79-0.71,1.3-0.87c0.61-0.2,1.24-0.3,1.88-0.29h0.59c0.12,0,0.24,0,0.36,0.02v-0.1      c-0.01-0.1-0.02-0.19-0.06-0.28c-0.04-0.13-0.12-0.25-0.22-0.35c-0.13-0.12-0.29-0.21-0.46-0.27c-0.26-0.08-0.53-0.11-0.8-0.1      c-0.39,0-0.78,0.03-1.16,0.11c-0.34,0.07-0.67,0.17-0.98,0.31c-0.03,0.01-0.07,0.01-0.1,0c-0.03-0.01-0.05-0.05-0.05-0.08V9.34      c-0.01-0.08,0.04-0.15,0.11-0.18c0.38-0.17,0.79-0.29,1.2-0.36c0.45-0.08,0.89-0.12,1.33-0.12c0.79,0,1.44,0.14,1.92,0.43      c0.47,0.27,0.85,0.68,1.09,1.18c0.24,0.52,0.36,1.09,0.35,1.66v3.11c0,0.2,0,0.4,0.01,0.58c0.01,0.18,0.01,0.37,0.02,0.56      C19.52,16.24,19.51,16.27,19.49,16.28z M16.52,13.34c-0.58,0-0.99,0.09-1.23,0.26c-0.23,0.16-0.37,0.43-0.36,0.71      c0,0.17,0.05,0.33,0.14,0.47c0.11,0.16,0.27,0.28,0.45,0.35c0.25,0.1,0.52,0.15,0.8,0.14c0.18,0,0.37-0.01,0.55-0.04      c0.14-0.03,0.3-0.07,0.45-0.11v-1.71c-0.13-0.02-0.25-0.04-0.37-0.05C16.83,13.35,16.69,13.34,16.52,13.34z"/>
			</g>
		</g>
	</g>
</g>















</svg>
