<?xml version="1.0" encoding="UTF-8"?>
<!-- Generator: Adobe Illustrator 25.0.0, SVG Export Plug-In . SVG Version: 6.00 Build 0)  -->
<svg xmlns="http://www.w3.org/2000/svg" xmlns:xlink="http://www.w3.org/1999/xlink" version="1.1" id="Capa_1" x="0px" y="0px" viewBox="0 0 512 512" style="enable-background:new 0 0 512 512;" xml:space="preserve" width="512" height="512">
<g>
	<path d="M247.637,75.285H229.76l0.128,36.757h17.749c10.243,0.039,18.653-8.087,18.965-18.325   C266.336,83.442,257.916,75.259,247.637,75.285z"/>
	<path d="M416,0H96C43.005,0.059,0.059,43.005,0,96v320c0.059,52.995,43.005,95.941,96,96h255.659   c25.476,0.078,49.923-10.048,67.883-28.117l64.341-64.32c18.059-17.966,28.184-42.409,28.117-67.883V96   C511.941,43.005,468.995,0.059,416,0z M311.467,147.669c4.45-4.205,11.254-4.67,16.235-1.109l2.709,2.133   c5.306,4.651,11.434,8.268,18.069,10.667c6.833,1.998,14.128,1.736,20.8-0.747c4.372-1.329,7.934-4.523,9.728-8.725   c1.391-4.38,0.156-9.169-3.179-12.331c-2.963-2.681-6.471-4.689-10.283-5.888c-8.853-3.243-17.579-6.72-26.304-10.325   c-8.332-2.894-15.512-8.392-20.48-15.68c-4.435-6.967-6.214-15.296-5.013-23.467c0.668-4.503,2.165-8.843,4.416-12.8   c4.832-8.407,12.643-14.696,21.888-17.621c17.509-4.662,36.155-2.118,51.776,7.061c3.485,1.735,6.468,4.335,8.661,7.552   c3.349,4.794,3.069,11.237-0.683,15.723c-5.056,5.995-12.437,4.267-18.731,1.579c-5.696-2.524-11.529-4.725-17.472-6.592   c-4.146-1.519-8.564-2.159-12.971-1.877c-4.469,0.341-8.434,2.996-10.453,6.997c-1.596,4.647-0.338,9.797,3.221,13.184   c3.574,3.231,7.95,5.442,12.672,6.4c5.952,1.536,11.989,2.645,17.835,4.629c7.107,2.392,13.669,6.17,19.307,11.115   c10.023,8.521,14.875,21.654,12.8,34.645c-4.944,21.463-24.526,36.322-46.528,35.307c-18.558,0.106-36.328-7.496-49.067-20.992   c-4.913-5.485-4.45-13.914,1.035-18.828C311.46,147.676,311.463,147.673,311.467,147.669z M216.341,48.64h31.253   c24.854-0.541,45.441,19.168,45.983,44.023c0.541,24.854-19.168,45.441-44.023,45.983c-0.653,0.014-1.307,0.014-1.96,0h-17.92   v35.541c0,7.364-5.97,13.333-13.333,13.333c-7.364,0-13.333-5.97-13.333-13.333l0.043-112.32c-0.034-0.889-0.116-5.399,3.345-9.152   C210.301,48.48,215.58,48.608,216.341,48.64z M102.592,62.379c0.012-7.355,5.978-13.312,13.333-13.312h46.933   c7.364,0,13.333,5.97,13.333,13.333s-5.97,13.333-13.333,13.333h-33.6v29.013h30.059c7.364,0,13.333,5.97,13.333,13.333   s-5.97,13.333-13.333,13.333h-30.059v28.928h33.515c7.364,0,13.333,5.97,13.333,13.333c0,7.364-5.97,13.333-13.333,13.333H115.84   c-7.364,0-13.333-5.97-13.333-13.333L102.592,62.379z M448,320h-85.333C339.103,320,320,339.103,320,362.667V448H96   c-17.673,0-32-14.327-32-32V234.667h384V320z"/>
</g>















</svg>
