<?xml version="1.0" encoding="UTF-8"?>
<svg xmlns="http://www.w3.org/2000/svg" id="Layer_1" data-name="Layer 1" viewBox="0 0 24 24" width="512" height="512"><path d="M11.211,7.673,7.538,4H10.5V0h3V4h2.962L12.789,7.673A1.115,1.115,0,0,1,11.211,7.673ZM24,21v3H0V21H4.062a7.949,7.949,0,0,1,1.126-3.191L2.241,14.862l2.121-2.121,2.852,2.852A7.967,7.967,0,0,1,10.5,14.142V10h3v4.142a7.957,7.957,0,0,1,3.285,1.451l2.853-2.852,2.121,2.121-2.947,2.947A7.964,7.964,0,0,1,19.938,21ZM7.1,21h9.8a5,5,0,0,0-9.8,0Z"/></svg>
