<?xml version="1.0" encoding="UTF-8"?>
<!-- Generator: Adobe Illustrator 26.0.1, SVG Export Plug-In . SVG Version: 6.00 Build 0)  -->
<svg xmlns="http://www.w3.org/2000/svg" xmlns:xlink="http://www.w3.org/1999/xlink" version="1.1" id="Capa_1" x="0px" y="0px" viewBox="0 0 24 24" style="enable-background:new 0 0 24 24;" xml:space="preserve" width="512" height="512">
<path d="M22.981,10.222c0-0.273,0.219-0.496,0.487-0.496c0.13,0,0.25,0.054,0.344,0.143c0.094,0.094,0.143,0.219,0.143,0.349  c0,0.13-0.049,0.255-0.143,0.349c-0.094,0.094-0.214,0.147-0.344,0.147C23.2,10.713,22.981,10.494,22.981,10.222 M22.941,10.222  c0,0.295,0.237,0.536,0.532,0.536c0.143,0,0.273-0.054,0.371-0.156C23.942,10.499,24,10.365,24,10.222s-0.054-0.277-0.156-0.38  c-0.103-0.103-0.232-0.156-0.371-0.156C23.178,9.685,22.941,9.927,22.941,10.222 M23.272,10.539h0.076v-0.25h0.17  c0.027,0,0.049,0,0.067,0.009c0.022,0.013,0.036,0.04,0.04,0.076l0.009,0.098c0,0.022,0,0.036,0,0.045  c0.004,0.009,0.004,0.013,0.009,0.018h0.094v-0.013c-0.013-0.004-0.018-0.018-0.022-0.036c-0.004-0.009-0.004-0.027-0.004-0.049  l-0.004-0.076c0-0.036-0.009-0.058-0.018-0.071c-0.013-0.013-0.031-0.027-0.054-0.036c0.027-0.013,0.045-0.031,0.058-0.054  c0.013-0.022,0.018-0.049,0.018-0.085c0-0.067-0.027-0.112-0.076-0.139c-0.027-0.013-0.063-0.018-0.103-0.018h-0.255L23.272,10.539  L23.272,10.539z M23.343,10.222V10.02h0.179c0.027,0,0.049,0.004,0.063,0.013c0.027,0.013,0.04,0.045,0.04,0.085  c0,0.04-0.009,0.067-0.031,0.08c-0.018,0.013-0.045,0.022-0.08,0.022H23.343z M2.172,10.959L0,14.373h1.484l2.091-3.262  L2.172,10.959z M11.113,10.883V9.618H6.89c-0.576,0.036-0.827,0.313-1.014,0.509c-0.201,0.21-0.313,0.652-0.313,0.652V9.627H3.316  c-0.17,0-0.331,0.071-0.451,0.241c-0.125,0.165-0.639,1.014-0.639,1.014H11.113z M22.597,10.883V9.618h-4.518  c-0.572,0.036-0.827,0.313-1.014,0.509c-0.201,0.21-0.313,0.652-0.313,0.652v0.103H22.597z M12.597,9.623h-1.265v1.26h1.265V9.623z   M16.739,9.623h-1.26v1.26h1.26V9.623z M16.739,11.339l-1.242-0.076v1.461c0,0-0.004,0.42-0.411,0.42h-2.127  c0,0-0.362-0.031-0.362-0.416v-1.662l-1.251-0.089v2.239c0.201,1.072,1.171,1.157,1.171,1.157s0.098,0.004,0.116,0.009h2.882  c0,0,1.233-0.098,1.233-1.287L16.739,11.339L16.739,11.339z M4.276,14.373h5.907c1.028-0.206,1.135-1.144,1.135-1.144  c0.049-0.277,0.022-0.505,0.022-0.505c-0.031-0.188-0.389-1.019-1.157-1.09c-0.46-0.045-4.558-0.371-4.558-0.371  c0.08,0.411,0.264,0.621,0.389,0.737c0.286,0.273,0.737,0.353,0.737,0.353c0.107,0.009,3.159,0.264,3.159,0.264  c0.098,0.004,0.282,0.031,0.277,0.273c0,0.031-0.027,0.241-0.259,0.241H5.51v-1.877l-1.229-0.089  C4.276,11.164,4.276,14.373,4.276,14.373z M16.748,14.382h4.522c1.135-0.067,1.296-1.144,1.296-1.144  c0.04-0.282,0.009-0.514,0.009-0.514c-0.031-0.255-0.393-1.023-1.166-1.099c-0.456-0.045-4.58-0.286-4.58-0.286  c0.121,0.425,0.286,0.554,0.411,0.67c0.286,0.277,0.71,0.34,0.71,0.34c0.107,0.009,3.19,0.268,3.19,0.268  c0.098,0.004,0.299,0.013,0.299,0.255c0,0.071-0.036,0.147-0.08,0.188c0,0-0.107,0.058-0.21,0.058h-4.388L16.748,14.382z"/>















</svg>
