<?xml version="1.0" encoding="UTF-8"?>
<svg xmlns="http://www.w3.org/2000/svg" id="Layer_1" data-name="Layer 1" viewBox="0 0 24 24" width="512" height="512"><path d="M24,14v3a4.468,4.468,0,0,1-3-1.17,4.431,4.431,0,0,1-6,0,4.431,4.431,0,0,1-6,0,4.431,4.431,0,0,1-6,0A4.468,4.468,0,0,1,0,17V14a1.5,1.5,0,0,0,1.408-1H4.592a1.491,1.491,0,0,0,2.816,0h3.184a1.491,1.491,0,0,0,2.816,0h3.184a1.491,1.491,0,0,0,2.816,0h3.184A1.5,1.5,0,0,0,24,14Zm-1.408,5H19.408a1.491,1.491,0,0,1-2.816,0H13.408a1.491,1.491,0,0,1-2.816,0H7.408a1.491,1.491,0,0,1-2.816,0H1.408A1.5,1.5,0,0,1,0,20v3a4.468,4.468,0,0,0,3-1.17,4.431,4.431,0,0,0,6,0,4.431,4.431,0,0,0,6,0,4.431,4.431,0,0,0,6,0A4.468,4.468,0,0,0,24,23V20A1.5,1.5,0,0,1,22.592,19Zm0-18H19.408a1.491,1.491,0,0,1-2.816,0H13.408a1.491,1.491,0,0,1-2.816,0H7.408A1.491,1.491,0,0,1,4.592,1H1.408A1.5,1.5,0,0,1,0,2V5A4.468,4.468,0,0,0,3,3.83a4.431,4.431,0,0,0,6,0,4.431,4.431,0,0,0,6,0,4.431,4.431,0,0,0,6,0A4.468,4.468,0,0,0,24,5V2A1.5,1.5,0,0,1,22.592,1Zm0,6H19.408a1.491,1.491,0,0,1-2.816,0H13.408a1.491,1.491,0,0,1-2.816,0H7.408A1.491,1.491,0,0,1,4.592,7H1.408A1.5,1.5,0,0,1,0,8v3A4.468,4.468,0,0,0,3,9.83a4.431,4.431,0,0,0,6,0,4.431,4.431,0,0,0,6,0,4.431,4.431,0,0,0,6,0A4.468,4.468,0,0,0,24,11V8A1.5,1.5,0,0,1,22.592,7Z"/></svg>
