<svg id="Layer_1" height="512" viewBox="0 0 24 24" width="512" xmlns="http://www.w3.org/2000/svg" data-name="Layer 1"><path d="m22.5 19h-7.351a3.509 3.509 0 0 0 -1.649-1.649v-2.351h3a4.505 4.505 0 0 0 4.5-4.5v-5a3.5 3.5 0 0 0 -3.5-3.5h-5.034l-2.526-1.736a1.5 1.5 0 0 0 -.849-.264h-2.591a3.5 3.5 0 0 0 -3.5 3.5v7a4.505 4.505 0 0 0 4.5 4.5h3v2.351a3.509 3.509 0 0 0 -1.649 1.649h-7.351a1.5 1.5 0 0 0 0 3h7.351a3.479 3.479 0 0 0 6.3 0h7.349a1.5 1.5 0 0 0 0-3zm-15-7a1.5 1.5 0 0 1 -1.5-1.5v-3.5h12v3.5a1.5 1.5 0 0 1 -1.5 1.5z"/></svg>