<?xml version="1.0" encoding="UTF-8"?>
<!-- Generator: Adobe Illustrator 25.0.0, SVG Export Plug-In . SVG Version: 6.00 Build 0)  -->
<svg xmlns="http://www.w3.org/2000/svg" xmlns:xlink="http://www.w3.org/1999/xlink" version="1.1" id="Capa_1" x="0px" y="0px" viewBox="0 0 512 512" style="enable-background:new 0 0 512 512;" xml:space="preserve" width="512" height="512">
<g>
	<path d="M394.667,64H266.496c-1.723-0.008-3.419-0.425-4.949-1.216L198.72,29.867c-10.698-5.6-22.592-8.528-34.667-8.533h-46.72   C52.561,21.404,0.071,73.895,0,138.667v234.667c0.071,64.772,52.561,117.263,117.333,117.333h277.333   c64.772-0.071,117.263-52.561,117.333-117.333v-192C511.929,116.561,459.439,64.071,394.667,64z M448,373.333   c0,29.455-23.878,53.333-53.333,53.333H117.333C87.878,426.667,64,402.789,64,373.333V169.963h382.72   c0.839,3.732,1.268,7.545,1.28,11.371V373.333z"/>
</g>















</svg>
