<?xml version="1.0" encoding="UTF-8"?>
<svg xmlns="http://www.w3.org/2000/svg" id="Layer_1" data-name="Layer 1" viewBox="0 0 24 24" width="512" height="512"><path d="M.819,17.521a4.765,4.765,0,0,0,5.05-.3.335.335,0,0,1,.407,0,4.914,4.914,0,0,0,5.594,0,.335.335,0,0,1,.406,0,4.914,4.914,0,0,0,5.592,0,.333.333,0,0,1,.408,0,4.686,4.686,0,0,0,5.05.3,1.5,1.5,0,0,0-1.508-2.594,1.716,1.716,0,0,1-1.8-.15,3.359,3.359,0,0,0-3.883,0,1.851,1.851,0,0,1-2.116,0,3.35,3.35,0,0,0-3.884,0,1.849,1.849,0,0,1-2.117,0,3.359,3.359,0,0,0-3.883,0,1.706,1.706,0,0,1-1.806.149,1.5,1.5,0,0,0-1.506,2.6Z"/><path d="M21.748,20.8a1.709,1.709,0,0,1-1.806-.148,3.349,3.349,0,0,0-3.882,0,1.854,1.854,0,0,1-2.118,0,3.349,3.349,0,0,0-3.883,0,1.852,1.852,0,0,1-2.117,0,3.349,3.349,0,0,0-3.883,0,1.706,1.706,0,0,1-1.806.149A1.5,1.5,0,0,0,.747,23.4a4.766,4.766,0,0,0,5.05-.3.335.335,0,0,1,.406,0,4.914,4.914,0,0,0,5.594,0,.336.336,0,0,1,.407,0,4.907,4.907,0,0,0,5.594,0,.333.333,0,0,1,.406,0,4.686,4.686,0,0,0,5.048.3,1.5,1.5,0,0,0-1.5-2.6Z"/><path d="M3.5,12H6.2a2.34,2.34,0,0,0,2.286-1.832,3.607,3.607,0,0,1,7.034,0A2.339,2.339,0,0,0,17.8,12h2.7a1.5,1.5,0,0,0,0-3H18.31A6.57,6.57,0,0,0,17.4,7.147l1.972-1.972A1.5,1.5,0,0,0,17.25,3.054L15.156,5.148A6.6,6.6,0,0,0,13.5,4.521V1.5a1.5,1.5,0,0,0-3,0V4.521a6.623,6.623,0,0,0-1.657.626L6.75,3.054A1.5,1.5,0,0,0,4.628,5.175L6.6,7.146A6.562,6.562,0,0,0,5.689,9H3.5A1.5,1.5,0,0,0,3.5,12Z"/></svg>
