<?xml version="1.0" encoding="UTF-8"?>
<!-- Generator: Adobe Illustrator 24.1.0, SVG Export Plug-In . SVG Version: 6.00 Build 0)  -->
<svg xmlns="http://www.w3.org/2000/svg" xmlns:xlink="http://www.w3.org/1999/xlink" version="1.1" id="Capa_1" x="0px" y="0px" viewBox="0 0 512 512" style="enable-background:new 0 0 512 512;" xml:space="preserve" width="512" height="512">
<g id="Layer_1-2_00000128448383640902131630000012217176510621409168_">
	<g id="XMLID_1_">
		<polygon points="510.08,200.19 512,311.59 484.67,311.59 485.1,246.29 452.46,311.59 438.38,311.59 426.62,246.29 407.64,311.59     380.1,311.59 414.68,200.19 439.66,200.19 452.67,262.93 484.89,200.19   "/>
		<path d="M343.4,198.27c29.89,2.14,48.24,26.48,44.82,58.69c-3.41,33.51-30.31,58.26-60.82,56.13    c-29.89-2.14-48.23-26.48-44.82-58.69C285.99,220.89,313.09,196.14,343.4,198.27z M361.75,259.73    c4.05-18.77-2.99-33.51-17.28-36.5c-15.57-3.2-29.89,8.75-34.16,28.61c-4.05,18.77,2.99,33.51,17.28,36.5    C343.19,291.54,357.48,279.59,361.75,259.73z"/>
		<path d="M288.11,207.21l-5.34,26.69c-6.76-5.97-15.51-9.26-24.53-9.17c-19.43,0-33.73,13.67-34.37,32.44    c-0.42,17.94,11.12,29.89,28.82,29.89c5.55,0,16.64-0.64,24.11-4.05l-4.29,26.86c-7.46,3.41-19.2,4.05-24.74,4.05    c-31.39,0-52.51-22.83-51.44-55.49c1.28-33.7,27.73-60.39,59.76-60.39C267.43,197.89,278.57,201.07,288.11,207.21z"/>
		<polygon points="203.39,200.19 199.55,226.03 121.22,226.03 125.06,200.19   "/>
		<polygon points="190.59,285.57 186.75,311.62 108.42,311.62 112.26,285.57   "/>
		<polygon points="187.58,243.07 183.55,268.91 114.82,268.91 118.66,243.07   "/>
		<path d="M82.6,200.19l25.62,111.4H81.75l-4.48-21.76H37.14l-9.17,21.76H0l52.5-111.4H82.6z M71.91,265.3l-8.1-38.63h-0.22    L47.38,265.3H71.91z"/>
	</g>
</g>
</svg>
