<?xml version="1.0" encoding="UTF-8"?>
<!-- Generator: Adobe Illustrator 26.0.1, SVG Export Plug-In . SVG Version: 6.00 Build 0)  -->
<svg xmlns="http://www.w3.org/2000/svg" xmlns:xlink="http://www.w3.org/1999/xlink" version="1.1" id="Capa_1" x="0px" y="0px" viewBox="0 0 24 24" style="enable-background:new 0 0 24 24;" xml:space="preserve" width="512" height="512">
<path d="M18.901,14.709v-4.405c0-0.195-0.15-0.3-0.3-0.195l-4.503,2.597c-0.098,0.053-0.195,0.203-0.195,0.353v5.201  c0,0.203,0.15,0.3,0.3,0.203L18,16.263l3.707,2.146l-9.659,5.576L12.026,24l-0.03-0.015L5.46,20.203L2.36,18.402l3.685-2.139  l3.805,2.199c0.15,0.098,0.3-0.052,0.248-0.248v-5.208c0-0.15-0.052-0.248-0.203-0.345l-4.503-2.604  c-0.098-0.053-0.3,0.052-0.3,0.203v4.398l-3.7,2.154V5.606L11.148,0v4.3L7.343,6.507c-0.15,0.045-0.15,0.3,0,0.345l4.503,2.604  c0.105,0.053,0.255,0.098,0.405,0l4.503-2.604c0.15-0.045,0.15-0.248,0-0.345L12.949,4.3V0l9.659,5.606v11.182L18.901,14.709z"/>















</svg>
