<?xml version="1.0" encoding="UTF-8"?>
<!-- Generator: Adobe Illustrator 26.0.1, SVG Export Plug-In . SVG Version: 6.00 Build 0)  -->
<svg xmlns="http://www.w3.org/2000/svg" xmlns:xlink="http://www.w3.org/1999/xlink" version="1.1" id="Capa_1" x="0px" y="0px" viewBox="0 0 24 24" style="enable-background:new 0 0 24 24;" xml:space="preserve" width="512" height="512">
<g id="Symbols">
	<g id="amazonpay-secondary-logo-rgb_clr">
		<path id="Shape" style="fill-rule:evenodd;clip-rule:evenodd;" d="M21.694,16.523c-2.628,1.939-6.437,2.97-9.717,2.97    c-4.598,0-8.738-1.7-11.87-4.528c-0.246-0.222-0.027-0.526,0.269-0.353c3.38,1.967,7.56,3.151,11.877,3.151    c2.912,0,6.114-0.604,9.06-1.854C21.756,15.721,22.128,16.202,21.694,16.523 M22.787,15.275c0.336,0.431-0.374,2.204-0.691,2.996    c-0.096,0.24,0.11,0.336,0.327,0.155c1.409-1.179,1.774-3.65,1.485-4.007c-0.286-0.354-2.751-0.658-4.255,0.398    c-0.232,0.162-0.192,0.387,0.065,0.356C20.565,15.071,22.451,14.844,22.787,15.275"/>
		<g id="Group" transform="translate(9.067358, 0.000000)">
			<path id="Path" style="fill-rule:evenodd;clip-rule:evenodd;" d="M9.915,12.1l2.735-6.961c0.057-0.141,0.087-0.24,0.087-0.298     c0-0.099-0.058-0.149-0.174-0.149h-0.696c-0.133,0-0.223,0.021-0.274,0.062c-0.05,0.042-0.099,0.133-0.149,0.274L9.765,9.85     l-1.74-4.823c-0.05-0.141-0.099-0.232-0.149-0.274c-0.05-0.041-0.141-0.062-0.274-0.062H6.856c-0.116,0-0.174,0.05-0.174,0.149     c0,0.058,0.029,0.157,0.087,0.298l2.399,5.917L8.932,11.69c-0.141,0.398-0.298,0.672-0.472,0.821s-0.419,0.223-0.733,0.223     c-0.141,0-0.253-0.009-0.335-0.025c-0.083-0.016-0.145-0.025-0.187-0.025c-0.124,0-0.187,0.079-0.187,0.236v0.323     c0,0.116,0.021,0.201,0.062,0.255c0.041,0.054,0.107,0.094,0.199,0.118c0.207,0.057,0.443,0.087,0.708,0.087     c0.472,0,0.856-0.124,1.15-0.373C9.433,13.082,9.692,12.672,9.915,12.1"/>
			<path id="Shape_00000023242786070613970290000016543962940791428287_" style="fill-rule:evenodd;clip-rule:evenodd;" d="     M-0.295,6.402C-0.415,6-0.587,5.658-0.811,5.377c-0.223-0.281-0.497-0.497-0.82-0.647c-0.323-0.149-0.683-0.223-1.082-0.223     c-0.373,0-0.738,0.07-1.094,0.211c-0.356,0.141-0.692,0.348-1.007,0.622l-0.062-0.398C-4.9,4.775-4.996,4.692-5.162,4.692h-0.547     c-0.165,0-0.248,0.083-0.248,0.248v8.366c0,0.166,0.083,0.248,0.248,0.248h0.733c0.166,0,0.248-0.083,0.248-0.248v-2.909     c0.539,0.489,1.181,0.733,1.927,0.733c0.406,0,0.775-0.081,1.106-0.242c0.331-0.162,0.613-0.388,0.845-0.678     c0.232-0.29,0.413-0.642,0.541-1.057c0.129-0.414,0.193-0.879,0.193-1.392C-0.114,7.258-0.175,6.804-0.295,6.402z M-3.085,10.137     c-0.564,0-1.111-0.198-1.641-0.597V6.072c0.522-0.381,1.077-0.572,1.666-0.572c1.127,0,1.691,0.775,1.691,2.324     C-1.37,9.367-1.942,10.137-3.085,10.137z"/>
			<path id="Shape_00000158020768535761552620000002596221378505328022_" style="fill-rule:evenodd;clip-rule:evenodd;" d="     M5.311,4.995C4.938,4.672,4.358,4.51,3.571,4.51c-0.389,0-0.779,0.036-1.168,0.105c-0.39,0.071-0.717,0.164-0.982,0.28     C1.321,4.937,1.254,4.98,1.221,5.026c-0.033,0.046-0.05,0.127-0.05,0.242v0.335c0,0.149,0.054,0.224,0.162,0.224     c0.033,0,0.069-0.006,0.106-0.019s0.069-0.022,0.093-0.031c0.639-0.19,1.247-0.286,1.828-0.286c0.497,0,0.845,0.091,1.044,0.274     C4.602,5.948,4.702,6.262,4.702,6.71v0.82c-0.58-0.141-1.102-0.211-1.567-0.211c-0.729,0-1.309,0.18-1.74,0.541     C0.964,8.22,0.748,8.703,0.748,9.307c0,0.564,0.174,1.013,0.522,1.349c0.348,0.336,0.82,0.503,1.417,0.503     c0.356,0,0.715-0.071,1.075-0.211c0.361-0.14,0.69-0.34,0.988-0.597l0.062,0.41c0.025,0.157,0.116,0.236,0.274,0.236h0.534     c0.165,0,0.249-0.083,0.249-0.248v-4.25C5.87,5.819,5.683,5.318,5.311,4.995z M4.702,9.595c-0.273,0.207-0.559,0.365-0.858,0.472     c-0.298,0.108-0.584,0.162-0.858,0.162c-0.323,0-0.572-0.085-0.746-0.255C2.066,9.804,1.98,9.562,1.98,9.247     c0-0.721,0.468-1.082,1.404-1.082c0.215,0,0.437,0.015,0.665,0.044c0.228,0.029,0.446,0.069,0.653,0.118V9.595z"/>
		</g>
	</g>
</g>















</svg>
