<svg id="Layer_1" height="512" viewBox="0 0 24 24" width="512" xmlns="http://www.w3.org/2000/svg" data-name="Layer 1"><path d="m24 3.941a3.89 3.89 0 0 0 -1.149-2.8 3.941 3.941 0 0 0 -5.516-.034l-10.171 9.926a5.964 5.964 0 0 0 -4.4 1.737c-1.617 1.619-2.518 5.772-2.729 7.237a3.507 3.507 0 0 0 3.465 4.008 3.561 3.561 0 0 0 .513-.037c1.463-.21 5.615-1.11 7.235-2.73a5.96 5.96 0 0 0 1.691-4.881l9.88-9.641a3.894 3.894 0 0 0 1.181-2.785zm-14.877 15.186c-.652.651-3.346 1.566-5.541 1.882a.505.505 0 0 1 -.577-.576c.316-2.2 1.231-4.89 1.882-5.542a3 3 0 0 1 4.236 0 2.964 2.964 0 0 1 .728 1.234 1.435 1.435 0 0 0 .1.356 2.994 2.994 0 0 1 -.828 2.646zm11.6-14.549-9 8.779a5.878 5.878 0 0 0 -.479-.587 5.987 5.987 0 0 0 -.851-.7l9.037-8.814a.928.928 0 0 1 1.3.008.922.922 0 0 1 -.008 1.314z"/></svg>