<svg id="Layer_1" height="512" viewBox="0 0 24 24" width="512" xmlns="http://www.w3.org/2000/svg" data-name="Layer 1"><path d="m8.5 0h-4a4.505 4.505 0 0 0 -4.5 4.5v1a4.505 4.505 0 0 0 4.5 4.5h.5v1h-.5a1.5 1.5 0 0 0 0 3h4a1.5 1.5 0 0 0 0-3h-.5v-1h.5a4.505 4.505 0 0 0 4.5-4.5v-1a4.505 4.505 0 0 0 -4.5-4.5zm1.5 5.5a1.5 1.5 0 0 1 -1.5 1.5h-4a1.5 1.5 0 0 1 -1.5-1.5v-1a1.5 1.5 0 0 1 1.5-1.5h4a1.5 1.5 0 0 1 1.5 1.5zm5-1a1.5 1.5 0 0 1 1.5-1.5h1a3.5 3.5 0 0 1 3.5 3.5v1a1.5 1.5 0 0 1 -3 0v-1a.5.5 0 0 0 -.5-.5h-1a1.5 1.5 0 0 1 -1.5-1.5zm-2 16a1.5 1.5 0 0 1 -1.5 1.5h-3a3.5 3.5 0 0 1 -3.5-3.5v-1a1.5 1.5 0 0 1 3 0v1a.5.5 0 0 0 .5.5h3a1.5 1.5 0 0 1 1.5 1.5zm8-9.5h-3a3 3 0 0 0 -3 3v7a3 3 0 0 0 3 3h3a3 3 0 0 0 3-3v-7a3 3 0 0 0 -3-3zm-1.5 11a1.5 1.5 0 1 1 1.5-1.5 1.5 1.5 0 0 1 -1.5 1.5z"/></svg>