<?xml version="1.0" encoding="UTF-8"?>
<svg xmlns="http://www.w3.org/2000/svg" id="Layer_1" data-name="Layer 1" viewBox="0 0 24 24" width="512" height="512"><path d="M12,15a21.923,21.923,0,0,0,6.007-1c-.615,2.28-2.664,5-6,5S6.615,16.28,6,14A21.841,21.841,0,0,0,12,15Zm-1-3c-.171-6.661-5.833-6.646-6,0C7.759,9.393,8.254,9.41,11,12Zm5-5c-2.267,0-3,3.369-3,5,2.759-2.607,3.254-2.59,6,0C19,10.369,18.267,7,16,7Zm8,5A12.013,12.013,0,0,1,12,24C-3.9,23.4-3.893.6,12,0A12.013,12.013,0,0,1,24,12Zm-3,0a9.011,9.011,0,0,0-9-9C.077,3.453.08,20.549,12,21A9.011,9.011,0,0,0,21,12Z"/></svg>
