<?xml version="1.0" encoding="UTF-8"?>
<svg xmlns="http://www.w3.org/2000/svg" id="Bold" viewBox="0 0 24 24" width="512" height="512"><path d="M20.79,4.256a1.5,1.5,0,0,0-2.121,2.121,7.952,7.952,0,0,1,0,11.246,1.5,1.5,0,0,0,2.121,2.121,10.951,10.951,0,0,0,0-15.488Z"/><path d="M18.652,12a4.354,4.354,0,0,0-3.243-4.2V1.68A1.5,1.5,0,0,0,13.638.205,12.055,12.055,0,0,0,6.252,4.772H5.5a5.506,5.506,0,0,0-5.5,5.5v3.456a5.506,5.506,0,0,0,5.5,5.5h.754A12.055,12.055,0,0,0,13.638,23.8a1.462,1.462,0,0,0,.271.025,1.5,1.5,0,0,0,1.5-1.5V16.2A4.354,4.354,0,0,0,18.652,12Zm-6.243,8.322a9.088,9.088,0,0,1-4.124-3.415,1.5,1.5,0,0,0-1.256-.679H5.5a2.5,2.5,0,0,1-2.5-2.5V10.272a2.5,2.5,0,0,1,2.5-2.5H7.029a1.5,1.5,0,0,0,1.256-.679,9.088,9.088,0,0,1,4.124-3.415Z"/></svg>
