<?xml version="1.0" encoding="UTF-8"?>
<svg xmlns="http://www.w3.org/2000/svg" id="Layer_1" data-name="Layer 1" viewBox="0 0 24 24" width="512" height="512"><path d="M9.167,17.662a21.9,21.9,0,0,0,4.95-3.536,21.962,21.962,0,0,0,3.54-4.954c1.178,2.047,1.649,5.416-.707,7.778S11.214,18.839,9.167,17.662Zm1.456-8.285c1.6,1.6,4.5-.26,5.657-1.414,0,0-2.829,0-3.536-.707s-.707-3.536-.707-3.536C10.883,4.874,9.02,7.774,10.623,9.377ZM9.377,10.623c-1.6-1.6-4.5.26-5.657,1.414,3.794.107,4.133.47,4.243,4.243C9.117,15.126,10.98,12.225,9.377,10.623ZM22,10a2,2,0,0,0,0-4C20.9,6,17.54,8,17.54,8S20.9,10,22,10ZM6,22a2,2,0,0,0,4,0c0-1.105-2-4.46-2-4.46S6,20.9,6,22ZM12,3A8.959,8.959,0,0,1,18.093,5.4,14.818,14.818,0,0,1,21.055,4.15,11.965,11.965,0,0,0,12,0C.952-.057-4.177,14,4.15,21.055A14.818,14.818,0,0,1,5.4,18.093C.08,12.554,4.252,2.893,12,3Zm10,9a4.028,4.028,0,0,1-1.008-.166,8.99,8.99,0,0,1-9.158,9.158,3.691,3.691,0,0,1-.376,2.981A11.977,11.977,0,0,0,23.973,11.458,3.953,3.953,0,0,1,22,12Z"/></svg>
