<?xml version="1.0" encoding="UTF-8"?>
<!-- Generator: Adobe Illustrator 26.0.1, SVG Export Plug-In . SVG Version: 6.00 Build 0)  -->
<svg xmlns="http://www.w3.org/2000/svg" xmlns:xlink="http://www.w3.org/1999/xlink" version="1.1" id="Capa_1" x="0px" y="0px" viewBox="0 0 24 24" style="enable-background:new 0 0 24 24;" xml:space="preserve" width="512" height="512">
<g id="XMLID_1_">
	<g id="XMLID_2_">
		<g id="XMLID_3_">
			<path id="XMLID_8_" d="M13.731,7.508c-0.476,0.249-0.653,0.67-0.653,1.832c0,0,0.241-0.233,0.598-0.362     c0.26-0.094,0.483-0.238,0.611-0.332c0.402-0.294,0.464-0.674,0.464-1.312C14.752,7.335,14.096,7.317,13.731,7.508z"/>
			<path id="XMLID_7_" d="M10.91,7.781c-0.388,0.342-0.501,0.887-0.501,0.887l-1.284,4.975L8.057,9.571     c-0.104-0.433-0.292-0.968-0.588-1.33c-0.378-0.461-1.146-0.49-1.228-0.49c-0.082,0-0.85,0.029-1.228,0.49     c-0.297,0.362-0.484,0.897-0.588,1.33l-1.068,4.072L2.073,8.668c0,0-0.113-0.545-0.501-0.887C0.943,7.226,0,7.345,0,7.345     l2.459,9.297c0,0,0.811,0.058,1.217-0.149c0.533-0.272,0.787-0.481,1.11-1.746c0.288-1.128,1.092-4.44,1.167-4.676     C5.99,9.954,6.037,9.676,6.241,9.676c0.209,0,0.252,0.278,0.289,0.395c0.074,0.236,0.879,3.548,1.167,4.676     c0.323,1.265,0.576,1.475,1.11,1.746c0.406,0.207,1.217,0.149,1.217,0.149l2.459-9.297C12.482,7.345,11.539,7.226,10.91,7.781z"/>
			<path id="XMLID_6_" d="M14.751,8.863c0,0-0.154,0.238-0.505,0.434c-0.225,0.126-0.442,0.211-0.674,0.323     c-0.389,0.187-0.494,0.394-0.494,0.711v6.311c0,0,0.62,0.078,1.026-0.128c0.522-0.266,0.642-0.523,0.647-1.679L14.751,8.863z"/>
			<path id="XMLID_5_" d="M20.88,12.016L24,7.376c0,0-1.317-0.224-1.969,0.369c-0.417,0.38-0.884,1.063-0.884,1.063L20,10.463     c-0.056,0.086-0.129,0.18-0.245,0.18s-0.189-0.094-0.245-0.18l-1.148-1.655c0,0-0.467-0.683-0.884-1.063     c-0.652-0.594-1.969-0.369-1.969-0.369l3.12,4.64l-3.112,4.626c0,0,1.371,0.173,2.023-0.42c0.417-0.38,0.821-0.997,0.821-0.997     l1.148-1.655c0.056-0.086,0.129-0.18,0.245-0.18s0.189,0.094,0.245,0.18l1.148,1.655c0,0,0.428,0.617,0.845,0.997     c0.652,0.593,1.999,0.42,1.999,0.42L20.88,12.016z"/>
		</g>
	</g>
</g>















</svg>
