<?xml version="1.0" encoding="UTF-8"?>
<!-- Generator: Adobe Illustrator 26.0.1, SVG Export Plug-In . SVG Version: 6.00 Build 0)  -->
<svg xmlns="http://www.w3.org/2000/svg" xmlns:xlink="http://www.w3.org/1999/xlink" version="1.1" id="Capa_1" x="0px" y="0px" viewBox="0 0 24 24" style="enable-background:new 0 0 24 24;" xml:space="preserve" width="512" height="512">
<g>
	<path d="M3.646,4.745c-0.208,0-0.377,0.077-0.465,0.22c-0.091,0.148-0.097,0.321,0,0.514l2.348,4.06   c0.004,0.008,0.004,0.017,0,0.024l-3.668,6.481c-0.096,0.191-0.091,0.39,0,0.538c0.088,0.142,0.232,0.245,0.44,0.245h3.473   c0.518,0,0.752-0.365,0.929-0.685c0,0,3.602-6.356,3.742-6.603C10.431,9.515,8.072,5.38,8.072,5.38   C7.9,5.074,7.625,4.745,7.094,4.745H3.646z"/>
	<path d="M18.186,0c-0.517,0-0.741,0.326-0.927,0.659c0,0-7.457,13.224-7.702,13.658c0.012,0.024,4.918,9.023,4.918,9.023   C14.647,23.648,14.912,24,15.442,24H18.9c0.208,0,0.371-0.079,0.459-0.221c0.092-0.148,0.09-0.343-0.007-0.535l-4.88-8.915   c-0.004-0.007-0.004-0.016,0-0.023l7.664-13.551c0.096-0.191,0.098-0.386,0.007-0.534C22.055,0.079,21.891,0,21.683,0L18.186,0   L18.186,0z"/>
</g>















</svg>
