<?xml version="1.0" encoding="UTF-8"?>
<svg xmlns="http://www.w3.org/2000/svg" id="Layer_1" data-name="Layer 1" viewBox="0 0 24 24" width="512" height="512"><path d="M2.123,24l6.444-6.444,4.9,4.9,1.06-1.061a8.509,8.509,0,0,0,2.185-8.17l3.343-3.354.493.494a2.049,2.049,0,0,0,2.621.292,1.992,1.992,0,0,0,.254-3.026L16.455.641A2.049,2.049,0,0,0,13.834.349a1.992,1.992,0,0,0-.254,3.026l.559.56L10.789,7.3l-.064-.02a8.485,8.485,0,0,0-8.114,2.2L1.55,10.537l4.9,4.9L0,21.877ZM9.884,10.153l1.733.561,4.64-4.654,1.677,1.681L13.3,12.391l.525,1.642a5.479,5.479,0,0,1-.51,4.024L5.942,10.686A5.388,5.388,0,0,1,9.884,10.153Z"/></svg>
