<?xml version="1.0" encoding="UTF-8"?>
<svg xmlns="http://www.w3.org/2000/svg" id="Bold" viewBox="0 0 24 24" width="512" height="512"><path d="M22.983,8.9h0a15.3,15.3,0,0,0-2.739-3.026l2.817-2.816A1.5,1.5,0,0,0,20.939.939L17.693,4.186A12.538,12.538,0,0,0,12,2.864,13.241,13.241,0,0,0,1.017,8.9a5.508,5.508,0,0,0,0,6.194,15.3,15.3,0,0,0,2.739,3.026L.939,20.939a1.5,1.5,0,0,0,2.122,2.122l3.246-3.247A12.538,12.538,0,0,0,12,21.136,13.241,13.241,0,0,0,22.983,15.1,5.508,5.508,0,0,0,22.983,8.9ZM3.491,13.4a2.485,2.485,0,0,1,0-2.8A10.147,10.147,0,0,1,12,5.864a9.755,9.755,0,0,1,3.416.6L13.562,8.317a4,4,0,0,0-5.245,5.245L5.88,16A12.088,12.088,0,0,1,3.491,13.4Zm17.018,0A10.147,10.147,0,0,1,12,18.136a9.755,9.755,0,0,1-3.416-.6l1.854-1.854a4,4,0,0,0,5.245-5.245L18.12,8a12.088,12.088,0,0,1,2.389,2.6A2.485,2.485,0,0,1,20.509,13.4Z"/></svg>
