<?xml version="1.0" encoding="UTF-8"?>
<!-- Generator: Adobe Illustrator 26.0.1, SVG Export Plug-In . SVG Version: 6.00 Build 0)  -->
<svg xmlns="http://www.w3.org/2000/svg" xmlns:xlink="http://www.w3.org/1999/xlink" version="1.1" id="Capa_1" x="0px" y="0px" viewBox="0 0 24 24" style="enable-background:new 0 0 24 24;" xml:space="preserve" width="512" height="512">
<g>
	<path d="M9.579,9.573C9.579,8.625,8.845,8.4,8.03,8.4H5.909v2.4h2.287C9.005,10.8,9.579,10.446,9.579,9.573z"/>
	<path d="M16.666,10.816c-0.98,0-1.634,0.611-1.698,1.591H18.3C18.209,11.416,17.695,10.816,16.666,10.816z"/>
	<path d="M8.368,12.509H5.904v2.834H8.32c0.922,0,1.672-0.327,1.672-1.361C9.991,12.927,9.364,12.514,8.368,12.509z"/>
	<path d="M19.75,0.3H4.25C1.9,0.3,0,2.2,0,4.55V19.45C0,21.8,1.9,23.7,4.25,23.7h15.5c2.35,0,4.25-1.9,4.25-4.25V4.55   C24,2.2,22.1,0.3,19.75,0.3z M14.555,7.184h4.168v1.012h-4.168V7.184z M8.63,17.1H3.643V6.814h4.848   c1.763,0,3.289,0.498,3.289,2.544c0,1.034-0.482,1.543-1.404,1.982c1.264,0.359,1.875,1.474,1.875,2.765   C12.252,16.195,10.5,17.089,8.63,17.1z M20.341,13.698h-5.368c0,1.189,0.627,1.891,1.827,1.891c0.621,0,1.42-0.332,1.618-0.97   h1.805c-0.557,1.709-1.709,2.507-3.487,2.507c-2.346,0-3.809-1.591-3.809-3.911c0-2.239,1.538-3.942,3.809-3.942   c2.33,0,3.621,1.837,3.621,4.039C20.357,13.441,20.346,13.575,20.341,13.698z"/>
</g>















</svg>
