<?xml version="1.0" encoding="UTF-8"?>
<!-- Generator: Adobe Illustrator 26.0.1, SVG Export Plug-In . SVG Version: 6.00 Build 0)  -->
<svg xmlns="http://www.w3.org/2000/svg" xmlns:xlink="http://www.w3.org/1999/xlink" version="1.1" id="Capa_1" x="0px" y="0px" viewBox="0 0 24 24" style="enable-background:new 0 0 24 24;" xml:space="preserve" width="512" height="512">
<g>
	<path d="M21.656,0H2.344C1.05,0,0,1.05,0,2.344v19.312C0,22.95,1.05,24,2.344,24h19.312C22.95,24,24,22.95,24,21.656V2.344   C24,1.05,22.95,0,21.656,0z M13.922,13.316h-3.01v8.574H8.527v-8.574H5.531v-1.926h8.391V13.316z M21.698,20.37   c-0.467,0.835-1.325,1.305-2.238,1.5c-1.06,0.226-2.187,0.214-3.25,0.015c-0.521-0.098-0.972-0.244-1.353-0.44v-2.347   c0.426,0.357,0.888,0.625,1.387,0.803c0.499,0.179,1.003,0.268,1.511,0.268c0.45,0,0.951-0.056,1.339-0.304   c0.266-0.17,0.444-0.438,0.444-0.759c0-0.437-0.316-0.767-0.657-0.997c-0.499-0.336-1.072-0.555-1.625-0.785   c-0.822-0.342-1.434-0.76-1.838-1.254c-0.702-0.859-0.817-2.231-0.275-3.201c0.463-0.828,1.316-1.316,2.216-1.533   c0.981-0.236,2.046-0.236,3.041-0.081c0.423,0.066,0.813,0.167,1.17,0.304v2.193c-0.176-0.122-0.368-0.23-0.576-0.322   c-0.41-0.183-0.853-0.307-1.298-0.367c-0.445-0.06-0.914-0.07-1.353,0.033c-0.346,0.08-0.71,0.241-0.91,0.55   c-0.083,0.13-0.125,0.275-0.125,0.436c0,0.176,0.046,0.334,0.139,0.473c0.235,0.353,0.649,0.58,1.02,0.763   c0.652,0.32,1.336,0.56,1.962,0.931c0.608,0.359,1.148,0.859,1.412,1.525c0.127,0.32,0.191,0.693,0.191,1.118   C22.031,19.479,21.92,19.972,21.698,20.37z"/>
</g>















</svg>
