<?xml version="1.0" encoding="UTF-8"?>
<!-- Generator: Adobe Illustrator 26.0.1, SVG Export Plug-In . SVG Version: 6.00 Build 0)  -->
<svg xmlns="http://www.w3.org/2000/svg" xmlns:xlink="http://www.w3.org/1999/xlink" version="1.1" id="Capa_1" x="0px" y="0px" viewBox="0 0 24 24" style="enable-background:new 0 0 24 24;" xml:space="preserve" width="512" height="512">
<g transform="translate(-289.60744,-341.50536)">
	<g transform="matrix(0.61129216,0,0,0.61129216,170.80346,315.53734)">
		<path d="M217.71,66.215c-0.666,2.675-5.168,1.229-6.628,0.866l1.182-4.741C213.724,62.704,218.406,63.426,217.71,66.215z"/>
		<path d="M218.376,59.276c-0.607,2.432-4.355,1.196-5.571,0.893l1.072-4.3C215.094,56.172,219.009,56.738,218.376,59.276z"/>
		<path d="M218.725,43.068c-10.514-2.622-21.166,3.779-23.786,14.296c-2.623,10.515,3.777,21.167,14.29,23.79    c10.517,2.623,21.169-3.778,23.79-14.294C235.642,56.343,229.242,45.69,218.725,43.068z M209.939,55.724    c0.027-0.458-0.131-1.035-1.004-1.253c0.034-0.022-1.564-0.389-1.564-0.389l0.574-2.3l2.97,0.742l-0.002,0.012    c0.446,0.11,0.906,0.216,1.376,0.323l0.883-3.537l2.152,0.537l-0.865,3.468c0.577,0.132,1.159,0.265,1.725,0.406l0.859-3.445    l2.154,0.537l-0.882,3.538c2.719,0.937,4.708,2.341,4.317,4.953c-0.283,1.912-1.343,2.838-2.75,3.162    c1.932,1.006,2.915,2.549,1.978,5.224c-1.162,3.322-3.924,3.602-7.597,2.907l-0.891,3.572l-2.154-0.537l0.88-3.523    c-0.558-0.139-1.129-0.286-1.716-0.446l-0.883,3.54l-2.152-0.537l0.892-3.579c-0.503-0.129-1.014-0.265-1.536-0.396l-2.803-0.699    l1.069-2.465c0,0,1.587,0.422,1.566,0.391c0.61,0.15,0.88-0.247,0.987-0.512L209.939,55.724z"/>
	</g>
</g>















</svg>
