<?xml version="1.0" encoding="UTF-8"?>
<svg xmlns="http://www.w3.org/2000/svg" id="Layer_1" data-name="Layer 1" viewBox="0 0 24 24" width="512" height="512"><path d="M16.3,15.007a1.5,1.5,0,0,0,2.121,0l4.726-4.725a2.934,2.934,0,0,0,0-4.145L18.416,1.412A1.5,1.5,0,1,0,16.3,3.533L19.532,6.7,5.319,6.7A5.326,5.326,0,0,0,0,12.019V18.7a5.324,5.324,0,0,0,5.318,5.318H18.682a1.5,1.5,0,0,0,0-3H5.318A2.321,2.321,0,0,1,3,18.7V12.019A2.321,2.321,0,0,1,5.319,9.7l14.159,0L16.3,12.886A1.5,1.5,0,0,0,16.3,15.007Z"/></svg>
