<?xml version="1.0" encoding="UTF-8"?>
<svg xmlns="http://www.w3.org/2000/svg" id="Layer_1" data-name="Layer 1" viewBox="0 0 24 24" width="512" height="512"><rect y="10.5" width="7" height="3"/><path d="M18.5,13.5H10v-3h8.5c2.8.046,3.582-4.295.5-4.5a2,2,0,0,0-2,2H14a5.006,5.006,0,0,1,5-5C26.069,3.346,25.283,13.406,18.5,13.5Z"/><path d="M8.4,9H0V6H8.4A1.5,1.5,0,1,0,6.9,4.5h-3a4.5,4.5,0,0,1,9,0A4.505,4.505,0,0,1,8.4,9Z"/><path d="M15.7,24a4.505,4.505,0,0,1-4.5-4.5h3A1.5,1.5,0,1,0,15.7,18H0V15H15.7A4.5,4.5,0,0,1,15.7,24Z"/></svg>
