<?xml version="1.0" encoding="UTF-8"?>
<svg xmlns="http://www.w3.org/2000/svg" id="Isolation_Mode" data-name="Isolation Mode" viewBox="0 0 24 24" width="512" height="512"><path d="M12,7.637A4.363,4.363,0,1,0,16.363,12,4.368,4.368,0,0,0,12,7.637Zm0,5.726A1.363,1.363,0,1,1,13.363,12,1.364,1.364,0,0,1,12,13.363Z"/><path d="M22,12a9.921,9.921,0,0,0-.7-3.636L23.145,7.3l-1.5-2.6L19.806,5.766A9.994,9.994,0,0,0,13.5,2.125V0h-3V2.125A9.991,9.991,0,0,0,4.2,5.762L2.358,4.7.858,7.3,2.7,8.359a9.865,9.865,0,0,0,0,7.277L.855,16.7l1.5,2.6,1.839-1.061A9.994,9.994,0,0,0,10.5,21.875V24h3V21.875a9.991,9.991,0,0,0,6.3-3.637l1.84,1.063,1.5-2.6L21.3,15.641A9.948,9.948,0,0,0,22,12ZM12,19a7,7,0,1,1,7-7A7.009,7.009,0,0,1,12,19Z"/></svg>
