<?xml version="1.0" encoding="UTF-8"?>
<svg xmlns="http://www.w3.org/2000/svg" id="Layer_1" data-name="Layer 1" viewBox="0 0 24 24" width="512" height="512"><path d="M23.145,11.7a4.218,4.218,0,0,0-2.036-1.473,19.929,19.929,0,0,0,.86-3.465,3.306,3.306,0,0,0-3.732-3.728c-.173.024-.841.123-1.707.324L16.5,2.744C16.4.1,13.213-.956,11,1.092,8.154-1.492,4.366.936,5.815,4.267a5.5,5.5,0,0,0-3.7,6.311A4.255,4.255,0,0,0,.174,15.467a14.1,14.1,0,0,0,3.547,6.04A8.763,8.763,0,0,0,9.878,24h4.244a8.763,8.763,0,0,0,6.157-2.493,14.11,14.11,0,0,0,3.548-6.04A4.249,4.249,0,0,0,23.145,11.7ZM18.647,6a.3.3,0,0,1,.262.085.308.308,0,0,1,.087.27,17.508,17.508,0,0,1-.912,3.44,1.471,1.471,0,0,0-.054.2H13.056a2.5,2.5,0,0,1,.679-2.289C14.405,7.042,16.563,6.291,18.647,6ZM7.5,7a2.491,2.491,0,0,1,2.437,3H5.063A2.491,2.491,0,0,1,7.5,7Zm13.447,7.626a11.247,11.247,0,0,1-2.785,4.756A5.744,5.744,0,0,1,14.122,21H9.878a5.741,5.741,0,0,1-4.04-1.619,11.228,11.228,0,0,1-2.784-4.754,1.268,1.268,0,0,1,.2-1.129,1.222,1.222,0,0,1,1-.5h15.5a1.222,1.222,0,0,1,1,.5A1.27,1.27,0,0,1,20.947,14.626Z"/></svg>
