<?xml version="1.0" encoding="UTF-8"?>
<svg xmlns="http://www.w3.org/2000/svg" id="Layer_1" data-name="Layer 1" viewBox="0 0 24 24" width="512" height="512"><path d="M20.17,2,14.9.243a5.523,5.523,0,0,0-6.864,3.62L8,4H5.5A5.506,5.506,0,0,0,0,9.5v9A5.506,5.506,0,0,0,5.5,24h5a5.493,5.493,0,0,0,4.268-2.037,5.456,5.456,0,0,0,5.945-3.857L23.8,8.8A5.513,5.513,0,0,0,20.17,2ZM13,18.5A2.5,2.5,0,0,1,10.5,21h-5A2.5,2.5,0,0,1,3,18.5v-9A2.5,2.5,0,0,1,5.5,7h5A2.5,2.5,0,0,1,13,9.5ZM20.936,7.9,17.85,17.211a2.491,2.491,0,0,1-1.872,1.733c.011-.147.022-.294.022-.444v-9a5.5,5.5,0,0,0-4.74-5.441A2.483,2.483,0,0,1,13.987,3.1l5.268,1.757A2.5,2.5,0,0,1,20.936,7.9ZM12,13c0,1.45-1.544,3.391-2.714,4.378a1.991,1.991,0,0,1-2.572,0C5.544,16.391,4,14.45,4,13a2,2,0,0,1,4,0,2,2,0,0,1,4,0Z"/></svg>
