<svg id="Layer_1" height="512" viewBox="0 0 24 24" width="512" xmlns="http://www.w3.org/2000/svg" data-name="Layer 1"><path d="m18.5 0h-8a5.507 5.507 0 0 0 -5.5 5.5v4.525a5.507 5.507 0 0 0 -5 5.475v3a5.507 5.507 0 0 0 5.5 5.5h3a5.507 5.507 0 0 0 5.475-5h4.525a5.507 5.507 0 0 0 5.5-5.5v-8a5.507 5.507 0 0 0 -5.5-5.5zm-10 21h-3a2.5 2.5 0 0 1 -2.5-2.5v-3a2.5 2.5 0 0 1 2-2.449v.449a5.507 5.507 0 0 0 5.5 5.5h.449a2.5 2.5 0 0 1 -2.449 2zm12.5-7.5a2.5 2.5 0 0 1 -2.5 2.5h-4.5v-.5a5.456 5.456 0 0 0 -.7-2.678l2.7-2.7v1.378a1.5 1.5 0 0 0 3 0v-3a3.5 3.5 0 0 0 -3.5-3.5h-3a1.5 1.5 0 0 0 0 3h1.379l-2.7 2.7a5.456 5.456 0 0 0 -2.679-.7h-.5v-4.5a2.5 2.5 0 0 1 2.5-2.5h8a2.5 2.5 0 0 1 2.5 2.5z"/></svg>