<svg id="Layer_1" height="512" viewBox="0 0 24 24" width="512" xmlns="http://www.w3.org/2000/svg" data-name="Layer 1"><path d="m11.273 24a3.477 3.477 0 0 1 -2.473-1.025l-2.587-2.586 2.121-2.121 2.586 2.586a.5.5 0 0 0 .706 0l5.114-5.114 2.121 2.121-5.113 5.114a3.477 3.477 0 0 1 -2.475 1.025zm-9.388-3.525 2.129-2.129a2.753 2.753 0 0 1 -1.014-2.121 3.025 3.025 0 0 1 2.218-2.792l2.165-.557-1.335-1.792a5.083 5.083 0 0 1 -1.018-3.054 4.935 4.935 0 0 1 5.061-5.03 5.18 5.18 0 0 1 5.129 4.465l.153 1.135 1.137.15a5.171 5.171 0 0 1 4.49 5.1 5.059 5.059 0 0 1 -.288 1.619l2.288 2.285a8.066 8.066 0 0 0 1-3.9 8.178 8.178 0 0 0 -6.024-7.854 8.2 8.2 0 0 0 -7.885-6 7.96 7.96 0 0 0 -8.061 8.03 8.045 8.045 0 0 0 .69 3.27 5.953 5.953 0 0 0 -2.72 4.925 5.748 5.748 0 0 0 1.885 4.25z"/></svg>