<?xml version="1.0" encoding="UTF-8"?>
<svg xmlns="http://www.w3.org/2000/svg" id="Layer_1" data-name="Layer 1" viewBox="0 0 24 24" width="512" height="512"><path d="M21.49,2.509a8.575,8.575,0,0,0-12.115,0C7.137,4.748,6.312,9.542,6.015,13.168a4.456,4.456,0,0,0,.432,2.264l-3.1,3.1A2,2,0,1,0,2,22a2,2,0,1,0,3.469-1.348L8.561,17.56a4.419,4.419,0,0,0,2.27.425c3.628-.3,8.422-1.122,10.659-3.36A8.606,8.606,0,0,0,21.49,2.509ZM19.369,12.5c-1.208,1.207-4.491,2.139-8.784,2.491a1.457,1.457,0,0,1-1.58-1.581C9.357,9.122,10.289,5.838,11.5,4.63A5.567,5.567,0,0,1,19.369,12.5Z"/></svg>
