<?xml version="1.0" encoding="UTF-8"?>
<svg xmlns="http://www.w3.org/2000/svg" id="Layer_1" data-name="Layer 1" viewBox="0 0 24 24" width="512" height="512"><path d="M10,2a2,2,0,0,1,4,0A2,2,0,0,1,10,2ZM21.247,13.175a6.823,6.823,0,0,1,1.464,6.679,4.377,4.377,0,0,1-2.5,2.807,4.281,4.281,0,0,1-3.67-.145A17.192,17.192,0,0,1,13.5,20.491v1.057a1.5,1.5,0,0,1-3,0V20.525A17.218,17.218,0,0,1,7.51,22.51a4.278,4.278,0,0,1-3.669.145,4.378,4.378,0,0,1-2.5-2.8,6.746,6.746,0,0,1,1.485-6.616c-.169-.141-.334-.287-.493-.443A7.552,7.552,0,0,1,0,7.5C0,1.313,3.749,1,4.5,1,7.391,1,9.873,3.841,12,6.756,14.129,3.842,16.609,1,19.5,1c.752,0,4.5.313,4.5,6.5a7.549,7.549,0,0,1-2.326,5.29C21.539,12.924,21.393,13.05,21.247,13.175ZM10.5,14.513A9.752,9.752,0,0,1,7.52,15a6.837,6.837,0,0,1-1.932-.281A3.861,3.861,0,0,0,4.214,19a1.393,1.393,0,0,0,.8.892,1.279,1.279,0,0,0,1.1-.039c2.558-1.341,4.148-3.086,4.384-4.162Zm0-4.7c-.113-.156-.236-.329-.371-.519C9.1,7.842,6.369,4,4.5,4,3.576,4,3,5.34,3,7.5a4.539,4.539,0,0,0,1.434,3.158A4.28,4.28,0,0,0,7.48,12a5.3,5.3,0,0,0,3.02-.8Zm9.548,7.879a3.773,3.773,0,0,0-1.542-2.968l-.017-.015a7.238,7.238,0,0,1-2.009.3,9.716,9.716,0,0,1-2.98-.488s0,1.045,0,1.111c.175,1.069,1.814,2.864,4.431,4.236a1.278,1.278,0,0,0,1.106.039,1.393,1.393,0,0,0,.8-.892A4.349,4.349,0,0,0,20.048,17.687ZM21,7.5c-.092-7.6-5.433-.722-7.124,1.787-.138.194-.264.371-.379.529V11.2a5.284,5.284,0,0,0,3.02.8,4.258,4.258,0,0,0,3.049-1.347A4.54,4.54,0,0,0,21,7.5Z"/></svg>
