<?xml version="1.0" encoding="UTF-8"?>
<svg xmlns="http://www.w3.org/2000/svg" id="Layer_1" data-name="Layer 1" viewBox="0 0 24 24" width="512" height="512"><path d="M20.469,1.146l-.031-.011L17.847.272a5.335,5.335,0,0,0-3.1-.081L9.44,1.734A2.312,2.312,0,0,1,7.859,1.6l-.5-.23A5.318,5.318,0,0,0,0,6.277V17.8a5.328,5.328,0,0,0,3.822,5.1l2.74.857A5.34,5.34,0,0,0,8.148,24a6.245,6.245,0,0,0,1.416-.192L15.1,22.28a2.3,2.3,0,0,1,1.249.01l2.259.651A4.363,4.363,0,0,0,24,18.7V6.154A5.328,5.328,0,0,0,20.469,1.146ZM14,3.534V19.47l-4,1.105V4.668ZM4.682,20.027A2.326,2.326,0,0,1,3,17.8V6.277A2.285,2.285,0,0,1,4.032,4.348a2.337,2.337,0,0,1,1.3-.4,2.145,2.145,0,0,1,.823.162L7,4.464V20.752ZM21,18.7a1.367,1.367,0,0,1-1.625,1.341L17,19.37V3.153l2.475.823A2.323,2.323,0,0,1,21,6.154Z"/></svg>
