<?xml version="1.0" encoding="UTF-8"?>
<!-- Generator: Adobe Illustrator 26.0.1, SVG Export Plug-In . SVG Version: 6.00 Build 0)  -->
<svg xmlns="http://www.w3.org/2000/svg" xmlns:xlink="http://www.w3.org/1999/xlink" version="1.1" id="Capa_1" x="0px" y="0px" viewBox="0 0 24 24" style="enable-background:new 0 0 24 24;" xml:space="preserve" width="512" height="512">
<g>
	<path d="M20.507,3.493C18.178,1.164,15.335,0,11.979,0c-3.3,0-6.114,1.164-8.443,3.493C1.179,5.893,0,8.729,0,12   c0,3.286,1.179,6.107,3.536,8.464C5.921,22.821,8.735,24,11.979,24c3.313,0,6.178-1.186,8.592-3.557C22.857,18.171,24,15.358,24,12   C24,8.643,22.835,5.808,20.507,3.493z M19.007,18.879c-1.986,1.957-4.315,2.936-6.986,2.936c-2.686,0-5-0.971-6.943-2.914   c-1.942-1.929-2.914-4.228-2.914-6.9c0-2.642,0.978-4.956,2.936-6.942c1.886-1.929,4.193-2.893,6.921-2.893   c2.728,0,5.043,0.964,6.943,2.893c1.914,1.886,2.871,4.2,2.871,6.942C21.835,14.757,20.892,17.05,19.007,18.879z"/>
	<path d="M16.907,8.571L16.907,8.571l-2.615,0.001V5.958c0-0.186-0.064-0.343-0.193-0.472c-0.129-0.129-0.287-0.193-0.472-0.193   h-6.6C6.857,5.322,6.714,5.397,6.6,5.518C6.485,5.639,6.428,5.785,6.428,5.957v8.828c0,0.186,0.064,0.344,0.193,0.472   c0.129,0.129,0.285,0.192,0.472,0.192h2.614v2.615c0,0.186,0.064,0.342,0.193,0.471c0.129,0.129,0.286,0.193,0.472,0.193h6.536   c0.185,0,0.343-0.065,0.471-0.193c0.129-0.128,0.193-0.285,0.193-0.471V9.235c0-0.186-0.064-0.343-0.193-0.472   C17.25,8.635,17.092,8.571,16.907,8.571z M10.285,8.571C10.129,8.6,9.993,8.676,9.879,8.796C9.764,8.918,9.707,9.064,9.707,9.235   v4.907H7.735V6.621h5.25v1.95H10.285z M16.264,17.4h-5.25V9.878h5.25V17.4z"/>
</g>















</svg>
