<?xml version="1.0" encoding="UTF-8"?>
<svg xmlns="http://www.w3.org/2000/svg" id="Layer_1" data-name="Layer 1" viewBox="0 0 24 24" width="512" height="512"><path d="M5.993,14a21.841,21.841,0,0,0,6,1A21.923,21.923,0,0,0,18,14c-.615,2.28-2.664,5-6,5S6.608,16.28,5.993,14ZM19.5,13.5s.43,3.174,1.188,3.932a1.94,1.94,0,0,0,2.744-2.744C22.674,13.93,19.5,13.5,19.5,13.5Zm-15,0s-3.174.43-3.932,1.188a1.94,1.94,0,0,0,2.744,2.744C4.07,16.674,4.5,13.5,4.5,13.5ZM3.014,11.718C3.742.173,20.262.182,20.986,11.718a11.129,11.129,0,0,1,2.981.941,11.986,11.986,0,1,0-23.934,0A11.129,11.129,0,0,1,3.014,11.718Zm15.669,6.289c-3.224,3.926-10.143,3.925-13.366,0a3.625,3.625,0,0,1-.591.839,3.905,3.905,0,0,1-1.778,1.008c4.448,5.464,13.661,5.461,18.106,0a3.886,3.886,0,0,1-1.781-1A3.623,3.623,0,0,1,18.683,18.007ZM8,7c-2.267,0-3,3.369-3,5,2.759-2.607,3.254-2.59,6,0C11,10.369,10.267,7,8,7Zm8,0c-2.267,0-3,3.369-3,5,2.759-2.607,3.254-2.59,6,0C19,10.369,18.267,7,16,7Z"/></svg>
