<?xml version="1.0" encoding="UTF-8"?>
<svg xmlns="http://www.w3.org/2000/svg" id="Layer_1" data-name="Layer 1" viewBox="0 0 24 24" width="512" height="512"><path d="M11.015,4h-3V0h3Zm5-4h-3V4h3Zm-10,0h-3V4h3ZM24.008,12.643A4.488,4.488,0,0,1,19.511,17H15.516a24.082,24.082,0,0,1-1.784,2h-8.3C5.261,18.843.866,14.691.048,9.723A3.157,3.157,0,0,1,.767,7.172,3.307,3.307,0,0,1,3.293,6L15.706,6a3.32,3.32,0,0,1,2.559,1.2A3.123,3.123,0,0,1,18.982,9h.529C22.242,9,24.008,10.43,24.008,12.643ZM16,9.209A.344.344,0,0,0,15.705,9L3.293,9a.331.331,0,0,0-.241.113.143.143,0,0,0-.045.123A14.168,14.168,0,0,0,6.647,16h5.809A15.442,15.442,0,0,0,16,9.209Zm5.012,3.434c0-.56-.939-.643-1.5-.643H18.319a16.938,16.938,0,0,1-.88,2h2.072A1.491,1.491,0,0,0,21.01,12.643ZM.015,24h19V21h-19Z"/></svg>
