<?xml version="1.0" encoding="UTF-8"?>
<svg xmlns="http://www.w3.org/2000/svg" id="Layer_1" data-name="Layer 1" viewBox="0 0 24 24" width="512" height="512"><path d="M22.5,21H5.5A2.5,2.5,0,0,1,3,18.5V1.5a1.5,1.5,0,0,0-3,0v17A5.506,5.506,0,0,0,5.5,24h17a1.5,1.5,0,0,0,0-3Z"/><path d="M9.5,9A1.5,1.5,0,0,0,8,10.5v7a1.5,1.5,0,0,0,3,0v-7A1.5,1.5,0,0,0,9.5,9Z"/><path d="M14,13.5v4a1.5,1.5,0,0,0,3,0v-4a1.5,1.5,0,0,0-3,0Z"/><path d="M20,9.5v8a1.5,1.5,0,0,0,3,0v-8a1.5,1.5,0,0,0-3,0Z"/><path d="M6,7.5a1.487,1.487,0,0,0,.936-.329L9.214,5.35a2.392,2.392,0,0,1,3.191.176,5.43,5.43,0,0,0,7.3.3l3.764-3.185A1.5,1.5,0,1,0,21.531.355L17.768,3.54A2.411,2.411,0,0,1,14.526,3.4a5.389,5.389,0,0,0-7.186-.4L5.063,4.829A1.5,1.5,0,0,0,6,7.5Z"/></svg>
