<?xml version="1.0" encoding="UTF-8"?>
<svg xmlns="http://www.w3.org/2000/svg" id="Layer_1" data-name="Layer 1" viewBox="0 0 24 24" width="512" height="512"><path d="M15.848,16.406,10.789,24H9.59L11,19H7.923a.923.923,0,0,1-.883-1.19L9.7,10H14l-1.964,5h3.057A.906.906,0,0,1,15.848,16.406ZM21,12.479v0h0Zm3,.021a8.045,8.045,0,0,1-7.321,7.966l-1.194.091,2.029-3.045a1.88,1.88,0,0,0,.163-.3l.445-.19A5.062,5.062,0,0,0,21,12.477h0A4.516,4.516,0,0,0,16.452,8L15.37,7.965l-.308-1.038A5.4,5.4,0,0,0,10.091,3,4.935,4.935,0,0,0,5,8a5.972,5.972,0,0,0,.246,2.025l.48,1.258-1.2.612A2.786,2.786,0,0,0,3,14.387a3.159,3.159,0,0,0,1.652,2.776l.451.2a3.364,3.364,0,0,0,.282,2.487,3.564,3.564,0,0,0,.731.892,14.089,14.089,0,0,1-1.383-.376A6.156,6.156,0,0,1,0,14.387v-.011A5.772,5.772,0,0,1,2.133,9.892,11.93,11.93,0,0,1,2,8a7.96,7.96,0,0,1,8.091-8,8.294,8.294,0,0,1,7.493,5.1A7.434,7.434,0,0,1,24,12.5ZM.005,14.387H0C0,14.4,0,14.405.005,14.387Zm2.994,0H3C3,14.405,3,14.4,3,14.387Z"/></svg>
