<?xml version="1.0" encoding="UTF-8"?>
<svg xmlns="http://www.w3.org/2000/svg" id="Layer_1" data-name="Layer 1" viewBox="0 0 24 24" width="512" height="512"><path d="M12,0A12,12,0,1,0,24,12,12.013,12.013,0,0,0,12,0Zm7.231,17.336a7.451,7.451,0,0,1-1.148-1.462,1.494,1.494,0,0,0-1-2.81A7.659,7.659,0,0,1,17,12a7.554,7.554,0,0,1,.084-1.068A1.471,1.471,0,0,0,17.5,11a1.5,1.5,0,0,0,.583-2.874,7.451,7.451,0,0,1,1.148-1.462,8.932,8.932,0,0,1,0,10.672ZM4.769,6.664A7.451,7.451,0,0,1,5.917,8.126,1.5,1.5,0,0,0,6.5,11a1.471,1.471,0,0,0,.416-.068A7.554,7.554,0,0,1,7,12a7.659,7.659,0,0,1-.083,1.064,1.494,1.494,0,0,0-1,2.81,7.451,7.451,0,0,1-1.148,1.462,8.932,8.932,0,0,1,0-10.672ZM6.92,19.423A10.41,10.41,0,0,0,8.808,16.85l.217.073a1.5,1.5,0,0,0,.95-2.846l-.182-.06A10.623,10.623,0,0,0,10,12a10.623,10.623,0,0,0-.207-2.017l.182-.06a1.5,1.5,0,0,0-.95-2.846l-.217.073A10.41,10.41,0,0,0,6.92,4.577a8.971,8.971,0,0,1,10.16,0A10.41,10.41,0,0,0,15.192,7.15l-.217-.073a1.5,1.5,0,0,0-.95,2.846l.182.06A10.623,10.623,0,0,0,14,12a10.623,10.623,0,0,0,.207,2.017l-.182.06a1.5,1.5,0,0,0,.95,2.846l.217-.073a10.41,10.41,0,0,0,1.888,2.573,8.971,8.971,0,0,1-10.16,0Z"/></svg>
