<?xml version="1.0" encoding="UTF-8"?>
<svg xmlns="http://www.w3.org/2000/svg" id="Layer_1" data-name="Layer 1" viewBox="0 0 24 24" width="512" height="512"><path d="M3.439,6.061A4.886,4.886,0,0,1,2,2.586V1H5V2.586a1.9,1.9,0,0,0,.561,1.353A4.886,4.886,0,0,1,7,7.414V8H4V7.414A1.9,1.9,0,0,0,3.439,6.061ZM9,6h3a4.886,4.886,0,0,0-1.439-3.475A1.9,1.9,0,0,1,10,1.171V0H7V1.171A4.886,4.886,0,0,0,8.439,4.647,1.9,1.9,0,0,1,9,6Zm15,5.045V12A12.013,12.013,0,0,1,12,24C5.271,24,0,18.949,0,12.5A8.382,8.382,0,0,1,.437,10L.791,9h2.5l.194,1.274C3.958,13.39,5.315,14,7.5,14c1.9,0,3.954-.925,3.954-2.955A6.278,6.278,0,0,1,16.084,5C15.575,3.647,14.7,3,14,3V0c2.216,0,4.454,1.694,5.221,4.96A6.278,6.278,0,0,1,24,11.045Zm-3,0a3.23,3.23,0,0,0-.189-1.053A4.423,4.423,0,0,1,18,11a4.469,4.469,0,0,1-3.212-1.367,3.229,3.229,0,0,0-.334,1.412C14.454,14.5,11.529,17,7.5,17a7.8,7.8,0,0,1-3.656-.782A8.848,8.848,0,0,0,12,21a9.01,9.01,0,0,0,9-9Z"/></svg>
