<?xml version="1.0" encoding="UTF-8"?>
<svg xmlns="http://www.w3.org/2000/svg" id="Layer_1" data-name="Layer 1" viewBox="0 0 24 24" width="512" height="512"><path d="M20.5,7a3.5,3.5,0,0,1,0-7A3.5,3.5,0,0,1,20.5,7Zm.562,17H12.936a2.915,2.915,0,0,1-2.544-1.446,2.818,2.818,0,0,1-.025-2.83l4.066-7.235a2.98,2.98,0,0,1,5.136,0l4.063,7.232a2.817,2.817,0,0,1-.025,2.832A2.915,2.915,0,0,1,21.062,24Zm-4.071-9.977L13.107,21h7.812ZM8,22.5A1.5,1.5,0,0,0,6.5,21H3.712a.685.685,0,0,1-.608-.347.7.7,0,0,1-.015-.7L9.35,8.372a.707.707,0,0,1,1.245,0l.622,1.15A1.5,1.5,0,1,0,13.855,8.1l-.622-1.151a3.732,3.732,0,0,0-6.522,0L.45,18.521A3.713,3.713,0,0,0,3.712,24H6.5A1.5,1.5,0,0,0,8,22.5Z"/></svg>
