<svg id="Layer_1" height="512" viewBox="0 0 24 24" width="512" xmlns="http://www.w3.org/2000/svg" data-name="Layer 1"><path d="m19.78 3.238a10.967 10.967 0 0 0 -15.561 0 11.1 11.1 0 0 0 .043 15.656l3.738 3.466a5.707 5.707 0 0 0 7.977.03l3.807-3.537a11.093 11.093 0 0 0 -.004-15.615zm-2.08 13.462-3.8 3.525a2.754 2.754 0 0 1 -3.832-.03l-3.722-3.458a8.084 8.084 0 0 1 0-11.383 7.966 7.966 0 0 1 11.307 0 8.074 8.074 0 0 1 .047 11.346zm-2.135-2.135a1.5 1.5 0 0 1 -2.122 0l-2.5-2.5a1.5 1.5 0 0 1 -.443-1.065v-3.5a1.5 1.5 0 0 1 3 0v2.879l2.061 2.06a1.5 1.5 0 0 1 0 2.122z"/></svg>