<?xml version="1.0" encoding="UTF-8"?>
<svg xmlns="http://www.w3.org/2000/svg" id="Layer_1" data-name="Layer 1" viewBox="0 0 24 24" width="512" height="512"><path d="M22.483,11.384C22.177,5.755,16.978,1,11.131,1h-.123A2.437,2.437,0,0,0,9.046,0H7.363A4.368,4.368,0,0,0,3,4.364V19.636A4.368,4.368,0,0,0,7.363,24H9.046a2.437,2.437,0,0,0,1.962-1h.446A11.118,11.118,0,0,0,19.5,19.549,10.9,10.9,0,0,0,22.483,11.384Zm-5.166,6.1A8,8,0,0,1,11.454,20H10a1.5,1.5,0,0,0-1.415,1H7.363A1.365,1.365,0,0,1,6,19.636V19h.5a1.5,1.5,0,0,0,0-3H6V13.5h.5a1.5,1.5,0,0,0,0-3H6V8h.5a1.5,1.5,0,0,0,0-3H6V4.364A1.365,1.365,0,0,1,7.363,3H8.585A1.5,1.5,0,0,0,10,4h1.131c4.232,0,8.138,3.527,8.356,7.547A7.921,7.921,0,0,1,17.317,17.486Z"/><path d="M12,8a1,1,0,0,0-1,1v6.015a1,1,0,0,0,.947.992A4.106,4.106,0,0,0,15.981,12.4,4.006,4.006,0,0,0,12,8Z"/></svg>
