<?xml version="1.0" encoding="UTF-8"?>
<!-- Generator: Adobe Illustrator 25.0.0, SVG Export Plug-In . SVG Version: 6.00 Build 0)  -->
<svg xmlns="http://www.w3.org/2000/svg" xmlns:xlink="http://www.w3.org/1999/xlink" version="1.1" id="Bold" x="0px" y="0px" viewBox="0 0 512 512" style="enable-background:new 0 0 512 512;" xml:space="preserve" width="512" height="512">
<path d="M486.715,143.036c-11.609-53.966-59.222-92.571-114.422-92.775h-255.34C52.387,50.343,0.07,102.67,0,167.235v106.321  c0.07,64.562,52.391,116.882,116.953,116.953h44.251l32.173,63.006c14.81,28.863,44.709,46.829,77.146,46.356  c46.4,0.061,84.064-37.504,84.125-83.904c0.006-4.769-0.393-9.529-1.195-14.23l-1.914-11.227h43.336  c64.591,0,116.953-52.361,116.953-116.952c0-8.132-0.848-16.243-2.531-24.199L486.715,143.036z M63.792,273.556V167.235  c0-29.36,23.801-53.16,53.16-53.16h31.896v212.641h-31.896C87.593,326.716,63.792,302.916,63.792,273.556z M436.063,307.047  c-10.077,12.471-25.262,19.703-41.295,19.669H275.859l14.608,85.737c1.047,5.875-0.6,11.909-4.487,16.437  c-4.135,4.798-10.236,7.445-16.565,7.187c-8.051,0.085-15.459-4.385-19.138-11.546l-37.637-73.51V114.075h159.651  c25.092,0.074,46.738,17.63,51.991,42.167l22.497,106.321C450.131,278.248,446.189,294.607,436.063,307.047z"/>
</svg>
