<?xml version="1.0" encoding="UTF-8"?>
<svg xmlns="http://www.w3.org/2000/svg" id="Layer_1" data-name="Layer 1" viewBox="0 0 24 24" width="512" height="512"><path d="M12,0A12,12,0,1,0,24,12,12.013,12.013,0,0,0,12,0Zm0,15C5.988,15,2,13.194,2,12S5.988,9,12,9s10,1.806,10,3S18.012,15,12,15ZM12,2a10.011,10.011,0,0,1,9.473,6.822A22.013,22.013,0,0,0,12,7,22.013,22.013,0,0,0,2.527,8.822,10.011,10.011,0,0,1,12,2Zm0,20a10.011,10.011,0,0,1-9.473-6.822A22.013,22.013,0,0,0,12,17a22.013,22.013,0,0,0,9.473-1.822A10.011,10.011,0,0,1,12,22Z"/></svg>
