<?xml version="1.0" encoding="UTF-8"?>
<svg xmlns="http://www.w3.org/2000/svg" viewBox="0 0 24 24" width="512" height="512"><g id="_01_align_center" data-name="01 align center"><path d="M10.583,20.529A5.028,5.028,0,0,1,3.472,13.42L7.734,9.155,6.319,7.741,2.058,12.006A7.027,7.027,0,0,0,12,21.943l4.262-4.262-1.414-1.414Z"/><path d="M21.944,2.061A6.979,6.979,0,0,0,16.975,0h0a6.983,6.983,0,0,0-4.968,2.057L7.74,6.32,9.154,7.735l4.265-4.262A4.993,4.993,0,0,1,16.973,2h0a5.028,5.028,0,0,1,3.554,8.583l-4.262,4.262L17.68,16.26,21.942,12A7.037,7.037,0,0,0,21.944,2.061Z"/><rect x="6.976" y="11.001" width="10.047" height="2" transform="translate(-4.971 12) rotate(-45)"/></g></svg>
