<?xml version="1.0" encoding="UTF-8"?>
<svg xmlns="http://www.w3.org/2000/svg" id="Layer_1" data-name="Layer 1" viewBox="0 0 24 24" width="512" height="512"><path d="M16.5,24C9.252,24,0,14.748,0,7.5A5.887,5.887,0,0,1,1.717,3.292L4.887.122l6.264,6.265L7.745,9.793A12.145,12.145,0,0,0,14.2,16.262l3.414-3.414,6.266,6.265-3.172,3.172A5.888,5.888,0,0,1,16.5,24ZM4.887,2.951,3.13,4.708A3.9,3.9,0,0,0,2,7.5C2,13.734,10.266,22,16.5,22a3.908,3.908,0,0,0,2.792-1.128l1.759-1.759-3.438-3.437L14.686,18.6l-.606-.232A14.368,14.368,0,0,1,5.634,9.936l-.246-.613L8.323,6.387Zm12.3,7.738L18.56,9.318,17,7.758V5H15V8.5ZM11.565,3.973a5.991,5.991,0,1,1,8.463,8.461l1.413,1.414A7.988,7.988,0,1,0,10.152,2.559Z"/></svg>
