<svg id="Layer_1" height="512" viewBox="0 0 24 24" width="512" xmlns="http://www.w3.org/2000/svg" data-name="Layer 1"><path d="m22.942 6.837-2.182-2.183.947-.947a1 1 0 1 0 -1.414-1.414l-.947.947-2.183-2.182a3.7 3.7 0 0 0 -5.105 0 3.609 3.609 0 0 0 0 5.106l2.182 2.182-5.894 5.894-2.183-2.182a3.7 3.7 0 0 0 -5.105 0 3.609 3.609 0 0 0 0 5.106l2.182 2.182-.947.947a1 1 0 1 0 1.414 1.414l.947-.947 2.183 2.182a3.609 3.609 0 0 0 5.105 0 3.608 3.608 0 0 0 0-5.105l-2.182-2.182 5.9-5.895 2.182 2.182a3.609 3.609 0 0 0 5.105 0 3.608 3.608 0 0 0 0-5.105zm-11.942 13.553a1.6 1.6 0 0 1 -.472 1.138 1.647 1.647 0 0 1 -2.277 0l-5.779-5.779a1.61 1.61 0 1 1 2.277-2.277l5.779 5.779a1.6 1.6 0 0 1 .472 1.139zm10.528-9.862a1.647 1.647 0 0 1 -2.277 0l-5.779-5.779a1.61 1.61 0 1 1 2.277-2.277l5.779 5.779a1.609 1.609 0 0 1 0 2.277z"/></svg>