<?xml version="1.0" encoding="UTF-8"?>
<svg xmlns="http://www.w3.org/2000/svg" viewBox="0 0 24 24" width="512" height="512"><g id="_01_align_center" data-name="01 align center"><path d="M21,16V12a8.962,8.962,0,0,0-3.371-7h2.648a1.991,1.991,0,1,0-.009-2h-4.41A3.981,3.981,0,0,0,8.142,3H3.723a1.991,1.991,0,1,0,.009,2H6.371A8.962,8.962,0,0,0,3,12v4H0v5a3,3,0,0,0,3,3H8V16H5V12A6.993,6.993,0,0,1,8.522,5.937a3.963,3.963,0,0,0,6.956,0A6.993,6.993,0,0,1,19,12v4H16v8h5a3,3,0,0,0,3-3V16ZM6,22H3a1,1,0,0,1-1-1V18H6ZM12,6a2,2,0,1,1,2-2A2,2,0,0,1,12,6ZM22,21a1,1,0,0,1-1,1H18V18h4Z"/></g></svg>
