<?xml version="1.0" encoding="UTF-8"?>
<!-- Generator: Adobe Illustrator 25.0.0, SVG Export Plug-In . SVG Version: 6.00 Build 0)  -->
<svg xmlns="http://www.w3.org/2000/svg" xmlns:xlink="http://www.w3.org/1999/xlink" version="1.1" id="Layer_1" x="0px" y="0px" viewBox="0 0 512 512" style="enable-background:new 0 0 512 512;" xml:space="preserve" width="512" height="512">
<path d="M512,481.894L378.671,348.565c74.553-91.18,61.074-225.533-30.106-300.086S123.032-12.595,48.479,78.586  s-61.074,225.533,30.106,300.086c78.538,64.216,191.442,64.216,269.979,0L481.894,512L512,481.894z M213.916,384.25  c-94.073,0-170.334-76.261-170.334-170.334S119.843,43.582,213.916,43.582S384.25,119.843,384.25,213.916  C384.144,307.945,307.945,384.144,213.916,384.25z M255.967,128.749c-15.502-0.189-30.533,5.319-42.243,15.479  c-11.96-10.191-27.213-15.691-42.924-15.479c-36.42,1.25-64.975,31.709-63.875,68.134c0,58.382,84.507,119.851,94.152,126.664  l12.307,8.708l12.285-8.708c9.645-6.813,94.173-68.283,94.173-126.664C320.931,160.462,292.382,130.01,255.967,128.749z   M213.384,279.516c-29.808-23.676-63.875-59.766-63.875-82.633c-1.063-12.899,8.412-24.269,21.292-25.55  c11.287-0.751,21.046,7.791,21.797,19.078c0.049,0.737,0.058,1.476,0.027,2.213h42.583c-1.001-10.737,6.892-20.251,17.628-21.252  c1.041-0.097,2.088-0.11,3.131-0.04c12.874,1.292,22.343,12.654,21.292,25.55C277.259,219.75,243.107,255.839,213.384,279.516  L213.384,279.516z"/>
</svg>
