<?xml version="1.0" encoding="UTF-8"?>
<svg xmlns="http://www.w3.org/2000/svg" id="Layer_1" data-name="Layer 1" viewBox="0 0 24 24" width="512" height="512"><path d="M23,20H14.816A3,3,0,0,0,13,18.184V14h6a2.989,2.989,0,0,0,2-5.22V4a4,4,0,0,0-4-4H7A4,4,0,0,0,3,4V8.78A2.989,2.989,0,0,0,5,14h6v4.184A3,3,0,0,0,9.184,20H1a1,1,0,0,0,0,2H9.184a2.982,2.982,0,0,0,5.632,0H23a1,1,0,0,0,0-2ZM5,4A2,2,0,0,1,7,2H17a2,2,0,0,1,2,2V8H15.414A1.986,1.986,0,0,0,14,8.586L13.586,9H10.414L10,8.586A1.986,1.986,0,0,0,8.586,8H5ZM4,11a1,1,0,0,1,1-1H8.586L9,10.414A1.986,1.986,0,0,0,10.414,11h3.172A1.986,1.986,0,0,0,15,10.414L15.414,10H19a1,1,0,0,1,0,2H5A1,1,0,0,1,4,11Zm8,11a1,1,0,1,1,1-1A1,1,0,0,1,12,22Z"/></svg>
