<?xml version="1.0" encoding="UTF-8"?>
<svg xmlns="http://www.w3.org/2000/svg" id="Layer_1" data-name="Layer 1" viewBox="0 0 24 24" width="512" height="512"><path d="M19,10a5,5,0,1,0-3.536-1.462A4.99,4.99,0,0,0,19,10Zm2.122-2.876a3,3,0,0,1-3.406.576L21.7,3.716A3,3,0,0,1,21.122,7.122ZM16.878,2.878A3,3,0,0,1,20.284,2.3L16.3,6.284A3,3,0,0,1,16.878,2.878ZM24,12v7a5.006,5.006,0,0,1-5,5H5a5.006,5.006,0,0,1-5-5V8A5.006,5.006,0,0,1,5,3h6a1,1,0,0,1,0,2H5A2.99,2.99,0,0,0,2.361,6.6l7.517,7.518a3.008,3.008,0,0,0,4.244,0l1.87-1.836a1,1,0,0,1,1.4,1.428l-1.864,1.828a5,5,0,0,1-7.065-.006L2,9.071V19a3,3,0,0,0,3,3H19a3,3,0,0,0,3-3V12A1,1,0,0,1,24,12Z"/></svg>
