<?xml version="1.0" encoding="UTF-8"?>
<svg xmlns="http://www.w3.org/2000/svg" id="Layer_1" data-name="Layer 1" viewBox="0 0 24 24" width="512" height="512"><path d="M22.916.691A2.992,2.992,0,0,0,20.447.053L8.448,2.3A3,3,0,0,0,6,5.251V16.556A3.959,3.959,0,0,0,4,16a4,4,0,1,0,4,4V9.42L22,6.8v6.761A3.959,3.959,0,0,0,20,13a4,4,0,1,0,4,4V3A3,3,0,0,0,22.916.691ZM4,22a2,2,0,1,1,2-2A2,2,0,0,1,4,22ZM8,7.386V5.251a1,1,0,0,1,.815-.983l12-2.25A1,1,0,0,1,22,3v1.76ZM20,19a2,2,0,1,1,2-2A2,2,0,0,1,20,19Z"/></svg>
