<?xml version="1.0" encoding="UTF-8"?>
<svg xmlns="http://www.w3.org/2000/svg" id="Layer_1" data-name="Layer 1" viewBox="0 0 24 24" width="512" height="512"><path d="M5.005,24H19a5,5,0,0,0,4.522-7.132L16.535,2.9a5,5,0,0,0-9.057-.026l-7,14L.47,16.9A5,5,0,0,0,5.005,24Zm3.4-2,2.717-5.438A.958.958,0,0,1,12,16a.973.973,0,0,1,.893.588L15.6,22ZM2.278,17.748l7-14.012a3,3,0,0,1,5.454.027l6.988,13.973A3,3,0,0,1,19,22H17.836L14.7,15.72a2.971,2.971,0,0,0-5.377-.027L6.168,22H5.005a3,3,0,0,1-2.727-4.252Z"/></svg>
