<svg id="Layer_1" height="512" viewBox="0 0 24 24" width="512" xmlns="http://www.w3.org/2000/svg" data-name="Layer 1"><path d="m19 0h-14a5.006 5.006 0 0 0 -5 5v14a5.006 5.006 0 0 0 5 5h14a5.006 5.006 0 0 0 5-5v-14a5.006 5.006 0 0 0 -5-5zm-3 11h-3v-3h3zm2-3h4v3h-4zm-5-2v-4h3v4zm-2 0h-3v-4h3zm0 2v3h-3v-3zm-5 3h-4v-3h4zm-4 2h4v3h-4zm6 0h3v3h-3zm3 5v4h-3v-4zm2 0h3v4h-3zm0-2v-3h3v3zm5-3h4v3h-4zm4-8v1h-4v-4h1a3 3 0 0 1 3 3zm-17-3h1v4h-4v-1a3 3 0 0 1 3-3zm-3 17v-1h4v4h-1a3 3 0 0 1 -3-3zm17 3h-1v-4h4v1a3 3 0 0 1 -3 3z"/></svg>