<svg id="Layer_1" height="512" viewBox="0 0 24 24" width="512" xmlns="http://www.w3.org/2000/svg" data-name="Layer 1"><path d="m18 24h-12a5.006 5.006 0 0 1 -5-5v-14a5.006 5.006 0 0 1 5-5h12a5.006 5.006 0 0 1 5 5v14a5.006 5.006 0 0 1 -5 5zm-12-22a3 3 0 0 0 -3 3v14a3 3 0 0 0 3 3h12a3 3 0 0 0 3-3v-14a3 3 0 0 0 -3-3zm10 8h-8a3 3 0 0 1 0-6h8a3 3 0 0 1 0 6zm-8-4a1 1 0 0 0 0 2h8a1 1 0 0 0 0-2zm-2 7a1 1 0 1 0 1 1 1 1 0 0 0 -1-1zm4 0a1 1 0 1 0 1 1 1 1 0 0 0 -1-1zm4 0a1 1 0 1 0 1 1 1 1 0 0 0 -1-1zm-8 4a1 1 0 1 0 1 1 1 1 0 0 0 -1-1zm4 0a1 1 0 1 0 1 1 1 1 0 0 0 -1-1zm8-4a1 1 0 1 0 1 1 1 1 0 0 0 -1-1zm1 5a1 1 0 0 0 -1-1h-4a1 1 0 0 0 0 2h4a1 1 0 0 0 1-1z"/></svg>