<svg id="Layer_1" height="512" viewBox="0 0 24 24" width="512" xmlns="http://www.w3.org/2000/svg" data-name="Layer 1"><path d="m20 0h-1.757a3.975 3.975 0 0 0 -2.829 1.172l-3.242 3.242a4.022 4.022 0 0 0 -1.172 2.828v3.463c-3.266 2.415-7.581 5.633-8.121 6.174a2.993 2.993 0 0 0 -.577 3.4l-2.009 2.014a1 1 0 0 0 0 1.414 1 1 0 0 0 1.414 0l2.007-2.007a2.965 2.965 0 0 0 3.407-.579c.541-.541 3.759-4.855 6.179-8.121h3.462a3.975 3.975 0 0 0 2.829-1.172l3.242-3.242a4.022 4.022 0 0 0 1.167-2.828v-1.758a4 4 0 0 0 -4-4zm-14.293 19.707a1.021 1.021 0 0 1 -1.414 0 1 1 0 0 1 0-1.414c.339-.336 3-2.343 5.948-4.534-2.192 2.947-4.199 5.61-4.534 5.948zm16.293-13.949a2.011 2.011 0 0 1 -.586 1.414l-3.242 3.242a1.99 1.99 0 0 1 -1.415.586h-1.986l.991-1.348 3.945-3.945a1 1 0 1 0 -1.414-1.414l-3.944 3.944-1.349.992v-1.987a2.011 2.011 0 0 1 .586-1.414l3.242-3.242a1.99 1.99 0 0 1 1.415-.586h1.757a2 2 0 0 1 2 2z"/></svg>