<?xml version="1.0" encoding="UTF-8"?>
<svg xmlns="http://www.w3.org/2000/svg" id="Layer_1" data-name="Layer 1" viewBox="0 0 24 24" width="512" height="512"><path d="M23,5a3,3,0,0,0-3-3h-.171A3.006,3.006,0,0,0,17,0H7A3.006,3.006,0,0,0,4.171,2H4A3,3,0,0,0,2.022,7.238L3.57,19.62A5.007,5.007,0,0,0,8.531,24h6.938a5.008,5.008,0,0,0,4.961-4.38L21.978,7.238A2.981,2.981,0,0,0,23,5Zm-3.883,9h-3.2c-.892-5.287-6.947-5.284-7.838,0h-3.2l-.75-6H19.867ZM14,15c-.105,3.954-3.895,3.953-4,0C10.105,11.046,13.9,11.047,14,15ZM4,4H5A1,1,0,0,0,6,3,1,1,0,0,1,7,2H17a1,1,0,0,1,1,1,1,1,0,0,0,1,1h1a1,1,0,0,1,0,2H4A1,1,0,0,1,4,4ZM18.445,19.372A3,3,0,0,1,15.469,22H8.531a3,3,0,0,1-2.977-2.628L5.133,16H8.081c.892,5.287,6.948,5.284,7.838,0h2.948Z"/></svg>
