<?xml version="1.0" encoding="UTF-8"?>
<svg xmlns="http://www.w3.org/2000/svg" id="Layer_1" data-name="Layer 1" viewBox="0 0 24 24" width="512" height="512"><path d="M21.5,12.932A8.184,8.184,0,0,0,24,7.284C24,1.63,21.233,1.02,20.044,1.02c-2.968,0-5.884,2.9-8.041,5.521C9.862,3.942,6.937,1.02,3.961,1.02-.188.76-1.706,9.091,2.506,12.933c.176.174.359.337.544.49A6.554,6.554,0,0,0,1.33,20.11a4.02,4.02,0,0,0,2.3,2.574,3.914,3.914,0,0,0,3.355-.131A16.382,16.382,0,0,0,11,19.621V22a1,1,0,0,0,2,0V19.621a16.351,16.351,0,0,0,4.018,2.931,3.911,3.911,0,0,0,3.355.132,4.021,4.021,0,0,0,2.3-2.573A6.567,6.567,0,0,0,21,13.384C21.171,13.242,21.338,13.092,21.5,12.932ZM11,15.636c0,1.478-2.08,3.642-4.947,5.146a1.891,1.891,0,0,1-1.647.06,2.027,2.027,0,0,1-1.158-1.3,4.6,4.6,0,0,1,1.566-5.038A6.25,6.25,0,0,0,7.206,15,9.811,9.811,0,0,0,11,14.293Zm0-3.651A6.3,6.3,0,0,1,7.18,13a4.559,4.559,0,0,1-3.27-1.49,6.234,6.234,0,0,1-1.9-4.225c0-2.71.713-4.264,1.955-4.264C5.746,3.02,8.106,4.858,11,8.491ZM13,8.5C15.88,4.87,18.252,3.02,20.044,3.02,21.287,3.02,22,4.574,22,7.284a6.236,6.236,0,0,1-1.9,4.225A4.691,4.691,0,0,1,16.87,13,6.435,6.435,0,0,1,13,11.98Zm7.752,11.048a2.025,2.025,0,0,1-1.158,1.3,1.892,1.892,0,0,1-1.647-.061C15.08,19.278,13,17.114,13,15.636V14.291A9.812,9.812,0,0,0,16.8,15a6.094,6.094,0,0,0,2.424-.51A4.535,4.535,0,0,1,20.752,19.544ZM10,2a2,2,0,0,1,4,0A2,2,0,0,1,10,2Z"/></svg>
