<?xml version="1.0" encoding="UTF-8"?>
<svg xmlns="http://www.w3.org/2000/svg" viewBox="0 0 24 24" width="512" height="512"><g id="_01_align_center" data-name="01 align center"><path d="M0,3v8H11V0H3A3,3,0,0,0,0,3ZM9,9H2V3A1,1,0,0,1,3,2H9Z"/><path d="M0,21a3,3,0,0,0,3,3h8V13H0Zm2-6H9v7H3a1,1,0,0,1-1-1Z"/><path d="M20,21.417V2.586l2.584,2.58L24,3.751,21.121.876a3,3,0,0,0-4.239,0l-2.875,2.87L15.42,5.161,18,2.582V21.416l-2.585-2.582-1.413,1.415,2.879,2.875a3,3,0,0,0,4.239,0L24,20.254l-1.413-1.415Z"/></g></svg>
