<?xml version="1.0" encoding="UTF-8"?>
<!-- Generator: Adobe Illustrator 25.0.0, SVG Export Plug-In . SVG Version: 6.00 Build 0)  -->
<svg xmlns="http://www.w3.org/2000/svg" xmlns:xlink="http://www.w3.org/1999/xlink" version="1.1" id="Capa_1" x="0px" y="0px" viewBox="0 0 512 512" style="enable-background:new 0 0 512 512;" xml:space="preserve" width="512" height="512">
<g id="_01_align_center">
	<path d="M349.485,86.766c-25.569-21.67-51.906-44.15-78.561-70.72L255.731,0.96l-14.915,15.107   c-47.985,48.113-70.656,121.987-80.5,166.307c-7.535-11.679-13.126-24.502-16.556-37.97l-9.013-34.795l-26.208,24.632   C62.619,177.345,32,220.11,32,288.592c-0.882,101.634,67.488,190.839,165.859,216.401c14.405,3.504,29.109,5.644,43.915,6.392   c4.864,0.352,18.793,0.703,21.18,0.554c120.685-3.63,216.608-102.565,216.507-223.305   C479.461,197.14,419.225,146.001,349.485,86.766z M259.858,469.048c-2.231,0.193-4.259,0.213-6.516,0.192   c-39.844-1.218-71.54-33.819-71.637-73.681c0-27.002,14.481-40.461,47.254-68.357c8.262-7.027,17.249-14.672,26.704-23.425   c8.284,7.517,16.333,14.332,23.765,20.656c32.922,27.939,50.107,43.804,50.107,71.062   C329.461,434.599,298.901,466.859,259.858,469.048z M366.759,431.334l-0.426,0.298c3.822-11.644,5.777-23.819,5.792-36.074   c0-48.233-31.645-75.108-65.12-103.537c-11.861-10.051-24.106-20.443-36.329-32.667l-15.077-15.056l-15.056,15.056   c-13.799,13.778-27.3,25.277-39.204,35.414c-33.391,28.408-62.246,52.961-62.246,100.79c0.045,12.781,2.204,25.467,6.389,37.543   c-44.934-34.504-71.16-88.026-70.891-144.679c-0.35-37.368,14.113-73.355,40.226-100.087c4.498,9.125,9.83,17.815,15.929,25.959   c9.103,12.284,24.636,17.983,39.524,14.502c15.135-3.37,26.902-15.278,30.09-30.452c8.917-48.944,28.202-95.413,56.56-136.289   c22.466,21.295,44.72,40.141,64.801,57.199c66.696,56.645,114.994,97.574,114.994,169.296   c0.106,55.877-25.749,108.633-69.976,142.784H366.759z"/>
</g>
</svg>
