<?xml version="1.0" encoding="UTF-8"?>
<svg xmlns="http://www.w3.org/2000/svg" id="Layer_1" data-name="Layer 1" viewBox="0 0 24 24" width="512" height="512"><path d="M22.543.043,9.677,12.909a13.547,13.547,0,0,1-1.93-3.117l3.4-3.4L4.887.122,1.716,3.292A5.9,5.9,0,0,0,0,7.5C0,10.741,1.791,14.5,4.825,17.761L.043,22.543l1.414,1.414,22.5-22.5ZM2,7.5A3.907,3.907,0,0,1,3.13,4.707L4.887,2.95,8.324,6.387,5.389,9.322l.245.614a15.743,15.743,0,0,0,2.627,4.388L6.236,16.35C3.569,13.466,2,10.232,2,7.5Zm15.613,5.348,6.265,6.265-3.171,3.171A5.889,5.889,0,0,1,16.5,24c-2.665,0-5.8-1.306-8.717-3.544L9.209,19.03C11.7,20.89,14.356,22,16.5,22a3.9,3.9,0,0,0,2.792-1.13l1.758-1.757-3.437-3.437L14.687,18.6l-.606-.231a15.2,15.2,0,0,1-2.8-1.415L12.738,15.5a13.017,13.017,0,0,0,1.462.76Z"/></svg>
