<?xml version="1.0" encoding="UTF-8"?>
<svg xmlns="http://www.w3.org/2000/svg" id="Layer_1" data-name="Layer 1" viewBox="0 0 24 24" width="512" height="512"><path d="M14.5,13A1.5,1.5,0,1,1,16,11.5,1.5,1.5,0,0,1,14.5,13Zm7.351-4.726A10,10,0,0,0,2.226,7.9L1.5,12H3a12.12,12.12,0,0,0,5.184-1.2A1.477,1.477,0,0,0,8,11.5a1.5,1.5,0,1,0,1.634-1.487,16.772,16.772,0,0,0,5.287-5.249A5.949,5.949,0,0,0,13.028,4.1C11.49,6.379,8.217,9.563,3.893,9.959L4.188,8.29a8,8,0,0,1,15.766.86l.078.745.738.133A1.5,1.5,0,0,1,20.5,13c-.086,0-1.087-.175-1.087-.175l-.282.8C18.215,16.221,15.13,19,12,19h0c-3.026,0-6.023-2.619-7.041-5.153A13.535,13.535,0,0,1,3,14H2.88c.062.181.106.3.12.339a10.894,10.894,0,0,0,5,5.6V24h2V20.732A7.929,7.929,0,0,0,12,21h0a7.959,7.959,0,0,0,2-.264V24h2V19.954a11.037,11.037,0,0,0,4.732-4.962,3.5,3.5,0,0,0,1.119-6.718Z"/></svg>
