<?xml version="1.0" encoding="UTF-8"?>
<svg xmlns="http://www.w3.org/2000/svg" id="Layer_1" data-name="Layer 1" viewBox="0 0 24 24" width="512" height="512"><path d="M22,15a3,3,0,0,0-3-3V10a3,3,0,0,0-2.174-2.87L16.161,3.8A1,1,0,0,0,15.18,3h-.36a1,1,0,0,0-.981.8L13.2,7H10.25L11,4a1,1,0,0,0-1-1H8A1,1,0,0,0,7,4l.756,3.025A2.993,2.993,0,0,0,5,10v2a3,3,0,0,0-3,3v7.01H0v2H24v-2H22ZM7,10A1,1,0,0,1,8,9h8a1,1,0,0,1,1,1v2H7ZM5,14H19a1,1,0,0,1,1,1v1.98c-.936-.1-1.5-.7-1.5-.98h-2c0,.344-.682,1-1.75,1C13.661,17,13,16.306,13,16H11c0,.344-.682,1-1.75,1-1.089,0-1.75-.694-1.75-1h-2c0,.316-.579.888-1.5.981V15A1,1,0,0,1,5,14ZM4,18.979A4.156,4.156,0,0,0,6.5,18a4.309,4.309,0,0,0,5.5.015A4.309,4.309,0,0,0,17.5,18a4.156,4.156,0,0,0,2.5.978V22.01H4Z"/><circle cx="9" cy="1" r="1"/><circle cx="15" cy="1" r="1"/></svg>
