<?xml version="1.0" encoding="UTF-8"?>
<svg xmlns="http://www.w3.org/2000/svg" id="Layer_1" data-name="Layer 1" viewBox="0 0 24 24" width="512" height="512"><path d="M16.9,4.02a5.008,5.008,0,0,0-9.8,0A5.508,5.508,0,0,0,2.76,12.253L12,23.99l9.24-11.737A5.507,5.507,0,0,0,16.9,4.02ZM20,9.5a3.351,3.351,0,0,1-.042.5H13.045C12.509,5.075,19.8,4.549,20,9.5ZM12,2a3,3,0,0,1,2.893,2.249A5.52,5.52,0,0,0,12,6.341,5.52,5.52,0,0,0,9.107,4.249,3,3,0,0,1,12,2ZM7.5,6a3.5,3.5,0,0,1,3.455,4H4.042A3.5,3.5,0,0,1,7.5,6ZM5.1,12h13.81L12,20.76Z"/></svg>
