<?xml version="1.0" encoding="UTF-8"?>
<svg xmlns="http://www.w3.org/2000/svg" viewBox="0 0 24 24" width="512" height="512"><g id="_01_align_center" data-name="01 align center"><path d="M22,7a2,2,0,0,0,2-2V0H22V5H17.946A6.411,6.411,0,0,0,6.065,5H2V0H0V5A2,2,0,0,0,2,7H5.485L4.472,11H0v2H3.965l-.145.573L3.8,13.7a8.37,8.37,0,0,0-.07,1.032A8.2,8.2,0,0,0,4.053,17H2a2,2,0,0,0-2,2v5H2V19H4.93a8.248,8.248,0,0,0,14.14,0H22v5h2V19a2,2,0,0,0-2-2H19.947a8.2,8.2,0,0,0,.325-2.273A8.37,8.37,0,0,0,20.2,13.7l-.175-.7H24V11H19.522L18.513,7ZM12,21a6.279,6.279,0,0,1-6.272-6.273A6.188,6.188,0,0,1,5.775,14L7.805,5.97a4.448,4.448,0,0,1,8.376-.041L18.225,14a6.188,6.188,0,0,1,.047.725A6.279,6.279,0,0,1,12,21Z"/></g></svg>
