<?xml version="1.0" encoding="UTF-8"?>
<svg xmlns="http://www.w3.org/2000/svg" id="Layer_1" data-name="Layer 1" viewBox="0 0 24 24" width="512" height="512"><path d="M24,7.5A7.486,7.486,0,0,0,12.005,1.51,7.5,7.5,0,1,0,6,14.849V19H4a1,1,0,0,0,0,2H6v2a1,1,0,0,0,2,0V21h2a1,1,0,0,0,0-2H8V14.976a7.442,7.442,0,0,0,4.005-1.486A7.456,7.456,0,0,0,16,14.975V19H14a1,1,0,0,0,0,2h2v2a1,1,0,0,0,2,0V21h2a1,1,0,0,0,0-2H18V14.849A7.513,7.513,0,0,0,24,7.5Zm-2,0A5.5,5.5,0,1,1,16.5,2,5.506,5.506,0,0,1,22,7.5ZM2,7.5a5.49,5.49,0,0,1,8.56-4.561,7.448,7.448,0,0,0,0,9.122A5.49,5.49,0,0,1,2,7.5Z"/></svg>
