<?xml version="1.0" encoding="UTF-8"?>
<svg xmlns="http://www.w3.org/2000/svg" id="Layer_1" data-name="Layer 1" viewBox="0 0 24 24" width="512" height="512"><path d="M21.159,8.016a9.918,9.918,0,0,0-5.175-5.175A3,3,0,0,0,13,0H11A3,3,0,0,0,8.016,2.841,9.921,9.921,0,0,0,2.841,8.016,3,3,0,0,0,0,11v3H2.2A9.967,9.967,0,0,0,7.85,21.093L6.861,24H8.974l.77-2.265a9.718,9.718,0,0,0,4.512,0L15.027,24h2.112l-.989-2.907A9.971,9.971,0,0,0,21.8,14H24V11A3,3,0,0,0,21.159,8.016ZM10,3a1,1,0,0,1,1-1h2a1,1,0,0,1,1,1V4H10ZM2,11a1,1,0,0,1,1-1H5a1,1,0,0,1,1,1v1H2Zm10,9a8.057,8.057,0,0,1-1.609-.166L12,15.1l1.609,4.73A8.057,8.057,0,0,1,12,20Zm3.5-.806-2.556-7.516a1,1,0,0,0-1.894,0L8.5,19.194A7.971,7.971,0,0,1,4.26,14H8V11A3,3,0,0,0,5.081,8.008,8.114,8.114,0,0,1,8,5.085V6h8V5.085a8.111,8.111,0,0,1,2.918,2.923A3,3,0,0,0,16,11v3h3.74A7.976,7.976,0,0,1,15.5,19.194ZM22,12H18V11a1,1,0,0,1,1-1h2a1,1,0,0,1,1,1Z"/></svg>
