<?xml version="1.0" encoding="UTF-8"?>
<svg xmlns="http://www.w3.org/2000/svg" id="Layer_1" data-name="Layer 1" viewBox="0 0 24 24" width="512" height="512"><path d="M23.63,3.845A2.024,2.024,0,0,0,21.988,3H18.444c.519-.847,1.1-2.892-.444-3a1,1,0,0,0-1,1,2,2,0,0,1-2,2H9A2,2,0,0,1,7,1,1,1,0,0,0,6,0c-1.548.109-.962,2.152-.444,3H2.012A2.008,2.008,0,0,0,.1,5.614,6.9,6.9,0,0,0,3.019,9.139c0,.035,3,12.065,3,12.065A2.994,2.994,0,0,0,9,24h6a2.994,2.994,0,0,0,2.979-2.8s3-12.03,3-12.065A6.9,6.9,0,0,0,23.9,5.615,1.937,1.937,0,0,0,23.63,3.845ZM18.38,7.962A5.108,5.108,0,0,0,13,13v5H11V13A5.108,5.108,0,0,0,5.62,7.962,9.858,9.858,0,0,1,8.342,4.99l7.3.01A9.812,9.812,0,0,1,18.38,7.962ZM2.012,5,5.333,5a12.177,12.177,0,0,0-1.6,2.221A4.709,4.709,0,0,1,2.012,5ZM6,10a2.974,2.974,0,0,1,1.032.194,1.507,1.507,0,0,0,1.774,1.774A2.974,2.974,0,0,1,9,13v5a2.974,2.974,0,0,0-1.6.472L5.263,9.929A5.427,5.427,0,0,0,6,10Zm9,12H9a1,1,0,0,1,0-2h6A1,1,0,0,1,15,22Zm1.6-3.528A2.974,2.974,0,0,0,15,18V13a2.974,2.974,0,0,1,.194-1.032,1.507,1.507,0,0,0,1.774-1.774,7.779,7.779,0,0,1,1.769-.265ZM20.264,7.215a12.087,12.087,0,0,0-1.615-2.24L22,4.97A4.779,4.779,0,0,1,20.264,7.215Z"/></svg>
