<svg id="Layer_1" height="512" viewBox="0 0 24 24" width="512" xmlns="http://www.w3.org/2000/svg" data-name="Layer 1"><path d="m12 0a12 12 0 1 0 12 12 12.013 12.013 0 0 0 -12-12zm5.812 15.485 1.766-.527-.572-1.916-1.833.546a8 8 0 0 1 -.173-1.588 7.986 7.986 0 0 1 .173-1.588l1.833.546.572-1.916-1.766-.527a7.972 7.972 0 0 1 2.067-2.651 9.936 9.936 0 0 1 0 12.272 7.972 7.972 0 0 1 -2.067-2.651zm-13.691-9.621a7.972 7.972 0 0 1 2.067 2.651l-1.766.527.572 1.916 1.833-.546a7.986 7.986 0 0 1 .173 1.588 8 8 0 0 1 -.173 1.588l-1.833-.546-.572 1.916 1.766.527a7.972 7.972 0 0 1 -2.067 2.651 9.936 9.936 0 0 1 0-12.272zm1.386 13.726a9.971 9.971 0 0 0 2.614-3.529l2.051.612.572-1.917-1.993-.6a10.02 10.02 0 0 0 .249-2.156 10.02 10.02 0 0 0 -.249-2.161l1.993-.6-.572-1.917-2.051.612a9.971 9.971 0 0 0 -2.614-3.524 9.952 9.952 0 0 1 12.986 0 9.971 9.971 0 0 0 -2.614 3.529l-2.051-.612-.572 1.917 1.993.6a9.5 9.5 0 0 0 0 4.322l-1.993.6.572 1.917 2.051-.612a9.971 9.971 0 0 0 2.614 3.529 9.952 9.952 0 0 1 -12.986 0z"/></svg>