<?xml version="1.0" encoding="UTF-8"?>
<svg xmlns="http://www.w3.org/2000/svg" id="Layer_1" data-name="Layer 1" viewBox="0 0 24 24" width="512" height="512"><path d="M16,8a7.974,7.974,0,0,0-5.974,2.7,6.882,6.882,0,0,0-1.495-.524L9.9,7.447a1,1,0,0,0-.043-.971A3.4,3.4,0,0,0,7,5,3.4,3.4,0,0,0,4.148,6.476a1,1,0,0,0-.043.971l1.364,2.727a7,7,0,1,0,5.866,12.312A8,8,0,1,0,16,8ZM11.234,19.63a5.946,5.946,0,0,1-.678-6.137,4.946,4.946,0,0,1,.678,6.137ZM2,17a4.987,4.987,0,0,1,6.879-4.627,7.957,7.957,0,0,0,.966,8.73A4.99,4.99,0,0,1,2,17Zm14,5a5.961,5.961,0,0,1-3.278-.981A6.963,6.963,0,0,0,11.7,11.826,6,6,0,1,1,16,22Z"/><path d="M10.553,4.895A1,1,0,0,0,11.9,4.447l1-2a1,1,0,1,0-1.79-.894l-1,2A1,1,0,0,0,10.553,4.895Z"/><path d="M2.105,4.447A1,1,0,1,0,3.9,3.553l-1-2a1,1,0,0,0-1.79.894Z"/><path d="M7,4A1,1,0,0,0,8,3V1A1,1,0,0,0,6,1V3A1,1,0,0,0,7,4Z"/></svg>
