<svg id="Layer_1" height="512" viewBox="0 0 24 24" width="512" xmlns="http://www.w3.org/2000/svg" data-name="Layer 1"><path d="m12 0a12 12 0 1 0 12 12 12.013 12.013 0 0 0 -12-12zm8.227 6.329a9.932 9.932 0 0 1 1.746 5.131l-2.736-1.927zm-5.516-3.945-2.711 1.97-2.711-1.97a9.762 9.762 0 0 1 5.422 0zm-.211 8.672-.952 2.944h-3.1l-.948-2.944 2.5-1.82zm-9.737-1.523-2.736 1.927a9.94 9.94 0 0 1 1.745-5.131zm-.756 8.452 3.475.015 1.085 3.38a10.034 10.034 0 0 1 -4.56-3.395zm6.836 3.942-1.901-5.927-6.111-.018a9.914 9.914 0 0 1 -.659-2.176l4.928-3.475-1.776-5.755a10.04 10.04 0 0 1 1.8-1.3l4.833 3.524-4.813 3.5 1.856 5.7h6l1.855-5.708-4.812-3.492 4.837-3.52a10.04 10.04 0 0 1 1.8 1.3l-1.78 5.751 4.931 3.474a9.9 9.9 0 0 1 -.659 2.175l-6.114.02-1.9 5.927a9.205 9.205 0 0 1 -2.314 0zm4.589-.547 1.086-3.38 3.475-.011a10.021 10.021 0 0 1 -4.561 3.391z"/></svg>