<?xml version="1.0" encoding="UTF-8"?>
<svg xmlns="http://www.w3.org/2000/svg" id="Layer_1" data-name="Layer 1" viewBox="0 0 24 24" width="512" height="512"><path d="M19,6H14.321A3.95,3.95,0,0,0,13,5.388V5l3.53-1.652a1,1,0,0,0,0-1.7l-3.2-1.5A1.637,1.637,0,0,0,11,1.636V5.388A3.937,3.937,0,0,0,9.68,6H5a5.006,5.006,0,0,0-5,5V21a3,3,0,0,0,3,3H21a3,3,0,0,0,3-3V11A5.006,5.006,0,0,0,19,6Zm2.816,4H19.657a3.017,3.017,0,0,1-2.121-.879L16.414,8H19A3,3,0,0,1,21.816,10ZM5,8H7.586L6.464,9.121A3.017,3.017,0,0,1,4.343,10H2.184A3,3,0,0,1,5,8Zm8,14H11V19a1,1,0,0,1,2,0Zm8,0H15V19a3,3,0,0,0-6,0v3H3a1,1,0,0,1-1-1V12H4.343a4.968,4.968,0,0,0,3.535-1.465l2.708-2.707a2,2,0,0,1,2.828,0l2.708,2.707A4.968,4.968,0,0,0,19.657,12H22v9A1,1,0,0,1,21,22ZM7,15a1,1,0,0,1-1,1H5a1,1,0,0,1,0-2H6A1,1,0,0,1,7,15Zm0,4a1,1,0,0,1-1,1H5a1,1,0,0,1,0-2H6A1,1,0,0,1,7,19Zm13-4a1,1,0,0,1-1,1H18a1,1,0,0,1,0-2h1A1,1,0,0,1,20,15Zm0,4a1,1,0,0,1-1,1H18a1,1,0,0,1,0-2h1A1,1,0,0,1,20,19Zm-6-7a2,2,0,1,1-2-2A2,2,0,0,1,14,12Z"/></svg>
