<?xml version="1.0" encoding="UTF-8"?>
<!-- Generator: Adobe Illustrator 25.0.0, SVG Export Plug-In . SVG Version: 6.00 Build 0)  -->
<svg xmlns="http://www.w3.org/2000/svg" xmlns:xlink="http://www.w3.org/1999/xlink" version="1.1" id="Layer_1" x="0px" y="0px" viewBox="0 0 512 512" style="enable-background:new 0 0 512 512;" xml:space="preserve" width="512" height="512">
<path d="M470.549,111.573L313.237,36.629c-34.628-20.684-77.728-21.051-112.704-0.96L41.451,111.573  c-0.597,0.299-1.216,0.619-1.792,0.96c-37.752,21.586-50.858,69.689-29.272,107.441c7.317,12.798,18.08,23.284,31.064,30.266  l43.883,20.907V375.68c0.026,46.743,30.441,88.039,75.072,101.931c31.059,8.985,63.264,13.384,95.595,13.056  c32.326,0.362,64.531-4,95.595-12.949c44.631-13.891,75.046-55.188,75.072-101.931V271.104l42.667-20.395v175.957  c0,11.782,9.551,21.333,21.333,21.333c11.782,0,21.333-9.551,21.333-21.333v-256C512.143,145.615,492.363,122.473,470.549,111.573z   M384,375.787c0.011,27.959-18.129,52.69-44.8,61.077c-27.046,7.728-55.073,11.479-83.2,11.136  c-28.127,0.343-56.154-3.408-83.2-11.136c-26.671-8.388-44.811-33.118-44.8-61.077v-84.309l70.763,33.707  c17.46,10.368,37.401,15.816,57.707,15.765c19.328,0.137,38.331-4.98,54.976-14.805L384,291.477V375.787z M452.267,211.733  l-160.896,76.8c-22.434,13.063-50.241,12.693-72.32-0.96l-157.419-74.88c-17.547-9.462-24.101-31.357-14.639-48.903  c3.2-5.934,7.998-10.853,13.85-14.201l159.893-76.373c22.441-13.034,50.233-12.665,72.32,0.96l157.312,74.944  c11.569,6.424,18.807,18.555,18.965,31.787C469.354,193.441,462.9,205.097,452.267,211.733L452.267,211.733z"/>
</svg>
