<svg id="Layer_1" height="512" viewBox="0 0 24 24" width="512" xmlns="http://www.w3.org/2000/svg" data-name="Layer 1"><path d="m12 0a12 12 0 1 0 12 12 12.013 12.013 0 0 0 -12-12zm3.254 7.332a9.927 9.927 0 0 1 -2.2-5.275 9.951 9.951 0 0 1 5.266 2.2zm-1.418 1.418-1.836 1.836-6.324-6.324a9.956 9.956 0 0 1 5.377-2.214 11.933 11.933 0 0 0 2.783 6.702zm-3.25 3.25-1.837 1.837a11.921 11.921 0 0 0 -6.7-2.784 9.956 9.956 0 0 1 2.213-5.377zm-3.254 3.254-3.07 3.07a9.951 9.951 0 0 1 -2.2-5.266 9.927 9.927 0 0 1 5.27 2.196zm1.414 1.414a9.927 9.927 0 0 1 2.2 5.275 9.951 9.951 0 0 1 -5.266-2.205zm1.417-1.417 1.837-1.837 6.324 6.324a9.948 9.948 0 0 1 -5.377 2.214 11.921 11.921 0 0 0 -2.784-6.701zm3.251-3.251 1.836-1.836a11.933 11.933 0 0 0 6.7 2.783 9.956 9.956 0 0 1 -2.214 5.377zm3.254-3.254 3.07-3.07a9.951 9.951 0 0 1 2.205 5.266 9.935 9.935 0 0 1 -5.275-2.196z"/></svg>