<?xml version="1.0" encoding="UTF-8"?>
<svg xmlns="http://www.w3.org/2000/svg" id="Layer_1" data-name="Layer 1" viewBox="0 0 24 24" width="512" height="512"><path d="M22,18v2.586l-3.06-3.06C21.063,15.281,23,12.534,23,9.95A5.745,5.745,0,0,0,17.5,4,5.913,5.913,0,0,0,13,6.47,5.912,5.912,0,0,0,8.5,4a5.113,5.113,0,0,0-2.453.633L1.414,0,0,1.414,4.484,5.9A6.187,6.187,0,0,0,3,9.95c0,5.4,8.458,11.547,9.422,12.23l.578.409.578-.409a40.353,40.353,0,0,0,3.943-3.245L20.586,22H18v2h4a2,2,0,0,0,2-2V18Zm-9,2.129C9.042,17.2,5,12.915,5,9.95A3.75,3.75,0,0,1,8.5,6c2.2,0,3.593,2.7,3.605,2.72L13,10.492l.9-1.769C13.907,8.7,15.3,6,17.5,6A3.75,3.75,0,0,1,21,9.95C21,12.914,16.957,17.2,13,20.129Z"/></svg>
