<svg id="Layer_1" height="512" viewBox="0 0 24 24" width="512" xmlns="http://www.w3.org/2000/svg" data-name="Layer 1"><path d="m21 24h-18v-3a12.2 12.2 0 0 1 4.442-9 12.2 12.2 0 0 1 -4.442-9 3 3 0 0 1 3-3h12a3 3 0 0 1 3 3 12.221 12.221 0 0 1 -4.425 9 12.221 12.221 0 0 1 4.425 9zm-16-2h14v-1c0-3.774-2.5-6.552-4.592-8.217l-.984-.783.984-.783c2.092-1.665 4.592-4.443 4.592-8.217a1 1 0 0 0 -1-1h-12a1 1 0 0 0 -1 1c0 3.773 2.508 6.551 4.611 8.216l.989.784-.992.784c-2.1 1.665-4.608 4.443-4.608 8.216z"/></svg>