<?xml version="1.0" encoding="UTF-8"?>
<svg xmlns="http://www.w3.org/2000/svg" id="Layer_1" data-name="Layer 1" viewBox="0 0 24 24" width="512" height="512"><path d="M24,22H22V12a3,3,0,0,0-3-3H13V5.794a2.536,2.536,0,0,0,1.537-2.331C14.537,2.062,12,0,12,0S9.463,2.062,9.463,3.463A2.536,2.536,0,0,0,11,5.794V9H5a3,3,0,0,0-3,3V22H0v2H24ZM5,11H19a1,1,0,0,1,1,1v2.98c-.936-.1-1.5-.7-1.5-.98h-2c0,.343-.682,1-1.75,1C13.661,15,13,14.306,13,14H11c0,.343-.682,1-1.75,1-1.089,0-1.75-.694-1.75-1h-2c0,.315-.579.888-1.5.981V12A1,1,0,0,1,5,11ZM4,16.979A4.156,4.156,0,0,0,6.5,16a4.309,4.309,0,0,0,5.5.015A4.309,4.309,0,0,0,17.5,16a4.156,4.156,0,0,0,2.5.978V22H4Z"/></svg>
