<svg id="Layer_1" height="512" viewBox="0 0 24 24" width="512" xmlns="http://www.w3.org/2000/svg" data-name="Layer 1"><path d="m23.1.9a3.139 3.139 0 0 0 -4.33 0l-11.207 11.2a5.548 5.548 0 0 0 -1.058-.1 5.457 5.457 0 0 0 -3.885 1.609c-1.92 1.924-2.434 8.019-2.52 9.221l-.076 1.146 1.145-.08c1.2-.082 7.3-.593 9.222-2.516a5.494 5.494 0 0 0 1.5-4.941l11.209-11.209a3.068 3.068 0 0 0 0-4.33zm-14.123 19.066c-.93.929-4.267 1.56-6.774 1.83.283-2.6.943-5.884 1.831-6.773a3.5 3.5 0 0 1 4.943 4.943zm12.711-16.15-10.621 10.622a5.378 5.378 0 0 0 -1.5-1.508l10.617-10.618a1.086 1.086 0 0 1 1.5 0 1.062 1.062 0 0 1 .004 1.504z"/></svg>