<?xml version="1.0" encoding="UTF-8"?>
<svg xmlns="http://www.w3.org/2000/svg" viewBox="0 0 24 24" width="512" height="512"><g id="_01_align_center" data-name="01 align center"><path d="M18.965,8.464l5.029-5.029L22.565,2.006,17.519,7.051,15.313,4.895a2.011,2.011,0,0,0-2.724-.073A19.71,19.71,0,0,1,6.226,8.687L-.006,10.514v.756A12.892,12.892,0,0,0,13.006,24.006h1.241l.261-.182a14.98,14.98,0,0,0,6.886-12.081,2.013,2.013,0,0,0-.611-1.5ZM13.9,6.34l5.477,5.341a12.652,12.652,0,0,1-.456,3.015L11.941,7.9A24.691,24.691,0,0,0,13.9,6.34Zm-.294,15.645h-.6a11.153,11.153,0,0,1-4.293-.859,11.55,11.55,0,0,0,4.348-3.8l.518-.76L11.91,15.43l-.518.761A9.539,9.539,0,0,1,7.8,19.324l-1.229.618a10.9,10.9,0,0,1-2.585-2.563,11.632,11.632,0,0,0,4.357-2.657L6.932,13.277a9.611,9.611,0,0,1-3.974,2.317,10.4,10.4,0,0,1-.921-3.575l4.755-1.394a15.234,15.234,0,0,0,3.423-1.59l7.911,7.7A14.1,14.1,0,0,1,13.608,21.985Z"/></g></svg>
