<?xml version="1.0" encoding="UTF-8"?>
<svg xmlns="http://www.w3.org/2000/svg" id="Layer_1" data-name="Layer 1" viewBox="0 0 24 24" width="512" height="512"><path d="M15.937,8.283a4.021,4.021,0,0,1-2.009,4.222A2.345,2.345,0,0,0,13,14.257V15H11v-.743a4.311,4.311,0,0,1,1.962-3.5,2,2,0,0,0,1.005-2.125,2.024,2.024,0,0,0-1.6-1.6A2,2,0,0,0,10,9H8A3.991,3.991,0,0,1,9.429,5.936a4,4,0,0,1,6.508,2.347ZM22,5.467v6.524c0,7.437-7.047,10.849-9.207,11.717l-.835.336-.8-.4C9.005,22.567,2,18.554,2,11.991V5.467A2.992,2.992,0,0,1,4.054,2.625L12-.01l7.946,2.635A2.992,2.992,0,0,1,22,5.467Zm-2,0a1,1,0,0,0-.684-.944L12,2.1,4.684,4.523A1,1,0,0,0,4,5.467v6.524c0,5.416,6.159,8.917,8.047,9.862C13.913,21.1,20,18.174,20,11.991ZM11,19h2V17H11Z"/></svg>
