<?xml version="1.0" encoding="UTF-8"?>
<svg xmlns="http://www.w3.org/2000/svg" id="Layer_1" data-name="Layer 1" viewBox="0 0 24 24" width="512" height="512"><path d="M22.407,16.462C20.187,14.241,16.359,13.013,12,13c-4.365.021-8.254,1.314-10.4,3.462A5.327,5.327,0,0,0,0,20.25V24H8V19.744A10.941,10.941,0,0,1,11.94,19H12A11.652,11.652,0,0,1,16,19.755V24h8V20.251A5.328,5.328,0,0,0,22.407,16.462ZM22,22H18V18.417l-.607-.26A13.865,13.865,0,0,0,12.005,17a13.075,13.075,0,0,0-5.413,1.164L6,18.429V22H2V20.249a3.339,3.339,0,0,1,1.007-2.373c1.758-1.757,5.205-2.858,9-2.876s7.17,1.057,8.988,2.876A3.339,3.339,0,0,1,22,20.25ZM5,8H3V3.471A2.488,2.488,0,0,1,5.5,1H10V3H6.439l5.906,5.926a.22.22,0,0,0,.157.065h0a.218.218,0,0,0,.156-.064l6.884-6.884,1.414,1.414-6.884,6.884a2.2,2.2,0,0,1-1.57.65h0a2.206,2.206,0,0,1-1.572-.653L5,4.389Z"/></svg>
