<?xml version="1.0" encoding="UTF-8"?>
<svg xmlns="http://www.w3.org/2000/svg" id="Layer_1" data-name="Layer 1" viewBox="0 0 24 24" width="512" height="512"><path d="M17.566,24H13V15a1,1,0,0,0-2,0v9H6.434l-.291-.485C3.283,18.748,0,12.45,0,6A5.785,5.785,0,0,1,6,0,12.8,12.8,0,0,1,9.915.615,7.037,7.037,0,0,0,12,1,7.037,7.037,0,0,0,14.085.615,12.792,12.792,0,0,1,18,0a5.785,5.785,0,0,1,6,6c0,6.45-3.282,12.748-6.143,17.515ZM15,22h1.432C19.086,17.519,22,11.749,22,6a3.85,3.85,0,0,0-4-4,10.752,10.752,0,0,0-3.358.536A8.959,8.959,0,0,1,12,3a8.953,8.953,0,0,1-2.642-.464A10.758,10.758,0,0,0,6,2C2.045,2,2,5.837,2,6c0,5.749,2.914,11.519,5.568,16H9V15a3,3,0,0,1,6,0Z"/></svg>
