<svg id="Layer_1" height="512" viewBox="0 0 24 24" width="512" xmlns="http://www.w3.org/2000/svg" data-name="Layer 1"><path d="m21 18a2.986 2.986 0 0 0 -2.077.844l-2.96-1.481a2.9 2.9 0 0 0 .037-.363 2.9 2.9 0 0 0 -.037-.363l2.96-1.481a2.994 2.994 0 1 0 -.923-2.156 2.9 2.9 0 0 0 .037.363l-2.96 1.481a3 3 0 1 0 0 4.312l2.96 1.481a2.9 2.9 0 0 0 -.037.363 3 3 0 1 0 3-3zm0-6a1 1 0 1 1 -1 1 1 1 0 0 1 1-1zm-8 6a1 1 0 1 1 1-1 1 1 0 0 1 -1 1zm8 4a1 1 0 1 1 1-1 1 1 0 0 1 -1 1zm-9 0a1 1 0 0 1 -1 1h-5.321a5.841 5.841 0 0 1 -5.622-4.7 5.443 5.443 0 0 1 2.885-5.651 7.652 7.652 0 0 1 -.8-5.18 8 8 0 0 1 15.49-.842 1.09 1.09 0 0 0 .722.735 1 1 0 1 1 -.588 1.911 3.1 3.1 0 0 1 -2.044-2.053 6 6 0 1 0 -11.06 4.513 1.994 1.994 0 0 1 -.792 2.686 3.468 3.468 0 0 0 -1.835 3.6 3.807 3.807 0 0 0 3.644 2.981h5.321a1 1 0 0 1 1 1z"/></svg>