<?xml version="1.0" encoding="UTF-8"?>
<!-- Generator: Adobe Illustrator 25.0.0, SVG Export Plug-In . SVG Version: 6.00 Build 0)  -->
<svg xmlns="http://www.w3.org/2000/svg" xmlns:xlink="http://www.w3.org/1999/xlink" version="1.1" id="Layer_1" x="0px" y="0px" viewBox="0 0 512 512" style="enable-background:new 0 0 512 512;" xml:space="preserve" width="512" height="512">
<path d="M235.499,469.333V512h42.667v-42.667h210.517L389.12,320h56.896l-85.333-128h46.784c0,0-82.369-131.335-112.085-173.589  c-0.64-0.91-2.027-2.653-2.773-3.477c-17.333-19.153-55.608-20.538-71.573,0L105.515,192h47.445L67.627,320h56.875L24.96,469.333  H235.499z M147.349,277.333l85.333-128h-48.576l68.416-105.323c2.429-2.173,6.104-2.173,8.533,0l68.032,105.323H280.96l85.333,128  h-56.96l99.563,149.333H104.683l99.563-149.333H147.349z"/>
<circle cx="214.144" cy="362.667" r="21.333"/>
<circle cx="299.477" cy="384" r="21.333"/>
<circle cx="256.811" cy="298.667" r="21.333"/>
<circle cx="235.477" cy="213.333" r="21.333"/>
</svg>
