<svg id="Layer_1" height="512" viewBox="0 0 24 24" width="512" xmlns="http://www.w3.org/2000/svg" data-name="Layer 1"><path d="m12 0a12 12 0 1 0 12 12 12.013 12.013 0 0 0 -12-12zm10 12a10 10 0 0 1 -.186 1.9l-1.932-.58a7.442 7.442 0 0 0 0-2.64l1.932-.58a10 10 0 0 1 .186 1.9zm-.76-3.816-1.93.579a8.048 8.048 0 0 0 -4.073-4.073l.579-1.93a10.058 10.058 0 0 1 5.424 5.424zm-9.24 9.816a6 6 0 1 1 6-6 6.006 6.006 0 0 1 -6 6zm1.9-15.814-.58 1.932a7.442 7.442 0 0 0 -2.64 0l-.58-1.932a9.8 9.8 0 0 1 3.8 0zm-5.716.574.579 1.93a8.048 8.048 0 0 0 -4.073 4.073l-1.93-.579a10.058 10.058 0 0 1 5.424-5.424zm-6.184 9.24a10 10 0 0 1 .186-1.9l1.932.58a7.442 7.442 0 0 0 0 2.64l-1.932.58a10 10 0 0 1 -.186-1.9zm.76 3.816 1.93-.579a8.048 8.048 0 0 0 4.073 4.073l-.579 1.93a10.058 10.058 0 0 1 -5.424-5.424zm7.34 6 .58-1.932a7.442 7.442 0 0 0 2.64 0l.58 1.932a9.8 9.8 0 0 1 -3.8 0zm5.716-.575-.579-1.929a8.048 8.048 0 0 0 4.073-4.073l1.93.579a10.053 10.053 0 0 1 -5.424 5.421zm-3.816-13.241 3 4-3 4-3-4z"/></svg>