<svg id="Layer_1" height="512" viewBox="0 0 24 24" width="512" xmlns="http://www.w3.org/2000/svg" data-name="Layer 1"><path d="m23.245.758a2.566 2.566 0 0 0 -2.206-.731 29.392 29.392 0 0 0 -15.783 7.842 7.754 7.754 0 0 0 -2.247 5.836 7.636 7.636 0 0 0 1.569 4.3l-4.535 4.538 1.414 1.414 4.534-4.534a7.436 7.436 0 0 0 4.6 1.571 8.2 8.2 0 0 0 5.909-2.553 29.709 29.709 0 0 0 7.475-15.5 2.546 2.546 0 0 0 -.73-2.183zm-18.238 12.85a5.748 5.748 0 0 1 1.665-4.327c.433-.434.878-.835 1.328-1.22v6.525l-1.99 1.99a5.671 5.671 0 0 1 -1.003-2.968zm10.047 3.451a5.912 5.912 0 0 1 -7.627.928l4.987-4.987h5.747a24.108 24.108 0 0 1 -3.107 4.059zm6.939-14.4a28.762 28.762 0 0 1 -2.716 8.341h-4.863l3.543-3.543-1.414-1.414-6.543 6.543v-6.069a28.429 28.429 0 0 1 11.327-4.511.651.651 0 0 1 .088-.006.587.587 0 0 1 .417.173.559.559 0 0 1 .161.483z"/></svg>