<svg id="Layer_1" height="512" viewBox="0 0 24 24" width="512" xmlns="http://www.w3.org/2000/svg" data-name="Layer 1"><path d="m21.261 2.739a9.836 9.836 0 0 0 -12.961-.625 4.489 4.489 0 1 0 -4.167 6.849 9.762 9.762 0 0 0 .843 5.816.486.486 0 0 1 -.081.578l-3.613 2.8a3.363 3.363 0 0 0 -1.282 2.409 2.824 2.824 0 0 0 .853 2.151l.445.422a2.836 2.836 0 0 0 2.126.861 2.959 2.959 0 0 0 2.232-1.08l2.958-3.779a.5.5 0 0 1 .6-.119 10.194 10.194 0 0 0 11.659-2.147 10.5 10.5 0 0 0 3.127-7.117 9.412 9.412 0 0 0 -2.739-7.019zm-19.261 1.761a2.5 2.5 0 1 1 2.5 2.5 2.5 2.5 0 0 1 -2.5-2.5zm8.1 12.726a2.5 2.5 0 0 0 -3.037.657l-2.963 3.78a.945.945 0 0 1 -1.407.044l-.444-.422a.82.82 0 0 1 -.249-.63 1.372 1.372 0 0 1 .535-.944l3.612-2.8a2.49 2.49 0 0 0 .624-3.011 7.736 7.736 0 0 1 -.691-4.4l8.42 8.413a7.69 7.69 0 0 1 -4.4-.687zm9.364-1.765a8.732 8.732 0 0 1 -2.776 1.854l.022-.022-9.35-9.348a4.473 4.473 0 0 0 1.64-3.445c0-.119-.026-.231-.035-.347a8.01 8.01 0 0 1 10.882 0 7.423 7.423 0 0 1 2.153 5.547 8.5 8.5 0 0 1 -2.539 5.761z"/></svg>