<?xml version="1.0" encoding="UTF-8"?>
<svg xmlns="http://www.w3.org/2000/svg" id="Layer_1" data-name="Layer 1" viewBox="0 0 24 24" width="512" height="512"><path d="M17.242,6.192A7.376,7.376,0,0,0,18.989.934L18.925.075,18.066.011A7.361,7.361,0,0,0,12.807,1.76a5.088,5.088,0,0,0-.577.7A15.457,15.457,0,0,0,11.19.052L9.435,1.01A13.307,13.307,0,0,1,10.953,6H8.5A8.771,8.771,0,0,0,0,15c-.107,6.331,6.417,10.953,12,8.2,5.584,2.752,12.107-1.869,12-8.2A8.9,8.9,0,0,0,17.242,6.192ZM14.221,3.174a4.6,4.6,0,0,1,2.738-1.133,4.6,4.6,0,0,1-1.133,2.738,4.781,4.781,0,0,1-2.771,1.166A4.781,4.781,0,0,1,14.221,3.174ZM15.5,22a6.063,6.063,0,0,1-3.009-.8L12,20.924l-.491.278C7.2,23.7,1.907,20.061,2,15A6.772,6.772,0,0,1,8.5,8h7C24.1,8.321,24.1,21.682,15.5,22Z"/></svg>
