<svg id="Layer_1" height="512" viewBox="0 0 24 24" width="512" xmlns="http://www.w3.org/2000/svg" data-name="Layer 1"><path d="m21.835 2.165a7.389 7.389 0 0 0 -10.451 0l-9.219 9.219a7.39 7.39 0 1 0 10.451 10.451l9.219-9.219a7.389 7.389 0 0 0 0-10.451zm-1.414 9.035-9.221 9.221a5.39 5.39 0 1 1 -7.621-7.621l9.221-9.221a5.39 5.39 0 1 1 7.621 7.621zm-2.128-2.907 1.414 1.414-3 3-1.414-1.414.793-.793-2.586-2.586-.793.793-1.414-1.414 3-3 1.414 1.414-.793.793 2.586 2.586zm-7 7 1.414 1.414-3 3-1.414-1.414.793-.793-2.586-2.586-.793.793-1.414-1.414 3-3 1.414 1.414-.793.793 2.586 2.586z"/></svg>