<svg id="Layer_1" height="512" viewBox="0 0 24 24" width="512" xmlns="http://www.w3.org/2000/svg" data-name="Layer 1"><path d="m24 18v1a5.006 5.006 0 0 1 -5 5h-1a1 1 0 0 1 0-2h1a3 3 0 0 0 3-3v-1a1 1 0 0 1 2 0zm-5-18h-1a1 1 0 0 0 0 2h1a3 3 0 0 1 3 3v1a1 1 0 0 0 2 0v-1a5.006 5.006 0 0 0 -5-5zm4 9a1 1 0 0 0 -1 1v4a1 1 0 0 0 2 0v-4a1 1 0 0 0 -1-1zm-17 13h-1a3 3 0 0 1 -3-3v-1a1 1 0 0 0 -2 0v1a5.006 5.006 0 0 0 5 5h1a1 1 0 0 0 0-2zm0-22h-1a5.006 5.006 0 0 0 -5 5v1a1 1 0 0 0 2 0v-1a3 3 0 0 1 3-3h1a1 1 0 0 0 0-2zm-5 15a1 1 0 0 0 1-1v-4a1 1 0 0 0 -2 0v4a1 1 0 0 0 1 1zm9-13h3.932a1 1 0 0 0 0-2h-3.932a1 1 0 0 0 0 2zm4 20h-4a1 1 0 0 0 0 2h4a1 1 0 0 0 0-2z"/></svg>