<?xml version="1.0" encoding="UTF-8"?>
<svg xmlns="http://www.w3.org/2000/svg" id="Layer_1" data-name="Layer 1" viewBox="0 0 24 24" width="512" height="512"><path d="M16.5,17a3.5,3.5,0,0,0-3.235,2.174,4.685,4.685,0,0,0-2.53,0,3.494,3.494,0,1,0,.193,2.033A3.52,3.52,0,0,1,12,21a3.514,3.514,0,0,1,1.072.207A3.5,3.5,0,1,0,16.5,17Zm-9,5A1.5,1.5,0,1,1,9,20.5,1.5,1.5,0,0,1,7.5,22Zm9,0A1.5,1.5,0,1,1,18,20.5,1.5,1.5,0,0,1,16.5,22ZM19.977,8.9C19.635.11,15.2,0,15,0a4.587,4.587,0,0,0-3,1.3A4.585,4.585,0,0,0,9,0C8.8,0,4.365.11,4.023,8.9,1.363,9.619,0,10.657,0,12c0,3.157,7.543,4,12,4s12-.843,12-4C24,10.657,22.637,9.619,19.977,8.9ZM8.989,2a2.556,2.556,0,0,1,2.116,1.447L12,5.236,12.9,3.447A2.565,2.565,0,0,1,14.97,2c.029,0,2.847.272,3.021,7.308A20.978,20.978,0,0,1,12,10a21.053,21.053,0,0,1-5.992-.694C6.183,2.271,9,2,8.989,2ZM12,14c-6.044,0-9.727-1.329-10.006-1.958.065-.164.666-.7,2.471-1.191l.088.044C4.643,10.939,6.823,12,12,12s7.356-1.061,7.447-1.105l.088-.044a5.553,5.553,0,0,1,2.471,1.107C21.727,12.671,18.044,14,12,14Z"/></svg>
