<?xml version="1.0" encoding="UTF-8"?>
<svg xmlns="http://www.w3.org/2000/svg" id="Layer_1" data-name="Layer 1" viewBox="0 0 24 24" width="512" height="512"><path d="M16,8a7.974,7.974,0,0,0-5.974,2.7,6.882,6.882,0,0,0-1.495-.524L10.217,6.8,8.414,5H5.586l-1.8,1.8,1.686,3.371a7,7,0,1,0,5.866,12.312A8,8,0,1,0,16,8ZM11.234,19.63a5.946,5.946,0,0,1-.678-6.137,4.946,4.946,0,0,1,.678,6.137ZM2,17a4.987,4.987,0,0,1,6.879-4.627,7.957,7.957,0,0,0,.966,8.73A4.99,4.99,0,0,1,2,17Zm14,5a5.961,5.961,0,0,1-3.278-.981A6.963,6.963,0,0,0,11.7,11.826,6,6,0,1,1,16,22Z"/><rect x="9.238" y="1.144" width="3.236" height="2" transform="translate(1.663 8.304) rotate(-45)"/><rect x="2.125" y="0.534" width="2" height="3.182" transform="translate(-0.587 2.832) rotate(-45)"/><rect x="6" width="2" height="3"/></svg>
