<?xml version="1.0" encoding="UTF-8"?>
<svg xmlns="http://www.w3.org/2000/svg" viewBox="0 0 24 24" width="512" height="512"><g id="_01_align_center" data-name="01 align center"><path d="M10.931,2.75a3.728,3.728,0,0,0-7.195,0H0v2H3.736a3.728,3.728,0,0,0,7.195,0H24v-2ZM7.333,5.5a1.75,1.75,0,1,1,1.75-1.75A1.753,1.753,0,0,1,7.333,5.5Z"/><path d="M16.667,8.25A3.745,3.745,0,0,0,13.07,11H0v2H13.07a3.727,3.727,0,0,0,7.194,0H24V11H20.264A3.745,3.745,0,0,0,16.667,8.25Zm0,5.5A1.75,1.75,0,1,1,18.417,12,1.752,1.752,0,0,1,16.667,13.75Z"/><path d="M7.333,16.5a3.745,3.745,0,0,0-3.6,2.75H0v2H3.736a3.728,3.728,0,0,0,7.195,0H24v-2H10.931A3.745,3.745,0,0,0,7.333,16.5Zm0,5.5a1.75,1.75,0,1,1,1.75-1.75A1.753,1.753,0,0,1,7.333,22Z"/></g></svg>
