<?xml version="1.0" encoding="UTF-8"?>
<svg xmlns="http://www.w3.org/2000/svg" id="Layer_1" data-name="Layer 1" viewBox="0 0 24 24" width="512" height="512"><path d="M23.018,8.785a3.01,3.01,0,0,0-4.254.2l-3.217,3.535A3.144,3.144,0,0,0,12.857,11H3a3,3,0,0,0-3,3v7a3,3,0,0,0,3,3H13.448l9.787-10.985A3.022,3.022,0,0,0,23.018,8.785Zm-1.276,2.9L12.552,22H3a1,1,0,0,1-1-1V14a1,1,0,0,1,1-1h9.857a1.142,1.142,0,0,1,.163,2.273l-5.162.737.284,1.98,5.161-.738a3.156,3.156,0,0,0,2.513-2.058l4.427-4.864a1,1,0,0,1,.7-.329,1.029,1.029,0,0,1,.728.262A1.015,1.015,0,0,1,21.742,11.684ZM10.423,9.15,11,9.559l.577-.409C12.03,8.83,16,5.942,16,3.2A3.109,3.109,0,0,0,13,0a3.009,3.009,0,0,0-2,.727A3.009,3.009,0,0,0,9,0,3.109,3.109,0,0,0,6,3.2C6,5.942,9.97,8.83,10.423,9.15ZM9,2a.94.94,0,0,1,1,1h2a.94.94,0,0,1,1-1,1.115,1.115,0,0,1,1,1.2c0,1.074-1.6,2.768-3,3.881-1.24-1-3-2.727-3-3.881A1.115,1.115,0,0,1,9,2Z"/></svg>
