<?xml version="1.0" encoding="UTF-8"?>
<svg xmlns="http://www.w3.org/2000/svg" id="Layer_1" data-name="Layer 1" viewBox="0 0 24 24" width="512" height="512"><path d="M19,23a1,1,0,0,1-1,1H1a1,1,0,0,1,0-2H18A1,1,0,0,1,19,23ZM24,8c0,2.774-2.185,6-5,6H17.388l-.3,1.821A4.984,4.984,0,0,1,12.152,20h-5.3a4.984,4.984,0,0,1-4.932-4.179L.056,4.657A4,4,0,0,1,4,0H15a3.968,3.968,0,0,1,3.983,4H19C22.131,4,24,5.5,24,8ZM16.972,4.329A2,2,0,0,0,15,2H4A2,2,0,0,0,2.028,4.328L3.889,15.493A2.991,2.991,0,0,0,6.848,18h5.3a2.991,2.991,0,0,0,2.959-2.507ZM22,8c0-.5,0-2-3-2h-.279l-1,6H19C20.545,12,22,9.746,22,8Z"/></svg>
