<?xml version="1.0" encoding="UTF-8"?>
<svg xmlns="http://www.w3.org/2000/svg" id="Layer_1" data-name="Layer 1" viewBox="0 0 24 24" width="512" height="512"><path d="M22,0H17a2,2,0,0,0-2,2V8.948a2.051,2.051,0,0,0,3.331,1.6L19.5,9.613l1.169.936A2.051,2.051,0,0,0,24,8.948V2A2,2,0,0,0,22,0Zm-.081,8.987L20.125,7.552a1,1,0,0,0-1.25,0L17,8.948V2h5ZM24,14v5a5.006,5.006,0,0,1-5,5H5a5.006,5.006,0,0,1-5-5V8A5.006,5.006,0,0,1,5,3h7a1,1,0,0,1,0,2H5A2.99,2.99,0,0,0,2.361,6.6l7.517,7.518a3.075,3.075,0,0,0,4.243,0l.858-.837a1,1,0,1,1,1.4,1.43l-.849.829a5.025,5.025,0,0,1-7.062-.008L2,9.071V19a3,3,0,0,0,3,3H19a3,3,0,0,0,3-3V14A1,1,0,0,1,24,14Z"/></svg>
