<?xml version="1.0" encoding="UTF-8"?>
<svg xmlns="http://www.w3.org/2000/svg" id="Layer_1" data-name="Layer 1" viewBox="0 0 24 24" width="512" height="512"><path d="M23,20H14.816A3,3,0,0,0,13,18.184V15h4a4,4,0,0,0,4-4V6a4,4,0,0,0-4-4H12.621a1,1,0,0,1-.565-.175h0L10.17.528A2.992,2.992,0,0,0,8.47,0H7A4,4,0,0,0,3,4v7a4,4,0,0,0,4,4h4v3.184A3,3,0,0,0,9.184,20H1a1,1,0,0,0,0,2H9.184a2.982,2.982,0,0,0,5.632,0H23a1,1,0,0,0,0-2ZM7,2H8.47a1,1,0,0,1,.567.176l1.884,1.3a2.983,2.983,0,0,0,1.7.529H17a2,2,0,0,1,2,2H5V4A2,2,0,0,1,7,2ZM5,11V8H19v3a2,2,0,0,1-2,2H7A2,2,0,0,1,5,11Zm7,11a1,1,0,1,1,1-1A1,1,0,0,1,12,22Z"/></svg>
