<?xml version="1.0" encoding="UTF-8"?>
<svg xmlns="http://www.w3.org/2000/svg" id="Layer_1" data-name="Layer 1" viewBox="0 0 24 24" width="512" height="512"><path d="M18.76,16a5.207,5.207,0,0,0-3.707,1.535l-3,3A4.971,4.971,0,0,1,8.517,22H3.123a1.121,1.121,0,0,1-.793-1.914L5.52,16.9l13.253-3.535A3,3,0,0,0,21,10.464V3a3,3,0,0,0-3-3H10.536a3,3,0,0,0-2.9,2.227L4.1,15.485.916,18.672A3.121,3.121,0,0,0,3.123,24H8.517a6.955,6.955,0,0,0,4.95-2.051l3-3A3.243,3.243,0,0,1,22,21.242V24h2V21.242A5.249,5.249,0,0,0,18.76,16ZM19,3.416v6.17L15.915,6.5ZM14.5,5.087,11.414,2h6.174Zm3.566,6.394L8.342,14.074,14.5,7.915ZM9.519,2.933,13.087,6.5,6.925,12.663Z"/></svg>
