<?xml version="1.0" encoding="UTF-8"?>
<svg xmlns="http://www.w3.org/2000/svg" id="Layer_1" data-name="Layer 1" viewBox="0 0 24 24" width="512" height="512"><path d="M16.225,24H7.774l-.2-.1A14.108,14.108,0,0,1,.042,13.485,2.968,2.968,0,0,1,.705,11.07,3.012,3.012,0,0,1,3.009,10H20.99a3.009,3.009,0,0,1,2.3,1.07,2.968,2.968,0,0,1,.665,2.415A14.112,14.112,0,0,1,16.427,23.9Zm-8-2H15.77a12.309,12.309,0,0,0,6.215-8.849.96.96,0,0,0-.219-.79A1.013,1.013,0,0,0,20.99,12H3.009a1.012,1.012,0,0,0-.776.361.963.963,0,0,0-.22.79A12.313,12.313,0,0,0,8.229,22ZM12,6.414a4.386,4.386,0,0,0-1.293-3.122A2.39,2.39,0,0,1,10,1.586V0H8V1.586A4.384,4.384,0,0,0,9.292,4.707,2.429,2.429,0,0,1,10,6.414V8h2Zm4-1a4.381,4.381,0,0,0-1.293-3.121A2.432,2.432,0,0,1,14,.586V0H12V.586a4.451,4.451,0,0,0,1.292,3.122A2.394,2.394,0,0,1,14,5.414V7h2Z"/></svg>
