<?xml version="1.0" encoding="UTF-8"?>
<svg xmlns="http://www.w3.org/2000/svg" id="Layer_1" data-name="Layer 1" viewBox="0 0 24 24" width="512" height="512"><path d="M17,24H7.005a4.014,4.014,0,0,1-3.044-1.4,3.94,3.94,0,0,1-.917-3.158A12.522,12.522,0,0,1,7.445,12a12.522,12.522,0,0,1-4.4-7.444A3.94,3.94,0,0,1,3.961,1.4,4.014,4.014,0,0,1,7.005,0H17a4.017,4.017,0,0,1,3.044,1.4,3.943,3.943,0,0,1,.918,3.155A12.556,12.556,0,0,1,16.551,12a12.557,12.557,0,0,1,4.406,7.448,3.944,3.944,0,0,1-.918,3.156A4.017,4.017,0,0,1,17,24ZM17,2H7.005a2.015,2.015,0,0,0-1.528.7,1.921,1.921,0,0,0-.456,1.556c.376,2.5,1.924,4.84,4.6,6.957a1,1,0,0,1,0,1.568C6.945,14.9,5.4,17.242,5.021,19.741A1.921,1.921,0,0,0,5.477,21.3a2.015,2.015,0,0,0,1.528.7H17a2.014,2.014,0,0,0,1.528-.7,1.917,1.917,0,0,0,.456-1.554c-.373-2.487-1.92-4.829-4.6-6.962a1,1,0,0,1,0-1.564c2.681-2.133,4.228-4.475,4.6-6.963A1.916,1.916,0,0,0,18.523,2.7,2.014,2.014,0,0,0,17,2ZM15.681,20H8.318a1,1,0,0,1-.927-1.374,11.185,11.185,0,0,1,3.471-4.272l.518-.412a1,1,0,0,1,1.245,0l.509.406a11.3,11.3,0,0,1,3.473,4.276A1,1,0,0,1,15.681,20Zm-5.647-2h3.928A11.57,11.57,0,0,0,12,16,11.3,11.3,0,0,0,10.034,18Z"/></svg>
