<?xml version="1.0" encoding="UTF-8"?>
<svg xmlns="http://www.w3.org/2000/svg" id="Layer_1" data-name="Layer 1" viewBox="0 0 24 24" width="512" height="512"><path d="M7,13H.009V11H5.077a6.9,6.9,0,0,1,.441-1.629L1.143,6.822,2.148,5.094l4.38,2.551A7.114,7.114,0,0,1,7.674,6.5L5.131,2.127,6.858,1.121,9.4,5.5a6.9,6.9,0,0,1,1.6-.43V0h2V5.071a6.953,6.953,0,0,1,1.611.435l2.548-4.385,1.727,1.006L16.337,6.512a7.065,7.065,0,0,1,1.14,1.14l4.391-2.558,1.005,1.728L18.485,9.379A6.927,6.927,0,0,1,18.923,11h5.068v2H17V12C16.785,5.39,7.213,5.4,7,12Zm13.989,9a2,2,0,0,1-2-2H17a2,2,0,0,1-4,0H11a2,2,0,0,1-4,0h-2a2.007,2.007,0,0,1-3.5,1.315L0,22.632a4.024,4.024,0,0,0,6.005.011,4.033,4.033,0,0,0,6,0,4.033,4.033,0,0,0,6,0,4.023,4.023,0,0,0,6-.012l-1.506-1.315A1.99,1.99,0,0,1,20.993,22ZM3.007,19a3.989,3.989,0,0,0,3-1.357,4.033,4.033,0,0,0,6,0,4.033,4.033,0,0,0,6,0,4.023,4.023,0,0,0,6-.012l-1.506-1.315A2.007,2.007,0,0,1,19,15H17a2,2,0,0,1-4,0H11a2,2,0,0,1-4,0h-2a2.007,2.007,0,0,1-3.5,1.315L0,17.632A3.993,3.993,0,0,0,3.007,19Z"/></svg>
