<?xml version="1.0" encoding="UTF-8"?>
<svg xmlns="http://www.w3.org/2000/svg" id="Layer_1" data-name="Layer 1" viewBox="0 0 24 24" width="512" height="512"><path d="M23.912,20.027l-1.057-5.96a3.477,3.477,0,0,0-1-5.793A10,10,0,0,0,2.226,7.9L1.5,12H3a12.12,12.12,0,0,0,5.184-1.2A1.477,1.477,0,0,0,8,11.5a1.5,1.5,0,1,0,1.634-1.487,16.772,16.772,0,0,0,5.287-5.249A5.949,5.949,0,0,0,13.028,4.1C11.49,6.379,8.217,9.563,3.893,9.959L4.188,8.29a8,8,0,0,1,15.766.859l.078.746.738.133A1.5,1.5,0,0,1,20.5,13c-.086,0-1.087-.175-1.087-.175l-.282.8C18.214,16.222,15.13,19,12,19c-2.861,0-5.678-2.323-6.842-4.7l-.51,2.879A11.083,11.083,0,0,0,8.111,20H8v2H3.238A1.242,1.242,0,0,1,2.03,20.488l1.15-6.5c-.06,0-.119.011-.18.011H1.147L.065,20.115A3.238,3.238,0,0,0,3.237,24L10,24V20.734a7.652,7.652,0,0,0,4,0V24h6.762a3.217,3.217,0,0,0,2.56-1.256A3.172,3.172,0,0,0,23.912,20.027ZM21.74,21.52a1.229,1.229,0,0,1-.978.48H16V19.954a11.037,11.037,0,0,0,4.732-4.962c.085-.005.165-.029.248-.04l.979,5.5A1.227,1.227,0,0,1,21.74,21.52ZM14.5,13A1.5,1.5,0,1,1,16,11.5,1.5,1.5,0,0,1,14.5,13Z"/></svg>
