<svg id="Layer_1" height="512" viewBox="0 0 24 24" width="512" xmlns="http://www.w3.org/2000/svg" data-name="Layer 1"><path d="m19 2h-9.044a4.966 4.966 0 0 0 -3.946 1.931l-5.8 7.455a1 1 0 0 0 0 1.228l5.8 7.455a4.966 4.966 0 0 0 3.946 1.931h9.044a5.006 5.006 0 0 0 5-5v-10a5.006 5.006 0 0 0 -5-5zm3 15a3 3 0 0 1 -3 3h-9.044a2.979 2.979 0 0 1 -2.368-1.158l-5.321-6.842 5.321-6.842a2.979 2.979 0 0 1 2.368-1.158h9.044a3 3 0 0 1 3 3zm-4.793-6.793-1.793 1.793 1.793 1.793a1 1 0 1 1 -1.414 1.414l-1.793-1.793-1.793 1.793a1 1 0 0 1 -1.414-1.414l1.793-1.793-1.793-1.793a1 1 0 0 1 1.414-1.414l1.793 1.793 1.793-1.793a1 1 0 0 1 1.414 1.414z"/></svg>