<?xml version="1.0" encoding="UTF-8"?>
<svg xmlns="http://www.w3.org/2000/svg" id="Outline" viewBox="0 0 24 24" width="512" height="512"><path d="M12,0A12,12,0,1,0,24,12,12.013,12.013,0,0,0,12,0ZM22,12a9.938,9.938,0,0,1-1.662,5.508l-1.192-1.193A.5.5,0,0,1,19,15.962V15a3,3,0,0,0-3-3H13a1,1,0,0,1-1-1v-.5a.5.5,0,0,1,.5-.5A2.5,2.5,0,0,0,15,7.5v-1a.5.5,0,0,1,.5-.5h1.379a2.516,2.516,0,0,0,1.767-.732l.377-.377A9.969,9.969,0,0,1,22,12Zm-19.951.963,3.158,3.158A2.978,2.978,0,0,0,7.329,17H10a1,1,0,0,1,1,1v3.949A10.016,10.016,0,0,1,2.049,12.963ZM13,21.949V18a3,3,0,0,0-3-3H7.329a1,1,0,0,1-.708-.293L2.163,10.249A9.978,9.978,0,0,1,17.456,3.63l-.224.224A.507.507,0,0,1,16.879,4H15.5A2.5,2.5,0,0,0,13,6.5v1a.5.5,0,0,1-.5.5A2.5,2.5,0,0,0,10,10.5V11a3,3,0,0,0,3,3h3a1,1,0,0,1,1,1v.962a2.516,2.516,0,0,0,.732,1.767l1.337,1.337A9.971,9.971,0,0,1,13,21.949Z"/></svg>
