<?xml version="1.0" encoding="UTF-8"?>
<!-- Generator: Adobe Illustrator 25.0.0, SVG Export Plug-In . SVG Version: 6.00 Build 0)  -->
<svg xmlns="http://www.w3.org/2000/svg" xmlns:xlink="http://www.w3.org/1999/xlink" version="1.1" id="Layer_1" x="0px" y="0px" viewBox="0 0 512 512" style="enable-background:new 0 0 512 512;" xml:space="preserve" width="512" height="512">
<path d="M256,341.333c9.934,0.019,19.735-2.274,28.629-6.699l42.667-21.333c21.747-10.798,35.465-33.021,35.371-57.301v-63.296  c0.075-24.259-13.641-46.453-35.371-57.237l-42.667-21.333c-18.027-8.96-39.21-8.96-57.237,0l-42.667,21.333  c-21.738,10.778-35.463,32.974-35.392,57.237V256c-0.078,24.265,13.637,46.467,35.371,57.259l42.667,21.333  C236.261,339.031,246.063,341.339,256,341.333z M192,256v-63.296c0.034-2.176,0.401-4.335,1.088-6.4l46.507,23.253  c10.328,5.162,22.483,5.162,32.811,0l46.507-23.253c0.687,2.065,1.054,4.224,1.088,6.4V256c0.034,8.094-4.543,15.502-11.797,19.093  l-42.667,21.333c-6.016,2.977-13.077,2.977-19.093,0l-42.667-21.333C196.53,271.496,191.962,264.09,192,256z M405.333,469.333  h-57.792l74.389-68.736c91.645-91.642,91.647-240.224,0.005-331.869S181.712-22.918,90.067,68.723S-1.58,308.948,90.062,400.592  c0.201,0.201,74.397,68.741,74.397,68.741h-57.792c-11.782,0-21.333,9.551-21.333,21.333c0,11.782,9.551,21.333,21.333,21.333  h298.667c11.782,0,21.333-9.551,21.333-21.333C426.667,478.885,417.115,469.333,405.333,469.333z M120.235,98.901  c74.816-75.152,196.389-75.424,271.541-0.608s75.424,196.389,0.608,271.541l-85.013,78.528  c-29.016,27.349-74.366,27.19-103.189-0.363l-83.947-77.568C45.37,295.402,45.371,173.931,120.235,98.901z"/>
</svg>
