<?xml version="1.0" encoding="UTF-8"?>
<svg xmlns="http://www.w3.org/2000/svg" id="Layer_1" data-name="Layer 1" viewBox="0 0 24 24" width="512" height="512"><path d="M18,7a1,1,0,1,1-1-1A1,1,0,0,1,18,7ZM14,9a1,1,0,1,0,1,1A1,1,0,0,0,14,9Zm-3,3a1,1,0,1,0,1,1A1,1,0,0,0,11,12ZM23.352.648a2.189,2.189,0,0,1,.514,2.31l-.075.211C22.289,7.337,20.848,11.3,18,14.82V15a11.057,11.057,0,0,1-4.4,8.8l-.268.2H9V20.414l-2-2L4.707,20.707,3.293,19.293,5.586,17l-2-2H0V10.44l.2-.266A10.81,10.81,0,0,1,9,6h.18C12.7,3.153,16.66,1.712,20.826.211l.216-.077A2.189,2.189,0,0,1,23.352.648ZM2,13H3.419A31.578,31.578,0,0,1,6.8,8.243,8.493,8.493,0,0,0,2,11.118Zm13.7,4.254A31.718,31.718,0,0,1,11,20.581V22h1.657A9.052,9.052,0,0,0,15.7,17.254ZM21.937,2.063a.191.191,0,0,0-.217-.048l-.215.078C16.661,3.838,12.478,5.346,8.876,8.947A26.984,26.984,0,0,0,5.25,13.835l4.915,4.916a27.067,27.067,0,0,0,4.888-3.627c3.6-3.6,5.11-7.787,6.856-12.633l.076-.211A.192.192,0,0,0,21.937,2.063Z"/></svg>
