<?xml version="1.0" encoding="UTF-8"?>
<!-- Generator: Adobe Illustrator 25.0.0, SVG Export Plug-In . SVG Version: 6.00 Build 0)  -->
<svg xmlns="http://www.w3.org/2000/svg" xmlns:xlink="http://www.w3.org/1999/xlink" version="1.1" id="Layer_1" x="0px" y="0px" viewBox="0 0 512 512" style="enable-background:new 0 0 512 512;" xml:space="preserve" width="512" height="512">
<path d="M91.618,466.531c-63.074-14.759-102.241-77.856-87.482-140.93c7.577-32.38,28.542-60.021,57.68-76.048  C18.062,166.3,50.083,63.339,133.337,19.585S319.552,7.852,363.306,91.106c6.998,13.315,12.2,27.498,15.472,42.179  c77.908,17.988,132.864,87.68,132.192,167.634c-13.331-13.337-29.089-24.002-46.427-31.419  c-12.253-51.208-54.675-89.649-106.839-96.813l-16.157-2.129l-2.129-16.135C330.07,84.577,265.871,35.535,196.026,44.883  S77.138,118.431,86.486,188.276c2.859,21.363,11.084,41.654,23.906,58.979l21.862,30.589c-11.289-0.787-22.633,0.117-33.655,2.682  c-39.733,10.694-63.274,51.574-52.58,91.308c5.64,20.956,20.137,38.411,39.701,47.802C84.502,435.505,86.508,451.457,91.618,466.531  z M510.97,405.565c-0.059-52.295-38.049-96.822-89.682-105.115c-40.062-137.79-241.926-99.474-228.813,43.745  c-45.594,11.755-73.025,58.245-61.27,103.839c9.634,37.365,43.163,63.601,81.748,63.966h191.582  C463.288,511.93,510.899,464.318,510.97,405.565z M249.141,384.279l-10.154-28.439c-32.718-104.732,126.678-141.664,143.431-32.973  l2.129,18.945h21.287c35.226,1.753,62.361,31.729,60.609,66.955c-1.655,33.272-28.608,59.682-61.907,60.66H212.953  c-23.513,0-42.574-19.061-42.574-42.574s19.061-42.574,42.574-42.574H249.141z"/>
</svg>
