<svg id="Layer_1" height="512" viewBox="0 0 24 24" width="512" xmlns="http://www.w3.org/2000/svg" data-name="Layer 1"><path d="m12 0a12 12 0 1 0 12 12 12.013 12.013 0 0 0 -12-12zm9.029 16.271a16.208 16.208 0 0 1 -11.229-.582 9.957 9.957 0 0 1 2.369-2.549 11.972 11.972 0 0 0 4.448.873 12.071 12.071 0 0 0 5.348-1.25 9.9 9.9 0 0 1 -.936 3.508zm.846-5.768a9.969 9.969 0 0 1 -2.935 1.23 18.165 18.165 0 0 0 -3.074-8.954 10.019 10.019 0 0 1 6.009 7.721zm-9.127-8.465a16.2 16.2 0 0 1 4.2 9.949 9.957 9.957 0 0 1 -4-.69 12.031 12.031 0 0 0 -4.448-8.651 9.922 9.922 0 0 1 3.5-.646c.253 0 .5.019.748.038zm-6.261 1.627a10.018 10.018 0 0 1 2.455 2.266 18.207 18.207 0 0 0 -6.71 8.194 9.962 9.962 0 0 1 4.255-10.46zm-3.122 13.355a16.217 16.217 0 0 1 6.611-9.37 9.963 9.963 0 0 1 .993 3.891 12.033 12.033 0 0 0 -4.715 8.63 10.069 10.069 0 0 1 -2.889-3.151zm8.635 4.98a9.948 9.948 0 0 1 -3.772-.744 9.983 9.983 0 0 1 .672-3.775 18.248 18.248 0 0 0 7.3 1.542 18.119 18.119 0 0 0 3.172-.286 9.961 9.961 0 0 1 -7.372 3.263z"/></svg>