<svg id="Layer_1" height="512" viewBox="0 0 24 24" width="512" xmlns="http://www.w3.org/2000/svg" data-name="Layer 1"><path d="m24 14a3 3 0 0 0 -3-3h-2v-7a3 3 0 0 0 -3-3h-13a3 3 0 0 0 -3 3v15h2.041a3.465 3.465 0 0 0 -.041.5 3.5 3.5 0 0 0 7 0 3.465 3.465 0 0 0 -.041-.5h6.082a3.465 3.465 0 0 0 -.041.5 3.5 3.5 0 0 0 7 0 3.465 3.465 0 0 0 -.041-.5h2.041zm-11-1v4h-3v-10h3zm-11-2v-4h2v4zm4-4h2v4h-2zm9 0h2v4h-2zm-12-4h13a1 1 0 0 1 1 1v1h-15v-1a1 1 0 0 1 1-1zm-1 10h6v4h-6zm5 6.5a1.5 1.5 0 0 1 -3 0 1.41 1.41 0 0 1 .093-.5h2.814a1.41 1.41 0 0 1 .093.5zm13 0a1.5 1.5 0 0 1 -3 0 1.41 1.41 0 0 1 .093-.5h2.814a1.41 1.41 0 0 1 .093.5zm2-2.5h-7v-4h6a1 1 0 0 1 1 1z"/></svg>