<?xml version="1.0" encoding="UTF-8"?>
<!-- Generator: Adobe Illustrator 25.0.0, SVG Export Plug-In . SVG Version: 6.00 Build 0)  -->
<svg xmlns="http://www.w3.org/2000/svg" xmlns:xlink="http://www.w3.org/1999/xlink" version="1.1" id="Layer_1" x="0px" y="0px" viewBox="0 0 512 512" style="enable-background:new 0 0 512 512;" xml:space="preserve" width="512" height="512">
<path d="M256.07-0.047C114.467-0.047-0.326,114.746-0.326,256.349S114.467,512.744,256.07,512.744s256.395-114.792,256.395-256.395  S397.673-0.047,256.07-0.047z M466.667,224v0.064c-19.353,12.05-40.515,20.917-62.677,26.261  c-4.595-68.333-27.183-134.234-65.472-191.019C406.956,88.198,455.48,150.56,466.667,224z M256,42.667  c5.397,0,10.667,0.405,15.979,0.811c53.223,58.444,84.842,133.342,89.6,212.245c-29.153,0.997-58.199-4.013-85.333-14.72  c-4.247-72.136-38.705-139.14-94.912-184.555C205.188,47.391,230.484,42.722,256,42.667z M138.389,78.187  c20.041,13.069,37.744,29.41,52.373,48.341C126.816,169.409,77.017,230.285,47.659,301.461  C28.668,215.422,64.766,126.591,138.389,78.187z M71.595,362.773c21.296-81.459,71.492-152.392,141.227-199.573  c12.627,25.943,19.835,54.187,21.184,83.008c-58.22,44.242-94.81,111.213-100.587,184.107  C108.191,412.512,87.102,389.474,71.595,362.773z M256,469.333c-27.6-0.008-54.934-5.399-80.469-15.872  c-0.47-27.519,4.398-54.867,14.336-80.533c70.121,31.128,147.992,40.413,223.467,26.645C373.07,443.969,315.934,469.303,256,469.333  z M209.067,334.72c13.523-20.959,30.63-39.373,50.539-54.4c30.156,12.194,62.363,18.515,94.891,18.624  c39.574-0.004,78.615-9.129,114.091-26.667c-1.999,26.074-8.82,51.551-20.117,75.136  C369.697,371.777,284.821,367.277,209.067,334.72z"/>
</svg>
