<svg id="Layer_1" height="512" viewBox="0 0 24 24" width="512" xmlns="http://www.w3.org/2000/svg" data-name="Layer 1"><path d="m18.535 18.666 1.414 1.414-3.2 3.2a2.475 2.475 0 0 1 -3.494 0l-3.2-3.2 1.414-1.414 2.531 2.534v-8.2h2v8.2zm-.745-11.457a8 8 0 0 0 -15.79 1.791 7.912 7.912 0 0 0 .9 3.671 5.49 5.49 0 0 0 2.6 10.329h4.642l-2-2h-2.642a3.491 3.491 0 0 1 -.872-6.874l1.437-.371-.883-1.192a5.939 5.939 0 0 1 -1.182-3.563 6 6 0 0 1 11.939-.8l.1.758.759.1a5.988 5.988 0 0 1 4.202 9.247l1.43 1.43a7.976 7.976 0 0 0 -4.64-12.526z"/></svg>