<?xml version="1.0" encoding="UTF-8"?>
<svg xmlns="http://www.w3.org/2000/svg" viewBox="0 0 24 24" width="512" height="512"><g id="_01_align_center" data-name="01 align center"><path d="M24,12a11.944,11.944,0,0,0-2.845-7.741l.86-.86L20.6,1.985l-.86.86a11.954,11.954,0,0,0-15.482,0l-.86-.86L1.985,3.4l.86.86a11.954,11.954,0,0,0,0,15.482l-.86.86L3.4,22.015l.86-.86a11.954,11.954,0,0,0,15.482,0l.86.86L22.015,20.6l-.86-.86A11.944,11.944,0,0,0,24,12Zm-2,0a9.949,9.949,0,0,1-2.262,6.324l-3.571-3.571a4.966,4.966,0,0,0,0-5.506l3.571-3.571A9.949,9.949,0,0,1,22,12ZM9,12a3,3,0,1,1,3,3A3,3,0,0,1,9,12ZM12,2a9.949,9.949,0,0,1,6.324,2.262L14.753,7.833a4.966,4.966,0,0,0-5.506,0L5.676,4.262A9.949,9.949,0,0,1,12,2ZM2,12A9.949,9.949,0,0,1,4.262,5.676L7.833,9.247a4.966,4.966,0,0,0,0,5.506L4.262,18.324A9.949,9.949,0,0,1,2,12ZM12,22a9.949,9.949,0,0,1-6.324-2.262l3.571-3.571a4.966,4.966,0,0,0,5.506,0l3.571,3.571A9.949,9.949,0,0,1,12,22Z"/></g></svg>
