<?xml version="1.0" encoding="UTF-8"?>
<svg xmlns="http://www.w3.org/2000/svg" id="Layer_1" data-name="Layer 1" viewBox="0 0 24 24" width="512" height="512"><path d="M15,16a2,2,0,0,0,4,0A2,2,0,0,0,15,16Z"/><path d="M8,19a4,4,0,0,1,0-8A4,4,0,0,1,8,19Zm0-6a2,2,0,0,0,0,4A2,2,0,0,0,8,13Z"/><path d="M24,24H14V23a1.5,1.5,0,0,0-3,0v1H4.833C-.778,23.909-.636,14.08,1.12,10.508A19.971,19.971,0,0,1,8.043.96,4.962,4.962,0,0,1,13.751.849L24,8.5Zm-8.146-2H22V10H4.833a1.985,1.985,0,0,0-1.844,1.223A12.72,12.72,0,0,0,2,16a12.72,12.72,0,0,0,.989,4.777A1.985,1.985,0,0,0,4.833,22H9.146A3.513,3.513,0,0,1,15.854,22ZM10.971,2a2.891,2.891,0,0,0-1.731.567,18.175,18.175,0,0,0-4.8,5.458,3.743,3.743,0,0,1,.4-.02H19.989L12.6,2.482A2.945,2.945,0,0,0,10.971,2Z"/></svg>
