<?xml version="1.0" encoding="UTF-8"?>
<svg xmlns="http://www.w3.org/2000/svg" id="Layer_1" data-name="Layer 1" viewBox="0 0 24 24" width="512" height="512"><path d="M21,0H3A3,3,0,0,0,0,3V24H18.414L24,18.414V3A3,3,0,0,0,21,0ZM18,21.586V18h3.586ZM22,16H16v6H2V3A1,1,0,0,1,3,2H21a1,1,0,0,1,1,1ZM12.75,5h3.263V6.25H14V7.388h1.864v1.25H14v2.387H12.75Zm-7.5,2V9.068A.742.742,0,0,0,6,9.819a.759.759,0,0,0,.75-.735V9H6V8H8V9.084a2,2,0,0,1-2,1.984H6A1.991,1.991,0,0,1,4,9.084v-2.1A1.991,1.991,0,0,1,6,5H6A2.013,2.013,0,0,1,8,7H6.75A.772.772,0,0,0,6,6.25.742.742,0,0,0,5.251,7Zm4.5-2H11v6.069H9.75Z"/></svg>
