<?xml version="1.0" encoding="UTF-8"?>
<svg xmlns="http://www.w3.org/2000/svg" id="Layer_1" data-name="Layer 1" viewBox="0 0 24 24" width="512" height="512"><path d="M20.527,4.217,14.5.737a5.015,5.015,0,0,0-5,0L3.473,4.217a5.014,5.014,0,0,0-2.5,4.33v6.96a5.016,5.016,0,0,0,2.5,4.331L9.5,23.317a5.012,5.012,0,0,0,5,0l6.027-3.479a5.016,5.016,0,0,0,2.5-4.331V8.547A5.014,5.014,0,0,0,20.527,4.217ZM10.5,2.47a3,3,0,0,1,3,0l6.027,3.479a2.945,2.945,0,0,1,.429.33L13.763,9.854a3.53,3.53,0,0,1-3.526,0L4.044,6.279a2.945,2.945,0,0,1,.429-.33ZM4.473,18.105a3.008,3.008,0,0,1-1.5-2.6V8.547a2.893,2.893,0,0,1,.071-.535l6.193,3.575A5.491,5.491,0,0,0,11,12.222v9.569a2.892,2.892,0,0,1-.5-.206Zm16.554-2.6a3.008,3.008,0,0,1-1.5,2.6L13.5,21.585a2.892,2.892,0,0,1-.5.206V12.222a5.491,5.491,0,0,0,1.763-.635l6.193-3.575a2.893,2.893,0,0,1,.071.535Z"/></svg>
