<?xml version="1.0" encoding="UTF-8"?>
<svg xmlns="http://www.w3.org/2000/svg" id="Layer_1" data-name="Layer 1" viewBox="0 0 24 24" width="512" height="512"><path d="M19,2H16.461A5.905,5.905,0,0,0,10.8.117,5.757,5.757,0,0,0,7.589,2H5A5.006,5.006,0,0,0,0,7V19a5.006,5.006,0,0,0,5,5H19a5.006,5.006,0,0,0,5-5V7A5.006,5.006,0,0,0,19,2ZM12,2a4,4,0,0,1,4,4,1,1,0,0,1-1,1H12.868l.964-1.445a1,1,0,0,0-1.664-1.11L10.465,7H9A1,1,0,0,1,8,6,4,4,0,0,1,12,2ZM22,19a3,3,0,0,1-3,3H5a3,3,0,0,1-3-3V7A3,3,0,0,1,5,4H6.393A6.482,6.482,0,0,0,6,6.215,2.788,2.788,0,0,0,8.785,9h6.43A2.762,2.762,0,0,0,18,6.353,7.568,7.568,0,0,0,17.656,4H19a3,3,0,0,1,3,3Z"/></svg>
