<svg id="Layer_1" height="512" viewBox="0 0 24 24" width="512" xmlns="http://www.w3.org/2000/svg" data-name="Layer 1"><path d="m2.333 14.574-1.933.515a11.934 11.934 0 0 1 -.357-2.056l1.992-.169a10.092 10.092 0 0 0 .298 1.71zm1.156 5.884a11.94 11.94 0 0 0 1.593 1.347l1.152-1.634a10.1 10.1 0 0 1 -1.327-1.122zm-.564-4.25-1.813.843a11.949 11.949 0 0 0 1.039 1.807l1.641-1.143a10.2 10.2 0 0 1 -.867-1.507zm-.588-6.8-1.932-.508a12.013 12.013 0 0 0 -.36 2.054l1.992.175a10.143 10.143 0 0 1 .3-1.718zm1.463-3.134-1.638-1.146a11.943 11.943 0 0 0 -1.042 1.807l1.813.844a10.109 10.109 0 0 1 .867-1.505zm3.1-5.137.852 1.809a9.993 9.993 0 0 1 1.631-.6l-.528-1.929a11.96 11.96 0 0 0 -1.955.72zm-3.4 2.394 1.417 1.409a10.115 10.115 0 0 1 1.328-1.12l-1.152-1.634a11.878 11.878 0 0 0 -1.593 1.345zm3.381 19.326a11.868 11.868 0 0 0 1.96.722l.523-1.93a9.877 9.877 0 0 1 -1.628-.6zm5.119-22.857c-.367 0-.73.017-1.089.049l.18 1.992c.3-.027.6-.041.909-.041a10 10 0 0 1 0 20c-.307 0-.609-.014-.909-.041l-.18 1.992c.359.032.722.049 1.089.049a12 12 0 0 0 0-24zm-1 17h2v-3.277a1.984 1.984 0 0 0 0-3.446v-4.277h-2v4.277a1.984 1.984 0 0 0 0 3.446z"/></svg>