<?xml version="1.0" encoding="UTF-8"?>
<svg xmlns="http://www.w3.org/2000/svg" id="Layer_1" data-name="Layer 1" viewBox="0 0 24 24" width="512" height="512"><path d="M21,7H17.866A6.547,6.547,0,0,0,20,2H18c0,2.881-1.971,4.307-4.152,4.8A9.239,9.239,0,0,0,15,3,3,3,0,0,0,9,3a9.239,9.239,0,0,0,1.152,3.8C7.971,6.307,6,4.881,6,2H4A6.547,6.547,0,0,0,6.134,7H3a3,3,0,0,0-3,3v4H2V24H22V14h2V10A3,3,0,0,0,21,7ZM12,2a1,1,0,0,1,1,1,7.71,7.71,0,0,1-1,3.013A7.71,7.71,0,0,1,11,3,1,1,0,0,1,12,2ZM2,10A1,1,0,0,1,3,9h8v3H2Zm2,4h7v8H4Zm16,8H13V14h7Zm2-10H13V9h8a1,1,0,0,1,1,1Z"/></svg>
