<svg id="Layer_1" height="512" viewBox="0 0 24 24" width="512" xmlns="http://www.w3.org/2000/svg" data-name="Layer 1"><path d="m23.115.886a3.094 3.094 0 0 0 -4.276 0l-3.407 3.407a3.456 3.456 0 0 1 -4.837.071l-1.395 1.436 2.025 2.025-9.2 9.2a3.455 3.455 0 0 0 -.593 4.129l-1.432 1.432 1.414 1.414 1.432-1.432a3.455 3.455 0 0 0 4.129-.593l9.2-9.2 2.025 2.025 1.434-1.393a3.455 3.455 0 0 1 .071-4.837l3.407-3.407a3.023 3.023 0 0 0 0-4.275zm-17.555 19.675a1.536 1.536 0 0 1 -2.121 0 1.5 1.5 0 0 1 0-2.121l9.2-9.2 2.121 2.121zm16.14-16.814-3.407 3.407a5.462 5.462 0 0 0 -1.586 3.322l-3.183-3.183a5.462 5.462 0 0 0 3.322-1.586l3.408-3.407a1.045 1.045 0 0 1 1.446 0 1.022 1.022 0 0 1 0 1.447z"/></svg>