<svg id="Layer_1" height="512" viewBox="0 0 24 24" width="512" xmlns="http://www.w3.org/2000/svg" data-name="Layer 1"><path d="m20.025 22.026h-1v-1.655a4.014 4.014 0 0 0 -1.225-2.871c-1.924-1.859-2.709-3.989-2.766-7.476h.988a1 1 0 0 0 0-2h-.556a3.949 3.949 0 0 0 .556-2c0-1.375-1.162-3.717-1.893-4.87a2.5 2.5 0 0 0 -4.212 0c-.732 1.154-1.894 3.5-1.894 4.871a3.959 3.959 0 0 0 .556 2h-.553a1 1 0 0 0 0 2h.989c-.058 3.487-.844 5.616-2.766 7.475a4.019 4.019 0 0 0 -1.223 2.87v1.655h-1a1 1 0 0 0 0 2h16a1 1 0 0 0 0-2zm-8.417-19.8a.5.5 0 0 1 .835 0 10.752 10.752 0 0 1 1.582 3.8 2 2 0 1 1 -4 0 10.763 10.763 0 0 1 1.583-3.799zm1.43 7.8c.054 3.516.8 5.951 2.522 8h-7.069c1.72-2.049 2.468-4.485 2.523-8zm-6.012 10.345a1.905 1.905 0 0 1 .036-.345h9.928a2 2 0 0 1 .035.345v1.655h-10z"/></svg>