<?xml version="1.0" encoding="UTF-8"?>
<svg xmlns="http://www.w3.org/2000/svg" id="Layer_1" data-name="Layer 1" viewBox="0 0 24 24" width="512" height="512"><path d="M14.2,16.262A12.143,12.143,0,0,1,7.746,9.793l3.406-3.406L4.887.122,1.716,3.292A5.892,5.892,0,0,0,0,7.5C0,14.748,9.252,24,16.5,24a5.886,5.886,0,0,0,4.207-1.716l3.171-3.171-6.265-6.264Zm5.092,4.609A3.906,3.906,0,0,1,16.5,22C10.266,22,2,13.733,2,7.5A3.907,3.907,0,0,1,3.13,4.707L4.887,2.95,8.324,6.387,5.388,9.322l.246.614a14.372,14.372,0,0,0,8.447,8.436l.606.231,2.926-2.926,3.436,3.436ZM20.914,4.5l3.043,3.043L22.543,8.957,19.5,5.914,16.457,8.957,15.043,7.543,18.086,4.5,15.043,1.457,16.457.043,19.5,3.086,22.543.043l1.414,1.414Z"/></svg>
