<?xml version="1.0" encoding="UTF-8"?>
<svg xmlns="http://www.w3.org/2000/svg" viewBox="0 0 24 24" width="512" height="512"><g id="_01_align_center" data-name="01 align center"><path d="M12,24A12,12,0,1,1,24,12,12.013,12.013,0,0,1,12,24ZM12,2A10,10,0,1,0,22,12,10.011,10.011,0,0,0,12,2Z"/><path d="M13,15H11v-.743a3.954,3.954,0,0,1,1.964-3.5,2,2,0,0,0,1-2.125,2.024,2.024,0,0,0-1.6-1.595A2,2,0,0,0,10,9H8a4,4,0,1,1,5.93,3.505A1.982,1.982,0,0,0,13,14.257Z"/><rect x="11" y="17" width="2" height="2"/></g></svg>
