<svg id="Layer_1" height="512" viewBox="0 0 24 24" width="512" xmlns="http://www.w3.org/2000/svg" data-name="Layer 1"><path d="m1.037 5.889-1.043-1.7 6.735-4.127 1.042 1.706zm21.237 10.328-4.125 6.683 1.7 1.051 4.125-6.684zm-1.35-1.617-4.924 7.983a2.879 2.879 0 0 1 -2.13 1.394 3.158 3.158 0 0 1 -.38.023 2.887 2.887 0 0 1 -2.052-.854l-.963-.963a4.75 4.75 0 0 1 -6.614-6.617l-3.008-3.009a2.911 2.911 0 0 1 .452-4.486l7.762-4.75a8.362 8.362 0 0 1 9.709.489l1.892-1.892 1.414 1.414-1.9 1.9a8.449 8.449 0 0 1 .742 9.368zm-11.914 6.118-3.692-3.695a2.719 2.719 0 0 0 .491 3.211 2.825 2.825 0 0 0 3.201.484zm9.12-14.818a6.4 6.4 0 0 0 -8-.878l-7.752 4.736a.88.88 0 0 0 -.373.649.9.9 0 0 0 .262.736l10.586 10.589a.886.886 0 0 0 .759.26.9.9 0 0 0 .67-.441l4.92-7.973a6.445 6.445 0 0 0 -1.072-7.678z"/></svg>