<?xml version="1.0" encoding="UTF-8"?>
<svg xmlns="http://www.w3.org/2000/svg" id="Layer_1" data-name="Layer 1" viewBox="0 0 24 24" width="512" height="512"><path d="M23.293,11.071a3,3,0,0,0-2.226-1.063A28.466,28.466,0,0,0,22,4.04l.043-1.089L20.954,3a31,31,0,0,0-3.662.416A7.913,7.913,0,0,0,18,0H16a6.08,6.08,0,0,1-.4,2.258,3.923,3.923,0,0,0-.763-1.093A3.982,3.982,0,0,0,9.5.905,3.969,3.969,0,0,0,3.727,6.251a4.918,4.918,0,0,0-1.716,3.937,2.956,2.956,0,0,0-1.97,3.3A14.112,14.112,0,0,0,7.572,23.9l.2.1h8.451l.2-.1a14.109,14.109,0,0,0,7.53-10.418A2.965,2.965,0,0,0,23.293,11.071ZM18.973,10H16.414l1.293-1.293L16.292,7.293,13.585,10H12.036a3.429,3.429,0,0,1,.976-2.9c1.132-1.132,4.464-1.784,6.907-2.016A22.8,22.8,0,0,1,18.973,10ZM4,10a3,3,0,0,1,6,0ZM5.578,2.579a1.978,1.978,0,0,1,2.793,0c.095.1,1.128,1.23,1.128,1.23s1.034-1.134,1.128-1.229A1.96,1.96,0,0,1,13.955,4.29a5.672,5.672,0,0,0-3.183,2.465A4.916,4.916,0,0,0,5.485,5.26,1.973,1.973,0,0,1,5.578,2.579ZM21.985,13.152A12.308,12.308,0,0,1,15.77,22H8.229a12.307,12.307,0,0,1-6.215-8.849.963.963,0,0,1,.219-.79A1.015,1.015,0,0,1,3.009,12H20.99a1.015,1.015,0,0,1,.776.361A.968.968,0,0,1,21.985,13.152Z"/></svg>
