<svg id="Layer_1" height="512" viewBox="0 0 24 24" width="512" xmlns="http://www.w3.org/2000/svg" data-name="Layer 1"><path d="m21.85 2.977-9.436-2.856a3 3 0 0 0 -3.714 2.031l-.559 1.848h-5.141a3 3 0 0 0 -3 3v17h16v-2.045l3.1 1.152 4.78-16.414a3 3 0 0 0 -2.03-3.716zm-7.85 19.023h-12v-15a1 1 0 0 1 1-1h10a1 1 0 0 1 1 1zm7.96-15.866-4.18 14.349-1.78-.663v-12.82a3 3 0 0 0 -3-3h-2.77l.384-1.28a.993.993 0 0 1 .479-.6.98.98 0 0 1 .751-.086l9.435 2.856a1 1 0 0 1 .681 1.244zm-9.96 6.866c0 2.333-4 5-4 5s-4-2.667-4-5a2 2 0 0 1 4 0 2 2 0 0 1 4 0z"/></svg>