<?xml version="1.0" encoding="UTF-8"?>
<svg xmlns="http://www.w3.org/2000/svg" id="Layer_1" data-name="Layer 1" viewBox="0 0 24 24" width="512" height="512"><path d="M12,12A4,4,0,1,0,8,8,4,4,0,0,0,12,12Zm0-6a2,2,0,1,1-2,2A2,2,0,0,1,12,6ZM16,22.03l8,1.948V13.483a3,3,0,0,0-2.133-2.871l-2.1-.7A8.037,8.037,0,0,0,20,8.006a8,8,0,0,0-16,0,8.111,8.111,0,0,0,.1,1.212A2.992,2.992,0,0,0,0,12v9.752l7.983,2.281ZM7.757,3.764a6,6,0,0,1,8.493,8.477L12,16.4,7.757,12.249a6,6,0,0,1,0-8.485ZM2,12a.985.985,0,0,1,.446-.832A1.007,1.007,0,0,1,3.43,11.1l1.434.518a8.036,8.036,0,0,0,1.487,2.056L12,19.2l5.657-5.533a8.032,8.032,0,0,0,1.4-1.882l2.217.741a1,1,0,0,1,.725.961v7.949L16,19.97l-7.98,2L2,20.246Z"/></svg>
