<?xml version="1.0" encoding="UTF-8"?>
<svg xmlns="http://www.w3.org/2000/svg" viewBox="0 0 24 24" width="512" height="512"><g id="_01_align_center" data-name="01 align center"><path d="M24,10,21.8,0H2.2L.024,9.783,0,11a3.966,3.966,0,0,0,1,2.618V21a3,3,0,0,0,3,3H20a3,3,0,0,0,3-3V13.618A3.966,3.966,0,0,0,24,11ZM2,10.109,3.8,2H7V6H9V2h6V6h2V2h3.2L22,10.109V11a2,2,0,0,1-2,2H19a2,2,0,0,1-2-2H15a2,2,0,0,1-2,2H11a2,2,0,0,1-2-2H7a2,2,0,0,1-2,2H4a2,2,0,0,1-2-2ZM20,22H4a1,1,0,0,1-1-1V14.858A3.939,3.939,0,0,0,4,15H5a3.975,3.975,0,0,0,3-1.382A3.975,3.975,0,0,0,11,15h2a3.99,3.99,0,0,0,3-1.357A3.99,3.99,0,0,0,19,15h1a3.939,3.939,0,0,0,1-.142V21A1,1,0,0,1,20,22Z"/></g></svg>
