<svg id="Layer_1" height="512" viewBox="0 0 24 24" width="512" xmlns="http://www.w3.org/2000/svg" data-name="Layer 1"><path d="m19.535 3.122-1.656-1.658a4.968 4.968 0 0 0 -3.536-1.464h-6.343a5.006 5.006 0 0 0 -5 5v14a5.006 5.006 0 0 0 5 5h8a5.006 5.006 0 0 0 5-5v-12.343a4.968 4.968 0 0 0 -1.465-3.535zm-1.414 1.414a2.932 2.932 0 0 1 .379.464h-2.5v-2.5a3.1 3.1 0 0 1 .465.38zm.879 14.464a3 3 0 0 1 -3 3h-8a3 3 0 0 1 -3-3v-14a3 3 0 0 1 3-3h6v3a2 2 0 0 0 2 2h3zm-3-10a1 1 0 0 1 0 2h-8a1 1 0 0 1 0-2zm1 5a1 1 0 0 1 -1 1h-8a1 1 0 0 1 0-2h8a1 1 0 0 1 1 1zm-.192 3.413a1 1 0 0 1 -.217 1.394 6.464 6.464 0 0 1 -3.456 1.193 3.252 3.252 0 0 1 -2-.7c-.328-.225-.453-.3-.7-.3a3.951 3.951 0 0 0 -1.832.794 1 1 0 0 1 -1.214-1.588 5.861 5.861 0 0 1 3.05-1.206 3.025 3.025 0 0 1 1.832.655 1.347 1.347 0 0 0 .864.345 4.586 4.586 0 0 0 2.277-.809 1 1 0 0 1 1.396.222z"/></svg>