<svg id="Layer_1" height="512" viewBox="0 0 24 24" width="512" xmlns="http://www.w3.org/2000/svg" data-name="Layer 1"><path d="m22.613 15.028 1.415-1.415-13.609-13.608-1.414 1.414 1.131 1.131-1.548 1.55-2.848-2.884-1.422 1.406 2.856 2.89-6.295 6.3a3 3 0 0 0 0 4.242l7.07 7.071a3 3 0 0 0 4.243 0l9.258-9.257zm-11.835 6.679a1.022 1.022 0 0 1 -1.414 0l-7.071-7.071a1 1 0 0 1 0-1.414l6.287-6.287 4.709 4.765 1.422-1.4-4.718-4.778 1.557-1.558 8.486 8.486zm10.722-4.707s2.5 3.119 2.5 4.5a2.5 2.5 0 0 1 -5 0c0-1.25 2.5-4.5 2.5-4.5z"/></svg>