<?xml version="1.0" encoding="UTF-8"?>
<svg xmlns="http://www.w3.org/2000/svg" viewBox="0 0 24 24" width="512" height="512"><g id="_01_align_center" data-name="01 align center"><path d="M21,0H3A3,3,0,0,0,0,3V24H18.35c2.206-2.207,3.443-3.444,5.65-5.65V3A3,3,0,0,0,21,0ZM2,3A1,1,0,0,1,3,2H21a1,1,0,0,1,1,1V16H16v6H2ZM18,21.521V18h3.521Z"/><path d="M6.5,5.007,4.146,11.188H5.484L6,9.824H8.049l.514,1.363H9.9L7.566,5ZM6.48,8.574l.551-1.447.546,1.447Z"/><rect x="11.156" y="5.062" width="1.25" height="6.069"/></g></svg>
