<?xml version="1.0" encoding="UTF-8"?>
<svg xmlns="http://www.w3.org/2000/svg" id="Layer_1" data-name="Layer 1" viewBox="0 0 24 24" width="512" height="512"><path d="M12,0A12,12,0,1,0,24,12,12.013,12.013,0,0,0,12,0Zm0,22A10,10,0,1,1,22,12,10.011,10.011,0,0,1,12,22ZM5,11.031a1.945,1.945,0,0,0,1.354,1.9l3.379,1.342,1.349,3.34A1.982,1.982,0,0,0,12.986,19H13a1.989,1.989,0,0,0,1.922-1.478L17.9,6.1,6.461,9.113A1.982,1.982,0,0,0,5,11.031ZM15.1,8.9,12.986,17l-1.719-4.271L7.093,11.071l-.108-.028Z"/></svg>
