<?xml version="1.0" encoding="UTF-8"?>
<svg xmlns="http://www.w3.org/2000/svg" id="Layer_1" data-name="Layer 1" viewBox="0 0 24 24" width="512" height="512"><path d="M18.757,16a5.214,5.214,0,0,0-3.707,1.535l-3,3A4.967,4.967,0,0,1,8.515,22H3.122a1.121,1.121,0,0,1-.794-1.914l.386-.386a2.965,2.965,0,0,0,3.407-.579L12.447,12.8a6.01,6.01,0,0,0,1.292.2Q13.868,13,14,13a6.018,6.018,0,0,0,4.246-1.758l1-1a6.01,6.01,0,0,0,1.751-4.5A5.946,5.946,0,0,0,18.848,1.4a6.179,6.179,0,0,0-8.274.544l-.633.634A6.33,6.33,0,0,0,8.247,8.511L1.879,14.879a2.993,2.993,0,0,0-.577,3.4l-.388.388A3.121,3.121,0,0,0,3.122,24H8.515a6.951,6.951,0,0,0,4.949-2.051l3-3A3.243,3.243,0,0,1,22,21.242V24h2V21.242A5.249,5.249,0,0,0,18.757,16Zm-7.4-12.012.633-.634a4.413,4.413,0,0,1,3.1-1.3,3.815,3.815,0,0,1,2.471.877A3.971,3.971,0,0,1,19,5.826a4.013,4.013,0,0,1-1.167,3l-1,1a4,4,0,0,1-5.9-.266A4.169,4.169,0,0,1,11.355,3.988ZM3.293,16.293l5.836-5.837c.091.13.164.27.267.393a6.119,6.119,0,0,0,1.131,1.038l-5.82,5.82a1.021,1.021,0,0,1-1.414,0A1,1,0,0,1,3.293,16.293Z"/></svg>
