<svg id="Layer_1" height="512" viewBox="0 0 24 24" width="512" xmlns="http://www.w3.org/2000/svg" data-name="Layer 1"><path d="m12 0a12 12 0 1 0 12 12 12.013 12.013 0 0 0 -12-12zm7.879 18.136a7.984 7.984 0 0 1 -2.041-2.594l1.533-.613a1 1 0 1 0 -.742-1.858l-1.445.578a7.481 7.481 0 0 1 0-3.3l1.445.578a1 1 0 1 0 .742-1.858l-1.533-.613a7.984 7.984 0 0 1 2.041-2.594 9.936 9.936 0 0 1 0 12.272zm-15.758-12.272a7.984 7.984 0 0 1 2.041 2.594l-1.533.613a1 1 0 0 0 .742 1.858l1.445-.578a8 8 0 0 1 .184 1.649 8 8 0 0 1 -.184 1.649l-1.445-.578a1 1 0 1 0 -.742 1.858l1.533.613a7.984 7.984 0 0 1 -2.041 2.594 9.936 9.936 0 0 1 0-12.272zm1.386 13.726a9.955 9.955 0 0 0 2.511-3.306l1.611.645a1 1 0 1 0 .742-1.858l-1.666-.666a10.031 10.031 0 0 0 .295-2.405 10.031 10.031 0 0 0 -.295-2.4l1.666-.666a1 1 0 1 0 -.742-1.858l-1.611.645a9.955 9.955 0 0 0 -2.511-3.311 9.952 9.952 0 0 1 12.986 0 9.955 9.955 0 0 0 -2.511 3.306l-1.611-.645a1 1 0 1 0 -.742 1.858l1.671.671a9.951 9.951 0 0 0 0 4.81l-1.666.666a1 1 0 0 0 .742 1.858l1.611-.645a9.955 9.955 0 0 0 2.511 3.306 9.952 9.952 0 0 1 -12.986 0z"/></svg>