<svg id="Layer_1" height="512" viewBox="0 0 24 24" width="512" xmlns="http://www.w3.org/2000/svg" data-name="Layer 1"><path d="m22 0h-2.172a2.978 2.978 0 0 0 -2.121.879l-8.361 8.36a7.537 7.537 0 1 0 5.415 5.415l1.239-1.239v-2.415h3v-3h2.414l1.707-1.707a2.983 2.983 0 0 0 .879-2.122v-2.171a2 2 0 0 0 -2-2zm0 4.171a1 1 0 0 1 -.293.708l-1.121 1.121h-3.586v3h-3v3.585l-1.545 1.545a5.64 5.64 0 0 1 .545 2.37 5.5 5.5 0 1 1 -5.5-5.5 4.236 4.236 0 0 1 2.369.544l9.252-9.251a1.009 1.009 0 0 1 .707-.293h2.172zm-17 13.829a1 1 0 1 0 1-1 1 1 0 0 0 -1 1z"/></svg>