<?xml version="1.0" encoding="UTF-8"?>
<svg xmlns="http://www.w3.org/2000/svg" id="Layer_1" data-name="Layer 1" viewBox="0 0 24 24" width="512" height="512"><path d="M6,19a1,1,0,0,1-2,0A1,1,0,0,1,6,19ZM24,7a1.866,1.866,0,0,1-1.9,2H16.981c-.019,1.063-.061,2.071-.143,3h3.2l0,1a15.547,15.547,0,0,1-.29,3,2.5,2.5,0,0,1-2.455,2H15.439C13.388,22.465,9.064,24,1,24H0V23c0-4.884.57-8.385,2-10.856V8.44A3,3,0,0,1,3.622,5.775,16.017,16.017,0,0,1,11,3.962h1v3.2c.929-.082,1.937-.124,3-.143V1.9c.3-3.392,5.372-1.818,5.905,1.2A4.079,4.079,0,0,1,24,7ZM4,8.44V9.788A12.382,12.382,0,0,1,10,7.4V6A14.292,14.292,0,0,0,4.548,7.547,1.009,1.009,0,0,0,4,8.44ZM2.008,21.992a24.919,24.919,0,0,0,6.761-.838,8.034,8.034,0,0,0-5.924-5.919A24.942,24.942,0,0,0,2.008,21.992ZM14.992,9.008c-6.216.1-9.635,1.188-11.386,4.366a10.048,10.048,0,0,1,7.021,7.019C13.8,18.643,14.892,15.224,14.992,9.008ZM16.6,14a18.914,18.914,0,0,1-.434,2h1.128a.494.494,0,0,0,.492-.388A13.617,13.617,0,0,0,18,14ZM22,7a2.054,2.054,0,0,0-2-2H19V4a2.05,2.05,0,0,0-2-2V7Z"/></svg>
