<?xml version="1.0" encoding="UTF-8"?>
<svg xmlns="http://www.w3.org/2000/svg" id="Layer_1" data-name="Layer 1" viewBox="0 0 24 24" width="512" height="512"><path d="M13,4.051V2h2a1,1,0,0,0,0-2H9A1,1,0,0,0,9,2h2V4.051a10,10,0,1,0,2,0ZM16,15.67V12.33c2.634.468,4,1.308,4,1.67S18.634,15.2,16,15.67ZM4,14c0-.362,1.366-1.2,4-1.67v3.34C5.366,15.2,4,14.362,4,14Zm6-1.922c.621-.049,1.285-.078,2-.078s1.379.029,2,.078v3.844c-.621.049-1.285.078-2,.078s-1.379-.029-2-.078ZM12,6a7.953,7.953,0,0,1,2,.263v3.812c-.664-.049-1.335-.075-2-.075s-1.336.026-2,.075V6.263A7.953,7.953,0,0,1,12,6Zm7.5,5.236A14.946,14.946,0,0,0,16,10.3V7.082A8.042,8.042,0,0,1,19.5,11.236ZM8,7.082V10.3a14.946,14.946,0,0,0-3.5.933A8.042,8.042,0,0,1,8,7.082ZM4.5,16.764A14.946,14.946,0,0,0,8,17.7v3.221A8.042,8.042,0,0,1,4.5,16.764ZM10,21.737V17.925c.664.049,1.335.075,2,.075s1.336-.026,2-.075v3.812a7.736,7.736,0,0,1-4,0Zm6-.819V17.7a14.946,14.946,0,0,0,3.5-.933A8.042,8.042,0,0,1,16,20.918Z"/></svg>
