<?xml version="1.0" encoding="UTF-8"?>
<svg xmlns="http://www.w3.org/2000/svg" id="Layer_1" data-name="Layer 1" viewBox="0 0 24 24" width="512" height="512"><path d="M2.542,15.255.65,15.9A11.924,11.924,0,0,1,.134,13.8l1.977-.3A10.016,10.016,0,0,0,2.542,15.255Zm.74,1.648-1.742.983a12.159,12.159,0,0,0,1.232,1.785L4.31,18.393A10.072,10.072,0,0,1,3.282,16.9ZM8.773.439a12,12,0,0,0-2.031.771l.877,1.8A9.954,9.954,0,0,1,9.31,2.366ZM4.306,21.209a12.029,12.029,0,0,0,1.782,1.236l.987-1.74a10.082,10.082,0,0,1-1.487-1.03ZM2.222,9.9.266,9.477a12.073,12.073,0,0,0-.26,2.154l2,.06A10.027,10.027,0,0,1,2.222,9.9Zm3.85-5.95L4.886,2.335A12.122,12.122,0,0,0,3.262,3.774L4.718,5.146A10.019,10.019,0,0,1,6.072,3.945ZM3.6,6.57,1.922,5.482A12,12,0,0,0,.912,7.4l1.847.767A9.964,9.964,0,0,1,3.6,6.57ZM15.807,21.25l.761,1.849a12.027,12.027,0,0,0,1.925-1.006L17.41,20.411A10.109,10.109,0,0,1,15.807,21.25ZM8.066,23.34a11.959,11.959,0,0,0,2.108.521l.3-1.977a9.992,9.992,0,0,1-1.754-.434ZM20.982,16.4l1.8.883a11.979,11.979,0,0,0,.778-2.029l-1.926-.542A9.86,9.86,0,0,1,20.982,16.4Zm-2.145,2.9L20.2,20.757a12.172,12.172,0,0,0,1.443-1.618l-1.6-1.193A10.116,10.116,0,0,1,18.837,19.3ZM12.284,22l.054,2a12.067,12.067,0,0,0,2.156-.254l-.414-1.957A10.08,10.08,0,0,1,12.284,22ZM12,0c-.367,0-.731.017-1.09.049l.181,1.992Q11.54,2,12,2A10.011,10.011,0,0,1,22,12c0,.307-.015.611-.041.911l1.992.177C23.983,12.73,24,12.367,24,12A12.013,12.013,0,0,0,12,0Zm1.723,13H17V11H13.723A2,2,0,0,0,13,10.277V6H11v4.277A1.994,1.994,0,1,0,13.723,13Z"/></svg>
