<?xml version="1.0" encoding="UTF-8"?>
<svg xmlns="http://www.w3.org/2000/svg" id="Layer_1" data-name="Layer 1" viewBox="0 0 24 24" width="512" height="512"><path d="M19,5H17V4a3,3,0,0,0-3-3H3A3,3,0,0,0,0,4V19H2.041A3.465,3.465,0,0,0,2,19.5a3.5,3.5,0,0,0,7,0,3.465,3.465,0,0,0-.041-.5h6.082a3.465,3.465,0,0,0-.041.5,3.5,3.5,0,0,0,7,0,3.465,3.465,0,0,0-.041-.5H24V10A5.006,5.006,0,0,0,19,5Zm0,2a3,3,0,0,1,3,3v1H17V7ZM7,19.5a1.5,1.5,0,0,1-3,0,1.418,1.418,0,0,1,.093-.5H6.907A1.418,1.418,0,0,1,7,19.5ZM15,17H2V4A1,1,0,0,1,3,3H14a1,1,0,0,1,1,1Zm5,2.5a1.5,1.5,0,0,1-3,0,1.41,1.41,0,0,1,.093-.5h2.814A1.41,1.41,0,0,1,20,19.5ZM17,17V13h5v4Z"/></svg>
