<?xml version="1.0" encoding="UTF-8"?>
<svg xmlns="http://www.w3.org/2000/svg" id="Layer_1" data-name="Layer 1" viewBox="0 0 24 24" width="512" height="512"><path d="M0,22H20v2H0ZM24,8c0,2.774-2.185,6-5,6H17.965l-1.137,6H3.172L.065,3.618A3.02,3.02,0,0,1,3,0H17a3,3,0,0,1,2.928,3.653l-.076.4C22.46,4.307,24,5.734,24,8ZM17.969,3.249a1.013,1.013,0,0,0-.189-.874A1,1,0,0,0,17,2H3a1.006,1.006,0,0,0-.977,1.216L4.828,18H15.172ZM22,8c0-.467,0-1.831-2.521-1.985L18.345,12H19C20.545,12,22,9.746,22,8Z"/></svg>
