<?xml version="1.0" encoding="UTF-8"?>
<svg xmlns="http://www.w3.org/2000/svg" id="Layer_1" data-name="Layer 1" viewBox="0 0 24 24" width="512" height="512"><path d="M13.25,11.516A4.991,4.991,0,0,1,18,8a3,3,0,0,0,0-6,6.973,6.973,0,0,0-5,2.111V0H11V4.11A6.977,6.977,0,0,0,6,2,3,3,0,0,0,6,8a4.991,4.991,0,0,1,4.75,3.516A34.108,34.108,0,0,0,1,10H0v1C0,22.311,4.386,24,7,24a5.334,5.334,0,0,0,3.055-1.168A3.615,3.615,0,0,1,12,22a3.615,3.615,0,0,1,1.945.832A5.334,5.334,0,0,0,17,24c2.614,0,7-1.689,7-13V10H23A34.1,34.1,0,0,0,13.25,11.516ZM18,4a1,1,0,0,1,0,2,6.974,6.974,0,0,0-4.9,2.006A5.008,5.008,0,0,1,18,4ZM6,6A1,1,0,0,1,6,4a5.009,5.009,0,0,1,4.9,4.006A6.98,6.98,0,0,0,6,6ZM17,22a3.615,3.615,0,0,1-1.945-.832A5.334,5.334,0,0,0,12,20a5.334,5.334,0,0,0-3.055,1.168A3.615,3.615,0,0,1,7,22c-3.066,0-4.822-3.533-4.987-9.98a32.489,32.489,0,0,1,9.616,1.909l.371.148.372-.148a32.25,32.25,0,0,1,9.615-1.909C21.822,18.466,20.066,22,17,22Z"/><path d="M18.686,15.371a28.61,28.61,0,0,0-5.21,1.347l-.8.315c1.858.182,3.075,1.717,4.053,1.967C18.009,19.328,18.293,17.713,18.686,15.371Z"/><path d="M5.314,15.371c.393,2.342.677,3.957,1.958,3.629.978-.25,2.2-1.785,4.053-1.967l-.8-.315A28.61,28.61,0,0,0,5.314,15.371Z"/></svg>
