<svg id="Layer_1" height="512" viewBox="0 0 24 24" width="512" xmlns="http://www.w3.org/2000/svg" data-name="Layer 1"><path d="m9 9a1 1 0 0 1 1-1h1v-1a1 1 0 0 1 2 0v1h1a1 1 0 0 1 0 2h-1v1a1 1 0 0 1 -2 0v-1h-1a1 1 0 0 1 -1-1zm7 5h-8a1 1 0 0 0 0 2h8a1 1 0 0 0 0-2zm-4 4h-4a1 1 0 0 0 0 2h4a1 1 0 0 0 0-2zm9-11v12a5.006 5.006 0 0 1 -5 5h-8a5.006 5.006 0 0 1 -5-5v-12a5.006 5.006 0 0 1 5-5h.171a3.006 3.006 0 0 1 2.829-2h2a3.006 3.006 0 0 1 2.829 2h.171a5.006 5.006 0 0 1 5 5zm-2 0a3 3 0 0 0 -3-3h-1a1 1 0 0 1 -1-1 1 1 0 0 0 -1-1h-2a1 1 0 0 0 -1 1 1 1 0 0 1 -1 1h-1a3 3 0 0 0 -3 3v12a3 3 0 0 0 3 3h8a3 3 0 0 0 3-3z"/></svg>