<?xml version="1.0" encoding="UTF-8"?>
<svg xmlns="http://www.w3.org/2000/svg" id="Layer_1" data-name="Layer 1" viewBox="0 0 24 24" width="512" height="512"><path d="M20.418,2.975A3.008,3.008,0,0,0,17.6,1H6.4A3.008,3.008,0,0,0,3.582,2.975L1.438,8.869A23.785,23.785,0,0,0,0,17.031V19H2v4H8V19h8v4h6V19h2V17.031a23.785,23.785,0,0,0-1.438-8.162ZM5.461,3.658A1,1,0,0,1,6.4,3H17.6a1,1,0,0,1,.939.658l2.144,5.9c.173.477.317.962.456,1.447H2.861c.139-.485.283-.97.456-1.447ZM6,21H4V19H6Zm14,0H18V19h2ZM2,17a21.9,21.9,0,0,1,.382-4H4v1a1,1,0,0,0,1,1H5a1,1,0,0,0,1-1V13H18v1a1,1,0,0,0,1,1h0a1,1,0,0,0,1-1V13h1.618A21.9,21.9,0,0,1,22,17Z"/></svg>
