<?xml version="1.0" encoding="UTF-8"?>
<svg xmlns="http://www.w3.org/2000/svg" id="Layer_1" data-name="Layer 1" viewBox="0 0 24 24" width="512" height="512"><path d="M11.362,14h2.016l-.752,6H10.61ZM21.927,7.653,19.883,24H4.117L2.056,7.556A3.021,3.021,0,0,1,5,4h7.615l.5-4H20V2H14.883l-.251,2H19a3,3,0,0,1,2.928,3.653ZM14.381,6l-.5,4h5.742l.337-2.688a1.068,1.068,0,0,0-.179-.937A1,1,0,0,0,19,6ZM4.024,7.216,4.374,10h7.49l.5-4H5A1.006,1.006,0,0,0,4.024,7.216ZM18.117,22l1.254-10H4.625L5.882,22Z"/></svg>
