<?xml version="1.0" encoding="UTF-8"?>
<svg xmlns="http://www.w3.org/2000/svg" id="Layer_1" data-name="Layer 1" viewBox="0 0 24 24" width="512" height="512"><path d="M21.48,9h-.112c.87-1.761.617-5.337.552-6.086l-.1-1.115-1.1.221c-.745.149-4.342.934-5.714,2.329a22.088,22.088,0,0,0-2.269-3.017L12,.5l-.744.829A22.088,22.088,0,0,0,8.987,4.349C7.615,2.954,4.018,2.169,3.273,2.02L2.177,1.8l-.1,1.115c-.065.749-.318,4.325.552,6.086H2.52A2.525,2.525,0,0,0,.311,10.309a2.4,2.4,0,0,0,.06,2.468c1.929,3.066,7.008,5.455,9.655,6.537A5.565,5.565,0,0,0,8,23v1h8V23a4.789,4.789,0,0,0-1.365-3H16a2,2,0,0,1,2,2h2a4,4,0,0,0-3.269-3.926c2.558-1.269,5.532-3.107,6.9-5.3h0a2.4,2.4,0,0,0,.054-2.467A2.527,2.527,0,0,0,21.48,9ZM16.4,5.8c.375-.506,1.985-1.129,3.6-1.552.052,1.7-.088,3.451-.466,3.962a1.939,1.939,0,0,1-2.738.4A2.026,2.026,0,0,1,16.4,5.8ZM12,3.549C13.062,4.881,14,6.38,14,7a2,2,0,0,1-4,0C10,6.363,10.939,4.875,12,3.549Zm-7.994.694C5.619,4.666,7.229,5.289,7.6,5.8A2.026,2.026,0,0,1,7.21,8.6a1.939,1.939,0,0,1-2.738-.4C4.094,7.694,3.954,5.94,4.006,4.243ZM10.354,22A7.857,7.857,0,0,1,12,20.246,7.857,7.857,0,0,1,13.646,22ZM21.937,11.713c-1.294,2.072-4.536,3.87-7.034,5.018A7.934,7.934,0,0,0,16,13H14a8.061,8.061,0,0,1-2,4.48A8.061,8.061,0,0,1,10,13H8a7.939,7.939,0,0,0,1.092,3.723C6.6,15.572,3.361,13.774,2.064,11.712a.409.409,0,0,1,0-.436A.523.523,0,0,1,2.52,11H21.48a.525.525,0,0,1,.458.275A.415.415,0,0,1,21.937,11.713Z"/></svg>
