<?xml version="1.0" encoding="UTF-8"?>
<svg xmlns="http://www.w3.org/2000/svg" viewBox="0 0 24 24" width="512" height="512"><g id="_01_align_center" data-name="01 align center"><path d="M21,24H16V22h5a1,1,0,0,0,1-1V16h2v5A3,3,0,0,1,21,24Z"/><path d="M2,8H0V3A3,3,0,0,1,3,0H8V2H3A1,1,0,0,0,2,3Z"/><path d="M8,24H3a3,3,0,0,1-3-3V16H2v5a1,1,0,0,0,1,1H8Z"/><path d="M24,8H22V3a1,1,0,0,0-1-1H16V0h5a3,3,0,0,1,3,3Z"/><path d="M12,11a4,4,0,1,1,4-4A4,4,0,0,1,12,11Zm0-6a2,2,0,1,0,2,2A2,2,0,0,0,12,5Z"/><path d="M19,20H17V16a1,1,0,0,0-1-1H8a1,1,0,0,0-1,1v4H5V16a3,3,0,0,1,3-3h8a3,3,0,0,1,3,3Z"/></g></svg>
