<?xml version="1.0" encoding="UTF-8"?>
<svg xmlns="http://www.w3.org/2000/svg" id="Layer_1" data-name="Layer 1" viewBox="0 0 24 24" width="512" height="512"><path d="M19,14.007A7,7,0,1,0,7.058,18.964L12,23.8l4.95-4.841A6.952,6.952,0,0,0,19,14.007ZM12,21,8.464,17.542a5,5,0,1,1,7.079-.008Zm0-10a3,3,0,1,0,3,3A3,3,0,0,0,12,11Zm12-.954V24H14.653L16.7,22H22V10.043a.991.991,0,0,0-.384-.787l-9-7.044a1,1,0,0,0-1.232,0l-9,7.042A.994.994,0,0,0,2,10.043V22H7.3l2.045,2H0V10.043A2.985,2.985,0,0,1,1.151,7.68l9-7.042a3,3,0,0,1,3.7,0l9,7.044A2.981,2.981,0,0,1,24,10.043Z"/></svg>
