<svg id="Layer_1" height="512" viewBox="0 0 24 24" width="512" xmlns="http://www.w3.org/2000/svg" data-name="Layer 1"><path d="m23.121 7.122-2.414-2.415 2-2-1.414-1.414-2 2-2.414-2.414a3 3 0 0 0 -4.243 0l-2.828 2.828 4.535 4.536-6.1 6.1-4.536-4.535-2.828 2.828a3 3 0 0 0 0 4.242l2.414 2.415-2 2 1.414 1.414 2-2 2.414 2.414a3 3 0 0 0 4.243 0l2.828-2.828-4.535-4.536 6.1-6.1 4.535 4.535 2.828-2.828a3 3 0 0 0 0-4.242zm-13.171 14.585a1 1 0 0 1 -1.415 0l-6.242-6.243a1 1 0 0 1 0-1.414l1.414-1.414 7.657 7.657zm11.757-11.758-1.414 1.415-7.657-7.657 1.414-1.414a1 1 0 0 1 1.415 0l6.242 6.243a1 1 0 0 1 0 1.413z"/></svg>