<?xml version="1.0" encoding="UTF-8"?>
<svg xmlns="http://www.w3.org/2000/svg" id="Layer_1" data-name="Layer 1" viewBox="0 0 24 24" width="512" height="512"><path d="M24,20H14.816A3,3,0,0,0,13,18.184V14h3a5,5,0,0,0,.787-9.938A5.488,5.488,0,0,0,6,5.5a5.147,5.147,0,0,0,.038.617A4,4,0,0,0,7,14h4v4.184A3,3,0,0,0,9.184,20H0v2H9.184a2.982,2.982,0,0,0,5.632,0H24ZM5,10A2,2,0,0,1,7.037,8.007h.015l1.713.171-.54-1.491A3.429,3.429,0,0,1,8,5.5a3.488,3.488,0,0,1,6.956-.385l.1.89,1.005,0A3,3,0,0,1,16,12H7A2,2,0,0,1,5,10Zm7,12a1,1,0,1,1,1-1A1,1,0,0,1,12,22Z"/></svg>
