<svg id="Layer_1" height="512" viewBox="0 0 24 24" width="512" xmlns="http://www.w3.org/2000/svg" data-name="Layer 1"><path d="m24 20h-9.184a3 3 0 0 0 -1.816-1.816v-4.184h6a3 3 0 0 0 3-3v-3h-1v-5a3 3 0 0 0 -3-3h-12a3 3 0 0 0 -3 3v5h-1v3a3 3 0 0 0 3 3h6v4.184a3 3 0 0 0 -1.816 1.816h-9.184v2h9.184a2.982 2.982 0 0 0 5.632 0h9.184zm-19-17a1 1 0 0 1 1-1h12a1 1 0 0 1 1 1v5h-4.414l-1 1h-3.172l-1-1h-4.414zm-1 8v-1h4.586l1 1h4.828l1-1h4.586v1a1 1 0 0 1 -1 1h-14a1 1 0 0 1 -1-1zm8 11a1 1 0 1 1 1-1 1 1 0 0 1 -1 1z"/></svg>