<?xml version="1.0" encoding="UTF-8"?>
<svg xmlns="http://www.w3.org/2000/svg" id="Layer_1" data-name="Layer 1" viewBox="0 0 24 24" width="512" height="512"><path d="M15.7,7.134,13.85,8.2A4,4,0,0,0,12,7.142V5H10V7.142A4,4,0,0,0,8.15,8.2L6.3,7.134l-1,1.732L7.161,9.939A3.958,3.958,0,0,0,7,11a3.958,3.958,0,0,0,.161,1.061L5.3,13.134l1,1.732L8.15,13.8A4,4,0,0,0,10,14.858V17h2V14.858A4,4,0,0,0,13.85,13.8L15.7,14.866l1-1.732-1.857-1.073A3.958,3.958,0,0,0,15,11a3.958,3.958,0,0,0-.161-1.061L16.7,8.866ZM11,13a2,2,0,1,1,2-2A2,2,0,0,1,11,13Zm12.272-1.868A32.9,32.9,0,0,0,19.8,4.419,10.9,10.9,0,0,0,9.453.106a11,11,0,0,0-6.91,17.923A1.974,1.974,0,0,1,3,19.291V24H16V21h2.247a3.008,3.008,0,0,0,2.974-2.606L21.67,15H24V12.788S23.486,11.622,23.272,11.132ZM19.917,13l-.678,5.131a1,1,0,0,1-.992.869H14v3H5V19.291a3.978,3.978,0,0,0-.92-2.542,8.994,8.994,0,1,1,14.143-11.1,32.7,32.7,0,0,1,3.216,6.284c.156.357.312.715.468,1.069Z"/></svg>
