<svg id="Layer_1" height="512" viewBox="0 0 24 24" width="512" xmlns="http://www.w3.org/2000/svg" data-name="Layer 1"><path d="m22.535 7.324 1.43-1.4-5.75-5.873-1.43 1.4 2.256 2.3-2.179 2.041-.912-.913a3 3 0 0 0 -4.243 0l-8.707 8.707v6l-2.957 2.957 1.414 1.414 2.957-2.957h6l8.707-8.707a3 3 0 0 0 0-4.243l-.844-.843 2.163-2.023zm-4.828 3.555-8.121 8.121h-4.586v-3.711l1.918 1.918 1.414-1.414-2.355-2.355 1.586-1.586 2.355 2.355 1.414-1.414-2.355-2.355 1.586-1.586 2.355 2.355 1.414-1.414-2.355-2.355 1.144-1.145a1 1 0 0 1 1.415 0l3.171 3.171a1 1 0 0 1 0 1.415z"/></svg>