<svg id="Layer_1" height="512" viewBox="0 0 24 24" width="512" xmlns="http://www.w3.org/2000/svg" data-name="Layer 1"><path d="m11 13.723a1.984 1.984 0 0 1 0-3.446v-3.277a1 1 0 0 1 2 0v3.277a1.984 1.984 0 0 1 0 3.446v2.277a1 1 0 0 1 -2 0zm1-13.723a1 1 0 0 0 0 2 10 10 0 0 1 0 20 1 1 0 0 0 0 2 12 12 0 0 0 0-24zm-10.173 6.784a1 1 0 1 0 1 1 1 1 0 0 0 -1-1zm.173 5.216a1 1 0 1 0 -1 1 1 1 0 0 0 1-1zm2.221-8.793a1 1 0 1 0 1 1 1 1 0 0 0 -1-1zm3.558-2.366a1 1 0 1 0 1 1 1 1 0 0 0 -1-1zm-5.952 14.375a1 1 0 1 0 1 1 1 1 0 0 0 -1-1zm2.394 3.577a1 1 0 1 0 1 1 1 1 0 0 0 -1-1zm3.558 2.366a1 1 0 1 0 1 1 1 1 0 0 0 -1-1z"/></svg>