<?xml version="1.0" encoding="UTF-8"?>
<svg xmlns="http://www.w3.org/2000/svg" id="Layer_1" data-name="Layer 1" viewBox="0 0 24 24" width="512" height="512"><path d="M12,16a4,4,0,0,1,0-8A4,4,0,0,1,12,16Zm0-6a2,2,0,0,0,0,4A2,2,0,0,0,12,10Zm0,14a5.007,5.007,0,0,1-4.815-3.652,5.074,5.074,0,0,1-4.819-8.4c-3.4-3.511.009-9.6,4.834-8.349a5.014,5.014,0,0,1,9.6,0C21.7,2.383,25,8.412,21.629,11.991c3.408,3.538.011,9.442-4.814,8.357A5.007,5.007,0,0,1,12,24ZM8,18a1,1,0,0,1,1,1,3,3,0,0,0,6,0,1,1,0,0,1,1.506-.863c3.466,1.675,6.4-3.182,3.016-5.259a1.006,1.006,0,0,1,0-1.756c3.313-2.009.522-7.219-3.019-5.254A1,1,0,0,1,15,5,3,3,0,0,0,9,5a1,1,0,0,1-1.5.868C4,3.908,1.138,9.08,4.478,11.07a1.007,1.007,0,0,1,0,1.757C1.13,14.94,3.964,19.8,7.494,18.137A1,1,0,0,1,8,18Z"/></svg>
