<?xml version="1.0" encoding="UTF-8"?>
<svg xmlns="http://www.w3.org/2000/svg" id="Layer_1" data-name="Layer 1" viewBox="0 0 24 24" width="512" height="512"><path d="M5.423,16.7A3.207,3.207,0,0,0,5,18c0,1.618,1.476,2.356,2.553,2.895C8.4,21.318,9,21.646,9,22a2.518,2.518,0,0,1-.443.973L10.271,24A4.092,4.092,0,0,0,11,22c0-1.618-1.476-2.356-2.553-2.895C7.6,18.682,7,18.354,6.994,18.075a5.807,5.807,0,0,1,.584-1.124c2.344-.315,4.315-2.506,5.433-5.2a7.338,7.338,0,0,0,3.443,3.905,3.765,3.765,0,0,0-.379,2.451,4.348,4.348,0,0,0,2.46,2.563c1.474.842,1.83,1.117,1.116,2.447l1.762.945c1.665-3.1-.558-4.37-1.886-5.128-.715-.409-1.39-.794-1.505-1.284a2.481,2.481,0,0,1,.529-1.7C21.7,15.479,24,11.017,24,7a5.8,5.8,0,0,0-6-6,5.862,5.862,0,0,0-4.955,2.487A6.994,6.994,0,0,0,0,7C0,10.985,2.273,15.519,5.423,16.7ZM18,3a3.792,3.792,0,0,1,4,4c0,3.4-2.056,7-4,7s-4-3.6-4-7A3.792,3.792,0,0,1,18,3ZM7,2a5.006,5.006,0,0,1,5,5c0,3.526-2.354,8-5,8S2,10.526,2,7A5.006,5.006,0,0,1,7,2Z"/><path d="M19.977,8h-2a5.712,5.712,0,0,1-.825,2.47l1.7,1.06A7.674,7.674,0,0,0,19.977,8Z"/><path d="M9.977,8h-2a5.712,5.712,0,0,1-.825,2.47l1.7,1.06A7.674,7.674,0,0,0,9.977,8Z"/></svg>
