<?xml version="1.0" encoding="UTF-8"?>
<!-- Generator: Adobe Illustrator 25.0.0, SVG Export Plug-In . SVG Version: 6.00 Build 0)  -->
<svg xmlns="http://www.w3.org/2000/svg" xmlns:xlink="http://www.w3.org/1999/xlink" version="1.1" id="Layer_1" x="0px" y="0px" viewBox="0 0 512 512" style="enable-background:new 0 0 512 512;" xml:space="preserve" width="512" height="512">
<g id="XMLID_1_">
	<g>
		<path d="M512,256l-74.99,74.99v106.02H330.99L256,512l-74.99-74.99H74.99V330.99L0,256l74.99-74.99V74.99h106.02L256,0    l74.99,74.99h106.02v106.02L512,256z M406.85,300.78l44.8-44.8l-44.8-44.8l-12.5-12.48v-81.07h-81.07l-12.48-12.5L256,60.33v0.02    l-57.3,57.3h-81.07v81.07l-12.5,12.48L60.33,256l44.82,44.8l12.5,12.46v81.07h81.07l12.48,12.5l44.8,44.8l44.8-44.8l12.48-12.5    h81.07v-81.07L406.85,300.78z"/>
	</g>
</g>
</svg>
