<?xml version="1.0" encoding="UTF-8"?>
<svg xmlns="http://www.w3.org/2000/svg" id="Layer_1" data-name="Layer 1" viewBox="0 0 24 24" width="512" height="512"><path d="M16,16a1,1,0,1,1-1-1A1,1,0,0,1,16,16Zm3-1a1,1,0,1,0,1,1A1,1,0,0,0,19,15Zm-2-3a1,1,0,1,0,1,1A1,1,0,0,0,17,12Zm7,4a7.991,7.991,0,0,1-13.183,6.083,7.3,7.3,0,0,1-1.11,1.624L9.414,24H2.586l-.293-.293A9.732,9.732,0,0,1,0,17a11.781,11.781,0,0,1,1.736-5.463A8.441,8.441,0,0,0,3,8a11.618,11.618,0,0,0-.554-2.175A7.168,7.168,0,0,1,2,4a4,4,0,0,1,8,0,7.168,7.168,0,0,1-.446,1.825A11.618,11.618,0,0,0,9,8a6.7,6.7,0,0,0,.907,2.839A7.987,7.987,0,0,1,24,16ZM4,4c.016.15.211.772.354,1.226A10.708,10.708,0,0,1,5,8H7a10.708,10.708,0,0,1,.646-2.774A12,12,0,0,0,8,3.973,2,2,0,0,0,4,4Zm6,13a10.1,10.1,0,0,0-1.512-4.542A18.393,18.393,0,0,1,7.368,10H4.632a18.393,18.393,0,0,1-1.12,2.458A10.1,10.1,0,0,0,2,17a8.309,8.309,0,0,0,1.466,5H8.535A8.308,8.308,0,0,0,10,17Zm12-1a5.991,5.991,0,0,0-11.084-3.163A9.656,9.656,0,0,1,12,17a11.557,11.557,0,0,1-.4,3.064A5.993,5.993,0,0,0,22,16Z"/></svg>
