<?xml version="1.0" encoding="UTF-8"?>
<svg xmlns="http://www.w3.org/2000/svg" viewBox="0 0 24 24" width="512" height="512"><g id="_01_align_center" data-name="01 align center"><path d="M21,0H3A3,3,0,0,0,0,3V24H18.35c2.206-2.207,3.443-3.444,5.65-5.65V3A3,3,0,0,0,21,0ZM2,3A1,1,0,0,1,3,2H21a1,1,0,0,1,1,1V16H16v6H2ZM18,21.521V18h3.521Z"/><path d="M10.984,5H9.017v6.069h1.25v-2.1l.717,0a1.985,1.985,0,1,0,0-3.97Zm0,2.72-.71,0,0-1.473h.715a.735.735,0,1,1,0,1.47Z"/><path d="M16.06,9.763a1.637,1.637,0,0,1-1.2-.5l-.42-.463-.926.841.42.462a2.869,2.869,0,0,0,2.13.914A2,2,0,0,0,18.1,9.461a1.827,1.827,0,0,0-1.408-2.013c-.659-.244-1.257-.507-1.273-.507a.3.3,0,0,1-.13-.3.457.457,0,0,1,.363-.361,1.567,1.567,0,0,1,1.29.3l.475.4.8-.956-.479-.4a2.813,2.813,0,0,0-2.452-.537,1.711,1.711,0,0,0-1.239,1.38,1.572,1.572,0,0,0,.777,1.579s.678.3,1.43.58c.159.059.672.277.61.622A.781.781,0,0,1,16.06,9.763Z"/><polygon points="3.998 11.021 7.261 11.021 7.261 9.771 5.248 9.771 5.248 8.634 7.112 8.634 7.112 7.384 5.248 7.384 5.248 6.246 7.261 6.246 7.261 4.996 3.998 4.996 3.998 11.021"/></g></svg>
