<?xml version="1.0" encoding="UTF-8"?>
<svg xmlns="http://www.w3.org/2000/svg" id="Layer_1" data-name="Layer 1" viewBox="0 0 24 24" width="512" height="512"><path d="M14.081,5.586.9,18.769A3.064,3.064,0,0,0,5.23,23.1L18.414,9.919Zm1.505,4.333L13,12.505,11.5,11l2.586-2.586ZM3.816,21.688a1.087,1.087,0,0,1-1.5,0,1.062,1.062,0,0,1,0-1.5l7.769-7.77,1.505,1.505Zm17.517-7.06L24,15.962,21.333,17.3,20,19.962,18.667,17.3,16,15.962l2.667-1.334L20,11.962ZM6.667,5.333,4,4,6.667,2.667,8,0,9.333,2.667,12,4,9.333,5.333,8,8Zm12.666-.666L17,3.5l2.333-1.167L20.5,0l1.167,2.333L24,3.5,21.667,4.667,20.5,7Z"/></svg>
