<?xml version="1.0" encoding="UTF-8"?>
<svg xmlns="http://www.w3.org/2000/svg" id="Outline" viewBox="0 0 24 24" width="512" height="512"><path d="M19,6H13V3a1,1,0,0,0-2,0V6H5a5.006,5.006,0,0,0-5,5v4a5.006,5.006,0,0,0,5,5H19a5.006,5.006,0,0,0,5-5V11A5.006,5.006,0,0,0,19,6Zm3,9a3,3,0,0,1-3,3H5a3,3,0,0,1-3-3V11A3,3,0,0,1,5,8H19a3,3,0,0,1,3,3Z"/><path d="M15,14H9a1,1,0,0,0,0,2h6a1,1,0,0,0,0-2Z"/><path d="M10,12h1a1,1,0,0,0,0-2H10a1,1,0,0,0,0,2Z"/><path d="M19,10H15a1,1,0,0,0,0,2h4a1,1,0,0,0,0-2Z"/><path d="M6,10H5a1,1,0,0,0,0,2H6a1,1,0,0,0,0-2Z"/><circle cx="5" cy="15" r="1"/><circle cx="19" cy="15" r="1"/></svg>
