<?xml version="1.0" encoding="UTF-8"?>
<svg xmlns="http://www.w3.org/2000/svg" id="Layer_1" data-name="Layer 1" viewBox="0 0 24 24" width="512" height="512"><path d="M20,9.08c0-.027,0-.053,0-.08A8,8,0,0,0,4,9c0,.027,0,.053,0,.08a7.991,7.991,0,1,0,8,13.838A7.991,7.991,0,1,0,20,9.08ZM12,20.46a5.989,5.989,0,0,1-1.948-3.71,7.714,7.714,0,0,0,3.9,0A5.989,5.989,0,0,1,12,20.46ZM12,15a5.961,5.961,0,0,1-1.855-.3A6,6,0,0,1,12,11.54,6,6,0,0,1,13.855,14.7,5.961,5.961,0,0,1,12,15ZM8.331,13.737A6,6,0,0,1,6.145,10.3a5.951,5.951,0,0,1,4.112.147A8.007,8.007,0,0,0,8.331,13.737Zm5.412-3.293a5.951,5.951,0,0,1,4.112-.147,6,6,0,0,1-2.186,3.44A8.007,8.007,0,0,0,13.743,10.444ZM12,3a6.005,6.005,0,0,1,5.948,5.25A7.864,7.864,0,0,0,12,9.082,7.864,7.864,0,0,0,6.052,8.25,6.005,6.005,0,0,1,12,3ZM2,16a5.987,5.987,0,0,1,2.331-4.737A8.029,8.029,0,0,0,8,15.92c0,.027,0,.053,0,.08a7.968,7.968,0,0,0,2.257,5.556A5.993,5.993,0,0,1,2,16Zm14,6a5.974,5.974,0,0,1-2.257-.444A7.968,7.968,0,0,0,16,16c0-.027,0-.053,0-.08a8.029,8.029,0,0,0,3.673-4.657A5.993,5.993,0,0,1,16,22Z"/></svg>
