<?xml version="1.0" encoding="UTF-8"?>
<!-- Generator: Adobe Illustrator 25.0.0, SVG Export Plug-In . SVG Version: 6.00 Build 0)  -->
<svg xmlns="http://www.w3.org/2000/svg" xmlns:xlink="http://www.w3.org/1999/xlink" version="1.1" id="Layer_1" x="0px" y="0px" viewBox="0 0 512 512" style="enable-background:new 0 0 512 512;" xml:space="preserve" width="512" height="512">
<path d="M469.272,0H341.561v42.57h97.614L293.754,187.991c-78.702-62.08-192.828-48.605-254.908,30.097  S-9.758,410.916,68.944,472.996s192.828,48.605,254.908-30.097c51.995-65.917,51.995-158.893,0-224.81L469.272,72.668v97.614h42.57  V42.57C511.842,19.059,492.783,0,469.272,0z M181.922,468.275c-76.411,0-138.354-61.943-138.354-138.354  s61.943-138.354,138.354-138.354s138.354,61.943,138.354,138.354C320.182,406.293,258.294,468.181,181.922,468.275z"/>
</svg>
