<?xml version="1.0" encoding="UTF-8"?>
<svg xmlns="http://www.w3.org/2000/svg" id="Layer_1" data-name="Layer 1" viewBox="0 0 24 24" width="512" height="512"><path d="M19,10a5,5,0,1,0-3.536-1.462A4.99,4.99,0,0,0,19,10Zm2.122-2.876a3,3,0,0,1-3.406.576L21.7,3.716A3,3,0,0,1,21.122,7.122ZM16.878,2.878A3,3,0,0,1,20.284,2.3L16.3,6.284A3,3,0,0,1,16.878,2.878ZM24,9.9V24H0V6A3,3,0,0,1,3,3h9.293A7.043,7.043,0,0,0,12,5H3A1,1,0,0,0,2,6v.242l7.878,7.88a3.074,3.074,0,0,0,4.244,0l2.532-2.532A7.027,7.027,0,0,0,19,12c.026,0,.051,0,.077,0l-3.541,3.542a5,5,0,0,1-7.072,0L2,9.071V22H22V11.318A6.957,6.957,0,0,0,23.95,9.95C23.968,9.932,23.983,9.912,24,9.9Z"/></svg>
