<?xml version="1.0" encoding="UTF-8"?>
<svg xmlns="http://www.w3.org/2000/svg" id="Layer_1" data-name="Layer 1" viewBox="0 0 24 24" width="512" height="512"><path d="M24,11.5a3.494,3.494,0,0,0-2.149-3.225A9.974,9.974,0,0,0,12,0V0A9.974,9.974,0,0,0,2.149,8.275a3.5,3.5,0,0,0,1.119,6.716,10.3,10.3,0,0,0,1.471,2.3A3,3,0,0,0,3,20v4H5V20a1,1,0,0,1,1-1h.528A9.074,9.074,0,0,0,12,21v0a9.079,9.079,0,0,0,5.475-2H18a1,1,0,0,1,1,1v4h2V20a3,3,0,0,0-1.738-2.711,10.327,10.327,0,0,0,1.47-2.3A3.505,3.505,0,0,0,24,11.5Zm-3.752,1.473-.835-.148-.282.8C18.215,16.222,15.13,19,12,19v0c-3.13,0-6.214-2.78-7.131-5.376l-.28-.793-.83.14A1.567,1.567,0,0,1,3.5,13a1.5,1.5,0,0,1-.27-2.971L3.968,9.9l.078-.744a7.963,7.963,0,0,1,4.1-6.159A3.967,3.967,0,0,0,8,4a4,4,0,0,0,8,0H14a2,2,0,1,1-2-2,7.978,7.978,0,0,1,7.954,7.15l.078.744.738.133A1.5,1.5,0,0,1,20.5,13,1.606,1.606,0,0,1,20.248,12.974Z"/><circle cx="9.5" cy="11.501" r="1.5"/><circle cx="14.5" cy="11.501" r="1.5"/></svg>
