<?xml version="1.0" encoding="UTF-8"?>
<svg xmlns="http://www.w3.org/2000/svg" id="Layer_1" data-name="Layer 1" viewBox="0 0 24 24" width="512" height="512"><path d="M23.681,3.267a1,1,0,0,0-1.414,0L19.293,6.24A1,1,0,0,0,19,6.947V18a1,1,0,0,1-1,1H16V5a5.006,5.006,0,0,0-5-5H5A5.006,5.006,0,0,0,0,5V19a5.006,5.006,0,0,0,5,5h6a5,5,0,0,0,4.576-3H18a3,3,0,0,0,3-3V7.361l2.681-2.68A1,1,0,0,0,23.681,3.267ZM5,2h6a3,3,0,0,1,3,3V9H12a3.967,3.967,0,0,0-.985-2.6l.692-.693a1,1,0,1,0-1.414-1.414l-.954.954A3.962,3.962,0,0,0,4,9H2V5A3,3,0,0,1,5,2ZM6,9a2,2,0,0,1,4,0Zm5,13H5a3,3,0,0,1-3-3V11H14v8A3,3,0,0,1,11,22Z"/></svg>
