<?xml version="1.0" encoding="UTF-8"?>
<svg xmlns="http://www.w3.org/2000/svg" id="Outline" viewBox="0 0 24 24" width="512" height="512"><path d="M11.007,2.578,11,18.016a1,1,0,0,0,1,1h0a1,1,0,0,0,1-1l.007-15.421,2.912,2.913a1,1,0,0,0,1.414,0h0a1,1,0,0,0,0-1.414L14.122.879a3,3,0,0,0-4.244,0L6.667,4.091a1,1,0,0,0,0,1.414h0a1,1,0,0,0,1.414,0Z"/><path d="M22,17v4a1,1,0,0,1-1,1H3a1,1,0,0,1-1-1V17a1,1,0,0,0-1-1H1a1,1,0,0,0-1,1v4a3,3,0,0,0,3,3H21a3,3,0,0,0,3-3V17a1,1,0,0,0-1-1h0A1,1,0,0,0,22,17Z"/></svg>
