<svg id="Layer_1" height="512" viewBox="0 0 24 24" width="512" xmlns="http://www.w3.org/2000/svg" data-name="Layer 1"><path d="m12 10a20.378 20.378 0 0 0 -4 .392v-2.339l6.915-3.494-5.881-4.259-.134-.088a2 2 0 0 0 -2.9 1.788v8.914c-3.609 1.195-6 3.446-6 6.086 0 3.925 5.271 7 12 7s12-3.075 12-7-5.271-7-12-7zm-4-7.982 3.085 2.235-3.085 1.559zm4 19.982c-5.42 0-10-2.29-10-5 0-1.594 1.591-3.039 4-3.962v3.962h2v-4.563a18.274 18.274 0 0 1 4-.437c5.42 0 10 2.29 10 5s-4.58 5-10 5zm5-5a2 2 0 1 1 -2-2 2 2 0 0 1 2 2z"/></svg>