<?xml version="1.0" encoding="UTF-8"?>
<svg xmlns="http://www.w3.org/2000/svg" id="Outline" viewBox="0 0 24 24" width="512" height="512"><path d="M24,10a.988.988,0,0,0-.024-.217l-1.3-5.868A4.968,4.968,0,0,0,17.792,0H6.208a4.968,4.968,0,0,0-4.88,3.915L.024,9.783A.988.988,0,0,0,0,10v1a3.984,3.984,0,0,0,1,2.643V19a5.006,5.006,0,0,0,5,5H18a5.006,5.006,0,0,0,5-5V13.643A3.984,3.984,0,0,0,24,11ZM2,10.109l1.28-5.76A2.982,2.982,0,0,1,6.208,2H7V5A1,1,0,0,0,9,5V2h6V5a1,1,0,0,0,2,0V2h.792A2.982,2.982,0,0,1,20.72,4.349L22,10.109V11a2,2,0,0,1-2,2H19a2,2,0,0,1-2-2,1,1,0,0,0-2,0,2,2,0,0,1-2,2H11a2,2,0,0,1-2-2,1,1,0,0,0-2,0,2,2,0,0,1-2,2H4a2,2,0,0,1-2-2ZM18,22H6a3,3,0,0,1-3-3V14.873A3.978,3.978,0,0,0,4,15H5a3.99,3.99,0,0,0,3-1.357A3.99,3.99,0,0,0,11,15h2a3.99,3.99,0,0,0,3-1.357A3.99,3.99,0,0,0,19,15h1a3.978,3.978,0,0,0,1-.127V19A3,3,0,0,1,18,22Z"/></svg>
