<?xml version="1.0" encoding="UTF-8"?>
<svg xmlns="http://www.w3.org/2000/svg" id="Layer_1" data-name="Layer 1" viewBox="0 0 24 24" width="512" height="512"><path d="M12,12A4,4,0,1,0,8,8,4,4,0,0,0,12,12Zm0-6a2,2,0,1,1-2,2A2,2,0,0,1,12,6Zm8.66,3.157-.719-.239A8,8,0,0,0,12,0,7.993,7.993,0,0,0,4.086,9.092a5.045,5.045,0,0,0-2.548,1.3A4.946,4.946,0,0,0,0,14v4.075a5.013,5.013,0,0,0,3.6,4.8l2.87.9A4.981,4.981,0,0,0,7.959,24a5.076,5.076,0,0,0,1.355-.186l5.78-1.71a2.987,2.987,0,0,1,1.573,0l2.387.8A4,4,0,0,0,24,19.021V13.872A5.015,5.015,0,0,0,20.66,9.156ZM7.758,3.762a5.987,5.987,0,0,1,8.484,0,6.037,6.037,0,0,1,.011,8.5L12.7,15.717a.992.992,0,0,1-1.389,0L7.758,12.277A6.04,6.04,0,0,1,7.758,3.762ZM22,19.021a1.991,1.991,0,0,1-.764,1.572,1.969,1.969,0,0,1-1.626.395L17.265,20.2a5.023,5.023,0,0,0-2.717-.016L8.764,21.892a3,3,0,0,1-1.694-.029l-2.894-.9A3.013,3.013,0,0,1,2,18.075V14a2.964,2.964,0,0,1,.92-2.163,3.024,3.024,0,0,1,1.669-.806A8.021,8.021,0,0,0,6.354,13.7l3.567,3.453a2.983,2.983,0,0,0,4.174,0l3.563-3.463a7.962,7.962,0,0,0,1.813-2.821l.537.178A3.006,3.006,0,0,1,22,13.872Z"/></svg>
