<?xml version="1.0" encoding="UTF-8"?>
<svg xmlns="http://www.w3.org/2000/svg" id="Layer_1" data-name="Layer 1" viewBox="0 0 24 24" width="512" height="512"><path d="M15,6H9V4h6Zm6,12.3-.168.252a6.188,6.188,0,0,1-1.482,1.413L21,24H18.838l-1.246-3.046A13.937,13.937,0,0,1,12,22a13.937,13.937,0,0,1-5.592-1.046L5.162,24H3l1.65-4.032a6.188,6.188,0,0,1-1.482-1.413L3,18.3V4A2.934,2.934,0,0,1,4.882,1.525,20.149,20.149,0,0,1,12,0a20.154,20.154,0,0,1,7.118,1.525A2.935,2.935,0,0,1,21,4ZM5.009,4.25C5.1,8.42,7.522,14,12,14s6.9-5.58,6.991-9.75a.979.979,0,0,0-.61-.865A18.516,18.516,0,0,0,12,2,18.516,18.516,0,0,0,5.619,3.385.979.979,0,0,0,5.009,4.25ZM19,11.411C17.417,14.094,14.981,16,12,16s-5.417-1.906-7-4.589v6.237C5.552,18.257,7.526,20,12,20s6.438-1.735,7-2.353ZM12,17a1,1,0,1,0,1,1A1,1,0,0,0,12,17Z"/></svg>
