<?xml version="1.0" encoding="UTF-8"?>
<!-- Generator: Adobe Illustrator 25.0.0, SVG Export Plug-In . SVG Version: 6.00 Build 0)  -->
<svg xmlns="http://www.w3.org/2000/svg" xmlns:xlink="http://www.w3.org/1999/xlink" version="1.1" id="Capa_1" x="0px" y="0px" viewBox="0 0 512 512" style="enable-background:new 0 0 512 512;" xml:space="preserve" width="512" height="512">
<g id="_01_align_center_1_">
	<path d="M448,0H64C28.654,0,0,28.654,0,64v448h391.467c47.061-47.083,73.451-73.472,120.533-120.533V64C512,28.654,483.346,0,448,0   z M42.667,64c0-11.782,9.551-21.333,21.333-21.333h384c11.782,0,21.333,9.551,21.333,21.333v277.333h-128v128H42.667V64z    M384,459.115V384h75.115L384,459.115z"/>
	<path d="M347.947,107.243h-41.621v0.171l0,0v17.771l0.235,108.523h13.333c0,0,20.992,0,29.077-0.213   c31.476-2.356,52.565-27.35,52.565-63.04C401.536,132.651,380.011,107.243,347.947,107.243z M348.501,206.784   c-3.499,0-9.429,0.107-14.933,0.149l-0.405-73.024h14.933c25.003,0,26.923,27.968,26.923,36.544   C374.869,188.309,366.741,206.464,348.501,206.784L348.501,206.784z"/>
	<path d="M126.869,106.667H84.907v129.472h26.667v-44.8h15.296c23.387,0,42.347-18.959,42.347-42.347s-18.959-42.347-42.347-42.347   V106.667z M126.869,164.693h-15.147v-31.424h15.253c8.66-0.005,15.684,7.011,15.689,15.671c0.005,8.66-7.011,15.684-15.671,15.689   c-0.006,0-0.012,0-0.018,0L126.869,164.693z"/>
	<path d="M226.453,133.995c9.668-2.048,19.747,0.296,27.52,6.4l10.155,8.533l17.067-20.395L270.976,120   c-14.684-11.792-34.044-16.024-52.309-11.435c-13.832,3.764-24.175,15.284-26.432,29.44c-1.866,13.559,4.695,26.891,16.576,33.685   c0,0,14.464,6.4,30.507,12.373c3.392,1.259,14.336,5.909,13.013,13.248c-2.504,7.252-9.642,11.851-17.28,11.136   c-9.637,0.118-18.897-3.741-25.6-10.667l-8.917-10.048l-19.733,17.92l8.96,9.877c11.722,12.6,28.21,19.678,45.419,19.499   c20.602,0.932,38.922-13.006,43.52-33.109c2.564-19.924-10.444-38.531-30.037-42.965c-13.995-5.184-26.795-10.795-27.157-10.795   c-2.108-1.398-3.195-3.906-2.773-6.4C219.471,137.834,222.531,134.756,226.453,133.995z"/>
</g>
</svg>
