<?xml version="1.0" encoding="UTF-8"?>
<svg xmlns="http://www.w3.org/2000/svg" viewBox="0 0 24 24" width="512" height="512"><g id="_01_align_center" data-name="01 align center"><path d="M22,9.979V16H16v6H2V3A1,1,0,0,1,3,2H16.148L17.359.646A4.934,4.934,0,0,1,18.07,0H3A3,3,0,0,0,0,3V24H18.414L24,18.414V7.979ZM18,21.586V18h3.586Z"/><path d="M12.729,11.82,20.34,3.313a.945.945,0,0,1,1.372-.038.943.943,0,0,1,0,1.335L13.68,12.643a4.964,4.964,0,0,1,1.042,1.785l8.4-8.4a2.947,2.947,0,0,0,0-4.163,2.943,2.943,0,0,0-4.276.118l-8.136,9.093A4.967,4.967,0,0,1,12.729,11.82Z"/><path d="M10,13c-4,0-5,6-5,6h5a3,3,0,0,0,0-6Z"/></g></svg>
