<?xml version="1.0" encoding="UTF-8"?>
<svg xmlns="http://www.w3.org/2000/svg" viewBox="0 0 24 24" width="512" height="512"><g id="_01_align_center" data-name="01 align center"><path d="M12,0A12,12,0,1,0,24,12,12.013,12.013,0,0,0,12,0ZM22,12a9.941,9.941,0,0,1-1.646,5.482A5.288,5.288,0,0,1,19,13.99V12H13a1,1,0,0,1-1-1V10h3V6h2.914l1.109-1.109A9.969,9.969,0,0,1,22,12Zm-19.951.963L6.086,17H10a1,1,0,0,1,1,1v3.949A10.016,10.016,0,0,1,2.049,12.963ZM13,21.949V18a3,3,0,0,0-3-3H6.914L2.163,10.249A9.978,9.978,0,0,1,17.456,3.63l-.37.37H13V8H10v3a3,3,0,0,0,3,3h4a7.2,7.2,0,0,0,2.072,5.063A9.969,9.969,0,0,1,13,21.949Z"/></g></svg>
