<?xml version="1.0" encoding="UTF-8"?>
<svg xmlns="http://www.w3.org/2000/svg" id="Layer_1" data-name="Layer 1" viewBox="0 0 24 24" width="512" height="512"><path d="M22.867,14A11.623,11.623,0,0,0,13,18.783V13.919A6.015,6.015,0,0,0,18,8c0-2.8-1.944-5.159-3.844-7.1a3.083,3.083,0,0,0-4.313,0C7.943,2.836,6,5.2,6,8a6.015,6.015,0,0,0,5,5.924v4.864A11.623,11.623,0,0,0,1.133,14H0l.141,1.126c.787,6.308,6.718,8.451,10.613,8.825a16.452,16.452,0,0,0,2.492,0c3.895-.373,9.825-2.516,10.613-8.825L24,14ZM2.361,16.061a9.625,9.625,0,0,1,8.187,5.84C8.162,21.594,3.585,20.434,2.361,16.061ZM8,8c0-2.076,1.81-4.176,3.428-5.829A21.4,21.4,0,0,0,10,9h2a19.475,19.475,0,0,1,1.293-6.108C14.71,4.411,16,6.162,16,8A4,4,0,1,1,8,8ZM13.452,21.9a9.627,9.627,0,0,1,8.187-5.84C20.415,20.434,15.838,21.594,13.452,21.9Z"/></svg>
