<?xml version="1.0" encoding="UTF-8"?>
<svg xmlns="http://www.w3.org/2000/svg" id="Layer_1" data-name="Layer 1" viewBox="0 0 24 24" width="512" height="512"><path d="M23,11a1,1,0,0,0,0-2H21.6l-.77-2.481A4.964,4.964,0,0,0,16.7,3.052,4.982,4.982,0,0,0,12.117,0h-.234A4.982,4.982,0,0,0,7.3,3.052,4.964,4.964,0,0,0,3.172,6.518L2.4,9H1a1,1,0,0,0,0,2h.781l-.715,2.3A3.958,3.958,0,0,0,2,19.444V21a3,3,0,0,0,6,0V20h8v1a3,3,0,0,0,6,0V19.444a3.958,3.958,0,0,0,.934-6.142L22.219,11ZM11.883,2h.234a2.991,2.991,0,0,1,2.226,1H9.657A2.988,2.988,0,0,1,11.883,2Zm-6.8,5.11A2.986,2.986,0,0,1,7.947,5h8.106a2.986,2.986,0,0,1,2.865,2.111l1.532,4.934A3.941,3.941,0,0,0,20,12H4a3.941,3.941,0,0,0-.45.045ZM6,21a1,1,0,0,1-2,0V20H6Zm14,0a1,1,0,0,1-2,0V20h2Zm0-3H4a2,2,0,0,1,0-4v1a1,1,0,0,0,2,0V14H18v1a1,1,0,0,0,2,0V14a2,2,0,0,1,0,4Z"/></svg>
