<?xml version="1.0" encoding="UTF-8"?>
<svg xmlns="http://www.w3.org/2000/svg" id="Outline" viewBox="0 0 24 24" width="512" height="512"><path d="M3.787,20.656A3.789,3.789,0,0,1,0,16.87V7.13A3.783,3.783,0,0,1,6.021,4.079L9.8,6.853a3.783,3.783,0,0,1,6.01-2.774l6.641,4.87a3.784,3.784,0,0,1,0,6.1l-6.641,4.87A3.783,3.783,0,0,1,9.8,17.147L6.021,19.921A3.775,3.775,0,0,1,3.787,20.656Zm7.006-6.475a1,1,0,0,1,1,1V16.87a1.784,1.784,0,0,0,2.838,1.438l6.64-4.87a1.783,1.783,0,0,0,0-2.876l-6.64-4.87A1.784,1.784,0,0,0,11.793,7.13V8.819a1,1,0,0,1-1.591.806L4.838,5.692A1.784,1.784,0,0,0,2,7.13v9.74a1.784,1.784,0,0,0,2.838,1.438L10.2,14.375A1,1,0,0,1,10.793,14.181Z"/></svg>
