<?xml version="1.0" encoding="UTF-8"?>
<svg xmlns="http://www.w3.org/2000/svg" id="Layer_1" data-name="Layer 1" viewBox="0 0 24 24" width="512" height="512"><path d="M19,3a4.968,4.968,0,0,0,1-3H18a3,3,0,0,1-3,3H9A3,3,0,0,1,6,0H4A4.968,4.968,0,0,0,5,3H0V4A6.589,6.589,0,0,0,3.267,9.272L6,21.129A3,3,0,0,0,9,24h6a3,3,0,0,0,3-2.871L20.733,9.272A6.589,6.589,0,0,0,24,4V3ZM15.688,5a9.875,9.875,0,0,1,2.706,2.978A5.08,5.08,0,0,0,13,13v5H11V13A5.08,5.08,0,0,0,5.606,7.978,9.875,9.875,0,0,1,8.312,5ZM5.326,5A12.253,12.253,0,0,0,3.747,7.19,4.961,4.961,0,0,1,2.192,5ZM6,10a2.984,2.984,0,0,1,1.034.184,1.506,1.506,0,0,0,1.782,1.782A2.984,2.984,0,0,1,9,13v5a2.978,2.978,0,0,0-1.564.441L5.483,9.976C5.652,9.992,5.824,10,6,10Zm9,12H9a1,1,0,0,1,0-2h6A1,1,0,0,1,15,22Zm1.564-3.559A2.978,2.978,0,0,0,15,18V13a2.984,2.984,0,0,1,.184-1.034,1.506,1.506,0,0,0,1.782-1.782,4.906,4.906,0,0,1,1.551-.208ZM20.253,7.19A12.253,12.253,0,0,0,18.674,5h3.134A4.961,4.961,0,0,1,20.253,7.19Z"/></svg>
