<?xml version="1.0" encoding="UTF-8"?>
<svg xmlns="http://www.w3.org/2000/svg" id="Layer_1" data-name="Layer 1" viewBox="0 0 24 24" width="512" height="512"><path d="M20.036,24H3.964A3.955,3.955,0,0,1,.422,18.267L8.459,2.189A3.932,3.932,0,0,1,11.736.008a3.977,3.977,0,0,1,3.805,2.181l8.037,16.078A3.961,3.961,0,0,1,20.036,24ZM2,20.043A1.973,1.973,0,0,0,3.964,22H20.036A1.973,1.973,0,0,0,22,20.043a1.95,1.95,0,0,0-.212-.881L13.753,3.083a1.959,1.959,0,0,0-3.506,0L2.21,19.162A1.95,1.95,0,0,0,2,20.043Z"/></svg>
