<?xml version="1.0" encoding="UTF-8"?>
<svg xmlns="http://www.w3.org/2000/svg" id="Layer_1" data-name="Layer 1" viewBox="0 0 24 24" width="512" height="512"><path d="M14.96,6.139A5.033,5.033,0,0,0,11.78,5H8.771L7.453,0H1.029L2.347,5H0V7H11.78a3.029,3.029,0,0,1,1.913.687A13.424,13.424,0,0,1,17.077,12H14.7l-3,2H0v2H12.3l3-2h6.641A9.012,9.012,0,0,1,13,22H0v2H13A11.013,11.013,0,0,0,24,13V12H19.287A15.726,15.726,0,0,0,14.96,6.139ZM3.625,2H5.912L6.7,5H4.415ZM12,11H0V9H12ZM3,20a1,1,0,1,1,1-1A1,1,0,0,1,3,20Zm4,0a1,1,0,1,1,1-1A1,1,0,0,1,7,20Zm4,0a1,1,0,1,1,1-1A1,1,0,0,1,11,20Z"/></svg>
