<?xml version="1.0" encoding="UTF-8"?>
<svg xmlns="http://www.w3.org/2000/svg" id="Layer_1" data-name="Layer 1" viewBox="0 0 24 24" width="512" height="512"><path d="M12,10a3,3,0,0,1,0-6A3,3,0,0,1,12,10ZM8.968,15.249a3.183,3.183,0,0,1,6.063,0,1,1,0,0,0,1.938-.5c-1.311-4.947-8.63-4.945-9.937,0a1,1,0,1,0,1.936.5Zm3.041,8.416a2.01,2.01,0,0,1-1.338-.509L6.923,20H4a4,4,0,0,1-4-4V4A4,4,0,0,1,4,0H20a4,4,0,0,1,4,4V16a4,4,0,0,1-4,4H17.147L13.3,23.18A1.94,1.94,0,0,1,12.009,23.665ZM4,2A2,2,0,0,0,2,4V16a2,2,0,0,0,2,2H7.289a1,1,0,0,1,.644.235l4.046,3.41,4.172-3.416A1,1,0,0,1,16.788,18H20a2,2,0,0,0,2-2V4a2,2,0,0,0-2-2Z"/></svg>
