<svg id="Layer_1" height="512" viewBox="0 0 24 24" width="512" xmlns="http://www.w3.org/2000/svg" data-name="Layer 1"><path d="m20.485 3.515a11.994 11.994 0 1 0 0 16.97 12.013 12.013 0 0 0 0-16.97zm1.449 7.417a7.964 7.964 0 0 1 -8.865-8.866 9.961 9.961 0 0 1 8.865 8.866zm-19.868 2.136a7.964 7.964 0 0 1 8.865 8.866 9.961 9.961 0 0 1 -8.865-8.866zm17.005 6a9.947 9.947 0 0 1 -6.127 2.879 9.971 9.971 0 0 0 -10.9-10.894 9.979 9.979 0 0 1 9.012-9.003 9.986 9.986 0 0 0 9.944 10.95c.317 0 .635-.016.953-.046a9.951 9.951 0 0 1 -2.882 6.117z"/></svg>