<svg id="Layer_1" height="512" viewBox="0 0 24 24" width="512" xmlns="http://www.w3.org/2000/svg" data-name="Layer 1"><path d="m14 13a2 2 0 1 1 -3-1.723v-5.277h2v5.277a1.994 1.994 0 0 1 1 1.723zm6.06-7.461a11 11 0 1 1 -16.12 0l-.978-1.087-.88.88-1.414-1.414 3.25-3.25 1.414 1.414-.954.954 1.048 1.164a10.923 10.923 0 0 1 5.574-2.149v-2.051h2v2.051a10.923 10.923 0 0 1 5.574 2.149l1.048-1.165-.892-.891 1.415-1.414 3.187 3.188-1.414 1.414-.88-.88zm.94 7.461a9 9 0 1 0 -9 9 9.01 9.01 0 0 0 9-9z"/></svg>