<?xml version="1.0" encoding="UTF-8"?>
<svg xmlns="http://www.w3.org/2000/svg" id="Layer_1" data-name="Layer 1" viewBox="0 0 24 24" width="512" height="512"><path d="M24,5H20.414l3.293-3.293L22.293.293,19,3.586V0H17V5.456A10.139,10.139,0,0,0,14.146,3.33,3.765,3.765,0,0,0,9.723,4.378C7.31,6.791,1.708,20.1,1.077,21.615L.139,23.861l2.247-.938c1.51-.631,14.824-6.233,17.236-8.646a3.766,3.766,0,0,0,1.049-4.422A10.167,10.167,0,0,0,18.544,7H24Zm-5.792,7.863a12.594,12.594,0,0,1-2.363,1.568l-2.388-2.388-1.414,1.414L14,15.416c-2.916,1.5-6.784,3.259-10.113,4.7.837-1.941,1.786-4.065,2.728-6.08L8.605,16.02l1.415-1.415-2.491-2.49c.9-1.862,1.76-3.517,2.469-4.7l2.545,2.545,1.414-1.414L11.174,5.76c.847-.789,1.366-.922,2.183-.592a11.623,11.623,0,0,1,3.008,2.466,11.628,11.628,0,0,1,2.467,3.009C19.081,11.223,19.178,11.894,18.208,12.863Z"/></svg>
