<?xml version="1.0" encoding="UTF-8"?>
<svg xmlns="http://www.w3.org/2000/svg" id="Layer_1" data-name="Layer 1" viewBox="0 0 24 24" width="512" height="512"><path d="M9.068,16.347l4.9,4.9.707-.707a7.977,7.977,0,0,0,2.075-7.619l-.246-1,2.086-2.086.217.217a3.085,3.085,0,0,0,3.938.4,3,3,0,0,0,.38-4.565L18.2.954a3.085,3.085,0,0,0-3.938-.4,3,3,0,0,0-.38,4.565l.293.293L12.085,7.5,11.1,7.258A7.985,7.985,0,0,0,3.464,9.33l-.707.707,4.9,4.895L.293,22.293l1.414,1.414ZM10.607,9.2l2.1.514,4.3-4.3L15.293,3.707a1,1,0,0,1,.134-1.528,1.084,1.084,0,0,1,1.356.19l4.924,4.924h0a1,1,0,0,1-.134,1.528,1.084,1.084,0,0,1-1.356-.19L18.586,7l-4.3,4.3.518,2.111a5.977,5.977,0,0,1-.9,4.946L5.646,10.1A5.986,5.986,0,0,1,10.607,9.2Z"/></svg>
