<?xml version="1.0" encoding="UTF-8"?>
<svg xmlns="http://www.w3.org/2000/svg" id="Layer_1" data-name="Layer 1" viewBox="0 0 24 24" width="512" height="512"><path d="M23,12a3,3,0,0,0-3-3H19V6H18a4.012,4.012,0,0,0-4.727-3.932,4.513,4.513,0,0,0-7.518-.043A3.993,3.993,0,0,0,2,6H1V21a3,3,0,0,0,3,3H16a3,3,0,0,0,3-3V19h4ZM6,4c.059,0,.919.142.919.142l.32-.688a2.5,2.5,0,0,1,4.592.17l.377,1,.972-.44A2,2,0,0,1,16,6H9v7a1,1,0,0,1-2,0V6H4A2,2,0,0,1,6,4ZM17,21a1,1,0,0,1-1,1H4a1,1,0,0,1-1-1V8H5v5a3,3,0,0,0,6,0V8h6Zm4-4H19V11h1a1,1,0,0,1,1,1Z"/></svg>
