<?xml version="1.0" encoding="UTF-8"?>
<svg xmlns="http://www.w3.org/2000/svg" id="Layer_1" data-name="Layer 1" viewBox="0 0 24 24" width="512" height="512"><path d="M19.783,12.079c-.164-.586-.349-1.206-.555-1.873A23.043,23.043,0,0,1,18,5a1,1,0,0,1,2,0,1,1,0,0,0,2,0,3,3,0,0,0-6,0,10.641,10.641,0,0,0,.319,2.263L11.519,11,5.971,7H9A1,1,0,0,0,9,5H5.971A1.969,1.969,0,0,0,4.809,8.559L9.88,12.271,8.442,13.39a4.954,4.954,0,1,0,1.15,1.638l7.289-5.669c.141.476.727,2.384.856,2.823a4.994,4.994,0,1,0,2.046-.1ZM5,20a3,3,0,1,1,3-3A3,3,0,0,1,5,20Zm14,0a3,3,0,1,1,3-3A3,3,0,0,1,19,20Z"/></svg>
