<?xml version="1.0" encoding="UTF-8"?>
<svg xmlns="http://www.w3.org/2000/svg" id="Layer_1" data-name="Layer 1" viewBox="0 0 24 24" width="512" height="512"><path d="M21,0H3A3,3,0,0,0,0,3V24H18.414L24,18.414V3A3,3,0,0,0,21,0ZM18,21.586V18h3.586ZM22,16H16v6H2V3A1,1,0,0,1,3,2H21a1,1,0,0,1,1,1ZM10.967,5H9v6.069h1.25v-2.1l.717,0a1.985,1.985,0,1,0,0-3.97Zm0,2.72-.71,0,0-1.473h.715a.735.735,0,1,1,0,1.47ZM15.251,7V9.068A.742.742,0,0,0,16,9.819a.759.759,0,0,0,.75-.735V9H16V8h2V9.084a2,2,0,0,1-2,1.984h0a1.991,1.991,0,0,1-2-1.985v-2.1A1.991,1.991,0,0,1,16,5h0a2.013,2.013,0,0,1,2,2H16.75A.772.772,0,0,0,16,6.25.742.742,0,0,0,15.251,7ZM6.75,5H8V9.084a1.991,1.991,0,0,1-2,1.985H6A2,2,0,0,1,4,9.084V9H5.255s0,.054,0,.084A.759.759,0,0,0,6,9.819a.742.742,0,0,0,.749-.751Z"/></svg>
