<?xml version="1.0" encoding="UTF-8"?>
<svg xmlns="http://www.w3.org/2000/svg" viewBox="0 0 24 24" width="512" height="512"><g id="_01_align_center" data-name="01 align center"><path d="M8,0H3A3,3,0,0,0,0,3V8H3L2.979,11l2,.01L5,8H8V4.984L11,5l.01-2L8,2.984ZM6,6H2V3A1,1,0,0,1,3,2H6Z"/><path d="M21,0H16V3l-2.995-.016-.01,2L16,5V8h3.015L19,11l2,.01L21.015,8H24V3A3,3,0,0,0,21,0Zm1,6H18V2h3a1,1,0,0,1,1,1Z"/><path d="M21.021,13.005l-2-.01L19.005,16H16v3.016L13.005,19,13,21,16,21.016V24h5a3,3,0,0,0,3-3V16h-3ZM22,21a1,1,0,0,1-1,1H18V18h4Z"/><path d="M8,16H4.985L5,13.005,3,13,2.985,16H0v5a3,3,0,0,0,3,3H8v-3L11,21.021l.01-2L8,19.005ZM6,22H3a1,1,0,0,1-1-1V18H6Z"/></g></svg>
