<?xml version="1.0" encoding="UTF-8"?>
<svg xmlns="http://www.w3.org/2000/svg" id="Layer_1" data-name="Layer 1" viewBox="0 0 24 24" width="512" height="512"><path d="M10,12a2,2,0,1,0,2,2A2,2,0,0,0,10,12Z"/><rect x="5" y="16.232" width="2" height="3.536" transform="translate(-10.971 9.515) rotate(-45)"/><path d="M21.5,5l1.982-1.982a1.768,1.768,0,0,0-2.5-2.5L19,2.5V3.652L16.279,6.343a5.9,5.9,0,0,0-7.719.215A5.023,5.023,0,0,0,7.6,7.9a.256.256,0,0,1-.133.106,7.171,7.171,0,0,0-5.4,2.056c-2.956,2.957-2.7,8.025.575,11.3A8.8,8.8,0,0,0,8.814,24a7.048,7.048,0,0,0,7.178-7.461.168.168,0,0,1,.1-.133,5.024,5.024,0,0,0,1.345-.96A5.894,5.894,0,0,0,17.69,7.76L20.481,5Zm-5.474,9.028a3.022,3.022,0,0,1-.815.579,2.161,2.161,0,0,0-1.217,2,5.193,5.193,0,0,1-1.473,3.917c-2.175,2.175-5.975,1.92-8.468-.574S1.3,13.655,3.479,11.479A5.161,5.161,0,0,1,7.183,10c.071,0,.142,0,.214,0a2.138,2.138,0,0,0,2-1.219,3.02,3.02,0,0,1,.579-.814,3.863,3.863,0,0,1,4.87-.21l-1.8,1.776,1.406,1.422,1.8-1.779A3.855,3.855,0,0,1,16.026,14.028Z"/></svg>
