<svg id="Layer_1" height="512" viewBox="0 0 24 24" width="512" xmlns="http://www.w3.org/2000/svg" data-name="Layer 1"><path d="m11 23a1 1 0 1 1 1 1 1 1 0 0 1 -1-1zm4.535-3.536a5 5 0 0 0 -7.07 0l1.414 1.414a3.074 3.074 0 0 1 4.242 0zm2.829-2.828a9.01 9.01 0 0 0 -12.728 0l1.414 1.414a7.011 7.011 0 0 1 9.9 0zm-.574-9.427a8 8 0 0 0 -15.79 1.791 7.912 7.912 0 0 0 .9 3.671 5.49 5.49 0 0 0 2.6 10.329h3.5c0-.053.013-.1.016-.156l-1.844-1.844h-1.672a3.491 3.491 0 0 1 -.872-6.874l1.4-.362.028-.016-.878-1.185a5.939 5.939 0 0 1 -1.178-3.563 6 6 0 0 1 11.939-.8l.1.758.759.1a5.992 5.992 0 0 1 .1 11.864l-1.919 1.92c0 .053.016.1.016.156h1a8 8 0 0 0 1.795-15.789z"/></svg>