<?xml version="1.0" encoding="UTF-8"?>
<svg xmlns="http://www.w3.org/2000/svg" id="Layer_1" data-name="Layer 1" viewBox="0 0 24 24" width="512" height="512"><path d="M23.517,2.087A4.01,4.01,0,0,0,20,0H4A4.01,4.01,0,0,0,.483,2.087a3.912,3.912,0,0,0,.132,4.04A13.555,13.555,0,0,0,11,11.965V22H7a1,1,0,0,0,0,2H17a1,1,0,0,0,0-2H13V11.965A13.555,13.555,0,0,0,23.385,6.127,3.912,3.912,0,0,0,23.517,2.087ZM4,2H20a2,2,0,0,1,2,2H2A2,2,0,0,1,4,2Zm8,8A12.006,12.006,0,0,1,3.011,6H20.989A12,12,0,0,1,12,10Z"/></svg>
