<?xml version="1.0" encoding="UTF-8"?>
<svg xmlns="http://www.w3.org/2000/svg" id="Layer_1" data-name="Layer 1" viewBox="0 0 24 24" width="512" height="512"><path d="M16.793,15c.032,0-.031,0,0,0Zm4.4-1.435c3.279,3.235,1.3,8.32-.257,9.949l-.4.46-.592-.149A15.359,15.359,0,0,1,13,19.676v2.343H11V19.676a15.359,15.359,0,0,1-6.94,4.153l-.592.149-.4-.46c-1.585-1.733-3.526-6.5-.2-9.905a6.939,6.939,0,0,1-2.855-5.3A12.315,12.315,0,0,1,1.385,2.489,3,3,0,0,1,5.16,1.239,21.222,21.222,0,0,1,12,6.568a21.222,21.222,0,0,1,6.84-5.329,3,3,0,0,1,3.774,1.249,12.311,12.311,0,0,1,1.38,5.827A6.9,6.9,0,0,1,21.191,13.569ZM11,14.3a9.823,9.823,0,0,1-3.794.7A7.006,7.006,0,0,1,4.7,14.6c-2.4,2.04-1.873,5.185-.5,7.106C7.508,20.619,11,17.567,11,15.643Zm0-5.823A19.958,19.958,0,0,0,4.388,3.087a1,1,0,0,0-1.264.391A10.433,10.433,0,0,0,2,8.239,5.13,5.13,0,0,0,7.179,13,6.3,6.3,0,0,0,11,11.989Zm10,9.532a4.559,4.559,0,0,0-1.668-3.437,7.7,7.7,0,0,1-2.54.43A9.821,9.821,0,0,1,13,14.3v1.341c0,1.924,3.492,4.976,6.792,6.059A6.931,6.931,0,0,0,21,18.011ZM22,8.239a10.419,10.419,0,0,0-1.121-4.761,1,1,0,0,0-1.263-.391A19.958,19.958,0,0,0,13,8.479v3.51A6.3,6.3,0,0,0,16.82,13,5.066,5.066,0,0,0,22,8.239ZM12,3.985A2,2,0,0,0,12-.022,2,2,0,0,0,12,3.985Z"/></svg>
