<?xml version="1.0" encoding="UTF-8"?>
<svg xmlns="http://www.w3.org/2000/svg" id="Layer_1" data-name="Layer 1" viewBox="0 0 24 24" width="512" height="512"><path d="M22.849,7.68l-9-7.043a3,3,0,0,0-3.7,0l-9,7.043A2.983,2.983,0,0,0,0,10.043V24H24V10.043A2.983,2.983,0,0,0,22.849,7.68ZM22,22H2V10.043a.994.994,0,0,1,.384-.788l9-7.043a1,1,0,0,1,1.232,0l9,7.043a.994.994,0,0,1,.384.788ZM12,8.006A5,5,0,0,0,8.472,16.55L12,20l3.536-3.458A5,5,0,0,0,12,8.006Zm2.129,7.114L12,17.2,9.878,15.128a3,3,0,1,1,4.251-.008ZM13,13a1,1,0,1,1-1-1A1,1,0,0,1,13,13Z"/></svg>
