<?xml version="1.0" encoding="UTF-8"?>
<svg xmlns="http://www.w3.org/2000/svg" id="Layer_1" data-name="Layer 1" viewBox="0 0 24 24" width="512" height="512"><path d="M24,14.006a2.981,2.981,0,0,0-1-2.219V9a9.01,9.01,0,0,0-9-9H10A9.01,9.01,0,0,0,1,9v2.787a2.981,2.981,0,0,0-1,2.219v.171a3,3,0,0,0,1,2.249V20a4,4,0,0,0,4,4H19a4,4,0,0,0,4-4V16.226A2.981,2.981,0,0,0,24,14.006ZM3,9a7.008,7.008,0,0,1,7-7h4a7.008,7.008,0,0,1,7,7v2.006H3Zm18,6.006H17a11,11,0,0,0-7.212,2.7,1.193,1.193,0,0,1-1.575,0A11,11,0,0,0,2.774,15.15.97.97,0,0,1,2,14.177v-.171a1,1,0,0,1,1-1H21A1,1,0,0,1,21,15.006ZM21,20a2,2,0,0,1-2,2H5a2,2,0,0,1-2-2V17.253A8.986,8.986,0,0,1,6.9,19.21a3.176,3.176,0,0,0,4.2,0,9,9,0,0,1,5.9-2.2h4ZM11,5A1,1,0,0,1,9,5,1,1,0,0,1,11,5ZM8,8A1,1,0,0,1,6,8,1,1,0,0,1,8,8Z"/></svg>
