<?xml version="1.0" encoding="UTF-8"?>
<svg xmlns="http://www.w3.org/2000/svg" id="Layer_1" data-name="Layer 1" viewBox="0 0 24 24" width="512" height="512"><path d="M21,10H17.693L13.446,1.563A3,3,0,0,0,10.812,0H7.13l2.9,10H6.4l-2.3-2.295A2.4,2.4,0,0,0,.327,8.2a2.38,2.38,0,0,0-.008,2.4L3.407,16h6.612l-3,8h3.793a2.97,2.97,0,0,0,2.605-1.513L17.464,16H24V13A3,3,0,0,0,21,10ZM9.792,2h1.02a.989.989,0,0,1,.863.491L15.455,10H12.11ZM22,14H16.354L11.69,21.479a1,1,0,0,1-.878.521H9.9l3-8H4.567L2.055,9.6A.4.4,0,0,1,2.406,9a.4.4,0,0,1,.285.118L5.573,12H21a1,1,0,0,1,1,1Z"/></svg>
