<?xml version="1.0" encoding="UTF-8"?>
<svg xmlns="http://www.w3.org/2000/svg" id="Layer_1" data-name="Layer 1" viewBox="0 0 24 24" width="512" height="512"><path d="M6.6,22.122l-1.923-.6L5.5,18.966A4.93,4.93,0,0,0,6.01,19,5,5,0,0,0,10.8,15.392L12,11.836l1.183,3.5a4.887,4.887,0,0,0,5.311,3.627l.8,2.556-1.93.6.594,1.91,5.779-1.8-.593-1.91-1.939.6-.8-2.56a4.965,4.965,0,0,0,2.4-5.762L20.957,7.132A3.023,3.023,0,0,0,17.28,5.11L13.428,6.184A2.966,2.966,0,0,0,12,7.078a2.966,2.966,0,0,0-1.428-.894L6.719,5.11A3.008,3.008,0,0,0,3.052,7.1L1.185,12.657a4.964,4.964,0,0,0,2.4,5.707l-.817,2.568-1.947-.6L.23,22.237l5.781,1.8Zm14.007-6.649a3,3,0,0,1-4.087,1.139,3.022,3.022,0,0,1-1.431-1.859L14.164,12h6.323l.4,1.194A2.979,2.979,0,0,1,20.611,15.473ZM13.357,8.592a.989.989,0,0,1,.608-.482l3.851-1.073A1,1,0,0,1,18.08,7a1.023,1.023,0,0,1,.972.739L19.813,10H13.49l-.215-.637A1,1,0,0,1,13.357,8.592ZM5.918,7a1.007,1.007,0,0,1,.265.036L10.035,8.11a1,1,0,0,1,.7,1.223L10.51,10H4.187l.77-2.29A1.008,1.008,0,0,1,5.918,7ZM3.1,13.245,3.514,12H9.836l-.944,2.8a3,3,0,0,1-5.5.669A2.949,2.949,0,0,1,3.1,13.245Z"/><rect x="14.238" y="1.144" width="3.236" height="2" transform="translate(3.128 11.84) rotate(-45)"/><rect x="7.125" y="0.534" width="2" height="3.182" transform="translate(0.877 6.368) rotate(-45)"/><rect x="11" width="2" height="3"/></svg>
