<?xml version="1.0" encoding="UTF-8"?>
<svg xmlns="http://www.w3.org/2000/svg" id="Layer_1" data-name="Layer 1" viewBox="0 0 24 24" width="512" height="512"><path d="M19.79,12.08c-.77-2.868-1.923-6.013-2.5-7.534a14.144,14.144,0,0,1,1.5-.514.931.931,0,0,1,.81.169,1.015,1.015,0,0,1,.4.81h2a3,3,0,0,0-1.181-2.395A2.913,2.913,0,0,0,18.276,2.1a21.03,21.03,0,0,0-2.687.989l-.873.393.355.89c.01.025.506,1.269,1.121,2.991L12.02,10.607,8.414,7H10V5H4V7H5.586l4.843,4.844L8.442,13.39a4.958,4.958,0,1,0,1.15,1.639L16.88,9.36c.3.919.6,1.881.866,2.819a5,5,0,1,0,2.044-.1ZM5,20a3,3,0,1,1,3-3A3,3,0,0,1,5,20Zm14,0a3,3,0,1,1,3-3A3,3,0,0,1,19,20Z"/></svg>
