<?xml version="1.0" encoding="UTF-8"?>
<svg xmlns="http://www.w3.org/2000/svg" id="Layer_1" data-name="Layer 1" viewBox="0 0 24 24" width="512" height="512"><path d="M14.2,16.261A12.135,12.135,0,0,1,7.747,9.793l3.4-3.406L4.887.122,1.716,3.292A5.9,5.9,0,0,0,0,7.5C0,14.748,9.252,24,16.5,24a5.893,5.893,0,0,0,4.207-1.716l3.171-3.171-6.265-6.265Zm5.094,4.609A3.91,3.91,0,0,1,16.5,22C10.267,22,2,13.733,2,7.5A3.907,3.907,0,0,1,3.13,4.707L4.887,2.95,8.324,6.387,5.389,9.322l.245.614a14.372,14.372,0,0,0,8.447,8.436l.606.231,2.926-2.927,3.437,3.437ZM15,6.529V2h2V5.611c.661-.663,1.451-1.458,2.239-2.25,1.366-1.374,2.712-2.726,3.3-3.318l1.414,1.414c-.592.592-1.936,1.942-3.3,3.314C19.878,5.555,19.1,6.34,18.439,7H22V9H17.5A2.488,2.488,0,0,1,15,6.529Z"/></svg>
