<?xml version="1.0" encoding="UTF-8"?>
<svg xmlns="http://www.w3.org/2000/svg" id="Layer_1" data-name="Layer 1" viewBox="0 0 24 24" width="512" height="512"><path d="M22.375,3.785a13.441,13.441,0,0,0-4.5-1.583A2.981,2.981,0,0,0,16.966.738,3.044,3.044,0,0,0,14.527.031a16.763,16.763,0,0,0-4.6,1.382,2.931,2.931,0,0,0-.7-.3,3.025,3.025,0,0,0-2.428.372h0A18.885,18.885,0,0,0,1.48,6.794a3.021,3.021,0,0,0-.372,2.428,2.941,2.941,0,0,0,.3.7A16.816,16.816,0,0,0,.03,14.527a3.056,3.056,0,0,0,.708,2.44,2.976,2.976,0,0,0,1.464.912,13.435,13.435,0,0,0,1.583,4.5,3.168,3.168,0,0,0,3.431,1.557,3.259,3.259,0,0,0,2.61-2.876A9.6,9.6,0,0,1,10.578,18h1.143a14.491,14.491,0,0,1,1.043-2.477l2.759-2.759A14.491,14.491,0,0,1,18,11.721V10.578a9.6,9.6,0,0,1,3.056-.752,3.259,3.259,0,0,0,2.876-2.61A3.161,3.161,0,0,0,22.375,3.785ZM3,11.267l7.861,3.555A11.2,11.2,0,0,0,10.3,16H3a.974.974,0,0,1-.747-.341,1.053,1.053,0,0,1-.241-.843A14.714,14.714,0,0,1,3,11.267Zm4.837,9.566a1.274,1.274,0,0,1-1.027,1.14,1.169,1.169,0,0,1-1.291-.59A11.5,11.5,0,0,1,4.244,18H8.46C8.177,18.874,7.839,20.833,7.839,20.833Zm4.379-7.593L3.555,9.323a1.007,1.007,0,0,1-.393-1.447A16.752,16.752,0,0,1,7.876,3.163a.986.986,0,0,1,.816-.126.972.972,0,0,1,.614.483l3.934,8.7ZM16,10.3a11.2,11.2,0,0,0-1.178.561L11.267,3a14.658,14.658,0,0,1,3.549-.993,1.046,1.046,0,0,1,.841.241A.977.977,0,0,1,16,3Zm5.973-3.49a1.274,1.274,0,0,1-1.14,1.027S18.874,8.177,18,8.46V4.244a11.5,11.5,0,0,1,3.383,1.277A1.172,1.172,0,0,1,21.973,6.812Z"/></svg>
