<svg id="Layer_1" height="512" viewBox="0 0 24 24" width="512" xmlns="http://www.w3.org/2000/svg" data-name="Layer 1"><path d="m21 6.243a3.975 3.975 0 0 0 -1.172-2.829l-2.242-2.242a4.022 4.022 0 0 0 -2.828-1.172h-8.758a3 3 0 0 0 -3 3v21h18zm-2.586-1.415a1.923 1.923 0 0 1 .141.172h-2.555v-2.555a1.923 1.923 0 0 1 .172.141zm-13.414 17.172v-19a1 1 0 0 1 1-1h8v5h5v15zm3-13h8v2h-8zm0 4h8v2h-8zm6.018 3.814 1.965.366c-.191 1.047-1.005 2.82-2.848 2.82a3.154 3.154 0 0 1 -1.986-.706c-.314-.223-.424-.294-.662-.294a2.18 2.18 0 0 0 -.916.66l-1.5-1.317a3.749 3.749 0 0 1 2.416-1.343 2.925 2.925 0 0 1 1.821.664 1.235 1.235 0 0 0 .827.336c.623 0 .88-1.173.883-1.186z"/></svg>