<?xml version="1.0" encoding="UTF-8"?>
<svg xmlns="http://www.w3.org/2000/svg" id="Layer_1" data-name="Layer 1" viewBox="0 0 24 24" width="512" height="512"><path d="M23.472,16.194l-1.641-2.486-1.668,1.1L21.8,17.3a1.1,1.1,0,0,1,.056,1.154,1.151,1.151,0,0,1-1.032.608H12.879l1.478-1.475-1.412-1.416-2.523,2.517a2.009,2.009,0,0,0,.01,2.843L12.951,24l1.4-1.427-1.542-1.515h8.019A3.164,3.164,0,0,0,23.621,19.4,3.077,3.077,0,0,0,23.472,16.194Z"/><path d="M11.76,3.013a1.2,1.2,0,0,1,.994.522L17.027,10l-2.215-.437-.386,1.962,3.62.714A2,2,0,0,0,20.4,10.646l.684-3.664-1.967-.367-.425,2.279L14.423,2.433A3.175,3.175,0,0,0,9.087,2.5L7.852,4.468,9.545,5.532l1.238-1.971A1.146,1.146,0,0,1,11.76,3.013Z"/><path d="M6.457,10.453l.43,2.31L8.854,12.4,8.17,8.732A2,2,0,0,0,5.818,7.138L2.2,7.851l.387,1.962,2.184-.431L.478,16.21A3.087,3.087,0,0,0,.4,19.378,3.129,3.129,0,0,0,3.171,21H7V19H3.171a1.154,1.154,0,0,1-1.024-.594,1.1,1.1,0,0,1,.027-1.136Z"/></svg>
