<?xml version="1.0" encoding="UTF-8"?>
<svg xmlns="http://www.w3.org/2000/svg" id="Layer_1" data-name="Layer 1" viewBox="0 0 24 24" width="512" height="512"><path d="M8.965,24H4a4,4,0,0,1-4-4V15a4,4,0,0,1,4-4h8.857a3.144,3.144,0,0,1,2.69,1.519l3.217-3.535a3.01,3.01,0,0,1,4.254-.2,3.022,3.022,0,0,1,.217,4.23l-6.8,7.637A10.012,10.012,0,0,1,8.965,24ZM4,13a2,2,0,0,0-2,2v5a2,2,0,0,0,2,2H8.965a8.005,8.005,0,0,0,5.972-2.678l6.805-7.638a1.015,1.015,0,0,0-.072-1.421A1.029,1.029,0,0,0,20.942,10a1,1,0,0,0-.7.329L15.816,15.2A3.158,3.158,0,0,1,13.3,17.252l-5.161.738a1,1,0,0,1-.284-1.98l5.162-.737A1.142,1.142,0,0,0,12.857,13Zm7-3.926a1.986,1.986,0,0,1-1.247-.436C8.041,7.264,6,5.2,6,3.2A3.109,3.109,0,0,1,9,0a2.884,2.884,0,0,1,2,.817A2.884,2.884,0,0,1,13,0a3.109,3.109,0,0,1,3,3.2c0,2-2.041,4.064-3.754,5.439A1.986,1.986,0,0,1,11,9.074ZM9,2A1.115,1.115,0,0,0,8,3.2c0,.9,1.151,2.39,3.006,3.879C12.849,5.59,14,4.1,14,3.2A1.115,1.115,0,0,0,13,2a1.115,1.115,0,0,0-1,1.2,1,1,0,0,1-2,0A1.115,1.115,0,0,0,9,2Z"/></svg>
