<?xml version="1.0" encoding="UTF-8"?>
<!-- Generator: Adobe Illustrator 25.0.0, SVG Export Plug-In . SVG Version: 6.00 Build 0)  -->
<svg xmlns="http://www.w3.org/2000/svg" xmlns:xlink="http://www.w3.org/1999/xlink" version="1.1" id="Layer_1" x="0px" y="0px" viewBox="0 0 512 512" style="enable-background:new 0 0 512 512;" xml:space="preserve" width="512" height="512">
<path d="M174.376,479.018c44.884,43.908,116.571,44.088,161.674,0.405l85-78.548c92.079-90.853,93.072-239.148,2.22-331.227  s-239.148-93.073-331.227-2.22c-0.745,0.735-1.485,1.475-2.22,2.22c-91.46,91.475-91.448,239.774,0.027,331.234  c0.19,0.19,0.379,0.379,0.57,0.567L174.376,479.018z M119.931,99.755c74.673-75.008,196.014-75.28,271.022-0.607  s75.28,196.014,0.607,271.022l-84.851,78.399c-28.975,27.269-74.221,27.101-102.992-0.383l-83.786-77.42  c-74.838-74.837-74.838-196.172-0.002-271.01C119.93,99.756,119.93,99.756,119.931,99.755L119.931,99.755z M148.974,235.261  c0-11.76,9.533-21.293,21.293-21.293h170.34c11.76,0,21.293,9.533,21.293,21.293s-9.533,21.293-21.293,21.293h-170.34  C158.507,256.553,148.974,247.02,148.974,235.261z"/>
</svg>
