<?xml version="1.0" encoding="UTF-8"?>
<svg xmlns="http://www.w3.org/2000/svg" id="Layer_1" data-name="Layer 1" viewBox="0 0 24 24" width="512" height="512"><path d="M12,23.928a4.99,4.99,0,0,1-3.536-1.462l-6.93-6.931a5,5,0,0,1,0-7.07l6.93-6.931a5.008,5.008,0,0,1,7.072,0l6.93,6.931a5,5,0,0,1,0,7.07l-6.93,6.931A4.99,4.99,0,0,1,12,23.928ZM12,2.071a2.992,2.992,0,0,0-2.122.877L2.948,9.879a3,3,0,0,0,0,4.242l6.93,6.931a3,3,0,0,0,4.244,0l6.93-6.931a3,3,0,0,0,0-4.242l-6.93-6.931A2.992,2.992,0,0,0,12,2.071Z"/></svg>
