<svg id="Layer_1" height="512" viewBox="0 0 24 24" width="512" xmlns="http://www.w3.org/2000/svg" data-name="Layer 1"><path d="m18 3v1h6v2h-6v2h6v2h-6v2h6v2h-6v2h6v2h-6v6h-2v-21a3 3 0 0 1 3-3h5v2h-5a1 1 0 0 0 -1 1zm-4 17a3.983 3.983 0 0 1 -7 2.618 3.989 3.989 0 1 1 -3.689-6.548l2.601-6.07-1.649-3.849a15.528 15.528 0 0 1 -1.263-6.151h2a13.537 13.537 0 0 0 1.1 5.364l.9 2.1.9-2.1a13.537 13.537 0 0 0 1.1-5.364h2a15.528 15.528 0 0 1 -1.263 6.151l-1.649 3.849 2.6 6.07a4 4 0 0 1 3.312 3.93zm-8 0a2 2 0 1 0 -2 2 2 2 0 0 0 2-2zm1-2.618a3.981 3.981 0 0 1 1.6-1.115l-1.6-3.729-1.6 3.729a3.981 3.981 0 0 1 1.6 1.115zm5 2.618a2 2 0 1 0 -2 2 2 2 0 0 0 2-2z"/></svg>