<?xml version="1.0" encoding="UTF-8"?>
<svg xmlns="http://www.w3.org/2000/svg" id="Layer_1" data-name="Layer 1" viewBox="0 0 24 24" width="512" height="512"><path d="M20.25,22a2.047,2.047,0,0,1-1.621-.7A12.193,12.193,0,0,0,22,13v-.721l-2-.666V8a3,3,0,0,0-3-3H16V3a3,3,0,0,0-3-3H11A3,3,0,0,0,8,3V5H7A3,3,0,0,0,4,8v3.613l-2,.666V13a12.193,12.193,0,0,0,3.377,8.3A2.049,2.049,0,0,1,3.75,22C2.661,22,2,21.306,2,21H0c0,1.626,1.718,3,3.75,3A4.194,4.194,0,0,0,6.5,23a4.313,4.313,0,0,0,5.5.014A4.313,4.313,0,0,0,17.5,23a4.194,4.194,0,0,0,2.749,1C22.282,24,24,22.626,24,21H22C22,21.344,21.318,22,20.25,22ZM10,3a1,1,0,0,1,1-1h2a1,1,0,0,1,1,1V5H10ZM6,8A1,1,0,0,1,7,7H17a1,1,0,0,1,1,1v2.946l-6-2-6,2ZM9.25,22c-1.089,0-1.75-.694-1.75-1l0-.458-.344-.3a10.4,10.4,0,0,1-3.127-6.531L11,11.387V21C11,21.344,10.318,22,9.25,22Zm5.5,0C13.661,22,13,21.306,13,21V11.387l6.974,2.325a10.4,10.4,0,0,1-3.124,6.529l-.35.3V21C16.5,21.344,15.818,22,14.75,22Z"/></svg>
