<?xml version="1.0" encoding="UTF-8"?>
<svg xmlns="http://www.w3.org/2000/svg" id="Layer_1" data-name="Layer 1" viewBox="0 0 24 24" width="512" height="512"><path d="M24,14c0-4.736-3.976-8.706-9.29-9.733a2.994,2.994,0,1,0-5.419,0C3.976,5.294,0,9.264,0,14a2.946,2.946,0,0,0,2.142,2.887l.826,4.638A3,3,0,0,0,5.921,24H18.08a3,3,0,0,0,2.953-2.475l.825-4.638A2.946,2.946,0,0,0,24,14ZM11,3a1,1,0,0,1,2,0A1,1,0,0,1,11,3Zm7.08,19H5.921a1,1,0,0,1-.984-.824l-.664-3.731A2.993,2.993,0,0,0,8,17.22a2.99,2.99,0,0,0,4,0,2.99,2.99,0,0,0,4,0,3,3,0,0,0,3.728.225l-.664,3.73A1,1,0,0,1,18.08,22ZM21,15H19a1,1,0,0,1-2,0H15a1,1,0,0,1-2,0H11a1,1,0,0,1-2,0H7a1,1,0,0,1-2,0H3a.915.915,0,0,1-1-1c.506-10.6,19.492-10.591,20-.012A.918.918,0,0,1,21,15Z"/></svg>
