<svg id="Layer_1" height="512" viewBox="0 0 24 24" width="512" xmlns="http://www.w3.org/2000/svg" data-name="Layer 1"><path d="m23.229.771a2.637 2.637 0 0 0 -3.591-.12l-14.166 12.482c-2.335.44-5.472 1.741-5.472 4.467a6.407 6.407 0 0 0 6.4 6.4c2.725 0 4.027-3.136 4.467-5.471l12.485-14.171a2.634 2.634 0 0 0 -.123-3.587zm-13.088 15.556-2.468-2.468 2.005-1.767 2.23 2.23zm-3.741 5.673a4.405 4.405 0 0 1 -4.4-4.4c0-1.508 2.639-2.287 4.049-2.537l2.888 2.887c-.251 1.411-1.029 4.05-2.537 4.05zm15.449-18.96-8.616 9.778-2.052-2.051 9.775-8.613a.631.631 0 0 1 .893.886z"/></svg>