<?xml version="1.0" encoding="UTF-8"?>
<svg xmlns="http://www.w3.org/2000/svg" id="Layer_1" data-name="Layer 1" viewBox="0 0 24 24" width="512" height="512"><path d="M23,0a5.9,5.9,0,0,0-5.6,3.782A21.868,21.868,0,0,0,12,3a21.876,21.876,0,0,0-5.4.782A5.9,5.9,0,0,0,1,0H0V11.929a5.959,5.959,0,0,0,1.757,4.242l6.95,6.95A2.978,2.978,0,0,0,10.829,24h2.343a2.978,2.978,0,0,0,2.121-.879l6.949-6.949A5.958,5.958,0,0,0,24,11.929V0ZM9,20.586,3.171,14.757A3.974,3.974,0,0,1,2,11.929V10.215a11.361,11.361,0,0,1,2,.722,3.808,3.808,0,0,0,3.624,3.05A8.917,8.917,0,0,1,9,19Zm13-8.657a3.969,3.969,0,0,1-1.172,2.828L15,20.586V19a8.917,8.917,0,0,1,1.376-5.013A3.808,3.808,0,0,0,20,10.937a11.361,11.361,0,0,1,2-.722Zm0-3.756c-2.431.559-9,2.815-9,10.827v1H11V19C11,10.987,4.431,8.732,2,8.173V2.109A4.325,4.325,0,0,1,5.051,5.316l.317.948.947-.315A20.924,20.924,0,0,1,12,5a20.934,20.934,0,0,1,5.685.949l.948.315.315-.948A4.328,4.328,0,0,1,22,2.109Z"/></svg>
