<svg id="Layer_1" height="512" viewBox="0 0 24 24" width="512" xmlns="http://www.w3.org/2000/svg" data-name="Layer 1"><path d="m15 12a1 1 0 0 1 -1 1h-1v4.5a2.5 2.5 0 1 1 -2.5-2.5 2.577 2.577 0 0 1 .5.05v-2.05a2 2 0 0 1 2-2h1a1 1 0 0 1 1 1zm7-1.515v8.515a5.006 5.006 0 0 1 -5 5h-10a5.006 5.006 0 0 1 -5-5v-14a5.006 5.006 0 0 1 5-5h4.515a6.955 6.955 0 0 1 4.95 2.051l3.484 3.484a6.955 6.955 0 0 1 2.051 4.95zm-6.949-7.02a4.989 4.989 0 0 0 -1.051-.781v4.316a1 1 0 0 0 1 1h4.316a4.989 4.989 0 0 0 -.781-1.051zm4.949 7.02c0-.165-.032-.323-.047-.485h-4.953a3 3 0 0 1 -3-3v-4.953c-.162-.015-.32-.047-.485-.047h-4.515a3 3 0 0 0 -3 3v14a3 3 0 0 0 3 3h10a3 3 0 0 0 3-3z"/></svg>