<?xml version="1.0" encoding="UTF-8"?>
<svg xmlns="http://www.w3.org/2000/svg" id="Layer_1" data-name="Layer 1" viewBox="0 0 24 24" width="512" height="512"><path d="M23.467,13.637l-4.455,1.189-1.923-1.084V10.31l1.922-1.084,4.456,1.188L24,8.482,20.12,7.448l1.052-3.816-1.964-.524L18,7.49,16.174,8.52,13.018,6.728V4.651l3.264-3.21L14.843.025,12,2.821,9.157.025,7.718,1.441l3.264,3.21V6.728L7.826,8.52,6,7.49,4.792,3.108l-1.964.524L3.88,7.448,0,8.482l.533,1.932L4.988,9.226,6.911,10.31v3.432L4.988,14.826.533,13.637,0,15.569,3.88,16.6,2.828,20.42l1.964.524L6,16.561l2-1.126,2.983,1.693V19.4L7.718,22.61l1.439,1.415L12,21.23l2.843,2.795,1.439-1.415L13.018,19.4V17.128L16,15.435l2,1.126,1.209,4.383,1.964-.524L20.12,16.6,24,15.569Zm-8.414.025L12,15.4,8.947,13.662V10.2L12,8.461,15.053,10.2Z"/></svg>
