<?xml version="1.0" encoding="UTF-8"?>
<svg xmlns="http://www.w3.org/2000/svg" id="Layer_1" data-name="Layer 1" viewBox="0 0 24 24" width="512" height="512"><path d="M21.5,2.5a8.578,8.578,0,0,0-12.075,0c-2.377,2.377-3.157,7.909-3.41,11A4.164,4.164,0,0,0,6.6,15.983l-3.8,3.8a1.5,1.5,0,1,0-.649,2.063,1.5,1.5,0,1,0,2.063-.649l3.8-3.8a4.136,4.136,0,0,0,2.484.592c3.086-.253,8.617-1.032,11-3.41A8.577,8.577,0,0,0,21.5,2.5ZM20.085,13.162c-1.387,1.385-5.029,2.444-9.744,2.831a2.156,2.156,0,0,1-2.334-2.334C8.394,8.944,9.453,5.3,10.838,3.915a6.539,6.539,0,1,1,9.247,9.247Z"/></svg>
