<?xml version="1.0" encoding="UTF-8"?>
<svg xmlns="http://www.w3.org/2000/svg" id="Layer_1" data-name="Layer 1" viewBox="0 0 24 24" width="512" height="512"><path d="M20,8a4,4,0,0,1,0-8A4,4,0,0,1,20,8Zm0-6a2,2,0,0,0,0,4A2,2,0,0,0,20,2ZM11,24V22.781l4.277-9.343a2.462,2.462,0,0,1,4.446,0L24,22.737v1.219Zm2.54-2h7.92l-3.554-7.726a.442.442,0,0,0-.812,0ZM12.248,6.541a2.662,2.662,0,0,0-4.81,0L0,22.781V24H9V22H2.528L9.255,7.377a.648.648,0,0,1,1.177,0l2.716,5.9.312-.678a4.487,4.487,0,0,1,.959-1.343Z"/></svg>
