<?xml version="1.0" encoding="UTF-8"?>
<svg xmlns="http://www.w3.org/2000/svg" id="Layer_1" data-name="Layer 1" viewBox="0 0 24 24" width="512" height="512"><path d="M20.4,5.051A3,3,0,0,0,17.559,3H16.72L16.4,2.051A3,3,0,0,0,13.559,0H10.441A2.994,2.994,0,0,0,7.6,2.052L7.28,3H6.441A3,3,0,0,0,3.6,5.051L2.28,9H0v2H1.613l-.561,1.684L1.1,12.7A2.982,2.982,0,0,0,0,15v5H2v4H8V20h8v4h6V20h2V15a2.982,2.982,0,0,0-1.1-2.3l.046-.015L22.387,11H24V9H21.72ZM9.492,2.684A1,1,0,0,1,10.441,2h3.118a1,1,0,0,1,.949.684L14.613,3H9.387Zm-4,3A1,1,0,0,1,6.441,5H17.559a1,1,0,0,1,.949.684L20.613,12H3.387ZM6,22H4V20H6Zm14,0H18V20h2Zm2-4H2V15a1,1,0,0,1,1-1H4v1a1,1,0,0,0,1,1H5a1,1,0,0,0,1-1V14H18v1a1,1,0,0,0,1,1h0a1,1,0,0,0,1-1V14h1a1,1,0,0,1,1,1Z"/></svg>
