<?xml version="1.0" encoding="UTF-8"?>
<svg xmlns="http://www.w3.org/2000/svg" id="Layer_1" data-name="Layer 1" viewBox="0 0 24 24" width="512" height="512"><path d="M6.486,22.143,5.457,20.428C9,18.3,9,13.73,9,11a3,3,0,0,1,6,0H13a1,1,0,0,0-2,0C11,13.947,11,19.434,6.486,22.143Zm8.41-8.059L12.9,13.916c-.316,3.729-1.525,6.615-3.592,8.58l1.377,1.449C13.123,21.634,14.538,18.315,14.9,14.084Zm2.746,6.255-1.881-.678a15.57,15.57,0,0,1-1.6,3.235l1.674,1.094A17.538,17.538,0,0,0,17.642,20.339ZM19,11A7,7,0,0,0,6.787,6.333L8.276,7.667A5,5,0,0,1,17,11a29.686,29.686,0,0,1-.462,5.809l1.963.382A31.459,31.459,0,0,0,19,11ZM7,11a5,5,0,0,1,.069-.833L5.1,9.833A6.971,6.971,0,0,0,5,11c0,4.645-1.346,7-4,7v2C4.869,20,7,16.8,7,11Zm16,0a10.865,10.865,0,0,0-1.1-4.794l-1.8.875A8.9,8.9,0,0,1,21,11a27.569,27.569,0,0,1-2.274,11.921l1.8.861A29.414,29.414,0,0,0,23,11ZM3,11a9.01,9.01,0,0,1,9-9,8.911,8.911,0,0,1,5.4,1.8l1.2-1.6A10.9,10.9,0,0,0,12,0,11.013,11.013,0,0,0,1,11v3H3Z"/></svg>
