<svg id="Layer_1" height="512" viewBox="0 0 24 24" width="512" xmlns="http://www.w3.org/2000/svg" data-name="Layer 1"><path d="m24 9a5 5 0 0 1 -.845 2.016l-8.783 11.82a3 3 0 0 1 -4.722.029l-8.826-12.065a5.045 5.045 0 0 1 -.779-1.8h6.268l4.753 12.359a1 1 0 0 0 1.868 0l4.753-12.359zm-6.3-2h6.257a4.974 4.974 0 0 0 -.857-1.871l-2.558-3.454a4.006 4.006 0 0 0 -3.255-1.675h-2.2zm-6.592-7-2.659 7h7.112l-2.606-7zm-4.798 7 2.658-7h-2.322a3.99 3.99 0 0 0 -3.235 1.649l-2.473 3.242a4.99 4.99 0 0 0 -.938 2.109zm9.234 2h-7.088l3.544 9.214z"/></svg>