<svg id="Layer_1" height="512" viewBox="0 0 24 24" width="512" xmlns="http://www.w3.org/2000/svg" data-name="Layer 1"><path d="m23.8 8.156-3.413 10.4a4.945 4.945 0 0 1 -2.952 3.2 6.969 6.969 0 0 0 .565-2.756v-10a7.008 7.008 0 0 0 -7-7h-1.665a5.016 5.016 0 0 1 5.445-1.779l5.686 1.746a5.021 5.021 0 0 1 3.334 6.189zm-7.8.844v10a5.006 5.006 0 0 1 -5 5h-6a5.006 5.006 0 0 1 -5-5v-10a5.006 5.006 0 0 1 5-5h6a5.006 5.006 0 0 1 5 5zm-4 4a2 2 0 0 0 -4 0 2 2 0 0 0 -4 0c0 1.45 1.544 3.391 2.714 4.378a1.991 1.991 0 0 0 2.572 0c1.17-.987 2.714-2.928 2.714-4.378z"/></svg>