<?xml version="1.0" encoding="UTF-8"?>
<svg xmlns="http://www.w3.org/2000/svg" id="Layer_1" data-name="Layer 1" viewBox="0 0 24 24" width="512" height="512"><path d="M15.993,11.5a1.5,1.5,0,1,1-1.5-1.5A1.5,1.5,0,0,1,15.993,11.5Zm8,0a3.5,3.5,0,0,0-2.15-3.226A10,10,0,0,0,2.219,7.9L1.5,12s1.606,0,1.778-.013a12.19,12.19,0,0,0,4.9-1.191,1.484,1.484,0,0,0-.183.7A1.5,1.5,0,1,0,9.62,10.013c.025-.016.052-.03.077-.045A16.228,16.228,0,0,0,16.114,3.14a7.966,7.966,0,0,1,3.833,6.009l.078.746.738.133a1.5,1.5,0,0,1,1.23,1.472H22A1.5,1.5,0,0,1,20.5,13a1.606,1.606,0,0,1-.252-.027l-.835-.148-.282.8C18.215,16.221,15.13,19,12,19h0c-3.026,0-6.023-2.619-7.041-5.153A13.535,13.535,0,0,1,3,14H2.88c.062.181.106.3.12.339a10.894,10.894,0,0,0,5,5.6V24h8V19.954a11.037,11.037,0,0,0,4.732-4.962A3.5,3.5,0,0,0,24,11.5Z"/></svg>
