<svg id="Layer_1" height="512" viewBox="0 0 24 24" width="512" xmlns="http://www.w3.org/2000/svg" data-name="Layer 1"><path d="m4 7.938v-4.765c0-1.2.634-3.167 3.673-3.167a8.613 8.613 0 0 1 1.183.094 2.975 2.975 0 0 1 2.144 2.848v7.925a4 4 0 0 0 2 0v-7.925a2.975 2.975 0 0 1 2.144-2.848 8.613 8.613 0 0 1 1.183-.09c3.039-.004 3.673 1.963 3.673 3.163v4.765a4.014 4.014 0 0 1 -2.9 3.845l-3.451.987a6.019 6.019 0 0 1 -3.3 0l-3.449-.987a4.014 4.014 0 0 1 -2.9-3.845zm18-3.912v3.912a6.022 6.022 0 0 1 -4.353 5.768l-3.449.986a8 8 0 0 1 -4.394 0l-3.452-.987a6.023 6.023 0 0 1 -4.352-5.767v-3.912a4.977 4.977 0 0 0 -2 3.974v7a5.006 5.006 0 0 0 5 5h6v2h-3a1 1 0 0 0 0 2h8a1 1 0 0 0 0-2h-3v-2h6a5.006 5.006 0 0 0 5-5v-7a4.977 4.977 0 0 0 -2-3.974z"/></svg>