<svg id="Layer_1" height="512" viewBox="0 0 24 24" width="512" xmlns="http://www.w3.org/2000/svg" data-name="Layer 1"><path d="m4.259 2.845a11.943 11.943 0 0 1 6.741-2.794v1.3a11.938 11.938 0 0 0 2.28 6.689 1.09 1.09 0 0 1 -.137 1.4l-.367.367a1.1 1.1 0 0 1 -1.552 0zm13.331 4.979a1.1 1.1 0 0 0 .186 1.711 9.939 9.939 0 0 0 4.93 1.465h1.243a11.943 11.943 0 0 0 -2.794-6.741zm-4.59-7.773v1.272a9.9 9.9 0 0 0 1.465 4.9 1.1 1.1 0 0 0 1.71.186l3.566-3.566a11.941 11.941 0 0 0 -6.741-2.792zm1.557 10.806-.367.367a1.1 1.1 0 0 0 0 1.552l6.965 6.965a11.941 11.941 0 0 0 2.794-6.741h-1.272a11.966 11.966 0 0 1 -6.717-2.28 1.092 1.092 0 0 0 -1.403.137zm-5.114 2.286.367-.367a1.1 1.1 0 0 0 0-1.552l-6.965-6.965a11.941 11.941 0 0 0 -2.794 6.741h1.272a11.964 11.964 0 0 1 6.717 2.28 1.092 1.092 0 0 0 1.403-.137zm1.781 1.047-.367.367a1.092 1.092 0 0 0 -.137 1.4 11.929 11.929 0 0 1 2.28 6.691v1.3a11.941 11.941 0 0 0 6.741-2.794l-6.965-6.964a1.1 1.1 0 0 0 -1.552 0zm-.224 8.487a9.9 9.9 0 0 0 -1.465-4.9 1.1 1.1 0 0 0 -1.71-.185l-3.566 3.563a11.941 11.941 0 0 0 6.741 2.794zm-9.706-9.677h-1.243a11.943 11.943 0 0 0 2.794 6.741l3.565-3.565a1.1 1.1 0 0 0 -.186-1.711 9.939 9.939 0 0 0 -4.93-1.465z"/></svg>