<svg id="Layer_1" height="512" viewBox="0 0 24 24" width="512" xmlns="http://www.w3.org/2000/svg" data-name="Layer 1"><path d="m18 12a6 6 0 1 0 -6 6 6.006 6.006 0 0 0 6-6zm-3.369 1.108-1.893 2.523a.922.922 0 0 1 -1.476 0l-1.893-2.523a1.848 1.848 0 0 1 0-2.216l1.893-2.523a.922.922 0 0 1 1.476 0l1.893 2.523a1.848 1.848 0 0 1 0 2.216zm-5.066-12.859a12.031 12.031 0 0 1 4.87 0l-.888 3.057a.98.98 0 0 1 -1.007.715c-.178-.013-.358-.021-.54-.021s-.362.008-.54.021a.981.981 0 0 1 -1.007-.715zm5.894 3.644.89-3.065a12.048 12.048 0 0 1 6.823 6.823l-3.065.89a.984.984 0 0 1 -1.133-.447 8.044 8.044 0 0 0 -3.068-3.068.984.984 0 0 1 -.447-1.133zm4.52 7.567a.98.98 0 0 1 .715-1.007l3.057-.888a12.031 12.031 0 0 1 0 4.87l-3.057-.888a.98.98 0 0 1 -.715-1.007c.013-.178.021-.358.021-.54s-.008-.362-.021-.54zm-16.085-2.973-3.017-.97a12.052 12.052 0 0 1 6.774-6.689l.89 3.065a.985.985 0 0 1 -.448 1.134 8.046 8.046 0 0 0 -3.041 3.023.986.986 0 0 1 -1.158.437zm10.678 15.228a11.748 11.748 0 0 1 -5.144 0l.98-3.051a.978.978 0 0 1 1-.689c.2.016.393.025.592.025s.4-.009.592-.025a.978.978 0 0 1 1 .689zm-10.547-11.123a.978.978 0 0 1 -.689 1l-3.051.98a11.748 11.748 0 0 1 0-5.144l3.051.98a.978.978 0 0 1 .689 1c-.016.192-.025.392-.025.592s.009.4.025.592zm16.082 2.867 3.065.89a12.052 12.052 0 0 1 -6.689 6.774l-.97-3.017a.983.983 0 0 1 .437-1.158 8.049 8.049 0 0 0 3.024-3.041.983.983 0 0 1 1.133-.448zm-11.62 4.647-.97 3.017a12.058 12.058 0 0 1 -6.64-6.64l3.017-.97a.983.983 0 0 1 1.158.438 8.052 8.052 0 0 0 3 3 .985.985 0 0 1 .435 1.155z"/></svg>