<?xml version="1.0" encoding="UTF-8"?>
<svg xmlns="http://www.w3.org/2000/svg" id="Layer_1" data-name="Layer 1" viewBox="0 0 24 24" width="512" height="512"><polygon points="19 23.414 23.414 19 19 19 19 23.414"/><path d="M21,0H3A3,3,0,0,0,0,3V24H17V17h7V3A3,3,0,0,0,21,0ZM7.261,6.246H5.248V7.384H7.112v1.25H5.248V9.771H7.261v1.25H4V5H7.261Zm3.723,2.72-.717,0v2.1H9.017V5h1.967a1.985,1.985,0,1,1,0,3.97Zm4.435-2.025c.016,0,.614.263,1.273.507A1.827,1.827,0,0,1,18.1,9.461a2,2,0,0,1-2.04,1.552,2.869,2.869,0,0,1-2.13-.914l-.42-.462.926-.841.42.463a1.637,1.637,0,0,0,1.2.5.781.781,0,0,0,.809-.521c.062-.345-.451-.563-.61-.622-.752-.277-1.43-.58-1.43-.58a1.572,1.572,0,0,1-.777-1.579,1.711,1.711,0,0,1,1.239-1.38,2.813,2.813,0,0,1,2.452.537l.479.4-.8.956-.475-.4a1.567,1.567,0,0,0-1.29-.3.457.457,0,0,0-.363.361A.3.3,0,0,0,15.419,6.941Z"/><path d="M10.984,6.246h-.715l0,1.473.71,0a.735.735,0,1,0,0-1.47Z"/></svg>
