<svg id="Layer_1" height="512" viewBox="0 0 24 24" width="512" xmlns="http://www.w3.org/2000/svg" data-name="Layer 1"><path d="m10 23a1 1 0 0 1 -1 1h-8a1 1 0 0 1 0-2h8a1 1 0 0 1 1 1z"/><path d="m1 20h6a1 1 0 0 0 0-2h-6a1 1 0 0 0 0 2z"/><path d="m1 16h4a1 1 0 0 0 0-2h-4a1 1 0 0 0 0 2z"/><path d="m12 0a12 12 0 0 0 -12 12c0 .061.008.12.009.181a2.966 2.966 0 0 1 .991-.181h4a2.99 2.99 0 0 1 2.78 4.116 2.975 2.975 0 0 1 2 4 2.949 2.949 0 0 1 2.039 3.875c.061 0 .12.009.181.009a12 12 0 0 0 0-24zm3.707 15.707a1 1 0 0 1 -1.414 0l-3-3a1 1 0 0 1 -.293-.707v-5a1 1 0 0 1 2 0v4.586l2.707 2.707a1 1 0 0 1 0 1.414z"/></svg>