<?xml version="1.0" encoding="UTF-8"?>
<svg xmlns="http://www.w3.org/2000/svg" id="Layer_1" data-name="Layer 1" viewBox="0 0 24 24" width="512" height="512"><path d="M23.709,7.3a1,1,0,0,1-1.418,1.41L19.5,5.915l-2.8,2.8A1,1,0,1,1,15.3,7.292L18.086,4.5,15.291,1.707A1,1,0,1,1,16.709.3L19.5,3.088,22.3.293A1,1,0,0,1,23.706,1.71L20.914,4.5Zm-3.054,7.56a3.1,3.1,0,0,0-4.28.006l-1.906,1.606A12.781,12.781,0,0,1,7.537,9.524l1.6-1.9a3.1,3.1,0,0,0,.006-4.28S7.291.939,7.261.907A3.085,3.085,0,0,0,2.933.861l-1.149,1c-7.72,8.209,12.2,28.138,20.4,20.3l.912-1.049a3.1,3.1,0,0,0,0-4.378C23.063,16.708,20.655,14.856,20.655,14.856Z"/></svg>
