<?xml version="1.0" encoding="UTF-8"?>
<svg xmlns="http://www.w3.org/2000/svg" id="Layer_1" data-name="Layer 1" viewBox="0 0 24 24" width="512" height="512"><path d="M9.4,24a3.8,3.8,0,0,1-.832-.146,3.5,3.5,0,0,1-.451-6.589,6.38,6.38,0,0,1,.057-2.732,6,6,0,0,1,11.367-.856h0a1,1,0,0,0,.766.471,5.012,5.012,0,0,1,3.557,6,4.946,4.946,0,0,1-3.7,3.7A5.322,5.322,0,0,1,19.1,24ZM6,16.23a8.262,8.262,0,0,1,.23-2.169A8,8,0,0,1,21.106,12.3,7.043,7.043,0,0,1,24,14.081,7.954,7.954,0,0,0,18.356,6.36a1.087,1.087,0,0,1-.722-.733h0a8,8,0,0,0-15.49.842,7.648,7.648,0,0,0,.8,5.179A5.448,5.448,0,0,0,.056,17.3a5.8,5.8,0,0,0,4.1,4.472A5.5,5.5,0,0,1,6,16.23Z"/></svg>
