<?xml version="1.0" encoding="UTF-8"?>
<svg xmlns="http://www.w3.org/2000/svg" id="Layer_1" data-name="Layer 1" viewBox="0 0 24 24" width="512" height="512"><path d="M15.477,18.61c0-1.283-.808-2.029-2.357-3.344-.35-.3-.728-.618-1.118-.972-.445.409-.868.769-1.256,1.1C9.2,16.7,8.523,17.339,8.523,18.61a3.477,3.477,0,0,0,6.954,0Z"/><path d="M16.408,4.035c-1.2-1.019-2.44-2.072-3.694-3.325L12,0,11.3.711c-2.254,2.262-3.32,5.736-3.782,7.82a6.04,6.04,0,0,1-.779-1.785L6.312,5.109,5.079,6.266c-2.159,2.028-3.6,4.039-3.6,7.259a10.422,10.422,0,0,0,7.8,10.18A11.153,11.153,0,0,0,11,24a5.491,5.491,0,0,1-4.485-5.39c0-2.25,1.357-3.4,2.928-4.742.561-.477,1.2-1.018,1.845-1.667L12,11.493l.708.708c.576.576,1.152,1.064,1.709,1.538,1.576,1.337,3.064,2.6,3.064,4.871a5.489,5.489,0,0,1-4.456,5.384A10.51,10.51,0,0,0,22.52,13.527C22.52,9.225,19.687,6.82,16.408,4.035Z"/></svg>
