<?xml version="1.0" encoding="UTF-8"?>
<!-- Generator: Adobe Illustrator 25.0.0, SVG Export Plug-In . SVG Version: 6.00 Build 0)  -->
<svg xmlns="http://www.w3.org/2000/svg" xmlns:xlink="http://www.w3.org/1999/xlink" version="1.1" id="Layer_1" x="0px" y="0px" viewBox="0 0 512 512" style="enable-background:new 0 0 512 512;" xml:space="preserve" width="512" height="512">
<path d="M506.02,475.898L378.865,348.743c74.591-91.227,61.105-225.648-30.122-300.239S123.095-12.601,48.504,78.626  s-61.105,225.649,30.122,300.239c78.578,64.249,191.54,64.249,270.118,0L475.898,506.02c8.463,8.173,21.949,7.939,30.122-0.524  C513.993,497.241,513.993,484.154,506.02,475.898z M240.568,312.848c-15.533,12.371-37.553,12.371-53.086,0  c-36.491-29.312-79.97-73.26-79.97-115.865c-1.089-36.439,27.475-66.907,63.908-68.168c15.914,0.072,31.183,6.301,42.605,17.383  c11.422-11.081,26.691-17.311,42.605-17.383c36.433,1.262,64.997,31.73,63.908,68.168  C320.538,239.588,277.06,283.536,240.568,312.848z M277.933,196.983c0,19.172-24.541,50.913-63.78,82.654  c-39.495-31.741-64.036-63.482-64.036-82.654c-1.063-12.906,8.416-24.282,21.303-25.563c12.886,1.281,22.366,12.657,21.303,25.563  c0,11.765,9.537,21.303,21.303,21.303c11.765,0,21.303-9.537,21.303-21.303c-1.063-12.906,8.416-24.282,21.303-25.563  C269.517,172.701,278.996,184.077,277.933,196.983z"/>
</svg>
