<?xml version="1.0" encoding="UTF-8"?>
<svg xmlns="http://www.w3.org/2000/svg" id="Layer_1" data-name="Layer 1" viewBox="0 0 24 24" width="512" height="512"><path d="M11,17H6.086L.045,10.959C.016,11.3,0,11.649,0,12A12,12,0,0,0,11,23.958Z"/><path d="M19.126,19.124A7.209,7.209,0,0,1,17,14H13a3,3,0,0,1-3-3V8h3V4h4.086L18.9,2.183A12,12,0,0,0,.5,8.581L6.914,15H10a3,3,0,0,1,3,3v5.958a11.971,11.971,0,0,0,7.689-3.682Z"/><path d="M20.489,17.657l1.454,1.062a12,12,0,0,0-1.5-15.247L17.914,6H15v4H12v2h7v1.99A5.3,5.3,0,0,0,20.489,17.657Z"/></svg>
