<?xml version="1.0" encoding="UTF-8"?>
<!-- Generator: Adobe Illustrator 25.0.0, SVG Export Plug-In . SVG Version: 6.00 Build 0)  -->
<svg xmlns="http://www.w3.org/2000/svg" xmlns:xlink="http://www.w3.org/1999/xlink" version="1.1" id="Layer_1" x="0px" y="0px" viewBox="0 0 512 512" style="enable-background:new 0 0 512 512;" xml:space="preserve" width="512" height="512">
<path d="M422.147,69.996c-90.589-92.147-238.726-93.411-330.873-2.822S-2.137,305.9,88.452,398.047  c1.126,1.145,2.264,2.279,3.413,3.401l83.868,77.487c44.837,43.862,116.448,44.041,161.504,0.404l84.91-78.465  C513.513,309.503,513.513,161.367,422.147,69.996z M341.789,256.705H171.628c-11.747,0-21.27-9.523-21.27-21.27  s9.523-21.27,21.27-21.27h170.161c11.747,0,21.27,9.523,21.27,21.27S353.536,256.705,341.789,256.705z"/>
</svg>
