<?xml version="1.0" encoding="UTF-8"?>
<!-- Generator: Adobe Illustrator 25.0.0, SVG Export Plug-In . SVG Version: 6.00 Build 0)  -->
<svg xmlns="http://www.w3.org/2000/svg" xmlns:xlink="http://www.w3.org/1999/xlink" version="1.1" id="Capa_1" x="0px" y="0px" viewBox="0 0 512 512" style="enable-background:new 0 0 512 512;" xml:space="preserve" width="512" height="512">
<g>
	<path d="M320,170.667h139.52c-7.448-19.736-19.019-37.656-33.941-52.565l-74.325-74.368c-14.927-14.905-32.852-26.468-52.587-33.92   v139.52C298.667,161.115,308.218,170.667,320,170.667z"/>
	<path d="M468.821,213.333H320c-35.346,0-64-28.654-64-64V0.512C252.565,0.277,249.131,0,245.653,0h-96.32   C90.452,0.071,42.737,47.786,42.667,106.667v298.667C42.737,464.214,90.452,511.93,149.333,512h213.333   c58.881-0.07,106.596-47.786,106.667-106.667V223.68C469.333,220.203,469.056,216.768,468.821,213.333z"/>
</g>















</svg>
