<svg id="Layer_1" enable-background="new 0 0 24 24" height="512" viewBox="0 0 24 24" width="512" xmlns="http://www.w3.org/2000/svg"><path d="m18.5 23h-.033c-.511-.008-.997-.225-1.345-.6l-2.168-2.262 1.446-1.382 2.106 2.2 4.081-4.082 1.413 1.411-4.161 4.162c-.354.356-.837.556-1.339.553z"/><path d="m12.017 0c-6.617-.02-11.997 5.336-12.017 11.963s5.327 12.017 11.943 12.037c1.097.003 2.19-.144 3.247-.439-1.968-2.658-1.411-6.411 1.243-8.382 2.116-1.571 5.009-1.571 7.125 0 1.771-6.367-1.946-12.966-8.302-14.74-1.054-.294-2.144-.442-3.239-.439zm1 11.414-3.293 3.293-1.414-1.414 2.707-2.707v-4.586h2z"/></svg>