<?xml version="1.0" encoding="UTF-8"?>
<svg xmlns="http://www.w3.org/2000/svg" id="Layer_1" data-name="Layer 1" viewBox="0 0 24 24" width="512" height="512"><path d="M24,13.5A2.5,2.5,0,0,1,21.5,16H17.464l-4.226,6.487A2.973,2.973,0,0,1,10.633,24a2.629,2.629,0,0,1-2.462-3.553L10.019,16H6a4,4,0,0,1-3.473-2.015L.2,10.16a1.443,1.443,0,0,1,.525-2,1.412,1.412,0,0,1,1.652.25L3.794,9.828A4,4,0,0,0,6.622,11H21.5A2.5,2.5,0,0,1,24,13.5ZM17.731,9l-4.5-7.487A2.972,2.972,0,0,0,10.629,0,2.63,2.63,0,0,0,8.167,3.553L10.285,9Z"/></svg>
