<?xml version="1.0" encoding="UTF-8"?>
<svg xmlns="http://www.w3.org/2000/svg" id="Layer_1" data-name="Layer 1" viewBox="0 0 24 24" width="512" height="512"><path d="M13,11a2,2,0,1,1-2-2A2,2,0,0,1,13,11Zm11,1.788V15H21.67l-.449,3.394A3.008,3.008,0,0,1,18.247,21H16v3H3V19.291a1.974,1.974,0,0,0-.457-1.262A11,11,0,0,1,9.453.106,10.9,10.9,0,0,1,19.8,4.419a32.9,32.9,0,0,1,3.472,6.713C23.486,11.622,24,12.788,24,12.788ZM14.839,9.939,16.7,8.866l-1-1.732L13.85,8.2A4,4,0,0,0,12,7.142V5H10V7.142A4,4,0,0,0,8.15,8.2L6.3,7.134l-1,1.732L7.161,9.939A3.958,3.958,0,0,0,7,11a3.958,3.958,0,0,0,.161,1.061L5.3,13.134l1,1.732L8.15,13.8A4,4,0,0,0,10,14.858V17h2V14.858A4,4,0,0,0,13.85,13.8L15.7,14.866l1-1.732-1.857-1.073A3.958,3.958,0,0,0,15,11,3.958,3.958,0,0,0,14.839,9.939Z"/></svg>
