<?xml version="1.0" encoding="UTF-8"?>
<svg xmlns="http://www.w3.org/2000/svg" id="Layer_1" data-name="Layer 1" viewBox="0 0 24 24" width="512" height="512"><path d="M23.94,6.573a2.849,2.849,0,0,1-2.516,2.284s-1.051.165-1.51.284A7.5,7.5,0,0,0,20,8.146V4.011a6.052,6.052,0,0,0-.217-1.578,11.8,11.8,0,0,1,2.795,1.138A2.765,2.765,0,0,1,23.94,6.573Zm-9.793,7.556a3,3,0,0,0,.6-3.308L10.991,3.607A4.351,4.351,0,0,0,4.16,2.06c-.342.292-.684.6-1.018.912-.355.334-.717.712-1.077,1.124a4.323,4.323,0,0,0-.957,3.826,4.453,4.453,0,0,0,2.539,3.1l7.2,3.717A2.9,2.9,0,0,0,12.059,15,2.936,2.936,0,0,0,14.147,14.129ZM16.473.862A3.966,3.966,0,0,0,13.082.109a16.852,16.852,0,0,0-1.814.543,6.4,6.4,0,0,1,1.524,2.083l3.78,7.271a4.963,4.963,0,0,1,.174.492l.01-.01A5.525,5.525,0,0,0,18,7V4.011A3.993,3.993,0,0,0,16.473.862Zm-9.9,23.077a2.849,2.849,0,0,0,2.283-2.516s.165-1.051.284-1.51A7.489,7.489,0,0,1,8.146,20H4.01a6.058,6.058,0,0,1-1.578-.217,11.779,11.779,0,0,0,1.138,2.8A2.766,2.766,0,0,0,6.573,23.939ZM4.01,18H7a5.525,5.525,0,0,0,3.488-1.244l.01-.009a5.123,5.123,0,0,1-.491-.175l-7.271-3.78A6.4,6.4,0,0,1,.651,11.267a16.622,16.622,0,0,0-.542,1.814,3.959,3.959,0,0,0,.753,3.391A3.991,3.991,0,0,0,4.01,18Z"/></svg>
