<?xml version="1.0" encoding="UTF-8"?>
<svg xmlns="http://www.w3.org/2000/svg" id="Layer_1" data-name="Layer 1" viewBox="0 0 24 24" width="512" height="512"><path d="M24,21.242V24H22V21.242a3.243,3.243,0,0,0-5.536-2.292l-3,3A6.951,6.951,0,0,1,8.515,24H3.122A3.121,3.121,0,0,1,.914,18.672l.306-.306a2.689,2.689,0,0,1,.568-2.955l6-6a7.58,7.58,0,0,0,1.081,1.722,8,8,0,0,0,2.707,2.094L5.589,19.212a2.68,2.68,0,0,1-2.957.57l-.3.3A1.121,1.121,0,0,0,3.122,22H8.515a4.967,4.967,0,0,0,3.535-1.465l3-3A5.243,5.243,0,0,1,24,21.242ZM15,12A6,6,0,1,0,9,6,6,6,0,0,0,15,12Z"/></svg>
