<?xml version="1.0" encoding="UTF-8"?>
<svg xmlns="http://www.w3.org/2000/svg" id="Layer_1" data-name="Layer 1" viewBox="0 0 24 24" width="512" height="512"><path d="M23,10a34.177,34.177,0,0,0-9.979,1.587C13.238,8.549,15.828,7,19,7a2,2,0,0,0,0-4c-3.314,0-6,1.686-6,5V0H11V8c0-3.314-2.686-5-6-5A2,2,0,0,0,5,7c3.172,0,5.762,1.549,5.979,4.587A34.184,34.184,0,0,0,1,10H0v1C0,22.311,4.386,24,7,24a5.334,5.334,0,0,0,3.055-1.168A3.615,3.615,0,0,1,12,22a3.615,3.615,0,0,1,1.945.832A5.334,5.334,0,0,0,17,24c2.614,0,7-1.689,7-13V10ZM6.123,19.362C4.583,19.756,4.242,17.815,3.77,15a34.574,34.574,0,0,1,6.262,1.619l.962.379C8.761,17.216,7.3,19.061,6.123,19.362Zm11.726,0c-1.175-.3-2.638-2.146-4.871-2.364l.962-.379A34.574,34.574,0,0,1,20.2,15C19.73,17.815,19.389,19.756,17.849,19.362Z"/></svg>
