<?xml version="1.0" encoding="UTF-8"?>
<svg xmlns="http://www.w3.org/2000/svg" id="Layer_1" data-name="Layer 1" viewBox="0 0 24 24" width="512" height="512"><path d="M12,9a1,1,0,0,1,2,0A1,1,0,0,1,12,9ZM23,5V19a5.006,5.006,0,0,1-5,5H8a5,5,0,0,1-4.576-3H2a1,1,0,0,1,0-2H3V17H2a1,1,0,0,1,0-2H3V13H2a1,1,0,0,1,0-2H3V9H2A1,1,0,0,1,2,7H3V5H2A1,1,0,0,1,2,3H3.424A5,5,0,0,1,8,0H18A5.006,5.006,0,0,1,23,5ZM10,9a3,3,0,0,0,6,0A3,3,0,0,0,10,9Zm8,9c-.211-6.608-9.791-6.606-10,0a1,1,0,0,0,2,0,3,3,0,0,1,6,0A1,1,0,0,0,18,18Z"/></svg>
