<?xml version="1.0" encoding="UTF-8"?>
<svg xmlns="http://www.w3.org/2000/svg" id="Layer_1" data-name="Layer 1" viewBox="0 0 24 24" width="512" height="512"><path d="M22.907,22,18.24,15h2.667l-4-6H19.1L13.716.7a2.414,2.414,0,0,0-3.355,0L4.946,9H7.17l-4,6H5.836L1.17,22h9.869v2h2V22ZM13,18a1,1,0,1,1,1-1A1,1,0,0,1,13,18Zm3,0a1,1,0,1,1-1,1A1,1,0,0,1,16,18Zm-1-7a1,1,0,1,1-1,1A1,1,0,0,1,15,11ZM13,5a1,1,0,1,1-1,1A1,1,0,0,1,13,5ZM8,20a1,1,0,1,1,1-1A1,1,0,0,1,8,20Zm1-5a1,1,0,1,1,1-1A1,1,0,0,1,9,15Zm1-5a1,1,0,1,1,1,1A1,1,0,0,1,10,10Z"/></svg>
