<?xml version="1.0" encoding="UTF-8"?>
<svg xmlns="http://www.w3.org/2000/svg" id="Layer_1" data-name="Layer 1" viewBox="0 0 24 24" width="512" height="512"><path d="M14,18a3.009,3.009,0,0,0-1,.171V18a1,1,0,0,1,1-1,.985.985,0,0,1,.75.339,1,1,0,1,0,1.5-1.322A3,3,0,0,0,11,18v3a3,3,0,0,0,5.544,1.589,3.054,3.054,0,0,0,.121-3.009A2.942,2.942,0,0,0,14,18Zm.849,3.529A1,1,0,1,1,14,20a.954.954,0,0,1,.866.455A1.068,1.068,0,0,1,14.849,21.529ZM21,15a3,3,0,0,0-3,3v3a3,3,0,0,0,6,0V18A3,3,0,0,0,21,15Zm1,6a1,1,0,0,1-2,0V18a1,1,0,0,1,2,0ZM12,13H8a1,1,0,0,1,0-2h3V7a1,1,0,0,1,2,0v5A1,1,0,0,1,12,13ZM24,3V6a3,3,0,0,1-3,3H18a1,1,0,0,1,0-2h2.637A9.991,9.991,0,1,0,8.364,21.318a1,1,0,0,1-.728,1.864A12,12,0,1,1,22,5.374V3a1,1,0,0,1,2,0Z"/></svg>
