<svg id="Layer_1" height="512" viewBox="0 0 24 24" width="512" xmlns="http://www.w3.org/2000/svg" data-name="Layer 1"><path d="m13 0c-6.065 0-11 4.037-11 9a7.587 7.587 0 0 0 .692 3.1 2.936 2.936 0 0 0 -.442 3.079 6.987 6.987 0 0 0 -2.25 4.821 3.888 3.888 0 0 0 4 4l.008-2a1.885 1.885 0 0 1 -2.008-2 5.059 5.059 0 0 1 1.684-3.426 10.821 10.821 0 0 0 3.429.435c.3 0 .577-.007.843-.016a13.048 13.048 0 0 0 5.044 1.007c6.065 0 11-4.037 11-9s-4.935-9-11-9zm0 16a11.119 11.119 0 0 1 -3.907-.712 14.454 14.454 0 0 0 -1.993-3.412 3.04 3.04 0 0 0 -2.678-.8 5.581 5.581 0 0 1 -.422-2.076c0-3.859 4.037-7 9-7s9 3.141 9 7-4.037 7-9 7z"/></svg>