<svg id="Layer_1" height="512" viewBox="0 0 24 24" width="512" xmlns="http://www.w3.org/2000/svg" data-name="Layer 1"><path d="m24 21a1 1 0 0 1 -1 1h-8.184a2.982 2.982 0 0 1 -5.632 0h-8.184a1 1 0 0 1 0-2h8.184a3 3 0 0 1 1.816-1.816v-4.184h-6a3 3 0 0 1 -3-3 1 1 0 0 1 1-1h5.586l.414.414a1.986 1.986 0 0 0 1.414.586h3.172a1.986 1.986 0 0 0 1.414-.586l.414-.414h5.586a1 1 0 0 1 1 1 3 3 0 0 1 -3 3h-6v4.184a3 3 0 0 1 1.816 1.816h8.184a1 1 0 0 1 1 1zm-14-12.414.414.414h3.172l.414-.414a1.986 1.986 0 0 1 1.414-.586h5.586v-4a4 4 0 0 0 -4-4h-10a4 4 0 0 0 -4 4v4h5.586a1.986 1.986 0 0 1 1.414.586z"/></svg>