<?xml version="1.0" encoding="UTF-8"?>
<!-- Generator: Adobe Illustrator 25.0.0, SVG Export Plug-In . SVG Version: 6.00 Build 0)  -->
<svg xmlns="http://www.w3.org/2000/svg" xmlns:xlink="http://www.w3.org/1999/xlink" version="1.1" id="Layer_1" x="0px" y="0px" viewBox="0 0 512 512" style="enable-background:new 0 0 512 512;" xml:space="preserve" width="512" height="512">
<path d="M447.987,0H341.561c-11.755,0-21.285,9.53-21.285,21.285s9.53,21.285,21.285,21.285h97.614L293.754,187.991  c-78.702-62.08-192.828-48.605-254.908,30.097S-9.758,410.916,68.944,472.996s192.828,48.605,254.908-30.097  c51.995-65.917,51.995-158.893,0-224.81L469.272,72.668v97.614c0,11.756,9.53,21.285,21.285,21.285  c11.755,0,21.285-9.53,21.285-21.285V63.856C511.842,28.589,483.253,0,447.987,0z"/>
</svg>
