<?xml version="1.0" encoding="UTF-8"?>
<svg xmlns="http://www.w3.org/2000/svg" id="Layer_1" data-name="Layer 1" viewBox="0 0 24 24" width="512" height="512"><path d="M23.63,3.845A2.024,2.024,0,0,0,21.988,3H18.463C18.971,2.152,19.539.1,18,0a1,1,0,0,0-1,1,2,2,0,0,1-2,2H9A2,2,0,0,1,7,1,1,1,0,0,0,6,0c-1.54.105-.97,2.151-.463,3H2.013A2.007,2.007,0,0,0,.106,5.615,6.6,6.6,0,0,0,1.594,8C2.119,7.491,3.281,6.4,4.7,5.228A1,1,0,0,1,5.972,6.772c-.518.426-1,.846-1.434,1.228H6a5.006,5.006,0,0,1,5,5v4a1,1,0,0,1-2,0V13a2.984,2.984,0,0,0-.184-1.034h0a1.5,1.5,0,0,1-1.781-1.781h0A2.984,2.984,0,0,0,6,10H3.221L6,21.135A3,3,0,0,0,9,24h6a3,3,0,0,0,3-2.865L20.78,10H18a2.984,2.984,0,0,0-1.034.184h0a1.5,1.5,0,0,1-1.781,1.781h0A2.984,2.984,0,0,0,15,13v4a1,1,0,0,1-2,0V13a5.006,5.006,0,0,1,5-5h1.463c-.43-.382-.916-.8-1.434-1.228A1,1,0,0,1,19.3,5.228C20.72,6.4,21.882,7.491,22.407,8A6.615,6.615,0,0,0,23.9,5.615,1.937,1.937,0,0,0,23.63,3.845ZM15,20a1,1,0,0,1,0,2H9a1,1,0,0,1,0-2Z"/></svg>
