<svg id="Layer_1" height="512" viewBox="0 0 24 24" width="512" xmlns="http://www.w3.org/2000/svg" data-name="Layer 1"><path d="m16 23a1 1 0 1 1 1 1 1 1 0 0 1 -1-1zm4.535-2.122a1 1 0 0 0 0-1.414 5 5 0 0 0 -7.07 0 1 1 0 0 0 1.414 1.414 3.074 3.074 0 0 1 4.242 0 1 1 0 0 0 1.414 0zm2.829-2.828a1 1 0 0 0 0-1.414 9.01 9.01 0 0 0 -12.728 0 1 1 0 0 0 1.414 1.414 7.011 7.011 0 0 1 9.9 0 1 1 0 0 0 1.414 0zm-14.142 1.414a3 3 0 0 1 0-4.243 11.014 11.014 0 0 1 14.757-.721 7.945 7.945 0 0 0 -5.622-7.14 1.087 1.087 0 0 1 -.722-.733 8 8 0 0 0 -15.49.842 7.648 7.648 0 0 0 .8 5.179 5.448 5.448 0 0 0 -2.888 5.652 5.844 5.844 0 0 0 5.626 4.7h7.1c-1.667-1.653-3.296-3.271-3.561-3.536z"/></svg>