<?xml version="1.0" encoding="UTF-8"?>
<svg xmlns="http://www.w3.org/2000/svg" id="Layer_1" data-name="Layer 1" viewBox="0 0 24 24" width="512" height="512"><path d="M20.526,16.3a14.565,14.565,0,0,0,.862-4.561,2.01,2.01,0,0,0-.608-1.5L18.961,8.469l5.045-5.045-1.43-1.43L17.514,7.056,15.307,4.9A2,2,0,0,0,12.6,4.826a23.888,23.888,0,0,1-2.09,1.632Z"/><path d="M8.771,7.557A12.334,12.334,0,0,1,6.227,8.694L0,10.521v.749A12.431,12.431,0,0,0,.93,16l1.708-.279a9.6,9.6,0,0,0,4.3-2.434l1.4,1.43a11.649,11.649,0,0,1-5.295,2.961l-1.156.191a12.911,12.911,0,0,0,2.5,2.925l2.026-.752,1.4-.7A9.544,9.544,0,0,0,11.4,16.2l.519-.761,1.652,1.126-.518.761a11.535,11.535,0,0,1-4.347,3.8l-1.55.773-.815.3A13.142,13.142,0,0,0,13.007,24h1.238l.258-.18a16.5,16.5,0,0,0,5.144-5.577Z"/></svg>
