<?xml version="1.0" encoding="UTF-8"?>
<svg xmlns="http://www.w3.org/2000/svg" id="Layer_1" data-name="Layer 1" viewBox="0 0 24 24" width="512" height="512"><path d="M12,14c4.276,0,7.634-6.292,8.665-10.055A4.966,4.966,0,0,0,17.525.957,18.329,18.329,0,0,0,12,0,18.367,18.367,0,0,0,6.475.956a4.97,4.97,0,0,0-3.14,2.989C4.366,7.708,7.724,14,12,14ZM10,3h4a1,1,0,0,1,0,2H10a1,1,0,0,1,0-2ZM21,8.585C19.109,12.323,15.971,16,12,16S4.891,12.323,3,8.585v7.592a5,5,0,0,0,1.325,3.39L3.076,22.621a1,1,0,1,0,1.851.757L6,20.745A13.583,13.583,0,0,0,12,22a13.573,13.573,0,0,0,6-1.255l1.077,2.633a1,1,0,1,0,1.852-.757l-1.25-3.054A5,5,0,0,0,21,16.177ZM12,20a1,1,0,1,1,1-1A1,1,0,0,1,12,20Z"/></svg>
