<?xml version="1.0" encoding="UTF-8"?>
<!-- Generator: Adobe Illustrator 25.0.0, SVG Export Plug-In . SVG Version: 6.00 Build 0)  -->
<svg xmlns="http://www.w3.org/2000/svg" xmlns:xlink="http://www.w3.org/1999/xlink" version="1.1" id="Capa_1" x="0px" y="0px" viewBox="0 0 512 512" style="enable-background:new 0 0 512 512;" xml:space="preserve" width="512" height="512">
<g>
	<path d="M489.797,256c-10.791-0.141-19.924,7.939-21.099,18.667c-9.959,117.754-113.491,205.138-231.245,195.179   S32.315,356.354,42.275,238.6S155.766,33.462,273.52,43.421c50.983,4.312,98.733,26.75,134.592,63.245h-66.603   c-11.782,0-21.333,9.551-21.333,21.333s9.551,21.333,21.333,21.333h88.384c21.874-0.012,39.604-17.742,39.616-39.616V21.333   C469.509,9.551,459.958,0,448.176,0c-11.782,0-21.333,9.551-21.333,21.333v44.331C321.548-28.425,159.915-19.341,65.826,85.954   s-85.005,266.927,20.29,361.016s266.927,85.005,361.016-20.29c36.575-40.931,59.007-92.547,63.977-147.214   c1.096-11.814-7.593-22.279-19.407-23.375C491.069,256.033,490.434,256.002,489.797,256z"/>
</g>















</svg>
