<?xml version="1.0" encoding="UTF-8"?>
<svg xmlns="http://www.w3.org/2000/svg" id="Filled" viewBox="0 0 24 24" width="512" height="512"><circle cx="12" cy="14" r="2"/><path d="M22.536,4.122,19.878,1.464A4.99,4.99,0,0,0,19,.775V3a5.006,5.006,0,0,1-5,5H10A5.006,5.006,0,0,1,5,3V0A5.006,5.006,0,0,0,0,5V19a5.006,5.006,0,0,0,5,5H19a5.006,5.006,0,0,0,5-5V7.657A4.966,4.966,0,0,0,22.536,4.122ZM12,18a4,4,0,1,1,4-4A4,4,0,0,1,12,18Z"/><path d="M10,6h4a3,3,0,0,0,3-3V.064A5.128,5.128,0,0,0,16.343,0H7V3A3,3,0,0,0,10,6Z"/></svg>
