<?xml version="1.0" encoding="UTF-8"?>
<svg xmlns="http://www.w3.org/2000/svg" id="Layer_1" data-name="Layer 1" viewBox="0 0 24 24" width="512" height="512"><path d="M24,21.242V24H22V21.242a3.243,3.243,0,0,0-5.535-2.293l-3,3A6.955,6.955,0,0,1,8.517,24H3.123A3.121,3.121,0,0,1,.916,18.672L4.1,15.485,7.639,2.227A2.953,2.953,0,0,1,8,1.413L13.087,6.5,4.106,15.482,5.52,16.9,14.5,7.915,19.587,13a2.953,2.953,0,0,1-.814.36L5.52,16.9l-3.19,3.19A1.121,1.121,0,0,0,3.123,22H8.517a4.971,4.971,0,0,0,3.536-1.465l3-3A5.242,5.242,0,0,1,24,21.242ZM19.287.3A2.977,2.977,0,0,0,18,0H10.536a3,3,0,0,0-.962.16L14.5,5.087ZM20.84,11.426a3,3,0,0,0,.16-.962V3a2.963,2.963,0,0,0-.3-1.284L15.915,6.5Z"/></svg>
