<?xml version="1.0" encoding="UTF-8"?>
<svg xmlns="http://www.w3.org/2000/svg" id="Layer_1" data-name="Layer 1" viewBox="0 0 24 24" width="512" height="512"><path d="M19.923,7.284a1.549,1.549,0,0,0-1.949.152,8.172,8.172,0,0,1-4,1.559A1,1,0,0,1,13,8V6.965a5.978,5.978,0,0,0,5.991-5.648A1.173,1.173,0,0,0,17.683.009c-1.855.077-4.583,1.52-5.151,3.7A8.714,8.714,0,0,0,10.711.271a1,1,0,0,0-1.428,1.4A7.542,7.542,0,0,1,10.949,6H8.5A8.771,8.771,0,0,0,0,15c-.161,5.6,5.644,10.773,10.75,8.385a2.4,2.4,0,0,1,2.605.019A4.444,4.444,0,0,0,15.5,24C24.213,23.922,27.064,11.874,19.923,7.284Z"/></svg>
