<?xml version="1.0" encoding="UTF-8"?>
<svg xmlns="http://www.w3.org/2000/svg" id="Layer_1" data-name="Layer 1" viewBox="0 0 24 24" width="512" height="512"><path d="M7,21v3H3V21Zm10,0v3h4V21Zm7-5v3H0V16a3,3,0,0,1,3-3H21A3,3,0,0,1,24,16ZM5,15H5a1,1,0,0,0-1,1H4a1,1,0,0,0,1,1H5a1,1,0,0,0,1-1H6A1,1,0,0,0,5,15Zm14,0h0a1,1,0,0,0-1,1h0a1,1,0,0,0,1,1h0a1,1,0,0,0,1-1h0A1,1,0,0,0,19,15ZM15.108,2,14.9,1.368A2,2,0,0,0,13,0H11.108a2,2,0,0,0-1.9,1.368L9,2Zm5.559,7L19.456,5.368A2,2,0,0,0,17.558,4H6.442a2,2,0,0,0-1.9,1.368L3.333,9H0v2H24V9Z"/></svg>
