<svg id="Layer_1" height="512" viewBox="0 0 24 24" width="512" xmlns="http://www.w3.org/2000/svg" data-name="Layer 1"><path d="m23 20h-8.184a3 3 0 0 0 -1.816-1.816v-4.164c1.344 0 2.52-.012 3.1-.023a5.23 5.23 0 0 0 1.065-.131 4.952 4.952 0 0 0 3.7-3.7 5.012 5.012 0 0 0 -3.56-6l-.176-.043c-.3-.067-.452-.1-.588-.428a6 6 0 0 0 -11.367.855 6.369 6.369 0 0 0 -.056 2.733 3.5 3.5 0 0 0 .448 6.588 3.684 3.684 0 0 0 .834.129c.653.018 2.549.026 4.521.026h.079v4.161a3 3 0 0 0 -1.816 1.813h-8.184a1 1 0 0 0 0 2h8.184a2.982 2.982 0 0 0 5.632 0h8.184a1 1 0 0 0 0-2z"/></svg>