<svg id="Layer_1" height="512" viewBox="0 0 24 24" width="512" xmlns="http://www.w3.org/2000/svg" data-name="Layer 1"><path d="m11 4.5a6.449 6.449 0 0 0 -.995-3.44 9.7 9.7 0 0 1 11.256 1.679 9.409 9.409 0 0 1 2.739 7.019 10.5 10.5 0 0 1 -3.121 7.117 11.212 11.212 0 0 1 -2.623 1.963l-9.469-9.465a6.481 6.481 0 0 0 2.213-4.873zm-2 0a4.5 4.5 0 1 0 -4.5 4.5 4.505 4.505 0 0 0 4.5-4.5zm-1.941 5.973a6.463 6.463 0 0 1 -2.559.527c-.158 0-.314-.013-.469-.024a9.44 9.44 0 0 0 .5 2.546 9.838 9.838 0 0 0 .55 1.478.483.483 0 0 1 -.081.578l-3.814 2.664v.014a3.238 3.238 0 1 0 4.634 4.459l.01.006 2.57-3.721a.5.5 0 0 1 .6-.119 10.082 10.082 0 0 0 4.514 1.112 9.33 9.33 0 0 0 2.725-.34z"/></svg>