<svg id="Layer_1" height="512" viewBox="0 0 24 24" width="512" xmlns="http://www.w3.org/2000/svg" data-name="Layer 1"><path d="m23 19a1 1 0 0 0 -1 1 2 2 0 0 1 -2 2h-4v-4h2.1a3.905 3.905 0 0 0 3.9-3.9 6.014 6.014 0 0 0 -4.823-5.883l-1.741-.349-2.067 3.632a1 1 0 0 1 -1.738-.99l1.738-3.051-.069-.019a1.967 1.967 0 0 1 -.605-.231l-3.021 1.838a1 1 0 0 1 -1.039-1.709l3.043-1.849-.064-.489h-3.614a1 1 0 0 1 0-2h3.352l-.052-.424a3 3 0 0 0 -3.681-2.49l-4.709 1.334a4.015 4.015 0 0 0 -2.91 3.849v8.731a4 4 0 0 0 4 4h1v4h-4a1 1 0 0 0 0 2h19a4 4 0 0 0 4-4 1 1 0 0 0 -1-1zm-16-1h7v4h-7z"/></svg>