<?xml version="1.0" encoding="UTF-8"?>
<!-- Generator: Adobe Illustrator 25.0.0, SVG Export Plug-In . SVG Version: 6.00 Build 0)  -->
<svg xmlns="http://www.w3.org/2000/svg" xmlns:xlink="http://www.w3.org/1999/xlink" version="1.1" id="Layer_1" x="0px" y="0px" viewBox="0 0 512 512" style="enable-background:new 0 0 512 512;" xml:space="preserve" width="512" height="512">
<path d="M471.486,107.389c-19.107-33.968-53.075-53.075-91.29-53.075H127.557c-38.214,0-72.183,19.107-91.29,53.075  c-23.353,42.46-36.091,89.167-36.091,137.996c0,116.766,46.706,212.302,106.151,212.302c31.845,0,57.322-29.722,76.429-91.29  c2.123-8.492,10.615-14.861,21.23-14.861h104.028c8.492,0,16.984,6.369,21.23,14.861c19.107,61.568,44.583,91.29,76.429,91.29  c59.445,0,106.151-95.536,106.151-212.302C507.578,196.555,494.84,149.849,471.486,107.389z M191.248,224.155h-21.23v21.23  c0,12.738-8.492,21.23-21.23,21.23s-21.23-8.492-21.23-21.23v-21.23h-21.23c-12.738,0-21.23-8.492-21.23-21.23  c0-12.738,8.492-21.23,21.23-21.23h21.23v-21.23c0-12.738,8.492-21.23,21.23-21.23s21.23,8.492,21.23,21.23v21.23h21.23  c12.738,0,21.23,8.492,21.23,21.23C212.478,215.663,203.986,224.155,191.248,224.155z M331.367,266.615  c-16.984,0-31.845-14.861-31.845-31.845s14.861-31.845,31.845-31.845c16.984,0,31.845,14.861,31.845,31.845  S346.228,266.615,331.367,266.615z M392.935,202.925c-14.861,0-31.845-14.861-31.845-31.845s16.984-31.845,31.845-31.845  s31.845,14.861,31.845,31.845S409.919,202.925,392.935,202.925z"/>
</svg>
