<?xml version="1.0" encoding="UTF-8"?>
<svg xmlns="http://www.w3.org/2000/svg" id="Layer_1" data-name="Layer 1" viewBox="0 0 24 24" width="512" height="512"><path d="M23.732,22.237l-5.779,1.8-.594-1.91,1.93-.6-.8-2.556a4.979,4.979,0,0,1-5.308-3.627l-.135-.4L14.006,12H22.6l.2.607a4.967,4.967,0,0,1-2.4,5.764l.8,2.558,1.939-.6ZM10.572,6.184,6.719,5.11A3.008,3.008,0,0,0,3.052,7.1L2.078,10H12.619l.02-.059a3,3,0,0,0-2.067-3.757ZM1.185,12.657a4.964,4.964,0,0,0,2.4,5.707l-.817,2.568-1.947-.6L.23,22.237l5.781,1.8.593-1.91-1.923-.6L5.5,18.966A4.93,4.93,0,0,0,6.01,19,5,5,0,0,0,10.8,15.392L11.945,12H1.406ZM17.707,1.707,16.293.293,14.005,2.582,15.419,4Zm-7.75.836L7.707.293,6.293,1.707l2.25,2.25ZM11,3h2V0H11Zm3.656,7h7.27L20.96,7.132A3.023,3.023,0,0,0,17.283,5.11l-3.527.983a4.907,4.907,0,0,1,.391.57A4.936,4.936,0,0,1,14.656,10Z"/></svg>
