<?xml version="1.0" encoding="UTF-8"?>
<svg xmlns="http://www.w3.org/2000/svg" id="Layer_1" data-name="Layer 1" viewBox="0 0 24 24" width="512" height="512"><path d="M19.79,12.08c-.77-2.868-1.923-6.013-2.5-7.534a14.618,14.618,0,0,1,1.5-.515.931.931,0,0,1,.81.17,1.014,1.014,0,0,1,.4.809h2a3,3,0,0,0-1.181-2.395A2.914,2.914,0,0,0,18.276,2.1a21.2,21.2,0,0,0-2.687.989l-.873.393.355.891c.01.024.506,1.267,1.121,2.99L12.02,10.606,8.414,7H10V5H4V7H5.586l4.843,4.844L8.441,13.39a4.954,4.954,0,1,0,1.151,1.639L16.88,9.361c.3.918.6,1.881.866,2.818a5,5,0,1,0,2.044-.1Z"/></svg>
