<svg id="Layer_1" height="512" viewBox="0 0 24 24" width="512" xmlns="http://www.w3.org/2000/svg" data-name="Layer 1"><path d="m20 0h-1.757a3.975 3.975 0 0 0 -2.829 1.172l-3.242 3.242a4.022 4.022 0 0 0 -1.172 2.828v3.748c-2.855 1.986-7.509 5.276-8.121 5.889a2.993 2.993 0 0 0 -.577 3.4l-2.009 2.014a1 1 0 0 0 0 1.414 1 1 0 0 0 1.414 0l2.007-2.007a2.965 2.965 0 0 0 3.407-.579c.613-.612 3.9-5.266 5.889-8.121h3.747a3.975 3.975 0 0 0 2.829-1.172l3.242-3.242a4.022 4.022 0 0 0 1.172-2.828v-1.758a4 4 0 0 0 -4-4zm-.293 5.707-5 5a1 1 0 0 1 -1.414-1.414l5-5a1 1 0 1 1 1.414 1.414z"/></svg>