<?xml version="1.0" encoding="UTF-8"?>
<svg xmlns="http://www.w3.org/2000/svg" id="Layer_1" data-name="Layer 1" viewBox="0 0 24 24" width="512" height="512"><title>10-Infographic-element</title><path d="M24,11.984a4,4,0,0,0-3.957-4A9.05,9.05,0,0,0,16,3.949a4,4,0,0,0-7.99,0A9.05,9.05,0,0,0,3.957,7.988a3.995,3.995,0,0,0-.016,7.989,9.044,9.044,0,0,0,4.064,4.074,4,4,0,0,0,7.99,0,9.044,9.044,0,0,0,4.064-4.074A4,4,0,0,0,24,11.984Zm-8.522,6.077a3.965,3.965,0,0,0-6.956,0,7.062,7.062,0,0,1-2.59-2.6,3.966,3.966,0,0,0,.015-6.957,7.052,7.052,0,0,1,2.575-2.57,3.965,3.965,0,0,0,6.956,0,7.052,7.052,0,0,1,2.575,2.57,3.966,3.966,0,0,0,.015,6.957A7.062,7.062,0,0,1,15.478,18.061Z"/></svg>
