<?xml version="1.0" encoding="UTF-8"?>
<svg xmlns="http://www.w3.org/2000/svg" id="Layer_1" data-name="Layer 1" viewBox="0 0 24 24" width="512" height="512"><path d="M24,23a1,1,0,0,1-1,1H1a1,1,0,0,1,0-2H23A1,1,0,0,1,24,23ZM3.75,15c1.068,0,1.75-.657,1.75-1a1,1,0,0,1,2,0c0,.306.661,1,1.75,1,1.068,0,1.75-.657,1.75-1a1,1,0,0,1,2,0c0,.306.661,1,1.75,1,1.068,0,1.75-.657,1.75-1a1,1,0,0,1,2,0c0,.306.661,1,1.75,1S22,14.306,22,14a5.006,5.006,0,0,0-5-5H13V6.816A3,3,0,0,0,15,4,6.683,6.683,0,0,0,13.332.59a1.856,1.856,0,0,0-2.663,0A6.676,6.676,0,0,0,9,4a3,3,0,0,0,2,2.816V9H7a5.006,5.006,0,0,0-5,5C2,14.306,2.661,15,3.75,15ZM3,20H21a1,1,0,0,0,1-1V16.625A4.359,4.359,0,0,1,20.25,17a4.194,4.194,0,0,1-2.75-1,4.309,4.309,0,0,1-5.5.015A4.309,4.309,0,0,1,6.5,16a4.194,4.194,0,0,1-2.75,1A4.359,4.359,0,0,1,2,16.625V19A1,1,0,0,0,3,20Z"/></svg>
