<?xml version="1.0" encoding="UTF-8"?>
<svg xmlns="http://www.w3.org/2000/svg" id="Layer_1" data-name="Layer 1" viewBox="0 0 24 24" width="512" height="512"><path d="M13.245,15.04,2.513,10.153a2.776,2.776,0,0,1-1.07-3.975A16.812,16.812,0,0,1,6.178,1.443h0a2.776,2.776,0,0,1,3.985,1.089L15,13.284ZM16.966.738A3.058,3.058,0,0,0,14.527.03c-.916.134-2.1.347-3.247.63a4.722,4.722,0,0,1,.672.977L16.9,12.393C17.039,12.339,18,12,18,12V3A2.99,2.99,0,0,0,16.966.738Zm5.409,3.047A13.177,13.177,0,0,0,20,2.733V9.995c.306-.063,1.056-.169,1.056-.169a3.259,3.259,0,0,0,2.876-2.61A3.161,3.161,0,0,0,22.375,3.785ZM3,18h9s.339-.961.393-1.1L1.639,11.951a4.756,4.756,0,0,1-.977-.671c-.283,1.146-.5,2.33-.63,3.246A3.057,3.057,0,0,0,.74,16.965,2.99,2.99,0,0,0,3,18Zm4.216,5.932a3.259,3.259,0,0,0,2.61-2.876S9.934,20.305,10,20H2.735a13.177,13.177,0,0,0,1.052,2.375A3.161,3.161,0,0,0,7.218,23.931Z"/></svg>
