<svg id="Layer_1" height="512" viewBox="0 0 24 24" width="512" xmlns="http://www.w3.org/2000/svg" data-name="Layer 1"><path d="m19 19h4.414l-4.414 4.414zm-8.033-12.75h-.715v1.473h.71a.735.735 0 1 0 0-1.47zm13.033-3.25v14h-7v7h-17v-21a3 3 0 0 1 3-3h18a3 3 0 0 1 3 3zm-16 2h-1.25v4.068a.742.742 0 0 1 -.75.751.759.759 0 0 1 -.75-.735c0-.03 0-.084 0-.084h-1.25v.084a2 2 0 0 0 2 1.984 1.991 1.991 0 0 0 2-1.984zm4.979 1.985a2 2 0 0 0 -2.012-1.985h-1.967v6.069h1.25v-2.1h.717a2 2 0 0 0 2.012-1.984zm2.272 2.083v-2.068a.742.742 0 0 1 .749-.75.772.772 0 0 1 .75.75h1.25a2.013 2.013 0 0 0 -2-2 1.991 1.991 0 0 0 -2 1.985v2.1a1.991 1.991 0 0 0 2 1.985 2 2 0 0 0 2-1.984v-1.086h-2v1h.749v.084a.759.759 0 0 1 -.75.735.742.742 0 0 1 -.748-.751z"/></svg>