<svg id="Layer_1" height="512" viewBox="0 0 24 24" width="512" xmlns="http://www.w3.org/2000/svg" data-name="Layer 1"><path d="m15.761.612a12.027 12.027 0 0 1 8.039 9.281 12.556 12.556 0 0 1 -3.828 1.758 20.644 20.644 0 0 0 -4.211-11.039zm-2.784 10.688a10.9 10.9 0 0 0 5.015.7 19.039 19.039 0 0 0 -5.311-11.966c-.227-.012-.451-.034-.681-.034a11.934 11.934 0 0 0 -4.688.955 13.637 13.637 0 0 1 5.665 10.345zm3.957 2.765a12.787 12.787 0 0 1 -4.786-.935 12.886 12.886 0 0 0 -2.935 3.151 18 18 0 0 0 13.7.681 11.9 11.9 0 0 0 1.082-4.826 14.169 14.169 0 0 1 -7.061 1.932zm-.279 5.935a18.366 18.366 0 0 1 -8.429-1.965 12.434 12.434 0 0 0 -1.241 4.854 11.93 11.93 0 0 0 14.406-3.438 21.748 21.748 0 0 1 -4.736.549zm-8.015-14.994a11.571 11.571 0 0 0 -3.323-2.967 11.992 11.992 0 0 0 -4.781 13.508 21.312 21.312 0 0 1 8.104-10.541zm2.328 6.514a11.557 11.557 0 0 0 -1.275-4.8 19.156 19.156 0 0 0 -7.849 11.48l-.118-.027a12.067 12.067 0 0 0 3.346 3.613 15.707 15.707 0 0 1 5.896-10.266z"/></svg>