<svg id="Layer_1" height="512" viewBox="0 0 24 24" width="512" xmlns="http://www.w3.org/2000/svg" data-name="Layer 1"><path d="m4.343 11h-4.343a5.006 5.006 0 0 1 5-5h6v-4.364a1.637 1.637 0 0 1 2.33-1.482l3.2 1.5a1 1 0 0 1 0 1.7l-3.53 1.646v1h6a5.006 5.006 0 0 1 5 5h-4.343a3 3 0 0 1 -2.092-.849l-2.736-2.979a4.074 4.074 0 0 0 -5.687.03l-2.678 2.919a3.017 3.017 0 0 1 -2.121.879zm7.657 8a1 1 0 0 0 -1 1v4h2v-4a1 1 0 0 0 -1-1zm7.657-6h4.343v8a3 3 0 0 1 -3 3h-6v-4a3 3 0 0 0 -6 0v4h-6a3 3 0 0 1 -3-3v-8h4.343a4.994 4.994 0 0 0 3.565-1.495l2.678-2.919a2.07 2.07 0 0 1 2.8-.03l2.738 2.979a4.968 4.968 0 0 0 3.533 1.465zm-13.657 8a1 1 0 0 0 -1-1h-1a1 1 0 0 0 0 2h1a1 1 0 0 0 1-1zm0-4a1 1 0 0 0 -1-1h-1a1 1 0 0 0 0 2h1a1 1 0 0 0 1-1zm8-4a2 2 0 1 0 -2 2 2 2 0 0 0 2-2zm7 8a1 1 0 0 0 -1-1h-1a1 1 0 0 0 0 2h1a1 1 0 0 0 1-1zm-1-5h-1a1 1 0 0 0 0 2h1a1 1 0 0 0 0-2z"/></svg>