<?xml version="1.0" encoding="UTF-8"?>
<svg xmlns="http://www.w3.org/2000/svg" id="Layer_1" data-name="Layer 1" viewBox="0 0 24 24" width="512" height="512"><path d="M14,24a5.952,5.952,0,0,1-4.242-1.758,6.025,6.025,0,0,1,0-8.484L14,9.261l4.263,4.517a6.029,6.029,0,0,1-.021,8.464h0A5.952,5.952,0,0,1,14,24ZM5,12a4.968,4.968,0,0,1-3.535-1.465,5.022,5.022,0,0,1,0-7.07L5,.007l3.527,3.45a5.02,5.02,0,0,1,.008,7.078A4.965,4.965,0,0,1,5,12Zm15-2a3.973,3.973,0,0,1-2.828-1.172,4.017,4.017,0,0,1,0-5.656L19.982.049,22.86,3.205a4.02,4.02,0,0,1-.032,5.623h0A3.973,3.973,0,0,1,20,10Z"/></svg>
