<?xml version="1.0" encoding="UTF-8"?>
<svg xmlns="http://www.w3.org/2000/svg" id="Layer_1" data-name="Layer 1" viewBox="0 0 24 24" width="512" height="512"><path d="M12.587,7,4.1,15.485,7.242,3.712a4.98,4.98,0,0,1,.636-1.42Zm4.7,6.757a4.98,4.98,0,0,0,1.42-.636L14,8.415,5.52,16.9Zm2.842-2.042A4.976,4.976,0,0,0,21,8.927V5a4.973,4.973,0,0,0-.832-2.752L15.415,7ZM16,0H12.073A4.976,4.976,0,0,0,9.284.87L14,5.587,18.754.834A4.962,4.962,0,0,0,16,0Zm8,21.5V23a1,1,0,0,1-2,0V21.4a3.347,3.347,0,0,0-2.88-3.379,3.228,3.228,0,0,0-2.7.973A15.143,15.143,0,0,1,5.613,24H3.627a3.423,3.423,0,0,1-3.3-1.743,3.081,3.081,0,0,1,.594-3.585l2.377-2.379a1,1,0,0,1,1.416,0h0a1,1,0,0,1,0,1.412L2.33,20.086A1.121,1.121,0,0,0,3.123,22H4.274a15.923,15.923,0,0,0,10.888-4.571A5.207,5.207,0,0,1,18.9,16,5.507,5.507,0,0,1,24,21.5Z"/></svg>
