<svg id="Layer_1" height="512" viewBox="0 0 24 24" width="512" xmlns="http://www.w3.org/2000/svg" data-name="Layer 1"><path d="m14.181.207a1 1 0 0 0 -1.181.983v2.879a8.053 8.053 0 1 0 6.931 6.931h2.886a1 1 0 0 0 .983-1.181 12.047 12.047 0 0 0 -9.619-9.612zm1.819 12.793h-2.277a1.994 1.994 0 1 1 -2.723-2.723v-3.277a1 1 0 0 1 2 0v3.277a2 2 0 0 1 .723.723h2.277a1 1 0 0 1 0 2zm-13.014-8.032a1 1 0 1 1 -1.17.8 1 1 0 0 1 1.17-.8zm-1.6 3.987a1 1 0 1 1 -1.17.8 1 1 0 0 1 1.167-.8zm8.742 12.868a1 1 0 1 1 -1.17.794 1 1 0 0 1 1.167-.794zm-4.12-19.923a1 1 0 1 1 -1.17.8 1 1 0 0 1 1.17-.8zm4.174-1.691a1 1 0 1 1 -1.182.771 1 1 0 0 1 1.182-.771zm-9.948 13.837a1 1 0 1 1 .8 1.17 1 1 0 0 1 -.8-1.17zm1.681 3.963a1 1 0 1 1 .8 1.17 1 1 0 0 1 -.8-1.17zm3.052 2.991a1 1 0 1 1 .8 1.17 1 1 0 0 1 -.8-1.17zm16.047-1.967a1 1 0 1 1 1.17-.8 1 1 0 0 1 -1.17.799zm-3.022 3.067a1 1 0 1 1 1.17-.8 1 1 0 0 1 -1.17.8zm-3.939 1.656a1 1 0 1 1 1.17-.795 1 1 0 0 1 -1.17.791zm9.659-9.756a1 1 0 1 1 -1-1 1 1 0 0 1 1 1z"/></svg>