<svg id="Layer_1" height="512" viewBox="0 0 24 24" width="512" xmlns="http://www.w3.org/2000/svg" data-name="Layer 1"><path d="m15.989 12.7v-2.7a1 1 0 0 1 1-1h1a1 1 0 0 0 1-1v-1a1 1 0 0 1 1-1h2.685a1.016 1.016 0 0 0 .922-.6 4.522 4.522 0 0 0 .376-2.377 3.491 3.491 0 0 0 -3.506-3.023 4.537 4.537 0 0 0 -3.208 1.329l-7.908 7.906a7.368 7.368 0 0 0 -3.881.048 7.5 7.5 0 0 0 2.036 14.717 7.654 7.654 0 0 0 .784-.041 7.529 7.529 0 0 0 6.428-5.429 7.334 7.334 0 0 0 .047-3.88l.65-.65a1.984 1.984 0 0 0 .575-1.3zm-10.489 7.3a1.5 1.5 0 1 1 1.5-1.5 1.5 1.5 0 0 1 -1.5 1.5z"/></svg>