<?xml version="1.0" encoding="UTF-8"?>
<!-- Generator: Adobe Illustrator 25.0.0, SVG Export Plug-In . SVG Version: 6.00 Build 0)  -->
<svg xmlns="http://www.w3.org/2000/svg" xmlns:xlink="http://www.w3.org/1999/xlink" version="1.1" id="Layer_1" x="0px" y="0px" viewBox="0 0 512 512" style="enable-background:new 0 0 512 512;" xml:space="preserve" width="512" height="512">
<path d="M429.269,283.584l-30.165,30.165L448,362.667h-8.149c-72.192,0-118.101-32.683-158.848-74.837l-6.4,7.424  c-6.997,8.107-14.208,16.448-21.717,24.832c46.934,54.345,115.244,85.509,187.051,85.333H448l-48.917,48.917l30.165,30.165  l70.251-70.251c16.656-16.661,16.656-43.669,0-60.331L429.269,283.584z"/>
<path d="M439.872,149.333H448l-48.896,48.917l30.165,30.165l70.251-70.251c16.656-16.661,16.656-43.669,0-60.331l-70.251-70.251  l-30.165,30.165L448,106.667h-8.149c-105.749,0-163.563,56.96-216.021,116.864C172.011,165.013,109.717,106.667-0.853,106.667  v42.667c95.232,0,146.624,49.835,196.459,106.667C145.771,312.832,94.379,362.667-0.853,362.667v42.667  c123.904,0,187.221-73.301,243.2-137.941C294.699,206.677,344.256,149.333,439.872,149.333z"/>
</svg>
