<?xml version="1.0" encoding="UTF-8"?>
<svg xmlns="http://www.w3.org/2000/svg" id="Layer_1" data-name="Layer 1" viewBox="0 0 24 24" width="512" height="512"><path d="M19,11H5V10A2.993,2.993,0,0,1,7.756,7.025L7,4A1,1,0,0,1,8,3h2a1,1,0,0,1,1,1l-.75,3H13.2l.639-3.2A1,1,0,0,1,14.82,3h.36a1,1,0,0,1,.981.8l.665,3.326A3,3,0,0,1,19,10ZM9,2A1,1,0,1,0,8,1,1,1,0,0,0,9,2Zm6,0a1,1,0,1,0-1-1A1,1,0,0,0,15,2ZM3.75,18c1.068,0,1.75-.657,1.75-1h2c0,.306.661,1,1.75,1,1.068,0,1.75-.657,1.75-1h2c0,.306.661,1,1.75,1,1.068,0,1.75-.657,1.75-1h2c0,.306.661,1,1.75,1,1.068,0,1.75-.657,1.75-1V16a3,3,0,0,0-3-3H5a3,3,0,0,0-3,3v1C2,17.306,2.661,18,3.75,18ZM22,22V19.625A4.359,4.359,0,0,1,20.25,20a4.194,4.194,0,0,1-2.75-1,4.309,4.309,0,0,1-5.5.015A4.309,4.309,0,0,1,6.5,19a4.194,4.194,0,0,1-2.75,1A4.359,4.359,0,0,1,2,19.625V22H0v2H24V22Z"/></svg>
