<?xml version="1.0" encoding="UTF-8"?>
<svg xmlns="http://www.w3.org/2000/svg" id="Layer_1" data-name="Layer 1" viewBox="0 0 24 24" width="512" height="512"><path d="M14.762,11.587A5.5,5.5,0,0,1,13,12.223V23.874a4.922,4.922,0,0,0,1.5-.557l6.027-3.479a5.016,5.016,0,0,0,2.5-4.331V8.547a4.959,4.959,0,0,0-.265-1.57Z"/><path d="M10.242,9.857a3.531,3.531,0,0,0,3.521,0l8-4.61a4.983,4.983,0,0,0-1.238-1.027L14.5.737a5.015,5.015,0,0,0-5,0L3.473,4.217a4.974,4.974,0,0,0-1.2.983Z"/><path d="M11,12.223a5.493,5.493,0,0,1-1.763-.636L1.257,6.923A4.956,4.956,0,0,0,.973,8.547v6.96a5.016,5.016,0,0,0,2.5,4.331L9.5,23.317a4.922,4.922,0,0,0,1.5.557Z"/></svg>
