<?xml version="1.0" encoding="UTF-8"?>
<svg xmlns="http://www.w3.org/2000/svg" id="Layer_1" data-name="Layer 1" viewBox="0 0 24 24" width="512" height="512"><path d="M16,24H8a3,3,0,0,1-2.886-2.225,6.993,6.993,0,0,1,13.772,0A3,3,0,0,1,16,24ZM3,21V13.424A5,5,0,0,0,0,18v1a5,5,0,0,0,3.924,4.876A4.953,4.953,0,0,1,3,21Zm18-7.576V21a4.953,4.953,0,0,1-.924,2.876A5,5,0,0,0,24,19V18A5,5,0,0,0,21,13.424ZM19,11v6.356a8.978,8.978,0,0,0-14,0V11A6.992,6.992,0,0,1,8,5.264V4a4,4,0,0,1,8,0V5.264A6.992,6.992,0,0,1,19,11ZM10,4.3a6.927,6.927,0,0,1,4,0V4a2,2,0,0,0-4,0ZM15,10h0a1,1,0,0,0-1-1H10a1,1,0,0,0-1,1H9a1,1,0,0,0,1,1h4A1,1,0,0,0,15,10Z"/></svg>
