<?xml version="1.0" encoding="UTF-8"?>
<svg xmlns="http://www.w3.org/2000/svg" id="Layer_1" data-name="Layer 1" viewBox="0 0 24 24" width="512" height="512"><path d="M16.252,6.334A9.223,9.223,0,0,1,14,.181a11.95,11.95,0,0,1,5.741,2.664Zm-8.5,8.5L10.586,12,2.845,4.259A11.944,11.944,0,0,0,0,12H.323A11.582,11.582,0,0,1,7.749,14.837ZM21.155,4.259,17.666,7.748A9.531,9.531,0,0,0,23.819,10,11.95,11.95,0,0,0,21.155,4.259Zm-6.318,3.49A11.585,11.585,0,0,1,12,.323V0A11.944,11.944,0,0,0,4.259,2.845L12,10.586ZM23.677,12a11.584,11.584,0,0,1-7.426-2.837L13.414,12l7.741,7.741A11.944,11.944,0,0,0,24,12ZM9.163,16.251A11.937,11.937,0,0,1,12,23.648V24h0a11.944,11.944,0,0,0,7.741-2.845L12,13.414ZM7.746,17.668,4.259,21.155A11.95,11.95,0,0,0,10,23.819,9.495,9.495,0,0,0,7.746,17.668ZM.181,14a11.95,11.95,0,0,0,2.664,5.741l3.489-3.489A9.452,9.452,0,0,0,.181,14Z"/></svg>
