<?xml version="1.0" encoding="UTF-8"?>
<svg xmlns="http://www.w3.org/2000/svg" id="Layer_1" data-name="Layer 1" viewBox="0 0 24 24" width="512" height="512"><path d="M19,8V7.068A5.073,5.073,0,0,0,13.932,2H13V0H11V2h-.932a5.068,5.068,0,0,0-1.6,9.875L11,12.72V20h-.932A3.071,3.071,0,0,1,7,16.932V16H5v.932A5.073,5.073,0,0,0,10.068,22H11v2h2V22h.932a5.068,5.068,0,0,0,1.6-9.875L13,11.28V4h.932A3.071,3.071,0,0,1,17,7.068V8Zm-4.1,6.021A3.068,3.068,0,0,1,13.932,20H13V13.387ZM11,10.613,9.1,9.979A3.068,3.068,0,0,1,10.068,4H11Z"/></svg>
