<?xml version="1.0" encoding="UTF-8"?>
<!-- Generator: Adobe Illustrator 25.0.0, SVG Export Plug-In . SVG Version: 6.00 Build 0)  -->
<svg xmlns="http://www.w3.org/2000/svg" xmlns:xlink="http://www.w3.org/1999/xlink" version="1.1" id="Capa_1" x="0px" y="0px" viewBox="0 0 512.301 512.301" style="enable-background:new 0 0 512.301 512.301;" xml:space="preserve" width="512" height="512">
<g>
	<path d="M320.119,82.112L320.119,82.112c0.137,8.67,5.409,16.432,13.419,19.755c71.67,31.535,117.01,103.433,114.581,181.696   c-1.72,106.039-89.076,190.605-195.115,188.885c-106.039-1.72-190.606-89.076-188.885-195.115c0,0,0,0,0,0   c0.101-76.006,45.028-144.798,114.581-175.445c8.013-3.343,13.282-11.117,13.419-19.797l0,0c0.019-11.782-9.518-21.348-21.3-21.367   c-2.745-0.004-5.466,0.521-8.012,1.548C43.898,113.824-10.705,252.01,40.848,370.919S230.586,544.43,349.495,492.878   c118.909-51.552,173.511-189.738,121.959-308.647c-23.698-54.66-67.299-98.261-121.959-121.959   c-10.913-4.442-23.36,0.804-27.802,11.716C320.643,76.568,320.108,79.327,320.119,82.112z"/>
	<path d="M256.119,0L256.119,0c11.782,0,21.333,9.551,21.333,21.333v128c0,11.782-9.551,21.333-21.333,21.333l0,0   c-11.782,0-21.333-9.551-21.333-21.333v-128C234.785,9.551,244.337,0,256.119,0z"/>
</g>















</svg>
