<?xml version="1.0" encoding="UTF-8"?>
<svg xmlns="http://www.w3.org/2000/svg" id="Layer_1" data-name="Layer 1" viewBox="0 0 24 24" width="512" height="512"><path d="M20.832,18.555,21,18.3V8.861C18.972,12.658,15.625,16,12,16S5.028,12.658,3,8.861V18.3l.168.252A6.188,6.188,0,0,0,4.65,19.968L3,24H5.162l1.246-3.046A13.937,13.937,0,0,0,12,22a13.937,13.937,0,0,0,5.592-1.046L18.838,24H21l-1.65-4.032A6.188,6.188,0,0,0,20.832,18.555ZM12,20a1,1,0,1,1,1-1A1,1,0,0,1,12,20Zm0-6c3.779,0,8.081-5.95,8.863-10.593a2.968,2.968,0,0,0-1.745-1.882A20.154,20.154,0,0,0,12,0,20.149,20.149,0,0,0,4.882,1.525,2.968,2.968,0,0,0,3.137,3.407C3.919,8.05,8.221,14,12,14ZM9,3h6V5H9Z"/></svg>
