<?xml version="1.0" encoding="UTF-8"?>
<svg xmlns="http://www.w3.org/2000/svg" id="Layer_1" data-name="Layer 1" viewBox="0 0 24 24" width="512" height="512"><path d="M20.976,12l-5.352,0a3.091,3.091,0,0,0-1.716.52l-1.959,1.306a1,1,0,0,1-.555.168H1a1,1,0,0,0-1,1v8a1,1,0,0,0,1,1H12.537a11.97,11.97,0,0,0,11.309-8.112A2.984,2.984,0,0,0,20.976,12ZM4,20a1,1,0,1,1,1-1A1,1,0,0,1,4,20Zm4,0a1,1,0,1,1,1-1A1,1,0,0,1,8,20Zm4,0a1,1,0,1,1,1-1A1,1,0,0,1,12,20ZM1,12a2.962,2.962,0,0,0-1,.184V9H10a1,1,0,0,0,0-2H0V4.861a1,1,0,0,1,1-1H3.392L3.071,2.643A2.106,2.106,0,0,1,5.107,0h0A2.107,2.107,0,0,1,7.144,1.569l.6,2.292H10A5.04,5.04,0,0,1,13.179,5a25.492,25.492,0,0,1,4.44,5l-1.974,0a5.224,5.224,0,0,0-2.822.84L11.092,12Z"/></svg>
