<?xml version="1.0" encoding="UTF-8"?>
<!-- Generator: Adobe Illustrator 25.0.0, SVG Export Plug-In . SVG Version: 6.00 Build 0)  -->
<svg xmlns="http://www.w3.org/2000/svg" xmlns:xlink="http://www.w3.org/1999/xlink" version="1.1" id="Layer_1" x="0px" y="0px" viewBox="0 0 512 512" style="enable-background:new 0 0 512 512;" xml:space="preserve" width="512" height="512">
<g>
	<path d="M255.302,207.587c42.904-32.404,98.392-43.122,150.277-29.028c0.361-4.247,0.764-8.281,0.764-12.507   c0.01-83.653-67.796-151.474-151.448-151.484c-83.653-0.01-151.474,67.796-151.485,151.448v0.036c0,4.247,0.404,8.494,0.786,12.741   C156.306,164.46,212.116,175.094,255.302,207.587z"/>
	<path d="M239.334,295.158c10.582,1.268,21.28,1.225,31.852-0.127c-4.156-9.917-9.512-19.288-15.947-27.902   C248.815,275.789,243.473,285.202,239.334,295.158z"/>
	<path d="M448.953,223.411c-8.317-5.992-17.222-11.124-26.577-15.315c-13.313,52.191-50.108,95.239-99.59,116.514   c0.895,6.894,1.363,13.837,1.401,20.789c0.093,46.492-18.689,91.03-52.046,123.415c67.766,48.825,162.282,33.471,211.108-34.296   C532.075,366.753,516.72,272.237,448.953,223.411z"/>
	<polygon points="422.376,208.097 422.376,208.097 422.376,208.097  "/>
	<path d="M186.46,345.399c0.027-6.816,0.474-13.624,1.338-20.385c-49.73-20.945-86.853-63.877-100.397-116.111   C11.617,244.075-21.305,334.021,13.867,409.804c35.171,75.783,125.118,108.705,200.901,73.534   c8.479-3.935,16.575-8.648,24.184-14.077C205.319,436.843,186.362,392.112,186.46,345.399z"/>
	<path d="M281.4,336.693c-17.277,2.682-34.86,2.732-52.152,0.149c-0.212,2.867-0.319,5.733-0.319,8.494   c-0.07,28.377,9.206,55.988,26.395,78.568c17.191-22.578,26.467-50.19,26.395-78.568   C281.718,342.533,281.612,339.602,281.4,336.693z"/>
	<path d="M198.075,283.31c6.368-16.582,15.257-32.081,26.352-45.952c-26.437-18.05-58.584-25.759-90.332-21.659   C146.427,245.307,169.192,269.364,198.075,283.31z"/>
	<path d="M286.199,237.358c11.022,13.762,19.86,29.139,26.203,45.591c28.473-14.055,50.887-37.955,63.088-67.271   C344.079,211.786,312.328,219.495,286.199,237.358z"/>
</g>
</svg>
