<?xml version="1.0" encoding="UTF-8"?>
<!-- Generator: Adobe Illustrator 25.0.0, SVG Export Plug-In . SVG Version: 6.00 Build 0)  -->
<svg xmlns="http://www.w3.org/2000/svg" xmlns:xlink="http://www.w3.org/1999/xlink" version="1.1" id="Capa_1" x="0px" y="0px" viewBox="0 0 512.001 512.001" style="enable-background:new 0 0 512.001 512.001;" xml:space="preserve" width="512" height="512">
<g>
	<path d="M405.333,0H106.667C47.786,0.071,0.071,47.786,0,106.667v298.667C0.071,464.214,47.786,511.93,106.667,512h224.32   c3.477,0,6.912-0.277,10.347-0.512V405.333c0-35.346,28.654-64,64-64h106.155c0.235-3.435,0.512-6.869,0.512-10.347v-224.32   C511.93,47.786,464.214,0.071,405.333,0z M145.067,153.067c7.364,0,13.333,5.97,13.333,13.333c0,7.364-5.97,13.333-13.333,13.333   h-30.059v28.949h33.515c7.364,0,13.333,5.97,13.333,13.333c0,7.364-5.97,13.333-13.333,13.333H101.59   c-7.364,0-13.333-5.97-13.333-13.333V110.784c0-7.364,5.97-13.333,13.333-13.333h46.933c7.364,0,13.333,5.97,13.333,13.333   s-5.97,13.333-13.333,13.333h-33.515v28.949h30.059V153.067z M202.155,96.939h31.232c24.86,0,45.013,20.153,45.013,45.013   s-20.153,45.013-45.013,45.013h-0.021h-17.899v35.477c0,7.364-5.97,13.333-13.333,13.333s-13.333-5.97-13.333-13.333v-112.17   c0.039-0.99,0.33-5.699,4.227-9.459C196.707,97.264,201.094,96.978,202.155,96.939z M391.808,200.533   c-4.945,21.475-24.536,36.343-46.549,35.328c-18.564,0.114-36.339-7.499-49.067-21.013c-4.949-5.453-4.539-13.885,0.914-18.834   c0.001-0.001,0.002-0.002,0.004-0.003c4.452-4.187,11.242-4.642,16.213-1.088c0.341,0.235,2.133,1.643,2.709,2.133   c5.316,4.647,11.451,8.264,18.091,10.667c6.854,2.025,14.183,1.748,20.864-0.789c4.369-1.259,7.96-4.382,9.813-8.533   c1.384-4.39,0.142-9.186-3.2-12.352c-2.963-2.681-6.471-4.689-10.283-5.888c-8.853-3.243-17.557-6.72-26.283-10.304   c-8.337-2.896-15.524-8.392-20.501-15.68c-4.411-6.976-6.182-15.299-4.992-23.467c0.652-4.541,2.15-8.918,4.416-12.907   c4.832-8.407,12.643-14.696,21.888-17.621c17.502-4.651,36.138-2.108,51.755,7.061c3.484,1.755,6.47,4.36,8.683,7.573   c3.326,4.8,3.047,11.229-0.683,15.723c-5.077,5.973-12.459,4.267-18.752,1.579c-5.69-2.537-11.524-4.738-17.472-6.592   c-4.138-1.526-8.548-2.173-12.949-1.899c-4.477,0.334-8.452,2.989-10.475,6.997c-1.591,4.651-0.324,9.802,3.243,13.184   c3.565,3.244,7.946,5.456,12.672,6.4c5.952,1.557,11.989,2.645,17.813,4.629c7.113,2.392,13.682,6.17,19.328,11.115   C389.006,174.463,393.855,187.564,391.808,200.533L391.808,200.533z"/>
	<path d="M405.333,384C393.551,384,384,393.551,384,405.333v96.853c19.734-7.452,37.66-19.015,52.587-33.92l31.659-31.68   c14.923-14.917,26.494-32.844,33.941-52.587h-96.854V384z"/>
	<path d="M233.365,123.605h-17.899v36.779h17.749c10.133,0.005,18.351-8.205,18.356-18.338s-8.205-18.351-18.338-18.356   c-0.006,0-0.012,0-0.018,0L233.365,123.605z"/>
</g>















</svg>
