<?xml version="1.0" encoding="UTF-8"?>
<svg xmlns="http://www.w3.org/2000/svg" id="Filled" viewBox="0 0 24 24" width="512" height="512"><path d="M22.485,10.975,12,17.267,1.515,10.975A1,1,0,1,0,.486,12.69l11,6.6a1,1,0,0,0,1.03,0l11-6.6a1,1,0,1,0-1.029-1.715Z"/><path d="M22.485,15.543,12,21.834,1.515,15.543A1,1,0,1,0,.486,17.258l11,6.6a1,1,0,0,0,1.03,0l11-6.6a1,1,0,1,0-1.029-1.715Z"/><path d="M.485,8.357l9.984,5.991a2.97,2.97,0,0,0,3.062,0l9.984-5.991a1,1,0,0,0,0-1.714L13.531.652a2.973,2.973,0,0,0-3.062,0L.485,6.643a1,1,0,0,0,0,1.714Z"/></svg>
