<?xml version="1.0" encoding="UTF-8"?>
<!-- Generator: Adobe Illustrator 25.0.0, SVG Export Plug-In . SVG Version: 6.00 Build 0)  -->
<svg xmlns="http://www.w3.org/2000/svg" xmlns:xlink="http://www.w3.org/1999/xlink" version="1.1" id="Capa_1" x="0px" y="0px" viewBox="0 0 512.629 512.629" style="enable-background:new 0 0 512.629 512.629;" xml:space="preserve" width="512" height="512">
<g>
	<path d="M0.006,256.014c-0.218,54.774,44.009,99.354,98.784,99.572c25.226,0.1,49.543-9.416,68-26.612l147.797,66.731   c-1.027,5.526-1.59,11.127-1.685,16.747c-0.174,55.152,44.393,100.002,99.545,100.177s100.002-44.393,100.177-99.545   s-44.393-100.002-99.545-100.177c-32.951-0.104-63.832,16.053-82.534,43.182L191.686,293.39   c9.863-23.816,9.901-50.567,0.107-74.411l138.667-63.019c31.225,45.161,93.148,56.457,138.309,25.232S525.225,88.045,494,42.884   s-93.148-56.457-138.309-25.232c-26.895,18.596-42.926,49.227-42.875,81.925c0.09,5.628,0.661,11.237,1.707,16.768L167.11,183.331   c-39.939-37.503-102.718-35.528-140.221,4.411C9.532,206.228-0.088,230.657,0.006,256.014z"/>
</g>















</svg>
