<svg id="Layer_1" height="512" viewBox="0 0 24 24" width="512" xmlns="http://www.w3.org/2000/svg" data-name="Layer 1"><path d="m19 24h-1a1 1 0 0 1 0-2h1a3 3 0 0 0 3-3v-1a1 1 0 0 1 2 0v1a5.006 5.006 0 0 1 -5 5zm5-18v-1a5.006 5.006 0 0 0 -5-5h-1a1 1 0 0 0 0 2h1a3 3 0 0 1 3 3v1a1 1 0 0 0 2 0zm-17 17a1 1 0 0 0 -1-1h-1a3 3 0 0 1 -3-3v-1a1 1 0 0 0 -2 0v1a5.006 5.006 0 0 0 5 5h1a1 1 0 0 0 1-1zm-5-17v-1a3 3 0 0 1 3-3h1a1 1 0 0 0 0-2h-1a5.006 5.006 0 0 0 -5 5v1a1 1 0 0 0 2 0zm14 6a4 4 0 1 0 -4 4 4 4 0 0 0 4-4z"/></svg>