<svg id="Layer_1" height="512" viewBox="0 0 24 24" width="512" xmlns="http://www.w3.org/2000/svg" data-name="Layer 1"><path d="m12.949.051v4.013a8 8 0 1 0 0 15.872v4.013a11.99 11.99 0 0 0 0-23.9zm0 13.672v3.277h-2v-3.277a1.984 1.984 0 0 1 0-3.446v-4.277h2v4.277a1.984 1.984 0 0 1 0 3.446zm-11.59-7.363a12.09 12.09 0 0 1 1.325-1.986l1.516 1.307a10.1 10.1 0 0 0 -1.06 1.583zm1.009 2.786a9.99 9.99 0 0 0 -.368 1.944l-1.99-.2a11.932 11.932 0 0 1 .448-2.338zm4.919-5.989a10.018 10.018 0 0 0 -1.646 1.087l-1.241-1.563a12.013 12.013 0 0 1 1.944-1.288zm3.757-1.111a9.933 9.933 0 0 0 -1.93.368l-.567-1.914a11.9 11.9 0 0 1 2.316-.445zm-7.9 14.69a10.1 10.1 0 0 0 1.056 1.583l-1.516 1.307a12.09 12.09 0 0 1 -1.325-1.986zm-2.686-1.288a11.932 11.932 0 0 1 -.453-2.343l1.995-.195a9.99 9.99 0 0 0 .373 1.944zm5.886 7.159a12.013 12.013 0 0 1 -1.944-1.288l1.245-1.563a10.018 10.018 0 0 0 1.646 1.087zm4.519 1.338a11.9 11.9 0 0 1 -2.316-.445l.567-1.917a9.933 9.933 0 0 0 1.93.368z"/></svg>