<svg id="Layer_1" height="512" viewBox="0 0 24 24" width="512" xmlns="http://www.w3.org/2000/svg" data-name="Layer 1"><path d="m23.992 12.16a11.9 11.9 0 0 1 -1.2 5.048.959.959 0 0 0 -.219.023 18.977 18.977 0 0 1 -5.6.769 19.1 19.1 0 0 1 -6.029-.8 1.478 1.478 0 0 1 -.619-2.394 11.959 11.959 0 0 1 1.078-1.057 1.462 1.462 0 0 1 1.422-.233 12.57 12.57 0 0 0 3.965.646 14.493 14.493 0 0 0 7.202-2.002zm-8.744-.136a1.488 1.488 0 0 0 1.717-1.635 17.118 17.118 0 0 0 -4.859-9.995.981.981 0 0 1 -.22-.388 11.908 11.908 0 0 0 -4.6.961 13.914 13.914 0 0 1 5.5 9.542 1.483 1.483 0 0 0 1.094 1.226 10.588 10.588 0 0 0 1.368.289zm5.674-.643a13.621 13.621 0 0 0 2.884-1.468 12.018 12.018 0 0 0 -9.114-9.6 19 19 0 0 1 4.255 9.864 1.474 1.474 0 0 0 1.975 1.204zm-4.122 8.619a20.992 20.992 0 0 1 -7.241-1.161 1.44 1.44 0 0 0 -1.884.975 11.823 11.823 0 0 0 -.359 3.231 11.984 11.984 0 0 0 13.936-3.407 21.072 21.072 0 0 1 -4.452.362zm-6-9.169a11.779 11.779 0 0 0 -.323-1.748 1.466 1.466 0 0 0 -2.368-.724 19.134 19.134 0 0 0 -5.9 9.583 6.65 6.65 0 0 0 -.093.842 12.08 12.08 0 0 0 3.2 3.171 13.914 13.914 0 0 1 4.939-9.868 1.458 1.458 0 0 0 .545-1.256zm-3.033-6.722a11.759 11.759 0 0 0 -2.467-2.061 11.937 11.937 0 0 0 -4.6 13.971 21.14 21.14 0 0 1 6.876-9.825 1.442 1.442 0 0 0 .191-2.085z"/></svg>