<?xml version="1.0" encoding="UTF-8"?>
<!-- Generator: Adobe Illustrator 25.0.0, SVG Export Plug-In . SVG Version: 6.00 Build 0)  -->
<svg xmlns="http://www.w3.org/2000/svg" xmlns:xlink="http://www.w3.org/1999/xlink" version="1.1" id="Filled" x="0px" y="0px" viewBox="0 0 512 512" style="enable-background:new 0 0 512 512;" xml:space="preserve" width="512" height="512">
<g>
	<path d="M304.661,287.061L499.605,92.117c16.2-16.175,18.966-47.974-9.067-65.344c-23.989-11.806-42.541-1.743-51.179,8.341   L252.309,242.283C274.227,251.016,292.636,266.762,304.661,287.061z"/>
	<path d="M106.667,405.333h106.667c35.346,0,64-28.654,64-64s-28.654-64-64-64C128,277.333,106.667,405.333,106.667,405.333z"/>
	<path d="M341.333,405.333c0-35.346,28.654-64,64-64H512v-201.28L319.147,332.907c0.235,2.837,0.853,5.547,0.853,8.427   C319.929,400.214,272.214,447.93,213.333,448H106.667c-23.564,0.003-42.669-19.097-42.672-42.661c0-2.353,0.194-4.703,0.581-7.024   c9.685-58.069,49.237-154.325,136.384-162.816L407.573,6.677c2.03-2.045,4.166-3.982,6.4-5.803C411.072,0.64,408.299,0,405.333,0   H106.667C47.786,0.071,0.071,47.786,0,106.667v298.667C0.071,464.214,47.786,511.93,106.667,512h234.667V405.333z"/>
	<path d="M405.333,384C393.551,384,384,393.551,384,405.333V505.6c15.051-5.162,28.744-13.65,40.064-24.832l56.704-56.704   c11.182-11.32,19.67-25.013,24.832-40.064H405.333z"/>
</g>
</svg>
