<?xml version="1.0" encoding="UTF-8"?>
<svg xmlns="http://www.w3.org/2000/svg" id="Layer_1" data-name="Layer 1" viewBox="0 0 24 24" width="512" height="512"><path d="M14,7A7,7,0,0,0,0,7c0,3.971,2.257,8.485,5.39,9.685A2.822,2.822,0,0,0,5,17.87c0,1.571,1.489,2.267,2.576,2.776.6.28,1.424.665,1.424.963a2.291,2.291,0,0,1-.428.851,1,1,0,0,0,1.684,1.08A3.745,3.745,0,0,0,11,21.609c0-1.571-1.489-2.267-2.576-2.775-.6-.281-1.424-.666-1.433-.865a5.379,5.379,0,0,1,.568-1.016C11.227,16.475,14,11.4,14,7ZM9.176,10.47A5.723,5.723,0,0,0,10,8a1,1,0,0,1,2,0,7.662,7.662,0,0,1-1.129,3.53,1,1,0,1,1-1.7-1.06ZM19.5,18.589c-.682-.362-1.386-.737-1.484-1.162-.046-.193-.025-.628.515-1.473C21.7,15.5,24,11.025,24,7a5.8,5.8,0,0,0-6-6,6.151,6.151,0,0,0-3.5,1.036A8.942,8.942,0,0,1,16,7a15.088,15.088,0,0,1-1.784,6.812,5.928,5.928,0,0,0,2.2,1.84,3.381,3.381,0,0,0-.352,2.229c.306,1.31,1.519,1.955,2.494,2.474.616.328,1.313.7,1.419,1.068a1.627,1.627,0,0,1-.315,1.078,1,1,0,1,0,1.732,1,3.329,3.329,0,0,0,.506-2.627A4.166,4.166,0,0,0,19.5,18.589Zm-.325-8.119A5.723,5.723,0,0,0,20,8a1,1,0,0,1,2,0,7.662,7.662,0,0,1-1.129,3.53,1,1,0,1,1-1.7-1.06Z"/></svg>
