<svg id="Layer_1" height="512" viewBox="0 0 24 24" width="512" xmlns="http://www.w3.org/2000/svg" data-name="Layer 1"><path d="m2.363 4.88 1.352 4.375-3.708 2.613a11.915 11.915 0 0 1 2.356-6.988zm4.51 14.12-4.611-.011a12.027 12.027 0 0 0 6.024 4.416zm5.127-15.748 3.676-2.671a11.92 11.92 0 0 0 -7.352 0zm9.628 1.616-1.356 4.387 3.722 2.622a11.923 11.923 0 0 0 -2.366-7.009zm-4.513 14.132-1.415 4.41a12.034 12.034 0 0 0 6.039-4.425zm-3.674 4.909a12.038 12.038 0 0 1 -1.441.091 12.034 12.034 0 0 1 -1.454-.1l-2.213-6.9-7.233-.018a11.88 11.88 0 0 1 -.89-2.808l5.848-4.121-2.133-6.9a12.025 12.025 0 0 1 2.269-1.647l5.806 4.218 5.806-4.218a12.032 12.032 0 0 1 2.262 1.637l-2.135 6.91 5.859 4.129a11.923 11.923 0 0 1 -.889 2.8l-7.248.018zm-5.092-6.909h7.3l2.256-6.944-5.905-4.292-5.907 4.292zm.1-6.181 1.351 4.181h4.4l1.358-4.181-3.558-2.583z"/></svg>