<svg id="Layer_1" height="512" viewBox="0 0 24 24" width="512" xmlns="http://www.w3.org/2000/svg" data-name="Layer 1"><path d="m19 3.022c0-.008 0-.014 0-.022v-2a1 1 0 0 0 -2 0v1.1a5 5 0 0 0 -1-.1h-1v-1a1 1 0 0 0 -2 0v1h-2v-1a1 1 0 0 0 -2 0v1h-1a5 5 0 0 0 -1 .1v-1.1a1 1 0 0 0 -2 0v2 .022a4.979 4.979 0 0 0 -2 3.978v12a5.006 5.006 0 0 0 5 5h8a5.006 5.006 0 0 0 5-5v-12a4.979 4.979 0 0 0 -2-3.978zm-7 13.978h-4a1 1 0 0 1 0-2h4a1 1 0 0 1 0 2zm4-4h-8a1 1 0 0 1 0-2h8a1 1 0 0 1 0 2zm0-4h-8a1 1 0 0 1 0-2h8a1 1 0 0 1 0 2z"/></svg>