<?xml version="1.0" encoding="UTF-8"?>
<!-- Generator: Adobe Illustrator 25.0.0, SVG Export Plug-In . SVG Version: 6.00 Build 0)  -->
<svg xmlns="http://www.w3.org/2000/svg" xmlns:xlink="http://www.w3.org/1999/xlink" version="1.1" id="Capa_1" x="0px" y="0px" viewBox="0 0 512 512" style="enable-background:new 0 0 512 512;" xml:space="preserve" width="512" height="512">
<g>
	<path d="M256,448c-82.436-0.094-149.239-66.898-149.333-149.333v-192c0-4.267,0.277-8.533,0.64-12.629   C68.139,110.864,42.731,149.371,42.667,192v213.333C42.737,464.214,90.452,511.93,149.333,512h128   c42.629-0.064,81.136-25.473,97.963-64.64c-4.267,0.363-8.363,0.64-12.629,0.64H256z"/>
	<path d="M451.307,69.803l-48.725-50.325C397.217,14.045,390.924,9.616,384,6.4v78.933h78.08   C459.281,79.65,455.65,74.415,451.307,69.803z"/>
	<path d="M362.667,85.333c0,11.782,9.551,21.333,21.333,21.333h84.608c-1.571-13.852-7.65-26.805-17.301-36.864l-48.725-50.325   c-10.659-10.804-24.8-17.485-39.915-18.859V85.333z"/>
	<path d="M320,85.333V0h-64c-58.881,0.071-106.596,47.786-106.667,106.667v192c0.071,58.881,47.786,106.596,106.667,106.667h106.667   c58.881-0.071,106.596-47.786,106.667-106.667V149.333H384C348.654,149.333,320,120.68,320,85.333z"/>
</g>















</svg>
