<?xml version="1.0" encoding="UTF-8"?>
<svg xmlns="http://www.w3.org/2000/svg" id="Layer_1" data-name="Layer 1" viewBox="0 0 24 24" width="512" height="512"><path d="M18.92,13a6.966,6.966,0,0,1-.43,1.612l4.385,2.553-1,1.729-4.388-2.555a6.994,6.994,0,0,1-1.122,1.127l2.558,4.4L17.19,22.871,14.637,18.48A6.914,6.914,0,0,1,13,18.92V24H11V18.92a6.89,6.89,0,0,1-1.623-.435l-2.55,4.386L5.1,21.865l2.553-4.39a7,7,0,0,1-1.128-1.129L2.147,18.894,1.141,17.165l4.372-2.546A6.952,6.952,0,0,1,5.08,13H0V11H5.08a6.972,6.972,0,0,1,.436-1.627L1.134,6.822,2.14,5.094,6.527,7.648a7.028,7.028,0,0,1,1.147-1.14L5.126,2.127,6.854,1.121,9.4,5.505A6.914,6.914,0,0,1,11,5.08V0h2V5.08a6.95,6.95,0,0,1,1.61.43l2.552-4.389L18.89,2.127l-2.552,4.39a7.087,7.087,0,0,1,1.14,1.137l4.4-2.56,1.006,1.728-4.4,2.559A6.952,6.952,0,0,1,18.92,11H24v2Z"/></svg>
