<?xml version="1.0" encoding="UTF-8"?>
<!-- Generator: Adobe Illustrator 25.0.0, SVG Export Plug-In . SVG Version: 6.00 Build 0)  -->
<svg xmlns="http://www.w3.org/2000/svg" xmlns:xlink="http://www.w3.org/1999/xlink" version="1.1" id="Capa_1" x="0px" y="0px" viewBox="0 0 512.001 512.001" style="enable-background:new 0 0 512.001 512.001;" xml:space="preserve" width="512" height="512">
<g>
	<path d="M132.373,123.605h-17.877l0.128,36.779h17.749c10.133,0.005,18.351-8.205,18.356-18.338s-8.205-18.351-18.338-18.356   c-0.006,0-0.012,0-0.018,0V123.605z"/>
	<path d="M363.051,125.269H345.6v82.197c6.528,0,13.845,0,18.005-0.192c20.715-0.341,29.973-20.779,29.973-40.875   S385.643,125.269,363.051,125.269z"/>
	<path d="M384,405.333v96.853c19.734-7.452,37.66-19.015,52.587-33.92l31.659-31.68c14.923-14.917,26.494-32.844,33.941-52.587   h-96.853C393.551,384,384,393.551,384,405.333z"/>
	<path d="M405.333,0H106.667C47.786,0.071,0.071,47.786,0,106.667v298.667C0.071,464.214,47.786,511.93,106.667,512h224.32   c3.477,0,6.912-0.277,10.347-0.512V405.333c0-35.346,28.654-64,64-64h106.155c0.235-3.435,0.512-6.869,0.512-10.347v-224.32   C511.93,47.786,464.214,0.071,405.333,0z M100.992,96.939h31.381c24.86,0,45.013,20.153,45.013,45.013   s-20.153,45.013-45.013,45.013h-17.92v35.477c0,7.364-5.97,13.333-13.333,13.333s-13.333-5.97-13.333-13.333v-112.17   c-0.039-0.769-0.207-5.839,3.818-9.756C95.433,96.791,100.184,96.906,100.992,96.939z M290.795,200.533   c-4.945,21.475-24.536,36.343-46.549,35.328c-18.564,0.114-36.339-7.499-49.067-21.013c-4.902-5.495-4.421-13.924,1.075-18.826   c0.004-0.004,0.009-0.008,0.013-0.012c4.452-4.187,11.242-4.642,16.213-1.088c0.341,0.235,2.133,1.643,2.709,2.133   c5.316,4.647,11.451,8.264,18.091,10.667c6.823,2.02,14.118,1.757,20.779-0.747c4.379-1.313,7.95-4.501,9.749-8.704   c1.379-4.387,0.146-9.176-3.179-12.352c-2.97-2.672-6.475-4.679-10.283-5.888c-8.853-3.243-17.579-6.72-26.304-10.304   c-8.337-2.896-15.524-8.392-20.501-15.68c-4.411-6.976-6.182-15.299-4.992-23.467c0.652-4.541,2.15-8.919,4.416-12.907   c4.832-8.407,12.643-14.696,21.888-17.621c17.502-4.653,36.139-2.11,51.755,7.061c3.488,1.75,6.475,4.356,8.683,7.573   c3.341,4.796,3.061,11.234-0.683,15.723c-5.056,5.973-12.459,4.267-18.731,1.579c-5.699-2.533-11.54-4.734-17.493-6.592   c-4.138-1.526-8.548-2.173-12.949-1.899c-4.469,0.341-8.434,2.996-10.453,6.997c-1.607,4.646-0.347,9.803,3.221,13.184   c3.565,3.244,7.946,5.456,12.672,6.4c5.952,1.557,11.989,2.645,17.813,4.629c7.113,2.392,13.682,6.17,19.328,11.115   C288.049,174.365,292.894,187.525,290.795,200.533L290.795,200.533z M364.16,233.941c-8.832,0.171-31.701,0.256-31.701,0.256l0,0   c-7.347,0-13.31-5.944-13.333-13.291l-0.235-108.927c0-7.371,5.963-13.352,13.333-13.376h30.869   c34.219,0,57.173,27.264,57.173,67.797C420.267,204.971,396.8,233.387,364.16,233.941z"/>
</g>















</svg>
