<?xml version="1.0" encoding="UTF-8"?>
<!-- Generator: Adobe Illustrator 25.0.0, SVG Export Plug-In . SVG Version: 6.00 Build 0)  -->
<svg xmlns="http://www.w3.org/2000/svg" xmlns:xlink="http://www.w3.org/1999/xlink" version="1.1" id="Layer_1" x="0px" y="0px" viewBox="0 0 512 512" style="enable-background:new 0 0 512 512;" xml:space="preserve" width="512" height="512">
<path d="M384.052,43.465v85.001h-42.5V73.513l-72.251,72.251c49.473,65.998,36.076,159.605-29.921,209.077  S79.775,390.917,30.303,324.919S-5.774,165.315,60.224,115.842c53.026-39.749,125.905-39.801,178.987-0.127l72.251-72.251h-54.91  v-42.5h85.001C365.024,0.965,384.052,19.993,384.052,43.465z M469.053,128.466h-85.001v42.5h54.953l-72.527,72.527  c-7.877-6.047-16.342-11.286-25.266-15.64c0,2.295,0.34,4.548,0.34,6.864c-0.117,105.577-85.675,191.134-191.252,191.252  c-2.316,0-4.569-0.276-6.864-0.34c34.933,74.278,123.466,106.174,197.744,71.241c52.161-24.531,85.433-77.01,85.372-134.651  c-0.064-32.05-10.592-63.202-29.984-88.72l72.484-72.484v54.953h42.5v-85.001C511.553,147.494,492.525,128.466,469.053,128.466z"/>
</svg>
