<?xml version="1.0" encoding="UTF-8"?>
<svg xmlns="http://www.w3.org/2000/svg" id="Layer_1" data-name="Layer 1" viewBox="0 0 24 24" width="512" height="512"><path d="M7.39,3.068a5.023,5.023,0,0,1,9.22,0A6.5,6.5,0,0,0,12,6.051,6.515,6.515,0,0,0,7.39,3.068ZM11,9.5c-.246-6.289-9.467-5.743-8.965.524a53.989,53.989,0,0,0,8.706.937A4.427,4.427,0,0,0,11,9.5ZM17.5,5a4.5,4.5,0,0,0-4.24,5.964,52.563,52.563,0,0,0,8.705-.934A4.506,4.506,0,0,0,17.5,5ZM2.736,12.19c.014.029,6.283,10.143,6.283,10.143a3.521,3.521,0,0,0,5.96,0S21.248,12.224,21.261,12.2A54.989,54.989,0,0,1,12,13,55.474,55.474,0,0,1,2.736,12.19Z"/></svg>
