<?xml version="1.0" encoding="UTF-8"?>
<svg xmlns="http://www.w3.org/2000/svg" id="Layer_1" data-name="Layer 1" viewBox="0 0 24 24" width="512" height="512"><path d="M24,23.01A.991.991,0,0,1,23,24H1a1,1,0,1,1,0-1.99H2L2,22V19.625A4.359,4.359,0,0,0,3.75,20,4.194,4.194,0,0,0,6.5,19a4.309,4.309,0,0,0,5.5.015A4.309,4.309,0,0,0,17.5,19a4.194,4.194,0,0,0,2.75,1A4.359,4.359,0,0,0,22,19.625V22l0,.01h1A1,1,0,0,1,24,23.01ZM9,2A1,1,0,1,0,8,1,1,1,0,0,0,9,2Zm6,0a1,1,0,1,0-1-1A1,1,0,0,0,15,2ZM3.75,18c1.068,0,1.75-.657,1.75-1a1,1,0,0,1,2,0c0,.306.661,1,1.75,1,1.068,0,1.75-.657,1.75-1a1,1,0,0,1,2,0c0,.306.661,1,1.75,1,1.068,0,1.75-.657,1.75-1a1,1,0,0,1,2,0c0,.306.661,1,1.75,1S22,17.306,22,17a5.006,5.006,0,0,0-5-5H7a5.006,5.006,0,0,0-5,5C2,17.306,2.661,18,3.75,18ZM17,10a6.956,6.956,0,0,1,2,.295V10a2.991,2.991,0,0,0-2.179-2.872L16.161,3.8A1,1,0,0,0,15.18,3h-.36a1,1,0,0,0-.981.8L13.2,7H10.25L11,4a1,1,0,0,0-1-1H8A1,1,0,0,0,7,4l.756,3.025A2.99,2.99,0,0,0,5,10V10.3A6.956,6.956,0,0,1,7,10Z"/></svg>
