<?xml version="1.0" encoding="UTF-8"?>
<svg xmlns="http://www.w3.org/2000/svg" id="Layer_1" data-name="Layer 1" viewBox="0 0 24 24" width="512" height="512"><path d="M15.57,2H8.43a3.993,3.993,0,0,1,3.453-2h.234A3.993,3.993,0,0,1,15.57,2ZM20.5,14H20v2a1,1,0,0,1-2,0V14H6v2a1,1,0,0,1-2,0V14H3.5A3.492,3.492,0,0,0,3,20.949V22a2,2,0,0,0,4,0V21H17v1a2,2,0,0,0,4,0V20.951a3.458,3.458,0,0,0,3-3.421V17.5A3.5,3.5,0,0,0,20.5,14ZM1.628,12.491A5.96,5.96,0,0,1,4,12H20a5.96,5.96,0,0,1,2.372.491L20.828,7.519A4.974,4.974,0,0,0,16.053,4H7.947A4.974,4.974,0,0,0,3.172,7.518Z"/></svg>
