<?xml version="1.0" encoding="UTF-8"?>
<svg xmlns="http://www.w3.org/2000/svg" id="Layer_1" data-name="Layer 1" viewBox="0 0 24 24" width="512" height="512"><path d="M11,9.167S6,5.63,6,2.75A2.634,2.634,0,0,1,8.5,0,2.634,2.634,0,0,1,11,2.75,2.634,2.634,0,0,1,13.5,0,2.634,2.634,0,0,1,16,2.75C16,5.63,11,9.167,11,9.167Zm12.148-.486a2.606,2.606,0,0,0-3.671.157l-3.542,3.737a4.081,4.081,0,0,1,.065.638,4.234,4.234,0,0,1-3.617,4.171l-4.241.606-.284-1.98L12.1,15.4a2.213,2.213,0,0,0-.313-4.4H3a3,3,0,0,0-3,3v7a3,3,0,0,0,3,3h9.664L23.338,12.345A2.616,2.616,0,0,0,23.148,8.681Z"/></svg>
