<?xml version="1.0" encoding="UTF-8"?>
<svg xmlns="http://www.w3.org/2000/svg" id="Layer_1" data-name="Layer 1" viewBox="0 0 24 24" width="512" height="512"><path d="M10,2a2,2,0,0,1,4,0A2,2,0,0,1,10,2Zm12.613.506A3,3,0,0,0,18.84,1.259,19.479,19.479,0,0,0,13,5.518v8.775A10.944,10.944,0,0,0,17,15a6.972,6.972,0,0,0,6.993-6.678A12.267,12.267,0,0,0,22.613,2.506Zm-.342,12.755A8.9,8.9,0,0,1,17,17a12.785,12.785,0,0,1-5-.96A12.785,12.785,0,0,1,7,17a8.9,8.9,0,0,1-5.271-1.739c-1.915,3.087.52,7.5,1.337,8.235l.4.459.592-.148A15.32,15.32,0,0,0,11,19.647V22h2V19.647a15.32,15.32,0,0,0,6.939,4.16l.592.148.4-.459C21.763,22.751,24.18,18.323,22.271,15.261ZM7.206,15A9.811,9.811,0,0,0,11,14.293V5.518A19.479,19.479,0,0,0,5.16,1.259,3,3,0,0,0,1.386,2.506,12.279,12.279,0,0,0,.007,8.322,7.071,7.071,0,0,0,7.206,15Z"/></svg>
