<svg id="Layer_1" height="512" viewBox="0 0 24 24" width="512" xmlns="http://www.w3.org/2000/svg" data-name="Layer 1"><path d="m13 22h-7.317a5.844 5.844 0 0 1 -5.626-4.7 5.446 5.446 0 0 1 2.885-5.651 7.652 7.652 0 0 1 -.8-5.18 8 8 0 0 1 15.49-.841 1.085 1.085 0 0 0 .721.732 8.024 8.024 0 0 1 2.98 1.674c-.11-.008-.218-.034-.333-.034a5.009 5.009 0 0 0 -4.92 4.105l-.847.424a4.953 4.953 0 0 0 -2.233-.529 5 5 0 0 0 0 10zm8-6a3 3 0 1 0 -3-3 2.9 2.9 0 0 0 .037.363l-2.96 1.481a3 3 0 1 0 0 4.312l2.96 1.481a2.9 2.9 0 0 0 -.037.363 3.015 3.015 0 1 0 .923-2.156l-2.96-1.481a2.9 2.9 0 0 0 .037-.363 2.9 2.9 0 0 0 -.037-.363l2.96-1.481a2.986 2.986 0 0 0 2.077.844z"/></svg>