<?xml version="1.0" encoding="UTF-8"?>
<svg xmlns="http://www.w3.org/2000/svg" id="Layer_1" data-name="Layer 1" viewBox="0 0 24 24" width="512" height="512"><path d="M6,9h4A2,2,0,0,0,6,9Z"/><path d="M8,5a3.971,3.971,0,0,1,1.339.247l1.954-1.954a1,1,0,1,1,1.414,1.414L11.014,6.4A3.963,3.963,0,0,1,12,9h4V5a5.006,5.006,0,0,0-5-5H5A5.006,5.006,0,0,0,0,5V9H4A4,4,0,0,1,8,5Z"/><path d="M23.681,3.267a1,1,0,0,0-1.414,0L19.293,6.24A1,1,0,0,0,19,6.947V18a1,1,0,0,1-1,1H16V11H0v8a5.006,5.006,0,0,0,5,5h6a5,5,0,0,0,4.576-3H18a3,3,0,0,0,3-3V7.361l2.681-2.68A1,1,0,0,0,23.681,3.267Z"/></svg>
