<?xml version="1.0" encoding="UTF-8"?>
<svg xmlns="http://www.w3.org/2000/svg" id="Layer_1" data-name="Layer 1" viewBox="0 0 24 24" width="512" height="512"><path d="M9,0h6a1,1,0,0,1,1,1h0a1,1,0,0,1-1,1H13V4.056a9.948,9.948,0,0,1,2,.405v4.69C14.017,9.053,13.008,9,12,9s-2.017.053-3,.151V4.461a9.948,9.948,0,0,1,2-.405V2H9A1,1,0,0,1,8,1H8A1,1,0,0,1,9,0ZM2,14c0,.82,1.879,1.927,5,2.541V11.459C3.879,12.073,2,13.18,2,14ZM17,5.353V9.425a15.949,15.949,0,0,1,4.473,1.4A10.033,10.033,0,0,0,17,5.353ZM9,11.16v5.68A27.78,27.78,0,0,0,12,17a27.78,27.78,0,0,0,3-.16V11.16a28.2,28.2,0,0,0-6,0Zm8,.3v5.082c3.121-.614,5-1.721,5-2.541S20.121,12.073,17,11.459Zm-8,7.39v4.69a9.992,9.992,0,0,0,6,0v-4.69c-.983.1-1.992.151-3,.151S9.983,18.947,9,18.849Zm8,3.8a10.033,10.033,0,0,0,4.473-5.468A15.949,15.949,0,0,1,17,18.575Zm-10,0V18.575a15.949,15.949,0,0,1-4.473-1.4A10.033,10.033,0,0,0,7,22.647ZM2.527,10.821A15.949,15.949,0,0,1,7,9.425V5.353A10.033,10.033,0,0,0,2.527,10.821Z"/></svg>
