<?xml version="1.0" encoding="UTF-8"?>
<svg xmlns="http://www.w3.org/2000/svg" id="Layer_1" data-name="Layer 1" viewBox="0 0 24 24" width="512" height="512"><path d="M12,10A19.523,19.523,0,0,1,4.05,8.483C4.52.12,8.807,0,9,0c.15,0,1.436.1,3,2.513C13.513.128,14.85,0,15,0c.193,0,4.481.12,4.95,8.483A19.52,19.52,0,0,1,12,10Zm10.079-.334A20.355,20.355,0,0,1,12,12,20.344,20.344,0,0,1,1.921,9.666C.654,10.3,0,11.075,0,12c0,3.157,7.543,4,12,4s12-.843,12-4C24,11.075,23.346,10.3,22.079,9.666ZM16.5,17a3.5,3.5,0,0,0-3.235,2.174,4.685,4.685,0,0,0-2.53,0,3.494,3.494,0,1,0,.193,2.033A3.52,3.52,0,0,1,12,21a3.514,3.514,0,0,1,1.072.207A3.5,3.5,0,1,0,16.5,17Z"/></svg>
