<svg id="Layer_1" height="512" viewBox="0 0 24 24" width="512" xmlns="http://www.w3.org/2000/svg" data-name="Layer 1"><path d="m23 16a1 1 0 0 1 -.446-.105l-2-1a1 1 0 0 1 .894-1.79l2 1a1 1 0 0 1 -.448 1.895zm-1.553-9.1 2-1a1 1 0 1 0 -.894-1.79l-2 1a1 1 0 0 0 .894 1.79zm2.553 3.1a1 1 0 0 0 -1-1h-2a1 1 0 0 0 0 2h2a1 1 0 0 0 1-1zm-6 9v-18a1 1 0 0 0 -2 0c0 2.949-2.583 4-5 4h-7a4 4 0 0 0 -4 4v2a4 4 0 0 0 4 4h7c2.417 0 5 1.051 5 4a1 1 0 0 0 2 0zm-9.814-2h-4.186a6 6 0 0 1 -1.382-.167l2.5 5.582a2.671 2.671 0 0 0 2.44 1.585 2.462 2.462 0 0 0 2.242-3.472z"/></svg>