<?xml version="1.0" encoding="UTF-8"?>
<svg xmlns="http://www.w3.org/2000/svg" id="Layer_1" data-name="Layer 1" viewBox="0 0 24 24" width="512" height="512"><path d="M23.3,22.571l-4.458,1.384a1,1,0,0,1-.594-1.91l1.244-.386-.918-2.7a4.917,4.917,0,0,1-.581.04,5,5,0,0,1-4.807-3.661l-.127-.375,1-2.965H22.6l.2.607a4.953,4.953,0,0,1-2.333,5.721l.931,2.737,1.3-.4a1,1,0,0,1,.594,1.91ZM14.656,10h7.267l-.966-2.868A3.023,3.023,0,0,0,17.28,5.11l-3.524.982a5.139,5.139,0,0,1,.391.571A4.936,4.936,0,0,1,14.656,10ZM10.572,6.184,6.719,5.11A3.008,3.008,0,0,0,3.052,7.1L2.078,10H12.619l.02-.059a3,3,0,0,0-2.067-3.757ZM1.185,12.657a4.956,4.956,0,0,0,2.364,5.682l-.944,2.728L1.3,20.661A1,1,0,1,0,.7,22.571l4.458,1.384a1,1,0,0,0,.594-1.91L4.516,21.66l.935-2.7A4.982,4.982,0,0,0,6.01,19,5,5,0,0,0,10.8,15.392L11.945,12H1.406ZM15.553,3.9A1,1,0,0,0,16.9,3.447l1-2a1,1,0,1,0-1.79-.894l-1,2A1,1,0,0,0,15.553,3.9ZM7.105,3.447A1,1,0,1,0,8.9,2.553l-1-2a1,1,0,0,0-1.79.894ZM12,0a1,1,0,0,0-1,1V3a1,1,0,0,0,2,0V1A1,1,0,0,0,12,0Z"/></svg>
