<?xml version="1.0" encoding="UTF-8"?>
<svg xmlns="http://www.w3.org/2000/svg" id="Layer_1" data-name="Layer 1" viewBox="0 0 24 24" width="512" height="512"><path d="M23,5H20.414l2.293-2.293a1,1,0,0,0-1.414-1.414L19,3.586V1a1,1,0,0,0-2,0V5.456A10.139,10.139,0,0,0,14.146,3.33,3.754,3.754,0,0,0,9.759,4.345l2.948,2.948a1,1,0,0,1-1.414,1.414L8.521,5.936C7.384,7.605,5.86,10.2,4.334,12.92l2.373,2.373a1,1,0,0,1-1.414,1.414L3.322,14.736C2.215,16.742,1.156,18.712.3,20.319A2.511,2.511,0,0,0,3.681,23.7c2.825-1.5,6.762-3.633,10.055-5.55l-2.443-2.443a1,1,0,0,1,1.414-1.414L15.512,17.1a27.061,27.061,0,0,0,4.11-2.821,3.766,3.766,0,0,0,1.049-4.422A10.167,10.167,0,0,0,18.544,7H23A1,1,0,0,0,23,5Z"/></svg>
