<?xml version="1.0" encoding="UTF-8"?>
<svg xmlns="http://www.w3.org/2000/svg" id="Layer_1" data-name="Layer 1" viewBox="0 0 24 24" width="512" height="512"><path d="M1.359,6.36A12.09,12.09,0,0,1,2.684,4.374L4.2,5.681a10.1,10.1,0,0,0-1.06,1.583Zm-.9,2.192A11.932,11.932,0,0,0,.005,10.9l1.99.2a9.99,9.99,0,0,1,.373-1.944ZM6.344,1.393A12.013,12.013,0,0,0,4.4,2.681L5.641,4.244A10.018,10.018,0,0,1,7.287,3.157ZM10.863.055A11.9,11.9,0,0,0,8.547.5l.567,1.917a9.933,9.933,0,0,1,1.93-.368ZM1.359,17.64a12.09,12.09,0,0,0,1.325,1.986L4.2,18.319a10.1,10.1,0,0,1-1.06-1.583Zm1.009-2.786A9.99,9.99,0,0,1,2,12.91l-1.99.2a11.932,11.932,0,0,0,.453,2.343Zm4.919,5.989a10.018,10.018,0,0,1-1.646-1.087L4.4,21.319a12.013,12.013,0,0,0,1.948,1.288Zm3.757,1.111a9.933,9.933,0,0,1-1.93-.368L8.547,23.5a11.9,11.9,0,0,0,2.316.442Zm9.715-5.165A9.975,9.975,0,0,1,19.7,18.372l1.517,1.307a12.006,12.006,0,0,0,1.325-1.986ZM23.443,15.5a11.932,11.932,0,0,0,.453-2.343l-1.99-.2a9.986,9.986,0,0,1-.373,1.945Zm-5.886,7.16a12.013,12.013,0,0,0,1.948-1.288L18.26,19.81A10.082,10.082,0,0,1,16.614,20.9ZM13.038,24a11.974,11.974,0,0,0,2.316-.442l-.567-1.918a9.934,9.934,0,0,1-1.93.369ZM19.88,11a8,8,0,1,1-7.931-7,7.916,7.916,0,0,1,.991.068l.009,0V.051A12.009,12.009,0,0,1,23.9,11Zm-2.931,0H13.672a2,2,0,0,0-.723-.723V6h-2v4.277A1.994,1.994,0,1,0,13.672,13h3.277Z"/></svg>
