<?xml version="1.0" encoding="UTF-8"?>
<svg xmlns="http://www.w3.org/2000/svg" id="Layer_1" data-name="Layer 1" viewBox="0 0 24 24" width="512" height="512"><path d="M23,4a2,2,0,0,1-2,2H3A2,2,0,0,1,3,2H4.184A3,3,0,0,1,7,0H17a3,3,0,0,1,2.816,2H21A2,2,0,0,1,23,4ZM10,16c.105,3.954,3.895,3.953,4,0C13.9,12.046,10.105,12.047,10,16ZM8.081,15c.892-5.287,6.948-5.284,7.838,0h5.088l.735-5.876A1,1,0,0,0,20.75,8H3.25a1,1,0,0,0-.992,1.124L2.992,15Zm7.838,2c-.892,5.287-6.947,5.284-7.838,0H3.242l.328,2.62A5.008,5.008,0,0,0,8.531,24h6.938a5.008,5.008,0,0,0,4.961-4.38L20.757,17Z"/></svg>
