<?xml version="1.0" encoding="UTF-8"?>
<svg xmlns="http://www.w3.org/2000/svg" id="Layer_1" data-name="Layer 1" viewBox="0 0 24 24" width="512" height="512"><path d="M23.925,18.144A5,5,0,0,1,19,24H16a1,1,0,0,1-1-1V20.41A8.218,8.218,0,0,1,12,21a8.222,8.222,0,0,1-3-.6V23a1,1,0,0,1-1,1H5A5,5,0,0,1,.075,18.144l.3-1.74a2.939,2.939,0,0,1,5.337-1.138C6.976,17.124,9.409,19,12,19h0c3.13,0,6.214-2.779,7.13-5.376a1.03,1.03,0,0,1,.959-.667l.432.007A1.461,1.461,0,0,0,22,11.5a1.5,1.5,0,0,0-1.23-1.474,1,1,0,0,1-.816-.879A7.961,7.961,0,0,0,15.941,3.04a12.87,12.87,0,0,1-1.127,2.541,15.089,15.089,0,0,1-4.956,4.467,1.5,1.5,0,1,1-1.725.84,15.807,15.807,0,0,1-7.257,1.1A1,1,0,0,1,.5,10.136,6.372,6.372,0,0,0,1.819,7.767C3.124,4.674,5.1,0,12,0a9.972,9.972,0,0,1,9.85,8.274A3.5,3.5,0,0,1,24,11.5a3.428,3.428,0,0,1-.854,2.257c.007.026.025.047.03.075ZM16,11.5A1.5,1.5,0,1,0,14.5,13,1.5,1.5,0,0,0,16,11.5Z"/></svg>
