<?xml version="1.0" encoding="UTF-8"?>
<svg xmlns="http://www.w3.org/2000/svg" id="Layer_1" data-name="Layer 1" viewBox="0 0 24 24" width="512" height="512"><path d="M20.44,16.855l-1.481-2.221a2.214,2.214,0,0,0,.619-3.072L17.487,8.427a2.234,2.234,0,0,0,.456-.58,2.21,2.21,0,0,0-.084-2.256C17.834,5.553,13.678.7,13.678.7a2.38,2.38,0,0,0-3.4.051s-4.126,4.8-4.15,4.832a2.212,2.212,0,0,0,.38,2.853L4.422,11.562a2.214,2.214,0,0,0,.619,3.072L3.56,16.855A3.309,3.309,0,0,0,6.312,22H11v1a1,1,0,0,0,2,0V22h4.687a3.309,3.309,0,0,0,2.753-5.145ZM12,4a1,1,0,1,1-1,1A1,1,0,0,1,12,4ZM8,19a1,1,0,1,1,1-1A1,1,0,0,1,8,19Zm0-5a1,1,0,1,1,1-1A1,1,0,0,1,8,14Zm4-4a1,1,0,1,1,1-1A1,1,0,0,1,12,10Zm4,2a1,1,0,1,1,1-1A1,1,0,0,1,16,12Zm0,6a1,1,0,1,1,1-1A1,1,0,0,1,16,18Zm-4-2a1,1,0,1,1,1-1A1,1,0,0,1,12,16Z"/></svg>
