<svg id="Layer_1" height="512" viewBox="0 0 24 24" width="512" xmlns="http://www.w3.org/2000/svg" data-name="Layer 1"><path d="m9 23.912c-.449.04-.9.068-1.331.068a8.106 8.106 0 0 1 -5.769-1.88c-1.518-1.522-2.074-4.191-1.817-7.1zm14.945-15.381c.155-2.725-.41-5.192-1.845-6.631s-3.9-2-6.629-1.847zm-.336 2.492a16.888 16.888 0 0 1 -4.261 8.325 16.742 16.742 0 0 1 -7.923 4.163l-10.95-10.95a16.771 16.771 0 0 1 4.177-7.909 16.888 16.888 0 0 1 8.325-4.261zm-5.9-.73-4-4a1 1 0 0 0 -1.414 1.414l1.291 1.293-1.586 1.586-1.293-1.293a1 1 0 0 0 -1.414 1.414l1.293 1.293-1.586 1.586-1.293-1.293a1 1 0 0 0 -1.414 1.414l4 4a1 1 0 0 0 1.414-1.414l-1.293-1.293 1.586-1.586 1.293 1.293a1 1 0 0 0 1.414-1.414l-1.293-1.293 1.586-1.586 1.293 1.293a1 1 0 0 0 1.414-1.414z"/></svg>