<?xml version="1.0" encoding="UTF-8"?>
<svg xmlns="http://www.w3.org/2000/svg" id="Layer_1" data-name="Layer 1" viewBox="0 0 24 24" width="512" height="512"><path d="M0,20l2.667-1.333L4,16l1.333,2.667L8,20,5.333,21.333,4,24,2.667,21.333Zm18.667,1.333L20,24l1.333-2.667L24,20l-2.667-1.333L20,16l-1.333,2.667L16,20Zm-8-16L12,8l1.333-2.667L16,4,13.333,2.667,12,0,10.667,2.667,8,4ZM5,12a1,1,0,1,0,1,1A1,1,0,0,0,5,12ZM1,8A1,1,0,1,0,2,9,1,1,0,0,0,1,8ZM5,4A1,1,0,1,0,6,5,1,1,0,0,0,5,4ZM1,0A1,1,0,1,0,2,1,1,1,0,0,0,1,0ZM23,12a1,1,0,1,0,1,1A1,1,0,0,0,23,12ZM19,8a1,1,0,1,0,1,1A1,1,0,0,0,19,8Zm4-4a1,1,0,1,0,1,1A1,1,0,0,0,23,4ZM19,0a1,1,0,1,0,1,1A1,1,0,0,0,19,0ZM14,22a1,1,0,1,0,1,1A1,1,0,0,0,14,22Zm-4-4a1,1,0,1,0,1,1A1,1,0,0,0,10,18Zm4-4a1,1,0,1,0,1,1A1,1,0,0,0,14,14Zm-4-4a1,1,0,1,0,1,1A1,1,0,0,0,10,10Z"/></svg>
