<svg id="Layer_1" height="512" viewBox="0 0 24 24" width="512" xmlns="http://www.w3.org/2000/svg" data-name="Layer 1"><path d="m13 22h-7.5a5.49 5.49 0 0 1 -2.6-10.329 7.912 7.912 0 0 1 -.9-3.671 8 8 0 0 1 15.791-1.791 7.981 7.981 0 0 1 3.519 1.822c-.105-.006-.204-.031-.31-.031a5.009 5.009 0 0 0 -4.92 4.105l-.847.424a4.953 4.953 0 0 0 -2.233-.529 5 5 0 0 0 0 10zm8-6a3 3 0 1 0 -3-3 2.9 2.9 0 0 0 .037.363l-2.96 1.481a3 3 0 1 0 0 4.312l2.96 1.481a2.9 2.9 0 0 0 -.037.363 3.015 3.015 0 1 0 .923-2.156l-2.96-1.481a2.9 2.9 0 0 0 .037-.363 2.9 2.9 0 0 0 -.037-.363l2.96-1.481a2.986 2.986 0 0 0 2.077.844z"/></svg>