<?xml version="1.0" encoding="UTF-8"?>
<svg xmlns="http://www.w3.org/2000/svg" id="Layer_1" data-name="Layer 1" viewBox="0 0 24 24" width="512" height="512"><path d="M21.946,11a2.031,2.031,0,0,1-1.277-.451L19.5,9.613l-1.169.936A2.051,2.051,0,0,1,15,8.948V2a2,2,0,0,1,2-2h5a2,2,0,0,1,2,2V8.948A2.057,2.057,0,0,1,21.946,11ZM12,15.422a3,3,0,0,0,2.122-.876L15.869,12.8A3.857,3.857,0,0,1,13,8.948V3H5A4.986,4.986,0,0,0,.744,5.411l9.134,9.135A3,3,0,0,0,12,15.422ZM23.7,12.6a4.048,4.048,0,0,1-4.2-.425.923.923,0,0,0-.123-.054L15.536,15.96a5.008,5.008,0,0,1-7.072,0L.046,7.542C.032,7.7,0,7.843,0,8V19a5.006,5.006,0,0,0,5,5H19a5.006,5.006,0,0,0,5-5V12.43C23.9,12.487,23.808,12.548,23.7,12.6Z"/></svg>
