<?xml version="1.0" encoding="UTF-8"?>
<svg xmlns="http://www.w3.org/2000/svg" id="Layer_1" data-name="Layer 1" viewBox="0 0 24 24" width="512" height="512"><path d="M18,8.2V0h2V8.2l2.242-2.242,1.414,1.414-2.909,2.909a2.472,2.472,0,0,1-3.494,0L14.382,7.406,15.8,5.992Zm-6,7.226a3,3,0,0,0,2.122-.876l2.341-2.341a4.552,4.552,0,0,1-.625-.514L12.968,8.82a2,2,0,0,1,0-2.828L15.96,3H3A3,3,0,0,0,.219,4.886l9.659,9.66A3,3,0,0,0,12,15.422Zm10.161-3.731a4.074,4.074,0,0,1-3.621,1.264l-3,3.005a5.007,5.007,0,0,1-7.072,0L0,7.5V24H24V9.852Z"/></svg>
