<svg id="Layer_1" height="512" viewBox="0 0 24 24" width="512" xmlns="http://www.w3.org/2000/svg" data-name="Layer 1"><path d="m19.944 2.634-7.944-2.634-7.944 2.634a3 3 0 0 0 -2.056 2.848v6.509c0 7.524 9.2 11.679 9.594 11.852l.354.157.368-.122c.395-.131 9.684-3.31 9.684-11.887v-6.509a3 3 0 0 0 -2.056-2.848zm-6.944 16.418h-2v-2h2zm.928-6.495a2.343 2.343 0 0 0 -.928 1.752v.743h-2v-.743a4.309 4.309 0 0 1 1.962-3.5 2 2 0 0 0 1.005-2.125 2.022 2.022 0 0 0 -1.6-1.6 2 2 0 0 0 -2.367 1.968h-2a4 4 0 0 1 1.429-3.065 4 4 0 1 1 4.5 6.57z"/></svg>