<svg id="Layer_1" enable-background="new 0 0 24 24" height="512" viewBox="0 0 24 24" width="512" xmlns="http://www.w3.org/2000/svg"><path d="m22.707 22.707c-.39.39-1.024.39-1.414 0l-1.414-1.414-1.415 1.414c-.384.397-1.017.408-1.414.025-.397-.384-.408-1.017-.025-1.414.008-.008.016-.017.025-.025l1.414-1.414-1.414-1.415c-.397-.384-.408-1.017-.025-1.414.384-.397 1.017-.408 1.414-.025.008.008.017.016.025.025l1.415 1.414 1.414-1.414c.384-.397 1.017-.408 1.414-.025.397.384.408 1.017.025 1.414-.008.008-.016.017-.025.025l-1.414 1.415 1.414 1.414c.392.389.397 1.019.008 1.411-.002.002-.003.004-.008.003z"/><path d="m14.035 20.015c-.004-3.297 2.665-5.973 5.961-5.978 1.283-.002 2.533.41 3.563 1.175 1.773-6.385-1.966-12.998-8.35-14.771s-12.996 1.965-14.769 8.35 1.966 12.999 8.35 14.772c2.1.583 4.319.583 6.419 0-.762-1.026-1.174-2.27-1.174-3.548zm-1.035-7.993c0 .266-.106.52-.294.708l-3.005 3.006c-.398.384-1.032.373-1.416-.025-.375-.388-.375-1.004 0-1.392l2.712-2.712v-4.594c0-.553.448-1.002 1.002-1.002.553 0 1.001.449 1.001 1.002z"/></svg>