<?xml version="1.0" encoding="UTF-8"?>
<svg xmlns="http://www.w3.org/2000/svg" id="Layer_1" data-name="Layer 1" viewBox="0 0 24 24" width="512" height="512"><path d="M7,0A7.008,7.008,0,0,0,0,7c0,4.257,2.875,9,7,9s7-4.743,7-9A7.008,7.008,0,0,0,7,0Zm3.617,11.646-1.7-1.062A6.546,6.546,0,0,0,9.977,8h2A8.184,8.184,0,0,1,10.617,11.646ZM18,1a6.151,6.151,0,0,0-3.5,1.036A8.942,8.942,0,0,1,16,7a12.808,12.808,0,0,1-1.7,6.287A5.121,5.121,0,0,0,18,15c3.309,0,6-3.589,6-8A5.8,5.8,0,0,0,18,1Zm2.312,10.752L19,10.248A4.038,4.038,0,0,0,19.977,8h2A5.847,5.847,0,0,1,20.312,11.752Zm1.1,12.31-1.762-.945c.714-1.33.358-1.605-1.116-2.447a4.348,4.348,0,0,1-2.46-2.563,3.142,3.142,0,0,1,.017-1.406A6.483,6.483,0,0,0,18,17c.025,0,.048,0,.073,0a1.348,1.348,0,0,0-.051.655c.115.49.79.875,1.505,1.284C20.855,19.692,23.078,20.961,21.413,24.062ZM11,22a4.092,4.092,0,0,1-.729,2L8.557,22.973A2.518,2.518,0,0,0,9,22c0-.354-.6-.682-1.447-1.105C6.476,20.356,5,19.618,5,18a1.854,1.854,0,0,1,.041-.264A7.37,7.37,0,0,0,7,18l.024,0c-.008.023-.026.06-.03.077.006.279.606.607,1.453,1.03C9.524,19.644,11,20.382,11,22Z"/></svg>
