<svg id="Layer_1" height="512" viewBox="0 0 24 24" width="512" xmlns="http://www.w3.org/2000/svg" data-name="Layer 1"><path d="m21.977 11.264c-.364-5.54-5.503-10.223-11.246-10.264a2 2 0 0 0 -1.731-1h-2a4 4 0 0 0 -4 4v1h2a1 1 0 0 1 0 2h-2v2h2a1 1 0 0 1 0 2h-2v2h2a1 1 0 0 1 0 2h-2v2h2a1 1 0 0 1 0 2h-2v1a4 4 0 0 0 4 4h2a2 2 0 0 0 1.731-1h.269a11.041 11.041 0 0 0 8.028-3.481 10.915 10.915 0 0 0 2.949-8.255zm-11.03 4.725a1 1 0 0 1 -.947-.989v-6a1 1 0 0 1 1-1 4 4 0 0 1 3.981 4.393 4.1 4.1 0 0 1 -4.034 3.596z"/></svg>