<?xml version="1.0" encoding="UTF-8"?>
<svg xmlns="http://www.w3.org/2000/svg" id="Layer_1" data-name="Layer 1" viewBox="0 0 24 24" width="512" height="512"><path d="M22,7a2,2,0,0,0,2-2V0H22V5H17.964A6.44,6.44,0,0,0,6.044,5H2V0H0V5A2,2,0,0,0,2,7H5.485L4.472,11H0v2H3.965l-.145.573L3.8,13.7a8.37,8.37,0,0,0-.07,1.032A8.238,8.238,0,0,0,4.045,17H2a2,2,0,0,0-2,2v5H2V19H4.919a8.268,8.268,0,0,0,14.162,0H22v5h2V19a2,2,0,0,0-2-2H19.955a8.238,8.238,0,0,0,.317-2.273A8.37,8.37,0,0,0,20.2,13.7l-.175-.7H24V11H19.522L18.513,7Z"/></svg>
