<svg id="Layer_1" height="512" viewBox="0 0 24 24" width="512" xmlns="http://www.w3.org/2000/svg" data-name="Layer 1"><path d="m.024 11.523a11.943 11.943 0 0 1 2.731-7.164l1.106 3.6a1 1 0 0 1 -.382 1.114zm11.39-8.712a1 1 0 0 0 1.174 0l3.039-2.248a11.948 11.948 0 0 0 -7.28.01zm9.1 6.256 3.457 2.456a11.943 11.943 0 0 0 -2.731-7.164l-1.1 3.594a1 1 0 0 0 .379 1.114zm-13.814 9.616a1 1 0 0 0 -.949-.69l-4.139-.007a12.052 12.052 0 0 0 6.567 5.381zm11.541-.69a1 1 0 0 0 -.948.694l-1.525 4.7a12.056 12.056 0 0 0 6.615-5.4zm-4.583-4.339.731-2.253a.5.5 0 0 0 -.181-.559l-1.914-1.392a.5.5 0 0 0 -.588 0l-1.916 1.392a.5.5 0 0 0 -.182.56l.732 2.252a.5.5 0 0 0 .475.346h2.37a.5.5 0 0 0 .476-.346zm-.158 10.246a11.842 11.842 0 0 1 -1.5.1 11.934 11.934 0 0 1 -1.556-.113l-1.836-5.811a2.992 2.992 0 0 0 -2.849-2.083l-5.065-.009a11.919 11.919 0 0 1 -.532-2.106l4.472-3.178a2.991 2.991 0 0 0 1.138-3.335l-1.416-4.607a12.007 12.007 0 0 1 1.859-1.265l4.021 2.934a3 3 0 0 0 3.534 0l3.987-2.946a12.029 12.029 0 0 1 1.887 1.282l-1.416 4.601a2.991 2.991 0 0 0 1.135 3.336l4.475 3.178a11.886 11.886 0 0 1 -.532 2.105l-5.067.01a2.991 2.991 0 0 0 -2.846 2.08zm-.315-7.9a2.5 2.5 0 0 0 2.378-1.728l.731-2.253a2.492 2.492 0 0 0 -.908-2.795l-1.917-1.392a2.491 2.491 0 0 0 -2.938 0l-1.917 1.392a2.493 2.493 0 0 0 -.908 2.8l.732 2.253a2.494 2.494 0 0 0 2.377 1.723z"/></svg>