<?xml version="1.0" encoding="UTF-8"?>
<!-- Generator: Adobe Illustrator 25.0.0, SVG Export Plug-In . SVG Version: 6.00 Build 0)  -->
<svg xmlns="http://www.w3.org/2000/svg" xmlns:xlink="http://www.w3.org/1999/xlink" version="1.1" id="Layer_1" x="0px" y="0px" viewBox="0 0 512 512" style="enable-background:new 0 0 512 512;" xml:space="preserve" width="512" height="512">
<path d="M448.383,286.442c-16.454,0.003-32.259,6.415-44.065,17.876l-25.107-12.554c20.494-67.214-17.38-138.315-84.594-158.809  c-24.586-7.496-50.867-7.37-75.38,0.361l-14.717-26.571c23.622-25.866,21.803-65.984-4.063-89.605  c-25.866-23.622-65.983-21.803-89.605,4.063s-21.803,65.983,4.063,89.605c11.734,10.716,27.063,16.637,42.953,16.591  c3.05-0.087,6.09-0.392,9.097-0.912l14.589,26.358c-55.259,41.007-67.66,118.636-27.928,174.818l-61.793,59.375  c-32.782-14.681-71.258-0.008-85.939,32.774s-0.008,71.258,32.774,85.939c32.782,14.681,71.258,0.008,85.939-32.774  c8.18-18.265,7.495-39.279-1.856-56.973l60.563-58.209c56.591,40.988,135.691,28.375,176.727-28.182l25.447,12.723  c-0.402,2.555-0.642,5.133-0.721,7.719c0,35.134,28.482,63.617,63.617,63.617S512,385.193,512,350.059  S483.518,286.442,448.383,286.442z"/>
</svg>
