<svg id="Layer_1" height="512" viewBox="0 0 24 24" width="512" xmlns="http://www.w3.org/2000/svg" data-name="Layer 1"><path d="m16 .3a4.968 4.968 0 0 1 1.879 1.164l1.656 1.658a4.954 4.954 0 0 1 1.165 1.878h-4.7zm5 6.7v12a5.006 5.006 0 0 1 -5 5h-8a5.006 5.006 0 0 1 -5-5v-14a5.006 5.006 0 0 1 5-5h6v5a2 2 0 0 0 2 2zm-4.192 10.413a1 1 0 0 0 -1.4-.222 4.586 4.586 0 0 1 -2.273.809 1.347 1.347 0 0 1 -.864-.345 3.025 3.025 0 0 0 -1.832-.655 5.861 5.861 0 0 0 -3.046 1.206 1 1 0 1 0 1.214 1.588 3.951 3.951 0 0 1 1.832-.794c.246 0 .371.078.7.3a3.252 3.252 0 0 0 2 .7 6.464 6.464 0 0 0 3.456-1.193 1 1 0 0 0 .213-1.394zm.192-3.413a1 1 0 0 0 -1-1h-8a1 1 0 0 0 0 2h8a1 1 0 0 0 1-1zm0-4a1 1 0 0 0 -1-1h-8a1 1 0 0 0 0 2h8a1 1 0 0 0 1-1z"/></svg>