<?xml version="1.0" encoding="UTF-8"?>
<svg xmlns="http://www.w3.org/2000/svg" id="Layer_1" data-name="Layer 1" viewBox="0 0 24 24" width="512" height="512"><path d="M13.569,6l1.964,5H8.477l2-5Zm4.112,5h6.248a3.013,3.013,0,0,0-.476-.979L21.406,7.228A3.009,3.009,0,0,0,18.986,6H15.717Zm-2.067,2H8.386L12,23.879Zm2.108,0-2.743,8.255,8.167-7.332A3.045,3.045,0,0,0,23.78,13ZM6.278,13H.23a3.144,3.144,0,0,0,.661.957l8.13,7.3Zm.045-2,2-5H5.014a3.009,3.009,0,0,0-2.42,1.228L.547,10.021A3.01,3.01,0,0,0,.072,11ZM13,0H11V4h2Zm6.844,1.652L18.156.578l-2,3.142,1.688,1.074Zm-12,2.068-2-3.142L4.156,1.652l2,3.142Z"/></svg>
