<svg id="Layer_1" height="512" viewBox="0 0 24 24" width="512" xmlns="http://www.w3.org/2000/svg" data-name="Layer 1"><path d="m14 7v-6.54a6.977 6.977 0 0 1 2.465 1.59l3.484 3.486a6.954 6.954 0 0 1 1.591 2.464h-6.54a1 1 0 0 1 -1-1zm7.976 3h-6.976a3 3 0 0 1 -3-3v-6.976c-.161-.011-.322-.024-.485-.024h-4.515a5.006 5.006 0 0 0 -5 5v14a5.006 5.006 0 0 0 5 5h10a5.006 5.006 0 0 0 5-5v-8.515c0-.163-.013-.324-.024-.485zm-7.976 4h-1v4.5a2.5 2.5 0 1 1 -2.5-2.5 2.577 2.577 0 0 1 .5.05v-2.05a2 2 0 0 1 2-2h1a1 1 0 0 1 0 2z"/></svg>