<?xml version="1.0" encoding="UTF-8"?>
<svg xmlns="http://www.w3.org/2000/svg" id="Layer_1" data-name="Layer 1" viewBox="0 0 24 24" width="512" height="512"><path d="M8,3a3,3,0,1,1,3,3A3,3,0,0,1,8,3ZM23,21H21.721L20.4,17.051A3,3,0,0,0,17.559,15H14a2,2,0,0,1-2-2h6a1,1,0,0,0,0-2H12V8a1,1,0,0,0-2,0v5a4,4,0,0,0,4,4h3.559a1,1,0,0,1,.949.684l1.544,4.632A1,1,0,0,0,21,23h2a1,1,0,0,0,0-2Zm-9.214-2.012A5.973,5.973,0,0,1,8,13V9.071a1,1,0,0,0-1.142-.99A8.005,8.005,0,0,0,7.87,24H8a7.993,7.993,0,0,0,6.573-3.442,1,1,0,0,0-.786-1.57Z"/></svg>
