<?xml version="1.0" encoding="UTF-8"?>
<svg xmlns="http://www.w3.org/2000/svg" id="Layer_1" data-name="Layer 1" viewBox="0 0 24 24" width="512" height="512"><path d="M24,0V8.015c-5.189.275-10.863,3.271-11,10.978V20H11l0-1,0-.007C11,12.026,6.034,9.412,3.14,8.48A10.536,10.536,0,0,0,0,8V0H1A5.9,5.9,0,0,1,6.6,3.782,21.876,21.876,0,0,1,12,3a21.868,21.868,0,0,1,5.4.782A5.9,5.9,0,0,1,23,0ZM21.491,10.352A11.258,11.258,0,0,0,20,10.93a3.817,3.817,0,0,1-3.614,3.042A8.89,8.89,0,0,0,15,18.993V20a2,2,0,0,1-2,2H11a2,2,0,0,1-2-2V17.993a5.786,5.786,0,0,0-1.386-4.021A3.817,3.817,0,0,1,4,10.93a8.974,8.974,0,0,0-4-.936v1.935a6,6,0,0,0,1.757,4.242l6.95,6.95A3,3,0,0,0,10.829,24h2.343a3,3,0,0,0,2.12-.878l6.95-6.95A6,6,0,0,0,24,11.928V9.994A8.581,8.581,0,0,0,21.491,10.352Z"/></svg>
