<svg id="Layer_1" height="512" viewBox="0 0 24 24" width="512" xmlns="http://www.w3.org/2000/svg" data-name="Layer 1"><path d="m13.118.059a11.972 11.972 0 0 1 10.823 10.823 9.536 9.536 0 0 1 -8.141-2.682 9.532 9.532 0 0 1 -2.682-8.141zm9.434 12.941a11.529 11.529 0 0 1 -11.446-12.952 11.941 11.941 0 0 0 -11.059 11.076 11.373 11.373 0 0 1 12.829 12.828 11.938 11.938 0 0 0 11.075-11.046 11.563 11.563 0 0 1 -1.399.094zm-14.313 2.761a9.413 9.413 0 0 0 -8.179-2.625 11.975 11.975 0 0 0 10.8 10.8 9.408 9.408 0 0 0 -2.621-8.175z"/></svg>