<?xml version="1.0" encoding="UTF-8"?>
<svg xmlns="http://www.w3.org/2000/svg" id="Layer_1" data-name="Layer 1" viewBox="0 0 24 24" width="512" height="512"><path d="M18.5,11A5.5,5.5,0,1,0,13,5.5,5.506,5.506,0,0,0,18.5,11Zm0-2a3.449,3.449,0,0,1-1.652-.434l4.718-4.718A3.449,3.449,0,0,1,22,5.5,3.5,3.5,0,0,1,18.5,9Zm0-7a3.449,3.449,0,0,1,1.652.434L15.434,7.152A3.449,3.449,0,0,1,15,5.5,3.5,3.5,0,0,1,18.5,2ZM9.878,14.546.219,4.886A3,3,0,0,1,3,3h8.436a7.471,7.471,0,0,0,4.64,9.592l-1.954,1.954a3.008,3.008,0,0,1-4.244,0ZM18.5,13A7.474,7.474,0,0,0,24,10.587V24H0V7.5L8.464,15.96a5.007,5.007,0,0,0,7.072,0L18.5,13Z"/></svg>
