<?xml version="1.0" encoding="UTF-8"?>
<!-- Generator: Adobe Illustrator 25.0.0, SVG Export Plug-In . SVG Version: 6.00 Build 0)  -->
<svg xmlns="http://www.w3.org/2000/svg" xmlns:xlink="http://www.w3.org/1999/xlink" version="1.1" id="Capa_1" x="0px" y="0px" viewBox="0 0 512 512" style="enable-background:new 0 0 512 512;" xml:space="preserve" width="512" height="512">
<g>
	<circle cx="394.667" cy="32" r="32"/>
	<circle cx="458.667" cy="138.667" r="32"/>
	<path d="M510.784,231.552c-0.975-10.173-9.027-18.225-19.2-19.2c-101.655-9.794-182.111-90.258-191.893-191.915   c-0.975-10.173-9.027-18.225-19.2-19.2C272.405,0.448,264.256,0,256,0C114.615,0,0,114.615,0,256s114.615,256,256,256   s256-114.615,256-256C512,247.744,511.552,239.595,510.784,231.552z M309.333,341.333c-17.673,0-32-14.327-32-32s14.327-32,32-32   s32,14.327,32,32S327.006,341.333,309.333,341.333L309.333,341.333z M202.667,234.667c-17.673,0-32-14.327-32-32s14.327-32,32-32   s32,14.327,32,32S220.34,234.667,202.667,234.667z M234.667,309.333c0,17.673-14.327,32-32,32s-32-14.327-32-32s14.327-32,32-32   l0,0C220.34,277.333,234.667,291.66,234.667,309.333z"/>
</g>















</svg>
