<?xml version="1.0" encoding="UTF-8"?>
<svg xmlns="http://www.w3.org/2000/svg" id="Layer_1" data-name="Layer 1" viewBox="0 0 24 24" width="512" height="512"><path d="M17.5,24a8.81,8.81,0,0,1-2.4-.453,9.614,9.614,0,0,0-6.206,0c-3.3,1.18-6.024.021-5.9-3.178C3,15.641,7.458,11,12,11s9,4.641,9,9.369C21,22.025,20.393,24,17.5,24ZM21.844,5.014c-1.364-.163-2.6,1.128-2.814,3.46-.433,5.508,4.307,6.225,4.941.589C24.184,6.732,23.208,5.177,21.844,5.014ZM.029,9.063C.664,14.7,5.4,13.978,4.97,8.474c-.214-2.332-1.45-3.623-2.814-3.46S-.184,6.732.029,9.063Zm5.948-5c.635,5.639,5.374,4.915,4.94-.589C10.7,1.142,9.468-.149,8.1.014S5.763,1.732,5.977,4.063ZM15.844.014c-1.364-.163-2.6,1.128-2.814,3.46-.433,5.508,4.307,6.225,4.941.589C18.184,1.732,17.208.177,15.844.014Z"/></svg>
