<?xml version="1.0" encoding="UTF-8"?>
<svg xmlns="http://www.w3.org/2000/svg" id="Filled" viewBox="0 0 24 24" width="512" height="512"><path d="M0,19v4a1,1,0,0,0,2,0V19H4.93a8.248,8.248,0,0,0,14.14,0H22v4a1,1,0,0,0,2,0V19a2,2,0,0,0-2-2H19.947a8.2,8.2,0,0,0,.325-2.273A8.37,8.37,0,0,0,20.2,13.7l-.175-.7H23a1,1,0,0,0,0-2H19.522L18.513,7H22a2,2,0,0,0,2-2V1a1,1,0,0,0-2,0V5H18c-.018,0-.032.009-.05.01a6.411,6.411,0,0,0-11.89,0C6.039,5.011,6.021,5,6,5H2V1A1,1,0,0,0,0,1V5A2,2,0,0,0,2,7H5.485L4.472,11H1a1,1,0,0,0,0,2H3.965l-.145.573L3.8,13.7a8.37,8.37,0,0,0-.07,1.032A8.2,8.2,0,0,0,4.053,17H2A2,2,0,0,0,0,19Z"/></svg>
