<?xml version="1.0" encoding="UTF-8"?>
<svg xmlns="http://www.w3.org/2000/svg" id="Layer_1" data-name="Layer 1" viewBox="0 0 24 24" width="512" height="512"><path d="M14.746,6.285A1,1,0,0,1,16.16,6.3L18,8.181V1a1,1,0,0,1,2,0V8.181L21.84,6.3a1,1,0,0,1,1.43,1.4L20.755,10.27A2.478,2.478,0,0,1,19.012,11a.04.04,0,0,1-.019,0,2.456,2.456,0,0,1-1.74-.722L14.73,7.7A1,1,0,0,1,14.746,6.285ZM12,15.422a3,3,0,0,0,2.122-.876l2.341-2.341a4.493,4.493,0,0,1-.625-.514L13.3,9.1a3,3,0,0,1,.046-4.242C13.82,4.394,14.792,3.543,15.42,3H5A4.986,4.986,0,0,0,.744,5.411l9.134,9.135A3,3,0,0,0,12,15.422Zm10.185-3.754a4.348,4.348,0,0,1-3.644,1.287L15.536,15.96a5.008,5.008,0,0,1-7.072,0L.046,7.542C.032,7.7,0,7.843,0,8V19a5.006,5.006,0,0,0,5,5H19a5.006,5.006,0,0,0,5-5V9.812Z"/></svg>
