<svg id="Layer_1" height="512" viewBox="0 0 24 24" width="512" xmlns="http://www.w3.org/2000/svg" data-name="Layer 1"><path d="m24 12a11.94 11.94 0 0 1 -2.9 7.805 9.508 9.508 0 0 1 -3.383-4.213l1.658-.663a1 1 0 1 0 -.742-1.858l-1.466.587a9.421 9.421 0 0 1 -.167-1.658 9.421 9.421 0 0 1 .163-1.658l1.466.587a1 1 0 1 0 .742-1.858l-1.658-.663a9.508 9.508 0 0 1 3.387-4.208 11.94 11.94 0 0 1 2.9 7.8zm-8.143 4.334-1.486.595a1 1 0 1 1 -.742-1.858l1.644-.657a11.545 11.545 0 0 1 -.273-2.414 11.545 11.545 0 0 1 .273-2.414l-1.644-.657a1 1 0 1 1 .742-1.858l1.486.6a11.466 11.466 0 0 1 3.808-4.889 11.97 11.97 0 0 0 -15.313-.021 11.544 11.544 0 0 1 3.8 4.9l1.481-.593a1 1 0 1 1 .742 1.858l-1.643.657a11.6 11.6 0 0 1 .268 2.417 11.6 11.6 0 0 1 -.272 2.414l1.643.657a1 1 0 0 1 -.742 1.858l-1.481-.593a11.544 11.544 0 0 1 -3.8 4.9 11.97 11.97 0 0 0 15.313-.016 11.466 11.466 0 0 1 -3.804-4.886zm-9.566-.74-1.662-.665a1 1 0 1 1 .742-1.858l1.467.587a9.516 9.516 0 0 0 .162-1.658 9.516 9.516 0 0 0 -.162-1.658l-1.467.587a1 1 0 1 1 -.742-1.858l1.662-.665a9.547 9.547 0 0 0 -3.372-4.227 11.937 11.937 0 0 0 0 15.642 9.547 9.547 0 0 0 3.372-4.227z"/></svg>