<?xml version="1.0" encoding="UTF-8"?>
<svg xmlns="http://www.w3.org/2000/svg" id="Layer_1" data-name="Layer 1" viewBox="0 0 24 24" width="512" height="512"><path d="M23.352.648a2.189,2.189,0,0,0-2.31-.514l-.216.077A32.5,32.5,0,0,0,8,8a36.107,36.107,0,0,0-4.7,6.645L5.586,17,3,19.586,4.414,21,7,18.414l2.32,2.32a36.149,36.149,0,0,0,6.644-4.7A32.74,32.74,0,0,0,23.791,3.169l.075-.211A2.189,2.189,0,0,0,23.352.648ZM11,14a1,1,0,1,1,1-1A1,1,0,0,1,11,14Zm3-3a1,1,0,1,1,1-1A1,1,0,0,1,14,11Zm3-3a1,1,0,1,1,1-1A1,1,0,0,1,17,8Zm1.947,7.762A11.416,11.416,0,0,1,14.429,24H11V22.078a34.925,34.925,0,0,0,6.379-4.629C17.93,16.9,18.447,16.334,18.947,15.762ZM6.551,6.568a34.925,34.925,0,0,0-4.629,6.379H0V9.518A11.416,11.416,0,0,1,8.238,5C7.666,5.5,7.1,6.017,6.551,6.568Z"/></svg>
