<?xml version="1.0" encoding="UTF-8"?>
<!-- Generator: Adobe Illustrator 25.0.0, SVG Export Plug-In . SVG Version: 6.00 Build 0)  -->
<svg xmlns="http://www.w3.org/2000/svg" xmlns:xlink="http://www.w3.org/1999/xlink" version="1.1" id="Layer_1" x="0px" y="0px" viewBox="0 0 512 512" style="enable-background:new 0 0 512 512;" xml:space="preserve" width="512" height="512">
<path d="M399.211,256H298.667C275.103,256,256,236.897,256,213.333V112.512c0.059-19.89-9.134-38.678-24.875-50.837  c-14.916-11.812-34.474-16.022-52.928-11.392C52.767,81.419-23.674,208.342,7.463,333.773  c21.937,88.372,93.145,155.995,182.532,173.342c122.11,23.373,241.257-52.547,271.659-173.099  c4.647-18.478,0.445-38.066-11.371-53.013C437.984,265.29,419.165,256.076,399.211,256z"/>
<path d="M504.555,158.848c-4.87-18.102-12.123-35.477-21.568-51.669c-28.41-48.738-74.818-84.375-129.237-99.243  C350.165,6.969,342.144,6.4,342.144,6.4c-2.866,0.001-15.21,0-24.981,7.915c-14.361,11.301-16.619,24.149-16.832,25.152  c-0.745,3.146-1.132,6.367-1.152,9.6v100.267c0,35.346,28.654,64,64,64h100.672c13.356,0.038,25.927-6.303,33.835-17.067  c5.848-7.885,8.856-17.517,8.533-27.328C506.049,165.523,505.491,162.137,504.555,158.848z"/>
</svg>
