<?xml version="1.0" encoding="UTF-8"?>
<!-- Generator: Adobe Illustrator 25.0.0, SVG Export Plug-In . SVG Version: 6.00 Build 0)  -->
<svg xmlns="http://www.w3.org/2000/svg" xmlns:xlink="http://www.w3.org/1999/xlink" version="1.1" id="Layer_1" x="0px" y="0px" viewBox="0 0 512 512" style="enable-background:new 0 0 512 512;" xml:space="preserve" width="512" height="512">
<path d="M422.194,69.944c-90.614-92.173-238.793-93.437-330.966-2.823s-93.437,238.793-2.823,330.966  c1.126,1.146,2.264,2.28,3.414,3.402l83.892,77.509c44.849,43.874,116.481,44.054,161.549,0.404l84.934-78.487  C513.586,309.518,513.586,161.34,422.194,69.944z M335.579,284.215c8.452,8.163,8.686,21.633,0.522,30.084  s-21.633,8.686-30.084,0.522c-0.177-0.171-0.351-0.345-0.522-0.522l-48.786-48.786L207.922,314.3  c-8.452,8.163-21.921,7.93-30.084-0.522c-7.964-8.245-7.964-21.317,0-29.562l48.786-48.786l-48.786-48.786  c-8.452-8.163-8.686-21.632-0.523-30.084s21.632-8.686,30.084-0.523c0.177,0.171,0.352,0.346,0.523,0.523l48.786,48.786  l48.786-48.786c8.163-8.452,21.633-8.686,30.084-0.522s8.686,21.633,0.522,30.084c-0.171,0.177-0.345,0.351-0.522,0.522  l-48.786,48.786L335.579,284.215z"/>
</svg>
