<?xml version="1.0" encoding="UTF-8"?>
<svg xmlns="http://www.w3.org/2000/svg" id="Layer_1" data-name="Layer 1" viewBox="0 0 24 24" width="512" height="512"><path d="M4.043,8.071C4.5.566,8.706.026,8.9.006A.924.924,0,0,1,9,0a4.511,4.511,0,0,1,2.415.817,1.015,1.015,0,0,0,1.171,0A4.507,4.507,0,0,1,15,0a.924.924,0,0,1,.105.006c.189.02,4.4.56,4.852,8.065A.734.734,0,0,1,19.5,8.8,20.312,20.312,0,0,1,12,10,20.316,20.316,0,0,1,4.5,8.8.734.734,0,0,1,4.043,8.071Zm18.65,1.918a.942.942,0,0,0-1.028-.035C20.564,10.6,17.538,12,12,12S3.437,10.6,2.335,9.954a.942.942,0,0,0-1.028.035A2.632,2.632,0,0,0,0,12c0,3.69,6.194,4,12,4s12-.31,12-4A2.632,2.632,0,0,0,22.693,9.989ZM16.5,17a3.5,3.5,0,0,0-3.235,2.174,4.685,4.685,0,0,0-2.53,0,3.494,3.494,0,1,0,.193,2.033A3.52,3.52,0,0,1,12,21a3.514,3.514,0,0,1,1.072.207A3.5,3.5,0,1,0,16.5,17Z"/></svg>
