<?xml version="1.0" encoding="UTF-8"?>
<svg xmlns="http://www.w3.org/2000/svg" id="Layer_1" data-name="Layer 1" viewBox="0 0 24 24" width="512" height="512"><path d="M19,18h4.54a6.957,6.957,0,0,1-1.591,2.465L20.465,21.95A6.977,6.977,0,0,1,18,23.54V19A1,1,0,0,1,19,18ZM24,5V15.515c0,.163-.013.324-.024.485H19a3,3,0,0,0-3,3v4.976c-.161.011-.322.024-.485.024H5a5.006,5.006,0,0,1-5-5V5A5.006,5.006,0,0,1,5,0H19A5.006,5.006,0,0,1,24,5ZM7,7.75A.75.75,0,0,0,6.25,7H5.5a.5.5,0,0,0,0,1h.249v.084A.759.759,0,0,1,5,8.819a.742.742,0,0,1-.749-.751V6A.742.742,0,0,1,5,5.25a.779.779,0,0,1,.662.409.626.626,0,1,0,1.11-.58A2.022,2.022,0,0,0,5,4H5A1.991,1.991,0,0,0,3,5.985v2.1a1.991,1.991,0,0,0,2,1.985H5A2,2,0,0,0,7,8.084Zm3-3.125a.625.625,0,0,0-1.25,0V9.444a.625.625,0,1,0,1.25,0Zm3,1.763V5.25h1.388a.625.625,0,0,0,0-1.25H12.375a.625.625,0,0,0-.625.625V9.436a.625.625,0,0,0,1.25,0v-1.8h1.239a.625.625,0,0,0,0-1.25Z"/></svg>
