<?xml version="1.0" encoding="UTF-8"?>
<!-- Generator: Adobe Illustrator 25.0.0, SVG Export Plug-In . SVG Version: 6.00 Build 0)  -->
<svg xmlns="http://www.w3.org/2000/svg" xmlns:xlink="http://www.w3.org/1999/xlink" version="1.1" id="Layer_1" x="0px" y="0px" viewBox="0 0 512 512" style="enable-background:new 0 0 512 512;" xml:space="preserve" width="512" height="512">
<path d="M256,169.515c17.944,0,32.491-14.547,32.491-32.491S273.944,104.533,256,104.533s-32.491,14.547-32.491,32.491  S238.056,169.515,256,169.515z"/>
<path d="M426.667,0.016H85.333C37.894,0.391-0.284,39.104,0,86.544V346.17c-0.284,47.443,37.891,86.162,85.333,86.549h62.357  l79.957,68.267c15.838,14.474,40.039,14.686,56.128,0.491l82.027-68.779h60.864c47.442-0.387,85.617-39.106,85.333-86.549V86.544  C512.284,39.104,474.106,0.391,426.667,0.016z M256,64.912c98.453,2.603,98.432,148.843,0,151.467  C157.547,213.754,157.568,67.578,256,64.912z M346.645,367.12c-11.416,2.913-23.032-3.981-25.945-15.397  c-0.013-0.052-0.026-0.103-0.039-0.155c-10.919-35.717-48.726-55.82-84.443-44.901c-21.5,6.573-38.328,23.401-44.901,44.901  c-2.981,11.405-14.643,18.234-26.048,15.253c-11.405-2.981-18.234-14.643-15.253-26.048l0,0  c16.496-58.539,77.324-92.622,135.863-76.126c36.895,10.397,65.729,39.231,76.126,76.126  C364.975,352.281,358.123,364.034,346.645,367.12z"/>
</svg>
