<?xml version="1.0" encoding="UTF-8"?>
<!-- Generator: Adobe Illustrator 25.0.0, SVG Export Plug-In . SVG Version: 6.00 Build 0)  -->
<svg xmlns="http://www.w3.org/2000/svg" xmlns:xlink="http://www.w3.org/1999/xlink" version="1.1" id="Capa_1" x="0px" y="0px" viewBox="0 0 511.201 511.201" style="enable-background:new 0 0 511.201 511.201;" xml:space="preserve" width="512" height="512">
<g>
	<path d="M496.108,203.908c-8.331-8.328-21.835-8.328-30.165,0L233.58,437.274c-41.656,41.661-109.197,41.666-150.859,0.011   s-41.666-109.197-0.011-150.859L307.756,60.463c25.193-24.792,65.715-24.467,90.507,0.726c24.507,24.904,24.512,64.86,0.011,89.77   L173.228,376.922c-8.433,8.078-21.733,8.078-30.165,0c-8.328-8.331-8.328-21.835,0-30.165l200.363-201.28   c8.185-8.475,7.951-21.98-0.524-30.165c-8.267-7.985-21.374-7.985-29.641,0l-200.363,201.28   c-24.996,24.991-24.999,65.514-0.008,90.51c0.003,0.003,0.005,0.005,0.008,0.008c25.331,24.172,65.186,24.172,90.517,0   l225.024-225.984c41.122-42.183,40.261-109.715-1.922-150.837C385.087-10.1,319.014-10.095,277.591,30.298L52.545,256.26   c-58.321,58.321-58.321,152.879,0,211.2s152.879,58.321,211.2,0l232.363-233.301c8.353-8.309,8.39-21.816,0.081-30.17   C496.162,203.962,496.135,203.935,496.108,203.908z"/>
</g>















</svg>
