<?xml version="1.0" encoding="UTF-8"?>
<svg xmlns="http://www.w3.org/2000/svg" id="Layer_1" data-name="Layer 1" viewBox="0 0 24 24" width="512" height="512"><path d="M20.467,17.3c-.021-.03-1.557-1.815-1.557-1.815a2.67,2.67,0,0,0,.616-3.663c-.025-.036-1.885-2.091-1.885-2.091a2.475,2.475,0,0,0,1.084-1.073,2.428,2.428,0,0,0-.176-2.526C18.528,6.1,13.886.846,13.886.846a2.608,2.608,0,0,0-3.771,0S5.473,6.1,5.451,6.13A2.3,2.3,0,0,0,5,7.6,1.409,1.409,0,0,0,6.41,9H12a1,1,0,0,1,0,2H5.206s-.707.784-.732.82A2.936,2.936,0,0,0,4,13.385a1.28,1.28,0,0,0,.091.522A1.84,1.84,0,0,0,5.834,15H13a1,1,0,0,1,0,2H3.782s-.228.268-.249.3a3.018,3.018,0,0,0,.6,4.058A2.881,2.881,0,0,0,5.99,22H11v1a1,1,0,0,0,2,0V22h5.01a2.883,2.883,0,0,0,1.862-.644A3.019,3.019,0,0,0,20.467,17.3Z"/></svg>
