<?xml version="1.0" encoding="UTF-8"?>
<svg xmlns="http://www.w3.org/2000/svg" id="Layer_1" data-name="Layer 1" viewBox="0 0 24 24" width="512" height="512"><path d="M9,5c0-1.657,3-5,3-5s3,3.343,3,5A3,3,0,0,1,9,5Zm7.185,2.4a2.938,2.938,0,0,0,4.147-.6c.981-1.326.592-5.8.592-5.8s-4.35.874-5.331,2.2A3.025,3.025,0,0,0,16.185,7.4Zm-8.37,0a3.025,3.025,0,0,0,.592-4.2C7.426,1.874,3.076,1,3.076,1s-.389,4.474.592,5.8A2.938,2.938,0,0,0,7.815,7.4Zm15.872,2.9A2.527,2.527,0,0,0,21.48,9H2.52A2.525,2.525,0,0,0,.311,10.309a2.4,2.4,0,0,0,.06,2.468c2.6,4.136,10.194,7.274,10.886,7.223C10.807,19.663,7,16.4,7,13H9c0,1.708,1.819,3.67,3,4.708,1.181-1.038,3-3,3-4.708h2c0,3.4-3.807,6.663-4.257,7H11.257C10.369,20.956,9,22.648,9,24h6a5.6,5.6,0,0,0-1.406-3H16a2,2,0,0,1,2,2h2a4,4,0,0,0-4-4h-.867c2.649-1.216,6.766-3.45,8.5-6.227h0A2.4,2.4,0,0,0,23.687,10.305Z"/></svg>
