<?xml version="1.0" encoding="UTF-8"?>
<svg xmlns="http://www.w3.org/2000/svg" id="Layer_1" data-name="Layer 1" viewBox="0 0 24 24" width="512" height="512"><circle cx="7" cy="22" r="2"/><circle cx="17" cy="22" r="2"/><path d="M22.813,9.583A6,6,0,0,1,12.8,3H4.242L4.2,2.648A3,3,0,0,0,1.222,0H0V2H1.222a1,1,0,0,1,.993.883L3.8,16.351A3,3,0,0,0,6.778,19H20V17H6.778a1,1,0,0,1-.993-.884L5.654,15H21.836Z"/><path d="M17.111,9.542h-.033a1.872,1.872,0,0,1-1.345-.6l-2.306-2.4L14.868,5.16,17.112,7.5,21.3,3.3l1.414,1.414L18.446,8.989A1.873,1.873,0,0,1,17.111,9.542Z"/></svg>
