<?xml version="1.0" encoding="UTF-8"?>
<!-- Generator: Adobe Illustrator 25.0.0, SVG Export Plug-In . SVG Version: 6.00 Build 0)  -->
<svg xmlns="http://www.w3.org/2000/svg" xmlns:xlink="http://www.w3.org/1999/xlink" version="1.1" id="Layer_1" x="0px" y="0px" viewBox="0 0 512 512" style="enable-background:new 0 0 512 512;" xml:space="preserve" width="512" height="512">
<polygon points="405.333,499.499 499.499,405.333 405.333,405.333 "/>
<path d="M347.947,133.909h-14.933l0.469,73.024c5.589,0,11.52,0,14.933-0.149c18.24-0.32,26.389-18.475,26.389-36.267  C374.891,161.877,372.949,133.909,347.947,133.909z"/>
<path d="M448,0H64C28.654,0,0,28.654,0,64v448h362.667V362.667H512V64C512,28.654,483.346,0,448,0z M126.869,191.36h-15.296v44.8  H84.907V106.667h41.963c23.387,0,42.347,18.959,42.347,42.347S150.257,191.36,126.869,191.36z M221.504,148.16  c0.32,0,13.099,5.611,27.136,10.795c19.593,4.434,32.601,23.041,30.037,42.965c-4.599,20.104-22.918,34.041-43.52,33.109  c-17.218,0.163-33.708-6.939-45.419-19.563l-8.96-9.877l19.755-17.856l8.96,9.877c6.703,6.926,15.963,10.784,25.6,10.667  c7.638,0.715,14.776-3.884,17.28-11.136c1.323-7.339-9.621-11.989-13.013-13.248c-16.043-5.909-30.507-12.373-30.507-12.373  c-11.882-6.794-18.442-20.126-16.576-33.685c2.257-14.156,12.6-25.676,26.432-29.44c18.265-4.589,37.625-0.357,52.309,11.435  l10.219,8.533l-17.067,20.395l-10.155-8.533c-7.773-6.104-17.852-8.448-27.52-6.4c-3.91,0.755-6.967,3.813-7.723,7.723  C218.251,144.102,219.331,146.718,221.504,148.16L221.504,148.16z M306.581,233.706l-0.235-126.293l0,0v-0.171h41.6  c32,0,53.611,25.408,53.611,63.211c0,31.733-19.491,59.619-50.894,62.925c-0.555,0.038-1.225,0.046-1.672,0.073L306.581,233.706z"/>
<path d="M126.869,133.333h-15.253v31.424h15.147c8.66,0.005,15.684-7.011,15.689-15.671s-7.011-15.684-15.671-15.689  c-0.006,0-0.012,0-0.018,0L126.869,133.333z"/>
</svg>
