<svg id="Layer_1" height="512" viewBox="0 0 24 24" width="512" xmlns="http://www.w3.org/2000/svg" data-name="Layer 1"><path d="m23.9 11.437a12 12 0 0 0 -23.9 1.563 11.878 11.878 0 0 0 3.759 8.712 4.84 4.84 0 0 0 3.354 1.288h9.767a4.994 4.994 0 0 0 3.509-1.429 11.944 11.944 0 0 0 3.511-10.134zm-16.428 8.224a1 1 0 0 1 -1.412.09 8.993 8.993 0 0 1 5.94-15.751 9.1 9.1 0 0 1 2.249.283 1 1 0 1 1 -.5 1.938 6.994 6.994 0 0 0 -6.367 12.028 1 1 0 0 1 .09 1.412zm4.528-4.661a2 2 0 1 1 .512-3.926l3.781-3.781a1 1 0 1 1 1.414 1.414l-3.781 3.781a1.976 1.976 0 0 1 -1.926 2.512zm5.94 4.751a1 1 0 0 1 -1.322-1.5 6.992 6.992 0 0 0 2.161-7 1 1 0 1 1 1.938-.5 9.094 9.094 0 0 1 .283 2.249 9 9 0 0 1 -3.06 6.751z"/></svg>