<?xml version="1.0" encoding="UTF-8"?>
<svg xmlns="http://www.w3.org/2000/svg" id="Layer_1" data-name="Layer 1" viewBox="0 0 24 24" width="512" height="512"><path d="M10,15a1,1,0,1,1-1-1A1,1,0,0,1,10,15Zm3.453-3.039,4.24-4.2a5.893,5.893,0,0,1-.252,7.677,5.024,5.024,0,0,1-1.345.96.168.168,0,0,0-.1.133A7.048,7.048,0,0,1,8.814,24a8.8,8.8,0,0,1-6.175-2.634c-3.274-3.272-3.531-8.34-.575-11.3a7.171,7.171,0,0,1,5.4-2.056A.256.256,0,0,0,7.6,7.9a5.023,5.023,0,0,1,.96-1.344,5.9,5.9,0,0,1,7.722-.212l-4.235,4.193Zm-6.5,7.582-2.5-2.5L3.043,18.457l2.5,2.5ZM12,15a3,3,0,1,0-3,3A3,3,0,0,0,12,15ZM23.482.518a1.767,1.767,0,0,0-2.5,0L19,2.5V3.656l-2.718,2.69a6.74,6.74,0,0,1,.749.623,6.855,6.855,0,0,1,.662.8L20.485,5H21.5l1.982-1.982A1.767,1.767,0,0,0,23.482.518Z"/></svg>
