<?xml version="1.0" encoding="UTF-8"?>
<svg xmlns="http://www.w3.org/2000/svg" id="Layer_1" data-name="Layer 1" viewBox="0 0 24 24" width="512" height="512"><path d="M16.424,21.974a4.943,4.943,0,0,1-5.176,1.874h0A15.857,15.857,0,0,1,.153,12.753,4.937,4.937,0,0,1,2.027,7.584,14.429,14.429,0,0,0,16.424,21.974Zm7.408-18.3L17.4,20H17A12.574,12.574,0,0,1,4,7V6.6L20.3.178A2.749,2.749,0,0,1,23.832,3.673ZM12,10a2,2,0,0,0-4,0A2,2,0,0,0,12,10Zm6.122,2.716L20.676,6.23C16.416,4.738,14.058,10.906,18.122,12.716Z"/></svg>
