<svg id="Layer_1" height="512" viewBox="0 0 24 24" width="512" xmlns="http://www.w3.org/2000/svg" data-name="Layer 1"><path d="m3.141 7.264-1.782-.9a12.09 12.09 0 0 1 1.325-1.99l1.516 1.307a10.1 10.1 0 0 0 -1.059 1.583zm-.773 1.882-1.91-.594a11.932 11.932 0 0 0 -.453 2.348l1.99.2a9.99 9.99 0 0 1 .373-1.954zm4.919-5.989-.943-1.764a12.013 12.013 0 0 0 -1.944 1.288l1.241 1.563a10.018 10.018 0 0 1 1.646-1.087zm3.757-1.111-.181-1.991a11.9 11.9 0 0 0 -2.316.445l.567 1.917a9.933 9.933 0 0 1 1.93-.371zm12.905 9.954a12 12 0 0 1 -23.949 1h4.023a7.844 7.844 0 0 1 -.074-1 7.991 7.991 0 0 1 9-7.936v-4.013a12.009 12.009 0 0 1 11 11.949zm-10 0a1.993 1.993 0 0 0 -1-1.723v-4.277h-2v4.278a1.991 1.991 0 0 0 -.722.722h-3.278v2h3.278a1.994 1.994 0 0 0 3.723-1z"/></svg>