<?xml version="1.0" encoding="UTF-8"?>
<!-- Generator: Adobe Illustrator 25.0.0, SVG Export Plug-In . SVG Version: 6.00 Build 0)  -->
<svg xmlns="http://www.w3.org/2000/svg" xmlns:xlink="http://www.w3.org/1999/xlink" version="1.1" id="Capa_1" x="0px" y="0px" viewBox="0 0 512 512" style="enable-background:new 0 0 512 512;" xml:space="preserve" width="512" height="512">
<g>
	<path d="M490.667,234.667H448V192c0-11.782-9.551-21.333-21.333-21.333c-11.782,0-21.333,9.551-21.333,21.333v42.667h-42.667   c-11.782,0-21.333,9.551-21.333,21.333c0,11.782,9.551,21.333,21.333,21.333h42.667V320c0,11.782,9.551,21.333,21.333,21.333   c11.782,0,21.333-9.551,21.333-21.333v-42.667h42.667c11.782,0,21.333-9.551,21.333-21.333   C512,244.218,502.449,234.667,490.667,234.667z"/>
	<circle cx="192" cy="128" r="128"/>
	<path d="M192,298.667c-105.99,0.118-191.882,86.01-192,192C0,502.449,9.551,512,21.333,512h341.333   c11.782,0,21.333-9.551,21.333-21.333C383.882,384.677,297.99,298.784,192,298.667z"/>
</g>















</svg>
