<svg id="Layer_1" height="512" viewBox="0 0 24 24" width="512" xmlns="http://www.w3.org/2000/svg" data-name="Layer 1"><path d="m16 4.018a6 6 0 0 1 5.233 3.545l1.528 3.437h-5.761a1 1 0 0 1 -1-1zm-7.058 16.982a2.424 2.424 0 0 1 .058.5 2.5 2.5 0 0 1 -5 0 2.424 2.424 0 0 1 .058-.5zm11 0a2.424 2.424 0 0 1 .058.5 2.5 2.5 0 0 1 -5 0 2.424 2.424 0 0 1 .058-.5zm4.058-4.878a2.852 2.852 0 0 1 -3 2.878h-18a3 3 0 0 1 -3-3v-7a5.006 5.006 0 0 1 5-5h4.2l.66-2.642a1.794 1.794 0 0 1 3.48 0l.66 2.642v6a3 3 0 0 0 3 3h6.537a16.113 16.113 0 0 1 .463 3.122zm-14-4.122a1 1 0 0 0 -1-1h-1v-1a1 1 0 0 0 -2 0v1h-1a1 1 0 0 0 0 2h1v1a1 1 0 0 0 2 0v-1h1a1 1 0 0 0 1-1z"/></svg>