<?xml version="1.0" encoding="UTF-8"?>
<svg xmlns="http://www.w3.org/2000/svg" id="Layer_1" data-name="Layer 1" viewBox="0 0 24 24" width="512" height="512"><path d="M7,21v3H5V21H2v3H0V15H2v4H5A2,2,0,0,1,7,21Zm15-2H19a2,2,0,0,0-2,2v3h2V21h3v3h2V15H22Zm2-9.454V13H13V24H11V13H0V9.546A3.015,3.015,0,0,1,1.233,7.12h0l9-6.545a3,3,0,0,1,3.53,0l9,6.545A3.015,3.015,0,0,1,24,9.546Zm-4,.162a2.987,2.987,0,0,0-.5-1.66L12,.125,4.5,8.048A2.987,2.987,0,0,0,4,9.708V11H6V9.708a1,1,0,0,1,.13-.493L11,4.083V11h2V4.083l4.87,5.132a1,1,0,0,1,.13.493V11h2Z"/></svg>
