<svg id="Layer_1" height="512" viewBox="0 0 24 24" width="512" xmlns="http://www.w3.org/2000/svg" data-name="Layer 1"><path d="m20 10v4a4.977 4.977 0 0 1 -2 3.974v-2.974a7.009 7.009 0 0 0 -7-7h-6c-.2 0-.4.013-.592.03a5.006 5.006 0 0 1 4.592-3.03h6a5.006 5.006 0 0 1 5 5zm-8.406 8.577a2 2 0 0 1 -2.83 0l-.476-.48-5.909 5.128a4.956 4.956 0 0 0 2.647.775h6a5.006 5.006 0 0 0 5-5v-4a4.983 4.983 0 0 0 -.081-.8zm3.551-6.4-4.962 4.994-.475-.479a1.993 1.993 0 0 0 -2.708-.114l-6.078 5.265a4.962 4.962 0 0 1 -.896-2.843v-4a5.006 5.006 0 0 1 5-5h6a5 5 0 0 1 4.119 2.175zm-10.145 1.923a1 1 0 1 0 -1 1 1 1 0 0 0 1-1zm14-14.1h-6a4.994 4.994 0 0 0 -4.579 3.029c.191-.015.384-.029.579-.029h6a7.009 7.009 0 0 1 7 7v2.974a4.977 4.977 0 0 0 2-3.974v-4a5.006 5.006 0 0 0 -5-5z"/></svg>