<?xml version="1.0" encoding="UTF-8"?>
<svg xmlns="http://www.w3.org/2000/svg" id="Layer_1" data-name="Layer 1" viewBox="0 0 24 24" width="512" height="512"><path d="M19,18h4.54a6.957,6.957,0,0,1-1.591,2.465L20.465,21.95A6.977,6.977,0,0,1,18,23.54V19A1,1,0,0,1,19,18ZM10.09,5.181H9.252L9.258,6.9l.832,0a.86.86,0,1,0,0-1.719ZM24,5V15.515c0,.163-.013.324-.024.485H19a3,3,0,0,0-3,3v4.976c-.161.011-.322.024-.485.024H5a5.006,5.006,0,0,1-5-5V5A5.006,5.006,0,0,1,5,0H19A5.006,5.006,0,0,1,24,5ZM7,4.581a.65.65,0,1,0-1.3,0l0,3.339a.771.771,0,0,1-.778.781.818.818,0,0,1-.687-.459.651.651,0,1,0-1.162.587A2.109,2.109,0,0,0,4.921,10h0A2.069,2.069,0,0,0,7,7.937Zm5.229,1.46a2.126,2.126,0,0,0-2.139-2.11H9a1,1,0,0,0-1,1V9.375a.625.625,0,0,0,1.25,0V8.154l.84,0A2.126,2.126,0,0,0,12.229,6.041ZM17,7.681a.75.75,0,0,0-.75-.75H15.5a.5.5,0,0,0,0,1h.249v.084A.759.759,0,0,1,15,8.75.742.742,0,0,1,14.251,8V5.932A.742.742,0,0,1,15,5.181a.778.778,0,0,1,.662.41.635.635,0,0,0,.555.34.628.628,0,0,0,.555-.921A2.022,2.022,0,0,0,15,3.932h0a1.991,1.991,0,0,0-2,1.985v2.1A1.991,1.991,0,0,0,15,10h0a2,2,0,0,0,2-1.984Z"/></svg>
