<?xml version="1.0" encoding="UTF-8"?>
<svg xmlns="http://www.w3.org/2000/svg" id="Layer_1" data-name="Layer 1" viewBox="0 0 24 24" width="512" height="512"><path d="M18.974,3A4.948,4.948,0,0,0,20,0H18a3,3,0,0,1-3,3H9A3,3,0,0,1,6,0H4A4.948,4.948,0,0,0,5.026,3H0V4A6.454,6.454,0,0,0,1.691,7.9,50.655,50.655,0,0,1,6.146,4.1a4.954,4.954,0,0,0,2.262.845S5.577,7.077,4.538,8H6a5.006,5.006,0,0,1,5,5v5H9V13a2.974,2.974,0,0,0-.194-1.032h0A1.5,1.5,0,0,1,7.032,10.2h0A2.979,2.979,0,0,0,6,10H3.435l2.586,11.2A2.994,2.994,0,0,0,9,24h6a2.994,2.994,0,0,0,2.979-2.8L20.565,10H18a2.979,2.979,0,0,0-1.032.194h0A1.5,1.5,0,0,1,15.2,11.968h0A2.974,2.974,0,0,0,15,13v5H13V13a5.006,5.006,0,0,1,5-5h1.462c-1.039-.923-3.87-3.06-3.87-3.06A4.954,4.954,0,0,0,17.854,4.1,50.655,50.655,0,0,1,22.309,7.9,6.454,6.454,0,0,0,24,4V3ZM15,20a1,1,0,0,1,0,2H9a1,1,0,0,1,0-2Z"/></svg>
