<?xml version="1.0" encoding="UTF-8"?>
<svg xmlns="http://www.w3.org/2000/svg" id="Layer_1" data-name="Layer 1" viewBox="0 0 24 24" width="512" height="512"><path d="M14.414,4.622A6.071,6.071,0,0,0,17,0h2a6.948,6.948,0,0,1-.943,3.484A31.656,31.656,0,0,1,22,3a24.507,24.507,0,0,1-1.335,7H16.414l2.293-2.293L17.293,6.293,13.586,10H12.244a4.459,4.459,0,0,1,1.062-4.611A4.468,4.468,0,0,1,14.414,4.622Zm8.966,8.552A3.007,3.007,0,0,0,20.988,12H3A3.01,3.01,0,0,0,.608,13.174a2.907,2.907,0,0,0-.528,2.52C1,18.694,4.908,22.336,8,24h8C19.043,22.325,26.016,16.642,23.38,13.174ZM2.02,10h8.36A4.186,4.186,0,0,0,2.02,10ZM6.2,4a6.153,6.153,0,0,1,4.4,1.847,6.044,6.044,0,0,1,2.714-2.9A4.97,4.97,0,0,0,14.763,1.1,3.976,3.976,0,0,0,9.5.905,3.969,3.969,0,0,0,3.1,4.838,6.148,6.148,0,0,1,6.2,4Z"/></svg>
