<svg id="Layer_1" height="512" viewBox="0 0 24 24" width="512" xmlns="http://www.w3.org/2000/svg" data-name="Layer 1"><path d="m16 8a7.965 7.965 0 0 0 -4.546 1.434c.178.386.376.778.585 1.181a13.58 13.58 0 0 1 1.961 6.385 12.788 12.788 0 0 1 -1.507 6.2 8 8 0 1 0 3.507-15.2zm1 8a1 1 0 1 1 1-1 1 1 0 0 1 -1 1zm2-3a1 1 0 1 1 1-1 1 1 0 0 1 -1 1zm2 3a1 1 0 1 1 1-1 1 1 0 0 1 -1 1zm-10.736-4.463a11.781 11.781 0 0 1 1.736 5.463 9.732 9.732 0 0 1 -2.293 6.707l-.293.293h-6.828l-.293-.293a9.732 9.732 0 0 1 -2.293-6.707 11.781 11.781 0 0 1 1.736-5.463c.273-.525.536-1.037.753-1.537h7.022c.217.5.48 1.012.753 1.537zm-7.818-5.712a7.168 7.168 0 0 1 -.446-1.825 4 4 0 0 1 8 0 7.168 7.168 0 0 1 -.446 1.825 11.618 11.618 0 0 0 -.554 2.175h-6a11.618 11.618 0 0 0 -.554-2.175z"/></svg>