<?xml version="1.0" encoding="UTF-8"?>
<svg xmlns="http://www.w3.org/2000/svg" id="Layer_1" data-name="Layer 1" viewBox="0 0 24 24" width="512" height="512"><path d="M24,6.857C24,7.542,23.659,8,22.974,8h-5.99c-.166,7.694-2.268,12.2-7.148,14.369a12.389,12.389,0,0,0-8.208-8.2C3.8,9.286,8.3,7.182,16,7.016V1.026C16,.341,16.458,0,17.143,0a3.446,3.446,0,0,1,3.428,3.429A3.446,3.446,0,0,1,24,6.857ZM7.961,23.066A28.738,28.738,0,0,1,0,24a28.731,28.731,0,0,1,.932-7.953A10.365,10.365,0,0,1,7.961,23.066ZM4,21a1,1,0,0,0-2,0A1,1,0,0,0,4,21ZM12,5.3V3A23.642,23.642,0,0,0,3.622,4.775,3,3,0,0,0,2,7.44V9.914C4.241,7.4,7.49,5.9,12,5.3ZM18.7,12a20.092,20.092,0,0,1-1.651,6h1.245c3.088-.119,2.557-3.586,2.708-6Z"/></svg>
