<?xml version="1.0" encoding="UTF-8"?>
<!-- Generator: Adobe Illustrator 25.0.0, SVG Export Plug-In . SVG Version: 6.00 Build 0)  -->
<svg xmlns="http://www.w3.org/2000/svg" xmlns:xlink="http://www.w3.org/1999/xlink" version="1.1" id="Layer_1" x="0px" y="0px" viewBox="0 0 512 512" style="enable-background:new 0 0 512 512;" xml:space="preserve" width="512" height="512">
<path d="M64.004,133.44V44.565C63.504,20.486,82.592,0.548,106.671,0h85.333c12.306,0,22.283,9.976,22.283,22.283  s-9.976,22.283-22.283,22.283h-54.635l125.995,131.797c0.865,0.93,2.079,1.456,3.349,1.451l0,0c1.262,0.016,2.471-0.503,3.328-1.429  L416.943,23.232c20.523-20.693,49.579,11.563,30.165,31.467l-146.88,153.088c-8.702,9.22-20.815,14.451-33.493,14.464l0,0  c-12.701-0.026-24.83-5.28-33.536-14.528L106.671,75.371v58.069c0,11.782-9.551,21.333-21.333,21.333S64.004,145.222,64.004,133.44z   M478.831,342.507c-95.765-99.797-349.867-99.819-445.632,0C11.562,365.05-0.358,395.188,0.004,426.432l1.728,25.045  C1.1,484.183,27.034,511.242,59.737,512c0.939,0,53.824-7.168,53.824-7.168c31.523-1.541,56.336-27.469,56.491-59.029l3.371-40.064  c26.202-10.792,54.244-16.413,82.581-16.555c28.357,0.41,56.391,6.096,82.667,16.768l3.328,39.851  c0.155,31.561,24.967,57.488,56.491,59.029c0,0,52.885,7.168,53.824,7.168c32.19-0.524,58.01-26.771,58.005-58.965l1.685-28.096  c0.041-30.723-11.862-60.259-33.195-82.368L478.831,342.507z"/>
</svg>
