<?xml version="1.0" encoding="UTF-8"?>
<svg xmlns="http://www.w3.org/2000/svg" id="Layer_1" data-name="Layer 1" viewBox="0 0 24 24" width="512" height="512"><path d="M16,10.7c0,1.5-2.259,3.732-4,5.062-1.741-1.33-4-3.56-4-5.062-.076-2.006,2.913-2.4,3-.246V11a1,1,0,0,0,2,0v-.546C13.087,8.3,16.076,8.694,16,10.7Zm8,1.64V19a5.007,5.007,0,0,1-5,5H13.084C6.082,24,.47,19.208.029,12.855A12,12,0,0,1,12.836.028,12.209,12.209,0,0,1,24,12.34ZM18,10.7a3.567,3.567,0,0,0-6-2.71A3.567,3.567,0,0,0,6,10.7c0,3.256,4.874,6.736,5.43,7.122a1,1,0,0,0,1.14,0C13.126,17.436,18,13.956,18,10.7Z"/></svg>
