<?xml version="1.0" encoding="UTF-8"?>
<!-- Generator: Adobe Illustrator 25.0.0, SVG Export Plug-In . SVG Version: 6.00 Build 0)  -->
<svg xmlns="http://www.w3.org/2000/svg" xmlns:xlink="http://www.w3.org/1999/xlink" version="1.1" id="Capa_1" x="0px" y="0px" viewBox="0 0 512.047 512.047" style="enable-background:new 0 0 512.047 512.047;" xml:space="preserve" width="512" height="512">
<g>
	<circle cx="192" cy="128.024" r="128"/>
	<path d="M192,298.69C86.015,298.82,0.129,384.705,0,490.69c0,11.782,9.551,21.333,21.333,21.333h341.333   c11.782,0,21.333-9.551,21.333-21.333C383.871,384.705,297.985,298.82,192,298.69z"/>
	<path d="M469.333,168.024c-24.717,1.231-43.79,22.211-42.667,46.933c1.123-24.722-17.949-45.702-42.667-46.933   c-24.717,1.231-43.79,22.211-42.667,46.933c0,36.907,48.128,80.149,72.107,99.392c7.731,6.19,18.722,6.19,26.453,0   c23.979-19.2,72.107-62.485,72.107-99.392C513.123,190.234,494.051,169.255,469.333,168.024z"/>
</g>















</svg>
