<?xml version="1.0" encoding="UTF-8"?>
<svg xmlns="http://www.w3.org/2000/svg" id="Layer_1" data-name="Layer 1" viewBox="0 0 24 24" width="512" height="512"><path d="M12,9a4,4,0,0,0-2.829,6.829l2.287,2.236a.78.78,0,0,0,1.083,0l2.3-2.244A4,4,0,0,0,12,9Zm0,4.992a1,1,0,1,1,1-1A1,1,0,0,1,12,13.992Zm9.8-8.413L14.8.855A4.979,4.979,0,0,0,9.2.855l-7,4.724A5,5,0,0,0,0,9.724V19a5.006,5.006,0,0,0,5,5H19a5.006,5.006,0,0,0,5-5V9.724A5,5,0,0,0,21.8,5.579ZM16.243,17.243,13.94,19.5a2.79,2.79,0,0,1-3.88,0l-2.3-2.245a6,6,0,1,1,8.478-8.493h0A6.008,6.008,0,0,1,16.243,17.243Z"/></svg>
