<?xml version="1.0" encoding="UTF-8"?>
<svg xmlns="http://www.w3.org/2000/svg" id="Layer_1" data-name="Layer 1" viewBox="0 0 24 24" width="512" height="512"><path d="M8,0H3A3,3,0,0,0,0,3V8H3L2.979,11l2,.01L5,8H8V4.984L11,5l.01-2L8,2.984Z"/><path d="M21,0H16V3l-2.995-.016-.01,2L16,5V8h3.015L19,11l2,.01L21.015,8H24V3A3,3,0,0,0,21,0Z"/><path d="M21.021,13.005l-2-.01L19.005,16H16v3.016L13.005,19,13,21,16,21.016V24h5a3,3,0,0,0,3-3V16h-3Z"/><path d="M8,16H4.985L5,13.005,3,13,2.985,16H0v5a3,3,0,0,0,3,3H8v-3L11,21.021l.01-2L8,19.005Z"/></svg>
