<?xml version="1.0" encoding="UTF-8"?>
<!-- Generator: Adobe Illustrator 25.0.0, SVG Export Plug-In . SVG Version: 6.00 Build 0)  -->
<svg xmlns="http://www.w3.org/2000/svg" xmlns:xlink="http://www.w3.org/1999/xlink" version="1.1" id="Layer_1" x="0px" y="0px" viewBox="0 0 512 512" style="enable-background:new 0 0 512 512;" xml:space="preserve" width="512" height="512">
<path d="M277.259,196.883c0,22.867-34.067,58.957-63.875,82.633c-29.808-23.676-63.875-59.766-63.875-82.633  c-1.063-12.899,8.412-24.269,21.292-25.55c10.992-0.768,20.524,7.521,21.292,18.512c0.065,0.925,0.065,1.854,0,2.78h42.583  c-0.768-10.992,7.521-20.524,18.512-21.292c0.925-0.065,1.854-0.065,2.78,0C268.841,172.624,278.31,183.987,277.259,196.883z   M512,481.894L481.894,512L348.565,378.671c-91.18,74.553-225.533,61.074-300.086-30.106S-12.595,123.032,78.586,48.479  s225.533-61.074,300.086,30.106c64.216,78.538,64.216,191.442,0,269.979L512,481.894z M319.842,196.883  c1.088-36.42-27.461-66.872-63.875-68.134c-15.906,0.072-31.167,6.298-42.583,17.374c-11.428-11.059-26.681-17.282-42.583-17.374  c-36.42,1.25-64.975,31.709-63.875,68.134c0,58.382,84.507,119.851,94.152,126.664l12.307,8.708l12.285-8.708  C235.314,316.734,319.842,255.264,319.842,196.883z"/>
</svg>
