<?xml version="1.0" encoding="UTF-8"?>
<svg xmlns="http://www.w3.org/2000/svg" id="Layer_1" data-name="Layer 1" viewBox="0 0 24 24" width="512" height="512"><g id="_21_opacity" data-name="21 opacity"><path d="M4.309,5.608,2.772,4.329A11.945,11.945,0,0,0,.71,7.924l1.881.68A9.945,9.945,0,0,1,4.309,5.608Z"/><path d="M2,12a10.1,10.1,0,0,1,.148-1.722L.177,9.936a12.137,12.137,0,0,0,0,4.142l1.97-.344A10.115,10.115,0,0,1,2,12Z"/><path d="M8.507,2.627,7.808.753a11.95,11.95,0,0,0-3.574,2.1l1.3,1.524A9.96,9.96,0,0,1,8.507,2.627Z"/><path d="M4.244,21.157a11.957,11.957,0,0,0,3.577,2.095l.7-1.875a9.931,9.931,0,0,1-2.98-1.746Z"/><path d="M2.6,15.408l-1.88.681a11.98,11.98,0,0,0,2.066,3.593L4.317,18.4A9.97,9.97,0,0,1,2.6,15.408Z"/><path d="M12,0A12.107,12.107,0,0,0,9.829.2l.36,1.968A10.033,10.033,0,0,1,12,2V22a10.033,10.033,0,0,1-1.811-.164L9.829,23.8A12.01,12.01,0,0,0,24,12,12.013,12.013,0,0,0,12,0Z"/></g></svg>
