<?xml version="1.0" encoding="UTF-8"?>
<!-- Generator: Adobe Illustrator 25.0.0, SVG Export Plug-In . SVG Version: 6.00 Build 0)  -->
<svg xmlns="http://www.w3.org/2000/svg" xmlns:xlink="http://www.w3.org/1999/xlink" version="1.1" id="Layer_1" x="0px" y="0px" viewBox="0 0 512 512" style="enable-background:new 0 0 512 512;" xml:space="preserve" width="512" height="512">
<path d="M448.357,286.397c-17.282,0.007-33.812,7.073-45.76,19.56l-48.517-20.62c3.316-9.922,5.062-20.3,5.176-30.761  c-0.117-56.19-45.639-101.713-101.829-101.829c-8.495,0.106-16.942,1.289-25.139,3.522l-27.897-49.663  c23.62-25.887,21.782-66.021-4.105-89.641s-66.021-21.782-89.641,4.105s-21.782,66.021,4.105,89.641  c11.741,10.713,27.075,16.629,42.97,16.579c3.051-0.087,6.093-0.392,9.101-0.912l27.43,48.793  c-41.2,32.082-50.98,90.366-22.509,134.139l-80.275,77.666c-32.847-14.572-71.288,0.243-85.86,33.09s0.243,71.288,33.09,85.86  c32.847,14.572,71.288-0.243,85.86-33.09c8.105-18.269,7.364-39.25-2.011-56.902l78.939-76.372  c41.939,27.906,98.038,20.578,131.402-17.163l52.357,22.233c-0.148,1.803-0.53,3.543-0.53,5.367  c0,35.149,28.494,63.643,63.643,63.643S512,385.147,512,349.998s-28.494-63.643-63.643-63.643V286.397z"/>
</svg>
