<?xml version="1.0" encoding="UTF-8"?>
<!-- Generator: Adobe Illustrator 25.0.0, SVG Export Plug-In . SVG Version: 6.00 Build 0)  -->
<svg xmlns="http://www.w3.org/2000/svg" xmlns:xlink="http://www.w3.org/1999/xlink" version="1.1" id="Capa_1" x="0px" y="0px" viewBox="0 0 512 512" style="enable-background:new 0 0 512 512;" xml:space="preserve" width="512" height="512">
<g>
	<path d="M42.667,234.667h234.667C300.897,234.667,320,215.564,320,192V42.667C320,19.103,300.897,0,277.333,0H42.667   C19.103,0,0,19.103,0,42.667V192C0,215.564,19.103,234.667,42.667,234.667z"/>
	<path d="M504.704,18.816C496.775,7.054,483.518,0.002,469.333,0h-64c-23.564,0-42.667,19.103-42.667,42.667V192   c0,23.564,19.102,42.667,42.667,42.667h64C492.898,234.667,512,215.564,512,192V42.667   C512.014,34.165,509.472,25.855,504.704,18.816z"/>
	<path d="M130.517,284.629c-7.039-4.768-15.349-7.31-23.851-7.296h-64C19.103,277.333,0,296.436,0,320v149.333   C0,492.898,19.103,512,42.667,512h64c23.564,0,42.667-19.103,42.667-42.667V320C149.331,305.815,142.279,292.559,130.517,284.629z"/>
	<path d="M493.184,284.629c-7.039-4.768-15.349-7.31-23.851-7.296H234.667C211.103,277.333,192,296.436,192,320v149.333   C192,492.898,211.103,512,234.667,512h234.667C492.898,512,512,492.898,512,469.333V320   C511.998,305.815,504.946,292.559,493.184,284.629z"/>
</g>















</svg>
