<?xml version="1.0" encoding="UTF-8"?>
<svg xmlns="http://www.w3.org/2000/svg" id="Layer_1" data-name="Layer 1" viewBox="0 0 24 24" width="512" height="512"><path d="M16.339,2.975c.636-.859,2.623-1.536,4.044-1.928A1.272,1.272,0,0,1,22,2.252c.028,1.493-.056,3.629-.7,4.492a3.076,3.076,0,0,1-4.341.628A3.169,3.169,0,0,1,16.339,2.975Zm.181,16.078A3.992,3.992,0,0,1,20,23a1,1,0,0,1-2,0,2,2,0,0,0-2-2H14.3a4.246,4.246,0,0,1,.487.649,1.517,1.517,0,0,1,.008,1.544A1.594,1.594,0,0,1,13.411,24H10.589a1.594,1.594,0,0,1-1.382-.807,1.517,1.517,0,0,1,.008-1.544,4.826,4.826,0,0,1,.991-1.16C6.635,19.278,0,16.12,0,12.077A3.04,3.04,0,0,1,3.082,9H20.918A3.04,3.04,0,0,1,24,12.077C24,15.336,19.921,17.7,16.52,19.053Zm-.288-6.024a1,1,0,0,0-1.2.739A11.727,11.727,0,0,1,12,18.622a11.727,11.727,0,0,1-3.027-4.854,1,1,0,0,0-1.947.461c.029.123.5,2.892,4.168,6.385A1.307,1.307,0,0,0,12,21c.41,0,1.325-.871,1.325-.871a16.179,16.179,0,0,0,3.649-5.9A1,1,0,0,0,16.232,13.029ZM12,8a3.283,3.283,0,0,0,3.283-3.283c0-1.129-1.272-2.972-2.232-4.2a1.333,1.333,0,0,0-2.1,0c-.96,1.232-2.232,3.075-2.232,4.2A3.283,3.283,0,0,0,12,8ZM7.041,7.372a3.169,3.169,0,0,0,.62-4.4c-.636-.859-2.623-1.536-4.044-1.928a1.272,1.272,0,0,0-1.612,1.2c-.028,1.493.056,3.629.7,4.492A3.076,3.076,0,0,0,7.041,7.372Z"/></svg>
