<?xml version="1.0" encoding="UTF-8"?>
<svg xmlns="http://www.w3.org/2000/svg" id="Layer_1" data-name="Layer 1" viewBox="0 0 24 24" width="512" height="512"><path d="M10.357,2.921l-1.416,2.3a1,1,0,0,1-1.7-1.048l1.416-2.3a3.948,3.948,0,0,1,6.692,0l4.2,6.834.441-2.365a1,1,0,0,1,1.967.366l-.5,2.67a3,3,0,0,1-3.529,2.393l-2.63-.518a1,1,0,0,1,.386-1.962l2.133.421L13.643,2.921A1.934,1.934,0,0,0,10.357,2.921ZM23.409,14.98l-.968-1.572a1,1,0,1,0-1.7,1.048l.968,1.572a1.934,1.934,0,0,1,.041,1.98A1.91,1.91,0,0,1,20.062,19H12.676l1.271-1.269a1,1,0,0,0-1.412-1.416L10.843,18A2.862,2.862,0,0,0,10,19.945v.062a2.885,2.885,0,0,0,.858,2.078l1.682,1.652a1,1,0,1,0,1.4-1.427L12.609,21h7.453a3.948,3.948,0,0,0,3.347-6.02ZM8.047,9.146a3,3,0,0,0-3.53-2.393l-2.629.518a1,1,0,1,0,.386,1.962l2.108-.415L.591,14.98A3.948,3.948,0,0,0,3.937,21H7.08a1,1,0,0,0,0-2H3.937a1.91,1.91,0,0,1-1.684-.992,1.934,1.934,0,0,1,.041-1.98L6.132,9.79l.446,2.394a1,1,0,0,0,1.967-.368Z"/></svg>
