<svg id="Layer_1" height="512" viewBox="0 0 24 24" width="512" xmlns="http://www.w3.org/2000/svg" data-name="Layer 1"><path d="m14.181.207a1 1 0 0 0 -1.181.983v2.879a7.954 7.954 0 0 0 -8.931 8.931h-2.879a1 1 0 0 0 -.983 1.181 12 12 0 1 0 13.974-13.974zm-2.181 13.793a1.994 1.994 0 0 1 -1.723-1h-2.277a1 1 0 0 1 0-2h2.277a2 2 0 0 1 .723-.723v-3.277a1 1 0 0 1 2 0v3.277a1.994 1.994 0 0 1 -1 3.723zm-2.028-13.9a1 1 0 1 1 -1 1 1 1 0 0 1 1-1zm-4.1 1.756a1 1 0 1 1 -1 1 1 1 0 0 1 .997-1.002zm-3.093 2.985a1 1 0 1 1 -1 1 1 1 0 0 1 1-1zm-1.6 4.167a1 1 0 1 1 -1 1 1 1 0 0 1 .998-1z"/></svg>