<svg id="Layer_1" height="512" viewBox="0 0 24 24" width="512" xmlns="http://www.w3.org/2000/svg" data-name="Layer 1"><path d="m16.551 12a12.556 12.556 0 0 0 4.406-7.449 3.943 3.943 0 0 0 -.918-3.151 4.017 4.017 0 0 0 -3.039-1.4h-9.995a4.014 4.014 0 0 0 -3.044 1.4 3.94 3.94 0 0 0 -.917 3.158 12.522 12.522 0 0 0 4.401 7.442 12.522 12.522 0 0 0 -4.4 7.444 3.94 3.94 0 0 0 .916 3.156 4.014 4.014 0 0 0 3.044 1.4h9.995a4.017 4.017 0 0 0 3.044-1.4 3.944 3.944 0 0 0 .918-3.156 12.557 12.557 0 0 0 -4.411-7.444zm1.277 8.559a1 1 0 0 1 -.828.441h-10a1 1 0 0 1 -.928-1.374 14.856 14.856 0 0 1 4.6-5.656l.7-.559a1 1 0 0 1 1.245 0l.69.551a15.013 15.013 0 0 1 4.61 5.662 1 1 0 0 1 -.089.935zm-2.479-1.559h-6.7a14.962 14.962 0 0 1 3.271-3.462l.08-.066.071.055a15.3 15.3 0 0 1 3.278 3.473z"/></svg>