<?xml version="1.0" encoding="UTF-8"?>
<!-- Generator: Adobe Illustrator 25.0.0, SVG Export Plug-In . SVG Version: 6.00 Build 0)  -->
<svg xmlns="http://www.w3.org/2000/svg" xmlns:xlink="http://www.w3.org/1999/xlink" version="1.1" id="Capa_1" x="0px" y="0px" viewBox="0 0 512 512" style="enable-background:new 0 0 512 512;" xml:space="preserve" width="512" height="512">
<g>
	<path d="M42.667,373.333H96c23.564,0,42.667,19.102,42.667,42.667v53.333C138.667,492.898,119.564,512,96,512H42.667   C19.103,512,0,492.898,0,469.333V416C0,392.436,19.103,373.333,42.667,373.333z"/>
	<path d="M493.184,380.629c-7.039-4.768-15.349-7.31-23.851-7.296H416c-23.564,0-42.667,19.102-42.667,42.667v53.333   C373.333,492.898,392.436,512,416,512h53.333C492.898,512,512,492.898,512,469.333V416   C511.998,401.815,504.946,388.559,493.184,380.629z"/>
	<path d="M42.667,186.667H96c23.564,0,42.667,19.103,42.667,42.667v53.333c0,23.564-19.103,42.667-42.667,42.667H42.667   C19.103,325.333,0,306.231,0,282.667v-53.333C0,205.769,19.103,186.667,42.667,186.667z"/>
	<path d="M493.184,193.963c-7.039-4.768-15.349-7.31-23.851-7.296H416c-23.564,0-42.667,19.103-42.667,42.667v53.333   c0,23.564,19.103,42.667,42.667,42.667h53.333c23.564,0,42.667-19.103,42.667-42.667v-53.333   C511.998,215.148,504.946,201.892,493.184,193.963z"/>
	<path d="M42.667,0H96c23.564,0,42.667,19.103,42.667,42.667V96c0,23.564-19.103,42.667-42.667,42.667H42.667   C19.103,138.667,0,119.564,0,96V42.667C0,19.103,19.103,0,42.667,0z"/>
	<path d="M306.517,380.629c-7.039-4.768-15.349-7.31-23.851-7.296h-53.333c-23.564,0-42.667,19.102-42.667,42.667v53.333   c0,23.564,19.103,42.667,42.667,42.667h53.333c23.564,0,42.667-19.102,42.667-42.667V416   C325.331,401.815,318.279,388.559,306.517,380.629z"/>
	<path d="M306.517,193.963c-7.039-4.768-15.349-7.31-23.851-7.296h-53.333c-23.564,0-42.667,19.103-42.667,42.667v53.333   c0,23.564,19.103,42.667,42.667,42.667h53.333c23.564,0,42.667-19.103,42.667-42.667v-53.333   C325.331,215.148,318.279,201.892,306.517,193.963z"/>
	<path d="M306.517,7.296c-7.039-4.768-15.349-7.31-23.851-7.296h-53.333c-23.564,0-42.667,19.103-42.667,42.667V96   c0,23.564,19.103,42.667,42.667,42.667h53.333c23.564,0,42.667-19.103,42.667-42.667V42.667   C325.331,28.482,318.279,15.225,306.517,7.296z"/>
	<path d="M504.704,18.816C496.775,7.054,483.518,0.002,469.333,0H416c-23.564,0-42.667,19.103-42.667,42.667V96   c0,23.564,19.103,42.667,42.667,42.667h53.333C492.898,138.667,512,119.564,512,96V42.667   C512.014,34.165,509.472,25.855,504.704,18.816z"/>
</g>















</svg>
