<?xml version="1.0" encoding="UTF-8"?>
<!-- Generator: Adobe Illustrator 25.0.0, SVG Export Plug-In . SVG Version: 6.00 Build 0)  -->
<svg xmlns="http://www.w3.org/2000/svg" xmlns:xlink="http://www.w3.org/1999/xlink" version="1.1" id="Layer_1" x="0px" y="0px" viewBox="0 0 512 512" style="enable-background:new 0 0 512 512;" xml:space="preserve" width="512" height="512">
<g>
	<path d="M255.521,207.607c42.886-32.391,98.351-43.105,150.216-29.016c0.361-4.245,0.764-8.278,0.764-12.502   c0.01-83.618-67.768-151.412-151.386-151.422c-83.618-0.01-151.412,67.768-151.423,151.386v0.036c0,4.245,0.403,8.49,0.785,12.736   C156.565,164.497,212.352,175.128,255.521,207.607z"/>
	<path d="M239.559,295.142c10.578,1.268,21.272,1.225,31.839-0.127c-4.155-9.913-9.508-19.28-15.941-27.891   C249.036,275.781,243.697,285.19,239.559,295.142z"/>
	<polygon points="422.526,208.116 422.526,208.116 422.526,208.116  "/>
	<path d="M449.092,223.425c-8.314-5.99-17.215-11.119-26.566-15.308c-13.307,52.169-50.088,95.2-99.549,116.467   c0.895,6.891,1.363,13.831,1.401,20.78c0.093,46.473-18.681,90.993-52.025,123.365c67.739,48.805,162.216,33.457,211.021-34.282   C532.179,366.707,516.831,272.23,449.092,223.425z"/>
	<path d="M186.706,345.363c0.027-6.813,0.474-13.618,1.337-20.377c-49.71-20.936-86.817-63.851-100.356-116.063   C11.935,244.08-20.973,333.989,14.184,409.741c35.157,75.752,125.067,108.661,200.819,73.504   c8.476-3.934,16.568-8.644,24.174-14.072C205.558,436.769,186.609,392.056,186.706,345.363z"/>
	<path d="M281.607,336.66c-17.27,2.681-34.846,2.731-52.131,0.149c-0.212,2.865-0.318,5.731-0.318,8.49   c-0.069,28.366,9.202,55.965,26.384,78.536c17.184-22.569,26.456-50.17,26.384-78.536   C281.926,342.497,281.82,339.568,281.607,336.66z"/>
	<path d="M198.317,283.298c6.366-16.575,15.251-32.068,26.341-45.933c-26.426-18.043-58.56-25.748-90.295-21.65   C146.69,245.312,169.445,269.358,198.317,283.298z"/>
	<path d="M286.404,237.365c11.017,13.757,19.852,29.127,26.193,45.572c28.462-14.05,50.866-37.94,63.062-67.244   C344.261,211.804,312.523,219.51,286.404,237.365z"/>
</g>
</svg>
