<?xml version="1.0" encoding="UTF-8"?>
<svg xmlns="http://www.w3.org/2000/svg" id="Filled" viewBox="0 0 24 24" width="512" height="512"><path d="M16,13a5,5,0,0,1-8,0,4.956,4.956,0,0,1-7,.977V19a5.006,5.006,0,0,0,5,5H18a5.006,5.006,0,0,0,5-5V13.974A4.956,4.956,0,0,1,16,13Z"/><path d="M21.7,3.131A3.975,3.975,0,0,0,17.792,0H17V3a1,1,0,0,1-2,0V0H9V3A1,1,0,0,1,7,3V0H6.208A3.975,3.975,0,0,0,2.3,3.132L1.022,8.9,1,10.02A3,3,0,0,0,7,10a1,1,0,0,1,2,0,3,3,0,1,0,6,0,1,1,0,0,1,2,0,3,3,0,1,0,6,0V9.107Z"/></svg>
