<svg id="Layer_1" height="512" viewBox="0 0 24 24" width="512" xmlns="http://www.w3.org/2000/svg" data-name="Layer 1"><path d="m24 12a11.939 11.939 0 0 1 -3.1 8.024 10.229 10.229 0 0 1 -3.26-4.487l1.941-.579-.572-1.916-1.869.558a10.217 10.217 0 0 1 -.14-1.6 10.217 10.217 0 0 1 .14-1.6l1.866.556.572-1.916-1.941-.579a10.229 10.229 0 0 1 3.263-4.485 11.939 11.939 0 0 1 3.1 8.024zm-17.637 3.537-1.941-.579.572-1.916 1.866.558a10.217 10.217 0 0 0 .14-1.6 10.217 10.217 0 0 0 -.14-1.6l-1.866.556-.572-1.914 1.941-.579a10.229 10.229 0 0 0 -3.263-4.487 11.926 11.926 0 0 0 0 16.048 10.229 10.229 0 0 0 3.263-4.487zm9.361.571-1.9.565-.572-1.917 1.96-.585a12.225 12.225 0 0 1 -.212-2.171 12.225 12.225 0 0 1 .216-2.171l-1.96-.585.572-1.917 1.9.565a12.232 12.232 0 0 1 3.7-5.3 11.933 11.933 0 0 0 -14.844 0 12.232 12.232 0 0 1 3.7 5.3l1.9-.565.572 1.917-1.96.585a12.225 12.225 0 0 1 .204 2.171 12.225 12.225 0 0 1 -.216 2.171l1.96.585-.572 1.917-1.9-.565a12.232 12.232 0 0 1 -3.7 5.3 11.933 11.933 0 0 0 14.844 0 12.232 12.232 0 0 1 -3.692-5.3z"/></svg>