<?xml version="1.0" encoding="UTF-8"?>
<!-- Generator: Adobe Illustrator 25.0.0, SVG Export Plug-In . SVG Version: 6.00 Build 0)  -->
<svg xmlns="http://www.w3.org/2000/svg" xmlns:xlink="http://www.w3.org/1999/xlink" version="1.1" id="Capa_1" x="0px" y="0px" viewBox="0 0 512 512" style="enable-background:new 0 0 512 512;" xml:space="preserve" width="512" height="512">
<g>
	<path d="M149.333,469.333h-42.667c-35.346,0-64-28.654-64-64V106.667c0-35.346,28.654-64,64-64h42.667   c11.782,0,21.333-9.551,21.333-21.333S161.115,0,149.333,0h-42.667C47.786,0.071,0.071,47.786,0,106.667v298.667   C0.071,464.214,47.786,511.93,106.667,512h42.667c11.782,0,21.333-9.551,21.333-21.333   C170.667,478.885,161.115,469.333,149.333,469.333z"/>
	<path d="M490.667,234.667L490.667,234.667l-336.576,0.683c1.871-3.475,4.211-6.677,6.955-9.515l82.752-82.752   c8.475-8.185,8.71-21.691,0.525-30.165c-8.185-8.475-21.691-8.71-30.165-0.525c-0.178,0.172-0.353,0.347-0.525,0.525   l-82.795,82.752c-33.313,33.323-33.313,87.339,0,120.661l82.752,82.752c8.185,8.475,21.691,8.709,30.165,0.524   c8.475-8.185,8.709-21.691,0.524-30.165c-0.172-0.178-0.346-0.353-0.524-0.524l-82.752-82.752   c-2.388-2.459-4.472-5.195-6.208-8.149l335.872-0.683c11.782,0,21.333-9.551,21.333-21.333   C512,244.218,502.449,234.667,490.667,234.667z"/>
</g>















</svg>
