<?xml version="1.0" encoding="UTF-8"?>
<!-- Generator: Adobe Illustrator 25.0.0, SVG Export Plug-In . SVG Version: 6.00 Build 0)  -->
<svg xmlns="http://www.w3.org/2000/svg" xmlns:xlink="http://www.w3.org/1999/xlink" version="1.1" id="Capa_1" x="0px" y="0px" viewBox="0 0 512.029 512.029" style="enable-background:new 0 0 512.029 512.029;" xml:space="preserve" width="512" height="512">
<g>
	<path d="M85.342,0.029h64c47.128,0,85.333,38.205,85.333,85.333v64c0,47.128-38.205,85.333-85.333,85.333h-64   c-47.128,0-85.333-38.205-85.333-85.333v-64C0.009,38.234,38.214,0.029,85.342,0.029z"/>
	<path d="M85.342,277.362h64c47.128,0,85.333,38.205,85.333,85.333v64c0,47.128-38.205,85.333-85.333,85.333h-64   c-47.128,0-85.333-38.205-85.333-85.333v-64C0.009,315.567,38.214,277.362,85.342,277.362z"/>
	<path d="M475.593,408.05l-48.917,48.853V55.154l48.917,48.853c8.336,8.33,21.846,8.325,30.176-0.011s8.325-21.846-0.011-30.176   l-55.189-55.104c-24.987-24.956-65.466-24.956-90.453,0l-55.189,55.104c-8.336,8.33-8.341,21.84-0.011,30.176   c8.33,8.336,21.84,8.341,30.176,0.011l48.917-48.853v401.749l-48.917-48.853c-8.342-8.33-21.857-8.32-30.187,0.021   c-8.33,8.342-8.32,21.857,0.021,30.187l55.189,55.104c25.016,24.886,65.437,24.886,90.453,0l55.189-55.104   c8.342-8.33,8.351-21.845,0.021-30.187C497.449,399.73,483.934,399.72,475.593,408.05z"/>
</g>















</svg>
