<?xml version="1.0" encoding="UTF-8"?>
<svg xmlns="http://www.w3.org/2000/svg" id="Layer_1" data-name="Layer 1" viewBox="0 0 24 24" width="512" height="512"><path d="M23.79,15.565,19.978,16.6l1.034,3.812-1.93.524-1.188-4.379-1.963-1.125L13,17.124v2.27L16.207,22.6l-1.414,1.414L12,21.222,9.207,24.015,7.793,22.6,11,19.394v-2.27L8.069,15.432,6.106,16.557,4.918,20.936l-1.93-.524L4.022,16.6.21,15.565l.523-1.929,4.378,1.187L7,13.74V10.312L5.111,9.228.733,10.415.21,8.485,4.022,7.452,2.988,3.64l1.93-.524L6.106,7.494,7.9,8.523,11,6.733V4.657L7.793,1.45,9.207.036,12,2.829,14.793.036,16.207,1.45,13,4.657V6.733l3.1,1.79L17.9,7.494l1.187-4.378,1.93.524L19.978,7.452,23.79,8.485l-.523,1.93L18.889,9.228,17,10.311V13.74l1.889,1.083,4.378-1.187Z"/></svg>
