<?xml version="1.0" encoding="UTF-8"?>
<svg xmlns="http://www.w3.org/2000/svg" id="Layer_1" data-name="Layer 1" viewBox="0 0 24 24" width="512" height="512"><path d="M24,20.251V24H16V19.255a11.951,11.951,0,0,0-4.06-.755A10.941,10.941,0,0,0,8,19.244V24H0V20.25a5.327,5.327,0,0,1,1.593-3.788C3.741,14.314,7.63,13.021,12,13c4.364.013,8.192,1.241,10.412,3.462A5.328,5.328,0,0,1,24,20.251ZM5,4.389l5.928,5.949a2.206,2.206,0,0,0,1.572.653h0a2.2,2.2,0,0,0,1.57-.65l6.884-6.884L19.543,2.043,12.659,8.927a.218.218,0,0,1-.156.064h0a.22.22,0,0,1-.157-.065L6.439,3H10V1H5.5A2.488,2.488,0,0,0,3,3.471V8H5Z"/></svg>
