<svg id="Layer_1" height="512" viewBox="0 0 24 24" width="512" xmlns="http://www.w3.org/2000/svg" data-name="Layer 1"><path d="m14 7v-7h-8a3 3 0 0 0 -3 3v21h18v-17zm-7 3h10v2h-10zm0 4h10v2h-10zm6.135 7a3.154 3.154 0 0 1 -1.986-.706c-.314-.223-.424-.294-.662-.294a2.84 2.84 0 0 0 -1.786.713l-1.408-1.42a4.763 4.763 0 0 1 3.194-1.293 2.925 2.925 0 0 1 1.821.664 1.235 1.235 0 0 0 .827.336c.725 0 1.688-1.055 2.041-1.566l1.65 1.13c-.171.249-1.72 2.436-3.691 2.436zm2.865-20.781a4 4 0 0 1 1.586.953l2.242 2.242a3.969 3.969 0 0 1 .957 1.586h-4.785z"/></svg>